%TF.GenerationSoftware,KiCad,Pcbnew,10.0.3*%
%TF.CreationDate,2026-06-20T14:55:08-07:00*%
%TF.ProjectId,FLIGHT CONTROLLER,464c4947-4854-4204-934f-4e54524f4c4c,rev?*%
%TF.SameCoordinates,Original*%
%TF.FileFunction,Legend,Top*%
%TF.FilePolarity,Positive*%
%FSLAX46Y46*%
G04 Gerber Fmt 4.6, Leading zero omitted, Abs format (unit mm)*
G04 Created by KiCad (PCBNEW 10.0.3) date 2026-06-20 14:55:08*
%MOMM*%
%LPD*%
G01*
G04 APERTURE LIST*
%ADD10C,0.100000*%
%ADD11C,0.200000*%
%ADD12C,0.120000*%
%ADD13C,0.127000*%
%ADD14C,0.504000*%
G04 APERTURE END LIST*
D10*
X169500000Y-92500000D02*
X194500000Y-92500000D01*
X194500000Y-117500000D01*
X169500000Y-117500000D01*
X169500000Y-92500000D01*
D11*
X89322054Y-126734600D02*
X89464911Y-126806028D01*
X89464911Y-126806028D02*
X89703006Y-126806028D01*
X89703006Y-126806028D02*
X89798244Y-126734600D01*
X89798244Y-126734600D02*
X89845863Y-126663171D01*
X89845863Y-126663171D02*
X89893482Y-126520314D01*
X89893482Y-126520314D02*
X89893482Y-126377457D01*
X89893482Y-126377457D02*
X89845863Y-126234600D01*
X89845863Y-126234600D02*
X89798244Y-126163171D01*
X89798244Y-126163171D02*
X89703006Y-126091742D01*
X89703006Y-126091742D02*
X89512530Y-126020314D01*
X89512530Y-126020314D02*
X89417292Y-125948885D01*
X89417292Y-125948885D02*
X89369673Y-125877457D01*
X89369673Y-125877457D02*
X89322054Y-125734600D01*
X89322054Y-125734600D02*
X89322054Y-125591742D01*
X89322054Y-125591742D02*
X89369673Y-125448885D01*
X89369673Y-125448885D02*
X89417292Y-125377457D01*
X89417292Y-125377457D02*
X89512530Y-125306028D01*
X89512530Y-125306028D02*
X89750625Y-125306028D01*
X89750625Y-125306028D02*
X89893482Y-125377457D01*
X90322054Y-126806028D02*
X90322054Y-125306028D01*
X90322054Y-125306028D02*
X90560149Y-125306028D01*
X90560149Y-125306028D02*
X90703006Y-125377457D01*
X90703006Y-125377457D02*
X90798244Y-125520314D01*
X90798244Y-125520314D02*
X90845863Y-125663171D01*
X90845863Y-125663171D02*
X90893482Y-125948885D01*
X90893482Y-125948885D02*
X90893482Y-126163171D01*
X90893482Y-126163171D02*
X90845863Y-126448885D01*
X90845863Y-126448885D02*
X90798244Y-126591742D01*
X90798244Y-126591742D02*
X90703006Y-126734600D01*
X90703006Y-126734600D02*
X90560149Y-126806028D01*
X90560149Y-126806028D02*
X90322054Y-126806028D01*
X92655387Y-126663171D02*
X92607768Y-126734600D01*
X92607768Y-126734600D02*
X92464911Y-126806028D01*
X92464911Y-126806028D02*
X92369673Y-126806028D01*
X92369673Y-126806028D02*
X92226816Y-126734600D01*
X92226816Y-126734600D02*
X92131578Y-126591742D01*
X92131578Y-126591742D02*
X92083959Y-126448885D01*
X92083959Y-126448885D02*
X92036340Y-126163171D01*
X92036340Y-126163171D02*
X92036340Y-125948885D01*
X92036340Y-125948885D02*
X92083959Y-125663171D01*
X92083959Y-125663171D02*
X92131578Y-125520314D01*
X92131578Y-125520314D02*
X92226816Y-125377457D01*
X92226816Y-125377457D02*
X92369673Y-125306028D01*
X92369673Y-125306028D02*
X92464911Y-125306028D01*
X92464911Y-125306028D02*
X92607768Y-125377457D01*
X92607768Y-125377457D02*
X92655387Y-125448885D01*
X93036340Y-126377457D02*
X93512530Y-126377457D01*
X92941102Y-126806028D02*
X93274435Y-125306028D01*
X93274435Y-125306028D02*
X93607768Y-126806028D01*
X94512530Y-126806028D02*
X94179197Y-126091742D01*
X93941102Y-126806028D02*
X93941102Y-125306028D01*
X93941102Y-125306028D02*
X94322054Y-125306028D01*
X94322054Y-125306028D02*
X94417292Y-125377457D01*
X94417292Y-125377457D02*
X94464911Y-125448885D01*
X94464911Y-125448885D02*
X94512530Y-125591742D01*
X94512530Y-125591742D02*
X94512530Y-125806028D01*
X94512530Y-125806028D02*
X94464911Y-125948885D01*
X94464911Y-125948885D02*
X94417292Y-126020314D01*
X94417292Y-126020314D02*
X94322054Y-126091742D01*
X94322054Y-126091742D02*
X93941102Y-126091742D01*
X94941102Y-126806028D02*
X94941102Y-125306028D01*
X94941102Y-125306028D02*
X95179197Y-125306028D01*
X95179197Y-125306028D02*
X95322054Y-125377457D01*
X95322054Y-125377457D02*
X95417292Y-125520314D01*
X95417292Y-125520314D02*
X95464911Y-125663171D01*
X95464911Y-125663171D02*
X95512530Y-125948885D01*
X95512530Y-125948885D02*
X95512530Y-126163171D01*
X95512530Y-126163171D02*
X95464911Y-126448885D01*
X95464911Y-126448885D02*
X95417292Y-126591742D01*
X95417292Y-126591742D02*
X95322054Y-126734600D01*
X95322054Y-126734600D02*
X95179197Y-126806028D01*
X95179197Y-126806028D02*
X94941102Y-126806028D01*
X119941101Y-126663171D02*
X119893482Y-126734600D01*
X119893482Y-126734600D02*
X119750625Y-126806028D01*
X119750625Y-126806028D02*
X119655387Y-126806028D01*
X119655387Y-126806028D02*
X119512530Y-126734600D01*
X119512530Y-126734600D02*
X119417292Y-126591742D01*
X119417292Y-126591742D02*
X119369673Y-126448885D01*
X119369673Y-126448885D02*
X119322054Y-126163171D01*
X119322054Y-126163171D02*
X119322054Y-125948885D01*
X119322054Y-125948885D02*
X119369673Y-125663171D01*
X119369673Y-125663171D02*
X119417292Y-125520314D01*
X119417292Y-125520314D02*
X119512530Y-125377457D01*
X119512530Y-125377457D02*
X119655387Y-125306028D01*
X119655387Y-125306028D02*
X119750625Y-125306028D01*
X119750625Y-125306028D02*
X119893482Y-125377457D01*
X119893482Y-125377457D02*
X119941101Y-125448885D01*
X120941101Y-126806028D02*
X120607768Y-126091742D01*
X120369673Y-126806028D02*
X120369673Y-125306028D01*
X120369673Y-125306028D02*
X120750625Y-125306028D01*
X120750625Y-125306028D02*
X120845863Y-125377457D01*
X120845863Y-125377457D02*
X120893482Y-125448885D01*
X120893482Y-125448885D02*
X120941101Y-125591742D01*
X120941101Y-125591742D02*
X120941101Y-125806028D01*
X120941101Y-125806028D02*
X120893482Y-125948885D01*
X120893482Y-125948885D02*
X120845863Y-126020314D01*
X120845863Y-126020314D02*
X120750625Y-126091742D01*
X120750625Y-126091742D02*
X120369673Y-126091742D01*
X121322054Y-126734600D02*
X121464911Y-126806028D01*
X121464911Y-126806028D02*
X121703006Y-126806028D01*
X121703006Y-126806028D02*
X121798244Y-126734600D01*
X121798244Y-126734600D02*
X121845863Y-126663171D01*
X121845863Y-126663171D02*
X121893482Y-126520314D01*
X121893482Y-126520314D02*
X121893482Y-126377457D01*
X121893482Y-126377457D02*
X121845863Y-126234600D01*
X121845863Y-126234600D02*
X121798244Y-126163171D01*
X121798244Y-126163171D02*
X121703006Y-126091742D01*
X121703006Y-126091742D02*
X121512530Y-126020314D01*
X121512530Y-126020314D02*
X121417292Y-125948885D01*
X121417292Y-125948885D02*
X121369673Y-125877457D01*
X121369673Y-125877457D02*
X121322054Y-125734600D01*
X121322054Y-125734600D02*
X121322054Y-125591742D01*
X121322054Y-125591742D02*
X121369673Y-125448885D01*
X121369673Y-125448885D02*
X121417292Y-125377457D01*
X121417292Y-125377457D02*
X121512530Y-125306028D01*
X121512530Y-125306028D02*
X121750625Y-125306028D01*
X121750625Y-125306028D02*
X121893482Y-125377457D01*
X122655387Y-126020314D02*
X122322054Y-126020314D01*
X122322054Y-126806028D02*
X122322054Y-125306028D01*
X122322054Y-125306028D02*
X122798244Y-125306028D01*
X122941102Y-126948885D02*
X123703006Y-126948885D01*
X124512530Y-126806028D02*
X124179197Y-126091742D01*
X123941102Y-126806028D02*
X123941102Y-125306028D01*
X123941102Y-125306028D02*
X124322054Y-125306028D01*
X124322054Y-125306028D02*
X124417292Y-125377457D01*
X124417292Y-125377457D02*
X124464911Y-125448885D01*
X124464911Y-125448885D02*
X124512530Y-125591742D01*
X124512530Y-125591742D02*
X124512530Y-125806028D01*
X124512530Y-125806028D02*
X124464911Y-125948885D01*
X124464911Y-125948885D02*
X124417292Y-126020314D01*
X124417292Y-126020314D02*
X124322054Y-126091742D01*
X124322054Y-126091742D02*
X123941102Y-126091742D01*
X124845864Y-125306028D02*
X125512530Y-126806028D01*
X125512530Y-125306028D02*
X124845864Y-126806028D01*
X130322054Y-126377457D02*
X130798244Y-126377457D01*
X130226816Y-126806028D02*
X130560149Y-125306028D01*
X130560149Y-125306028D02*
X130893482Y-126806028D01*
X131179197Y-126734600D02*
X131322054Y-126806028D01*
X131322054Y-126806028D02*
X131560149Y-126806028D01*
X131560149Y-126806028D02*
X131655387Y-126734600D01*
X131655387Y-126734600D02*
X131703006Y-126663171D01*
X131703006Y-126663171D02*
X131750625Y-126520314D01*
X131750625Y-126520314D02*
X131750625Y-126377457D01*
X131750625Y-126377457D02*
X131703006Y-126234600D01*
X131703006Y-126234600D02*
X131655387Y-126163171D01*
X131655387Y-126163171D02*
X131560149Y-126091742D01*
X131560149Y-126091742D02*
X131369673Y-126020314D01*
X131369673Y-126020314D02*
X131274435Y-125948885D01*
X131274435Y-125948885D02*
X131226816Y-125877457D01*
X131226816Y-125877457D02*
X131179197Y-125734600D01*
X131179197Y-125734600D02*
X131179197Y-125591742D01*
X131179197Y-125591742D02*
X131226816Y-125448885D01*
X131226816Y-125448885D02*
X131274435Y-125377457D01*
X131274435Y-125377457D02*
X131369673Y-125306028D01*
X131369673Y-125306028D02*
X131607768Y-125306028D01*
X131607768Y-125306028D02*
X131750625Y-125377457D01*
X131941102Y-126948885D02*
X132703006Y-126948885D01*
X133464911Y-125377457D02*
X133369673Y-125306028D01*
X133369673Y-125306028D02*
X133226816Y-125306028D01*
X133226816Y-125306028D02*
X133083959Y-125377457D01*
X133083959Y-125377457D02*
X132988721Y-125520314D01*
X132988721Y-125520314D02*
X132941102Y-125663171D01*
X132941102Y-125663171D02*
X132893483Y-125948885D01*
X132893483Y-125948885D02*
X132893483Y-126163171D01*
X132893483Y-126163171D02*
X132941102Y-126448885D01*
X132941102Y-126448885D02*
X132988721Y-126591742D01*
X132988721Y-126591742D02*
X133083959Y-126734600D01*
X133083959Y-126734600D02*
X133226816Y-126806028D01*
X133226816Y-126806028D02*
X133322054Y-126806028D01*
X133322054Y-126806028D02*
X133464911Y-126734600D01*
X133464911Y-126734600D02*
X133512530Y-126663171D01*
X133512530Y-126663171D02*
X133512530Y-126163171D01*
X133512530Y-126163171D02*
X133322054Y-126163171D01*
X133941102Y-126806028D02*
X133941102Y-125306028D01*
X133941102Y-125306028D02*
X134322054Y-125306028D01*
X134322054Y-125306028D02*
X134417292Y-125377457D01*
X134417292Y-125377457D02*
X134464911Y-125448885D01*
X134464911Y-125448885D02*
X134512530Y-125591742D01*
X134512530Y-125591742D02*
X134512530Y-125806028D01*
X134512530Y-125806028D02*
X134464911Y-125948885D01*
X134464911Y-125948885D02*
X134417292Y-126020314D01*
X134417292Y-126020314D02*
X134322054Y-126091742D01*
X134322054Y-126091742D02*
X133941102Y-126091742D01*
X134893483Y-126734600D02*
X135036340Y-126806028D01*
X135036340Y-126806028D02*
X135274435Y-126806028D01*
X135274435Y-126806028D02*
X135369673Y-126734600D01*
X135369673Y-126734600D02*
X135417292Y-126663171D01*
X135417292Y-126663171D02*
X135464911Y-126520314D01*
X135464911Y-126520314D02*
X135464911Y-126377457D01*
X135464911Y-126377457D02*
X135417292Y-126234600D01*
X135417292Y-126234600D02*
X135369673Y-126163171D01*
X135369673Y-126163171D02*
X135274435Y-126091742D01*
X135274435Y-126091742D02*
X135083959Y-126020314D01*
X135083959Y-126020314D02*
X134988721Y-125948885D01*
X134988721Y-125948885D02*
X134941102Y-125877457D01*
X134941102Y-125877457D02*
X134893483Y-125734600D01*
X134893483Y-125734600D02*
X134893483Y-125591742D01*
X134893483Y-125591742D02*
X134941102Y-125448885D01*
X134941102Y-125448885D02*
X134988721Y-125377457D01*
X134988721Y-125377457D02*
X135083959Y-125306028D01*
X135083959Y-125306028D02*
X135322054Y-125306028D01*
X135322054Y-125306028D02*
X135464911Y-125377457D01*
X135655388Y-126948885D02*
X136417292Y-126948885D01*
X136560150Y-125306028D02*
X137226816Y-126806028D01*
X137226816Y-125306028D02*
X136560150Y-126806028D01*
X137607769Y-126806028D02*
X137607769Y-125306028D01*
X138036340Y-126377457D02*
X138512530Y-126377457D01*
X137941102Y-126806028D02*
X138274435Y-125306028D01*
X138274435Y-125306028D02*
X138607768Y-126806028D01*
X139131578Y-125306028D02*
X139322054Y-125306028D01*
X139322054Y-125306028D02*
X139417292Y-125377457D01*
X139417292Y-125377457D02*
X139512530Y-125520314D01*
X139512530Y-125520314D02*
X139560149Y-125806028D01*
X139560149Y-125806028D02*
X139560149Y-126306028D01*
X139560149Y-126306028D02*
X139512530Y-126591742D01*
X139512530Y-126591742D02*
X139417292Y-126734600D01*
X139417292Y-126734600D02*
X139322054Y-126806028D01*
X139322054Y-126806028D02*
X139131578Y-126806028D01*
X139131578Y-126806028D02*
X139036340Y-126734600D01*
X139036340Y-126734600D02*
X138941102Y-126591742D01*
X138941102Y-126591742D02*
X138893483Y-126306028D01*
X138893483Y-126306028D02*
X138893483Y-125806028D01*
X138893483Y-125806028D02*
X138941102Y-125520314D01*
X138941102Y-125520314D02*
X139036340Y-125377457D01*
X139036340Y-125377457D02*
X139131578Y-125306028D01*
X139750626Y-126948885D02*
X140512530Y-126948885D01*
X140941102Y-125306028D02*
X141131578Y-125306028D01*
X141131578Y-125306028D02*
X141226816Y-125377457D01*
X141226816Y-125377457D02*
X141322054Y-125520314D01*
X141322054Y-125520314D02*
X141369673Y-125806028D01*
X141369673Y-125806028D02*
X141369673Y-126306028D01*
X141369673Y-126306028D02*
X141322054Y-126591742D01*
X141322054Y-126591742D02*
X141226816Y-126734600D01*
X141226816Y-126734600D02*
X141131578Y-126806028D01*
X141131578Y-126806028D02*
X140941102Y-126806028D01*
X140941102Y-126806028D02*
X140845864Y-126734600D01*
X140845864Y-126734600D02*
X140750626Y-126591742D01*
X140750626Y-126591742D02*
X140703007Y-126306028D01*
X140703007Y-126306028D02*
X140703007Y-125806028D01*
X140703007Y-125806028D02*
X140750626Y-125520314D01*
X140750626Y-125520314D02*
X140845864Y-125377457D01*
X140845864Y-125377457D02*
X140941102Y-125306028D01*
X141798245Y-125306028D02*
X141798245Y-126520314D01*
X141798245Y-126520314D02*
X141845864Y-126663171D01*
X141845864Y-126663171D02*
X141893483Y-126734600D01*
X141893483Y-126734600D02*
X141988721Y-126806028D01*
X141988721Y-126806028D02*
X142179197Y-126806028D01*
X142179197Y-126806028D02*
X142274435Y-126734600D01*
X142274435Y-126734600D02*
X142322054Y-126663171D01*
X142322054Y-126663171D02*
X142369673Y-126520314D01*
X142369673Y-126520314D02*
X142369673Y-125306028D01*
X142703007Y-125306028D02*
X143274435Y-125306028D01*
X142988721Y-126806028D02*
X142988721Y-125306028D01*
X143941102Y-126020314D02*
X144083959Y-126091742D01*
X144083959Y-126091742D02*
X144131578Y-126163171D01*
X144131578Y-126163171D02*
X144179197Y-126306028D01*
X144179197Y-126306028D02*
X144179197Y-126520314D01*
X144179197Y-126520314D02*
X144131578Y-126663171D01*
X144131578Y-126663171D02*
X144083959Y-126734600D01*
X144083959Y-126734600D02*
X143988721Y-126806028D01*
X143988721Y-126806028D02*
X143607769Y-126806028D01*
X143607769Y-126806028D02*
X143607769Y-125306028D01*
X143607769Y-125306028D02*
X143941102Y-125306028D01*
X143941102Y-125306028D02*
X144036340Y-125377457D01*
X144036340Y-125377457D02*
X144083959Y-125448885D01*
X144083959Y-125448885D02*
X144131578Y-125591742D01*
X144131578Y-125591742D02*
X144131578Y-125734600D01*
X144131578Y-125734600D02*
X144083959Y-125877457D01*
X144083959Y-125877457D02*
X144036340Y-125948885D01*
X144036340Y-125948885D02*
X143941102Y-126020314D01*
X143941102Y-126020314D02*
X143607769Y-126020314D01*
X144798245Y-125306028D02*
X144988721Y-125306028D01*
X144988721Y-125306028D02*
X145083959Y-125377457D01*
X145083959Y-125377457D02*
X145179197Y-125520314D01*
X145179197Y-125520314D02*
X145226816Y-125806028D01*
X145226816Y-125806028D02*
X145226816Y-126306028D01*
X145226816Y-126306028D02*
X145179197Y-126591742D01*
X145179197Y-126591742D02*
X145083959Y-126734600D01*
X145083959Y-126734600D02*
X144988721Y-126806028D01*
X144988721Y-126806028D02*
X144798245Y-126806028D01*
X144798245Y-126806028D02*
X144703007Y-126734600D01*
X144703007Y-126734600D02*
X144607769Y-126591742D01*
X144607769Y-126591742D02*
X144560150Y-126306028D01*
X144560150Y-126306028D02*
X144560150Y-125806028D01*
X144560150Y-125806028D02*
X144607769Y-125520314D01*
X144607769Y-125520314D02*
X144703007Y-125377457D01*
X144703007Y-125377457D02*
X144798245Y-125306028D01*
X145607769Y-126377457D02*
X146083959Y-126377457D01*
X145512531Y-126806028D02*
X145845864Y-125306028D01*
X145845864Y-125306028D02*
X146179197Y-126806028D01*
X147083959Y-126806028D02*
X146750626Y-126091742D01*
X146512531Y-126806028D02*
X146512531Y-125306028D01*
X146512531Y-125306028D02*
X146893483Y-125306028D01*
X146893483Y-125306028D02*
X146988721Y-125377457D01*
X146988721Y-125377457D02*
X147036340Y-125448885D01*
X147036340Y-125448885D02*
X147083959Y-125591742D01*
X147083959Y-125591742D02*
X147083959Y-125806028D01*
X147083959Y-125806028D02*
X147036340Y-125948885D01*
X147036340Y-125948885D02*
X146988721Y-126020314D01*
X146988721Y-126020314D02*
X146893483Y-126091742D01*
X146893483Y-126091742D02*
X146512531Y-126091742D01*
X147512531Y-126806028D02*
X147512531Y-125306028D01*
X147512531Y-125306028D02*
X147750626Y-125306028D01*
X147750626Y-125306028D02*
X147893483Y-125377457D01*
X147893483Y-125377457D02*
X147988721Y-125520314D01*
X147988721Y-125520314D02*
X148036340Y-125663171D01*
X148036340Y-125663171D02*
X148083959Y-125948885D01*
X148083959Y-125948885D02*
X148083959Y-126163171D01*
X148083959Y-126163171D02*
X148036340Y-126448885D01*
X148036340Y-126448885D02*
X147988721Y-126591742D01*
X147988721Y-126591742D02*
X147893483Y-126734600D01*
X147893483Y-126734600D02*
X147750626Y-126806028D01*
X147750626Y-126806028D02*
X147512531Y-126806028D01*
X174369673Y-105806028D02*
X174369673Y-104306028D01*
X174845863Y-105806028D02*
X174845863Y-104306028D01*
X174845863Y-104306028D02*
X175179196Y-105377457D01*
X175179196Y-105377457D02*
X175512529Y-104306028D01*
X175512529Y-104306028D02*
X175512529Y-105806028D01*
X175988720Y-104306028D02*
X175988720Y-105520314D01*
X175988720Y-105520314D02*
X176036339Y-105663171D01*
X176036339Y-105663171D02*
X176083958Y-105734600D01*
X176083958Y-105734600D02*
X176179196Y-105806028D01*
X176179196Y-105806028D02*
X176369672Y-105806028D01*
X176369672Y-105806028D02*
X176464910Y-105734600D01*
X176464910Y-105734600D02*
X176512529Y-105663171D01*
X176512529Y-105663171D02*
X176560148Y-105520314D01*
X176560148Y-105520314D02*
X176560148Y-104306028D01*
X178322053Y-104377457D02*
X178226815Y-104306028D01*
X178226815Y-104306028D02*
X178083958Y-104306028D01*
X178083958Y-104306028D02*
X177941101Y-104377457D01*
X177941101Y-104377457D02*
X177845863Y-104520314D01*
X177845863Y-104520314D02*
X177798244Y-104663171D01*
X177798244Y-104663171D02*
X177750625Y-104948885D01*
X177750625Y-104948885D02*
X177750625Y-105163171D01*
X177750625Y-105163171D02*
X177798244Y-105448885D01*
X177798244Y-105448885D02*
X177845863Y-105591742D01*
X177845863Y-105591742D02*
X177941101Y-105734600D01*
X177941101Y-105734600D02*
X178083958Y-105806028D01*
X178083958Y-105806028D02*
X178179196Y-105806028D01*
X178179196Y-105806028D02*
X178322053Y-105734600D01*
X178322053Y-105734600D02*
X178369672Y-105663171D01*
X178369672Y-105663171D02*
X178369672Y-105163171D01*
X178369672Y-105163171D02*
X178179196Y-105163171D01*
X179274434Y-105806028D02*
X178798244Y-105806028D01*
X178798244Y-105806028D02*
X178798244Y-104306028D01*
X179607768Y-104306028D02*
X179607768Y-105520314D01*
X179607768Y-105520314D02*
X179655387Y-105663171D01*
X179655387Y-105663171D02*
X179703006Y-105734600D01*
X179703006Y-105734600D02*
X179798244Y-105806028D01*
X179798244Y-105806028D02*
X179988720Y-105806028D01*
X179988720Y-105806028D02*
X180083958Y-105734600D01*
X180083958Y-105734600D02*
X180131577Y-105663171D01*
X180131577Y-105663171D02*
X180179196Y-105520314D01*
X180179196Y-105520314D02*
X180179196Y-104306028D01*
X180655387Y-105020314D02*
X180988720Y-105020314D01*
X181131577Y-105806028D02*
X180655387Y-105806028D01*
X180655387Y-105806028D02*
X180655387Y-104306028D01*
X180655387Y-104306028D02*
X181131577Y-104306028D01*
X182274435Y-105377457D02*
X182750625Y-105377457D01*
X182179197Y-105806028D02*
X182512530Y-104306028D01*
X182512530Y-104306028D02*
X182845863Y-105806028D01*
X183750625Y-105806028D02*
X183417292Y-105091742D01*
X183179197Y-105806028D02*
X183179197Y-104306028D01*
X183179197Y-104306028D02*
X183560149Y-104306028D01*
X183560149Y-104306028D02*
X183655387Y-104377457D01*
X183655387Y-104377457D02*
X183703006Y-104448885D01*
X183703006Y-104448885D02*
X183750625Y-104591742D01*
X183750625Y-104591742D02*
X183750625Y-104806028D01*
X183750625Y-104806028D02*
X183703006Y-104948885D01*
X183703006Y-104948885D02*
X183655387Y-105020314D01*
X183655387Y-105020314D02*
X183560149Y-105091742D01*
X183560149Y-105091742D02*
X183179197Y-105091742D01*
X184179197Y-105020314D02*
X184512530Y-105020314D01*
X184655387Y-105806028D02*
X184179197Y-105806028D01*
X184179197Y-105806028D02*
X184179197Y-104306028D01*
X184179197Y-104306028D02*
X184655387Y-104306028D01*
X185036340Y-105377457D02*
X185512530Y-105377457D01*
X184941102Y-105806028D02*
X185274435Y-104306028D01*
X185274435Y-104306028D02*
X185607768Y-105806028D01*
X179639673Y-82806028D02*
X179639673Y-81306028D01*
X180115863Y-82806028D02*
X180115863Y-81306028D01*
X180115863Y-81306028D02*
X180449196Y-82377457D01*
X180449196Y-82377457D02*
X180782529Y-81306028D01*
X180782529Y-81306028D02*
X180782529Y-82806028D01*
X181258720Y-81306028D02*
X181258720Y-82520314D01*
X181258720Y-82520314D02*
X181306339Y-82663171D01*
X181306339Y-82663171D02*
X181353958Y-82734600D01*
X181353958Y-82734600D02*
X181449196Y-82806028D01*
X181449196Y-82806028D02*
X181639672Y-82806028D01*
X181639672Y-82806028D02*
X181734910Y-82734600D01*
X181734910Y-82734600D02*
X181782529Y-82663171D01*
X181782529Y-82663171D02*
X181830148Y-82520314D01*
X181830148Y-82520314D02*
X181830148Y-81306028D01*
X152238095Y-81783528D02*
X152238095Y-82997814D01*
X152238095Y-82997814D02*
X152285714Y-83140671D01*
X152285714Y-83140671D02*
X152333333Y-83212100D01*
X152333333Y-83212100D02*
X152428571Y-83283528D01*
X152428571Y-83283528D02*
X152619047Y-83283528D01*
X152619047Y-83283528D02*
X152714285Y-83212100D01*
X152714285Y-83212100D02*
X152761904Y-83140671D01*
X152761904Y-83140671D02*
X152809523Y-82997814D01*
X152809523Y-82997814D02*
X152809523Y-81783528D01*
X153190476Y-81783528D02*
X153809523Y-81783528D01*
X153809523Y-81783528D02*
X153476190Y-82354957D01*
X153476190Y-82354957D02*
X153619047Y-82354957D01*
X153619047Y-82354957D02*
X153714285Y-82426385D01*
X153714285Y-82426385D02*
X153761904Y-82497814D01*
X153761904Y-82497814D02*
X153809523Y-82640671D01*
X153809523Y-82640671D02*
X153809523Y-82997814D01*
X153809523Y-82997814D02*
X153761904Y-83140671D01*
X153761904Y-83140671D02*
X153714285Y-83212100D01*
X153714285Y-83212100D02*
X153619047Y-83283528D01*
X153619047Y-83283528D02*
X153333333Y-83283528D01*
X153333333Y-83283528D02*
X153238095Y-83212100D01*
X153238095Y-83212100D02*
X153190476Y-83140671D01*
X129293528Y-123333333D02*
X130364957Y-123333333D01*
X130364957Y-123333333D02*
X130579242Y-123380952D01*
X130579242Y-123380952D02*
X130722100Y-123476190D01*
X130722100Y-123476190D02*
X130793528Y-123619047D01*
X130793528Y-123619047D02*
X130793528Y-123714285D01*
X129293528Y-122380952D02*
X129293528Y-122857142D01*
X129293528Y-122857142D02*
X130007814Y-122904761D01*
X130007814Y-122904761D02*
X129936385Y-122857142D01*
X129936385Y-122857142D02*
X129864957Y-122761904D01*
X129864957Y-122761904D02*
X129864957Y-122523809D01*
X129864957Y-122523809D02*
X129936385Y-122428571D01*
X129936385Y-122428571D02*
X130007814Y-122380952D01*
X130007814Y-122380952D02*
X130150671Y-122333333D01*
X130150671Y-122333333D02*
X130507814Y-122333333D01*
X130507814Y-122333333D02*
X130650671Y-122380952D01*
X130650671Y-122380952D02*
X130722100Y-122428571D01*
X130722100Y-122428571D02*
X130793528Y-122523809D01*
X130793528Y-122523809D02*
X130793528Y-122761904D01*
X130793528Y-122761904D02*
X130722100Y-122857142D01*
X130722100Y-122857142D02*
X130650671Y-122904761D01*
X82293528Y-123333333D02*
X83364957Y-123333333D01*
X83364957Y-123333333D02*
X83579242Y-123380952D01*
X83579242Y-123380952D02*
X83722100Y-123476190D01*
X83722100Y-123476190D02*
X83793528Y-123619047D01*
X83793528Y-123619047D02*
X83793528Y-123714285D01*
X82436385Y-122904761D02*
X82364957Y-122857142D01*
X82364957Y-122857142D02*
X82293528Y-122761904D01*
X82293528Y-122761904D02*
X82293528Y-122523809D01*
X82293528Y-122523809D02*
X82364957Y-122428571D01*
X82364957Y-122428571D02*
X82436385Y-122380952D01*
X82436385Y-122380952D02*
X82579242Y-122333333D01*
X82579242Y-122333333D02*
X82722100Y-122333333D01*
X82722100Y-122333333D02*
X82936385Y-122380952D01*
X82936385Y-122380952D02*
X83793528Y-122952380D01*
X83793528Y-122952380D02*
X83793528Y-122333333D01*
X145238095Y-118254957D02*
X145142857Y-118183528D01*
X145142857Y-118183528D02*
X145000000Y-118183528D01*
X145000000Y-118183528D02*
X144857143Y-118254957D01*
X144857143Y-118254957D02*
X144761905Y-118397814D01*
X144761905Y-118397814D02*
X144714286Y-118540671D01*
X144714286Y-118540671D02*
X144666667Y-118826385D01*
X144666667Y-118826385D02*
X144666667Y-119040671D01*
X144666667Y-119040671D02*
X144714286Y-119326385D01*
X144714286Y-119326385D02*
X144761905Y-119469242D01*
X144761905Y-119469242D02*
X144857143Y-119612100D01*
X144857143Y-119612100D02*
X145000000Y-119683528D01*
X145000000Y-119683528D02*
X145095238Y-119683528D01*
X145095238Y-119683528D02*
X145238095Y-119612100D01*
X145238095Y-119612100D02*
X145285714Y-119540671D01*
X145285714Y-119540671D02*
X145285714Y-119040671D01*
X145285714Y-119040671D02*
X145095238Y-119040671D01*
X145714286Y-119683528D02*
X145714286Y-118183528D01*
X145714286Y-118183528D02*
X146285714Y-119683528D01*
X146285714Y-119683528D02*
X146285714Y-118183528D01*
X146761905Y-119683528D02*
X146761905Y-118183528D01*
X146761905Y-118183528D02*
X147000000Y-118183528D01*
X147000000Y-118183528D02*
X147142857Y-118254957D01*
X147142857Y-118254957D02*
X147238095Y-118397814D01*
X147238095Y-118397814D02*
X147285714Y-118540671D01*
X147285714Y-118540671D02*
X147333333Y-118826385D01*
X147333333Y-118826385D02*
X147333333Y-119040671D01*
X147333333Y-119040671D02*
X147285714Y-119326385D01*
X147285714Y-119326385D02*
X147238095Y-119469242D01*
X147238095Y-119469242D02*
X147142857Y-119612100D01*
X147142857Y-119612100D02*
X147000000Y-119683528D01*
X147000000Y-119683528D02*
X146761905Y-119683528D01*
X171666666Y-84183528D02*
X171666666Y-85254957D01*
X171666666Y-85254957D02*
X171619047Y-85469242D01*
X171619047Y-85469242D02*
X171523809Y-85612100D01*
X171523809Y-85612100D02*
X171380952Y-85683528D01*
X171380952Y-85683528D02*
X171285714Y-85683528D01*
X172047619Y-84183528D02*
X172666666Y-84183528D01*
X172666666Y-84183528D02*
X172333333Y-84754957D01*
X172333333Y-84754957D02*
X172476190Y-84754957D01*
X172476190Y-84754957D02*
X172571428Y-84826385D01*
X172571428Y-84826385D02*
X172619047Y-84897814D01*
X172619047Y-84897814D02*
X172666666Y-85040671D01*
X172666666Y-85040671D02*
X172666666Y-85397814D01*
X172666666Y-85397814D02*
X172619047Y-85540671D01*
X172619047Y-85540671D02*
X172571428Y-85612100D01*
X172571428Y-85612100D02*
X172476190Y-85683528D01*
X172476190Y-85683528D02*
X172190476Y-85683528D01*
X172190476Y-85683528D02*
X172095238Y-85612100D01*
X172095238Y-85612100D02*
X172047619Y-85540671D01*
X132257814Y-83333333D02*
X132257814Y-83000000D01*
X133043528Y-82857143D02*
X133043528Y-83333333D01*
X133043528Y-83333333D02*
X131543528Y-83333333D01*
X131543528Y-83333333D02*
X131543528Y-82857143D01*
X133043528Y-82285714D02*
X132972100Y-82380952D01*
X132972100Y-82380952D02*
X132829242Y-82428571D01*
X132829242Y-82428571D02*
X131543528Y-82428571D01*
X132972100Y-81523809D02*
X133043528Y-81619047D01*
X133043528Y-81619047D02*
X133043528Y-81809523D01*
X133043528Y-81809523D02*
X132972100Y-81904761D01*
X132972100Y-81904761D02*
X132829242Y-81952380D01*
X132829242Y-81952380D02*
X132257814Y-81952380D01*
X132257814Y-81952380D02*
X132114957Y-81904761D01*
X132114957Y-81904761D02*
X132043528Y-81809523D01*
X132043528Y-81809523D02*
X132043528Y-81619047D01*
X132043528Y-81619047D02*
X132114957Y-81523809D01*
X132114957Y-81523809D02*
X132257814Y-81476190D01*
X132257814Y-81476190D02*
X132400671Y-81476190D01*
X132400671Y-81476190D02*
X132543528Y-81952380D01*
X132614957Y-81095237D02*
X132614957Y-80619047D01*
X133043528Y-81190475D02*
X131543528Y-80857142D01*
X131543528Y-80857142D02*
X133043528Y-80523809D01*
X156619047Y-118183528D02*
X157190475Y-118183528D01*
X156904761Y-119683528D02*
X156904761Y-118183528D01*
X157523809Y-118897814D02*
X157857142Y-118897814D01*
X157999999Y-119683528D02*
X157523809Y-119683528D01*
X157523809Y-119683528D02*
X157523809Y-118183528D01*
X157523809Y-118183528D02*
X157999999Y-118183528D01*
X158428571Y-118897814D02*
X158761904Y-118897814D01*
X158904761Y-119683528D02*
X158428571Y-119683528D01*
X158428571Y-119683528D02*
X158428571Y-118183528D01*
X158428571Y-118183528D02*
X158904761Y-118183528D01*
X159333333Y-119683528D02*
X159333333Y-118183528D01*
X159333333Y-118183528D02*
X159904761Y-119683528D01*
X159904761Y-119683528D02*
X159904761Y-118183528D01*
X160333333Y-119612100D02*
X160476190Y-119683528D01*
X160476190Y-119683528D02*
X160714285Y-119683528D01*
X160714285Y-119683528D02*
X160809523Y-119612100D01*
X160809523Y-119612100D02*
X160857142Y-119540671D01*
X160857142Y-119540671D02*
X160904761Y-119397814D01*
X160904761Y-119397814D02*
X160904761Y-119254957D01*
X160904761Y-119254957D02*
X160857142Y-119112100D01*
X160857142Y-119112100D02*
X160809523Y-119040671D01*
X160809523Y-119040671D02*
X160714285Y-118969242D01*
X160714285Y-118969242D02*
X160523809Y-118897814D01*
X160523809Y-118897814D02*
X160428571Y-118826385D01*
X160428571Y-118826385D02*
X160380952Y-118754957D01*
X160380952Y-118754957D02*
X160333333Y-118612100D01*
X160333333Y-118612100D02*
X160333333Y-118469242D01*
X160333333Y-118469242D02*
X160380952Y-118326385D01*
X160380952Y-118326385D02*
X160428571Y-118254957D01*
X160428571Y-118254957D02*
X160523809Y-118183528D01*
X160523809Y-118183528D02*
X160761904Y-118183528D01*
X160761904Y-118183528D02*
X160904761Y-118254957D01*
X161523809Y-118969242D02*
X161523809Y-119683528D01*
X161190476Y-118183528D02*
X161523809Y-118969242D01*
X161523809Y-118969242D02*
X161857142Y-118183528D01*
X161952381Y-119826385D02*
X162714285Y-119826385D01*
X162857143Y-118183528D02*
X163476190Y-118183528D01*
X163476190Y-118183528D02*
X163142857Y-118754957D01*
X163142857Y-118754957D02*
X163285714Y-118754957D01*
X163285714Y-118754957D02*
X163380952Y-118826385D01*
X163380952Y-118826385D02*
X163428571Y-118897814D01*
X163428571Y-118897814D02*
X163476190Y-119040671D01*
X163476190Y-119040671D02*
X163476190Y-119397814D01*
X163476190Y-119397814D02*
X163428571Y-119540671D01*
X163428571Y-119540671D02*
X163380952Y-119612100D01*
X163380952Y-119612100D02*
X163285714Y-119683528D01*
X163285714Y-119683528D02*
X163000000Y-119683528D01*
X163000000Y-119683528D02*
X162904762Y-119612100D01*
X162904762Y-119612100D02*
X162857143Y-119540671D01*
X163761905Y-118183528D02*
X164095238Y-119683528D01*
X164095238Y-119683528D02*
X164428571Y-118183528D01*
X164666667Y-118183528D02*
X165285714Y-118183528D01*
X165285714Y-118183528D02*
X164952381Y-118754957D01*
X164952381Y-118754957D02*
X165095238Y-118754957D01*
X165095238Y-118754957D02*
X165190476Y-118826385D01*
X165190476Y-118826385D02*
X165238095Y-118897814D01*
X165238095Y-118897814D02*
X165285714Y-119040671D01*
X165285714Y-119040671D02*
X165285714Y-119397814D01*
X165285714Y-119397814D02*
X165238095Y-119540671D01*
X165238095Y-119540671D02*
X165190476Y-119612100D01*
X165190476Y-119612100D02*
X165095238Y-119683528D01*
X165095238Y-119683528D02*
X164809524Y-119683528D01*
X164809524Y-119683528D02*
X164714286Y-119612100D01*
X164714286Y-119612100D02*
X164666667Y-119540671D01*
X96090671Y-83071428D02*
X96162100Y-83119047D01*
X96162100Y-83119047D02*
X96233528Y-83261904D01*
X96233528Y-83261904D02*
X96233528Y-83357142D01*
X96233528Y-83357142D02*
X96162100Y-83499999D01*
X96162100Y-83499999D02*
X96019242Y-83595237D01*
X96019242Y-83595237D02*
X95876385Y-83642856D01*
X95876385Y-83642856D02*
X95590671Y-83690475D01*
X95590671Y-83690475D02*
X95376385Y-83690475D01*
X95376385Y-83690475D02*
X95090671Y-83642856D01*
X95090671Y-83642856D02*
X94947814Y-83595237D01*
X94947814Y-83595237D02*
X94804957Y-83499999D01*
X94804957Y-83499999D02*
X94733528Y-83357142D01*
X94733528Y-83357142D02*
X94733528Y-83261904D01*
X94733528Y-83261904D02*
X94804957Y-83119047D01*
X94804957Y-83119047D02*
X94876385Y-83071428D01*
X96233528Y-82642856D02*
X94733528Y-82642856D01*
X96233528Y-82214285D02*
X95447814Y-82214285D01*
X95447814Y-82214285D02*
X95304957Y-82261904D01*
X95304957Y-82261904D02*
X95233528Y-82357142D01*
X95233528Y-82357142D02*
X95233528Y-82499999D01*
X95233528Y-82499999D02*
X95304957Y-82595237D01*
X95304957Y-82595237D02*
X95376385Y-82642856D01*
X96233528Y-81309523D02*
X95447814Y-81309523D01*
X95447814Y-81309523D02*
X95304957Y-81357142D01*
X95304957Y-81357142D02*
X95233528Y-81452380D01*
X95233528Y-81452380D02*
X95233528Y-81642856D01*
X95233528Y-81642856D02*
X95304957Y-81738094D01*
X96162100Y-81309523D02*
X96233528Y-81404761D01*
X96233528Y-81404761D02*
X96233528Y-81642856D01*
X96233528Y-81642856D02*
X96162100Y-81738094D01*
X96162100Y-81738094D02*
X96019242Y-81785713D01*
X96019242Y-81785713D02*
X95876385Y-81785713D01*
X95876385Y-81785713D02*
X95733528Y-81738094D01*
X95733528Y-81738094D02*
X95662100Y-81642856D01*
X95662100Y-81642856D02*
X95662100Y-81404761D01*
X95662100Y-81404761D02*
X95590671Y-81309523D01*
X94733528Y-80928570D02*
X94733528Y-80261904D01*
X94733528Y-80261904D02*
X96233528Y-80690475D01*
X101258095Y-114183528D02*
X101258095Y-115397814D01*
X101258095Y-115397814D02*
X101305714Y-115540671D01*
X101305714Y-115540671D02*
X101353333Y-115612100D01*
X101353333Y-115612100D02*
X101448571Y-115683528D01*
X101448571Y-115683528D02*
X101639047Y-115683528D01*
X101639047Y-115683528D02*
X101734285Y-115612100D01*
X101734285Y-115612100D02*
X101781904Y-115540671D01*
X101781904Y-115540671D02*
X101829523Y-115397814D01*
X101829523Y-115397814D02*
X101829523Y-114183528D01*
X102829523Y-115683528D02*
X102258095Y-115683528D01*
X102543809Y-115683528D02*
X102543809Y-114183528D01*
X102543809Y-114183528D02*
X102448571Y-114397814D01*
X102448571Y-114397814D02*
X102353333Y-114540671D01*
X102353333Y-114540671D02*
X102258095Y-114612100D01*
X105683528Y-96090326D02*
X104183528Y-96090326D01*
X104183528Y-96090326D02*
X104183528Y-95852231D01*
X104183528Y-95852231D02*
X104254957Y-95709374D01*
X104254957Y-95709374D02*
X104397814Y-95614136D01*
X104397814Y-95614136D02*
X104540671Y-95566517D01*
X104540671Y-95566517D02*
X104826385Y-95518898D01*
X104826385Y-95518898D02*
X105040671Y-95518898D01*
X105040671Y-95518898D02*
X105326385Y-95566517D01*
X105326385Y-95566517D02*
X105469242Y-95614136D01*
X105469242Y-95614136D02*
X105612100Y-95709374D01*
X105612100Y-95709374D02*
X105683528Y-95852231D01*
X105683528Y-95852231D02*
X105683528Y-96090326D01*
X105683528Y-94566517D02*
X105683528Y-95137945D01*
X105683528Y-94852231D02*
X104183528Y-94852231D01*
X104183528Y-94852231D02*
X104397814Y-94947469D01*
X104397814Y-94947469D02*
X104540671Y-95042707D01*
X104540671Y-95042707D02*
X104612100Y-95137945D01*
X104326385Y-94185564D02*
X104254957Y-94137945D01*
X104254957Y-94137945D02*
X104183528Y-94042707D01*
X104183528Y-94042707D02*
X104183528Y-93804612D01*
X104183528Y-93804612D02*
X104254957Y-93709374D01*
X104254957Y-93709374D02*
X104326385Y-93661755D01*
X104326385Y-93661755D02*
X104469242Y-93614136D01*
X104469242Y-93614136D02*
X104612100Y-93614136D01*
X104612100Y-93614136D02*
X104826385Y-93661755D01*
X104826385Y-93661755D02*
X105683528Y-94233183D01*
X105683528Y-94233183D02*
X105683528Y-93614136D01*
X106203528Y-118798244D02*
X104703528Y-118798244D01*
X104703528Y-118798244D02*
X104703528Y-118560149D01*
X104703528Y-118560149D02*
X104774957Y-118417292D01*
X104774957Y-118417292D02*
X104917814Y-118322054D01*
X104917814Y-118322054D02*
X105060671Y-118274435D01*
X105060671Y-118274435D02*
X105346385Y-118226816D01*
X105346385Y-118226816D02*
X105560671Y-118226816D01*
X105560671Y-118226816D02*
X105846385Y-118274435D01*
X105846385Y-118274435D02*
X105989242Y-118322054D01*
X105989242Y-118322054D02*
X106132100Y-118417292D01*
X106132100Y-118417292D02*
X106203528Y-118560149D01*
X106203528Y-118560149D02*
X106203528Y-118798244D01*
X106203528Y-117274435D02*
X106203528Y-117845863D01*
X106203528Y-117560149D02*
X104703528Y-117560149D01*
X104703528Y-117560149D02*
X104917814Y-117655387D01*
X104917814Y-117655387D02*
X105060671Y-117750625D01*
X105060671Y-117750625D02*
X105132100Y-117845863D01*
X104703528Y-116941101D02*
X104703528Y-116322054D01*
X104703528Y-116322054D02*
X105274957Y-116655387D01*
X105274957Y-116655387D02*
X105274957Y-116512530D01*
X105274957Y-116512530D02*
X105346385Y-116417292D01*
X105346385Y-116417292D02*
X105417814Y-116369673D01*
X105417814Y-116369673D02*
X105560671Y-116322054D01*
X105560671Y-116322054D02*
X105917814Y-116322054D01*
X105917814Y-116322054D02*
X106060671Y-116369673D01*
X106060671Y-116369673D02*
X106132100Y-116417292D01*
X106132100Y-116417292D02*
X106203528Y-116512530D01*
X106203528Y-116512530D02*
X106203528Y-116798244D01*
X106203528Y-116798244D02*
X106132100Y-116893482D01*
X106132100Y-116893482D02*
X106060671Y-116941101D01*
X108223528Y-96090326D02*
X106723528Y-96090326D01*
X106723528Y-96090326D02*
X106723528Y-95852231D01*
X106723528Y-95852231D02*
X106794957Y-95709374D01*
X106794957Y-95709374D02*
X106937814Y-95614136D01*
X106937814Y-95614136D02*
X107080671Y-95566517D01*
X107080671Y-95566517D02*
X107366385Y-95518898D01*
X107366385Y-95518898D02*
X107580671Y-95518898D01*
X107580671Y-95518898D02*
X107866385Y-95566517D01*
X107866385Y-95566517D02*
X108009242Y-95614136D01*
X108009242Y-95614136D02*
X108152100Y-95709374D01*
X108152100Y-95709374D02*
X108223528Y-95852231D01*
X108223528Y-95852231D02*
X108223528Y-96090326D01*
X108223528Y-94566517D02*
X108223528Y-95137945D01*
X108223528Y-94852231D02*
X106723528Y-94852231D01*
X106723528Y-94852231D02*
X106937814Y-94947469D01*
X106937814Y-94947469D02*
X107080671Y-95042707D01*
X107080671Y-95042707D02*
X107152100Y-95137945D01*
X108223528Y-93614136D02*
X108223528Y-94185564D01*
X108223528Y-93899850D02*
X106723528Y-93899850D01*
X106723528Y-93899850D02*
X106937814Y-93995088D01*
X106937814Y-93995088D02*
X107080671Y-94090326D01*
X107080671Y-94090326D02*
X107152100Y-94185564D01*
X108743528Y-118798244D02*
X107243528Y-118798244D01*
X107243528Y-118798244D02*
X107243528Y-118560149D01*
X107243528Y-118560149D02*
X107314957Y-118417292D01*
X107314957Y-118417292D02*
X107457814Y-118322054D01*
X107457814Y-118322054D02*
X107600671Y-118274435D01*
X107600671Y-118274435D02*
X107886385Y-118226816D01*
X107886385Y-118226816D02*
X108100671Y-118226816D01*
X108100671Y-118226816D02*
X108386385Y-118274435D01*
X108386385Y-118274435D02*
X108529242Y-118322054D01*
X108529242Y-118322054D02*
X108672100Y-118417292D01*
X108672100Y-118417292D02*
X108743528Y-118560149D01*
X108743528Y-118560149D02*
X108743528Y-118798244D01*
X108743528Y-117274435D02*
X108743528Y-117845863D01*
X108743528Y-117560149D02*
X107243528Y-117560149D01*
X107243528Y-117560149D02*
X107457814Y-117655387D01*
X107457814Y-117655387D02*
X107600671Y-117750625D01*
X107600671Y-117750625D02*
X107672100Y-117845863D01*
X107743528Y-116417292D02*
X108743528Y-116417292D01*
X107172100Y-116655387D02*
X108243528Y-116893482D01*
X108243528Y-116893482D02*
X108243528Y-116274435D01*
X110763528Y-96090326D02*
X109263528Y-96090326D01*
X109263528Y-96090326D02*
X109263528Y-95852231D01*
X109263528Y-95852231D02*
X109334957Y-95709374D01*
X109334957Y-95709374D02*
X109477814Y-95614136D01*
X109477814Y-95614136D02*
X109620671Y-95566517D01*
X109620671Y-95566517D02*
X109906385Y-95518898D01*
X109906385Y-95518898D02*
X110120671Y-95518898D01*
X110120671Y-95518898D02*
X110406385Y-95566517D01*
X110406385Y-95566517D02*
X110549242Y-95614136D01*
X110549242Y-95614136D02*
X110692100Y-95709374D01*
X110692100Y-95709374D02*
X110763528Y-95852231D01*
X110763528Y-95852231D02*
X110763528Y-96090326D01*
X110763528Y-94566517D02*
X110763528Y-95137945D01*
X110763528Y-94852231D02*
X109263528Y-94852231D01*
X109263528Y-94852231D02*
X109477814Y-94947469D01*
X109477814Y-94947469D02*
X109620671Y-95042707D01*
X109620671Y-95042707D02*
X109692100Y-95137945D01*
X109263528Y-93947469D02*
X109263528Y-93852231D01*
X109263528Y-93852231D02*
X109334957Y-93756993D01*
X109334957Y-93756993D02*
X109406385Y-93709374D01*
X109406385Y-93709374D02*
X109549242Y-93661755D01*
X109549242Y-93661755D02*
X109834957Y-93614136D01*
X109834957Y-93614136D02*
X110192100Y-93614136D01*
X110192100Y-93614136D02*
X110477814Y-93661755D01*
X110477814Y-93661755D02*
X110620671Y-93709374D01*
X110620671Y-93709374D02*
X110692100Y-93756993D01*
X110692100Y-93756993D02*
X110763528Y-93852231D01*
X110763528Y-93852231D02*
X110763528Y-93947469D01*
X110763528Y-93947469D02*
X110692100Y-94042707D01*
X110692100Y-94042707D02*
X110620671Y-94090326D01*
X110620671Y-94090326D02*
X110477814Y-94137945D01*
X110477814Y-94137945D02*
X110192100Y-94185564D01*
X110192100Y-94185564D02*
X109834957Y-94185564D01*
X109834957Y-94185564D02*
X109549242Y-94137945D01*
X109549242Y-94137945D02*
X109406385Y-94090326D01*
X109406385Y-94090326D02*
X109334957Y-94042707D01*
X109334957Y-94042707D02*
X109263528Y-93947469D01*
X111283528Y-118798244D02*
X109783528Y-118798244D01*
X109783528Y-118798244D02*
X109783528Y-118560149D01*
X109783528Y-118560149D02*
X109854957Y-118417292D01*
X109854957Y-118417292D02*
X109997814Y-118322054D01*
X109997814Y-118322054D02*
X110140671Y-118274435D01*
X110140671Y-118274435D02*
X110426385Y-118226816D01*
X110426385Y-118226816D02*
X110640671Y-118226816D01*
X110640671Y-118226816D02*
X110926385Y-118274435D01*
X110926385Y-118274435D02*
X111069242Y-118322054D01*
X111069242Y-118322054D02*
X111212100Y-118417292D01*
X111212100Y-118417292D02*
X111283528Y-118560149D01*
X111283528Y-118560149D02*
X111283528Y-118798244D01*
X111283528Y-117274435D02*
X111283528Y-117845863D01*
X111283528Y-117560149D02*
X109783528Y-117560149D01*
X109783528Y-117560149D02*
X109997814Y-117655387D01*
X109997814Y-117655387D02*
X110140671Y-117750625D01*
X110140671Y-117750625D02*
X110212100Y-117845863D01*
X109783528Y-116369673D02*
X109783528Y-116845863D01*
X109783528Y-116845863D02*
X110497814Y-116893482D01*
X110497814Y-116893482D02*
X110426385Y-116845863D01*
X110426385Y-116845863D02*
X110354957Y-116750625D01*
X110354957Y-116750625D02*
X110354957Y-116512530D01*
X110354957Y-116512530D02*
X110426385Y-116417292D01*
X110426385Y-116417292D02*
X110497814Y-116369673D01*
X110497814Y-116369673D02*
X110640671Y-116322054D01*
X110640671Y-116322054D02*
X110997814Y-116322054D01*
X110997814Y-116322054D02*
X111140671Y-116369673D01*
X111140671Y-116369673D02*
X111212100Y-116417292D01*
X111212100Y-116417292D02*
X111283528Y-116512530D01*
X111283528Y-116512530D02*
X111283528Y-116750625D01*
X111283528Y-116750625D02*
X111212100Y-116845863D01*
X111212100Y-116845863D02*
X111140671Y-116893482D01*
X113303528Y-96090326D02*
X111803528Y-96090326D01*
X111803528Y-96090326D02*
X111803528Y-95852231D01*
X111803528Y-95852231D02*
X111874957Y-95709374D01*
X111874957Y-95709374D02*
X112017814Y-95614136D01*
X112017814Y-95614136D02*
X112160671Y-95566517D01*
X112160671Y-95566517D02*
X112446385Y-95518898D01*
X112446385Y-95518898D02*
X112660671Y-95518898D01*
X112660671Y-95518898D02*
X112946385Y-95566517D01*
X112946385Y-95566517D02*
X113089242Y-95614136D01*
X113089242Y-95614136D02*
X113232100Y-95709374D01*
X113232100Y-95709374D02*
X113303528Y-95852231D01*
X113303528Y-95852231D02*
X113303528Y-96090326D01*
X113303528Y-95042707D02*
X113303528Y-94852231D01*
X113303528Y-94852231D02*
X113232100Y-94756993D01*
X113232100Y-94756993D02*
X113160671Y-94709374D01*
X113160671Y-94709374D02*
X112946385Y-94614136D01*
X112946385Y-94614136D02*
X112660671Y-94566517D01*
X112660671Y-94566517D02*
X112089242Y-94566517D01*
X112089242Y-94566517D02*
X111946385Y-94614136D01*
X111946385Y-94614136D02*
X111874957Y-94661755D01*
X111874957Y-94661755D02*
X111803528Y-94756993D01*
X111803528Y-94756993D02*
X111803528Y-94947469D01*
X111803528Y-94947469D02*
X111874957Y-95042707D01*
X111874957Y-95042707D02*
X111946385Y-95090326D01*
X111946385Y-95090326D02*
X112089242Y-95137945D01*
X112089242Y-95137945D02*
X112446385Y-95137945D01*
X112446385Y-95137945D02*
X112589242Y-95090326D01*
X112589242Y-95090326D02*
X112660671Y-95042707D01*
X112660671Y-95042707D02*
X112732100Y-94947469D01*
X112732100Y-94947469D02*
X112732100Y-94756993D01*
X112732100Y-94756993D02*
X112660671Y-94661755D01*
X112660671Y-94661755D02*
X112589242Y-94614136D01*
X112589242Y-94614136D02*
X112446385Y-94566517D01*
X113823528Y-118798244D02*
X112323528Y-118798244D01*
X112323528Y-118798244D02*
X112323528Y-118560149D01*
X112323528Y-118560149D02*
X112394957Y-118417292D01*
X112394957Y-118417292D02*
X112537814Y-118322054D01*
X112537814Y-118322054D02*
X112680671Y-118274435D01*
X112680671Y-118274435D02*
X112966385Y-118226816D01*
X112966385Y-118226816D02*
X113180671Y-118226816D01*
X113180671Y-118226816D02*
X113466385Y-118274435D01*
X113466385Y-118274435D02*
X113609242Y-118322054D01*
X113609242Y-118322054D02*
X113752100Y-118417292D01*
X113752100Y-118417292D02*
X113823528Y-118560149D01*
X113823528Y-118560149D02*
X113823528Y-118798244D01*
X113823528Y-117274435D02*
X113823528Y-117845863D01*
X113823528Y-117560149D02*
X112323528Y-117560149D01*
X112323528Y-117560149D02*
X112537814Y-117655387D01*
X112537814Y-117655387D02*
X112680671Y-117750625D01*
X112680671Y-117750625D02*
X112752100Y-117845863D01*
X112323528Y-116417292D02*
X112323528Y-116607768D01*
X112323528Y-116607768D02*
X112394957Y-116703006D01*
X112394957Y-116703006D02*
X112466385Y-116750625D01*
X112466385Y-116750625D02*
X112680671Y-116845863D01*
X112680671Y-116845863D02*
X112966385Y-116893482D01*
X112966385Y-116893482D02*
X113537814Y-116893482D01*
X113537814Y-116893482D02*
X113680671Y-116845863D01*
X113680671Y-116845863D02*
X113752100Y-116798244D01*
X113752100Y-116798244D02*
X113823528Y-116703006D01*
X113823528Y-116703006D02*
X113823528Y-116512530D01*
X113823528Y-116512530D02*
X113752100Y-116417292D01*
X113752100Y-116417292D02*
X113680671Y-116369673D01*
X113680671Y-116369673D02*
X113537814Y-116322054D01*
X113537814Y-116322054D02*
X113180671Y-116322054D01*
X113180671Y-116322054D02*
X113037814Y-116369673D01*
X113037814Y-116369673D02*
X112966385Y-116417292D01*
X112966385Y-116417292D02*
X112894957Y-116512530D01*
X112894957Y-116512530D02*
X112894957Y-116703006D01*
X112894957Y-116703006D02*
X112966385Y-116798244D01*
X112966385Y-116798244D02*
X113037814Y-116845863D01*
X113037814Y-116845863D02*
X113180671Y-116893482D01*
X115843528Y-96090326D02*
X114343528Y-96090326D01*
X114343528Y-96090326D02*
X114343528Y-95852231D01*
X114343528Y-95852231D02*
X114414957Y-95709374D01*
X114414957Y-95709374D02*
X114557814Y-95614136D01*
X114557814Y-95614136D02*
X114700671Y-95566517D01*
X114700671Y-95566517D02*
X114986385Y-95518898D01*
X114986385Y-95518898D02*
X115200671Y-95518898D01*
X115200671Y-95518898D02*
X115486385Y-95566517D01*
X115486385Y-95566517D02*
X115629242Y-95614136D01*
X115629242Y-95614136D02*
X115772100Y-95709374D01*
X115772100Y-95709374D02*
X115843528Y-95852231D01*
X115843528Y-95852231D02*
X115843528Y-96090326D01*
X114986385Y-94947469D02*
X114914957Y-95042707D01*
X114914957Y-95042707D02*
X114843528Y-95090326D01*
X114843528Y-95090326D02*
X114700671Y-95137945D01*
X114700671Y-95137945D02*
X114629242Y-95137945D01*
X114629242Y-95137945D02*
X114486385Y-95090326D01*
X114486385Y-95090326D02*
X114414957Y-95042707D01*
X114414957Y-95042707D02*
X114343528Y-94947469D01*
X114343528Y-94947469D02*
X114343528Y-94756993D01*
X114343528Y-94756993D02*
X114414957Y-94661755D01*
X114414957Y-94661755D02*
X114486385Y-94614136D01*
X114486385Y-94614136D02*
X114629242Y-94566517D01*
X114629242Y-94566517D02*
X114700671Y-94566517D01*
X114700671Y-94566517D02*
X114843528Y-94614136D01*
X114843528Y-94614136D02*
X114914957Y-94661755D01*
X114914957Y-94661755D02*
X114986385Y-94756993D01*
X114986385Y-94756993D02*
X114986385Y-94947469D01*
X114986385Y-94947469D02*
X115057814Y-95042707D01*
X115057814Y-95042707D02*
X115129242Y-95090326D01*
X115129242Y-95090326D02*
X115272100Y-95137945D01*
X115272100Y-95137945D02*
X115557814Y-95137945D01*
X115557814Y-95137945D02*
X115700671Y-95090326D01*
X115700671Y-95090326D02*
X115772100Y-95042707D01*
X115772100Y-95042707D02*
X115843528Y-94947469D01*
X115843528Y-94947469D02*
X115843528Y-94756993D01*
X115843528Y-94756993D02*
X115772100Y-94661755D01*
X115772100Y-94661755D02*
X115700671Y-94614136D01*
X115700671Y-94614136D02*
X115557814Y-94566517D01*
X115557814Y-94566517D02*
X115272100Y-94566517D01*
X115272100Y-94566517D02*
X115129242Y-94614136D01*
X115129242Y-94614136D02*
X115057814Y-94661755D01*
X115057814Y-94661755D02*
X114986385Y-94756993D01*
X116363528Y-118798244D02*
X114863528Y-118798244D01*
X114863528Y-118798244D02*
X114863528Y-118560149D01*
X114863528Y-118560149D02*
X114934957Y-118417292D01*
X114934957Y-118417292D02*
X115077814Y-118322054D01*
X115077814Y-118322054D02*
X115220671Y-118274435D01*
X115220671Y-118274435D02*
X115506385Y-118226816D01*
X115506385Y-118226816D02*
X115720671Y-118226816D01*
X115720671Y-118226816D02*
X116006385Y-118274435D01*
X116006385Y-118274435D02*
X116149242Y-118322054D01*
X116149242Y-118322054D02*
X116292100Y-118417292D01*
X116292100Y-118417292D02*
X116363528Y-118560149D01*
X116363528Y-118560149D02*
X116363528Y-118798244D01*
X116363528Y-117274435D02*
X116363528Y-117845863D01*
X116363528Y-117560149D02*
X114863528Y-117560149D01*
X114863528Y-117560149D02*
X115077814Y-117655387D01*
X115077814Y-117655387D02*
X115220671Y-117750625D01*
X115220671Y-117750625D02*
X115292100Y-117845863D01*
X114863528Y-116941101D02*
X114863528Y-116274435D01*
X114863528Y-116274435D02*
X116363528Y-116703006D01*
X118383528Y-96090326D02*
X116883528Y-96090326D01*
X116883528Y-96090326D02*
X116883528Y-95852231D01*
X116883528Y-95852231D02*
X116954957Y-95709374D01*
X116954957Y-95709374D02*
X117097814Y-95614136D01*
X117097814Y-95614136D02*
X117240671Y-95566517D01*
X117240671Y-95566517D02*
X117526385Y-95518898D01*
X117526385Y-95518898D02*
X117740671Y-95518898D01*
X117740671Y-95518898D02*
X118026385Y-95566517D01*
X118026385Y-95566517D02*
X118169242Y-95614136D01*
X118169242Y-95614136D02*
X118312100Y-95709374D01*
X118312100Y-95709374D02*
X118383528Y-95852231D01*
X118383528Y-95852231D02*
X118383528Y-96090326D01*
X116883528Y-95185564D02*
X116883528Y-94518898D01*
X116883528Y-94518898D02*
X118383528Y-94947469D01*
X118903528Y-118798244D02*
X117403528Y-118798244D01*
X117403528Y-118798244D02*
X117403528Y-118560149D01*
X117403528Y-118560149D02*
X117474957Y-118417292D01*
X117474957Y-118417292D02*
X117617814Y-118322054D01*
X117617814Y-118322054D02*
X117760671Y-118274435D01*
X117760671Y-118274435D02*
X118046385Y-118226816D01*
X118046385Y-118226816D02*
X118260671Y-118226816D01*
X118260671Y-118226816D02*
X118546385Y-118274435D01*
X118546385Y-118274435D02*
X118689242Y-118322054D01*
X118689242Y-118322054D02*
X118832100Y-118417292D01*
X118832100Y-118417292D02*
X118903528Y-118560149D01*
X118903528Y-118560149D02*
X118903528Y-118798244D01*
X118903528Y-117274435D02*
X118903528Y-117845863D01*
X118903528Y-117560149D02*
X117403528Y-117560149D01*
X117403528Y-117560149D02*
X117617814Y-117655387D01*
X117617814Y-117655387D02*
X117760671Y-117750625D01*
X117760671Y-117750625D02*
X117832100Y-117845863D01*
X118046385Y-116703006D02*
X117974957Y-116798244D01*
X117974957Y-116798244D02*
X117903528Y-116845863D01*
X117903528Y-116845863D02*
X117760671Y-116893482D01*
X117760671Y-116893482D02*
X117689242Y-116893482D01*
X117689242Y-116893482D02*
X117546385Y-116845863D01*
X117546385Y-116845863D02*
X117474957Y-116798244D01*
X117474957Y-116798244D02*
X117403528Y-116703006D01*
X117403528Y-116703006D02*
X117403528Y-116512530D01*
X117403528Y-116512530D02*
X117474957Y-116417292D01*
X117474957Y-116417292D02*
X117546385Y-116369673D01*
X117546385Y-116369673D02*
X117689242Y-116322054D01*
X117689242Y-116322054D02*
X117760671Y-116322054D01*
X117760671Y-116322054D02*
X117903528Y-116369673D01*
X117903528Y-116369673D02*
X117974957Y-116417292D01*
X117974957Y-116417292D02*
X118046385Y-116512530D01*
X118046385Y-116512530D02*
X118046385Y-116703006D01*
X118046385Y-116703006D02*
X118117814Y-116798244D01*
X118117814Y-116798244D02*
X118189242Y-116845863D01*
X118189242Y-116845863D02*
X118332100Y-116893482D01*
X118332100Y-116893482D02*
X118617814Y-116893482D01*
X118617814Y-116893482D02*
X118760671Y-116845863D01*
X118760671Y-116845863D02*
X118832100Y-116798244D01*
X118832100Y-116798244D02*
X118903528Y-116703006D01*
X118903528Y-116703006D02*
X118903528Y-116512530D01*
X118903528Y-116512530D02*
X118832100Y-116417292D01*
X118832100Y-116417292D02*
X118760671Y-116369673D01*
X118760671Y-116369673D02*
X118617814Y-116322054D01*
X118617814Y-116322054D02*
X118332100Y-116322054D01*
X118332100Y-116322054D02*
X118189242Y-116369673D01*
X118189242Y-116369673D02*
X118117814Y-116417292D01*
X118117814Y-116417292D02*
X118046385Y-116512530D01*
X120923528Y-96090326D02*
X119423528Y-96090326D01*
X119423528Y-96090326D02*
X119423528Y-95852231D01*
X119423528Y-95852231D02*
X119494957Y-95709374D01*
X119494957Y-95709374D02*
X119637814Y-95614136D01*
X119637814Y-95614136D02*
X119780671Y-95566517D01*
X119780671Y-95566517D02*
X120066385Y-95518898D01*
X120066385Y-95518898D02*
X120280671Y-95518898D01*
X120280671Y-95518898D02*
X120566385Y-95566517D01*
X120566385Y-95566517D02*
X120709242Y-95614136D01*
X120709242Y-95614136D02*
X120852100Y-95709374D01*
X120852100Y-95709374D02*
X120923528Y-95852231D01*
X120923528Y-95852231D02*
X120923528Y-96090326D01*
X119423528Y-94661755D02*
X119423528Y-94852231D01*
X119423528Y-94852231D02*
X119494957Y-94947469D01*
X119494957Y-94947469D02*
X119566385Y-94995088D01*
X119566385Y-94995088D02*
X119780671Y-95090326D01*
X119780671Y-95090326D02*
X120066385Y-95137945D01*
X120066385Y-95137945D02*
X120637814Y-95137945D01*
X120637814Y-95137945D02*
X120780671Y-95090326D01*
X120780671Y-95090326D02*
X120852100Y-95042707D01*
X120852100Y-95042707D02*
X120923528Y-94947469D01*
X120923528Y-94947469D02*
X120923528Y-94756993D01*
X120923528Y-94756993D02*
X120852100Y-94661755D01*
X120852100Y-94661755D02*
X120780671Y-94614136D01*
X120780671Y-94614136D02*
X120637814Y-94566517D01*
X120637814Y-94566517D02*
X120280671Y-94566517D01*
X120280671Y-94566517D02*
X120137814Y-94614136D01*
X120137814Y-94614136D02*
X120066385Y-94661755D01*
X120066385Y-94661755D02*
X119994957Y-94756993D01*
X119994957Y-94756993D02*
X119994957Y-94947469D01*
X119994957Y-94947469D02*
X120066385Y-95042707D01*
X120066385Y-95042707D02*
X120137814Y-95090326D01*
X120137814Y-95090326D02*
X120280671Y-95137945D01*
X121443528Y-118798244D02*
X119943528Y-118798244D01*
X119943528Y-118798244D02*
X119943528Y-118560149D01*
X119943528Y-118560149D02*
X120014957Y-118417292D01*
X120014957Y-118417292D02*
X120157814Y-118322054D01*
X120157814Y-118322054D02*
X120300671Y-118274435D01*
X120300671Y-118274435D02*
X120586385Y-118226816D01*
X120586385Y-118226816D02*
X120800671Y-118226816D01*
X120800671Y-118226816D02*
X121086385Y-118274435D01*
X121086385Y-118274435D02*
X121229242Y-118322054D01*
X121229242Y-118322054D02*
X121372100Y-118417292D01*
X121372100Y-118417292D02*
X121443528Y-118560149D01*
X121443528Y-118560149D02*
X121443528Y-118798244D01*
X121443528Y-117274435D02*
X121443528Y-117845863D01*
X121443528Y-117560149D02*
X119943528Y-117560149D01*
X119943528Y-117560149D02*
X120157814Y-117655387D01*
X120157814Y-117655387D02*
X120300671Y-117750625D01*
X120300671Y-117750625D02*
X120372100Y-117845863D01*
X121443528Y-116798244D02*
X121443528Y-116607768D01*
X121443528Y-116607768D02*
X121372100Y-116512530D01*
X121372100Y-116512530D02*
X121300671Y-116464911D01*
X121300671Y-116464911D02*
X121086385Y-116369673D01*
X121086385Y-116369673D02*
X120800671Y-116322054D01*
X120800671Y-116322054D02*
X120229242Y-116322054D01*
X120229242Y-116322054D02*
X120086385Y-116369673D01*
X120086385Y-116369673D02*
X120014957Y-116417292D01*
X120014957Y-116417292D02*
X119943528Y-116512530D01*
X119943528Y-116512530D02*
X119943528Y-116703006D01*
X119943528Y-116703006D02*
X120014957Y-116798244D01*
X120014957Y-116798244D02*
X120086385Y-116845863D01*
X120086385Y-116845863D02*
X120229242Y-116893482D01*
X120229242Y-116893482D02*
X120586385Y-116893482D01*
X120586385Y-116893482D02*
X120729242Y-116845863D01*
X120729242Y-116845863D02*
X120800671Y-116798244D01*
X120800671Y-116798244D02*
X120872100Y-116703006D01*
X120872100Y-116703006D02*
X120872100Y-116512530D01*
X120872100Y-116512530D02*
X120800671Y-116417292D01*
X120800671Y-116417292D02*
X120729242Y-116369673D01*
X120729242Y-116369673D02*
X120586385Y-116322054D01*
X123463528Y-96090326D02*
X121963528Y-96090326D01*
X121963528Y-96090326D02*
X121963528Y-95852231D01*
X121963528Y-95852231D02*
X122034957Y-95709374D01*
X122034957Y-95709374D02*
X122177814Y-95614136D01*
X122177814Y-95614136D02*
X122320671Y-95566517D01*
X122320671Y-95566517D02*
X122606385Y-95518898D01*
X122606385Y-95518898D02*
X122820671Y-95518898D01*
X122820671Y-95518898D02*
X123106385Y-95566517D01*
X123106385Y-95566517D02*
X123249242Y-95614136D01*
X123249242Y-95614136D02*
X123392100Y-95709374D01*
X123392100Y-95709374D02*
X123463528Y-95852231D01*
X123463528Y-95852231D02*
X123463528Y-96090326D01*
X121963528Y-94614136D02*
X121963528Y-95090326D01*
X121963528Y-95090326D02*
X122677814Y-95137945D01*
X122677814Y-95137945D02*
X122606385Y-95090326D01*
X122606385Y-95090326D02*
X122534957Y-94995088D01*
X122534957Y-94995088D02*
X122534957Y-94756993D01*
X122534957Y-94756993D02*
X122606385Y-94661755D01*
X122606385Y-94661755D02*
X122677814Y-94614136D01*
X122677814Y-94614136D02*
X122820671Y-94566517D01*
X122820671Y-94566517D02*
X123177814Y-94566517D01*
X123177814Y-94566517D02*
X123320671Y-94614136D01*
X123320671Y-94614136D02*
X123392100Y-94661755D01*
X123392100Y-94661755D02*
X123463528Y-94756993D01*
X123463528Y-94756993D02*
X123463528Y-94995088D01*
X123463528Y-94995088D02*
X123392100Y-95090326D01*
X123392100Y-95090326D02*
X123320671Y-95137945D01*
X123983528Y-118798244D02*
X122483528Y-118798244D01*
X122483528Y-118798244D02*
X122483528Y-118560149D01*
X122483528Y-118560149D02*
X122554957Y-118417292D01*
X122554957Y-118417292D02*
X122697814Y-118322054D01*
X122697814Y-118322054D02*
X122840671Y-118274435D01*
X122840671Y-118274435D02*
X123126385Y-118226816D01*
X123126385Y-118226816D02*
X123340671Y-118226816D01*
X123340671Y-118226816D02*
X123626385Y-118274435D01*
X123626385Y-118274435D02*
X123769242Y-118322054D01*
X123769242Y-118322054D02*
X123912100Y-118417292D01*
X123912100Y-118417292D02*
X123983528Y-118560149D01*
X123983528Y-118560149D02*
X123983528Y-118798244D01*
X122626385Y-117845863D02*
X122554957Y-117798244D01*
X122554957Y-117798244D02*
X122483528Y-117703006D01*
X122483528Y-117703006D02*
X122483528Y-117464911D01*
X122483528Y-117464911D02*
X122554957Y-117369673D01*
X122554957Y-117369673D02*
X122626385Y-117322054D01*
X122626385Y-117322054D02*
X122769242Y-117274435D01*
X122769242Y-117274435D02*
X122912100Y-117274435D01*
X122912100Y-117274435D02*
X123126385Y-117322054D01*
X123126385Y-117322054D02*
X123983528Y-117893482D01*
X123983528Y-117893482D02*
X123983528Y-117274435D01*
X122483528Y-116655387D02*
X122483528Y-116560149D01*
X122483528Y-116560149D02*
X122554957Y-116464911D01*
X122554957Y-116464911D02*
X122626385Y-116417292D01*
X122626385Y-116417292D02*
X122769242Y-116369673D01*
X122769242Y-116369673D02*
X123054957Y-116322054D01*
X123054957Y-116322054D02*
X123412100Y-116322054D01*
X123412100Y-116322054D02*
X123697814Y-116369673D01*
X123697814Y-116369673D02*
X123840671Y-116417292D01*
X123840671Y-116417292D02*
X123912100Y-116464911D01*
X123912100Y-116464911D02*
X123983528Y-116560149D01*
X123983528Y-116560149D02*
X123983528Y-116655387D01*
X123983528Y-116655387D02*
X123912100Y-116750625D01*
X123912100Y-116750625D02*
X123840671Y-116798244D01*
X123840671Y-116798244D02*
X123697814Y-116845863D01*
X123697814Y-116845863D02*
X123412100Y-116893482D01*
X123412100Y-116893482D02*
X123054957Y-116893482D01*
X123054957Y-116893482D02*
X122769242Y-116845863D01*
X122769242Y-116845863D02*
X122626385Y-116798244D01*
X122626385Y-116798244D02*
X122554957Y-116750625D01*
X122554957Y-116750625D02*
X122483528Y-116655387D01*
X126003528Y-96090326D02*
X124503528Y-96090326D01*
X124503528Y-96090326D02*
X124503528Y-95852231D01*
X124503528Y-95852231D02*
X124574957Y-95709374D01*
X124574957Y-95709374D02*
X124717814Y-95614136D01*
X124717814Y-95614136D02*
X124860671Y-95566517D01*
X124860671Y-95566517D02*
X125146385Y-95518898D01*
X125146385Y-95518898D02*
X125360671Y-95518898D01*
X125360671Y-95518898D02*
X125646385Y-95566517D01*
X125646385Y-95566517D02*
X125789242Y-95614136D01*
X125789242Y-95614136D02*
X125932100Y-95709374D01*
X125932100Y-95709374D02*
X126003528Y-95852231D01*
X126003528Y-95852231D02*
X126003528Y-96090326D01*
X125003528Y-94661755D02*
X126003528Y-94661755D01*
X124432100Y-94899850D02*
X125503528Y-95137945D01*
X125503528Y-95137945D02*
X125503528Y-94518898D01*
X126523528Y-118798244D02*
X125023528Y-118798244D01*
X125023528Y-118798244D02*
X125023528Y-118560149D01*
X125023528Y-118560149D02*
X125094957Y-118417292D01*
X125094957Y-118417292D02*
X125237814Y-118322054D01*
X125237814Y-118322054D02*
X125380671Y-118274435D01*
X125380671Y-118274435D02*
X125666385Y-118226816D01*
X125666385Y-118226816D02*
X125880671Y-118226816D01*
X125880671Y-118226816D02*
X126166385Y-118274435D01*
X126166385Y-118274435D02*
X126309242Y-118322054D01*
X126309242Y-118322054D02*
X126452100Y-118417292D01*
X126452100Y-118417292D02*
X126523528Y-118560149D01*
X126523528Y-118560149D02*
X126523528Y-118798244D01*
X125166385Y-117845863D02*
X125094957Y-117798244D01*
X125094957Y-117798244D02*
X125023528Y-117703006D01*
X125023528Y-117703006D02*
X125023528Y-117464911D01*
X125023528Y-117464911D02*
X125094957Y-117369673D01*
X125094957Y-117369673D02*
X125166385Y-117322054D01*
X125166385Y-117322054D02*
X125309242Y-117274435D01*
X125309242Y-117274435D02*
X125452100Y-117274435D01*
X125452100Y-117274435D02*
X125666385Y-117322054D01*
X125666385Y-117322054D02*
X126523528Y-117893482D01*
X126523528Y-117893482D02*
X126523528Y-117274435D01*
X126523528Y-116322054D02*
X126523528Y-116893482D01*
X126523528Y-116607768D02*
X125023528Y-116607768D01*
X125023528Y-116607768D02*
X125237814Y-116703006D01*
X125237814Y-116703006D02*
X125380671Y-116798244D01*
X125380671Y-116798244D02*
X125452100Y-116893482D01*
X128543528Y-96090326D02*
X127043528Y-96090326D01*
X127043528Y-96090326D02*
X127043528Y-95852231D01*
X127043528Y-95852231D02*
X127114957Y-95709374D01*
X127114957Y-95709374D02*
X127257814Y-95614136D01*
X127257814Y-95614136D02*
X127400671Y-95566517D01*
X127400671Y-95566517D02*
X127686385Y-95518898D01*
X127686385Y-95518898D02*
X127900671Y-95518898D01*
X127900671Y-95518898D02*
X128186385Y-95566517D01*
X128186385Y-95566517D02*
X128329242Y-95614136D01*
X128329242Y-95614136D02*
X128472100Y-95709374D01*
X128472100Y-95709374D02*
X128543528Y-95852231D01*
X128543528Y-95852231D02*
X128543528Y-96090326D01*
X127043528Y-95185564D02*
X127043528Y-94566517D01*
X127043528Y-94566517D02*
X127614957Y-94899850D01*
X127614957Y-94899850D02*
X127614957Y-94756993D01*
X127614957Y-94756993D02*
X127686385Y-94661755D01*
X127686385Y-94661755D02*
X127757814Y-94614136D01*
X127757814Y-94614136D02*
X127900671Y-94566517D01*
X127900671Y-94566517D02*
X128257814Y-94566517D01*
X128257814Y-94566517D02*
X128400671Y-94614136D01*
X128400671Y-94614136D02*
X128472100Y-94661755D01*
X128472100Y-94661755D02*
X128543528Y-94756993D01*
X128543528Y-94756993D02*
X128543528Y-95042707D01*
X128543528Y-95042707D02*
X128472100Y-95137945D01*
X128472100Y-95137945D02*
X128400671Y-95185564D01*
X129063528Y-118798244D02*
X127563528Y-118798244D01*
X127563528Y-118798244D02*
X127563528Y-118560149D01*
X127563528Y-118560149D02*
X127634957Y-118417292D01*
X127634957Y-118417292D02*
X127777814Y-118322054D01*
X127777814Y-118322054D02*
X127920671Y-118274435D01*
X127920671Y-118274435D02*
X128206385Y-118226816D01*
X128206385Y-118226816D02*
X128420671Y-118226816D01*
X128420671Y-118226816D02*
X128706385Y-118274435D01*
X128706385Y-118274435D02*
X128849242Y-118322054D01*
X128849242Y-118322054D02*
X128992100Y-118417292D01*
X128992100Y-118417292D02*
X129063528Y-118560149D01*
X129063528Y-118560149D02*
X129063528Y-118798244D01*
X127706385Y-117845863D02*
X127634957Y-117798244D01*
X127634957Y-117798244D02*
X127563528Y-117703006D01*
X127563528Y-117703006D02*
X127563528Y-117464911D01*
X127563528Y-117464911D02*
X127634957Y-117369673D01*
X127634957Y-117369673D02*
X127706385Y-117322054D01*
X127706385Y-117322054D02*
X127849242Y-117274435D01*
X127849242Y-117274435D02*
X127992100Y-117274435D01*
X127992100Y-117274435D02*
X128206385Y-117322054D01*
X128206385Y-117322054D02*
X129063528Y-117893482D01*
X129063528Y-117893482D02*
X129063528Y-117274435D01*
X127706385Y-116893482D02*
X127634957Y-116845863D01*
X127634957Y-116845863D02*
X127563528Y-116750625D01*
X127563528Y-116750625D02*
X127563528Y-116512530D01*
X127563528Y-116512530D02*
X127634957Y-116417292D01*
X127634957Y-116417292D02*
X127706385Y-116369673D01*
X127706385Y-116369673D02*
X127849242Y-116322054D01*
X127849242Y-116322054D02*
X127992100Y-116322054D01*
X127992100Y-116322054D02*
X128206385Y-116369673D01*
X128206385Y-116369673D02*
X129063528Y-116941101D01*
X129063528Y-116941101D02*
X129063528Y-116322054D01*
X131083528Y-96090326D02*
X129583528Y-96090326D01*
X129583528Y-96090326D02*
X129583528Y-95852231D01*
X129583528Y-95852231D02*
X129654957Y-95709374D01*
X129654957Y-95709374D02*
X129797814Y-95614136D01*
X129797814Y-95614136D02*
X129940671Y-95566517D01*
X129940671Y-95566517D02*
X130226385Y-95518898D01*
X130226385Y-95518898D02*
X130440671Y-95518898D01*
X130440671Y-95518898D02*
X130726385Y-95566517D01*
X130726385Y-95566517D02*
X130869242Y-95614136D01*
X130869242Y-95614136D02*
X131012100Y-95709374D01*
X131012100Y-95709374D02*
X131083528Y-95852231D01*
X131083528Y-95852231D02*
X131083528Y-96090326D01*
X129726385Y-95137945D02*
X129654957Y-95090326D01*
X129654957Y-95090326D02*
X129583528Y-94995088D01*
X129583528Y-94995088D02*
X129583528Y-94756993D01*
X129583528Y-94756993D02*
X129654957Y-94661755D01*
X129654957Y-94661755D02*
X129726385Y-94614136D01*
X129726385Y-94614136D02*
X129869242Y-94566517D01*
X129869242Y-94566517D02*
X130012100Y-94566517D01*
X130012100Y-94566517D02*
X130226385Y-94614136D01*
X130226385Y-94614136D02*
X131083528Y-95185564D01*
X131083528Y-95185564D02*
X131083528Y-94566517D01*
X131603528Y-118798244D02*
X130103528Y-118798244D01*
X130103528Y-118798244D02*
X130103528Y-118560149D01*
X130103528Y-118560149D02*
X130174957Y-118417292D01*
X130174957Y-118417292D02*
X130317814Y-118322054D01*
X130317814Y-118322054D02*
X130460671Y-118274435D01*
X130460671Y-118274435D02*
X130746385Y-118226816D01*
X130746385Y-118226816D02*
X130960671Y-118226816D01*
X130960671Y-118226816D02*
X131246385Y-118274435D01*
X131246385Y-118274435D02*
X131389242Y-118322054D01*
X131389242Y-118322054D02*
X131532100Y-118417292D01*
X131532100Y-118417292D02*
X131603528Y-118560149D01*
X131603528Y-118560149D02*
X131603528Y-118798244D01*
X130246385Y-117845863D02*
X130174957Y-117798244D01*
X130174957Y-117798244D02*
X130103528Y-117703006D01*
X130103528Y-117703006D02*
X130103528Y-117464911D01*
X130103528Y-117464911D02*
X130174957Y-117369673D01*
X130174957Y-117369673D02*
X130246385Y-117322054D01*
X130246385Y-117322054D02*
X130389242Y-117274435D01*
X130389242Y-117274435D02*
X130532100Y-117274435D01*
X130532100Y-117274435D02*
X130746385Y-117322054D01*
X130746385Y-117322054D02*
X131603528Y-117893482D01*
X131603528Y-117893482D02*
X131603528Y-117274435D01*
X130103528Y-116941101D02*
X130103528Y-116322054D01*
X130103528Y-116322054D02*
X130674957Y-116655387D01*
X130674957Y-116655387D02*
X130674957Y-116512530D01*
X130674957Y-116512530D02*
X130746385Y-116417292D01*
X130746385Y-116417292D02*
X130817814Y-116369673D01*
X130817814Y-116369673D02*
X130960671Y-116322054D01*
X130960671Y-116322054D02*
X131317814Y-116322054D01*
X131317814Y-116322054D02*
X131460671Y-116369673D01*
X131460671Y-116369673D02*
X131532100Y-116417292D01*
X131532100Y-116417292D02*
X131603528Y-116512530D01*
X131603528Y-116512530D02*
X131603528Y-116798244D01*
X131603528Y-116798244D02*
X131532100Y-116893482D01*
X131532100Y-116893482D02*
X131460671Y-116941101D01*
X133623528Y-96090326D02*
X132123528Y-96090326D01*
X132123528Y-96090326D02*
X132123528Y-95852231D01*
X132123528Y-95852231D02*
X132194957Y-95709374D01*
X132194957Y-95709374D02*
X132337814Y-95614136D01*
X132337814Y-95614136D02*
X132480671Y-95566517D01*
X132480671Y-95566517D02*
X132766385Y-95518898D01*
X132766385Y-95518898D02*
X132980671Y-95518898D01*
X132980671Y-95518898D02*
X133266385Y-95566517D01*
X133266385Y-95566517D02*
X133409242Y-95614136D01*
X133409242Y-95614136D02*
X133552100Y-95709374D01*
X133552100Y-95709374D02*
X133623528Y-95852231D01*
X133623528Y-95852231D02*
X133623528Y-96090326D01*
X133623528Y-94566517D02*
X133623528Y-95137945D01*
X133623528Y-94852231D02*
X132123528Y-94852231D01*
X132123528Y-94852231D02*
X132337814Y-94947469D01*
X132337814Y-94947469D02*
X132480671Y-95042707D01*
X132480671Y-95042707D02*
X132552100Y-95137945D01*
X132643528Y-118750625D02*
X132643528Y-118131578D01*
X132643528Y-118131578D02*
X133214957Y-118464911D01*
X133214957Y-118464911D02*
X133214957Y-118322054D01*
X133214957Y-118322054D02*
X133286385Y-118226816D01*
X133286385Y-118226816D02*
X133357814Y-118179197D01*
X133357814Y-118179197D02*
X133500671Y-118131578D01*
X133500671Y-118131578D02*
X133857814Y-118131578D01*
X133857814Y-118131578D02*
X134000671Y-118179197D01*
X134000671Y-118179197D02*
X134072100Y-118226816D01*
X134072100Y-118226816D02*
X134143528Y-118322054D01*
X134143528Y-118322054D02*
X134143528Y-118607768D01*
X134143528Y-118607768D02*
X134072100Y-118703006D01*
X134072100Y-118703006D02*
X134000671Y-118750625D01*
X132643528Y-117845863D02*
X134143528Y-117512530D01*
X134143528Y-117512530D02*
X132643528Y-117179197D01*
X132643528Y-116941101D02*
X132643528Y-116322054D01*
X132643528Y-116322054D02*
X133214957Y-116655387D01*
X133214957Y-116655387D02*
X133214957Y-116512530D01*
X133214957Y-116512530D02*
X133286385Y-116417292D01*
X133286385Y-116417292D02*
X133357814Y-116369673D01*
X133357814Y-116369673D02*
X133500671Y-116322054D01*
X133500671Y-116322054D02*
X133857814Y-116322054D01*
X133857814Y-116322054D02*
X134000671Y-116369673D01*
X134000671Y-116369673D02*
X134072100Y-116417292D01*
X134072100Y-116417292D02*
X134143528Y-116512530D01*
X134143528Y-116512530D02*
X134143528Y-116798244D01*
X134143528Y-116798244D02*
X134072100Y-116893482D01*
X134072100Y-116893482D02*
X134000671Y-116941101D01*
X136163528Y-96090326D02*
X134663528Y-96090326D01*
X134663528Y-96090326D02*
X134663528Y-95852231D01*
X134663528Y-95852231D02*
X134734957Y-95709374D01*
X134734957Y-95709374D02*
X134877814Y-95614136D01*
X134877814Y-95614136D02*
X135020671Y-95566517D01*
X135020671Y-95566517D02*
X135306385Y-95518898D01*
X135306385Y-95518898D02*
X135520671Y-95518898D01*
X135520671Y-95518898D02*
X135806385Y-95566517D01*
X135806385Y-95566517D02*
X135949242Y-95614136D01*
X135949242Y-95614136D02*
X136092100Y-95709374D01*
X136092100Y-95709374D02*
X136163528Y-95852231D01*
X136163528Y-95852231D02*
X136163528Y-96090326D01*
X134663528Y-94899850D02*
X134663528Y-94804612D01*
X134663528Y-94804612D02*
X134734957Y-94709374D01*
X134734957Y-94709374D02*
X134806385Y-94661755D01*
X134806385Y-94661755D02*
X134949242Y-94614136D01*
X134949242Y-94614136D02*
X135234957Y-94566517D01*
X135234957Y-94566517D02*
X135592100Y-94566517D01*
X135592100Y-94566517D02*
X135877814Y-94614136D01*
X135877814Y-94614136D02*
X136020671Y-94661755D01*
X136020671Y-94661755D02*
X136092100Y-94709374D01*
X136092100Y-94709374D02*
X136163528Y-94804612D01*
X136163528Y-94804612D02*
X136163528Y-94899850D01*
X136163528Y-94899850D02*
X136092100Y-94995088D01*
X136092100Y-94995088D02*
X136020671Y-95042707D01*
X136020671Y-95042707D02*
X135877814Y-95090326D01*
X135877814Y-95090326D02*
X135592100Y-95137945D01*
X135592100Y-95137945D02*
X135234957Y-95137945D01*
X135234957Y-95137945D02*
X134949242Y-95090326D01*
X134949242Y-95090326D02*
X134806385Y-95042707D01*
X134806385Y-95042707D02*
X134734957Y-94995088D01*
X134734957Y-94995088D02*
X134663528Y-94899850D01*
X135254957Y-119369673D02*
X135183528Y-119464911D01*
X135183528Y-119464911D02*
X135183528Y-119607768D01*
X135183528Y-119607768D02*
X135254957Y-119750625D01*
X135254957Y-119750625D02*
X135397814Y-119845863D01*
X135397814Y-119845863D02*
X135540671Y-119893482D01*
X135540671Y-119893482D02*
X135826385Y-119941101D01*
X135826385Y-119941101D02*
X136040671Y-119941101D01*
X136040671Y-119941101D02*
X136326385Y-119893482D01*
X136326385Y-119893482D02*
X136469242Y-119845863D01*
X136469242Y-119845863D02*
X136612100Y-119750625D01*
X136612100Y-119750625D02*
X136683528Y-119607768D01*
X136683528Y-119607768D02*
X136683528Y-119512530D01*
X136683528Y-119512530D02*
X136612100Y-119369673D01*
X136612100Y-119369673D02*
X136540671Y-119322054D01*
X136540671Y-119322054D02*
X136040671Y-119322054D01*
X136040671Y-119322054D02*
X136040671Y-119512530D01*
X136683528Y-118893482D02*
X135183528Y-118893482D01*
X135183528Y-118893482D02*
X136683528Y-118322054D01*
X136683528Y-118322054D02*
X135183528Y-118322054D01*
X136683528Y-117845863D02*
X135183528Y-117845863D01*
X135183528Y-117845863D02*
X135183528Y-117607768D01*
X135183528Y-117607768D02*
X135254957Y-117464911D01*
X135254957Y-117464911D02*
X135397814Y-117369673D01*
X135397814Y-117369673D02*
X135540671Y-117322054D01*
X135540671Y-117322054D02*
X135826385Y-117274435D01*
X135826385Y-117274435D02*
X136040671Y-117274435D01*
X136040671Y-117274435D02*
X136326385Y-117322054D01*
X136326385Y-117322054D02*
X136469242Y-117369673D01*
X136469242Y-117369673D02*
X136612100Y-117464911D01*
X136612100Y-117464911D02*
X136683528Y-117607768D01*
X136683528Y-117607768D02*
X136683528Y-117845863D01*
X135326385Y-116893482D02*
X135254957Y-116845863D01*
X135254957Y-116845863D02*
X135183528Y-116750625D01*
X135183528Y-116750625D02*
X135183528Y-116512530D01*
X135183528Y-116512530D02*
X135254957Y-116417292D01*
X135254957Y-116417292D02*
X135326385Y-116369673D01*
X135326385Y-116369673D02*
X135469242Y-116322054D01*
X135469242Y-116322054D02*
X135612100Y-116322054D01*
X135612100Y-116322054D02*
X135826385Y-116369673D01*
X135826385Y-116369673D02*
X136683528Y-116941101D01*
X136683528Y-116941101D02*
X136683528Y-116322054D01*
X137274957Y-95566517D02*
X137203528Y-95661755D01*
X137203528Y-95661755D02*
X137203528Y-95804612D01*
X137203528Y-95804612D02*
X137274957Y-95947469D01*
X137274957Y-95947469D02*
X137417814Y-96042707D01*
X137417814Y-96042707D02*
X137560671Y-96090326D01*
X137560671Y-96090326D02*
X137846385Y-96137945D01*
X137846385Y-96137945D02*
X138060671Y-96137945D01*
X138060671Y-96137945D02*
X138346385Y-96090326D01*
X138346385Y-96090326D02*
X138489242Y-96042707D01*
X138489242Y-96042707D02*
X138632100Y-95947469D01*
X138632100Y-95947469D02*
X138703528Y-95804612D01*
X138703528Y-95804612D02*
X138703528Y-95709374D01*
X138703528Y-95709374D02*
X138632100Y-95566517D01*
X138632100Y-95566517D02*
X138560671Y-95518898D01*
X138560671Y-95518898D02*
X138060671Y-95518898D01*
X138060671Y-95518898D02*
X138060671Y-95709374D01*
X138703528Y-95090326D02*
X137203528Y-95090326D01*
X137203528Y-95090326D02*
X138703528Y-94518898D01*
X138703528Y-94518898D02*
X137203528Y-94518898D01*
X138703528Y-94042707D02*
X137203528Y-94042707D01*
X137203528Y-94042707D02*
X137203528Y-93804612D01*
X137203528Y-93804612D02*
X137274957Y-93661755D01*
X137274957Y-93661755D02*
X137417814Y-93566517D01*
X137417814Y-93566517D02*
X137560671Y-93518898D01*
X137560671Y-93518898D02*
X137846385Y-93471279D01*
X137846385Y-93471279D02*
X138060671Y-93471279D01*
X138060671Y-93471279D02*
X138346385Y-93518898D01*
X138346385Y-93518898D02*
X138489242Y-93566517D01*
X138489242Y-93566517D02*
X138632100Y-93661755D01*
X138632100Y-93661755D02*
X138703528Y-93804612D01*
X138703528Y-93804612D02*
X138703528Y-94042707D01*
X138703528Y-92518898D02*
X138703528Y-93090326D01*
X138703528Y-92804612D02*
X137203528Y-92804612D01*
X137203528Y-92804612D02*
X137417814Y-92899850D01*
X137417814Y-92899850D02*
X137560671Y-92995088D01*
X137560671Y-92995088D02*
X137632100Y-93090326D01*
X137723528Y-118417291D02*
X139223528Y-118083958D01*
X139223528Y-118083958D02*
X137723528Y-117750625D01*
X139223528Y-117417291D02*
X137723528Y-117417291D01*
X139223528Y-116941101D02*
X137723528Y-116941101D01*
X137723528Y-116941101D02*
X139223528Y-116369673D01*
X139223528Y-116369673D02*
X137723528Y-116369673D01*
X140203528Y-109596190D02*
X141417814Y-109596190D01*
X141417814Y-109596190D02*
X141560671Y-109548571D01*
X141560671Y-109548571D02*
X141632100Y-109500952D01*
X141632100Y-109500952D02*
X141703528Y-109405714D01*
X141703528Y-109405714D02*
X141703528Y-109215238D01*
X141703528Y-109215238D02*
X141632100Y-109120000D01*
X141632100Y-109120000D02*
X141560671Y-109072381D01*
X141560671Y-109072381D02*
X141417814Y-109024762D01*
X141417814Y-109024762D02*
X140203528Y-109024762D01*
X141632100Y-108596190D02*
X141703528Y-108453333D01*
X141703528Y-108453333D02*
X141703528Y-108215238D01*
X141703528Y-108215238D02*
X141632100Y-108120000D01*
X141632100Y-108120000D02*
X141560671Y-108072381D01*
X141560671Y-108072381D02*
X141417814Y-108024762D01*
X141417814Y-108024762D02*
X141274957Y-108024762D01*
X141274957Y-108024762D02*
X141132100Y-108072381D01*
X141132100Y-108072381D02*
X141060671Y-108120000D01*
X141060671Y-108120000D02*
X140989242Y-108215238D01*
X140989242Y-108215238D02*
X140917814Y-108405714D01*
X140917814Y-108405714D02*
X140846385Y-108500952D01*
X140846385Y-108500952D02*
X140774957Y-108548571D01*
X140774957Y-108548571D02*
X140632100Y-108596190D01*
X140632100Y-108596190D02*
X140489242Y-108596190D01*
X140489242Y-108596190D02*
X140346385Y-108548571D01*
X140346385Y-108548571D02*
X140274957Y-108500952D01*
X140274957Y-108500952D02*
X140203528Y-108405714D01*
X140203528Y-108405714D02*
X140203528Y-108167619D01*
X140203528Y-108167619D02*
X140274957Y-108024762D01*
X140917814Y-107262857D02*
X140989242Y-107120000D01*
X140989242Y-107120000D02*
X141060671Y-107072381D01*
X141060671Y-107072381D02*
X141203528Y-107024762D01*
X141203528Y-107024762D02*
X141417814Y-107024762D01*
X141417814Y-107024762D02*
X141560671Y-107072381D01*
X141560671Y-107072381D02*
X141632100Y-107120000D01*
X141632100Y-107120000D02*
X141703528Y-107215238D01*
X141703528Y-107215238D02*
X141703528Y-107596190D01*
X141703528Y-107596190D02*
X140203528Y-107596190D01*
X140203528Y-107596190D02*
X140203528Y-107262857D01*
X140203528Y-107262857D02*
X140274957Y-107167619D01*
X140274957Y-107167619D02*
X140346385Y-107120000D01*
X140346385Y-107120000D02*
X140489242Y-107072381D01*
X140489242Y-107072381D02*
X140632100Y-107072381D01*
X140632100Y-107072381D02*
X140774957Y-107120000D01*
X140774957Y-107120000D02*
X140846385Y-107167619D01*
X140846385Y-107167619D02*
X140917814Y-107262857D01*
X140917814Y-107262857D02*
X140917814Y-107596190D01*
X141632100Y-105453333D02*
X141703528Y-105548571D01*
X141703528Y-105548571D02*
X141703528Y-105739047D01*
X141703528Y-105739047D02*
X141632100Y-105834285D01*
X141632100Y-105834285D02*
X141489242Y-105881904D01*
X141489242Y-105881904D02*
X140917814Y-105881904D01*
X140917814Y-105881904D02*
X140774957Y-105834285D01*
X140774957Y-105834285D02*
X140703528Y-105739047D01*
X140703528Y-105739047D02*
X140703528Y-105548571D01*
X140703528Y-105548571D02*
X140774957Y-105453333D01*
X140774957Y-105453333D02*
X140917814Y-105405714D01*
X140917814Y-105405714D02*
X141060671Y-105405714D01*
X141060671Y-105405714D02*
X141203528Y-105881904D01*
X140703528Y-104977142D02*
X141703528Y-104977142D01*
X140846385Y-104977142D02*
X140774957Y-104929523D01*
X140774957Y-104929523D02*
X140703528Y-104834285D01*
X140703528Y-104834285D02*
X140703528Y-104691428D01*
X140703528Y-104691428D02*
X140774957Y-104596190D01*
X140774957Y-104596190D02*
X140917814Y-104548571D01*
X140917814Y-104548571D02*
X141703528Y-104548571D01*
X141703528Y-103643809D02*
X140203528Y-103643809D01*
X141632100Y-103643809D02*
X141703528Y-103739047D01*
X141703528Y-103739047D02*
X141703528Y-103929523D01*
X141703528Y-103929523D02*
X141632100Y-104024761D01*
X141632100Y-104024761D02*
X141560671Y-104072380D01*
X141560671Y-104072380D02*
X141417814Y-104119999D01*
X141417814Y-104119999D02*
X140989242Y-104119999D01*
X140989242Y-104119999D02*
X140846385Y-104072380D01*
X140846385Y-104072380D02*
X140774957Y-104024761D01*
X140774957Y-104024761D02*
X140703528Y-103929523D01*
X140703528Y-103929523D02*
X140703528Y-103739047D01*
X140703528Y-103739047D02*
X140774957Y-103643809D01*
X107717814Y-83000000D02*
X107717814Y-83333333D01*
X108503528Y-83333333D02*
X107003528Y-83333333D01*
X107003528Y-83333333D02*
X107003528Y-82857143D01*
X108503528Y-82333333D02*
X108432100Y-82428571D01*
X108432100Y-82428571D02*
X108289242Y-82476190D01*
X108289242Y-82476190D02*
X107003528Y-82476190D01*
X108503528Y-81523809D02*
X107717814Y-81523809D01*
X107717814Y-81523809D02*
X107574957Y-81571428D01*
X107574957Y-81571428D02*
X107503528Y-81666666D01*
X107503528Y-81666666D02*
X107503528Y-81857142D01*
X107503528Y-81857142D02*
X107574957Y-81952380D01*
X108432100Y-81523809D02*
X108503528Y-81619047D01*
X108503528Y-81619047D02*
X108503528Y-81857142D01*
X108503528Y-81857142D02*
X108432100Y-81952380D01*
X108432100Y-81952380D02*
X108289242Y-81999999D01*
X108289242Y-81999999D02*
X108146385Y-81999999D01*
X108146385Y-81999999D02*
X108003528Y-81952380D01*
X108003528Y-81952380D02*
X107932100Y-81857142D01*
X107932100Y-81857142D02*
X107932100Y-81619047D01*
X107932100Y-81619047D02*
X107860671Y-81523809D01*
X108074957Y-81095237D02*
X108074957Y-80619047D01*
X108503528Y-81190475D02*
X107003528Y-80857142D01*
X107003528Y-80857142D02*
X108503528Y-80523809D01*
X119273528Y-83547618D02*
X119273528Y-82976190D01*
X120773528Y-83261904D02*
X119273528Y-83261904D01*
X120773528Y-82642856D02*
X119273528Y-82642856D01*
X120773528Y-82214285D02*
X119987814Y-82214285D01*
X119987814Y-82214285D02*
X119844957Y-82261904D01*
X119844957Y-82261904D02*
X119773528Y-82357142D01*
X119773528Y-82357142D02*
X119773528Y-82499999D01*
X119773528Y-82499999D02*
X119844957Y-82595237D01*
X119844957Y-82595237D02*
X119916385Y-82642856D01*
X120773528Y-81738094D02*
X119773528Y-81738094D01*
X120059242Y-81738094D02*
X119916385Y-81690475D01*
X119916385Y-81690475D02*
X119844957Y-81642856D01*
X119844957Y-81642856D02*
X119773528Y-81547618D01*
X119773528Y-81547618D02*
X119773528Y-81452380D01*
X119987814Y-80785713D02*
X120059242Y-80642856D01*
X120059242Y-80642856D02*
X120130671Y-80595237D01*
X120130671Y-80595237D02*
X120273528Y-80547618D01*
X120273528Y-80547618D02*
X120487814Y-80547618D01*
X120487814Y-80547618D02*
X120630671Y-80595237D01*
X120630671Y-80595237D02*
X120702100Y-80642856D01*
X120702100Y-80642856D02*
X120773528Y-80738094D01*
X120773528Y-80738094D02*
X120773528Y-81119046D01*
X120773528Y-81119046D02*
X119273528Y-81119046D01*
X119273528Y-81119046D02*
X119273528Y-80785713D01*
X119273528Y-80785713D02*
X119344957Y-80690475D01*
X119344957Y-80690475D02*
X119416385Y-80642856D01*
X119416385Y-80642856D02*
X119559242Y-80595237D01*
X119559242Y-80595237D02*
X119702100Y-80595237D01*
X119702100Y-80595237D02*
X119844957Y-80642856D01*
X119844957Y-80642856D02*
X119916385Y-80690475D01*
X119916385Y-80690475D02*
X119987814Y-80785713D01*
X119987814Y-80785713D02*
X119987814Y-81119046D01*
X113833333Y-126540671D02*
X113785714Y-126612100D01*
X113785714Y-126612100D02*
X113642857Y-126683528D01*
X113642857Y-126683528D02*
X113547619Y-126683528D01*
X113547619Y-126683528D02*
X113404762Y-126612100D01*
X113404762Y-126612100D02*
X113309524Y-126469242D01*
X113309524Y-126469242D02*
X113261905Y-126326385D01*
X113261905Y-126326385D02*
X113214286Y-126040671D01*
X113214286Y-126040671D02*
X113214286Y-125826385D01*
X113214286Y-125826385D02*
X113261905Y-125540671D01*
X113261905Y-125540671D02*
X113309524Y-125397814D01*
X113309524Y-125397814D02*
X113404762Y-125254957D01*
X113404762Y-125254957D02*
X113547619Y-125183528D01*
X113547619Y-125183528D02*
X113642857Y-125183528D01*
X113642857Y-125183528D02*
X113785714Y-125254957D01*
X113785714Y-125254957D02*
X113833333Y-125326385D01*
X114690476Y-125183528D02*
X114500000Y-125183528D01*
X114500000Y-125183528D02*
X114404762Y-125254957D01*
X114404762Y-125254957D02*
X114357143Y-125326385D01*
X114357143Y-125326385D02*
X114261905Y-125540671D01*
X114261905Y-125540671D02*
X114214286Y-125826385D01*
X114214286Y-125826385D02*
X114214286Y-126397814D01*
X114214286Y-126397814D02*
X114261905Y-126540671D01*
X114261905Y-126540671D02*
X114309524Y-126612100D01*
X114309524Y-126612100D02*
X114404762Y-126683528D01*
X114404762Y-126683528D02*
X114595238Y-126683528D01*
X114595238Y-126683528D02*
X114690476Y-126612100D01*
X114690476Y-126612100D02*
X114738095Y-126540671D01*
X114738095Y-126540671D02*
X114785714Y-126397814D01*
X114785714Y-126397814D02*
X114785714Y-126040671D01*
X114785714Y-126040671D02*
X114738095Y-125897814D01*
X114738095Y-125897814D02*
X114690476Y-125826385D01*
X114690476Y-125826385D02*
X114595238Y-125754957D01*
X114595238Y-125754957D02*
X114404762Y-125754957D01*
X114404762Y-125754957D02*
X114309524Y-125826385D01*
X114309524Y-125826385D02*
X114261905Y-125897814D01*
X114261905Y-125897814D02*
X114214286Y-126040671D01*
X193190476Y-88683528D02*
X193190476Y-87183528D01*
X193190476Y-87183528D02*
X193523809Y-88254957D01*
X193523809Y-88254957D02*
X193857142Y-87183528D01*
X193857142Y-87183528D02*
X193857142Y-88683528D01*
X194238095Y-87183528D02*
X194857142Y-87183528D01*
X194857142Y-87183528D02*
X194523809Y-87754957D01*
X194523809Y-87754957D02*
X194666666Y-87754957D01*
X194666666Y-87754957D02*
X194761904Y-87826385D01*
X194761904Y-87826385D02*
X194809523Y-87897814D01*
X194809523Y-87897814D02*
X194857142Y-88040671D01*
X194857142Y-88040671D02*
X194857142Y-88397814D01*
X194857142Y-88397814D02*
X194809523Y-88540671D01*
X194809523Y-88540671D02*
X194761904Y-88612100D01*
X194761904Y-88612100D02*
X194666666Y-88683528D01*
X194666666Y-88683528D02*
X194380952Y-88683528D01*
X194380952Y-88683528D02*
X194285714Y-88612100D01*
X194285714Y-88612100D02*
X194238095Y-88540671D01*
X75858095Y-95018528D02*
X75858095Y-96232814D01*
X75858095Y-96232814D02*
X75905714Y-96375671D01*
X75905714Y-96375671D02*
X75953333Y-96447100D01*
X75953333Y-96447100D02*
X76048571Y-96518528D01*
X76048571Y-96518528D02*
X76239047Y-96518528D01*
X76239047Y-96518528D02*
X76334285Y-96447100D01*
X76334285Y-96447100D02*
X76381904Y-96375671D01*
X76381904Y-96375671D02*
X76429523Y-96232814D01*
X76429523Y-96232814D02*
X76429523Y-95018528D01*
X76858095Y-95161385D02*
X76905714Y-95089957D01*
X76905714Y-95089957D02*
X77000952Y-95018528D01*
X77000952Y-95018528D02*
X77239047Y-95018528D01*
X77239047Y-95018528D02*
X77334285Y-95089957D01*
X77334285Y-95089957D02*
X77381904Y-95161385D01*
X77381904Y-95161385D02*
X77429523Y-95304242D01*
X77429523Y-95304242D02*
X77429523Y-95447100D01*
X77429523Y-95447100D02*
X77381904Y-95661385D01*
X77381904Y-95661385D02*
X76810476Y-96518528D01*
X76810476Y-96518528D02*
X77429523Y-96518528D01*
X78190476Y-88683528D02*
X78190476Y-87183528D01*
X78190476Y-87183528D02*
X78523809Y-88254957D01*
X78523809Y-88254957D02*
X78857142Y-87183528D01*
X78857142Y-87183528D02*
X78857142Y-88683528D01*
X79238095Y-87183528D02*
X79857142Y-87183528D01*
X79857142Y-87183528D02*
X79523809Y-87754957D01*
X79523809Y-87754957D02*
X79666666Y-87754957D01*
X79666666Y-87754957D02*
X79761904Y-87826385D01*
X79761904Y-87826385D02*
X79809523Y-87897814D01*
X79809523Y-87897814D02*
X79857142Y-88040671D01*
X79857142Y-88040671D02*
X79857142Y-88397814D01*
X79857142Y-88397814D02*
X79809523Y-88540671D01*
X79809523Y-88540671D02*
X79761904Y-88612100D01*
X79761904Y-88612100D02*
X79666666Y-88683528D01*
X79666666Y-88683528D02*
X79380952Y-88683528D01*
X79380952Y-88683528D02*
X79285714Y-88612100D01*
X79285714Y-88612100D02*
X79238095Y-88540671D01*
X193190476Y-122533528D02*
X193190476Y-121033528D01*
X193190476Y-121033528D02*
X193523809Y-122104957D01*
X193523809Y-122104957D02*
X193857142Y-121033528D01*
X193857142Y-121033528D02*
X193857142Y-122533528D01*
X194238095Y-121033528D02*
X194857142Y-121033528D01*
X194857142Y-121033528D02*
X194523809Y-121604957D01*
X194523809Y-121604957D02*
X194666666Y-121604957D01*
X194666666Y-121604957D02*
X194761904Y-121676385D01*
X194761904Y-121676385D02*
X194809523Y-121747814D01*
X194809523Y-121747814D02*
X194857142Y-121890671D01*
X194857142Y-121890671D02*
X194857142Y-122247814D01*
X194857142Y-122247814D02*
X194809523Y-122390671D01*
X194809523Y-122390671D02*
X194761904Y-122462100D01*
X194761904Y-122462100D02*
X194666666Y-122533528D01*
X194666666Y-122533528D02*
X194380952Y-122533528D01*
X194380952Y-122533528D02*
X194285714Y-122462100D01*
X194285714Y-122462100D02*
X194238095Y-122390671D01*
X100180671Y-83071428D02*
X100252100Y-83119047D01*
X100252100Y-83119047D02*
X100323528Y-83261904D01*
X100323528Y-83261904D02*
X100323528Y-83357142D01*
X100323528Y-83357142D02*
X100252100Y-83499999D01*
X100252100Y-83499999D02*
X100109242Y-83595237D01*
X100109242Y-83595237D02*
X99966385Y-83642856D01*
X99966385Y-83642856D02*
X99680671Y-83690475D01*
X99680671Y-83690475D02*
X99466385Y-83690475D01*
X99466385Y-83690475D02*
X99180671Y-83642856D01*
X99180671Y-83642856D02*
X99037814Y-83595237D01*
X99037814Y-83595237D02*
X98894957Y-83499999D01*
X98894957Y-83499999D02*
X98823528Y-83357142D01*
X98823528Y-83357142D02*
X98823528Y-83261904D01*
X98823528Y-83261904D02*
X98894957Y-83119047D01*
X98894957Y-83119047D02*
X98966385Y-83071428D01*
X100323528Y-82642856D02*
X98823528Y-82642856D01*
X100323528Y-82214285D02*
X99537814Y-82214285D01*
X99537814Y-82214285D02*
X99394957Y-82261904D01*
X99394957Y-82261904D02*
X99323528Y-82357142D01*
X99323528Y-82357142D02*
X99323528Y-82499999D01*
X99323528Y-82499999D02*
X99394957Y-82595237D01*
X99394957Y-82595237D02*
X99466385Y-82642856D01*
X100323528Y-81309523D02*
X99537814Y-81309523D01*
X99537814Y-81309523D02*
X99394957Y-81357142D01*
X99394957Y-81357142D02*
X99323528Y-81452380D01*
X99323528Y-81452380D02*
X99323528Y-81642856D01*
X99323528Y-81642856D02*
X99394957Y-81738094D01*
X100252100Y-81309523D02*
X100323528Y-81404761D01*
X100323528Y-81404761D02*
X100323528Y-81642856D01*
X100323528Y-81642856D02*
X100252100Y-81738094D01*
X100252100Y-81738094D02*
X100109242Y-81785713D01*
X100109242Y-81785713D02*
X99966385Y-81785713D01*
X99966385Y-81785713D02*
X99823528Y-81738094D01*
X99823528Y-81738094D02*
X99752100Y-81642856D01*
X99752100Y-81642856D02*
X99752100Y-81404761D01*
X99752100Y-81404761D02*
X99680671Y-81309523D01*
X98823528Y-80404761D02*
X98823528Y-80595237D01*
X98823528Y-80595237D02*
X98894957Y-80690475D01*
X98894957Y-80690475D02*
X98966385Y-80738094D01*
X98966385Y-80738094D02*
X99180671Y-80833332D01*
X99180671Y-80833332D02*
X99466385Y-80880951D01*
X99466385Y-80880951D02*
X100037814Y-80880951D01*
X100037814Y-80880951D02*
X100180671Y-80833332D01*
X100180671Y-80833332D02*
X100252100Y-80785713D01*
X100252100Y-80785713D02*
X100323528Y-80690475D01*
X100323528Y-80690475D02*
X100323528Y-80499999D01*
X100323528Y-80499999D02*
X100252100Y-80404761D01*
X100252100Y-80404761D02*
X100180671Y-80357142D01*
X100180671Y-80357142D02*
X100037814Y-80309523D01*
X100037814Y-80309523D02*
X99680671Y-80309523D01*
X99680671Y-80309523D02*
X99537814Y-80357142D01*
X99537814Y-80357142D02*
X99466385Y-80404761D01*
X99466385Y-80404761D02*
X99394957Y-80499999D01*
X99394957Y-80499999D02*
X99394957Y-80690475D01*
X99394957Y-80690475D02*
X99466385Y-80785713D01*
X99466385Y-80785713D02*
X99537814Y-80833332D01*
X99537814Y-80833332D02*
X99680671Y-80880951D01*
X142166666Y-98183528D02*
X141690476Y-98183528D01*
X141690476Y-98183528D02*
X141642857Y-98897814D01*
X141642857Y-98897814D02*
X141690476Y-98826385D01*
X141690476Y-98826385D02*
X141785714Y-98754957D01*
X141785714Y-98754957D02*
X142023809Y-98754957D01*
X142023809Y-98754957D02*
X142119047Y-98826385D01*
X142119047Y-98826385D02*
X142166666Y-98897814D01*
X142166666Y-98897814D02*
X142214285Y-99040671D01*
X142214285Y-99040671D02*
X142214285Y-99397814D01*
X142214285Y-99397814D02*
X142166666Y-99540671D01*
X142166666Y-99540671D02*
X142119047Y-99612100D01*
X142119047Y-99612100D02*
X142023809Y-99683528D01*
X142023809Y-99683528D02*
X141785714Y-99683528D01*
X141785714Y-99683528D02*
X141690476Y-99612100D01*
X141690476Y-99612100D02*
X141642857Y-99540671D01*
X142500000Y-98183528D02*
X142833333Y-99683528D01*
X142833333Y-99683528D02*
X143166666Y-98183528D01*
X143261905Y-99826385D02*
X144023809Y-99826385D01*
X144595238Y-98897814D02*
X144738095Y-98969242D01*
X144738095Y-98969242D02*
X144785714Y-99040671D01*
X144785714Y-99040671D02*
X144833333Y-99183528D01*
X144833333Y-99183528D02*
X144833333Y-99397814D01*
X144833333Y-99397814D02*
X144785714Y-99540671D01*
X144785714Y-99540671D02*
X144738095Y-99612100D01*
X144738095Y-99612100D02*
X144642857Y-99683528D01*
X144642857Y-99683528D02*
X144261905Y-99683528D01*
X144261905Y-99683528D02*
X144261905Y-98183528D01*
X144261905Y-98183528D02*
X144595238Y-98183528D01*
X144595238Y-98183528D02*
X144690476Y-98254957D01*
X144690476Y-98254957D02*
X144738095Y-98326385D01*
X144738095Y-98326385D02*
X144785714Y-98469242D01*
X144785714Y-98469242D02*
X144785714Y-98612100D01*
X144785714Y-98612100D02*
X144738095Y-98754957D01*
X144738095Y-98754957D02*
X144690476Y-98826385D01*
X144690476Y-98826385D02*
X144595238Y-98897814D01*
X144595238Y-98897814D02*
X144261905Y-98897814D01*
X145261905Y-98897814D02*
X145595238Y-98897814D01*
X145738095Y-99683528D02*
X145261905Y-99683528D01*
X145261905Y-99683528D02*
X145261905Y-98183528D01*
X145261905Y-98183528D02*
X145738095Y-98183528D01*
X146738095Y-99540671D02*
X146690476Y-99612100D01*
X146690476Y-99612100D02*
X146547619Y-99683528D01*
X146547619Y-99683528D02*
X146452381Y-99683528D01*
X146452381Y-99683528D02*
X146309524Y-99612100D01*
X146309524Y-99612100D02*
X146214286Y-99469242D01*
X146214286Y-99469242D02*
X146166667Y-99326385D01*
X146166667Y-99326385D02*
X146119048Y-99040671D01*
X146119048Y-99040671D02*
X146119048Y-98826385D01*
X146119048Y-98826385D02*
X146166667Y-98540671D01*
X146166667Y-98540671D02*
X146214286Y-98397814D01*
X146214286Y-98397814D02*
X146309524Y-98254957D01*
X146309524Y-98254957D02*
X146452381Y-98183528D01*
X146452381Y-98183528D02*
X146547619Y-98183528D01*
X146547619Y-98183528D02*
X146690476Y-98254957D01*
X146690476Y-98254957D02*
X146738095Y-98326385D01*
X146928572Y-99826385D02*
X147690476Y-99826385D01*
X147928572Y-98897814D02*
X148261905Y-98897814D01*
X148404762Y-99683528D02*
X147928572Y-99683528D01*
X147928572Y-99683528D02*
X147928572Y-98183528D01*
X147928572Y-98183528D02*
X148404762Y-98183528D01*
X148785715Y-99612100D02*
X148928572Y-99683528D01*
X148928572Y-99683528D02*
X149166667Y-99683528D01*
X149166667Y-99683528D02*
X149261905Y-99612100D01*
X149261905Y-99612100D02*
X149309524Y-99540671D01*
X149309524Y-99540671D02*
X149357143Y-99397814D01*
X149357143Y-99397814D02*
X149357143Y-99254957D01*
X149357143Y-99254957D02*
X149309524Y-99112100D01*
X149309524Y-99112100D02*
X149261905Y-99040671D01*
X149261905Y-99040671D02*
X149166667Y-98969242D01*
X149166667Y-98969242D02*
X148976191Y-98897814D01*
X148976191Y-98897814D02*
X148880953Y-98826385D01*
X148880953Y-98826385D02*
X148833334Y-98754957D01*
X148833334Y-98754957D02*
X148785715Y-98612100D01*
X148785715Y-98612100D02*
X148785715Y-98469242D01*
X148785715Y-98469242D02*
X148833334Y-98326385D01*
X148833334Y-98326385D02*
X148880953Y-98254957D01*
X148880953Y-98254957D02*
X148976191Y-98183528D01*
X148976191Y-98183528D02*
X149214286Y-98183528D01*
X149214286Y-98183528D02*
X149357143Y-98254957D01*
X150357143Y-99540671D02*
X150309524Y-99612100D01*
X150309524Y-99612100D02*
X150166667Y-99683528D01*
X150166667Y-99683528D02*
X150071429Y-99683528D01*
X150071429Y-99683528D02*
X149928572Y-99612100D01*
X149928572Y-99612100D02*
X149833334Y-99469242D01*
X149833334Y-99469242D02*
X149785715Y-99326385D01*
X149785715Y-99326385D02*
X149738096Y-99040671D01*
X149738096Y-99040671D02*
X149738096Y-98826385D01*
X149738096Y-98826385D02*
X149785715Y-98540671D01*
X149785715Y-98540671D02*
X149833334Y-98397814D01*
X149833334Y-98397814D02*
X149928572Y-98254957D01*
X149928572Y-98254957D02*
X150071429Y-98183528D01*
X150071429Y-98183528D02*
X150166667Y-98183528D01*
X150166667Y-98183528D02*
X150309524Y-98254957D01*
X150309524Y-98254957D02*
X150357143Y-98326385D01*
X157991905Y-83143528D02*
X157991905Y-81643528D01*
X157991905Y-81643528D02*
X158230000Y-81643528D01*
X158230000Y-81643528D02*
X158372857Y-81714957D01*
X158372857Y-81714957D02*
X158468095Y-81857814D01*
X158468095Y-81857814D02*
X158515714Y-82000671D01*
X158515714Y-82000671D02*
X158563333Y-82286385D01*
X158563333Y-82286385D02*
X158563333Y-82500671D01*
X158563333Y-82500671D02*
X158515714Y-82786385D01*
X158515714Y-82786385D02*
X158468095Y-82929242D01*
X158468095Y-82929242D02*
X158372857Y-83072100D01*
X158372857Y-83072100D02*
X158230000Y-83143528D01*
X158230000Y-83143528D02*
X157991905Y-83143528D01*
X159515714Y-83143528D02*
X158944286Y-83143528D01*
X159230000Y-83143528D02*
X159230000Y-81643528D01*
X159230000Y-81643528D02*
X159134762Y-81857814D01*
X159134762Y-81857814D02*
X159039524Y-82000671D01*
X159039524Y-82000671D02*
X158944286Y-82072100D01*
X104563333Y-127540671D02*
X104515714Y-127612100D01*
X104515714Y-127612100D02*
X104372857Y-127683528D01*
X104372857Y-127683528D02*
X104277619Y-127683528D01*
X104277619Y-127683528D02*
X104134762Y-127612100D01*
X104134762Y-127612100D02*
X104039524Y-127469242D01*
X104039524Y-127469242D02*
X103991905Y-127326385D01*
X103991905Y-127326385D02*
X103944286Y-127040671D01*
X103944286Y-127040671D02*
X103944286Y-126826385D01*
X103944286Y-126826385D02*
X103991905Y-126540671D01*
X103991905Y-126540671D02*
X104039524Y-126397814D01*
X104039524Y-126397814D02*
X104134762Y-126254957D01*
X104134762Y-126254957D02*
X104277619Y-126183528D01*
X104277619Y-126183528D02*
X104372857Y-126183528D01*
X104372857Y-126183528D02*
X104515714Y-126254957D01*
X104515714Y-126254957D02*
X104563333Y-126326385D01*
X105420476Y-126683528D02*
X105420476Y-127683528D01*
X105182381Y-126112100D02*
X104944286Y-127183528D01*
X104944286Y-127183528D02*
X105563333Y-127183528D01*
X128167814Y-83404761D02*
X128167814Y-83071428D01*
X128953528Y-82928571D02*
X128953528Y-83404761D01*
X128953528Y-83404761D02*
X127453528Y-83404761D01*
X127453528Y-83404761D02*
X127453528Y-82928571D01*
X128953528Y-82357142D02*
X128882100Y-82452380D01*
X128882100Y-82452380D02*
X128739242Y-82499999D01*
X128739242Y-82499999D02*
X127453528Y-82499999D01*
X128882100Y-81595237D02*
X128953528Y-81690475D01*
X128953528Y-81690475D02*
X128953528Y-81880951D01*
X128953528Y-81880951D02*
X128882100Y-81976189D01*
X128882100Y-81976189D02*
X128739242Y-82023808D01*
X128739242Y-82023808D02*
X128167814Y-82023808D01*
X128167814Y-82023808D02*
X128024957Y-81976189D01*
X128024957Y-81976189D02*
X127953528Y-81880951D01*
X127953528Y-81880951D02*
X127953528Y-81690475D01*
X127953528Y-81690475D02*
X128024957Y-81595237D01*
X128024957Y-81595237D02*
X128167814Y-81547618D01*
X128167814Y-81547618D02*
X128310671Y-81547618D01*
X128310671Y-81547618D02*
X128453528Y-82023808D01*
X128167814Y-80785713D02*
X128239242Y-80642856D01*
X128239242Y-80642856D02*
X128310671Y-80595237D01*
X128310671Y-80595237D02*
X128453528Y-80547618D01*
X128453528Y-80547618D02*
X128667814Y-80547618D01*
X128667814Y-80547618D02*
X128810671Y-80595237D01*
X128810671Y-80595237D02*
X128882100Y-80642856D01*
X128882100Y-80642856D02*
X128953528Y-80738094D01*
X128953528Y-80738094D02*
X128953528Y-81119046D01*
X128953528Y-81119046D02*
X127453528Y-81119046D01*
X127453528Y-81119046D02*
X127453528Y-80785713D01*
X127453528Y-80785713D02*
X127524957Y-80690475D01*
X127524957Y-80690475D02*
X127596385Y-80642856D01*
X127596385Y-80642856D02*
X127739242Y-80595237D01*
X127739242Y-80595237D02*
X127882100Y-80595237D01*
X127882100Y-80595237D02*
X128024957Y-80642856D01*
X128024957Y-80642856D02*
X128096385Y-80690475D01*
X128096385Y-80690475D02*
X128167814Y-80785713D01*
X128167814Y-80785713D02*
X128167814Y-81119046D01*
X153833333Y-92140671D02*
X153785714Y-92212100D01*
X153785714Y-92212100D02*
X153642857Y-92283528D01*
X153642857Y-92283528D02*
X153547619Y-92283528D01*
X153547619Y-92283528D02*
X153404762Y-92212100D01*
X153404762Y-92212100D02*
X153309524Y-92069242D01*
X153309524Y-92069242D02*
X153261905Y-91926385D01*
X153261905Y-91926385D02*
X153214286Y-91640671D01*
X153214286Y-91640671D02*
X153214286Y-91426385D01*
X153214286Y-91426385D02*
X153261905Y-91140671D01*
X153261905Y-91140671D02*
X153309524Y-90997814D01*
X153309524Y-90997814D02*
X153404762Y-90854957D01*
X153404762Y-90854957D02*
X153547619Y-90783528D01*
X153547619Y-90783528D02*
X153642857Y-90783528D01*
X153642857Y-90783528D02*
X153785714Y-90854957D01*
X153785714Y-90854957D02*
X153833333Y-90926385D01*
X154214286Y-90926385D02*
X154261905Y-90854957D01*
X154261905Y-90854957D02*
X154357143Y-90783528D01*
X154357143Y-90783528D02*
X154595238Y-90783528D01*
X154595238Y-90783528D02*
X154690476Y-90854957D01*
X154690476Y-90854957D02*
X154738095Y-90926385D01*
X154738095Y-90926385D02*
X154785714Y-91069242D01*
X154785714Y-91069242D02*
X154785714Y-91212100D01*
X154785714Y-91212100D02*
X154738095Y-91426385D01*
X154738095Y-91426385D02*
X154166667Y-92283528D01*
X154166667Y-92283528D02*
X154785714Y-92283528D01*
X78190476Y-122533528D02*
X78190476Y-121033528D01*
X78190476Y-121033528D02*
X78523809Y-122104957D01*
X78523809Y-122104957D02*
X78857142Y-121033528D01*
X78857142Y-121033528D02*
X78857142Y-122533528D01*
X79238095Y-121033528D02*
X79857142Y-121033528D01*
X79857142Y-121033528D02*
X79523809Y-121604957D01*
X79523809Y-121604957D02*
X79666666Y-121604957D01*
X79666666Y-121604957D02*
X79761904Y-121676385D01*
X79761904Y-121676385D02*
X79809523Y-121747814D01*
X79809523Y-121747814D02*
X79857142Y-121890671D01*
X79857142Y-121890671D02*
X79857142Y-122247814D01*
X79857142Y-122247814D02*
X79809523Y-122390671D01*
X79809523Y-122390671D02*
X79761904Y-122462100D01*
X79761904Y-122462100D02*
X79666666Y-122533528D01*
X79666666Y-122533528D02*
X79380952Y-122533528D01*
X79380952Y-122533528D02*
X79285714Y-122462100D01*
X79285714Y-122462100D02*
X79238095Y-122390671D01*
X136704957Y-83238094D02*
X136704957Y-82761904D01*
X137133528Y-83333332D02*
X135633528Y-82999999D01*
X135633528Y-82999999D02*
X137133528Y-82666666D01*
X137133528Y-82333332D02*
X136133528Y-82333332D01*
X135633528Y-82333332D02*
X135704957Y-82380951D01*
X135704957Y-82380951D02*
X135776385Y-82333332D01*
X135776385Y-82333332D02*
X135704957Y-82285713D01*
X135704957Y-82285713D02*
X135633528Y-82333332D01*
X135633528Y-82333332D02*
X135776385Y-82333332D01*
X137133528Y-81714285D02*
X137062100Y-81809523D01*
X137062100Y-81809523D02*
X136919242Y-81857142D01*
X136919242Y-81857142D02*
X135633528Y-81857142D01*
X136347814Y-80999999D02*
X136419242Y-80857142D01*
X136419242Y-80857142D02*
X136490671Y-80809523D01*
X136490671Y-80809523D02*
X136633528Y-80761904D01*
X136633528Y-80761904D02*
X136847814Y-80761904D01*
X136847814Y-80761904D02*
X136990671Y-80809523D01*
X136990671Y-80809523D02*
X137062100Y-80857142D01*
X137062100Y-80857142D02*
X137133528Y-80952380D01*
X137133528Y-80952380D02*
X137133528Y-81333332D01*
X137133528Y-81333332D02*
X135633528Y-81333332D01*
X135633528Y-81333332D02*
X135633528Y-80999999D01*
X135633528Y-80999999D02*
X135704957Y-80904761D01*
X135704957Y-80904761D02*
X135776385Y-80857142D01*
X135776385Y-80857142D02*
X135919242Y-80809523D01*
X135919242Y-80809523D02*
X136062100Y-80809523D01*
X136062100Y-80809523D02*
X136204957Y-80857142D01*
X136204957Y-80857142D02*
X136276385Y-80904761D01*
X136276385Y-80904761D02*
X136347814Y-80999999D01*
X136347814Y-80999999D02*
X136347814Y-81333332D01*
X103627814Y-83071428D02*
X103627814Y-83404761D01*
X104413528Y-83404761D02*
X102913528Y-83404761D01*
X102913528Y-83404761D02*
X102913528Y-82928571D01*
X104413528Y-82404761D02*
X104342100Y-82499999D01*
X104342100Y-82499999D02*
X104199242Y-82547618D01*
X104199242Y-82547618D02*
X102913528Y-82547618D01*
X104413528Y-81595237D02*
X103627814Y-81595237D01*
X103627814Y-81595237D02*
X103484957Y-81642856D01*
X103484957Y-81642856D02*
X103413528Y-81738094D01*
X103413528Y-81738094D02*
X103413528Y-81928570D01*
X103413528Y-81928570D02*
X103484957Y-82023808D01*
X104342100Y-81595237D02*
X104413528Y-81690475D01*
X104413528Y-81690475D02*
X104413528Y-81928570D01*
X104413528Y-81928570D02*
X104342100Y-82023808D01*
X104342100Y-82023808D02*
X104199242Y-82071427D01*
X104199242Y-82071427D02*
X104056385Y-82071427D01*
X104056385Y-82071427D02*
X103913528Y-82023808D01*
X103913528Y-82023808D02*
X103842100Y-81928570D01*
X103842100Y-81928570D02*
X103842100Y-81690475D01*
X103842100Y-81690475D02*
X103770671Y-81595237D01*
X103627814Y-80785713D02*
X103699242Y-80642856D01*
X103699242Y-80642856D02*
X103770671Y-80595237D01*
X103770671Y-80595237D02*
X103913528Y-80547618D01*
X103913528Y-80547618D02*
X104127814Y-80547618D01*
X104127814Y-80547618D02*
X104270671Y-80595237D01*
X104270671Y-80595237D02*
X104342100Y-80642856D01*
X104342100Y-80642856D02*
X104413528Y-80738094D01*
X104413528Y-80738094D02*
X104413528Y-81119046D01*
X104413528Y-81119046D02*
X102913528Y-81119046D01*
X102913528Y-81119046D02*
X102913528Y-80785713D01*
X102913528Y-80785713D02*
X102984957Y-80690475D01*
X102984957Y-80690475D02*
X103056385Y-80642856D01*
X103056385Y-80642856D02*
X103199242Y-80595237D01*
X103199242Y-80595237D02*
X103342100Y-80595237D01*
X103342100Y-80595237D02*
X103484957Y-80642856D01*
X103484957Y-80642856D02*
X103556385Y-80690475D01*
X103556385Y-80690475D02*
X103627814Y-80785713D01*
X103627814Y-80785713D02*
X103627814Y-81119046D01*
X162261904Y-112183528D02*
X161785714Y-112183528D01*
X161785714Y-112183528D02*
X161738095Y-112897814D01*
X161738095Y-112897814D02*
X161785714Y-112826385D01*
X161785714Y-112826385D02*
X161880952Y-112754957D01*
X161880952Y-112754957D02*
X162119047Y-112754957D01*
X162119047Y-112754957D02*
X162214285Y-112826385D01*
X162214285Y-112826385D02*
X162261904Y-112897814D01*
X162261904Y-112897814D02*
X162309523Y-113040671D01*
X162309523Y-113040671D02*
X162309523Y-113397814D01*
X162309523Y-113397814D02*
X162261904Y-113540671D01*
X162261904Y-113540671D02*
X162214285Y-113612100D01*
X162214285Y-113612100D02*
X162119047Y-113683528D01*
X162119047Y-113683528D02*
X161880952Y-113683528D01*
X161880952Y-113683528D02*
X161785714Y-113612100D01*
X161785714Y-113612100D02*
X161738095Y-113540671D01*
X162595238Y-112183528D02*
X162928571Y-113683528D01*
X162928571Y-113683528D02*
X163261904Y-112183528D01*
X163357143Y-113826385D02*
X164119047Y-113826385D01*
X164833333Y-113683528D02*
X164357143Y-113683528D01*
X164357143Y-113683528D02*
X164357143Y-112183528D01*
X165357143Y-112183528D02*
X165547619Y-112183528D01*
X165547619Y-112183528D02*
X165642857Y-112254957D01*
X165642857Y-112254957D02*
X165738095Y-112397814D01*
X165738095Y-112397814D02*
X165785714Y-112683528D01*
X165785714Y-112683528D02*
X165785714Y-113183528D01*
X165785714Y-113183528D02*
X165738095Y-113469242D01*
X165738095Y-113469242D02*
X165642857Y-113612100D01*
X165642857Y-113612100D02*
X165547619Y-113683528D01*
X165547619Y-113683528D02*
X165357143Y-113683528D01*
X165357143Y-113683528D02*
X165261905Y-113612100D01*
X165261905Y-113612100D02*
X165166667Y-113469242D01*
X165166667Y-113469242D02*
X165119048Y-113183528D01*
X165119048Y-113183528D02*
X165119048Y-112683528D01*
X165119048Y-112683528D02*
X165166667Y-112397814D01*
X165166667Y-112397814D02*
X165261905Y-112254957D01*
X165261905Y-112254957D02*
X165357143Y-112183528D01*
X166738095Y-112254957D02*
X166642857Y-112183528D01*
X166642857Y-112183528D02*
X166500000Y-112183528D01*
X166500000Y-112183528D02*
X166357143Y-112254957D01*
X166357143Y-112254957D02*
X166261905Y-112397814D01*
X166261905Y-112397814D02*
X166214286Y-112540671D01*
X166214286Y-112540671D02*
X166166667Y-112826385D01*
X166166667Y-112826385D02*
X166166667Y-113040671D01*
X166166667Y-113040671D02*
X166214286Y-113326385D01*
X166214286Y-113326385D02*
X166261905Y-113469242D01*
X166261905Y-113469242D02*
X166357143Y-113612100D01*
X166357143Y-113612100D02*
X166500000Y-113683528D01*
X166500000Y-113683528D02*
X166595238Y-113683528D01*
X166595238Y-113683528D02*
X166738095Y-113612100D01*
X166738095Y-113612100D02*
X166785714Y-113540671D01*
X166785714Y-113540671D02*
X166785714Y-113040671D01*
X166785714Y-113040671D02*
X166595238Y-113040671D01*
X167214286Y-113683528D02*
X167214286Y-112183528D01*
X168261904Y-113540671D02*
X168214285Y-113612100D01*
X168214285Y-113612100D02*
X168071428Y-113683528D01*
X168071428Y-113683528D02*
X167976190Y-113683528D01*
X167976190Y-113683528D02*
X167833333Y-113612100D01*
X167833333Y-113612100D02*
X167738095Y-113469242D01*
X167738095Y-113469242D02*
X167690476Y-113326385D01*
X167690476Y-113326385D02*
X167642857Y-113040671D01*
X167642857Y-113040671D02*
X167642857Y-112826385D01*
X167642857Y-112826385D02*
X167690476Y-112540671D01*
X167690476Y-112540671D02*
X167738095Y-112397814D01*
X167738095Y-112397814D02*
X167833333Y-112254957D01*
X167833333Y-112254957D02*
X167976190Y-112183528D01*
X167976190Y-112183528D02*
X168071428Y-112183528D01*
X168071428Y-112183528D02*
X168214285Y-112254957D01*
X168214285Y-112254957D02*
X168261904Y-112326385D01*
X158261905Y-92683528D02*
X158261905Y-91183528D01*
X158261905Y-91183528D02*
X158500000Y-91183528D01*
X158500000Y-91183528D02*
X158642857Y-91254957D01*
X158642857Y-91254957D02*
X158738095Y-91397814D01*
X158738095Y-91397814D02*
X158785714Y-91540671D01*
X158785714Y-91540671D02*
X158833333Y-91826385D01*
X158833333Y-91826385D02*
X158833333Y-92040671D01*
X158833333Y-92040671D02*
X158785714Y-92326385D01*
X158785714Y-92326385D02*
X158738095Y-92469242D01*
X158738095Y-92469242D02*
X158642857Y-92612100D01*
X158642857Y-92612100D02*
X158500000Y-92683528D01*
X158500000Y-92683528D02*
X158261905Y-92683528D01*
X159214286Y-91326385D02*
X159261905Y-91254957D01*
X159261905Y-91254957D02*
X159357143Y-91183528D01*
X159357143Y-91183528D02*
X159595238Y-91183528D01*
X159595238Y-91183528D02*
X159690476Y-91254957D01*
X159690476Y-91254957D02*
X159738095Y-91326385D01*
X159738095Y-91326385D02*
X159785714Y-91469242D01*
X159785714Y-91469242D02*
X159785714Y-91612100D01*
X159785714Y-91612100D02*
X159738095Y-91826385D01*
X159738095Y-91826385D02*
X159166667Y-92683528D01*
X159166667Y-92683528D02*
X159785714Y-92683528D01*
X150833333Y-92140671D02*
X150785714Y-92212100D01*
X150785714Y-92212100D02*
X150642857Y-92283528D01*
X150642857Y-92283528D02*
X150547619Y-92283528D01*
X150547619Y-92283528D02*
X150404762Y-92212100D01*
X150404762Y-92212100D02*
X150309524Y-92069242D01*
X150309524Y-92069242D02*
X150261905Y-91926385D01*
X150261905Y-91926385D02*
X150214286Y-91640671D01*
X150214286Y-91640671D02*
X150214286Y-91426385D01*
X150214286Y-91426385D02*
X150261905Y-91140671D01*
X150261905Y-91140671D02*
X150309524Y-90997814D01*
X150309524Y-90997814D02*
X150404762Y-90854957D01*
X150404762Y-90854957D02*
X150547619Y-90783528D01*
X150547619Y-90783528D02*
X150642857Y-90783528D01*
X150642857Y-90783528D02*
X150785714Y-90854957D01*
X150785714Y-90854957D02*
X150833333Y-90926385D01*
X151166667Y-90783528D02*
X151785714Y-90783528D01*
X151785714Y-90783528D02*
X151452381Y-91354957D01*
X151452381Y-91354957D02*
X151595238Y-91354957D01*
X151595238Y-91354957D02*
X151690476Y-91426385D01*
X151690476Y-91426385D02*
X151738095Y-91497814D01*
X151738095Y-91497814D02*
X151785714Y-91640671D01*
X151785714Y-91640671D02*
X151785714Y-91997814D01*
X151785714Y-91997814D02*
X151738095Y-92140671D01*
X151738095Y-92140671D02*
X151690476Y-92212100D01*
X151690476Y-92212100D02*
X151595238Y-92283528D01*
X151595238Y-92283528D02*
X151309524Y-92283528D01*
X151309524Y-92283528D02*
X151214286Y-92212100D01*
X151214286Y-92212100D02*
X151166667Y-92140671D01*
X123363528Y-83476190D02*
X123363528Y-82904762D01*
X124863528Y-83190476D02*
X123363528Y-83190476D01*
X124863528Y-82571428D02*
X123363528Y-82571428D01*
X124863528Y-82142857D02*
X124077814Y-82142857D01*
X124077814Y-82142857D02*
X123934957Y-82190476D01*
X123934957Y-82190476D02*
X123863528Y-82285714D01*
X123863528Y-82285714D02*
X123863528Y-82428571D01*
X123863528Y-82428571D02*
X123934957Y-82523809D01*
X123934957Y-82523809D02*
X124006385Y-82571428D01*
X124863528Y-81666666D02*
X123863528Y-81666666D01*
X124149242Y-81666666D02*
X124006385Y-81619047D01*
X124006385Y-81619047D02*
X123934957Y-81571428D01*
X123934957Y-81571428D02*
X123863528Y-81476190D01*
X123863528Y-81476190D02*
X123863528Y-81380952D01*
X124434957Y-81095237D02*
X124434957Y-80619047D01*
X124863528Y-81190475D02*
X123363528Y-80857142D01*
X123363528Y-80857142D02*
X124863528Y-80523809D01*
X109833333Y-121540671D02*
X109785714Y-121612100D01*
X109785714Y-121612100D02*
X109642857Y-121683528D01*
X109642857Y-121683528D02*
X109547619Y-121683528D01*
X109547619Y-121683528D02*
X109404762Y-121612100D01*
X109404762Y-121612100D02*
X109309524Y-121469242D01*
X109309524Y-121469242D02*
X109261905Y-121326385D01*
X109261905Y-121326385D02*
X109214286Y-121040671D01*
X109214286Y-121040671D02*
X109214286Y-120826385D01*
X109214286Y-120826385D02*
X109261905Y-120540671D01*
X109261905Y-120540671D02*
X109309524Y-120397814D01*
X109309524Y-120397814D02*
X109404762Y-120254957D01*
X109404762Y-120254957D02*
X109547619Y-120183528D01*
X109547619Y-120183528D02*
X109642857Y-120183528D01*
X109642857Y-120183528D02*
X109785714Y-120254957D01*
X109785714Y-120254957D02*
X109833333Y-120326385D01*
X110738095Y-120183528D02*
X110261905Y-120183528D01*
X110261905Y-120183528D02*
X110214286Y-120897814D01*
X110214286Y-120897814D02*
X110261905Y-120826385D01*
X110261905Y-120826385D02*
X110357143Y-120754957D01*
X110357143Y-120754957D02*
X110595238Y-120754957D01*
X110595238Y-120754957D02*
X110690476Y-120826385D01*
X110690476Y-120826385D02*
X110738095Y-120897814D01*
X110738095Y-120897814D02*
X110785714Y-121040671D01*
X110785714Y-121040671D02*
X110785714Y-121397814D01*
X110785714Y-121397814D02*
X110738095Y-121540671D01*
X110738095Y-121540671D02*
X110690476Y-121612100D01*
X110690476Y-121612100D02*
X110595238Y-121683528D01*
X110595238Y-121683528D02*
X110357143Y-121683528D01*
X110357143Y-121683528D02*
X110261905Y-121612100D01*
X110261905Y-121612100D02*
X110214286Y-121540671D01*
X140794957Y-83166666D02*
X140794957Y-82690476D01*
X141223528Y-83261904D02*
X139723528Y-82928571D01*
X139723528Y-82928571D02*
X141223528Y-82595238D01*
X141223528Y-82261904D02*
X140223528Y-82261904D01*
X139723528Y-82261904D02*
X139794957Y-82309523D01*
X139794957Y-82309523D02*
X139866385Y-82261904D01*
X139866385Y-82261904D02*
X139794957Y-82214285D01*
X139794957Y-82214285D02*
X139723528Y-82261904D01*
X139723528Y-82261904D02*
X139866385Y-82261904D01*
X141223528Y-81642857D02*
X141152100Y-81738095D01*
X141152100Y-81738095D02*
X141009242Y-81785714D01*
X141009242Y-81785714D02*
X139723528Y-81785714D01*
X140794957Y-81309523D02*
X140794957Y-80833333D01*
X141223528Y-81404761D02*
X139723528Y-81071428D01*
X139723528Y-81071428D02*
X141223528Y-80738095D01*
X116683528Y-83023809D02*
X115969242Y-83357142D01*
X116683528Y-83595237D02*
X115183528Y-83595237D01*
X115183528Y-83595237D02*
X115183528Y-83214285D01*
X115183528Y-83214285D02*
X115254957Y-83119047D01*
X115254957Y-83119047D02*
X115326385Y-83071428D01*
X115326385Y-83071428D02*
X115469242Y-83023809D01*
X115469242Y-83023809D02*
X115683528Y-83023809D01*
X115683528Y-83023809D02*
X115826385Y-83071428D01*
X115826385Y-83071428D02*
X115897814Y-83119047D01*
X115897814Y-83119047D02*
X115969242Y-83214285D01*
X115969242Y-83214285D02*
X115969242Y-83595237D01*
X115683528Y-82166666D02*
X116683528Y-82166666D01*
X115683528Y-82595237D02*
X116469242Y-82595237D01*
X116469242Y-82595237D02*
X116612100Y-82547618D01*
X116612100Y-82547618D02*
X116683528Y-82452380D01*
X116683528Y-82452380D02*
X116683528Y-82309523D01*
X116683528Y-82309523D02*
X116612100Y-82214285D01*
X116612100Y-82214285D02*
X116540671Y-82166666D01*
X116683528Y-81261904D02*
X115183528Y-81261904D01*
X116612100Y-81261904D02*
X116683528Y-81357142D01*
X116683528Y-81357142D02*
X116683528Y-81547618D01*
X116683528Y-81547618D02*
X116612100Y-81642856D01*
X116612100Y-81642856D02*
X116540671Y-81690475D01*
X116540671Y-81690475D02*
X116397814Y-81738094D01*
X116397814Y-81738094D02*
X115969242Y-81738094D01*
X115969242Y-81738094D02*
X115826385Y-81690475D01*
X115826385Y-81690475D02*
X115754957Y-81642856D01*
X115754957Y-81642856D02*
X115683528Y-81547618D01*
X115683528Y-81547618D02*
X115683528Y-81357142D01*
X115683528Y-81357142D02*
X115754957Y-81261904D01*
X116254957Y-80833332D02*
X116254957Y-80357142D01*
X116683528Y-80928570D02*
X115183528Y-80595237D01*
X115183528Y-80595237D02*
X116683528Y-80261904D01*
X146103333Y-85080671D02*
X146055714Y-85152100D01*
X146055714Y-85152100D02*
X145912857Y-85223528D01*
X145912857Y-85223528D02*
X145817619Y-85223528D01*
X145817619Y-85223528D02*
X145674762Y-85152100D01*
X145674762Y-85152100D02*
X145579524Y-85009242D01*
X145579524Y-85009242D02*
X145531905Y-84866385D01*
X145531905Y-84866385D02*
X145484286Y-84580671D01*
X145484286Y-84580671D02*
X145484286Y-84366385D01*
X145484286Y-84366385D02*
X145531905Y-84080671D01*
X145531905Y-84080671D02*
X145579524Y-83937814D01*
X145579524Y-83937814D02*
X145674762Y-83794957D01*
X145674762Y-83794957D02*
X145817619Y-83723528D01*
X145817619Y-83723528D02*
X145912857Y-83723528D01*
X145912857Y-83723528D02*
X146055714Y-83794957D01*
X146055714Y-83794957D02*
X146103333Y-83866385D01*
X147055714Y-85223528D02*
X146484286Y-85223528D01*
X146770000Y-85223528D02*
X146770000Y-83723528D01*
X146770000Y-83723528D02*
X146674762Y-83937814D01*
X146674762Y-83937814D02*
X146579524Y-84080671D01*
X146579524Y-84080671D02*
X146484286Y-84152100D01*
X112593528Y-83095238D02*
X111879242Y-83428571D01*
X112593528Y-83666666D02*
X111093528Y-83666666D01*
X111093528Y-83666666D02*
X111093528Y-83285714D01*
X111093528Y-83285714D02*
X111164957Y-83190476D01*
X111164957Y-83190476D02*
X111236385Y-83142857D01*
X111236385Y-83142857D02*
X111379242Y-83095238D01*
X111379242Y-83095238D02*
X111593528Y-83095238D01*
X111593528Y-83095238D02*
X111736385Y-83142857D01*
X111736385Y-83142857D02*
X111807814Y-83190476D01*
X111807814Y-83190476D02*
X111879242Y-83285714D01*
X111879242Y-83285714D02*
X111879242Y-83666666D01*
X111593528Y-82238095D02*
X112593528Y-82238095D01*
X111593528Y-82666666D02*
X112379242Y-82666666D01*
X112379242Y-82666666D02*
X112522100Y-82619047D01*
X112522100Y-82619047D02*
X112593528Y-82523809D01*
X112593528Y-82523809D02*
X112593528Y-82380952D01*
X112593528Y-82380952D02*
X112522100Y-82285714D01*
X112522100Y-82285714D02*
X112450671Y-82238095D01*
X112593528Y-81333333D02*
X111093528Y-81333333D01*
X112522100Y-81333333D02*
X112593528Y-81428571D01*
X112593528Y-81428571D02*
X112593528Y-81619047D01*
X112593528Y-81619047D02*
X112522100Y-81714285D01*
X112522100Y-81714285D02*
X112450671Y-81761904D01*
X112450671Y-81761904D02*
X112307814Y-81809523D01*
X112307814Y-81809523D02*
X111879242Y-81809523D01*
X111879242Y-81809523D02*
X111736385Y-81761904D01*
X111736385Y-81761904D02*
X111664957Y-81714285D01*
X111664957Y-81714285D02*
X111593528Y-81619047D01*
X111593528Y-81619047D02*
X111593528Y-81428571D01*
X111593528Y-81428571D02*
X111664957Y-81333333D01*
X111807814Y-80523809D02*
X111879242Y-80380952D01*
X111879242Y-80380952D02*
X111950671Y-80333333D01*
X111950671Y-80333333D02*
X112093528Y-80285714D01*
X112093528Y-80285714D02*
X112307814Y-80285714D01*
X112307814Y-80285714D02*
X112450671Y-80333333D01*
X112450671Y-80333333D02*
X112522100Y-80380952D01*
X112522100Y-80380952D02*
X112593528Y-80476190D01*
X112593528Y-80476190D02*
X112593528Y-80857142D01*
X112593528Y-80857142D02*
X111093528Y-80857142D01*
X111093528Y-80857142D02*
X111093528Y-80523809D01*
X111093528Y-80523809D02*
X111164957Y-80428571D01*
X111164957Y-80428571D02*
X111236385Y-80380952D01*
X111236385Y-80380952D02*
X111379242Y-80333333D01*
X111379242Y-80333333D02*
X111522100Y-80333333D01*
X111522100Y-80333333D02*
X111664957Y-80380952D01*
X111664957Y-80380952D02*
X111736385Y-80428571D01*
X111736385Y-80428571D02*
X111807814Y-80523809D01*
X111807814Y-80523809D02*
X111807814Y-80857142D01*
X86833333Y-95080671D02*
X86785714Y-95152100D01*
X86785714Y-95152100D02*
X86642857Y-95223528D01*
X86642857Y-95223528D02*
X86547619Y-95223528D01*
X86547619Y-95223528D02*
X86404762Y-95152100D01*
X86404762Y-95152100D02*
X86309524Y-95009242D01*
X86309524Y-95009242D02*
X86261905Y-94866385D01*
X86261905Y-94866385D02*
X86214286Y-94580671D01*
X86214286Y-94580671D02*
X86214286Y-94366385D01*
X86214286Y-94366385D02*
X86261905Y-94080671D01*
X86261905Y-94080671D02*
X86309524Y-93937814D01*
X86309524Y-93937814D02*
X86404762Y-93794957D01*
X86404762Y-93794957D02*
X86547619Y-93723528D01*
X86547619Y-93723528D02*
X86642857Y-93723528D01*
X86642857Y-93723528D02*
X86785714Y-93794957D01*
X86785714Y-93794957D02*
X86833333Y-93866385D01*
X87404762Y-94366385D02*
X87309524Y-94294957D01*
X87309524Y-94294957D02*
X87261905Y-94223528D01*
X87261905Y-94223528D02*
X87214286Y-94080671D01*
X87214286Y-94080671D02*
X87214286Y-94009242D01*
X87214286Y-94009242D02*
X87261905Y-93866385D01*
X87261905Y-93866385D02*
X87309524Y-93794957D01*
X87309524Y-93794957D02*
X87404762Y-93723528D01*
X87404762Y-93723528D02*
X87595238Y-93723528D01*
X87595238Y-93723528D02*
X87690476Y-93794957D01*
X87690476Y-93794957D02*
X87738095Y-93866385D01*
X87738095Y-93866385D02*
X87785714Y-94009242D01*
X87785714Y-94009242D02*
X87785714Y-94080671D01*
X87785714Y-94080671D02*
X87738095Y-94223528D01*
X87738095Y-94223528D02*
X87690476Y-94294957D01*
X87690476Y-94294957D02*
X87595238Y-94366385D01*
X87595238Y-94366385D02*
X87404762Y-94366385D01*
X87404762Y-94366385D02*
X87309524Y-94437814D01*
X87309524Y-94437814D02*
X87261905Y-94509242D01*
X87261905Y-94509242D02*
X87214286Y-94652100D01*
X87214286Y-94652100D02*
X87214286Y-94937814D01*
X87214286Y-94937814D02*
X87261905Y-95080671D01*
X87261905Y-95080671D02*
X87309524Y-95152100D01*
X87309524Y-95152100D02*
X87404762Y-95223528D01*
X87404762Y-95223528D02*
X87595238Y-95223528D01*
X87595238Y-95223528D02*
X87690476Y-95152100D01*
X87690476Y-95152100D02*
X87738095Y-95080671D01*
X87738095Y-95080671D02*
X87785714Y-94937814D01*
X87785714Y-94937814D02*
X87785714Y-94652100D01*
X87785714Y-94652100D02*
X87738095Y-94509242D01*
X87738095Y-94509242D02*
X87690476Y-94437814D01*
X87690476Y-94437814D02*
X87595238Y-94366385D01*
X164666666Y-81833528D02*
X164666666Y-82904957D01*
X164666666Y-82904957D02*
X164619047Y-83119242D01*
X164619047Y-83119242D02*
X164523809Y-83262100D01*
X164523809Y-83262100D02*
X164380952Y-83333528D01*
X164380952Y-83333528D02*
X164285714Y-83333528D01*
X165666666Y-83333528D02*
X165095238Y-83333528D01*
X165380952Y-83333528D02*
X165380952Y-81833528D01*
X165380952Y-81833528D02*
X165285714Y-82047814D01*
X165285714Y-82047814D02*
X165190476Y-82190671D01*
X165190476Y-82190671D02*
X165095238Y-82262100D01*
X77047619Y-90897814D02*
X77380952Y-90897814D01*
X77523809Y-91683528D02*
X77047619Y-91683528D01*
X77047619Y-91683528D02*
X77047619Y-90183528D01*
X77047619Y-90183528D02*
X77523809Y-90183528D01*
X77904762Y-91612100D02*
X78047619Y-91683528D01*
X78047619Y-91683528D02*
X78285714Y-91683528D01*
X78285714Y-91683528D02*
X78380952Y-91612100D01*
X78380952Y-91612100D02*
X78428571Y-91540671D01*
X78428571Y-91540671D02*
X78476190Y-91397814D01*
X78476190Y-91397814D02*
X78476190Y-91254957D01*
X78476190Y-91254957D02*
X78428571Y-91112100D01*
X78428571Y-91112100D02*
X78380952Y-91040671D01*
X78380952Y-91040671D02*
X78285714Y-90969242D01*
X78285714Y-90969242D02*
X78095238Y-90897814D01*
X78095238Y-90897814D02*
X78000000Y-90826385D01*
X78000000Y-90826385D02*
X77952381Y-90754957D01*
X77952381Y-90754957D02*
X77904762Y-90612100D01*
X77904762Y-90612100D02*
X77904762Y-90469242D01*
X77904762Y-90469242D02*
X77952381Y-90326385D01*
X77952381Y-90326385D02*
X78000000Y-90254957D01*
X78000000Y-90254957D02*
X78095238Y-90183528D01*
X78095238Y-90183528D02*
X78333333Y-90183528D01*
X78333333Y-90183528D02*
X78476190Y-90254957D01*
X78904762Y-91683528D02*
X78904762Y-90183528D01*
X78904762Y-90183528D02*
X79285714Y-90183528D01*
X79285714Y-90183528D02*
X79380952Y-90254957D01*
X79380952Y-90254957D02*
X79428571Y-90326385D01*
X79428571Y-90326385D02*
X79476190Y-90469242D01*
X79476190Y-90469242D02*
X79476190Y-90683528D01*
X79476190Y-90683528D02*
X79428571Y-90826385D01*
X79428571Y-90826385D02*
X79380952Y-90897814D01*
X79380952Y-90897814D02*
X79285714Y-90969242D01*
X79285714Y-90969242D02*
X78904762Y-90969242D01*
X79666667Y-91826385D02*
X80428571Y-91826385D01*
X80571429Y-90183528D02*
X81190476Y-90183528D01*
X81190476Y-90183528D02*
X80857143Y-90754957D01*
X80857143Y-90754957D02*
X81000000Y-90754957D01*
X81000000Y-90754957D02*
X81095238Y-90826385D01*
X81095238Y-90826385D02*
X81142857Y-90897814D01*
X81142857Y-90897814D02*
X81190476Y-91040671D01*
X81190476Y-91040671D02*
X81190476Y-91397814D01*
X81190476Y-91397814D02*
X81142857Y-91540671D01*
X81142857Y-91540671D02*
X81095238Y-91612100D01*
X81095238Y-91612100D02*
X81000000Y-91683528D01*
X81000000Y-91683528D02*
X80714286Y-91683528D01*
X80714286Y-91683528D02*
X80619048Y-91612100D01*
X80619048Y-91612100D02*
X80571429Y-91540671D01*
X81476191Y-90183528D02*
X81809524Y-91683528D01*
X81809524Y-91683528D02*
X82142857Y-90183528D01*
X82380953Y-90183528D02*
X83000000Y-90183528D01*
X83000000Y-90183528D02*
X82666667Y-90754957D01*
X82666667Y-90754957D02*
X82809524Y-90754957D01*
X82809524Y-90754957D02*
X82904762Y-90826385D01*
X82904762Y-90826385D02*
X82952381Y-90897814D01*
X82952381Y-90897814D02*
X83000000Y-91040671D01*
X83000000Y-91040671D02*
X83000000Y-91397814D01*
X83000000Y-91397814D02*
X82952381Y-91540671D01*
X82952381Y-91540671D02*
X82904762Y-91612100D01*
X82904762Y-91612100D02*
X82809524Y-91683528D01*
X82809524Y-91683528D02*
X82523810Y-91683528D01*
X82523810Y-91683528D02*
X82428572Y-91612100D01*
X82428572Y-91612100D02*
X82380953Y-91540671D01*
X114833528Y-123333333D02*
X115904957Y-123333333D01*
X115904957Y-123333333D02*
X116119242Y-123380952D01*
X116119242Y-123380952D02*
X116262100Y-123476190D01*
X116262100Y-123476190D02*
X116333528Y-123619047D01*
X116333528Y-123619047D02*
X116333528Y-123714285D01*
X115333528Y-122428571D02*
X116333528Y-122428571D01*
X114762100Y-122666666D02*
X115833528Y-122904761D01*
X115833528Y-122904761D02*
X115833528Y-122285714D01*
D12*
%TO.C,U3*%
X152010000Y-83880000D02*
X151870000Y-83690000D01*
X152150000Y-83690000D01*
X152010000Y-83880000D01*
G36*
X152010000Y-83880000D02*
G01*
X151870000Y-83690000D01*
X152150000Y-83690000D01*
X152010000Y-83880000D01*
G37*
X154110000Y-86110000D02*
X151890000Y-86110000D01*
X152300748Y-83890000D02*
X154110000Y-83890000D01*
%TO.C,J5*%
X131380000Y-121730000D02*
X146620000Y-121730000D01*
X146620000Y-124270000D01*
X131380000Y-124270000D01*
X131380000Y-121730000D01*
%TO.C,J2*%
X84380000Y-121730000D02*
X99620000Y-121730000D01*
X99620000Y-124270000D01*
X84380000Y-124270000D01*
X84380000Y-121730000D01*
%TO.C,GND*%
X150950000Y-119000000D02*
G75*
G02*
X149050000Y-119000000I-950000J0D01*
G01*
X149050000Y-119000000D02*
G75*
G02*
X150950000Y-119000000I950000J0D01*
G01*
%TO.C,J3*%
X173380000Y-83730000D02*
X188620000Y-83730000D01*
X188620000Y-86270000D01*
X173380000Y-86270000D01*
X173380000Y-83730000D01*
%TO.C,EleA*%
X131090000Y-84190000D02*
X133630000Y-84190000D01*
X133630000Y-91810000D01*
X131090000Y-91810000D01*
X131090000Y-84190000D01*
%TO.C,TEENSY_3V3*%
X154950000Y-119000000D02*
G75*
G02*
X153050000Y-119000000I-950000J0D01*
G01*
X153050000Y-119000000D02*
G75*
G02*
X154950000Y-119000000I950000J0D01*
G01*
%TO.C,Cha7*%
X94280000Y-84190000D02*
X96820000Y-84190000D01*
X96820000Y-91810000D01*
X94280000Y-91810000D01*
X94280000Y-84190000D01*
%TO.C,U1*%
X103730000Y-97730000D02*
X139290000Y-97730000D01*
X103730000Y-115510000D02*
X103730000Y-97730000D01*
X139290000Y-97730000D02*
X139290000Y-115510000D01*
X139290000Y-115510000D02*
X103730000Y-115510000D01*
%TO.C,FlaA*%
X106550000Y-84190000D02*
X109090000Y-84190000D01*
X109090000Y-91810000D01*
X106550000Y-91810000D01*
X106550000Y-84190000D01*
%TO.C,ThrB*%
X118820000Y-84190000D02*
X121360000Y-84190000D01*
X121360000Y-91810000D01*
X118820000Y-91810000D01*
X118820000Y-84190000D01*
%TO.C,C6*%
X109080000Y-125200000D02*
X112280000Y-125200000D01*
X109080000Y-126800000D02*
X112280000Y-126800000D01*
%TO.C,U2*%
D13*
X75589000Y-110446272D02*
X75589000Y-102451000D01*
X76089000Y-101951000D02*
X77099000Y-101951000D01*
D10*
X77099000Y-99470000D02*
X77099000Y-113440000D01*
D13*
X77099000Y-99470000D02*
X77099000Y-113440000D01*
X77099000Y-110950000D02*
X76088728Y-110946272D01*
X96149000Y-97565000D02*
X79004000Y-97565000D01*
X96149000Y-115345000D02*
X79004000Y-115345000D01*
X98054000Y-113440000D02*
X98054000Y-99470000D01*
X75589000Y-102451000D02*
G75*
G02*
X76089000Y-101951000I500000J0D01*
G01*
X76088728Y-110946272D02*
G75*
G02*
X75589028Y-110446272I272J499972D01*
G01*
X77099000Y-99470000D02*
G75*
G02*
X79004000Y-97565000I1905000J0D01*
G01*
X79004000Y-115345000D02*
G75*
G02*
X77099000Y-113440000I0J1905000D01*
G01*
X96149000Y-97565000D02*
G75*
G02*
X98054000Y-99470000I-1J-1905001D01*
G01*
X98054000Y-113440000D02*
G75*
G02*
X96149000Y-115345000I-1905001J1D01*
G01*
D14*
X77492000Y-115359000D02*
G75*
G02*
X76988000Y-115359000I-252000J0D01*
G01*
X76988000Y-115359000D02*
G75*
G02*
X77492000Y-115359000I252000J0D01*
G01*
X78372000Y-114216000D02*
G75*
G02*
X77868000Y-114216000I-252000J0D01*
G01*
X77868000Y-114216000D02*
G75*
G02*
X78372000Y-114216000I252000J0D01*
G01*
%TO.C,Cha6*%
D12*
X98370000Y-84190000D02*
X100910000Y-84190000D01*
X100910000Y-91810000D01*
X98370000Y-91810000D01*
X98370000Y-84190000D01*
%TO.C,5V_BEC_ESC*%
X146950000Y-96000000D02*
G75*
G02*
X145050000Y-96000000I-950000J0D01*
G01*
X145050000Y-96000000D02*
G75*
G02*
X146950000Y-96000000I950000J0D01*
G01*
%TO.C,D1*%
X162160000Y-83640000D02*
X157100000Y-83640000D01*
X162160000Y-86360000D02*
X157100000Y-86360000D01*
X162160000Y-86360000D02*
X162160000Y-83640000D01*
%TO.C,C4*%
X103690000Y-123000000D02*
X102150000Y-123000000D01*
X103690000Y-123040000D02*
X102150000Y-123040000D01*
X103690000Y-123080000D02*
X102151000Y-123080000D01*
X103690000Y-123120000D02*
X102153000Y-123120000D01*
X103690000Y-123160000D02*
X102155000Y-123160000D01*
X103690000Y-123200000D02*
X102158000Y-123200000D01*
X103690000Y-123240000D02*
X102161000Y-123240000D01*
X103690000Y-123280000D02*
X102165000Y-123280000D01*
X103690000Y-123320000D02*
X102170000Y-123320000D01*
X103690000Y-123360000D02*
X102175000Y-123360000D01*
X103690000Y-123400000D02*
X102181000Y-123400000D01*
X103690000Y-123440000D02*
X102187000Y-123440000D01*
X103690000Y-123480000D02*
X102194000Y-123480000D01*
X103690000Y-123520000D02*
X102202000Y-123520000D01*
X103690000Y-123560000D02*
X102211000Y-123560000D01*
X103690000Y-123600000D02*
X102220000Y-123600000D01*
X103690000Y-123640000D02*
X102229000Y-123640000D01*
X103690000Y-123680000D02*
X102240000Y-123680000D01*
X103690000Y-123720000D02*
X102251000Y-123720000D01*
X103690000Y-123760000D02*
X102263000Y-123760000D01*
X103690000Y-123800000D02*
X102275000Y-123800000D01*
X103690000Y-123840000D02*
X102288000Y-123840000D01*
X103690000Y-123880000D02*
X102302000Y-123880000D01*
X103690000Y-123920000D02*
X102317000Y-123920000D01*
X103690000Y-123960000D02*
X102332000Y-123960000D01*
X103690000Y-124000000D02*
X102348000Y-124000000D01*
X103690000Y-124040000D02*
X102365000Y-124040000D01*
X103690000Y-124080000D02*
X102383000Y-124080000D01*
X103690000Y-124120000D02*
X102401000Y-124120000D01*
X103690000Y-124160000D02*
X102421000Y-124160000D01*
X103690000Y-124200000D02*
X102441000Y-124200000D01*
X103690000Y-124240000D02*
X102462000Y-124240000D01*
X103690000Y-124280000D02*
X102484000Y-124280000D01*
X103690000Y-124320000D02*
X102507000Y-124320000D01*
X103690000Y-124360000D02*
X102531000Y-124360000D01*
X103690000Y-124400000D02*
X102555000Y-124400000D01*
X103690000Y-124440000D02*
X102581000Y-124440000D01*
X103690000Y-124480000D02*
X102608000Y-124480000D01*
X103690000Y-124520000D02*
X102636000Y-124520000D01*
X103690000Y-124560000D02*
X102665000Y-124560000D01*
X103690000Y-124600000D02*
X102695000Y-124600000D01*
X103690000Y-124640000D02*
X102727000Y-124640000D01*
X103690000Y-124680000D02*
X102760000Y-124680000D01*
X103690000Y-124720000D02*
X102794000Y-124720000D01*
X103690000Y-124760000D02*
X102829000Y-124760000D01*
X103690000Y-124800000D02*
X102866000Y-124800000D01*
X103690000Y-124840000D02*
X102905000Y-124840000D01*
X103690000Y-124880000D02*
X102945000Y-124880000D01*
X103690000Y-124920000D02*
X102987000Y-124920000D01*
X103690000Y-124960000D02*
X103031000Y-124960000D01*
X103690000Y-125000000D02*
X103078000Y-125000000D01*
X105013000Y-125600000D02*
X104447000Y-125600000D01*
X105247000Y-125560000D02*
X104213000Y-125560000D01*
X105407000Y-125520000D02*
X104053000Y-125520000D01*
X105535000Y-125480000D02*
X103925000Y-125480000D01*
X105644000Y-125440000D02*
X103816000Y-125440000D01*
X105741000Y-125400000D02*
X103719000Y-125400000D01*
X105828000Y-125360000D02*
X103632000Y-125360000D01*
X105907000Y-125320000D02*
X103553000Y-125320000D01*
X105981000Y-125280000D02*
X103479000Y-125280000D01*
X106049000Y-125240000D02*
X103411000Y-125240000D01*
X106113000Y-125200000D02*
X103347000Y-125200000D01*
X106173000Y-125160000D02*
X103287000Y-125160000D01*
X106205000Y-120195225D02*
X106205000Y-120695225D01*
X106229000Y-125120000D02*
X103231000Y-125120000D01*
X106283000Y-125080000D02*
X103177000Y-125080000D01*
X106334000Y-125040000D02*
X103126000Y-125040000D01*
X106382000Y-125000000D02*
X105770000Y-125000000D01*
X106429000Y-124960000D02*
X105770000Y-124960000D01*
X106455000Y-120445225D02*
X105955000Y-120445225D01*
X106473000Y-124920000D02*
X105770000Y-124920000D01*
X106515000Y-124880000D02*
X105770000Y-124880000D01*
X106555000Y-124840000D02*
X105770000Y-124840000D01*
X106594000Y-124800000D02*
X105770000Y-124800000D01*
X106631000Y-124760000D02*
X105770000Y-124760000D01*
X106666000Y-124720000D02*
X105770000Y-124720000D01*
X106700000Y-124680000D02*
X105770000Y-124680000D01*
X106733000Y-124640000D02*
X105770000Y-124640000D01*
X106765000Y-124600000D02*
X105770000Y-124600000D01*
X106795000Y-124560000D02*
X105770000Y-124560000D01*
X106824000Y-124520000D02*
X105770000Y-124520000D01*
X106852000Y-124480000D02*
X105770000Y-124480000D01*
X106879000Y-124440000D02*
X105770000Y-124440000D01*
X106905000Y-124400000D02*
X105770000Y-124400000D01*
X106929000Y-124360000D02*
X105770000Y-124360000D01*
X106953000Y-124320000D02*
X105770000Y-124320000D01*
X106976000Y-124280000D02*
X105770000Y-124280000D01*
X106998000Y-124240000D02*
X105770000Y-124240000D01*
X107019000Y-124200000D02*
X105770000Y-124200000D01*
X107039000Y-124160000D02*
X105770000Y-124160000D01*
X107059000Y-124120000D02*
X105770000Y-124120000D01*
X107077000Y-124080000D02*
X105770000Y-124080000D01*
X107095000Y-124040000D02*
X105770000Y-124040000D01*
X107112000Y-124000000D02*
X105770000Y-124000000D01*
X107128000Y-123960000D02*
X105770000Y-123960000D01*
X107143000Y-123920000D02*
X105770000Y-123920000D01*
X107158000Y-123880000D02*
X105770000Y-123880000D01*
X107172000Y-123840000D02*
X105770000Y-123840000D01*
X107185000Y-123800000D02*
X105770000Y-123800000D01*
X107197000Y-123760000D02*
X105770000Y-123760000D01*
X107209000Y-123720000D02*
X105770000Y-123720000D01*
X107220000Y-123680000D02*
X105770000Y-123680000D01*
X107231000Y-123640000D02*
X105770000Y-123640000D01*
X107240000Y-123600000D02*
X105770000Y-123600000D01*
X107249000Y-123560000D02*
X105770000Y-123560000D01*
X107258000Y-123520000D02*
X105770000Y-123520000D01*
X107266000Y-123480000D02*
X105770000Y-123480000D01*
X107273000Y-123440000D02*
X105770000Y-123440000D01*
X107279000Y-123400000D02*
X105770000Y-123400000D01*
X107285000Y-123360000D02*
X105770000Y-123360000D01*
X107290000Y-123320000D02*
X105770000Y-123320000D01*
X107295000Y-123280000D02*
X105770000Y-123280000D01*
X107299000Y-123240000D02*
X105770000Y-123240000D01*
X107302000Y-123200000D02*
X105770000Y-123200000D01*
X107305000Y-123160000D02*
X105770000Y-123160000D01*
X107307000Y-123120000D02*
X105770000Y-123120000D01*
X107309000Y-123080000D02*
X105770000Y-123080000D01*
X107310000Y-123000000D02*
X105770000Y-123000000D01*
X107310000Y-123040000D02*
X105770000Y-123040000D01*
X107350000Y-123000000D02*
G75*
G02*
X102110000Y-123000000I-2620000J0D01*
G01*
X102110000Y-123000000D02*
G75*
G02*
X107350000Y-123000000I2620000J0D01*
G01*
%TO.C,EleB*%
X127000000Y-84190000D02*
X129540000Y-84190000D01*
X129540000Y-91810000D01*
X127000000Y-91810000D01*
X127000000Y-84190000D01*
%TO.C,C2*%
X153200000Y-90200000D02*
X153200000Y-87000000D01*
X154800000Y-90200000D02*
X154800000Y-87000000D01*
%TO.C,AilB*%
X135180000Y-84190000D02*
X137720000Y-84190000D01*
X137720000Y-91810000D01*
X135180000Y-91810000D01*
X135180000Y-84190000D01*
%TO.C,FlaB*%
X102460000Y-84190000D02*
X105000000Y-84190000D01*
X105000000Y-91810000D01*
X102460000Y-91810000D01*
X102460000Y-84190000D01*
%TO.C,5V_LOGIC*%
X160680000Y-113270000D02*
G75*
G02*
X158780000Y-113270000I-950000J0D01*
G01*
X158780000Y-113270000D02*
G75*
G02*
X160680000Y-113270000I950000J0D01*
G01*
%TO.C,D2*%
X162160000Y-87640000D02*
X157100000Y-87640000D01*
X162160000Y-90360000D02*
X157100000Y-90360000D01*
X162160000Y-90360000D02*
X162160000Y-87640000D01*
%TO.C,C3*%
X150200000Y-90200000D02*
X150200000Y-87000000D01*
X151800000Y-90200000D02*
X151800000Y-87000000D01*
%TO.C,ThrA*%
X122910000Y-84190000D02*
X125450000Y-84190000D01*
X125450000Y-91810000D01*
X122910000Y-91810000D01*
X122910000Y-84190000D01*
%TO.C,C5*%
X109080000Y-122200000D02*
X112280000Y-122200000D01*
X109080000Y-123800000D02*
X112280000Y-123800000D01*
%TO.C,AilA*%
X139270000Y-84190000D02*
X141810000Y-84190000D01*
X141810000Y-91810000D01*
X139270000Y-91810000D01*
X139270000Y-84190000D01*
%TO.C,RudA*%
X114730000Y-84190000D02*
X117270000Y-84190000D01*
X117270000Y-91810000D01*
X114730000Y-91810000D01*
X114730000Y-84190000D01*
%TO.C,C1*%
X143690000Y-88500000D02*
X145230000Y-88500000D01*
X143690000Y-88540000D02*
X145230000Y-88540000D01*
X143691000Y-88460000D02*
X145230000Y-88460000D01*
X143693000Y-88420000D02*
X145230000Y-88420000D01*
X143695000Y-88380000D02*
X145230000Y-88380000D01*
X143698000Y-88340000D02*
X145230000Y-88340000D01*
X143701000Y-88300000D02*
X145230000Y-88300000D01*
X143705000Y-88260000D02*
X145230000Y-88260000D01*
X143710000Y-88220000D02*
X145230000Y-88220000D01*
X143715000Y-88180000D02*
X145230000Y-88180000D01*
X143721000Y-88140000D02*
X145230000Y-88140000D01*
X143727000Y-88100000D02*
X145230000Y-88100000D01*
X143734000Y-88060000D02*
X145230000Y-88060000D01*
X143742000Y-88020000D02*
X145230000Y-88020000D01*
X143751000Y-87980000D02*
X145230000Y-87980000D01*
X143760000Y-87940000D02*
X145230000Y-87940000D01*
X143769000Y-87900000D02*
X145230000Y-87900000D01*
X143780000Y-87860000D02*
X145230000Y-87860000D01*
X143791000Y-87820000D02*
X145230000Y-87820000D01*
X143803000Y-87780000D02*
X145230000Y-87780000D01*
X143815000Y-87740000D02*
X145230000Y-87740000D01*
X143828000Y-87700000D02*
X145230000Y-87700000D01*
X143842000Y-87660000D02*
X145230000Y-87660000D01*
X143857000Y-87620000D02*
X145230000Y-87620000D01*
X143872000Y-87580000D02*
X145230000Y-87580000D01*
X143888000Y-87540000D02*
X145230000Y-87540000D01*
X143905000Y-87500000D02*
X145230000Y-87500000D01*
X143923000Y-87460000D02*
X145230000Y-87460000D01*
X143941000Y-87420000D02*
X145230000Y-87420000D01*
X143961000Y-87380000D02*
X145230000Y-87380000D01*
X143981000Y-87340000D02*
X145230000Y-87340000D01*
X144002000Y-87300000D02*
X145230000Y-87300000D01*
X144024000Y-87260000D02*
X145230000Y-87260000D01*
X144047000Y-87220000D02*
X145230000Y-87220000D01*
X144071000Y-87180000D02*
X145230000Y-87180000D01*
X144095000Y-87140000D02*
X145230000Y-87140000D01*
X144121000Y-87100000D02*
X145230000Y-87100000D01*
X144148000Y-87060000D02*
X145230000Y-87060000D01*
X144176000Y-87020000D02*
X145230000Y-87020000D01*
X144205000Y-86980000D02*
X145230000Y-86980000D01*
X144235000Y-86940000D02*
X145230000Y-86940000D01*
X144267000Y-86900000D02*
X145230000Y-86900000D01*
X144300000Y-86860000D02*
X145230000Y-86860000D01*
X144334000Y-86820000D02*
X145230000Y-86820000D01*
X144369000Y-86780000D02*
X145230000Y-86780000D01*
X144406000Y-86740000D02*
X145230000Y-86740000D01*
X144445000Y-86700000D02*
X145230000Y-86700000D01*
X144485000Y-86660000D02*
X145230000Y-86660000D01*
X144527000Y-86620000D02*
X145230000Y-86620000D01*
X144545000Y-91094775D02*
X145045000Y-91094775D01*
X144571000Y-86580000D02*
X145230000Y-86580000D01*
X144618000Y-86540000D02*
X145230000Y-86540000D01*
X144666000Y-86500000D02*
X147874000Y-86500000D01*
X144717000Y-86460000D02*
X147823000Y-86460000D01*
X144771000Y-86420000D02*
X147769000Y-86420000D01*
X144795000Y-91344775D02*
X144795000Y-90844775D01*
X144827000Y-86380000D02*
X147713000Y-86380000D01*
X144887000Y-86340000D02*
X147653000Y-86340000D01*
X144951000Y-86300000D02*
X147589000Y-86300000D01*
X145019000Y-86260000D02*
X147521000Y-86260000D01*
X145093000Y-86220000D02*
X147447000Y-86220000D01*
X145172000Y-86180000D02*
X147368000Y-86180000D01*
X145259000Y-86140000D02*
X147281000Y-86140000D01*
X145356000Y-86100000D02*
X147184000Y-86100000D01*
X145465000Y-86060000D02*
X147075000Y-86060000D01*
X145593000Y-86020000D02*
X146947000Y-86020000D01*
X145753000Y-85980000D02*
X146787000Y-85980000D01*
X145987000Y-85940000D02*
X146553000Y-85940000D01*
X147310000Y-86540000D02*
X147922000Y-86540000D01*
X147310000Y-86580000D02*
X147969000Y-86580000D01*
X147310000Y-86620000D02*
X148013000Y-86620000D01*
X147310000Y-86660000D02*
X148055000Y-86660000D01*
X147310000Y-86700000D02*
X148095000Y-86700000D01*
X147310000Y-86740000D02*
X148134000Y-86740000D01*
X147310000Y-86780000D02*
X148171000Y-86780000D01*
X147310000Y-86820000D02*
X148206000Y-86820000D01*
X147310000Y-86860000D02*
X148240000Y-86860000D01*
X147310000Y-86900000D02*
X148273000Y-86900000D01*
X147310000Y-86940000D02*
X148305000Y-86940000D01*
X147310000Y-86980000D02*
X148335000Y-86980000D01*
X147310000Y-87020000D02*
X148364000Y-87020000D01*
X147310000Y-87060000D02*
X148392000Y-87060000D01*
X147310000Y-87100000D02*
X148419000Y-87100000D01*
X147310000Y-87140000D02*
X148445000Y-87140000D01*
X147310000Y-87180000D02*
X148469000Y-87180000D01*
X147310000Y-87220000D02*
X148493000Y-87220000D01*
X147310000Y-87260000D02*
X148516000Y-87260000D01*
X147310000Y-87300000D02*
X148538000Y-87300000D01*
X147310000Y-87340000D02*
X148559000Y-87340000D01*
X147310000Y-87380000D02*
X148579000Y-87380000D01*
X147310000Y-87420000D02*
X148599000Y-87420000D01*
X147310000Y-87460000D02*
X148617000Y-87460000D01*
X147310000Y-87500000D02*
X148635000Y-87500000D01*
X147310000Y-87540000D02*
X148652000Y-87540000D01*
X147310000Y-87580000D02*
X148668000Y-87580000D01*
X147310000Y-87620000D02*
X148683000Y-87620000D01*
X147310000Y-87660000D02*
X148698000Y-87660000D01*
X147310000Y-87700000D02*
X148712000Y-87700000D01*
X147310000Y-87740000D02*
X148725000Y-87740000D01*
X147310000Y-87780000D02*
X148737000Y-87780000D01*
X147310000Y-87820000D02*
X148749000Y-87820000D01*
X147310000Y-87860000D02*
X148760000Y-87860000D01*
X147310000Y-87900000D02*
X148771000Y-87900000D01*
X147310000Y-87940000D02*
X148780000Y-87940000D01*
X147310000Y-87980000D02*
X148789000Y-87980000D01*
X147310000Y-88020000D02*
X148798000Y-88020000D01*
X147310000Y-88060000D02*
X148806000Y-88060000D01*
X147310000Y-88100000D02*
X148813000Y-88100000D01*
X147310000Y-88140000D02*
X148819000Y-88140000D01*
X147310000Y-88180000D02*
X148825000Y-88180000D01*
X147310000Y-88220000D02*
X148830000Y-88220000D01*
X147310000Y-88260000D02*
X148835000Y-88260000D01*
X147310000Y-88300000D02*
X148839000Y-88300000D01*
X147310000Y-88340000D02*
X148842000Y-88340000D01*
X147310000Y-88380000D02*
X148845000Y-88380000D01*
X147310000Y-88420000D02*
X148847000Y-88420000D01*
X147310000Y-88460000D02*
X148849000Y-88460000D01*
X147310000Y-88500000D02*
X148850000Y-88500000D01*
X147310000Y-88540000D02*
X148850000Y-88540000D01*
X148890000Y-88540000D02*
G75*
G02*
X143650000Y-88540000I-2620000J0D01*
G01*
X143650000Y-88540000D02*
G75*
G02*
X148890000Y-88540000I2620000J0D01*
G01*
%TO.C,RudB*%
X110640000Y-84190000D02*
X113180000Y-84190000D01*
X113180000Y-91810000D01*
X110640000Y-91810000D01*
X110640000Y-84190000D01*
%TO.C,C8*%
X83190000Y-88402651D02*
X91350000Y-88402651D01*
X83190000Y-88442651D02*
X91350000Y-88442651D01*
X83191000Y-88362651D02*
X91349000Y-88362651D01*
X83192000Y-88322651D02*
X91348000Y-88322651D01*
X83193000Y-88282651D02*
X91347000Y-88282651D01*
X83195000Y-88242651D02*
X91345000Y-88242651D01*
X83197000Y-88202651D02*
X91343000Y-88202651D01*
X83200000Y-88162651D02*
X91340000Y-88162651D01*
X83202000Y-88122651D02*
X91338000Y-88122651D01*
X83206000Y-88082651D02*
X91334000Y-88082651D01*
X83209000Y-88042651D02*
X91331000Y-88042651D01*
X83214000Y-88002651D02*
X91326000Y-88002651D01*
X83218000Y-87962651D02*
X91322000Y-87962651D01*
X83223000Y-87922651D02*
X91317000Y-87922651D01*
X83228000Y-87882651D02*
X91312000Y-87882651D01*
X83234000Y-87842651D02*
X91306000Y-87842651D01*
X83240000Y-87802651D02*
X91300000Y-87802651D01*
X83247000Y-87762651D02*
X91293000Y-87762651D01*
X83253000Y-87722651D02*
X86230000Y-87722651D01*
X83261000Y-87682651D02*
X86230000Y-87682651D01*
X83268000Y-87642651D02*
X86230000Y-87642651D01*
X83277000Y-87602651D02*
X86230000Y-87602651D01*
X83285000Y-87562651D02*
X86230000Y-87562651D01*
X83294000Y-87522651D02*
X86230000Y-87522651D01*
X83303000Y-87482651D02*
X86230000Y-87482651D01*
X83313000Y-87442651D02*
X86230000Y-87442651D01*
X83323000Y-87402651D02*
X86230000Y-87402651D01*
X83334000Y-87362651D02*
X86230000Y-87362651D01*
X83345000Y-87322651D02*
X86230000Y-87322651D01*
X83357000Y-87282651D02*
X86230000Y-87282651D01*
X83369000Y-87242651D02*
X86230000Y-87242651D01*
X83381000Y-87202651D02*
X86230000Y-87202651D01*
X83394000Y-87162651D02*
X86230000Y-87162651D01*
X83407000Y-87122651D02*
X86230000Y-87122651D01*
X83421000Y-87082651D02*
X86230000Y-87082651D01*
X83435000Y-87042651D02*
X86230000Y-87042651D01*
X83450000Y-87002651D02*
X86230000Y-87002651D01*
X83465000Y-86962651D02*
X86230000Y-86962651D01*
X83481000Y-86922651D02*
X86230000Y-86922651D01*
X83497000Y-86882651D02*
X86230000Y-86882651D01*
X83513000Y-86842651D02*
X86230000Y-86842651D01*
X83530000Y-86802651D02*
X86230000Y-86802651D01*
X83548000Y-86762651D02*
X86230000Y-86762651D01*
X83566000Y-86722651D02*
X86230000Y-86722651D01*
X83585000Y-86682651D02*
X86230000Y-86682651D01*
X83604000Y-86642651D02*
X86230000Y-86642651D01*
X83624000Y-86602651D02*
X86230000Y-86602651D01*
X83644000Y-86562651D02*
X86230000Y-86562651D01*
X83665000Y-86522651D02*
X86230000Y-86522651D01*
X83686000Y-86482651D02*
X86230000Y-86482651D01*
X83708000Y-86442651D02*
X86230000Y-86442651D01*
X83731000Y-86402651D02*
X86230000Y-86402651D01*
X83754000Y-86362651D02*
X86230000Y-86362651D01*
X83777000Y-86322651D02*
X86230000Y-86322651D01*
X83802000Y-86282651D02*
X86230000Y-86282651D01*
X83827000Y-86242651D02*
X86230000Y-86242651D01*
X83852000Y-86202651D02*
X86230000Y-86202651D01*
X83878000Y-86162651D02*
X86230000Y-86162651D01*
X83905000Y-86122651D02*
X86230000Y-86122651D01*
X83933000Y-86082651D02*
X86230000Y-86082651D01*
X83961000Y-86042651D02*
X86230000Y-86042651D01*
X83990000Y-86002651D02*
X86230000Y-86002651D01*
X84020000Y-85962651D02*
X86230000Y-85962651D01*
X84051000Y-85922651D02*
X86230000Y-85922651D01*
X84082000Y-85882651D02*
X86230000Y-85882651D01*
X84114000Y-85842651D02*
X86230000Y-85842651D01*
X84147000Y-85802651D02*
X86230000Y-85802651D01*
X84181000Y-85762651D02*
X86230000Y-85762651D01*
X84215000Y-85722651D02*
X86230000Y-85722651D01*
X84251000Y-85682651D02*
X86230000Y-85682651D01*
X84288000Y-85642651D02*
X90252000Y-85642651D01*
X84325000Y-85602651D02*
X90215000Y-85602651D01*
X84364000Y-85562651D02*
X90176000Y-85562651D01*
X84403000Y-85522651D02*
X90137000Y-85522651D01*
X84444000Y-85482651D02*
X90096000Y-85482651D01*
X84486000Y-85442651D02*
X90054000Y-85442651D01*
X84529000Y-85402651D02*
X90011000Y-85402651D01*
X84555000Y-92452349D02*
X85355000Y-92452349D01*
X84574000Y-85362651D02*
X89966000Y-85362651D01*
X84619000Y-85322651D02*
X89921000Y-85322651D01*
X84666000Y-85282651D02*
X89874000Y-85282651D01*
X84715000Y-85242651D02*
X89825000Y-85242651D01*
X84765000Y-85202651D02*
X89775000Y-85202651D01*
X84817000Y-85162651D02*
X89723000Y-85162651D01*
X84870000Y-85122651D02*
X89670000Y-85122651D01*
X84926000Y-85082651D02*
X89614000Y-85082651D01*
X84955000Y-92852349D02*
X84955000Y-92052349D01*
X84983000Y-85042651D02*
X89557000Y-85042651D01*
X85043000Y-85002651D02*
X89497000Y-85002651D01*
X85105000Y-84962651D02*
X89435000Y-84962651D01*
X85169000Y-84922651D02*
X89371000Y-84922651D01*
X85236000Y-84882651D02*
X89304000Y-84882651D01*
X85306000Y-84842651D02*
X89234000Y-84842651D01*
X85380000Y-84802651D02*
X89160000Y-84802651D01*
X85457000Y-84762651D02*
X89083000Y-84762651D01*
X85539000Y-84722651D02*
X89001000Y-84722651D01*
X85626000Y-84682651D02*
X88914000Y-84682651D01*
X85718000Y-84642651D02*
X88822000Y-84642651D01*
X85817000Y-84602651D02*
X88723000Y-84602651D01*
X85924000Y-84562651D02*
X88616000Y-84562651D01*
X86042000Y-84522651D02*
X88498000Y-84522651D01*
X86173000Y-84482651D02*
X88367000Y-84482651D01*
X86323000Y-84442651D02*
X88217000Y-84442651D01*
X86502000Y-84402651D02*
X88038000Y-84402651D01*
X86737000Y-84362651D02*
X87803000Y-84362651D01*
X88310000Y-85682651D02*
X90289000Y-85682651D01*
X88310000Y-85722651D02*
X90325000Y-85722651D01*
X88310000Y-85762651D02*
X90359000Y-85762651D01*
X88310000Y-85802651D02*
X90393000Y-85802651D01*
X88310000Y-85842651D02*
X90426000Y-85842651D01*
X88310000Y-85882651D02*
X90458000Y-85882651D01*
X88310000Y-85922651D02*
X90489000Y-85922651D01*
X88310000Y-85962651D02*
X90520000Y-85962651D01*
X88310000Y-86002651D02*
X90550000Y-86002651D01*
X88310000Y-86042651D02*
X90579000Y-86042651D01*
X88310000Y-86082651D02*
X90607000Y-86082651D01*
X88310000Y-86122651D02*
X90635000Y-86122651D01*
X88310000Y-86162651D02*
X90662000Y-86162651D01*
X88310000Y-86202651D02*
X90688000Y-86202651D01*
X88310000Y-86242651D02*
X90713000Y-86242651D01*
X88310000Y-86282651D02*
X90738000Y-86282651D01*
X88310000Y-86322651D02*
X90763000Y-86322651D01*
X88310000Y-86362651D02*
X90786000Y-86362651D01*
X88310000Y-86402651D02*
X90809000Y-86402651D01*
X88310000Y-86442651D02*
X90832000Y-86442651D01*
X88310000Y-86482651D02*
X90854000Y-86482651D01*
X88310000Y-86522651D02*
X90875000Y-86522651D01*
X88310000Y-86562651D02*
X90896000Y-86562651D01*
X88310000Y-86602651D02*
X90916000Y-86602651D01*
X88310000Y-86642651D02*
X90936000Y-86642651D01*
X88310000Y-86682651D02*
X90955000Y-86682651D01*
X88310000Y-86722651D02*
X90974000Y-86722651D01*
X88310000Y-86762651D02*
X90992000Y-86762651D01*
X88310000Y-86802651D02*
X91010000Y-86802651D01*
X88310000Y-86842651D02*
X91027000Y-86842651D01*
X88310000Y-86882651D02*
X91043000Y-86882651D01*
X88310000Y-86922651D02*
X91059000Y-86922651D01*
X88310000Y-86962651D02*
X91075000Y-86962651D01*
X88310000Y-87002651D02*
X91090000Y-87002651D01*
X88310000Y-87042651D02*
X91105000Y-87042651D01*
X88310000Y-87082651D02*
X91119000Y-87082651D01*
X88310000Y-87122651D02*
X91133000Y-87122651D01*
X88310000Y-87162651D02*
X91146000Y-87162651D01*
X88310000Y-87202651D02*
X91159000Y-87202651D01*
X88310000Y-87242651D02*
X91171000Y-87242651D01*
X88310000Y-87282651D02*
X91183000Y-87282651D01*
X88310000Y-87322651D02*
X91195000Y-87322651D01*
X88310000Y-87362651D02*
X91206000Y-87362651D01*
X88310000Y-87402651D02*
X91217000Y-87402651D01*
X88310000Y-87442651D02*
X91227000Y-87442651D01*
X88310000Y-87482651D02*
X91237000Y-87482651D01*
X88310000Y-87522651D02*
X91246000Y-87522651D01*
X88310000Y-87562651D02*
X91255000Y-87562651D01*
X88310000Y-87602651D02*
X91263000Y-87602651D01*
X88310000Y-87642651D02*
X91272000Y-87642651D01*
X88310000Y-87682651D02*
X91279000Y-87682651D01*
X88310000Y-87722651D02*
X91287000Y-87722651D01*
X91390000Y-88442651D02*
G75*
G02*
X83150000Y-88442651I-4120000J0D01*
G01*
X83150000Y-88442651D02*
G75*
G02*
X91390000Y-88442651I4120000J0D01*
G01*
%TO.C,J1*%
X163730000Y-83920000D02*
X166270000Y-83920000D01*
X166270000Y-94080000D01*
X163730000Y-94080000D01*
X163730000Y-83920000D01*
%TO.C,ESP_3V3*%
X80950000Y-93000000D02*
G75*
G02*
X79050000Y-93000000I-950000J0D01*
G01*
X79050000Y-93000000D02*
G75*
G02*
X80950000Y-93000000I950000J0D01*
G01*
%TO.C,J4*%
X116920000Y-121730000D02*
X127080000Y-121730000D01*
X127080000Y-124270000D01*
X116920000Y-124270000D01*
X116920000Y-121730000D01*
%TD*%
M02*
