M48
; DRILL file KiCad 10.0.3 date 2026-06-20T14:54:31
; FORMAT={-:-/ absolute / metric / decimal}
; #@! TF.CreationDate,2026-06-20T14:54:31-07:00
; #@! TF.GenerationSoftware,Kicad,Pcbnew,10.0.3
; #@! TF.FileFunction,MixedPlating,1,2
FMAT,2
METRIC
; #@! TA.AperFunction,Plated,PTH,ViaDrill
T1C0.300
; #@! TA.AperFunction,Plated,PTH,ViaDrill
T2C0.500
; #@! TA.AperFunction,Plated,PTH,ComponentDrill
T3C0.700
; #@! TA.AperFunction,Plated,PTH,ComponentDrill
T4C0.800
; #@! TA.AperFunction,Plated,PTH,ComponentDrill
T5C0.889
; #@! TA.AperFunction,Plated,PTH,ComponentDrill
T6C1.000
; #@! TA.AperFunction,NonPlated,NPTH,ComponentDrill
T7C3.200
%
G90
G05
T1
X83.0Y-102.0
X84.0Y-126.0
X91.0Y-85.0
X94.0Y-93.0
X98.0Y-125.0
X106.0Y-93.0
X107.0Y-126.0
X113.0Y-107.0
X120.0Y-121.0
X122.0Y-93.0
X131.0Y-93.0
X135.0Y-112.0
X135.0Y-121.0
X140.0Y-96.0
X143.0Y-93.0
X144.0Y-85.0
X144.0Y-108.0
X150.0Y-86.0
X152.0Y-95.0
X152.0Y-108.0
X154.0Y-83.0
X160.0Y-102.0
X168.0Y-88.0
X168.0Y-96.0
X185.0Y-88.0
T2
X108.0Y-124.0
X163.0Y-85.0
T3
X80.0Y-93.0
X146.0Y-96.0
X150.0Y-119.0
X154.0Y-119.0
X159.73Y-113.27
T4
X87.27Y-86.693
X87.27Y-90.193
X104.73Y-122.0
X104.73Y-124.0
X146.27Y-87.54
X146.27Y-89.54
T5
X80.02Y-98.835
X80.02Y-114.075
X82.56Y-98.835
X82.56Y-114.075
X85.1Y-98.835
X85.1Y-114.075
X87.64Y-98.835
X87.64Y-114.075
X90.18Y-98.835
X90.18Y-114.075
X92.72Y-98.835
X92.72Y-114.075
X95.26Y-98.835
X95.26Y-114.075
T6
X85.65Y-123.0
X88.19Y-123.0
X90.73Y-123.0
X93.27Y-123.0
X95.55Y-85.46
X95.55Y-88.0
X95.55Y-90.54
X95.81Y-123.0
X98.35Y-123.0
X99.64Y-85.46
X99.64Y-88.0
X99.64Y-90.54
X103.73Y-85.46
X103.73Y-88.0
X103.73Y-90.54
X105.0Y-99.0
X105.0Y-114.24
X107.54Y-99.0
X107.54Y-114.24
X107.82Y-85.46
X107.82Y-88.0
X107.82Y-90.54
X110.08Y-99.0
X110.08Y-114.24
X111.91Y-85.46
X111.91Y-88.0
X111.91Y-90.54
X112.62Y-99.0
X112.62Y-114.24
X115.16Y-99.0
X115.16Y-114.24
X116.0Y-85.46
X116.0Y-88.0
X116.0Y-90.54
X117.7Y-99.0
X117.7Y-114.24
X118.19Y-123.0
X120.09Y-85.46
X120.09Y-88.0
X120.09Y-90.54
X120.24Y-99.0
X120.24Y-114.24
X120.73Y-123.0
X122.78Y-99.0
X122.78Y-114.24
X123.27Y-123.0
X124.18Y-85.46
X124.18Y-88.0
X124.18Y-90.54
X125.32Y-99.0
X125.32Y-114.24
X125.81Y-123.0
X127.86Y-99.0
X127.86Y-114.24
X128.27Y-85.46
X128.27Y-88.0
X128.27Y-90.54
X130.4Y-99.0
X130.4Y-114.24
X132.36Y-85.46
X132.36Y-88.0
X132.36Y-90.54
X132.65Y-123.0
X132.94Y-99.0
X132.94Y-114.24
X135.19Y-123.0
X135.48Y-99.0
X135.48Y-114.24
X136.45Y-85.46
X136.45Y-88.0
X136.45Y-90.54
X137.73Y-123.0
X138.02Y-99.0
X138.02Y-114.24
X140.27Y-123.0
X140.54Y-85.46
X140.54Y-88.0
X140.54Y-90.54
X142.81Y-123.0
X145.35Y-123.0
X165.0Y-85.19
X165.0Y-87.73
X165.0Y-90.27
X165.0Y-92.81
X174.65Y-85.0
X177.19Y-85.0
X179.73Y-85.0
X182.27Y-85.0
X184.81Y-85.0
X187.35Y-85.0
T7
X79.0Y-83.0
X79.0Y-126.0
X194.0Y-83.0
X194.0Y-126.0
M30
