%TF.GenerationSoftware,KiCad,Pcbnew,10.0.3*%
%TF.CreationDate,2026-06-20T14:55:08-07:00*%
%TF.ProjectId,FLIGHT CONTROLLER,464c4947-4854-4204-934f-4e54524f4c4c,rev?*%
%TF.SameCoordinates,Original*%
%TF.FileFunction,Copper,L1,Top*%
%TF.FilePolarity,Positive*%
%FSLAX46Y46*%
G04 Gerber Fmt 4.6, Leading zero omitted, Abs format (unit mm)*
G04 Created by KiCad (PCBNEW 10.0.3) date 2026-06-20 14:55:08*
%MOMM*%
%LPD*%
G01*
G04 APERTURE LIST*
G04 Aperture macros list*
%AMRoundRect*
0 Rectangle with rounded corners*
0 $1 Rounding radius*
0 $2 $3 $4 $5 $6 $7 $8 $9 X,Y pos of 4 corners*
0 Add a 4 corners polygon primitive as box body*
4,1,4,$2,$3,$4,$5,$6,$7,$8,$9,$2,$3,0*
0 Add four circle primitives for the rounded corners*
1,1,$1+$1,$2,$3*
1,1,$1+$1,$4,$5*
1,1,$1+$1,$6,$7*
1,1,$1+$1,$8,$9*
0 Add four rect primitives between the rounded corners*
20,1,$1+$1,$2,$3,$4,$5,0*
20,1,$1+$1,$4,$5,$6,$7,0*
20,1,$1+$1,$6,$7,$8,$9,0*
20,1,$1+$1,$8,$9,$2,$3,0*%
G04 Aperture macros list end*
%TA.AperFunction,HeatsinkPad*%
%ADD10R,1.000000X1.600000*%
%TD*%
%TA.AperFunction,SMDPad,CuDef*%
%ADD11RoundRect,0.093750X-0.093750X-0.106250X0.093750X-0.106250X0.093750X0.106250X-0.093750X0.106250X0*%
%TD*%
%TA.AperFunction,ComponentPad*%
%ADD12R,1.700000X1.700000*%
%TD*%
%TA.AperFunction,ComponentPad*%
%ADD13C,1.700000*%
%TD*%
%TA.AperFunction,ComponentPad*%
%ADD14C,1.500000*%
%TD*%
%TA.AperFunction,SMDPad,CuDef*%
%ADD15RoundRect,0.250000X-0.250000X-0.475000X0.250000X-0.475000X0.250000X0.475000X-0.250000X0.475000X0*%
%TD*%
%TA.AperFunction,SMDPad,CuDef*%
%ADD16RoundRect,0.152400X-0.609600X1.063600X-0.609600X-1.063600X0.609600X-1.063600X0.609600X1.063600X0*%
%TD*%
%TA.AperFunction,ComponentPad*%
%ADD17C,1.524000*%
%TD*%
%TA.AperFunction,SMDPad,CuDef*%
%ADD18RoundRect,0.152400X0.609600X-1.063600X0.609600X1.063600X-0.609600X1.063600X-0.609600X-1.063600X0*%
%TD*%
%TA.AperFunction,SMDPad,CuDef*%
%ADD19RoundRect,0.250000X0.450000X0.800000X-0.450000X0.800000X-0.450000X-0.800000X0.450000X-0.800000X0*%
%TD*%
%TA.AperFunction,ComponentPad*%
%ADD20RoundRect,0.250000X-0.550000X0.550000X-0.550000X-0.550000X0.550000X-0.550000X0.550000X0.550000X0*%
%TD*%
%TA.AperFunction,ComponentPad*%
%ADD21C,1.600000*%
%TD*%
%TA.AperFunction,SMDPad,CuDef*%
%ADD22RoundRect,0.250000X0.475000X-0.250000X0.475000X0.250000X-0.475000X0.250000X-0.475000X-0.250000X0*%
%TD*%
%TA.AperFunction,ComponentPad*%
%ADD23RoundRect,0.250000X0.550000X-0.550000X0.550000X0.550000X-0.550000X0.550000X-0.550000X-0.550000X0*%
%TD*%
%TA.AperFunction,ViaPad*%
%ADD24C,0.600000*%
%TD*%
%TA.AperFunction,ViaPad*%
%ADD25C,1.000000*%
%TD*%
%TA.AperFunction,Conductor*%
%ADD26C,0.750000*%
%TD*%
%TA.AperFunction,Conductor*%
%ADD27C,2.000000*%
%TD*%
%TA.AperFunction,Conductor*%
%ADD28C,0.200000*%
%TD*%
%TA.AperFunction,Conductor*%
%ADD29C,0.254000*%
%TD*%
G04 APERTURE END LIST*
D10*
%TO.P,U3,7,GND_7*%
%TO.N,/GND*%
X153000000Y-85000000D03*
D11*
%TO.P,U3,6,IN_6*%
%TO.N,/+5V_PM_BEC*%
X153887500Y-84350000D03*
%TO.P,U3,5,IN_5*%
X153887500Y-85000000D03*
%TO.P,U3,4,IN_4*%
X153887500Y-85650000D03*
%TO.P,U3,3,GND_3*%
%TO.N,/GND*%
X152112500Y-85650000D03*
%TO.P,U3,2,GND_2*%
X152112500Y-85000000D03*
%TO.P,U3,1,GND_1*%
X152112500Y-84350000D03*
%TD*%
D12*
%TO.P,J5,1,1_1*%
%TO.N,/+5V_LOGIC*%
X132650000Y-123000000D03*
D13*
%TO.P,J5,2,2_2*%
%TO.N,/GND*%
X135190000Y-123000000D03*
%TO.P,J5,3,3_3*%
%TO.N,/OUTBOARD_TX_TO_TEENSY_RX*%
X137730000Y-123000000D03*
%TO.P,J5,4,4_4*%
%TO.N,/OUTBOARD_RX_FROM_TEENSY_TX*%
X140270000Y-123000000D03*
%TO.P,J5,5,5_5*%
%TO.N,/OUTBOARD_SPARE1*%
X142810000Y-123000000D03*
%TO.P,J5,6,6_6*%
%TO.N,/OUTBOARD_SPARE2*%
X145350000Y-123000000D03*
%TD*%
D12*
%TO.P,J2,1,CS_1*%
%TO.N,/ESP_SD_CS*%
X85650000Y-123000000D03*
D13*
%TO.P,J2,2,SCK_2*%
%TO.N,/ESP_SD_SCK*%
X88190000Y-123000000D03*
%TO.P,J2,3,MOSI_3*%
%TO.N,/ESP_SD_MOSI*%
X90730000Y-123000000D03*
%TO.P,J2,4,MISO_4*%
%TO.N,/ESP_SD_MISO*%
X93270000Y-123000000D03*
%TO.P,J2,5,VCC_5*%
%TO.N,/+5V_LOGIC*%
X95810000Y-123000000D03*
%TO.P,J2,6,GND_6*%
%TO.N,/GND*%
X98350000Y-123000000D03*
%TD*%
D14*
%TO.P,GND,1,1_1*%
%TO.N,/GND*%
X150000000Y-119000000D03*
%TD*%
D12*
%TO.P,J3,1,1_1*%
%TO.N,/+5V_LOGIC*%
X187350000Y-85000000D03*
D13*
%TO.P,J3,2,2_2*%
%TO.N,/GND*%
X184810000Y-85000000D03*
%TO.P,J3,3,3_3*%
%TO.N,/IMU_SCL*%
X182270000Y-85000000D03*
%TO.P,J3,4,4_4*%
%TO.N,/IMU_SDA*%
X179730000Y-85000000D03*
%TO.P,J3,5,5_5*%
%TO.N,/IMU_INT*%
X177190000Y-85000000D03*
%TO.P,J3,6,6_6*%
%TO.N,/IMU_CS_OR_AUX*%
X174650000Y-85000000D03*
%TD*%
D12*
%TO.P,EleA,1,1_1*%
%TO.N,/+5V_ESC_BEC*%
X132360000Y-90540000D03*
D13*
%TO.P,EleA,2,2_2*%
%TO.N,/GND*%
X132360000Y-88000000D03*
%TO.P,EleA,3,3_3*%
%TO.N,/SERVO_CH2_PWM*%
X132360000Y-85460000D03*
%TD*%
D14*
%TO.P,TEENSY_3V3,1,1_1*%
%TO.N,/TEENSY_3V3*%
X154000000Y-119000000D03*
%TD*%
D12*
%TO.P,Cha7,1,1_1*%
%TO.N,/+5V_ESC_BEC*%
X95550000Y-90540000D03*
D13*
%TO.P,Cha7,2,2_2*%
%TO.N,/GND*%
X95550000Y-88000000D03*
%TO.P,Cha7,3,3_3*%
%TO.N,/SERVO_CH7_PWM*%
X95550000Y-85460000D03*
%TD*%
%TO.P,U1,3V3,3V3_3V3*%
%TO.N,/TEENSY_3V3*%
X132940000Y-114240000D03*
%TO.P,U1,D0,D0_/_RX1_D0*%
%TO.N,unconnected-(U1-D0_{slash}_RX1-PadD0)*%
X135480000Y-99000000D03*
%TO.P,U1,D1,D1_/_TX1_D1*%
%TO.N,unconnected-(U1-D1_{slash}_TX1-PadD1)*%
X132940000Y-99000000D03*
%TO.P,U1,D2,D2_D2*%
%TO.N,/SERVO_CH1_PWM*%
X130400000Y-99000000D03*
%TO.P,U1,D3,D3_D3*%
%TO.N,/SERVO_CH2_PWM*%
X127860000Y-99000000D03*
%TO.P,U1,D4,D4_D4*%
%TO.N,/SERVO_CH3_PWM*%
X125320000Y-99000000D03*
%TO.P,U1,D5,D5_D5*%
%TO.N,/SERVO_CH4_PWM*%
X122780000Y-99000000D03*
%TO.P,U1,D6,D6_D6*%
%TO.N,/SERVO_CH5_PWM*%
X120240000Y-99000000D03*
%TO.P,U1,D7,D7_D7*%
%TO.N,/SERVO_CH6_PWM*%
X117700000Y-99000000D03*
%TO.P,U1,D8,D8_D8*%
%TO.N,/SERVO_CH7_PWM*%
X115160000Y-99000000D03*
%TO.P,U1,D9,D9_/_DATA_READY_D9*%
%TO.N,/FAST_DATA_READY*%
X112620000Y-99000000D03*
%TO.P,U1,D10,D10_/_CS_D10*%
%TO.N,/FAST_SPI_CS*%
X110080000Y-99000000D03*
%TO.P,U1,D11,D11_/_SPI_SDO_D11*%
%TO.N,/FAST_SPI_MISO_TEENSY_SDO_TO_ESP*%
X107540000Y-99000000D03*
%TO.P,U1,D12,D12_/_SPI_SDI_D12*%
%TO.N,/FAST_SPI_MOSI_ESP_TO_TEENSY_SDI*%
X105000000Y-99000000D03*
%TO.P,U1,D13,D13_/_SCK_/_LED_D13*%
%TO.N,/FAST_SPI_SCK*%
X105000000Y-114240000D03*
%TO.P,U1,D14,D14_/_A0_D14*%
%TO.N,/CRSF_TX_FROM_TEENSY*%
X107540000Y-114240000D03*
%TO.P,U1,D15,D15_/_A1_D15*%
%TO.N,/CRSF_RX_TO_TEENSY*%
X110080000Y-114240000D03*
%TO.P,U1,D16,D16_/_A2_D16*%
%TO.N,/IMU_SCL*%
X112620000Y-114240000D03*
%TO.P,U1,D17,D17_/_A3_D17*%
%TO.N,/IMU_SDA*%
X115160000Y-114240000D03*
%TO.P,U1,D18,D18_/_A4_/_SDA_D18*%
%TO.N,unconnected-(U1-D18_{slash}_A4_{slash}_SDA-PadD18)*%
X117700000Y-114240000D03*
%TO.P,U1,D19,D19_/_A5_/_SCL_D19*%
%TO.N,unconnected-(U1-D19_{slash}_A5_{slash}_SCL-PadD19)*%
X120240000Y-114240000D03*
%TO.P,U1,D20,D20_/_A6_D20*%
%TO.N,/OUTBOARD_RX_FROM_TEENSY_TX*%
X122780000Y-114240000D03*
%TO.P,U1,D21,D21_/_A7_D21*%
%TO.N,/OUTBOARD_TX_TO_TEENSY_RX*%
X125320000Y-114240000D03*
%TO.P,U1,D22,D22_/_A8_D22*%
%TO.N,/BATTERY_VOLTAGE_SENSE*%
X127860000Y-114240000D03*
%TO.P,U1,D23,D23_/_A9_D23*%
%TO.N,/BATTERY_CURRENT_SENSE*%
X130400000Y-114240000D03*
D12*
%TO.P,U1,GND1,GND_GND1*%
%TO.N,/GND*%
X138020000Y-99000000D03*
D13*
%TO.P,U1,GND2,GND_GND2*%
X135480000Y-114240000D03*
%TO.P,U1,VIN,VIN_/_5V_VIN*%
%TO.N,/+5V_LOGIC*%
X138020000Y-114240000D03*
%TD*%
D12*
%TO.P,FlaA,1,1_1*%
%TO.N,/+5V_ESC_BEC*%
X107820000Y-90540000D03*
D13*
%TO.P,FlaA,2,2_2*%
%TO.N,/GND*%
X107820000Y-88000000D03*
%TO.P,FlaA,3,3_3*%
%TO.N,/SERVO_CH5_PWM*%
X107820000Y-85460000D03*
%TD*%
D12*
%TO.P,ThrB,1,1_1*%
%TO.N,/+5V_ESC_BEC*%
X120090000Y-90540000D03*
D13*
%TO.P,ThrB,2,2_2*%
%TO.N,/GND*%
X120090000Y-88000000D03*
%TO.P,ThrB,3,3_3*%
%TO.N,/SERVO_CH3_PWM*%
X120090000Y-85460000D03*
%TD*%
D15*
%TO.P,C6,1,1_1*%
%TO.N,/+5V_LOGIC*%
X109730000Y-126000000D03*
%TO.P,C6,2,2_2*%
%TO.N,/GND*%
X111630000Y-126000000D03*
%TD*%
D16*
%TO.P,U2,1,GPIO1_A0_D0_1*%
%TO.N,/ESP_SD_MISO*%
X80020000Y-114910000D03*
D17*
X80020000Y-114075000D03*
D16*
%TO.P,U2,2,GPIO2_A1_D1_2*%
%TO.N,/ESP_SD_CS*%
X82560000Y-114910000D03*
D17*
X82560000Y-114075000D03*
D16*
%TO.P,U2,3,GPIO3_A2_D2_3*%
%TO.N,unconnected-(U2-GPIO3_A2_D2-Pad3)_1*%
X85100000Y-114910000D03*
D17*
%TO.N,unconnected-(U2-GPIO3_A2_D2-Pad3)*%
X85100000Y-114075000D03*
D16*
%TO.P,U2,4,GPIO4_A3_D3_4*%
%TO.N,unconnected-(U2-GPIO4_A3_D3-Pad4)_1*%
X87640000Y-114910000D03*
D17*
%TO.N,unconnected-(U2-GPIO4_A3_D3-Pad4)*%
X87640000Y-114075000D03*
D16*
%TO.P,U2,5,GPIO5_A4_D4_SDA_5*%
%TO.N,/ESP_SD_SCK*%
X90180000Y-114910000D03*
D17*
X90180000Y-114075000D03*
D16*
%TO.P,U2,6,GPIO6_A5_D5_SCL_6*%
%TO.N,/ESP_SD_MOSI*%
X92720000Y-114910000D03*
D17*
X92720000Y-114075000D03*
D16*
%TO.P,U2,7,GPIO43_D6_TX_7*%
%TO.N,/FAST_DATA_READY*%
X95260000Y-114910000D03*
D17*
X95260000Y-114075000D03*
%TO.P,U2,8,GPIO44_D7_RX_8*%
%TO.N,/FAST_SPI_CS*%
X95260000Y-98835000D03*
D18*
X95260000Y-98000000D03*
D17*
%TO.P,U2,9,GPIO7_A8_D8_SCK_9*%
%TO.N,/FAST_SPI_SCK*%
X92720000Y-98835000D03*
D18*
X92720000Y-98000000D03*
D17*
%TO.P,U2,10,GPIO8_A9_D9_MISO_10*%
%TO.N,/FAST_SPI_MOSI_ESP_TO_TEENSY_SDI*%
X90180000Y-98835000D03*
D18*
X90180000Y-98000000D03*
D17*
%TO.P,U2,11,GPIO9_A10_D10_MOSI_11*%
%TO.N,/FAST_SPI_MISO_TEENSY_SDO_TO_ESP*%
X87640000Y-98835000D03*
D18*
X87640000Y-98000000D03*
D17*
%TO.P,U2,12,3V3_12*%
%TO.N,/ESP_3V3*%
X85100000Y-98835000D03*
D18*
X85100000Y-98000000D03*
D17*
%TO.P,U2,13,GND_13*%
%TO.N,/GND*%
X82560000Y-98835000D03*
D18*
X82560000Y-98000000D03*
D17*
%TO.P,U2,14,VBUS_14*%
%TO.N,/+5V_LOGIC*%
X80020000Y-98835000D03*
D18*
X80020000Y-98000000D03*
%TD*%
D12*
%TO.P,Cha6,1,1_1*%
%TO.N,/+5V_ESC_BEC*%
X99640000Y-90540000D03*
D13*
%TO.P,Cha6,2,2_2*%
%TO.N,/GND*%
X99640000Y-88000000D03*
%TO.P,Cha6,3,3_3*%
%TO.N,/SERVO_CH6_PWM*%
X99640000Y-85460000D03*
%TD*%
D14*
%TO.P,5V_BEC_ESC,1,1_1*%
%TO.N,/+5V_ESC_BEC*%
X146000000Y-96000000D03*
%TD*%
D19*
%TO.P,D1,1,K_1*%
%TO.N,/+5V_LOGIC*%
X161200000Y-85000000D03*
%TO.P,D1,2,A_2*%
%TO.N,/+5V_PM_BEC*%
X156800000Y-85000000D03*
%TD*%
D20*
%TO.P,C4,1,1_1*%
%TO.N,/+5V_LOGIC*%
X104730000Y-122000000D03*
D21*
%TO.P,C4,2,2_2*%
%TO.N,/GND*%
X104730000Y-124000000D03*
%TD*%
D12*
%TO.P,EleB,1,1_1*%
%TO.N,/+5V_ESC_BEC*%
X128270000Y-90540000D03*
D13*
%TO.P,EleB,2,2_2*%
%TO.N,/GND*%
X128270000Y-88000000D03*
%TO.P,EleB,3,3_3*%
%TO.N,/SERVO_CH2_PWM*%
X128270000Y-85460000D03*
%TD*%
D22*
%TO.P,C2,1,1_1*%
%TO.N,/+5V_ESC_BEC*%
X154000000Y-89550000D03*
%TO.P,C2,2,2_2*%
%TO.N,/GND*%
X154000000Y-87650000D03*
%TD*%
D12*
%TO.P,AilB,1,1_1*%
%TO.N,/+5V_ESC_BEC*%
X136450000Y-90540000D03*
D13*
%TO.P,AilB,2,2_2*%
%TO.N,/GND*%
X136450000Y-88000000D03*
%TO.P,AilB,3,3_3*%
%TO.N,/SERVO_CH1_PWM*%
X136450000Y-85460000D03*
%TD*%
D12*
%TO.P,FlaB,1,1_1*%
%TO.N,/+5V_ESC_BEC*%
X103730000Y-90540000D03*
D13*
%TO.P,FlaB,2,2_2*%
%TO.N,/GND*%
X103730000Y-88000000D03*
%TO.P,FlaB,3,3_3*%
%TO.N,/SERVO_CH5_PWM*%
X103730000Y-85460000D03*
%TD*%
D14*
%TO.P,5V_LOGIC,1,1_1*%
%TO.N,/+5V_LOGIC*%
X159730000Y-113270000D03*
%TD*%
D19*
%TO.P,D2,1,K_1*%
%TO.N,/+5V_LOGIC*%
X161200000Y-89000000D03*
%TO.P,D2,2,A_2*%
%TO.N,/+5V_ESC_BEC*%
X156800000Y-89000000D03*
%TD*%
D22*
%TO.P,C3,1,1_1*%
%TO.N,/+5V_ESC_BEC*%
X151000000Y-89550000D03*
%TO.P,C3,2,2_2*%
%TO.N,/GND*%
X151000000Y-87650000D03*
%TD*%
D12*
%TO.P,ThrA,1,1_1*%
%TO.N,/+5V_ESC_BEC*%
X124180000Y-90540000D03*
D13*
%TO.P,ThrA,2,2_2*%
%TO.N,/GND*%
X124180000Y-88000000D03*
%TO.P,ThrA,3,3_3*%
%TO.N,/SERVO_CH3_PWM*%
X124180000Y-85460000D03*
%TD*%
D15*
%TO.P,C5,1,1_1*%
%TO.N,/+5V_LOGIC*%
X109730000Y-123000000D03*
%TO.P,C5,2,2_2*%
%TO.N,/GND*%
X111630000Y-123000000D03*
%TD*%
D12*
%TO.P,AilA,1,1_1*%
%TO.N,/+5V_ESC_BEC*%
X140540000Y-90540000D03*
D13*
%TO.P,AilA,2,2_2*%
%TO.N,/GND*%
X140540000Y-88000000D03*
%TO.P,AilA,3,3_3*%
%TO.N,/SERVO_CH1_PWM*%
X140540000Y-85460000D03*
%TD*%
D12*
%TO.P,RudA,1,1_1*%
%TO.N,/+5V_ESC_BEC*%
X116000000Y-90540000D03*
D13*
%TO.P,RudA,2,2_2*%
%TO.N,/GND*%
X116000000Y-88000000D03*
%TO.P,RudA,3,3_3*%
%TO.N,/SERVO_CH4_PWM*%
X116000000Y-85460000D03*
%TD*%
D23*
%TO.P,C1,1,1_1*%
%TO.N,/+5V_ESC_BEC*%
X146270000Y-89540000D03*
D21*
%TO.P,C1,2,2_2*%
%TO.N,/GND*%
X146270000Y-87540000D03*
%TD*%
D12*
%TO.P,RudB,1,1_1*%
%TO.N,/+5V_ESC_BEC*%
X111910000Y-90540000D03*
D13*
%TO.P,RudB,2,2_2*%
%TO.N,/GND*%
X111910000Y-88000000D03*
%TO.P,RudB,3,3_3*%
%TO.N,/SERVO_CH4_PWM*%
X111910000Y-85460000D03*
%TD*%
D23*
%TO.P,C8,1*%
%TO.N,/+5V_ESC_BEC*%
X87270000Y-90192651D03*
D21*
%TO.P,C8,2*%
%TO.N,/GND*%
X87270000Y-86692651D03*
%TD*%
D12*
%TO.P,J1,1,1_1*%
%TO.N,/+5V_PM_BEC*%
X165000000Y-85190000D03*
D13*
%TO.P,J1,2,2_2*%
%TO.N,/GND*%
X165000000Y-87730000D03*
%TO.P,J1,3,3_3*%
%TO.N,/BATTERY_VOLTAGE_SENSE*%
X165000000Y-90270000D03*
%TO.P,J1,4,4_4*%
%TO.N,/BATTERY_CURRENT_SENSE*%
X165000000Y-92810000D03*
%TD*%
D14*
%TO.P,ESP_3V3,1,1_1*%
%TO.N,/ESP_3V3*%
X80000000Y-93000000D03*
%TD*%
D12*
%TO.P,J4,1,1_1*%
%TO.N,/+5V_LOGIC*%
X118190000Y-123000000D03*
D13*
%TO.P,J4,2,2_2*%
%TO.N,/GND*%
X120730000Y-123000000D03*
%TO.P,J4,3,3_3*%
%TO.N,/CRSF_RX_TO_TEENSY*%
X123270000Y-123000000D03*
%TO.P,J4,4,4_4*%
%TO.N,/CRSF_TX_FROM_TEENSY*%
X125810000Y-123000000D03*
%TD*%
D24*
%TO.N,/GND*%
X131000000Y-93000000D03*
X113000000Y-107000000D03*
X122000000Y-93000000D03*
X143000000Y-93000000D03*
X140000000Y-96000000D03*
X91000000Y-85000000D03*
X154000000Y-83000000D03*
X150000000Y-86000000D03*
X106000000Y-93000000D03*
X152000000Y-95000000D03*
X94000000Y-93000000D03*
X98000000Y-125000000D03*
X107000000Y-126000000D03*
X83000000Y-102000000D03*
X84000000Y-126000000D03*
X135000000Y-112000000D03*
X144000000Y-85000000D03*
X120000000Y-121000000D03*
X185000000Y-88000000D03*
X168000000Y-88000000D03*
X135000000Y-121000000D03*
D25*
%TO.N,/+5V_LOGIC*%
X163000000Y-85000000D03*
X108000000Y-124000000D03*
D24*
%TO.N,/IMU_SDA*%
X160000000Y-102000000D03*
%TO.N,/IMU_SCL*%
X144000000Y-108000000D03*
X152000000Y-108000000D03*
X168000000Y-96000000D03*
%TD*%
%TO.N,/+5V_LOGIC*%
D26*
X159730000Y-113730000D02*
X159730000Y-113270000D01*
X161000000Y-115000000D02*
X159730000Y-113730000D01*
X133000000Y-125000000D02*
X161000000Y-125000000D01*
X161000000Y-125000000D02*
X161000000Y-115000000D01*
X132650000Y-123000000D02*
X132650000Y-124650000D01*
X132650000Y-124650000D02*
X133000000Y-125000000D01*
%TO.N,/+5V_ESC_BEC*%
D27*
X107820000Y-90540000D02*
X111910000Y-90540000D01*
X146270000Y-89540000D02*
X146000000Y-89810000D01*
X146000000Y-89810000D02*
X146000000Y-96000000D01*
X95550000Y-90540000D02*
X99640000Y-90540000D01*
X120090000Y-90540000D02*
X124180000Y-90540000D01*
X128270000Y-90540000D02*
X132360000Y-90540000D01*
X145270000Y-90540000D02*
X146270000Y-89540000D01*
X116000000Y-90540000D02*
X120090000Y-90540000D01*
X154000000Y-89550000D02*
X156250000Y-89550000D01*
X150990000Y-89540000D02*
X151000000Y-89550000D01*
X151000000Y-89550000D02*
X154000000Y-89550000D01*
X95202651Y-90192651D02*
X95550000Y-90540000D01*
X146270000Y-89540000D02*
X150990000Y-89540000D01*
X156250000Y-89550000D02*
X156800000Y-89000000D01*
X87270000Y-90192651D02*
X95202651Y-90192651D01*
X103730000Y-90540000D02*
X107820000Y-90540000D01*
X136450000Y-90540000D02*
X140540000Y-90540000D01*
X99640000Y-90540000D02*
X103730000Y-90540000D01*
X111910000Y-90540000D02*
X116000000Y-90540000D01*
X140540000Y-90540000D02*
X145270000Y-90540000D01*
X132360000Y-90540000D02*
X136450000Y-90540000D01*
X124180000Y-90540000D02*
X128270000Y-90540000D01*
%TO.N,/+5V_LOGIC*%
D26*
X108000000Y-124000000D02*
X108730000Y-124000000D01*
X109730000Y-126000000D02*
X109730000Y-123000000D01*
X119000000Y-125000000D02*
X130650000Y-125000000D01*
X108730000Y-124000000D02*
X109730000Y-123000000D01*
X158760000Y-114240000D02*
X159730000Y-113270000D01*
X118190000Y-124190000D02*
X119000000Y-125000000D01*
X118190000Y-123000000D02*
X118190000Y-124190000D01*
X163000000Y-85000000D02*
X161200000Y-85000000D01*
X130650000Y-125000000D02*
X132650000Y-123000000D01*
X161200000Y-85000000D02*
X161200000Y-89000000D01*
X138020000Y-114240000D02*
X158760000Y-114240000D01*
X161200000Y-89000000D02*
X161200000Y-111800000D01*
X161200000Y-111800000D02*
X159730000Y-113270000D01*
%TO.N,/ESP_SD_CS*%
D28*
X82560000Y-115075000D02*
X82560000Y-119910000D01*
X82560000Y-119910000D02*
X85650000Y-123000000D01*
%TO.N,/ESP_SD_MOSI*%
X92720000Y-121010000D02*
X90730000Y-123000000D01*
X92720000Y-115075000D02*
X92720000Y-121010000D01*
%TO.N,/ESP_SD_SCK*%
X90180000Y-115075000D02*
X90180000Y-121010000D01*
X90180000Y-121010000D02*
X88190000Y-123000000D01*
%TO.N,/IMU_SDA*%
X121000000Y-107000000D02*
X155000000Y-107000000D01*
X115160000Y-112840000D02*
X121000000Y-107000000D01*
X115160000Y-114240000D02*
X115160000Y-112840000D01*
X155000000Y-107000000D02*
X160000000Y-102000000D01*
%TO.N,/IMU_SCL*%
X168000000Y-92000000D02*
X169000000Y-91000000D01*
X168000000Y-96000000D02*
X168000000Y-92000000D01*
X182000000Y-85270000D02*
X182270000Y-85000000D01*
X169000000Y-91000000D02*
X180000000Y-91000000D01*
X144000000Y-108000000D02*
X152000000Y-108000000D01*
X182000000Y-89000000D02*
X182000000Y-85270000D01*
X180000000Y-91000000D02*
X182000000Y-89000000D01*
%TO.N,/CRSF_RX_TO_TEENSY*%
X120000000Y-118000000D02*
X123270000Y-121270000D01*
X112000000Y-118000000D02*
X120000000Y-118000000D01*
X123270000Y-121270000D02*
X123270000Y-123000000D01*
X110080000Y-116080000D02*
X112000000Y-118000000D01*
X110080000Y-114240000D02*
X110080000Y-116080000D01*
%TO.N,/OUTBOARD_RX_FROM_TEENSY_TX*%
X122780000Y-114780000D02*
X125000000Y-117000000D01*
X140000000Y-118000000D02*
X140000000Y-122730000D01*
X140000000Y-122730000D02*
X140270000Y-123000000D01*
X125000000Y-117000000D02*
X139000000Y-117000000D01*
X139000000Y-117000000D02*
X140000000Y-118000000D01*
X122780000Y-114240000D02*
X122780000Y-114780000D01*
%TO.N,/ESP_3V3*%
X85100000Y-96100000D02*
X85100000Y-99000000D01*
X82000000Y-93000000D02*
X85100000Y-96100000D01*
X80000000Y-93000000D02*
X82000000Y-93000000D01*
%TO.N,/FAST_SPI_MOSI_ESP_TO_TEENSY_SDI*%
X102000000Y-102000000D02*
X93180000Y-102000000D01*
X93180000Y-102000000D02*
X90180000Y-99000000D01*
X105000000Y-99000000D02*
X102000000Y-102000000D01*
%TO.N,/FAST_DATA_READY*%
X112620000Y-100380000D02*
X98760000Y-114240000D01*
X98760000Y-114240000D02*
X95260000Y-114240000D01*
X112620000Y-99000000D02*
X112620000Y-100380000D01*
%TO.N,/FAST_SPI_MISO_TEENSY_SDO_TO_ESP*%
X107540000Y-99000000D02*
X107540000Y-99460000D01*
X104000000Y-103000000D02*
X91640000Y-103000000D01*
X91640000Y-103000000D02*
X87640000Y-99000000D01*
X107540000Y-99460000D02*
X104000000Y-103000000D01*
%TO.N,/+5V_PM_BEC*%
D26*
X157000000Y-84800000D02*
X157000000Y-84000000D01*
X156800000Y-85000000D02*
X154075000Y-85000000D01*
X158000000Y-83000000D02*
X164000000Y-83000000D01*
D28*
X153887500Y-84350000D02*
X153887500Y-85000000D01*
D26*
X165000000Y-85190000D02*
X165000000Y-84000000D01*
D29*
X153887500Y-84350000D02*
X153887500Y-85650000D01*
D26*
X157000000Y-84000000D02*
X158000000Y-83000000D01*
X156800000Y-85000000D02*
X157000000Y-84800000D01*
X165000000Y-84000000D02*
X164000000Y-83000000D01*
D28*
X153887500Y-85650000D02*
X153887500Y-85000000D01*
%TD*%
%TA.AperFunction,Conductor*%
%TO.N,/GND*%
G36*
X121845270Y-123761717D02*
G01*
X121845270Y-123761716D01*
X121884622Y-123707555D01*
X121889232Y-123698507D01*
X121937205Y-123647709D01*
X122005025Y-123630912D01*
X122071161Y-123653447D01*
X122110204Y-123698504D01*
X122114949Y-123707817D01*
X122239890Y-123879786D01*
X122272923Y-123912819D01*
X122306408Y-123974142D01*
X122301424Y-124043834D01*
X122259552Y-124099767D01*
X122194088Y-124124184D01*
X122185242Y-124124500D01*
X121552308Y-124124500D01*
X121485269Y-124104815D01*
X121464627Y-124088181D01*
X120859408Y-123482962D01*
X120922993Y-123465925D01*
X121037007Y-123400099D01*
X121130099Y-123307007D01*
X121195925Y-123192993D01*
X121212962Y-123129408D01*
X121845270Y-123761717D01*
G37*
%TD.AperFunction*%
%TA.AperFunction,Conductor*%
G36*
X121527226Y-114875524D02*
G01*
X121539810Y-114874985D01*
X121559674Y-114886581D01*
X121581444Y-114893999D01*
X121590719Y-114904703D01*
X121600151Y-114910209D01*
X121620486Y-114939056D01*
X121624951Y-114947820D01*
X121749890Y-115119786D01*
X121900213Y-115270109D01*
X122072179Y-115395048D01*
X122072181Y-115395049D01*
X122072184Y-115395051D01*
X122261588Y-115491557D01*
X122463757Y-115557246D01*
X122673713Y-115590500D01*
X122689903Y-115590500D01*
X122756942Y-115610185D01*
X122777584Y-115626819D01*
X124515139Y-117364374D01*
X124515149Y-117364385D01*
X124519479Y-117368715D01*
X124519480Y-117368716D01*
X124631284Y-117480520D01*
X124698767Y-117519481D01*
X124768215Y-117559577D01*
X124920943Y-117600500D01*
X138699903Y-117600500D01*
X138766942Y-117620185D01*
X138787584Y-117636819D01*
X139363181Y-118212416D01*
X139396666Y-118273739D01*
X139399500Y-118300097D01*
X139399500Y-121909242D01*
X139379815Y-121976281D01*
X139363181Y-121996923D01*
X139239894Y-122120209D01*
X139239890Y-122120213D01*
X139114949Y-122292182D01*
X139110484Y-122300946D01*
X139062509Y-122351742D01*
X138994688Y-122368536D01*
X138928553Y-122345998D01*
X138889516Y-122300946D01*
X138885050Y-122292182D01*
X138760109Y-122120213D01*
X138609786Y-121969890D01*
X138437820Y-121844951D01*
X138248414Y-121748444D01*
X138248413Y-121748443D01*
X138248412Y-121748443D01*
X138046243Y-121682754D01*
X138046241Y-121682753D01*
X138046240Y-121682753D01*
X137884957Y-121657208D01*
X137836287Y-121649500D01*
X137623713Y-121649500D01*
X137575042Y-121657208D01*
X137413760Y-121682753D01*
X137211585Y-121748444D01*
X137022179Y-121844951D01*
X136850213Y-121969890D01*
X136699890Y-122120213D01*
X136574949Y-122292182D01*
X136570202Y-122301499D01*
X136522227Y-122352293D01*
X136454405Y-122369087D01*
X136388271Y-122346548D01*
X136349234Y-122301495D01*
X136344626Y-122292452D01*
X136305270Y-122238282D01*
X136305269Y-122238282D01*
X135672962Y-122870590D01*
X135655925Y-122807007D01*
X135590099Y-122692993D01*
X135497007Y-122599901D01*
X135382993Y-122534075D01*
X135319409Y-122517037D01*
X135951716Y-121884728D01*
X135897550Y-121845375D01*
X135708217Y-121748904D01*
X135506129Y-121683242D01*
X135296246Y-121650000D01*
X135083754Y-121650000D01*
X134873872Y-121683242D01*
X134873869Y-121683242D01*
X134671782Y-121748904D01*
X134482439Y-121845380D01*
X134428282Y-121884727D01*
X134428282Y-121884728D01*
X135060591Y-122517037D01*
X134997007Y-122534075D01*
X134882993Y-122599901D01*
X134789901Y-122692993D01*
X134724075Y-122807007D01*
X134707037Y-122870591D01*
X134036818Y-122200372D01*
X134003333Y-122139049D01*
X134003330Y-122139036D01*
X134000499Y-122126015D01*
X134000499Y-122102128D01*
X133994091Y-122042517D01*
X133952979Y-121932289D01*
X133943798Y-121907673D01*
X133943793Y-121907664D01*
X133857547Y-121792455D01*
X133857544Y-121792452D01*
X133742335Y-121706206D01*
X133742328Y-121706202D01*
X133607482Y-121655908D01*
X133607483Y-121655908D01*
X133547883Y-121649501D01*
X133547881Y-121649500D01*
X133547873Y-121649500D01*
X133547864Y-121649500D01*
X131752129Y-121649500D01*
X131752123Y-121649501D01*
X131692516Y-121655908D01*
X131557671Y-121706202D01*
X131557664Y-121706206D01*
X131442455Y-121792452D01*
X131442452Y-121792455D01*
X131356206Y-121907664D01*
X131356202Y-121907671D01*
X131305908Y-122042517D01*
X131299501Y-122102116D01*
X131299500Y-122102135D01*
X131299500Y-123060993D01*
X131279815Y-123128032D01*
X131263181Y-123148674D01*
X130323675Y-124088181D01*
X130262352Y-124121666D01*
X130235994Y-124124500D01*
X126894758Y-124124500D01*
X126827719Y-124104815D01*
X126781964Y-124052011D01*
X126772020Y-123982853D01*
X126801045Y-123919297D01*
X126807077Y-123912819D01*
X126822214Y-123897682D01*
X126840104Y-123879792D01*
X126840106Y-123879788D01*
X126840109Y-123879786D01*
X126965048Y-123707820D01*
X126965047Y-123707820D01*
X126965051Y-123707816D01*
X127061557Y-123518412D01*
X127127246Y-123316243D01*
X127160500Y-123106287D01*
X127160500Y-122893713D01*
X127127246Y-122683757D01*
X127061557Y-122481588D01*
X126965051Y-122292184D01*
X126965049Y-122292181D01*
X126965048Y-122292179D01*
X126840109Y-122120213D01*
X126689786Y-121969890D01*
X126517820Y-121844951D01*
X126328414Y-121748444D01*
X126328413Y-121748443D01*
X126328412Y-121748443D01*
X126126243Y-121682754D01*
X126126241Y-121682753D01*
X126126240Y-121682753D01*
X125964957Y-121657208D01*
X125916287Y-121649500D01*
X125703713Y-121649500D01*
X125655042Y-121657208D01*
X125493760Y-121682753D01*
X125291585Y-121748444D01*
X125102179Y-121844951D01*
X124930213Y-121969890D01*
X124779890Y-122120213D01*
X124654949Y-122292182D01*
X124650484Y-122300946D01*
X124602509Y-122351742D01*
X124534688Y-122368536D01*
X124468553Y-122345998D01*
X124429516Y-122300946D01*
X124425050Y-122292182D01*
X124300109Y-122120213D01*
X124149786Y-121969890D01*
X123977815Y-121844948D01*
X123977814Y-121844947D01*
X123938205Y-121824765D01*
X123887409Y-121776791D01*
X123870500Y-121714281D01*
X123870500Y-121190945D01*
X123870500Y-121190943D01*
X123829577Y-121038216D01*
X123796741Y-120981342D01*
X123750524Y-120901290D01*
X123750521Y-120901286D01*
X123750520Y-120901284D01*
X123638716Y-120789480D01*
X123638715Y-120789479D01*
X123634385Y-120785149D01*
X123634374Y-120785139D01*
X120487590Y-117638355D01*
X120487588Y-117638352D01*
X120368716Y-117519480D01*
X120368714Y-117519479D01*
X120281904Y-117469360D01*
X120281904Y-117469359D01*
X120281900Y-117469358D01*
X120231785Y-117440423D01*
X120079057Y-117399499D01*
X119920943Y-117399499D01*
X119913347Y-117399499D01*
X119913331Y-117399500D01*
X112300097Y-117399500D01*
X112233058Y-117379815D01*
X112212416Y-117363181D01*
X110716819Y-115867584D01*
X110683334Y-115806261D01*
X110680500Y-115779903D01*
X110680500Y-115525718D01*
X110700185Y-115458679D01*
X110748207Y-115415233D01*
X110787815Y-115395052D01*
X110787815Y-115395051D01*
X110787816Y-115395051D01*
X110890670Y-115320324D01*
X110959786Y-115270109D01*
X110959788Y-115270106D01*
X110959792Y-115270104D01*
X111110104Y-115119792D01*
X111110106Y-115119788D01*
X111110109Y-115119786D01*
X111235048Y-114947820D01*
X111235047Y-114947820D01*
X111235051Y-114947816D01*
X111239514Y-114939054D01*
X111287488Y-114888259D01*
X111355308Y-114871463D01*
X111421444Y-114893999D01*
X111460486Y-114939056D01*
X111464951Y-114947820D01*
X111589890Y-115119786D01*
X111740213Y-115270109D01*
X111912179Y-115395048D01*
X111912181Y-115395049D01*
X111912184Y-115395051D01*
X112101588Y-115491557D01*
X112303757Y-115557246D01*
X112513713Y-115590500D01*
X112513714Y-115590500D01*
X112726286Y-115590500D01*
X112726287Y-115590500D01*
X112936243Y-115557246D01*
X113138412Y-115491557D01*
X113327816Y-115395051D01*
X113382572Y-115355269D01*
X113499786Y-115270109D01*
X113499788Y-115270106D01*
X113499792Y-115270104D01*
X113650104Y-115119792D01*
X113650106Y-115119788D01*
X113650109Y-115119786D01*
X113775048Y-114947820D01*
X113775047Y-114947820D01*
X113775051Y-114947816D01*
X113779514Y-114939054D01*
X113827488Y-114888259D01*
X113895308Y-114871463D01*
X113961444Y-114893999D01*
X114000486Y-114939056D01*
X114004951Y-114947820D01*
X114129890Y-115119786D01*
X114280213Y-115270109D01*
X114452179Y-115395048D01*
X114452181Y-115395049D01*
X114452184Y-115395051D01*
X114641588Y-115491557D01*
X114843757Y-115557246D01*
X115053713Y-115590500D01*
X115053714Y-115590500D01*
X115266286Y-115590500D01*
X115266287Y-115590500D01*
X115476243Y-115557246D01*
X115678412Y-115491557D01*
X115867816Y-115395051D01*
X115922572Y-115355269D01*
X116039786Y-115270109D01*
X116039788Y-115270106D01*
X116039792Y-115270104D01*
X116190104Y-115119792D01*
X116190106Y-115119788D01*
X116190109Y-115119786D01*
X116315048Y-114947820D01*
X116315047Y-114947820D01*
X116315051Y-114947816D01*
X116319514Y-114939054D01*
X116367488Y-114888259D01*
X116435308Y-114871463D01*
X116501444Y-114893999D01*
X116540486Y-114939056D01*
X116544951Y-114947820D01*
X116669890Y-115119786D01*
X116820213Y-115270109D01*
X116992179Y-115395048D01*
X116992181Y-115395049D01*
X116992184Y-115395051D01*
X117181588Y-115491557D01*
X117383757Y-115557246D01*
X117593713Y-115590500D01*
X117593714Y-115590500D01*
X117806286Y-115590500D01*
X117806287Y-115590500D01*
X118016243Y-115557246D01*
X118218412Y-115491557D01*
X118407816Y-115395051D01*
X118462572Y-115355269D01*
X118579786Y-115270109D01*
X118579788Y-115270106D01*
X118579792Y-115270104D01*
X118730104Y-115119792D01*
X118730106Y-115119788D01*
X118730109Y-115119786D01*
X118855048Y-114947820D01*
X118855047Y-114947820D01*
X118855051Y-114947816D01*
X118859514Y-114939054D01*
X118907488Y-114888259D01*
X118975308Y-114871463D01*
X119041444Y-114893999D01*
X119080486Y-114939056D01*
X119084951Y-114947820D01*
X119209890Y-115119786D01*
X119360213Y-115270109D01*
X119532179Y-115395048D01*
X119532181Y-115395049D01*
X119532184Y-115395051D01*
X119721588Y-115491557D01*
X119923757Y-115557246D01*
X120133713Y-115590500D01*
X120133714Y-115590500D01*
X120346286Y-115590500D01*
X120346287Y-115590500D01*
X120556243Y-115557246D01*
X120758412Y-115491557D01*
X120947816Y-115395051D01*
X121002572Y-115355269D01*
X121119786Y-115270109D01*
X121119788Y-115270106D01*
X121119792Y-115270104D01*
X121270104Y-115119792D01*
X121270106Y-115119788D01*
X121270109Y-115119786D01*
X121395048Y-114947820D01*
X121395047Y-114947820D01*
X121395051Y-114947816D01*
X121399514Y-114939054D01*
X121408160Y-114929900D01*
X121412897Y-114918232D01*
X121431696Y-114904979D01*
X121447488Y-114888259D01*
X121459710Y-114885231D01*
X121470004Y-114877976D01*
X121492985Y-114876991D01*
X121515308Y-114871463D01*
X121527226Y-114875524D01*
G37*
%TD.AperFunction*%
%TA.AperFunction,Conductor*%
G36*
X136305270Y-123761717D02*
G01*
X136305270Y-123761716D01*
X136344622Y-123707555D01*
X136349232Y-123698507D01*
X136397205Y-123647709D01*
X136465025Y-123630912D01*
X136531161Y-123653447D01*
X136570204Y-123698504D01*
X136574949Y-123707817D01*
X136699890Y-123879786D01*
X136732923Y-123912819D01*
X136766408Y-123974142D01*
X136761424Y-124043834D01*
X136719552Y-124099767D01*
X136654088Y-124124184D01*
X136645242Y-124124500D01*
X136012308Y-124124500D01*
X135945269Y-124104815D01*
X135924627Y-124088181D01*
X135319408Y-123482962D01*
X135382993Y-123465925D01*
X135497007Y-123400099D01*
X135590099Y-123307007D01*
X135655925Y-123192993D01*
X135672962Y-123129408D01*
X136305270Y-123761717D01*
G37*
%TD.AperFunction*%
%TA.AperFunction,Conductor*%
G36*
X136595270Y-115001717D02*
G01*
X136595270Y-115001716D01*
X136634622Y-114947555D01*
X136639232Y-114938507D01*
X136687205Y-114887709D01*
X136755025Y-114870912D01*
X136821161Y-114893447D01*
X136860204Y-114938504D01*
X136864949Y-114947817D01*
X136989890Y-115119786D01*
X137140213Y-115270109D01*
X137312179Y-115395048D01*
X137312181Y-115395049D01*
X137312184Y-115395051D01*
X137501588Y-115491557D01*
X137703757Y-115557246D01*
X137913713Y-115590500D01*
X137913714Y-115590500D01*
X138126286Y-115590500D01*
X138126287Y-115590500D01*
X138336243Y-115557246D01*
X138538412Y-115491557D01*
X138727816Y-115395051D01*
X138782572Y-115355269D01*
X138899786Y-115270109D01*
X138899788Y-115270106D01*
X138899792Y-115270104D01*
X139018077Y-115151819D01*
X139079400Y-115118334D01*
X139105758Y-115115500D01*
X158846231Y-115115500D01*
X158846232Y-115115499D01*
X159015374Y-115081855D01*
X159174705Y-115015858D01*
X159318099Y-114920045D01*
X159412320Y-114825823D01*
X159473641Y-114792340D01*
X159543333Y-114797324D01*
X159587681Y-114825825D01*
X160088181Y-115326325D01*
X160121666Y-115387648D01*
X160124500Y-115414006D01*
X160124500Y-124000500D01*
X160104815Y-124067539D01*
X160052011Y-124113294D01*
X160000500Y-124124500D01*
X146434758Y-124124500D01*
X146367719Y-124104815D01*
X146321964Y-124052011D01*
X146312020Y-123982853D01*
X146341045Y-123919297D01*
X146347077Y-123912819D01*
X146362214Y-123897682D01*
X146380104Y-123879792D01*
X146380106Y-123879788D01*
X146380109Y-123879786D01*
X146505048Y-123707820D01*
X146505047Y-123707820D01*
X146505051Y-123707816D01*
X146601557Y-123518412D01*
X146667246Y-123316243D01*
X146700500Y-123106287D01*
X146700500Y-122893713D01*
X146667246Y-122683757D01*
X146601557Y-122481588D01*
X146505051Y-122292184D01*
X146505049Y-122292181D01*
X146505048Y-122292179D01*
X146380109Y-122120213D01*
X146229786Y-121969890D01*
X146057820Y-121844951D01*
X145868414Y-121748444D01*
X145868413Y-121748443D01*
X145868412Y-121748443D01*
X145666243Y-121682754D01*
X145666241Y-121682753D01*
X145666240Y-121682753D01*
X145504957Y-121657208D01*
X145456287Y-121649500D01*
X145243713Y-121649500D01*
X145195042Y-121657208D01*
X145033760Y-121682753D01*
X144831585Y-121748444D01*
X144642179Y-121844951D01*
X144470213Y-121969890D01*
X144319890Y-122120213D01*
X144194949Y-122292182D01*
X144190484Y-122300946D01*
X144142509Y-122351742D01*
X144074688Y-122368536D01*
X144008553Y-122345998D01*
X143969516Y-122300946D01*
X143965050Y-122292182D01*
X143840109Y-122120213D01*
X143689786Y-121969890D01*
X143517820Y-121844951D01*
X143328414Y-121748444D01*
X143328413Y-121748443D01*
X143328412Y-121748443D01*
X143126243Y-121682754D01*
X143126241Y-121682753D01*
X143126240Y-121682753D01*
X142964957Y-121657208D01*
X142916287Y-121649500D01*
X142703713Y-121649500D01*
X142655042Y-121657208D01*
X142493760Y-121682753D01*
X142291585Y-121748444D01*
X142102179Y-121844951D01*
X141930213Y-121969890D01*
X141779890Y-122120213D01*
X141654949Y-122292182D01*
X141650484Y-122300946D01*
X141602509Y-122351742D01*
X141534688Y-122368536D01*
X141468553Y-122345998D01*
X141429516Y-122300946D01*
X141425050Y-122292182D01*
X141300109Y-122120213D01*
X141149786Y-121969890D01*
X140977820Y-121844951D01*
X140788416Y-121748444D01*
X140700791Y-121719973D01*
X140686180Y-121715225D01*
X140628506Y-121675788D01*
X140601308Y-121611429D01*
X140600500Y-121597295D01*
X140600500Y-120043677D01*
X149309873Y-120043677D01*
X149309873Y-120043678D01*
X149344858Y-120069096D01*
X149520164Y-120158418D01*
X149707294Y-120219221D01*
X149901618Y-120250000D01*
X150098382Y-120250000D01*
X150292705Y-120219221D01*
X150479835Y-120158418D01*
X150655143Y-120069095D01*
X150690125Y-120043678D01*
X150690126Y-120043678D01*
X150000001Y-119353553D01*
X150000000Y-119353553D01*
X149309873Y-120043677D01*
X140600500Y-120043677D01*
X140600500Y-118901617D01*
X148750000Y-118901617D01*
X148750000Y-119098382D01*
X148780778Y-119292705D01*
X148841581Y-119479835D01*
X148930905Y-119655145D01*
X148956319Y-119690125D01*
X148956320Y-119690125D01*
X149646446Y-119000000D01*
X149646446Y-118999999D01*
X149600369Y-118953922D01*
X149650000Y-118953922D01*
X149650000Y-119046078D01*
X149673852Y-119135095D01*
X149719930Y-119214905D01*
X149785095Y-119280070D01*
X149864905Y-119326148D01*
X149953922Y-119350000D01*
X150046078Y-119350000D01*
X150135095Y-119326148D01*
X150214905Y-119280070D01*
X150280070Y-119214905D01*
X150326148Y-119135095D01*
X150350000Y-119046078D01*
X150350000Y-118999999D01*
X150353553Y-118999999D01*
X150353553Y-119000001D01*
X151043678Y-119690126D01*
X151043678Y-119690125D01*
X151069095Y-119655143D01*
X151158418Y-119479835D01*
X151219221Y-119292705D01*
X151250000Y-119098382D01*
X151250000Y-118901617D01*
X151249994Y-118901577D01*
X152749500Y-118901577D01*
X152749500Y-119098422D01*
X152780290Y-119292826D01*
X152841117Y-119480029D01*
X152920722Y-119636261D01*
X152930476Y-119655405D01*
X153046172Y-119814646D01*
X153185354Y-119953828D01*
X153344595Y-120069524D01*
X153427455Y-120111743D01*
X153519970Y-120158882D01*
X153519972Y-120158882D01*
X153519975Y-120158884D01*
X153620317Y-120191487D01*
X153707173Y-120219709D01*
X153901578Y-120250500D01*
X153901583Y-120250500D01*
X154098422Y-120250500D01*
X154292826Y-120219709D01*
X154378400Y-120191904D01*
X154480025Y-120158884D01*
X154655405Y-120069524D01*
X154814646Y-119953828D01*
X154953828Y-119814646D01*
X155069524Y-119655405D01*
X155158884Y-119480025D01*
X155219709Y-119292826D01*
X155221729Y-119280070D01*
X155250500Y-119098422D01*
X155250500Y-118901577D01*
X155219709Y-118707173D01*
X155185048Y-118600500D01*
X155158884Y-118519975D01*
X155158882Y-118519972D01*
X155158882Y-118519970D01*
X155081814Y-118368716D01*
X155069524Y-118344595D01*
X154953828Y-118185354D01*
X154814646Y-118046172D01*
X154655405Y-117930476D01*
X154636697Y-117920944D01*
X154480029Y-117841117D01*
X154292826Y-117780290D01*
X154098422Y-117749500D01*
X154098417Y-117749500D01*
X153901583Y-117749500D01*
X153901578Y-117749500D01*
X153707173Y-117780290D01*
X153519970Y-117841117D01*
X153344594Y-117930476D01*
X153253741Y-117996485D01*
X153185354Y-118046172D01*
X153185352Y-118046174D01*
X153185351Y-118046174D01*
X153046174Y-118185351D01*
X153046174Y-118185352D01*
X153046172Y-118185354D01*
X153000123Y-118248735D01*
X152930476Y-118344594D01*
X152841117Y-118519970D01*
X152780290Y-118707173D01*
X152749500Y-118901577D01*
X151249994Y-118901577D01*
X151219221Y-118707294D01*
X151158418Y-118520164D01*
X151069096Y-118344858D01*
X151043678Y-118309873D01*
X151043677Y-118309873D01*
X150353553Y-118999999D01*
X150350000Y-118999999D01*
X150350000Y-118953922D01*
X150326148Y-118864905D01*
X150280070Y-118785095D01*
X150214905Y-118719930D01*
X150135095Y-118673852D01*
X150046078Y-118650000D01*
X149953922Y-118650000D01*
X149864905Y-118673852D01*
X149785095Y-118719930D01*
X149719930Y-118785095D01*
X149673852Y-118864905D01*
X149650000Y-118953922D01*
X149600369Y-118953922D01*
X148956320Y-118309872D01*
X148956320Y-118309873D01*
X148930902Y-118344859D01*
X148930899Y-118344863D01*
X148841582Y-118520161D01*
X148780778Y-118707294D01*
X148750000Y-118901617D01*
X140600500Y-118901617D01*
X140600500Y-118089059D01*
X140600500Y-118079060D01*
X140600501Y-118079058D01*
X140600501Y-117956320D01*
X149309872Y-117956320D01*
X150000000Y-118646446D01*
X150000001Y-118646446D01*
X150690125Y-117956320D01*
X150690125Y-117956319D01*
X150655145Y-117930905D01*
X150479835Y-117841581D01*
X150292705Y-117780778D01*
X150098382Y-117750000D01*
X149901618Y-117750000D01*
X149707294Y-117780778D01*
X149520161Y-117841582D01*
X149344863Y-117930899D01*
X149344859Y-117930902D01*
X149309873Y-117956320D01*
X149309872Y-117956320D01*
X140600501Y-117956320D01*
X140600501Y-117920943D01*
X140559577Y-117768216D01*
X140549060Y-117750000D01*
X140480524Y-117631290D01*
X140480518Y-117631282D01*
X139487590Y-116638355D01*
X139487588Y-116638352D01*
X139368717Y-116519481D01*
X139368716Y-116519480D01*
X139281904Y-116469360D01*
X139281904Y-116469359D01*
X139281900Y-116469358D01*
X139231785Y-116440423D01*
X139079057Y-116399499D01*
X138920943Y-116399499D01*
X138913347Y-116399499D01*
X138913331Y-116399500D01*
X125300097Y-116399500D01*
X125233058Y-116379815D01*
X125212416Y-116363181D01*
X124380924Y-115531689D01*
X124347439Y-115470366D01*
X124352423Y-115400674D01*
X124394295Y-115344741D01*
X124459759Y-115320324D01*
X124528032Y-115335176D01*
X124541490Y-115343690D01*
X124612179Y-115395048D01*
X124612181Y-115395049D01*
X124612184Y-115395051D01*
X124801588Y-115491557D01*
X125003757Y-115557246D01*
X125213713Y-115590500D01*
X125213714Y-115590500D01*
X125426286Y-115590500D01*
X125426287Y-115590500D01*
X125636243Y-115557246D01*
X125838412Y-115491557D01*
X126027816Y-115395051D01*
X126082572Y-115355269D01*
X126199786Y-115270109D01*
X126199788Y-115270106D01*
X126199792Y-115270104D01*
X126350104Y-115119792D01*
X126350106Y-115119788D01*
X126350109Y-115119786D01*
X126475048Y-114947820D01*
X126475047Y-114947820D01*
X126475051Y-114947816D01*
X126479514Y-114939054D01*
X126527488Y-114888259D01*
X126595308Y-114871463D01*
X126661444Y-114893999D01*
X126700486Y-114939056D01*
X126704951Y-114947820D01*
X126829890Y-115119786D01*
X126980213Y-115270109D01*
X127152179Y-115395048D01*
X127152181Y-115395049D01*
X127152184Y-115395051D01*
X127341588Y-115491557D01*
X127543757Y-115557246D01*
X127753713Y-115590500D01*
X127753714Y-115590500D01*
X127966286Y-115590500D01*
X127966287Y-115590500D01*
X128176243Y-115557246D01*
X128378412Y-115491557D01*
X128567816Y-115395051D01*
X128622572Y-115355269D01*
X128739786Y-115270109D01*
X128739788Y-115270106D01*
X128739792Y-115270104D01*
X128890104Y-115119792D01*
X128890106Y-115119788D01*
X128890109Y-115119786D01*
X129015048Y-114947820D01*
X129015047Y-114947820D01*
X129015051Y-114947816D01*
X129019514Y-114939054D01*
X129067488Y-114888259D01*
X129135308Y-114871463D01*
X129201444Y-114893999D01*
X129240486Y-114939056D01*
X129244951Y-114947820D01*
X129369890Y-115119786D01*
X129520213Y-115270109D01*
X129692179Y-115395048D01*
X129692181Y-115395049D01*
X129692184Y-115395051D01*
X129881588Y-115491557D01*
X130083757Y-115557246D01*
X130293713Y-115590500D01*
X130293714Y-115590500D01*
X130506286Y-115590500D01*
X130506287Y-115590500D01*
X130716243Y-115557246D01*
X130918412Y-115491557D01*
X131107816Y-115395051D01*
X131162572Y-115355269D01*
X131279786Y-115270109D01*
X131279788Y-115270106D01*
X131279792Y-115270104D01*
X131430104Y-115119792D01*
X131430106Y-115119788D01*
X131430109Y-115119786D01*
X131555048Y-114947820D01*
X131555047Y-114947820D01*
X131555051Y-114947816D01*
X131559514Y-114939054D01*
X131607488Y-114888259D01*
X131675308Y-114871463D01*
X131741444Y-114893999D01*
X131780486Y-114939056D01*
X131784951Y-114947820D01*
X131909890Y-115119786D01*
X132060213Y-115270109D01*
X132232179Y-115395048D01*
X132232181Y-115395049D01*
X132232184Y-115395051D01*
X132421588Y-115491557D01*
X132623757Y-115557246D01*
X132833713Y-115590500D01*
X132833714Y-115590500D01*
X133046286Y-115590500D01*
X133046287Y-115590500D01*
X133256243Y-115557246D01*
X133458412Y-115491557D01*
X133647816Y-115395051D01*
X133702572Y-115355269D01*
X133819786Y-115270109D01*
X133819788Y-115270106D01*
X133819792Y-115270104D01*
X133970104Y-115119792D01*
X133970106Y-115119788D01*
X133970109Y-115119786D01*
X134055890Y-115001717D01*
X134095051Y-114947816D01*
X134099793Y-114938508D01*
X134147763Y-114887711D01*
X134215583Y-114870911D01*
X134281719Y-114893445D01*
X134320763Y-114938500D01*
X134325373Y-114947547D01*
X134364728Y-115001716D01*
X134997037Y-114369408D01*
X135014075Y-114432993D01*
X135079901Y-114547007D01*
X135172993Y-114640099D01*
X135287007Y-114705925D01*
X135350590Y-114722962D01*
X134718282Y-115355269D01*
X134718282Y-115355270D01*
X134772449Y-115394624D01*
X134961782Y-115491095D01*
X135163870Y-115556757D01*
X135373754Y-115590000D01*
X135586246Y-115590000D01*
X135796127Y-115556757D01*
X135796130Y-115556757D01*
X135998217Y-115491095D01*
X136187554Y-115394622D01*
X136241716Y-115355270D01*
X136241717Y-115355270D01*
X135609408Y-114722962D01*
X135672993Y-114705925D01*
X135787007Y-114640099D01*
X135880099Y-114547007D01*
X135945925Y-114432993D01*
X135962962Y-114369408D01*
X136595270Y-115001717D01*
G37*
%TD.AperFunction*%
%TA.AperFunction,Conductor*%
G36*
X160245900Y-102787340D02*
G01*
X160301078Y-102830203D01*
X160324322Y-102896093D01*
X160324500Y-102902730D01*
X160324500Y-111385994D01*
X160304815Y-111453033D01*
X160288181Y-111473675D01*
X159778675Y-111983181D01*
X159717352Y-112016666D01*
X159690994Y-112019500D01*
X159631578Y-112019500D01*
X159437173Y-112050290D01*
X159249970Y-112111117D01*
X159074594Y-112200476D01*
X159055002Y-112214711D01*
X158915354Y-112316172D01*
X158915352Y-112316174D01*
X158915351Y-112316174D01*
X158776174Y-112455351D01*
X158776174Y-112455352D01*
X158776172Y-112455354D01*
X158731895Y-112516296D01*
X158660476Y-112614594D01*
X158571117Y-112789970D01*
X158510290Y-112977173D01*
X158479500Y-113171577D01*
X158479500Y-113230994D01*
X158470855Y-113260434D01*
X158464332Y-113290421D01*
X158460577Y-113295436D01*
X158459815Y-113298033D01*
X158443181Y-113318675D01*
X158433675Y-113328181D01*
X158372352Y-113361666D01*
X158345994Y-113364500D01*
X139105758Y-113364500D01*
X139038719Y-113344815D01*
X139018077Y-113328181D01*
X138899786Y-113209890D01*
X138727820Y-113084951D01*
X138538414Y-112988444D01*
X138538413Y-112988443D01*
X138538412Y-112988443D01*
X138336243Y-112922754D01*
X138336241Y-112922753D01*
X138336240Y-112922753D01*
X138174957Y-112897208D01*
X138126287Y-112889500D01*
X137913713Y-112889500D01*
X137865042Y-112897208D01*
X137703760Y-112922753D01*
X137501585Y-112988444D01*
X137312179Y-113084951D01*
X137140213Y-113209890D01*
X136989890Y-113360213D01*
X136864949Y-113532182D01*
X136860202Y-113541499D01*
X136812227Y-113592293D01*
X136744405Y-113609087D01*
X136678271Y-113586548D01*
X136639234Y-113541495D01*
X136634626Y-113532452D01*
X136595270Y-113478282D01*
X136595269Y-113478282D01*
X135962962Y-114110590D01*
X135945925Y-114047007D01*
X135880099Y-113932993D01*
X135787007Y-113839901D01*
X135672993Y-113774075D01*
X135609409Y-113757037D01*
X136241716Y-113124728D01*
X136187550Y-113085375D01*
X135998217Y-112988904D01*
X135796129Y-112923242D01*
X135586246Y-112890000D01*
X135373754Y-112890000D01*
X135163872Y-112923242D01*
X135163869Y-112923242D01*
X134961782Y-112988904D01*
X134772439Y-113085380D01*
X134718282Y-113124727D01*
X134718282Y-113124728D01*
X135350591Y-113757037D01*
X135287007Y-113774075D01*
X135172993Y-113839901D01*
X135079901Y-113932993D01*
X135014075Y-114047007D01*
X134997037Y-114110591D01*
X134364728Y-113478282D01*
X134364727Y-113478282D01*
X134325380Y-113532440D01*
X134325376Y-113532446D01*
X134320760Y-113541505D01*
X134272781Y-113592297D01*
X134204959Y-113609087D01*
X134138826Y-113586543D01*
X134099794Y-113541493D01*
X134095051Y-113532184D01*
X134095049Y-113532181D01*
X134095048Y-113532179D01*
X133970109Y-113360213D01*
X133819786Y-113209890D01*
X133647820Y-113084951D01*
X133458414Y-112988444D01*
X133458413Y-112988443D01*
X133458412Y-112988443D01*
X133256243Y-112922754D01*
X133256241Y-112922753D01*
X133256240Y-112922753D01*
X133094957Y-112897208D01*
X133046287Y-112889500D01*
X132833713Y-112889500D01*
X132785042Y-112897208D01*
X132623760Y-112922753D01*
X132421585Y-112988444D01*
X132232179Y-113084951D01*
X132060213Y-113209890D01*
X131909890Y-113360213D01*
X131784949Y-113532182D01*
X131780484Y-113540946D01*
X131732509Y-113591742D01*
X131664688Y-113608536D01*
X131598553Y-113585998D01*
X131559516Y-113540946D01*
X131555050Y-113532182D01*
X131430109Y-113360213D01*
X131279786Y-113209890D01*
X131107820Y-113084951D01*
X130918414Y-112988444D01*
X130918413Y-112988443D01*
X130918412Y-112988443D01*
X130716243Y-112922754D01*
X130716241Y-112922753D01*
X130716240Y-112922753D01*
X130554957Y-112897208D01*
X130506287Y-112889500D01*
X130293713Y-112889500D01*
X130245042Y-112897208D01*
X130083760Y-112922753D01*
X129881585Y-112988444D01*
X129692179Y-113084951D01*
X129520213Y-113209890D01*
X129369890Y-113360213D01*
X129244949Y-113532182D01*
X129240484Y-113540946D01*
X129192509Y-113591742D01*
X129124688Y-113608536D01*
X129058553Y-113585998D01*
X129019516Y-113540946D01*
X129015050Y-113532182D01*
X128890109Y-113360213D01*
X128739786Y-113209890D01*
X128567820Y-113084951D01*
X128378414Y-112988444D01*
X128378413Y-112988443D01*
X128378412Y-112988443D01*
X128176243Y-112922754D01*
X128176241Y-112922753D01*
X128176240Y-112922753D01*
X128014957Y-112897208D01*
X127966287Y-112889500D01*
X127753713Y-112889500D01*
X127705042Y-112897208D01*
X127543760Y-112922753D01*
X127341585Y-112988444D01*
X127152179Y-113084951D01*
X126980213Y-113209890D01*
X126829890Y-113360213D01*
X126704949Y-113532182D01*
X126700484Y-113540946D01*
X126652509Y-113591742D01*
X126584688Y-113608536D01*
X126518553Y-113585998D01*
X126479516Y-113540946D01*
X126475050Y-113532182D01*
X126350109Y-113360213D01*
X126199786Y-113209890D01*
X126027820Y-113084951D01*
X125838414Y-112988444D01*
X125838413Y-112988443D01*
X125838412Y-112988443D01*
X125636243Y-112922754D01*
X125636241Y-112922753D01*
X125636240Y-112922753D01*
X125474957Y-112897208D01*
X125426287Y-112889500D01*
X125213713Y-112889500D01*
X125165042Y-112897208D01*
X125003760Y-112922753D01*
X124801585Y-112988444D01*
X124612179Y-113084951D01*
X124440213Y-113209890D01*
X124289890Y-113360213D01*
X124164949Y-113532182D01*
X124160484Y-113540946D01*
X124112509Y-113591742D01*
X124044688Y-113608536D01*
X123978553Y-113585998D01*
X123939516Y-113540946D01*
X123935050Y-113532182D01*
X123810109Y-113360213D01*
X123659786Y-113209890D01*
X123487820Y-113084951D01*
X123298414Y-112988444D01*
X123298413Y-112988443D01*
X123298412Y-112988443D01*
X123096243Y-112922754D01*
X123096241Y-112922753D01*
X123096240Y-112922753D01*
X122934957Y-112897208D01*
X122886287Y-112889500D01*
X122673713Y-112889500D01*
X122625042Y-112897208D01*
X122463760Y-112922753D01*
X122261585Y-112988444D01*
X122072179Y-113084951D01*
X121900213Y-113209890D01*
X121749890Y-113360213D01*
X121624949Y-113532182D01*
X121620484Y-113540946D01*
X121572509Y-113591742D01*
X121504688Y-113608536D01*
X121438553Y-113585998D01*
X121399516Y-113540946D01*
X121395050Y-113532182D01*
X121270109Y-113360213D01*
X121119786Y-113209890D01*
X120947820Y-113084951D01*
X120758414Y-112988444D01*
X120758413Y-112988443D01*
X120758412Y-112988443D01*
X120556243Y-112922754D01*
X120556241Y-112922753D01*
X120556240Y-112922753D01*
X120394957Y-112897208D01*
X120346287Y-112889500D01*
X120133713Y-112889500D01*
X120085042Y-112897208D01*
X119923760Y-112922753D01*
X119721585Y-112988444D01*
X119532179Y-113084951D01*
X119360213Y-113209890D01*
X119209890Y-113360213D01*
X119084949Y-113532182D01*
X119080484Y-113540946D01*
X119032509Y-113591742D01*
X118964688Y-113608536D01*
X118898553Y-113585998D01*
X118859516Y-113540946D01*
X118855050Y-113532182D01*
X118730109Y-113360213D01*
X118579786Y-113209890D01*
X118407820Y-113084951D01*
X118218414Y-112988444D01*
X118218413Y-112988443D01*
X118218412Y-112988443D01*
X118016243Y-112922754D01*
X118016241Y-112922753D01*
X118016240Y-112922753D01*
X117854957Y-112897208D01*
X117806287Y-112889500D01*
X117593713Y-112889500D01*
X117545042Y-112897208D01*
X117383760Y-112922753D01*
X117181585Y-112988444D01*
X116992179Y-113084951D01*
X116820213Y-113209890D01*
X116669890Y-113360213D01*
X116544949Y-113532182D01*
X116540484Y-113540946D01*
X116492509Y-113591742D01*
X116424688Y-113608536D01*
X116358553Y-113585998D01*
X116319516Y-113540946D01*
X116315050Y-113532182D01*
X116190109Y-113360213D01*
X116039786Y-113209890D01*
X115925309Y-113126719D01*
X115882643Y-113071390D01*
X115876664Y-113001776D01*
X115909269Y-112939981D01*
X115910438Y-112938795D01*
X121212416Y-107636819D01*
X121273739Y-107603334D01*
X121300097Y-107600500D01*
X143113445Y-107600500D01*
X143180484Y-107620185D01*
X143226239Y-107672989D01*
X143236183Y-107742147D01*
X143231159Y-107760411D01*
X143232031Y-107760676D01*
X143230261Y-107766510D01*
X143199500Y-107921153D01*
X143199500Y-108078846D01*
X143230261Y-108233489D01*
X143230264Y-108233501D01*
X143290602Y-108379172D01*
X143290609Y-108379185D01*
X143378210Y-108510288D01*
X143378213Y-108510292D01*
X143489707Y-108621786D01*
X143489711Y-108621789D01*
X143620814Y-108709390D01*
X143620827Y-108709397D01*
X143766498Y-108769735D01*
X143766503Y-108769737D01*
X143921153Y-108800499D01*
X143921156Y-108800500D01*
X143921158Y-108800500D01*
X144078844Y-108800500D01*
X144078845Y-108800499D01*
X144233497Y-108769737D01*
X144379179Y-108709394D01*
X144379185Y-108709390D01*
X144510875Y-108621398D01*
X144577553Y-108600520D01*
X144579766Y-108600500D01*
X151420234Y-108600500D01*
X151487273Y-108620185D01*
X151489125Y-108621398D01*
X151620814Y-108709390D01*
X151620827Y-108709397D01*
X151766498Y-108769735D01*
X151766503Y-108769737D01*
X151921153Y-108800499D01*
X151921156Y-108800500D01*
X151921158Y-108800500D01*
X152078844Y-108800500D01*
X152078845Y-108800499D01*
X152233497Y-108769737D01*
X152379179Y-108709394D01*
X152510289Y-108621789D01*
X152621789Y-108510289D01*
X152709394Y-108379179D01*
X152769737Y-108233497D01*
X152800500Y-108078842D01*
X152800500Y-107921158D01*
X152800500Y-107921155D01*
X152800499Y-107921153D01*
X152769738Y-107766510D01*
X152769737Y-107766503D01*
X152769732Y-107766492D01*
X152767969Y-107760676D01*
X152770720Y-107759841D01*
X152764497Y-107702641D01*
X152795691Y-107640122D01*
X152855734Y-107604392D01*
X152886555Y-107600500D01*
X154913331Y-107600500D01*
X154913347Y-107600501D01*
X154920943Y-107600501D01*
X155079054Y-107600501D01*
X155079057Y-107600501D01*
X155231785Y-107559577D01*
X155281904Y-107530639D01*
X155368716Y-107480520D01*
X155480520Y-107368716D01*
X155480520Y-107368714D01*
X155490728Y-107358507D01*
X155490729Y-107358504D01*
X160014662Y-102834572D01*
X160031255Y-102825511D01*
X160044866Y-102812379D01*
X160074361Y-102801974D01*
X160075983Y-102801089D01*
X160078150Y-102800638D01*
X160176309Y-102781113D01*
X160245900Y-102787340D01*
G37*
%TD.AperFunction*%
%TA.AperFunction,Conductor*%
G36*
X198442539Y-78520185D02*
G01*
X198488294Y-78572989D01*
X198499500Y-78624500D01*
X198499500Y-130375500D01*
X198479815Y-130442539D01*
X198427011Y-130488294D01*
X198375500Y-130499500D01*
X74624500Y-130499500D01*
X74557461Y-130479815D01*
X74511706Y-130427011D01*
X74500500Y-130375500D01*
X74500500Y-125878711D01*
X77149500Y-125878711D01*
X77149500Y-126121288D01*
X77181161Y-126361785D01*
X77243947Y-126596104D01*
X77257075Y-126627797D01*
X77336776Y-126820212D01*
X77458064Y-127030289D01*
X77458066Y-127030292D01*
X77458067Y-127030293D01*
X77605733Y-127222736D01*
X77605739Y-127222743D01*
X77777256Y-127394260D01*
X77777262Y-127394265D01*
X77969711Y-127541936D01*
X78179788Y-127663224D01*
X78403900Y-127756054D01*
X78638211Y-127818838D01*
X78818586Y-127842584D01*
X78878711Y-127850500D01*
X78878712Y-127850500D01*
X79121289Y-127850500D01*
X79169388Y-127844167D01*
X79361789Y-127818838D01*
X79596100Y-127756054D01*
X79820212Y-127663224D01*
X80030289Y-127541936D01*
X80222738Y-127394265D01*
X80394265Y-127222738D01*
X80541936Y-127030289D01*
X80663224Y-126820212D01*
X80756054Y-126596100D01*
X80818838Y-126361789D01*
X80850500Y-126121288D01*
X80850500Y-125878712D01*
X80818838Y-125638211D01*
X80756054Y-125403900D01*
X80663224Y-125179788D01*
X80541936Y-124969711D01*
X80394265Y-124777262D01*
X80394260Y-124777256D01*
X80222743Y-124605739D01*
X80222736Y-124605733D01*
X80030293Y-124458067D01*
X80030292Y-124458066D01*
X80030289Y-124458064D01*
X79820212Y-124336776D01*
X79820205Y-124336773D01*
X79596104Y-124243947D01*
X79361785Y-124181161D01*
X79121289Y-124149500D01*
X79121288Y-124149500D01*
X78878712Y-124149500D01*
X78878711Y-124149500D01*
X78638214Y-124181161D01*
X78403895Y-124243947D01*
X78179794Y-124336773D01*
X78179785Y-124336777D01*
X77969706Y-124458067D01*
X77777263Y-124605733D01*
X77777256Y-124605739D01*
X77605739Y-124777256D01*
X77605733Y-124777263D01*
X77458067Y-124969706D01*
X77336777Y-125179785D01*
X77336773Y-125179794D01*
X77243947Y-125403895D01*
X77181161Y-125638214D01*
X77149500Y-125878711D01*
X74500500Y-125878711D01*
X74500500Y-92901577D01*
X78749500Y-92901577D01*
X78749500Y-93098422D01*
X78780290Y-93292826D01*
X78841117Y-93480029D01*
X78921006Y-93636819D01*
X78930476Y-93655405D01*
X79046172Y-93814646D01*
X79185354Y-93953828D01*
X79344595Y-94069524D01*
X79427455Y-94111743D01*
X79519970Y-94158882D01*
X79519972Y-94158882D01*
X79519975Y-94158884D01*
X79620317Y-94191487D01*
X79707173Y-94219709D01*
X79901578Y-94250500D01*
X79901583Y-94250500D01*
X80098422Y-94250500D01*
X80292826Y-94219709D01*
X80480025Y-94158884D01*
X80655405Y-94069524D01*
X80814646Y-93953828D01*
X80953828Y-93814646D01*
X81069524Y-93655405D01*
X81069524Y-93655403D01*
X81072278Y-93651614D01*
X81127608Y-93608949D01*
X81172596Y-93600500D01*
X81699903Y-93600500D01*
X81766942Y-93620185D01*
X81787584Y-93636819D01*
X84277722Y-96126957D01*
X84311207Y-96188280D01*
X84306223Y-96257972D01*
X84264351Y-96313905D01*
X84235711Y-96328196D01*
X84236204Y-96329336D01*
X84229042Y-96332435D01*
X84087056Y-96416405D01*
X84087047Y-96416412D01*
X83970412Y-96533047D01*
X83970403Y-96533058D01*
X83936440Y-96590487D01*
X83885371Y-96638170D01*
X83816629Y-96650673D01*
X83752040Y-96624027D01*
X83722977Y-96590486D01*
X83689195Y-96533364D01*
X83689189Y-96533356D01*
X83572643Y-96416810D01*
X83572634Y-96416803D01*
X83430756Y-96332897D01*
X83430753Y-96332896D01*
X83272473Y-96286911D01*
X83272467Y-96286910D01*
X83235481Y-96284000D01*
X81884530Y-96284000D01*
X81884508Y-96284001D01*
X81847533Y-96286910D01*
X81689242Y-96332897D01*
X81547365Y-96416803D01*
X81547356Y-96416810D01*
X81430810Y-96533356D01*
X81430801Y-96533367D01*
X81397021Y-96590487D01*
X81345952Y-96638170D01*
X81277210Y-96650673D01*
X81212621Y-96624027D01*
X81183558Y-96590486D01*
X81149594Y-96533056D01*
X81149587Y-96533047D01*
X81032952Y-96416412D01*
X81032943Y-96416405D01*
X80922718Y-96351218D01*
X80890959Y-96332436D01*
X80890958Y-96332435D01*
X80890957Y-96332435D01*
X80890954Y-96332434D01*
X80732552Y-96286413D01*
X80732546Y-96286412D01*
X80695541Y-96283500D01*
X80695534Y-96283500D01*
X79344466Y-96283500D01*
X79344458Y-96283500D01*
X79307453Y-96286412D01*
X79307447Y-96286413D01*
X79149045Y-96332434D01*
X79149042Y-96332435D01*
X79007056Y-96416405D01*
X79007047Y-96416412D01*
X78890412Y-96533047D01*
X78890405Y-96533056D01*
X78806435Y-96675042D01*
X78806434Y-96675045D01*
X78760413Y-96833447D01*
X78760412Y-96833453D01*
X78757500Y-96870458D01*
X78757500Y-99129541D01*
X78760412Y-99166546D01*
X78760413Y-99166552D01*
X78806434Y-99324954D01*
X78806435Y-99324957D01*
X78890405Y-99466943D01*
X78890406Y-99466944D01*
X78890408Y-99466947D01*
X78986608Y-99563147D01*
X78999240Y-99577938D01*
X79054501Y-99653999D01*
X79057019Y-99657464D01*
X79197536Y-99797981D01*
X79358306Y-99914787D01*
X79387282Y-99929551D01*
X79535367Y-100005005D01*
X79535370Y-100005006D01*
X79612612Y-100030103D01*
X79724364Y-100066413D01*
X79920639Y-100097500D01*
X79920640Y-100097500D01*
X80119360Y-100097500D01*
X80119361Y-100097500D01*
X80315636Y-100066413D01*
X80504632Y-100005005D01*
X80681694Y-99914787D01*
X80842464Y-99797981D01*
X80982981Y-99657464D01*
X81040762Y-99577933D01*
X81046007Y-99571213D01*
X81049518Y-99567019D01*
X81149592Y-99466947D01*
X81188718Y-99400787D01*
X81195220Y-99393024D01*
X81216198Y-99379035D01*
X81234626Y-99361830D01*
X81244772Y-99359984D01*
X81253353Y-99354263D01*
X81278565Y-99353837D01*
X81303368Y-99349326D01*
X81312899Y-99353258D01*
X81323212Y-99353084D01*
X81344650Y-99366356D01*
X81367958Y-99375971D01*
X81376956Y-99386355D01*
X81382620Y-99389862D01*
X81385838Y-99396606D01*
X81397022Y-99409513D01*
X81430803Y-99466634D01*
X81430807Y-99466639D01*
X81502807Y-99538638D01*
X82122352Y-98919093D01*
X82145792Y-99006571D01*
X82204311Y-99107930D01*
X82287070Y-99190689D01*
X82388429Y-99249208D01*
X82475905Y-99272647D01*
X81861283Y-99887268D01*
X81861283Y-99887269D01*
X81898567Y-99914358D01*
X82075562Y-100004542D01*
X82264477Y-100065924D01*
X82460679Y-100097000D01*
X82659321Y-100097000D01*
X82855520Y-100065924D01*
X82855523Y-100065924D01*
X83044437Y-100004542D01*
X83221425Y-99914362D01*
X83258716Y-99887268D01*
X82644095Y-99272647D01*
X82731571Y-99249208D01*
X82832930Y-99190689D01*
X82915689Y-99107930D01*
X82974208Y-99006571D01*
X82997647Y-98919094D01*
X83617191Y-99538639D01*
X83689195Y-99466635D01*
X83722976Y-99409514D01*
X83774045Y-99361830D01*
X83842787Y-99349326D01*
X83907376Y-99375971D01*
X83924779Y-99393024D01*
X83931283Y-99400791D01*
X83970408Y-99466947D01*
X84070480Y-99567019D01*
X84073992Y-99571213D01*
X84074509Y-99572399D01*
X84079240Y-99577938D01*
X84134501Y-99653999D01*
X84137019Y-99657464D01*
X84277536Y-99797981D01*
X84438306Y-99914787D01*
X84467282Y-99929551D01*
X84615367Y-100005005D01*
X84615370Y-100005006D01*
X84692612Y-100030103D01*
X84804364Y-100066413D01*
X85000639Y-100097500D01*
X85000640Y-100097500D01*
X85199360Y-100097500D01*
X85199361Y-100097500D01*
X85395636Y-100066413D01*
X85584632Y-100005005D01*
X85761694Y-99914787D01*
X85922464Y-99797981D01*
X86062981Y-99657464D01*
X86120762Y-99577933D01*
X86126039Y-99571175D01*
X86129537Y-99567000D01*
X86229592Y-99466947D01*
X86268439Y-99401259D01*
X86274962Y-99393477D01*
X86295927Y-99379509D01*
X86314337Y-99362321D01*
X86324505Y-99360471D01*
X86333110Y-99354739D01*
X86358299Y-99354324D01*
X86383079Y-99349817D01*
X86392634Y-99353759D01*
X86402970Y-99353589D01*
X86424379Y-99366854D01*
X86447668Y-99376462D01*
X86456691Y-99386875D01*
X86462363Y-99390390D01*
X86465575Y-99397128D01*
X86476732Y-99410004D01*
X86510405Y-99466943D01*
X86510408Y-99466947D01*
X86606608Y-99563147D01*
X86619240Y-99577938D01*
X86674501Y-99653999D01*
X86677019Y-99657464D01*
X86817536Y-99797981D01*
X86978306Y-99914787D01*
X87007282Y-99929551D01*
X87155367Y-100005005D01*
X87155370Y-100005006D01*
X87232612Y-100030103D01*
X87344364Y-100066413D01*
X87540639Y-100097500D01*
X87540640Y-100097500D01*
X87739358Y-100097500D01*
X87739361Y-100097500D01*
X87805504Y-100087023D01*
X87874793Y-100095977D01*
X87912580Y-100121815D01*
X91155139Y-103364374D01*
X91155149Y-103364385D01*
X91159479Y-103368715D01*
X91159480Y-103368716D01*
X91271284Y-103480520D01*
X91358095Y-103530639D01*
X91358097Y-103530641D01*
X91408213Y-103559576D01*
X91408215Y-103559577D01*
X91560942Y-103600500D01*
X91560943Y-103600500D01*
X103913331Y-103600500D01*
X103913347Y-103600501D01*
X103920943Y-103600501D01*
X104079054Y-103600501D01*
X104079057Y-103600501D01*
X104231785Y-103559577D01*
X104281904Y-103530639D01*
X104368716Y-103480520D01*
X104480520Y-103368716D01*
X104480520Y-103368714D01*
X104490728Y-103358507D01*
X104490729Y-103358504D01*
X107462416Y-100386819D01*
X107523739Y-100353334D01*
X107550097Y-100350500D01*
X107646286Y-100350500D01*
X107646287Y-100350500D01*
X107856243Y-100317246D01*
X108058412Y-100251557D01*
X108247816Y-100155051D01*
X108334478Y-100092088D01*
X108419786Y-100030109D01*
X108419788Y-100030106D01*
X108419792Y-100030104D01*
X108570104Y-99879792D01*
X108570106Y-99879788D01*
X108570109Y-99879786D01*
X108695048Y-99707820D01*
X108695047Y-99707820D01*
X108695051Y-99707816D01*
X108699514Y-99699054D01*
X108747488Y-99648259D01*
X108815308Y-99631463D01*
X108881444Y-99653999D01*
X108920486Y-99699056D01*
X108924951Y-99707820D01*
X109049890Y-99879786D01*
X109200213Y-100030109D01*
X109372179Y-100155048D01*
X109372181Y-100155049D01*
X109372184Y-100155051D01*
X109561588Y-100251557D01*
X109763757Y-100317246D01*
X109973713Y-100350500D01*
X109973714Y-100350500D01*
X110186286Y-100350500D01*
X110186287Y-100350500D01*
X110396243Y-100317246D01*
X110598412Y-100251557D01*
X110787816Y-100155051D01*
X110874478Y-100092088D01*
X110959786Y-100030109D01*
X110959788Y-100030106D01*
X110959792Y-100030104D01*
X111110104Y-99879792D01*
X111110106Y-99879788D01*
X111110109Y-99879786D01*
X111235048Y-99707820D01*
X111235047Y-99707820D01*
X111235051Y-99707816D01*
X111239514Y-99699054D01*
X111287488Y-99648259D01*
X111355308Y-99631463D01*
X111421444Y-99653999D01*
X111460486Y-99699056D01*
X111464951Y-99707820D01*
X111589890Y-99879786D01*
X111589896Y-99879792D01*
X111740208Y-100030104D01*
X111843105Y-100104863D01*
X111885771Y-100160192D01*
X111891750Y-100229805D01*
X111859145Y-100291601D01*
X111857901Y-100292862D01*
X98547584Y-113603181D01*
X98486261Y-113636666D01*
X98459903Y-113639500D01*
X96576499Y-113639500D01*
X96509460Y-113619815D01*
X96469767Y-113578621D01*
X96460423Y-113562822D01*
X96389592Y-113443053D01*
X96293390Y-113346851D01*
X96280758Y-113332060D01*
X96271033Y-113318675D01*
X96264009Y-113309006D01*
X96222984Y-113252539D01*
X96082466Y-113112021D01*
X96082464Y-113112019D01*
X95921694Y-112995213D01*
X95886289Y-112977173D01*
X95744632Y-112904994D01*
X95744629Y-112904993D01*
X95555637Y-112843587D01*
X95457498Y-112828043D01*
X95359361Y-112812500D01*
X95160639Y-112812500D01*
X95095214Y-112822862D01*
X94964362Y-112843587D01*
X94775370Y-112904993D01*
X94775367Y-112904994D01*
X94598305Y-112995213D01*
X94437533Y-113112021D01*
X94297018Y-113252536D01*
X94239239Y-113332061D01*
X94233960Y-113338821D01*
X94230446Y-113343013D01*
X94130408Y-113443053D01*
X94091564Y-113508733D01*
X94085038Y-113516521D01*
X94064076Y-113530485D01*
X94045662Y-113547679D01*
X94035492Y-113549528D01*
X94026891Y-113555259D01*
X94001703Y-113555674D01*
X93976921Y-113560182D01*
X93967366Y-113556240D01*
X93957031Y-113556411D01*
X93935616Y-113543142D01*
X93912331Y-113533536D01*
X93903308Y-113523123D01*
X93897638Y-113519610D01*
X93894426Y-113512873D01*
X93883268Y-113499996D01*
X93849592Y-113443053D01*
X93753390Y-113346851D01*
X93740758Y-113332060D01*
X93731033Y-113318675D01*
X93724009Y-113309006D01*
X93682984Y-113252539D01*
X93542466Y-113112021D01*
X93542464Y-113112019D01*
X93381694Y-112995213D01*
X93346289Y-112977173D01*
X93204632Y-112904994D01*
X93204629Y-112904993D01*
X93015637Y-112843587D01*
X92917498Y-112828043D01*
X92819361Y-112812500D01*
X92620639Y-112812500D01*
X92555214Y-112822862D01*
X92424362Y-112843587D01*
X92235370Y-112904993D01*
X92235367Y-112904994D01*
X92058305Y-112995213D01*
X91897533Y-113112021D01*
X91757018Y-113252536D01*
X91699239Y-113332061D01*
X91693960Y-113338821D01*
X91690446Y-113343013D01*
X91590408Y-113443053D01*
X91551564Y-113508733D01*
X91545038Y-113516521D01*
X91524076Y-113530485D01*
X91505662Y-113547679D01*
X91495492Y-113549528D01*
X91486891Y-113555259D01*
X91461703Y-113555674D01*
X91436921Y-113560182D01*
X91427366Y-113556240D01*
X91417031Y-113556411D01*
X91395616Y-113543142D01*
X91372331Y-113533536D01*
X91363308Y-113523123D01*
X91357638Y-113519610D01*
X91354426Y-113512873D01*
X91343268Y-113499996D01*
X91309592Y-113443053D01*
X91213390Y-113346851D01*
X91200758Y-113332060D01*
X91191033Y-113318675D01*
X91184009Y-113309006D01*
X91142984Y-113252539D01*
X91002466Y-113112021D01*
X91002464Y-113112019D01*
X90841694Y-112995213D01*
X90806289Y-112977173D01*
X90664632Y-112904994D01*
X90664629Y-112904993D01*
X90475637Y-112843587D01*
X90377498Y-112828043D01*
X90279361Y-112812500D01*
X90080639Y-112812500D01*
X90015214Y-112822862D01*
X89884362Y-112843587D01*
X89695370Y-112904993D01*
X89695367Y-112904994D01*
X89518305Y-112995213D01*
X89357533Y-113112021D01*
X89217018Y-113252536D01*
X89159239Y-113332061D01*
X89153960Y-113338821D01*
X89150446Y-113343013D01*
X89050408Y-113443053D01*
X89011564Y-113508733D01*
X89005038Y-113516521D01*
X88984076Y-113530485D01*
X88965662Y-113547679D01*
X88955492Y-113549528D01*
X88946891Y-113555259D01*
X88921703Y-113555674D01*
X88896921Y-113560182D01*
X88887366Y-113556240D01*
X88877031Y-113556411D01*
X88855616Y-113543142D01*
X88832331Y-113533536D01*
X88823308Y-113523123D01*
X88817638Y-113519610D01*
X88814426Y-113512873D01*
X88803268Y-113499996D01*
X88769592Y-113443053D01*
X88673390Y-113346851D01*
X88660758Y-113332060D01*
X88651033Y-113318675D01*
X88644009Y-113309006D01*
X88602984Y-113252539D01*
X88462466Y-113112021D01*
X88462464Y-113112019D01*
X88301694Y-112995213D01*
X88266289Y-112977173D01*
X88124632Y-112904994D01*
X88124629Y-112904993D01*
X87935637Y-112843587D01*
X87837498Y-112828043D01*
X87739361Y-112812500D01*
X87540639Y-112812500D01*
X87475214Y-112822862D01*
X87344362Y-112843587D01*
X87155370Y-112904993D01*
X87155367Y-112904994D01*
X86978305Y-112995213D01*
X86817533Y-113112021D01*
X86677018Y-113252536D01*
X86619239Y-113332061D01*
X86613960Y-113338821D01*
X86610446Y-113343013D01*
X86510408Y-113443053D01*
X86471564Y-113508733D01*
X86465038Y-113516521D01*
X86444076Y-113530485D01*
X86425662Y-113547679D01*
X86415492Y-113549528D01*
X86406891Y-113555259D01*
X86381703Y-113555674D01*
X86356921Y-113560182D01*
X86347366Y-113556240D01*
X86337031Y-113556411D01*
X86315616Y-113543142D01*
X86292331Y-113533536D01*
X86283308Y-113523123D01*
X86277638Y-113519610D01*
X86274426Y-113512873D01*
X86263268Y-113499996D01*
X86229592Y-113443053D01*
X86133390Y-113346851D01*
X86120758Y-113332060D01*
X86111033Y-113318675D01*
X86104009Y-113309006D01*
X86062984Y-113252539D01*
X85922466Y-113112021D01*
X85922464Y-113112019D01*
X85761694Y-112995213D01*
X85726289Y-112977173D01*
X85584632Y-112904994D01*
X85584629Y-112904993D01*
X85395637Y-112843587D01*
X85297498Y-112828043D01*
X85199361Y-112812500D01*
X85000639Y-112812500D01*
X84935214Y-112822862D01*
X84804362Y-112843587D01*
X84615370Y-112904993D01*
X84615367Y-112904994D01*
X84438305Y-112995213D01*
X84277533Y-113112021D01*
X84137018Y-113252536D01*
X84079239Y-113332061D01*
X84073960Y-113338821D01*
X84070446Y-113343013D01*
X83970408Y-113443053D01*
X83931564Y-113508733D01*
X83925038Y-113516521D01*
X83904076Y-113530485D01*
X83885662Y-113547679D01*
X83875492Y-113549528D01*
X83866891Y-113555259D01*
X83841703Y-113555674D01*
X83816921Y-113560182D01*
X83807366Y-113556240D01*
X83797031Y-113556411D01*
X83775616Y-113543142D01*
X83752331Y-113533536D01*
X83743308Y-113523123D01*
X83737638Y-113519610D01*
X83734426Y-113512873D01*
X83723268Y-113499996D01*
X83689592Y-113443053D01*
X83593390Y-113346851D01*
X83580758Y-113332060D01*
X83571033Y-113318675D01*
X83564009Y-113309006D01*
X83522984Y-113252539D01*
X83382466Y-113112021D01*
X83382464Y-113112019D01*
X83221694Y-112995213D01*
X83186289Y-112977173D01*
X83044632Y-112904994D01*
X83044629Y-112904993D01*
X82855637Y-112843587D01*
X82757498Y-112828043D01*
X82659361Y-112812500D01*
X82460639Y-112812500D01*
X82395214Y-112822862D01*
X82264362Y-112843587D01*
X82075370Y-112904993D01*
X82075367Y-112904994D01*
X81898305Y-112995213D01*
X81737533Y-113112021D01*
X81597018Y-113252536D01*
X81539239Y-113332061D01*
X81533960Y-113338821D01*
X81530446Y-113343013D01*
X81430408Y-113443053D01*
X81391564Y-113508733D01*
X81385038Y-113516521D01*
X81364076Y-113530485D01*
X81345662Y-113547679D01*
X81335492Y-113549528D01*
X81326891Y-113555259D01*
X81301703Y-113555674D01*
X81276921Y-113560182D01*
X81267366Y-113556240D01*
X81257031Y-113556411D01*
X81235616Y-113543142D01*
X81212331Y-113533536D01*
X81203308Y-113523123D01*
X81197638Y-113519610D01*
X81194426Y-113512873D01*
X81183268Y-113499996D01*
X81149592Y-113443053D01*
X81053390Y-113346851D01*
X81040758Y-113332060D01*
X81031033Y-113318675D01*
X81024009Y-113309006D01*
X80982984Y-113252539D01*
X80842466Y-113112021D01*
X80842464Y-113112019D01*
X80681694Y-112995213D01*
X80646289Y-112977173D01*
X80504632Y-112904994D01*
X80504629Y-112904993D01*
X80315637Y-112843587D01*
X80217498Y-112828043D01*
X80119361Y-112812500D01*
X79920639Y-112812500D01*
X79855214Y-112822862D01*
X79724362Y-112843587D01*
X79535370Y-112904993D01*
X79535367Y-112904994D01*
X79358305Y-112995213D01*
X79197533Y-113112021D01*
X79057018Y-113252536D01*
X78999239Y-113332061D01*
X78986604Y-113346854D01*
X78890413Y-113443046D01*
X78890405Y-113443056D01*
X78806435Y-113585042D01*
X78806434Y-113585045D01*
X78760413Y-113743447D01*
X78760412Y-113743453D01*
X78757500Y-113780458D01*
X78757500Y-116039541D01*
X78760412Y-116076546D01*
X78760413Y-116076552D01*
X78806434Y-116234954D01*
X78806435Y-116234957D01*
X78890405Y-116376943D01*
X78890412Y-116376952D01*
X79007047Y-116493587D01*
X79007051Y-116493590D01*
X79007053Y-116493592D01*
X79149041Y-116577564D01*
X79190816Y-116589701D01*
X79307447Y-116623586D01*
X79307450Y-116623586D01*
X79307452Y-116623587D01*
X79344466Y-116626500D01*
X79344474Y-116626500D01*
X80695526Y-116626500D01*
X80695534Y-116626500D01*
X80732548Y-116623587D01*
X80732550Y-116623586D01*
X80732552Y-116623586D01*
X80774323Y-116611449D01*
X80890959Y-116577564D01*
X81032947Y-116493592D01*
X81149592Y-116376947D01*
X81183268Y-116320003D01*
X81234337Y-116272321D01*
X81303079Y-116259817D01*
X81367668Y-116286462D01*
X81396732Y-116320004D01*
X81430406Y-116376944D01*
X81430412Y-116376952D01*
X81547047Y-116493587D01*
X81547051Y-116493590D01*
X81547053Y-116493592D01*
X81689041Y-116577564D01*
X81730816Y-116589701D01*
X81847447Y-116623586D01*
X81853688Y-116624726D01*
X81853361Y-116626512D01*
X81910514Y-116648294D01*
X81951987Y-116704524D01*
X81959500Y-116747030D01*
X81959500Y-119823330D01*
X81959499Y-119823348D01*
X81959499Y-119989054D01*
X81959498Y-119989054D01*
X82000423Y-120141785D01*
X82029358Y-120191900D01*
X82029359Y-120191904D01*
X82029360Y-120191904D01*
X82079479Y-120278714D01*
X82079481Y-120278717D01*
X82198349Y-120397585D01*
X82198355Y-120397590D01*
X84263181Y-122462416D01*
X84296666Y-122523739D01*
X84299500Y-122550097D01*
X84299500Y-123897870D01*
X84299501Y-123897876D01*
X84305908Y-123957483D01*
X84356202Y-124092328D01*
X84356206Y-124092335D01*
X84442452Y-124207544D01*
X84442455Y-124207547D01*
X84557664Y-124293793D01*
X84557671Y-124293797D01*
X84692517Y-124344091D01*
X84692516Y-124344091D01*
X84699444Y-124344835D01*
X84752127Y-124350500D01*
X86547872Y-124350499D01*
X86607483Y-124344091D01*
X86742331Y-124293796D01*
X86857546Y-124207546D01*
X86943796Y-124092331D01*
X86992810Y-123960916D01*
X87034681Y-123904984D01*
X87100145Y-123880566D01*
X87168418Y-123895417D01*
X87196673Y-123916569D01*
X87310213Y-124030109D01*
X87482179Y-124155048D01*
X87482181Y-124155049D01*
X87482184Y-124155051D01*
X87671588Y-124251557D01*
X87873757Y-124317246D01*
X88083713Y-124350500D01*
X88083714Y-124350500D01*
X88296286Y-124350500D01*
X88296287Y-124350500D01*
X88506243Y-124317246D01*
X88708412Y-124251557D01*
X88897816Y-124155051D01*
X88955290Y-124113294D01*
X89069786Y-124030109D01*
X89069788Y-124030106D01*
X89069792Y-124030104D01*
X89220104Y-123879792D01*
X89220106Y-123879788D01*
X89220109Y-123879786D01*
X89345048Y-123707820D01*
X89345047Y-123707820D01*
X89345051Y-123707816D01*
X89349514Y-123699054D01*
X89397488Y-123648259D01*
X89465308Y-123631463D01*
X89531444Y-123653999D01*
X89570486Y-123699056D01*
X89574951Y-123707820D01*
X89699890Y-123879786D01*
X89850213Y-124030109D01*
X90022179Y-124155048D01*
X90022181Y-124155049D01*
X90022184Y-124155051D01*
X90211588Y-124251557D01*
X90413757Y-124317246D01*
X90623713Y-124350500D01*
X90623714Y-124350500D01*
X90836286Y-124350500D01*
X90836287Y-124350500D01*
X91046243Y-124317246D01*
X91248412Y-124251557D01*
X91437816Y-124155051D01*
X91495290Y-124113294D01*
X91609786Y-124030109D01*
X91609788Y-124030106D01*
X91609792Y-124030104D01*
X91760104Y-123879792D01*
X91760106Y-123879788D01*
X91760109Y-123879786D01*
X91885048Y-123707820D01*
X91885047Y-123707820D01*
X91885051Y-123707816D01*
X91889514Y-123699054D01*
X91937488Y-123648259D01*
X92005308Y-123631463D01*
X92071444Y-123653999D01*
X92110486Y-123699056D01*
X92114951Y-123707820D01*
X92239890Y-123879786D01*
X92390213Y-124030109D01*
X92562179Y-124155048D01*
X92562181Y-124155049D01*
X92562184Y-124155051D01*
X92751588Y-124251557D01*
X92953757Y-124317246D01*
X93163713Y-124350500D01*
X93163714Y-124350500D01*
X93376286Y-124350500D01*
X93376287Y-124350500D01*
X93586243Y-124317246D01*
X93788412Y-124251557D01*
X93977816Y-124155051D01*
X94035290Y-124113294D01*
X94149786Y-124030109D01*
X94149788Y-124030106D01*
X94149792Y-124030104D01*
X94300104Y-123879792D01*
X94300106Y-123879788D01*
X94300109Y-123879786D01*
X94425048Y-123707820D01*
X94425047Y-123707820D01*
X94425051Y-123707816D01*
X94429514Y-123699054D01*
X94477488Y-123648259D01*
X94545308Y-123631463D01*
X94611444Y-123653999D01*
X94650486Y-123699056D01*
X94654951Y-123707820D01*
X94779890Y-123879786D01*
X94930213Y-124030109D01*
X95102179Y-124155048D01*
X95102181Y-124155049D01*
X95102184Y-124155051D01*
X95291588Y-124251557D01*
X95493757Y-124317246D01*
X95703713Y-124350500D01*
X95703714Y-124350500D01*
X95916286Y-124350500D01*
X95916287Y-124350500D01*
X96126243Y-124317246D01*
X96328412Y-124251557D01*
X96517816Y-124155051D01*
X96575290Y-124113294D01*
X96689786Y-124030109D01*
X96689788Y-124030106D01*
X96689792Y-124030104D01*
X96840104Y-123879792D01*
X96840106Y-123879788D01*
X96840109Y-123879786D01*
X96925890Y-123761717D01*
X96965051Y-123707816D01*
X96969793Y-123698508D01*
X97017763Y-123647711D01*
X97085583Y-123630911D01*
X97151719Y-123653445D01*
X97190763Y-123698500D01*
X97195373Y-123707547D01*
X97234728Y-123761716D01*
X97867037Y-123129408D01*
X97884075Y-123192993D01*
X97949901Y-123307007D01*
X98042993Y-123400099D01*
X98157007Y-123465925D01*
X98220590Y-123482962D01*
X97588282Y-124115269D01*
X97588282Y-124115270D01*
X97642449Y-124154624D01*
X97831782Y-124251095D01*
X98033870Y-124316757D01*
X98243754Y-124350000D01*
X98456246Y-124350000D01*
X98666127Y-124316757D01*
X98666130Y-124316757D01*
X98868217Y-124251095D01*
X99057554Y-124154622D01*
X99111716Y-124115270D01*
X99111717Y-124115270D01*
X98479408Y-123482962D01*
X98542993Y-123465925D01*
X98657007Y-123400099D01*
X98750099Y-123307007D01*
X98815925Y-123192993D01*
X98832962Y-123129408D01*
X99465270Y-123761717D01*
X99465270Y-123761716D01*
X99504622Y-123707554D01*
X99601095Y-123518217D01*
X99666757Y-123316130D01*
X99666757Y-123316127D01*
X99700000Y-123106246D01*
X99700000Y-122893753D01*
X99666757Y-122683872D01*
X99666757Y-122683869D01*
X99601095Y-122481782D01*
X99504624Y-122292449D01*
X99465270Y-122238282D01*
X99465269Y-122238282D01*
X98832962Y-122870590D01*
X98815925Y-122807007D01*
X98750099Y-122692993D01*
X98657007Y-122599901D01*
X98542993Y-122534075D01*
X98479409Y-122517037D01*
X99111716Y-121884728D01*
X99057550Y-121845375D01*
X98868217Y-121748904D01*
X98666129Y-121683242D01*
X98456246Y-121650000D01*
X98243754Y-121650000D01*
X98033872Y-121683242D01*
X98033869Y-121683242D01*
X97831782Y-121748904D01*
X97642439Y-121845380D01*
X97588282Y-121884727D01*
X97588282Y-121884728D01*
X98220591Y-122517037D01*
X98157007Y-122534075D01*
X98042993Y-122599901D01*
X97949901Y-122692993D01*
X97884075Y-122807007D01*
X97867037Y-122870591D01*
X97234728Y-122238282D01*
X97234727Y-122238282D01*
X97195380Y-122292440D01*
X97195376Y-122292446D01*
X97190760Y-122301505D01*
X97142781Y-122352297D01*
X97074959Y-122369087D01*
X97008826Y-122346543D01*
X96969794Y-122301493D01*
X96965051Y-122292184D01*
X96965049Y-122292181D01*
X96965048Y-122292179D01*
X96840109Y-122120213D01*
X96689786Y-121969890D01*
X96517820Y-121844951D01*
X96328414Y-121748444D01*
X96328413Y-121748443D01*
X96328412Y-121748443D01*
X96126243Y-121682754D01*
X96126241Y-121682753D01*
X96126240Y-121682753D01*
X95964957Y-121657208D01*
X95916287Y-121649500D01*
X95703713Y-121649500D01*
X95655042Y-121657208D01*
X95493760Y-121682753D01*
X95291585Y-121748444D01*
X95102179Y-121844951D01*
X94930213Y-121969890D01*
X94779890Y-122120213D01*
X94654949Y-122292182D01*
X94650484Y-122300946D01*
X94602509Y-122351742D01*
X94534688Y-122368536D01*
X94468553Y-122345998D01*
X94429516Y-122300946D01*
X94425050Y-122292182D01*
X94300109Y-122120213D01*
X94149786Y-121969890D01*
X93977820Y-121844951D01*
X93788414Y-121748444D01*
X93788413Y-121748443D01*
X93788412Y-121748443D01*
X93586243Y-121682754D01*
X93586241Y-121682753D01*
X93586240Y-121682753D01*
X93424957Y-121657208D01*
X93376287Y-121649500D01*
X93229098Y-121649500D01*
X93213951Y-121645052D01*
X93198174Y-121645582D01*
X93181114Y-121635410D01*
X93162059Y-121629815D01*
X93151722Y-121617885D01*
X93138161Y-121609800D01*
X93129308Y-121592018D01*
X93116304Y-121577011D01*
X93114057Y-121561387D01*
X93107021Y-121547254D01*
X93109186Y-121527510D01*
X93106360Y-121507853D01*
X93113014Y-121492609D01*
X93114639Y-121477801D01*
X93128542Y-121457041D01*
X93132714Y-121447486D01*
X93136807Y-121442428D01*
X93179253Y-121399983D01*
X103429500Y-121399983D01*
X103429500Y-122600001D01*
X103429501Y-122600018D01*
X103440000Y-122702796D01*
X103440001Y-122702799D01*
X103474533Y-122807007D01*
X103495186Y-122869334D01*
X103575780Y-122999999D01*
X103587289Y-123018657D01*
X103656510Y-123087878D01*
X103689995Y-123149201D01*
X103685011Y-123218893D01*
X103669148Y-123248444D01*
X103618139Y-123318651D01*
X103525244Y-123500968D01*
X103462009Y-123695582D01*
X103430000Y-123897682D01*
X103430000Y-124102317D01*
X103462009Y-124304417D01*
X103525244Y-124499031D01*
X103618141Y-124681350D01*
X103618147Y-124681359D01*
X103650523Y-124725921D01*
X103650524Y-124725922D01*
X104330000Y-124046446D01*
X104330000Y-124052661D01*
X104357259Y-124154394D01*
X104409920Y-124245606D01*
X104484394Y-124320080D01*
X104575606Y-124372741D01*
X104677339Y-124400000D01*
X104683553Y-124400000D01*
X104004076Y-125079474D01*
X104048650Y-125111859D01*
X104230968Y-125204755D01*
X104425582Y-125267990D01*
X104627683Y-125300000D01*
X104832317Y-125300000D01*
X105034417Y-125267990D01*
X105229031Y-125204755D01*
X105411349Y-125111859D01*
X105455921Y-125079474D01*
X104776447Y-124400000D01*
X104782661Y-124400000D01*
X104884394Y-124372741D01*
X104975606Y-124320080D01*
X105050080Y-124245606D01*
X105102741Y-124154394D01*
X105130000Y-124052661D01*
X105130000Y-124046447D01*
X105809474Y-124725921D01*
X105841859Y-124681349D01*
X105934755Y-124499031D01*
X105997990Y-124304417D01*
X106030000Y-124102317D01*
X106030000Y-124098543D01*
X106999499Y-124098543D01*
X107037947Y-124291829D01*
X107037950Y-124291839D01*
X107113364Y-124473907D01*
X107113371Y-124473920D01*
X107222860Y-124637781D01*
X107222863Y-124637785D01*
X107362214Y-124777136D01*
X107362218Y-124777139D01*
X107526079Y-124886628D01*
X107526092Y-124886635D01*
X107637266Y-124932684D01*
X107708165Y-124962051D01*
X107708169Y-124962051D01*
X107708170Y-124962052D01*
X107901456Y-125000500D01*
X107901459Y-125000500D01*
X108098543Y-125000500D01*
X108253351Y-124969706D01*
X108291835Y-124962051D01*
X108362734Y-124932684D01*
X108478003Y-124884939D01*
X108486179Y-124883312D01*
X108490520Y-124880523D01*
X108525455Y-124875500D01*
X108730500Y-124875500D01*
X108797539Y-124895185D01*
X108843294Y-124947989D01*
X108854500Y-124999500D01*
X108854500Y-125074336D01*
X108836039Y-125139432D01*
X108795189Y-125205659D01*
X108795185Y-125205668D01*
X108778717Y-125255366D01*
X108740001Y-125372203D01*
X108740001Y-125372204D01*
X108740000Y-125372204D01*
X108729500Y-125474983D01*
X108729500Y-126525001D01*
X108729501Y-126525019D01*
X108740000Y-126627796D01*
X108740001Y-126627799D01*
X108795185Y-126794331D01*
X108795187Y-126794336D01*
X108811149Y-126820214D01*
X108887288Y-126943656D01*
X109011344Y-127067712D01*
X109160666Y-127159814D01*
X109327203Y-127214999D01*
X109429991Y-127225500D01*
X110030008Y-127225499D01*
X110030016Y-127225498D01*
X110030019Y-127225498D01*
X110086302Y-127219748D01*
X110132797Y-127214999D01*
X110299334Y-127159814D01*
X110448656Y-127067712D01*
X110572712Y-126943656D01*
X110574752Y-126940347D01*
X110576745Y-126938555D01*
X110577193Y-126937989D01*
X110577289Y-126938065D01*
X110626694Y-126893623D01*
X110695656Y-126882395D01*
X110759740Y-126910234D01*
X110785829Y-126940339D01*
X110787681Y-126943341D01*
X110787683Y-126943344D01*
X110911654Y-127067315D01*
X111060875Y-127159356D01*
X111060880Y-127159358D01*
X111227302Y-127214505D01*
X111227309Y-127214506D01*
X111330019Y-127224999D01*
X111880000Y-127224999D01*
X111929972Y-127224999D01*
X111929986Y-127224998D01*
X112032697Y-127214505D01*
X112199119Y-127159358D01*
X112199124Y-127159356D01*
X112348345Y-127067315D01*
X112472315Y-126943345D01*
X112564356Y-126794124D01*
X112564358Y-126794119D01*
X112619505Y-126627697D01*
X112619506Y-126627690D01*
X112629999Y-126524986D01*
X112630000Y-126524973D01*
X112630000Y-126250000D01*
X111880000Y-126250000D01*
X111880000Y-127224999D01*
X111330019Y-127224999D01*
X111379999Y-127224998D01*
X111380000Y-127224998D01*
X111380000Y-125878711D01*
X192149500Y-125878711D01*
X192149500Y-126121288D01*
X192181161Y-126361785D01*
X192243947Y-126596104D01*
X192257075Y-126627797D01*
X192336776Y-126820212D01*
X192458064Y-127030289D01*
X192458066Y-127030292D01*
X192458067Y-127030293D01*
X192605733Y-127222736D01*
X192605739Y-127222743D01*
X192777256Y-127394260D01*
X192777262Y-127394265D01*
X192969711Y-127541936D01*
X193179788Y-127663224D01*
X193403900Y-127756054D01*
X193638211Y-127818838D01*
X193818586Y-127842584D01*
X193878711Y-127850500D01*
X193878712Y-127850500D01*
X194121289Y-127850500D01*
X194169388Y-127844167D01*
X194361789Y-127818838D01*
X194596100Y-127756054D01*
X194820212Y-127663224D01*
X195030289Y-127541936D01*
X195222738Y-127394265D01*
X195394265Y-127222738D01*
X195541936Y-127030289D01*
X195663224Y-126820212D01*
X195756054Y-126596100D01*
X195818838Y-126361789D01*
X195850500Y-126121288D01*
X195850500Y-125878712D01*
X195818838Y-125638211D01*
X195756054Y-125403900D01*
X195663224Y-125179788D01*
X195541936Y-124969711D01*
X195394265Y-124777262D01*
X195394260Y-124777256D01*
X195222743Y-124605739D01*
X195222736Y-124605733D01*
X195030293Y-124458067D01*
X195030292Y-124458066D01*
X195030289Y-124458064D01*
X194820212Y-124336776D01*
X194820205Y-124336773D01*
X194596104Y-124243947D01*
X194361785Y-124181161D01*
X194121289Y-124149500D01*
X194121288Y-124149500D01*
X193878712Y-124149500D01*
X193878711Y-124149500D01*
X193638214Y-124181161D01*
X193403895Y-124243947D01*
X193179794Y-124336773D01*
X193179785Y-124336777D01*
X192969706Y-124458067D01*
X192777263Y-124605733D01*
X192777256Y-124605739D01*
X192605739Y-124777256D01*
X192605733Y-124777263D01*
X192458067Y-124969706D01*
X192336777Y-125179785D01*
X192336773Y-125179794D01*
X192243947Y-125403895D01*
X192181161Y-125638214D01*
X192149500Y-125878711D01*
X111380000Y-125878711D01*
X111380000Y-125750000D01*
X111880000Y-125750000D01*
X112629999Y-125750000D01*
X112629999Y-125475028D01*
X112629998Y-125475013D01*
X112619505Y-125372302D01*
X112564358Y-125205880D01*
X112564356Y-125205875D01*
X112472315Y-125056654D01*
X112348345Y-124932684D01*
X112199124Y-124840643D01*
X112199119Y-124840641D01*
X112032697Y-124785494D01*
X112032690Y-124785493D01*
X111929986Y-124775000D01*
X111880000Y-124775000D01*
X111880000Y-125750000D01*
X111380000Y-125750000D01*
X111380000Y-124775000D01*
X111379999Y-124774999D01*
X111330029Y-124775000D01*
X111330011Y-124775001D01*
X111227302Y-124785494D01*
X111060880Y-124840641D01*
X111060875Y-124840643D01*
X110911654Y-124932684D01*
X110817181Y-125027158D01*
X110755858Y-125060643D01*
X110686166Y-125055659D01*
X110630233Y-125013787D01*
X110605816Y-124948323D01*
X110605500Y-124939477D01*
X110605500Y-124060523D01*
X110625185Y-123993484D01*
X110677989Y-123947729D01*
X110747147Y-123937785D01*
X110810703Y-123966810D01*
X110817181Y-123972842D01*
X110911654Y-124067315D01*
X111060875Y-124159356D01*
X111060880Y-124159358D01*
X111227302Y-124214505D01*
X111227309Y-124214506D01*
X111330019Y-124224999D01*
X111880000Y-124224999D01*
X111929972Y-124224999D01*
X111929986Y-124224998D01*
X112032697Y-124214505D01*
X112199119Y-124159358D01*
X112199124Y-124159356D01*
X112348345Y-124067315D01*
X112472315Y-123943345D01*
X112564356Y-123794124D01*
X112564358Y-123794119D01*
X112619505Y-123627697D01*
X112619506Y-123627690D01*
X112629999Y-123524986D01*
X112630000Y-123524973D01*
X112630000Y-123250000D01*
X111880000Y-123250000D01*
X111880000Y-124224999D01*
X111330019Y-124224999D01*
X111379999Y-124224998D01*
X111380000Y-124224998D01*
X111380000Y-122750000D01*
X111880000Y-122750000D01*
X112629999Y-122750000D01*
X112629999Y-122475028D01*
X112629998Y-122475013D01*
X112619505Y-122372302D01*
X112564358Y-122205880D01*
X112564356Y-122205875D01*
X112472315Y-122056654D01*
X112348345Y-121932684D01*
X112199124Y-121840643D01*
X112199119Y-121840641D01*
X112032697Y-121785494D01*
X112032690Y-121785493D01*
X111929986Y-121775000D01*
X111880000Y-121775000D01*
X111880000Y-122750000D01*
X111380000Y-122750000D01*
X111380000Y-121775000D01*
X111379999Y-121774999D01*
X111330029Y-121775000D01*
X111330011Y-121775001D01*
X111227302Y-121785494D01*
X111060880Y-121840641D01*
X111060875Y-121840643D01*
X110911654Y-121932684D01*
X110787683Y-122056655D01*
X110787679Y-122056660D01*
X110785826Y-122059665D01*
X110784018Y-122061290D01*
X110783202Y-122062323D01*
X110783025Y-122062183D01*
X110733874Y-122106385D01*
X110664911Y-122117601D01*
X110600831Y-122089752D01*
X110574753Y-122059653D01*
X110574737Y-122059628D01*
X110572712Y-122056344D01*
X110448656Y-121932288D01*
X110307747Y-121845375D01*
X110299336Y-121840187D01*
X110299331Y-121840185D01*
X110297862Y-121839698D01*
X110132797Y-121785001D01*
X110132795Y-121785000D01*
X110030010Y-121774500D01*
X109429998Y-121774500D01*
X109429980Y-121774501D01*
X109327203Y-121785000D01*
X109327200Y-121785001D01*
X109160668Y-121840185D01*
X109160663Y-121840187D01*
X109011342Y-121932289D01*
X108887289Y-122056342D01*
X108795187Y-122205663D01*
X108795185Y-122205668D01*
X108795115Y-122205880D01*
X108740001Y-122372203D01*
X108740001Y-122372204D01*
X108740000Y-122372204D01*
X108729500Y-122474983D01*
X108729500Y-122710993D01*
X108709815Y-122778032D01*
X108693181Y-122798674D01*
X108465023Y-123026831D01*
X108403700Y-123060316D01*
X108334008Y-123055332D01*
X108329892Y-123053712D01*
X108291835Y-123037949D01*
X108291828Y-123037947D01*
X108098543Y-122999500D01*
X108098541Y-122999500D01*
X107901459Y-122999500D01*
X107901457Y-122999500D01*
X107708170Y-123037947D01*
X107708160Y-123037950D01*
X107526092Y-123113364D01*
X107526079Y-123113371D01*
X107362218Y-123222860D01*
X107362214Y-123222863D01*
X107222863Y-123362214D01*
X107222860Y-123362218D01*
X107113371Y-123526079D01*
X107113364Y-123526092D01*
X107037950Y-123708160D01*
X107037947Y-123708170D01*
X106999500Y-123901456D01*
X106999500Y-123901459D01*
X106999500Y-124098541D01*
X106999500Y-124098543D01*
X106999499Y-124098543D01*
X106030000Y-124098543D01*
X106030000Y-123897682D01*
X105997990Y-123695582D01*
X105934755Y-123500968D01*
X105841857Y-123318646D01*
X105790853Y-123248446D01*
X105767372Y-123182640D01*
X105783197Y-123114586D01*
X105803489Y-123087879D01*
X105837656Y-123053712D01*
X105872712Y-123018656D01*
X105964814Y-122869334D01*
X106019999Y-122702797D01*
X106030500Y-122600009D01*
X106030499Y-121399992D01*
X106019999Y-121297203D01*
X105964814Y-121130666D01*
X105872712Y-120981344D01*
X105748656Y-120857288D01*
X105638718Y-120789478D01*
X105599336Y-120765187D01*
X105599331Y-120765185D01*
X105587501Y-120761265D01*
X105432797Y-120710001D01*
X105432795Y-120710000D01*
X105330010Y-120699500D01*
X104129998Y-120699500D01*
X104129981Y-120699501D01*
X104027203Y-120710000D01*
X104027200Y-120710001D01*
X103860668Y-120765185D01*
X103860663Y-120765187D01*
X103711342Y-120857289D01*
X103587289Y-120981342D01*
X103495187Y-121130663D01*
X103495186Y-121130666D01*
X103440001Y-121297203D01*
X103440001Y-121297204D01*
X103440000Y-121297204D01*
X103429500Y-121399983D01*
X93179253Y-121399983D01*
X93200520Y-121378716D01*
X93250639Y-121291904D01*
X93279577Y-121241785D01*
X93320501Y-121089057D01*
X93320501Y-120930943D01*
X93320501Y-120923348D01*
X93320500Y-120923330D01*
X93320500Y-116747030D01*
X93340185Y-116679991D01*
X93392989Y-116634236D01*
X93426465Y-116625564D01*
X93426312Y-116624726D01*
X93432545Y-116623587D01*
X93432548Y-116623587D01*
X93432550Y-116623586D01*
X93432552Y-116623586D01*
X93474323Y-116611449D01*
X93590959Y-116577564D01*
X93732947Y-116493592D01*
X93849592Y-116376947D01*
X93883268Y-116320003D01*
X93934337Y-116272321D01*
X94003079Y-116259817D01*
X94067668Y-116286462D01*
X94096732Y-116320004D01*
X94130406Y-116376944D01*
X94130412Y-116376952D01*
X94247047Y-116493587D01*
X94247051Y-116493590D01*
X94247053Y-116493592D01*
X94389041Y-116577564D01*
X94430816Y-116589701D01*
X94547447Y-116623586D01*
X94547450Y-116623586D01*
X94547452Y-116623587D01*
X94584466Y-116626500D01*
X94584474Y-116626500D01*
X95935526Y-116626500D01*
X95935534Y-116626500D01*
X95972548Y-116623587D01*
X95972550Y-116623586D01*
X95972552Y-116623586D01*
X96014323Y-116611449D01*
X96130959Y-116577564D01*
X96272947Y-116493592D01*
X96389592Y-116376947D01*
X96473564Y-116234959D01*
X96519587Y-116076548D01*
X96522500Y-116039534D01*
X96522500Y-114964500D01*
X96542185Y-114897461D01*
X96594989Y-114851706D01*
X96646500Y-114840500D01*
X98673331Y-114840500D01*
X98673347Y-114840501D01*
X98680943Y-114840501D01*
X98839054Y-114840501D01*
X98839057Y-114840501D01*
X98991785Y-114799577D01*
X99041904Y-114770639D01*
X99128716Y-114720520D01*
X99240520Y-114608716D01*
X99240520Y-114608714D01*
X99250728Y-114598507D01*
X99250730Y-114598504D01*
X99715521Y-114133713D01*
X103649500Y-114133713D01*
X103649500Y-114346287D01*
X103682754Y-114556243D01*
X103741857Y-114738144D01*
X103748444Y-114758414D01*
X103844951Y-114947820D01*
X103969890Y-115119786D01*
X104120213Y-115270109D01*
X104292179Y-115395048D01*
X104292181Y-115395049D01*
X104292184Y-115395051D01*
X104481588Y-115491557D01*
X104683757Y-115557246D01*
X104893713Y-115590500D01*
X104893714Y-115590500D01*
X105106286Y-115590500D01*
X105106287Y-115590500D01*
X105316243Y-115557246D01*
X105518412Y-115491557D01*
X105707816Y-115395051D01*
X105762572Y-115355269D01*
X105879786Y-115270109D01*
X105879788Y-115270106D01*
X105879792Y-115270104D01*
X106030104Y-115119792D01*
X106030106Y-115119788D01*
X106030109Y-115119786D01*
X106155048Y-114947820D01*
X106155047Y-114947820D01*
X106155051Y-114947816D01*
X106159514Y-114939054D01*
X106207488Y-114888259D01*
X106275308Y-114871463D01*
X106341444Y-114893999D01*
X106380486Y-114939056D01*
X106384951Y-114947820D01*
X106509890Y-115119786D01*
X106660213Y-115270109D01*
X106832179Y-115395048D01*
X106832181Y-115395049D01*
X106832184Y-115395051D01*
X107021588Y-115491557D01*
X107223757Y-115557246D01*
X107433713Y-115590500D01*
X107433714Y-115590500D01*
X107646286Y-115590500D01*
X107646287Y-115590500D01*
X107856243Y-115557246D01*
X108058412Y-115491557D01*
X108247816Y-115395051D01*
X108302572Y-115355269D01*
X108419786Y-115270109D01*
X108419788Y-115270106D01*
X108419792Y-115270104D01*
X108570104Y-115119792D01*
X108570106Y-115119788D01*
X108570109Y-115119786D01*
X108695048Y-114947820D01*
X108695047Y-114947820D01*
X108695051Y-114947816D01*
X108699514Y-114939054D01*
X108747488Y-114888259D01*
X108815308Y-114871463D01*
X108881444Y-114893999D01*
X108920486Y-114939056D01*
X108924951Y-114947820D01*
X109049890Y-115119786D01*
X109200213Y-115270109D01*
X109372184Y-115395051D01*
X109372184Y-115395052D01*
X109411793Y-115415233D01*
X109462590Y-115463206D01*
X109479500Y-115525718D01*
X109479500Y-115993330D01*
X109479499Y-115993348D01*
X109479499Y-116159054D01*
X109479498Y-116159054D01*
X109520423Y-116311785D01*
X109549358Y-116361900D01*
X109549359Y-116361904D01*
X109549360Y-116361904D01*
X109599479Y-116448714D01*
X109599481Y-116448717D01*
X109718349Y-116567585D01*
X109718355Y-116567590D01*
X111515139Y-118364374D01*
X111515149Y-118364385D01*
X111519479Y-118368715D01*
X111519480Y-118368716D01*
X111631284Y-118480520D01*
X111631286Y-118480521D01*
X111631290Y-118480524D01*
X111699618Y-118519973D01*
X111699622Y-118519974D01*
X111699623Y-118519975D01*
X111768215Y-118559577D01*
X111920943Y-118600501D01*
X111920946Y-118600501D01*
X112086653Y-118600501D01*
X112086669Y-118600500D01*
X119699903Y-118600500D01*
X119766942Y-118620185D01*
X119787584Y-118636819D01*
X122633181Y-121482416D01*
X122647884Y-121509343D01*
X122664477Y-121535162D01*
X122665368Y-121541362D01*
X122666666Y-121543739D01*
X122669500Y-121570097D01*
X122669500Y-121714281D01*
X122649815Y-121781320D01*
X122601795Y-121824765D01*
X122562185Y-121844947D01*
X122562184Y-121844948D01*
X122390213Y-121969890D01*
X122239890Y-122120213D01*
X122114949Y-122292182D01*
X122110202Y-122301499D01*
X122062227Y-122352293D01*
X121994405Y-122369087D01*
X121928271Y-122346548D01*
X121889234Y-122301495D01*
X121884626Y-122292452D01*
X121845270Y-122238282D01*
X121845269Y-122238282D01*
X121212962Y-122870590D01*
X121195925Y-122807007D01*
X121130099Y-122692993D01*
X121037007Y-122599901D01*
X120922993Y-122534075D01*
X120859409Y-122517037D01*
X121491716Y-121884728D01*
X121437550Y-121845375D01*
X121248217Y-121748904D01*
X121046129Y-121683242D01*
X120836246Y-121650000D01*
X120623754Y-121650000D01*
X120413872Y-121683242D01*
X120413869Y-121683242D01*
X120211782Y-121748904D01*
X120022439Y-121845380D01*
X119968282Y-121884727D01*
X119968282Y-121884728D01*
X120600591Y-122517037D01*
X120537007Y-122534075D01*
X120422993Y-122599901D01*
X120329901Y-122692993D01*
X120264075Y-122807007D01*
X120247037Y-122870591D01*
X119576818Y-122200372D01*
X119543333Y-122139049D01*
X119543330Y-122139036D01*
X119540499Y-122126015D01*
X119540499Y-122102128D01*
X119534091Y-122042517D01*
X119492979Y-121932289D01*
X119483798Y-121907673D01*
X119483793Y-121907664D01*
X119397547Y-121792455D01*
X119397544Y-121792452D01*
X119282335Y-121706206D01*
X119282328Y-121706202D01*
X119147482Y-121655908D01*
X119147483Y-121655908D01*
X119087883Y-121649501D01*
X119087881Y-121649500D01*
X119087873Y-121649500D01*
X119087864Y-121649500D01*
X117292129Y-121649500D01*
X117292123Y-121649501D01*
X117232516Y-121655908D01*
X117097671Y-121706202D01*
X117097664Y-121706206D01*
X116982455Y-121792452D01*
X116982452Y-121792455D01*
X116896206Y-121907664D01*
X116896202Y-121907671D01*
X116845908Y-122042517D01*
X116839501Y-122102116D01*
X116839500Y-122102135D01*
X116839500Y-123897870D01*
X116839501Y-123897876D01*
X116845908Y-123957483D01*
X116896202Y-124092328D01*
X116896206Y-124092335D01*
X116982452Y-124207544D01*
X116982455Y-124207547D01*
X117097664Y-124293793D01*
X117097671Y-124293797D01*
X117232513Y-124344090D01*
X117232514Y-124344090D01*
X117232517Y-124344091D01*
X117239495Y-124344841D01*
X117304044Y-124371575D01*
X117343895Y-124428966D01*
X117347859Y-124443938D01*
X117348143Y-124445368D01*
X117348146Y-124445378D01*
X117414138Y-124604698D01*
X117414145Y-124604711D01*
X117509954Y-124748098D01*
X117509957Y-124748102D01*
X118441897Y-125680042D01*
X118441901Y-125680045D01*
X118585288Y-125775854D01*
X118585301Y-125775861D01*
X118744621Y-125841853D01*
X118744626Y-125841855D01*
X118913766Y-125875499D01*
X118913769Y-125875500D01*
X118913771Y-125875500D01*
X130736231Y-125875500D01*
X130736232Y-125875499D01*
X130905374Y-125841855D01*
X131064705Y-125775858D01*
X131208099Y-125680045D01*
X131746993Y-125141149D01*
X131808316Y-125107665D01*
X131878007Y-125112649D01*
X131933941Y-125154520D01*
X131937776Y-125159940D01*
X131969954Y-125208099D01*
X132441897Y-125680042D01*
X132441901Y-125680045D01*
X132585288Y-125775854D01*
X132585301Y-125775861D01*
X132744621Y-125841853D01*
X132744626Y-125841855D01*
X132913766Y-125875499D01*
X132913769Y-125875500D01*
X132913771Y-125875500D01*
X161086231Y-125875500D01*
X161086232Y-125875499D01*
X161255374Y-125841855D01*
X161414705Y-125775858D01*
X161417514Y-125773980D01*
X161421153Y-125771550D01*
X161421153Y-125771549D01*
X161558099Y-125680045D01*
X161680045Y-125558099D01*
X161775858Y-125414705D01*
X161841855Y-125255374D01*
X161875500Y-125086229D01*
X161875500Y-114913771D01*
X161875500Y-114913768D01*
X161875499Y-114913766D01*
X161866975Y-114870911D01*
X161841855Y-114744626D01*
X161798559Y-114640099D01*
X161775861Y-114585301D01*
X161775854Y-114585288D01*
X161680046Y-114441902D01*
X161671137Y-114432993D01*
X161558099Y-114319955D01*
X160966963Y-113728819D01*
X160933478Y-113667496D01*
X160936713Y-113602819D01*
X160949709Y-113562826D01*
X160963393Y-113476422D01*
X160980500Y-113368422D01*
X160980500Y-113309006D01*
X161000185Y-113241967D01*
X161016819Y-113221325D01*
X161880042Y-112358102D01*
X161880045Y-112358099D01*
X161975858Y-112214705D01*
X162041855Y-112055374D01*
X162075500Y-111886229D01*
X162075500Y-111713771D01*
X162075500Y-95921153D01*
X167199500Y-95921153D01*
X167199500Y-96078846D01*
X167230261Y-96233489D01*
X167230264Y-96233501D01*
X167290602Y-96379172D01*
X167290609Y-96379185D01*
X167378210Y-96510288D01*
X167378213Y-96510292D01*
X167489707Y-96621786D01*
X167489711Y-96621789D01*
X167620814Y-96709390D01*
X167620827Y-96709397D01*
X167766498Y-96769735D01*
X167766503Y-96769737D01*
X167921153Y-96800499D01*
X167921156Y-96800500D01*
X167921158Y-96800500D01*
X168078844Y-96800500D01*
X168078845Y-96800499D01*
X168233497Y-96769737D01*
X168379179Y-96709394D01*
X168510289Y-96621789D01*
X168621789Y-96510289D01*
X168709394Y-96379179D01*
X168769737Y-96233497D01*
X168800500Y-96078842D01*
X168800500Y-95921158D01*
X168800500Y-95921155D01*
X168800499Y-95921153D01*
X168778440Y-95810256D01*
X168769737Y-95766503D01*
X168755149Y-95731284D01*
X168709397Y-95620827D01*
X168709390Y-95620814D01*
X168621398Y-95489125D01*
X168600520Y-95422447D01*
X168600500Y-95420234D01*
X168600500Y-92300097D01*
X168620185Y-92233058D01*
X168636819Y-92212416D01*
X169212417Y-91636819D01*
X169273740Y-91603334D01*
X169300098Y-91600500D01*
X179913331Y-91600500D01*
X179913347Y-91600501D01*
X179920943Y-91600501D01*
X180079054Y-91600501D01*
X180079057Y-91600501D01*
X180231785Y-91559577D01*
X180297637Y-91521557D01*
X180368716Y-91480520D01*
X180480520Y-91368716D01*
X180480520Y-91368714D01*
X180490724Y-91358511D01*
X180490728Y-91358506D01*
X182358506Y-89490728D01*
X182358511Y-89490724D01*
X182368714Y-89480520D01*
X182368716Y-89480520D01*
X182480520Y-89368716D01*
X182545217Y-89256657D01*
X182559577Y-89231785D01*
X182600500Y-89079057D01*
X182600500Y-88920943D01*
X182600500Y-86402704D01*
X182620185Y-86335665D01*
X182672989Y-86289910D01*
X182686183Y-86284773D01*
X182693687Y-86282335D01*
X182788412Y-86251557D01*
X182977816Y-86155051D01*
X183064138Y-86092335D01*
X183149786Y-86030109D01*
X183149788Y-86030106D01*
X183149792Y-86030104D01*
X183300104Y-85879792D01*
X183300106Y-85879788D01*
X183300109Y-85879786D01*
X183375339Y-85776239D01*
X183425051Y-85707816D01*
X183429793Y-85698508D01*
X183477763Y-85647711D01*
X183545583Y-85630911D01*
X183611719Y-85653445D01*
X183650763Y-85698500D01*
X183655373Y-85707547D01*
X183694728Y-85761716D01*
X184327037Y-85129408D01*
X184344075Y-85192993D01*
X184409901Y-85307007D01*
X184502993Y-85400099D01*
X184617007Y-85465925D01*
X184680590Y-85482962D01*
X184048282Y-86115269D01*
X184048282Y-86115270D01*
X184102449Y-86154624D01*
X184291782Y-86251095D01*
X184493870Y-86316757D01*
X184703754Y-86350000D01*
X184916246Y-86350000D01*
X185126127Y-86316757D01*
X185126130Y-86316757D01*
X185328217Y-86251095D01*
X185517554Y-86154622D01*
X185571716Y-86115270D01*
X185571717Y-86115270D01*
X184939408Y-85482962D01*
X185002993Y-85465925D01*
X185117007Y-85400099D01*
X185210099Y-85307007D01*
X185275925Y-85192993D01*
X185292962Y-85129408D01*
X185963181Y-85799628D01*
X185996666Y-85860951D01*
X185999500Y-85887300D01*
X185999500Y-85897865D01*
X185999501Y-85897876D01*
X186005908Y-85957483D01*
X186056202Y-86092328D01*
X186056206Y-86092335D01*
X186142452Y-86207544D01*
X186142455Y-86207547D01*
X186257664Y-86293793D01*
X186257671Y-86293797D01*
X186392517Y-86344091D01*
X186392516Y-86344091D01*
X186399444Y-86344835D01*
X186452127Y-86350500D01*
X188247872Y-86350499D01*
X188307483Y-86344091D01*
X188442331Y-86293796D01*
X188557546Y-86207546D01*
X188643796Y-86092331D01*
X188694091Y-85957483D01*
X188700500Y-85897873D01*
X188700499Y-84102128D01*
X188694091Y-84042517D01*
X188692967Y-84039504D01*
X188643797Y-83907671D01*
X188643793Y-83907664D01*
X188557547Y-83792455D01*
X188557544Y-83792452D01*
X188442335Y-83706206D01*
X188442328Y-83706202D01*
X188307482Y-83655908D01*
X188307483Y-83655908D01*
X188247883Y-83649501D01*
X188247881Y-83649500D01*
X188247873Y-83649500D01*
X188247864Y-83649500D01*
X186452129Y-83649500D01*
X186452123Y-83649501D01*
X186392516Y-83655908D01*
X186257671Y-83706202D01*
X186257664Y-83706206D01*
X186142455Y-83792452D01*
X186142452Y-83792455D01*
X186056206Y-83907664D01*
X186056202Y-83907671D01*
X186005908Y-84042517D01*
X185999980Y-84097664D01*
X185999501Y-84102123D01*
X185999500Y-84102135D01*
X185999500Y-84112690D01*
X185979815Y-84179729D01*
X185963181Y-84200371D01*
X185292962Y-84870590D01*
X185275925Y-84807007D01*
X185210099Y-84692993D01*
X185117007Y-84599901D01*
X185002993Y-84534075D01*
X184939409Y-84517037D01*
X185571716Y-83884728D01*
X185517550Y-83845375D01*
X185328217Y-83748904D01*
X185126129Y-83683242D01*
X184916246Y-83650000D01*
X184703754Y-83650000D01*
X184493872Y-83683242D01*
X184493869Y-83683242D01*
X184291782Y-83748904D01*
X184102439Y-83845380D01*
X184048282Y-83884727D01*
X184048282Y-83884728D01*
X184680591Y-84517037D01*
X184617007Y-84534075D01*
X184502993Y-84599901D01*
X184409901Y-84692993D01*
X184344075Y-84807007D01*
X184327037Y-84870591D01*
X183694728Y-84238282D01*
X183694727Y-84238282D01*
X183655380Y-84292440D01*
X183655376Y-84292446D01*
X183650760Y-84301505D01*
X183602781Y-84352297D01*
X183534959Y-84369087D01*
X183468826Y-84346543D01*
X183429794Y-84301493D01*
X183425051Y-84292184D01*
X183425049Y-84292181D01*
X183425048Y-84292179D01*
X183300109Y-84120213D01*
X183149786Y-83969890D01*
X182977820Y-83844951D01*
X182788414Y-83748444D01*
X182788413Y-83748443D01*
X182788412Y-83748443D01*
X182586243Y-83682754D01*
X182586241Y-83682753D01*
X182586240Y-83682753D01*
X182424957Y-83657208D01*
X182376287Y-83649500D01*
X182163713Y-83649500D01*
X182115042Y-83657208D01*
X181953760Y-83682753D01*
X181852672Y-83715598D01*
X181763336Y-83744626D01*
X181751585Y-83748444D01*
X181562179Y-83844951D01*
X181390213Y-83969890D01*
X181239890Y-84120213D01*
X181114949Y-84292182D01*
X181110484Y-84300946D01*
X181062509Y-84351742D01*
X180994688Y-84368536D01*
X180928553Y-84345998D01*
X180889516Y-84300946D01*
X180885050Y-84292182D01*
X180760109Y-84120213D01*
X180609786Y-83969890D01*
X180437820Y-83844951D01*
X180248414Y-83748444D01*
X180248413Y-83748443D01*
X180248412Y-83748443D01*
X180046243Y-83682754D01*
X180046241Y-83682753D01*
X180046240Y-83682753D01*
X179884957Y-83657208D01*
X179836287Y-83649500D01*
X179623713Y-83649500D01*
X179575042Y-83657208D01*
X179413760Y-83682753D01*
X179312672Y-83715598D01*
X179223336Y-83744626D01*
X179211585Y-83748444D01*
X179022179Y-83844951D01*
X178850213Y-83969890D01*
X178699890Y-84120213D01*
X178574949Y-84292182D01*
X178570484Y-84300946D01*
X178522509Y-84351742D01*
X178454688Y-84368536D01*
X178388553Y-84345998D01*
X178349516Y-84300946D01*
X178345050Y-84292182D01*
X178220109Y-84120213D01*
X178069786Y-83969890D01*
X177897820Y-83844951D01*
X177708414Y-83748444D01*
X177708413Y-83748443D01*
X177708412Y-83748443D01*
X177506243Y-83682754D01*
X177506241Y-83682753D01*
X177506240Y-83682753D01*
X177344957Y-83657208D01*
X177296287Y-83649500D01*
X177083713Y-83649500D01*
X177035042Y-83657208D01*
X176873760Y-83682753D01*
X176772672Y-83715598D01*
X176683336Y-83744626D01*
X176671585Y-83748444D01*
X176482179Y-83844951D01*
X176310213Y-83969890D01*
X176159890Y-84120213D01*
X176034949Y-84292182D01*
X176030484Y-84300946D01*
X175982509Y-84351742D01*
X175914688Y-84368536D01*
X175848553Y-84345998D01*
X175809516Y-84300946D01*
X175805050Y-84292182D01*
X175680109Y-84120213D01*
X175529786Y-83969890D01*
X175357820Y-83844951D01*
X175168414Y-83748444D01*
X175168413Y-83748443D01*
X175168412Y-83748443D01*
X174966243Y-83682754D01*
X174966241Y-83682753D01*
X174966240Y-83682753D01*
X174804957Y-83657208D01*
X174756287Y-83649500D01*
X174543713Y-83649500D01*
X174495042Y-83657208D01*
X174333760Y-83682753D01*
X174232672Y-83715598D01*
X174143336Y-83744626D01*
X174131585Y-83748444D01*
X173942179Y-83844951D01*
X173770213Y-83969890D01*
X173619890Y-84120213D01*
X173494951Y-84292179D01*
X173398444Y-84481585D01*
X173332753Y-84683760D01*
X173305663Y-84854804D01*
X173299500Y-84893713D01*
X173299500Y-85106287D01*
X173305664Y-85145202D01*
X173331793Y-85310179D01*
X173332754Y-85316243D01*
X173394021Y-85504804D01*
X173398444Y-85518414D01*
X173494951Y-85707820D01*
X173619890Y-85879786D01*
X173770213Y-86030109D01*
X173942179Y-86155048D01*
X173942181Y-86155049D01*
X173942184Y-86155051D01*
X174131588Y-86251557D01*
X174333757Y-86317246D01*
X174543713Y-86350500D01*
X174543714Y-86350500D01*
X174756286Y-86350500D01*
X174756287Y-86350500D01*
X174966243Y-86317246D01*
X175168412Y-86251557D01*
X175357816Y-86155051D01*
X175444138Y-86092335D01*
X175529786Y-86030109D01*
X175529788Y-86030106D01*
X175529792Y-86030104D01*
X175680104Y-85879792D01*
X175680106Y-85879788D01*
X175680109Y-85879786D01*
X175805048Y-85707820D01*
X175805047Y-85707820D01*
X175805051Y-85707816D01*
X175809514Y-85699054D01*
X175857488Y-85648259D01*
X175925308Y-85631463D01*
X175991444Y-85653999D01*
X176030486Y-85699056D01*
X176034951Y-85707820D01*
X176159890Y-85879786D01*
X176310213Y-86030109D01*
X176482179Y-86155048D01*
X176482181Y-86155049D01*
X176482184Y-86155051D01*
X176671588Y-86251557D01*
X176873757Y-86317246D01*
X177083713Y-86350500D01*
X177083714Y-86350500D01*
X177296286Y-86350500D01*
X177296287Y-86350500D01*
X177506243Y-86317246D01*
X177708412Y-86251557D01*
X177897816Y-86155051D01*
X177984138Y-86092335D01*
X178069786Y-86030109D01*
X178069788Y-86030106D01*
X178069792Y-86030104D01*
X178220104Y-85879792D01*
X178220106Y-85879788D01*
X178220109Y-85879786D01*
X178345048Y-85707820D01*
X178345047Y-85707820D01*
X178345051Y-85707816D01*
X178349514Y-85699054D01*
X178397488Y-85648259D01*
X178465308Y-85631463D01*
X178531444Y-85653999D01*
X178570486Y-85699056D01*
X178574951Y-85707820D01*
X178699890Y-85879786D01*
X178850213Y-86030109D01*
X179022179Y-86155048D01*
X179022181Y-86155049D01*
X179022184Y-86155051D01*
X179211588Y-86251557D01*
X179413757Y-86317246D01*
X179623713Y-86350500D01*
X179623714Y-86350500D01*
X179836286Y-86350500D01*
X179836287Y-86350500D01*
X180046243Y-86317246D01*
X180248412Y-86251557D01*
X180437816Y-86155051D01*
X180524138Y-86092335D01*
X180609786Y-86030109D01*
X180609788Y-86030106D01*
X180609792Y-86030104D01*
X180760104Y-85879792D01*
X180760106Y-85879788D01*
X180760109Y-85879786D01*
X180885048Y-85707820D01*
X180885047Y-85707820D01*
X180885051Y-85707816D01*
X180889514Y-85699054D01*
X180937488Y-85648259D01*
X181005308Y-85631463D01*
X181071444Y-85653999D01*
X181110486Y-85699056D01*
X181114951Y-85707820D01*
X181239890Y-85879786D01*
X181363181Y-86003077D01*
X181396666Y-86064400D01*
X181399500Y-86090758D01*
X181399500Y-88699903D01*
X181379815Y-88766942D01*
X181363181Y-88787584D01*
X179787584Y-90363181D01*
X179726261Y-90396666D01*
X179699903Y-90399500D01*
X169086670Y-90399500D01*
X169086654Y-90399499D01*
X169079058Y-90399499D01*
X168920943Y-90399499D01*
X168846934Y-90419330D01*
X168768214Y-90440423D01*
X168768209Y-90440426D01*
X168631290Y-90519475D01*
X168631282Y-90519481D01*
X167519481Y-91631282D01*
X167519479Y-91631285D01*
X167494420Y-91674689D01*
X167472397Y-91712836D01*
X167469361Y-91718094D01*
X167469359Y-91718096D01*
X167440425Y-91768209D01*
X167440424Y-91768210D01*
X167437293Y-91779896D01*
X167399499Y-91920943D01*
X167399499Y-91920945D01*
X167399499Y-92089046D01*
X167399500Y-92089059D01*
X167399500Y-95420234D01*
X167379815Y-95487273D01*
X167378602Y-95489125D01*
X167290609Y-95620814D01*
X167290602Y-95620827D01*
X167230264Y-95766498D01*
X167230261Y-95766510D01*
X167199500Y-95921153D01*
X162075500Y-95921153D01*
X162075500Y-90486867D01*
X162095185Y-90419828D01*
X162114386Y-90398656D01*
X162113549Y-90397819D01*
X162148187Y-90363181D01*
X162242712Y-90268656D01*
X162334814Y-90119334D01*
X162389999Y-89952797D01*
X162400500Y-89850009D01*
X162400499Y-88149992D01*
X162389999Y-88047203D01*
X162334814Y-87880666D01*
X162242712Y-87731344D01*
X162118656Y-87607288D01*
X162117762Y-87606737D01*
X162111969Y-87600963D01*
X162098455Y-87576315D01*
X162082212Y-87553375D01*
X162080609Y-87543764D01*
X162078379Y-87539697D01*
X162078836Y-87533138D01*
X162075500Y-87513132D01*
X162075500Y-86486867D01*
X162095185Y-86419828D01*
X162114386Y-86398656D01*
X162113549Y-86397819D01*
X162176653Y-86334715D01*
X162242712Y-86268656D01*
X162334814Y-86119334D01*
X162383754Y-85971642D01*
X162423525Y-85914199D01*
X162488041Y-85887376D01*
X162548911Y-85896087D01*
X162697134Y-85957482D01*
X162708165Y-85962051D01*
X162708169Y-85962051D01*
X162708170Y-85962052D01*
X162901456Y-86000500D01*
X162901459Y-86000500D01*
X163098543Y-86000500D01*
X163268327Y-85966727D01*
X163291835Y-85962051D01*
X163473914Y-85886632D01*
X163473918Y-85886629D01*
X163478047Y-85884919D01*
X163547516Y-85877450D01*
X163609996Y-85908725D01*
X163645648Y-85968814D01*
X163649500Y-85999479D01*
X163649500Y-86087869D01*
X163649501Y-86087876D01*
X163655908Y-86147483D01*
X163706202Y-86282328D01*
X163706206Y-86282335D01*
X163792452Y-86397544D01*
X163792455Y-86397547D01*
X163907664Y-86483793D01*
X163907671Y-86483797D01*
X163924584Y-86490105D01*
X164042517Y-86534091D01*
X164102127Y-86540500D01*
X164112685Y-86540499D01*
X164179723Y-86560179D01*
X164200372Y-86576818D01*
X164870591Y-87247037D01*
X164807007Y-87264075D01*
X164692993Y-87329901D01*
X164599901Y-87422993D01*
X164534075Y-87537007D01*
X164517037Y-87600591D01*
X163884728Y-86968282D01*
X163884727Y-86968282D01*
X163845380Y-87022439D01*
X163748904Y-87211782D01*
X163683242Y-87413869D01*
X163683242Y-87413872D01*
X163650000Y-87623753D01*
X163650000Y-87836246D01*
X163683242Y-88046127D01*
X163683242Y-88046130D01*
X163748904Y-88248217D01*
X163845375Y-88437550D01*
X163884728Y-88491716D01*
X164517037Y-87859408D01*
X164534075Y-87922993D01*
X164599901Y-88037007D01*
X164692993Y-88130099D01*
X164807007Y-88195925D01*
X164870590Y-88212962D01*
X164238282Y-88845269D01*
X164238282Y-88845270D01*
X164292452Y-88884626D01*
X164292451Y-88884626D01*
X164301495Y-88889234D01*
X164352292Y-88937208D01*
X164369087Y-89005029D01*
X164346550Y-89071164D01*
X164301499Y-89110202D01*
X164292182Y-89114949D01*
X164120213Y-89239890D01*
X163969890Y-89390213D01*
X163844951Y-89562179D01*
X163748444Y-89751585D01*
X163682753Y-89953760D01*
X163656530Y-90119330D01*
X163649500Y-90163713D01*
X163649500Y-90376287D01*
X163653177Y-90399500D01*
X163682753Y-90586239D01*
X163748444Y-90788414D01*
X163844951Y-90977820D01*
X163969890Y-91149786D01*
X164120213Y-91300109D01*
X164292182Y-91425050D01*
X164300946Y-91429516D01*
X164351742Y-91477491D01*
X164368536Y-91545312D01*
X164345998Y-91611447D01*
X164300946Y-91650484D01*
X164292182Y-91654949D01*
X164120213Y-91779890D01*
X163969890Y-91930213D01*
X163844951Y-92102179D01*
X163748444Y-92291585D01*
X163682753Y-92493760D01*
X163649500Y-92703713D01*
X163649500Y-92916286D01*
X163678347Y-93098422D01*
X163682754Y-93126243D01*
X163736880Y-93292826D01*
X163748444Y-93328414D01*
X163844951Y-93517820D01*
X163969890Y-93689786D01*
X164120213Y-93840109D01*
X164292179Y-93965048D01*
X164292181Y-93965049D01*
X164292184Y-93965051D01*
X164481588Y-94061557D01*
X164683757Y-94127246D01*
X164893713Y-94160500D01*
X164893714Y-94160500D01*
X165106286Y-94160500D01*
X165106287Y-94160500D01*
X165316243Y-94127246D01*
X165518412Y-94061557D01*
X165707816Y-93965051D01*
X165729789Y-93949086D01*
X165879786Y-93840109D01*
X165879788Y-93840106D01*
X165879792Y-93840104D01*
X166030104Y-93689792D01*
X166030106Y-93689788D01*
X166030109Y-93689786D01*
X166155048Y-93517820D01*
X166155047Y-93517820D01*
X166155051Y-93517816D01*
X166251557Y-93328412D01*
X166317246Y-93126243D01*
X166350500Y-92916287D01*
X166350500Y-92703713D01*
X166317246Y-92493757D01*
X166251557Y-92291588D01*
X166155051Y-92102184D01*
X166155049Y-92102181D01*
X166155048Y-92102179D01*
X166030109Y-91930213D01*
X165879786Y-91779890D01*
X165707820Y-91654951D01*
X165707115Y-91654591D01*
X165699054Y-91650485D01*
X165648259Y-91602512D01*
X165631463Y-91534692D01*
X165653999Y-91468556D01*
X165699054Y-91429515D01*
X165707816Y-91425051D01*
X165785359Y-91368713D01*
X165879786Y-91300109D01*
X165879788Y-91300106D01*
X165879792Y-91300104D01*
X166030104Y-91149792D01*
X166030106Y-91149788D01*
X166030109Y-91149786D01*
X166155048Y-90977820D01*
X166155047Y-90977820D01*
X166155051Y-90977816D01*
X166251557Y-90788412D01*
X166317246Y-90586243D01*
X166350500Y-90376287D01*
X166350500Y-90163713D01*
X166317246Y-89953757D01*
X166251557Y-89751588D01*
X166155051Y-89562184D01*
X166155049Y-89562181D01*
X166155048Y-89562179D01*
X166030109Y-89390213D01*
X165879786Y-89239890D01*
X165707817Y-89114949D01*
X165698504Y-89110204D01*
X165647707Y-89062230D01*
X165630912Y-88994409D01*
X165653449Y-88928274D01*
X165698507Y-88889232D01*
X165707555Y-88884622D01*
X165761716Y-88845270D01*
X165761717Y-88845270D01*
X165129408Y-88212962D01*
X165192993Y-88195925D01*
X165307007Y-88130099D01*
X165400099Y-88037007D01*
X165465925Y-87922993D01*
X165482962Y-87859408D01*
X166115270Y-88491717D01*
X166115270Y-88491716D01*
X166154622Y-88437554D01*
X166251095Y-88248217D01*
X166316757Y-88046130D01*
X166316757Y-88046127D01*
X166350000Y-87836246D01*
X166350000Y-87623753D01*
X166316757Y-87413872D01*
X166316757Y-87413869D01*
X166251095Y-87211782D01*
X166154624Y-87022449D01*
X166115270Y-86968282D01*
X166115269Y-86968282D01*
X165482962Y-87600590D01*
X165465925Y-87537007D01*
X165400099Y-87422993D01*
X165307007Y-87329901D01*
X165192993Y-87264075D01*
X165129409Y-87247037D01*
X165799627Y-86576818D01*
X165860950Y-86543333D01*
X165887307Y-86540499D01*
X165897872Y-86540499D01*
X165957483Y-86534091D01*
X166092331Y-86483796D01*
X166207546Y-86397546D01*
X166293796Y-86282331D01*
X166344091Y-86147483D01*
X166350500Y-86087873D01*
X166350499Y-84292128D01*
X166344091Y-84232517D01*
X166335112Y-84208444D01*
X166293797Y-84097671D01*
X166293793Y-84097664D01*
X166207547Y-83982455D01*
X166207544Y-83982452D01*
X166092335Y-83896206D01*
X166092328Y-83896202D01*
X165957483Y-83845908D01*
X165950500Y-83845158D01*
X165885949Y-83818419D01*
X165846102Y-83761026D01*
X165842140Y-83746061D01*
X165841855Y-83744626D01*
X165816227Y-83682754D01*
X165775861Y-83585301D01*
X165775854Y-83585288D01*
X165680046Y-83441902D01*
X165655045Y-83416901D01*
X165558099Y-83319955D01*
X165116855Y-82878711D01*
X192149500Y-82878711D01*
X192149500Y-83121288D01*
X192181161Y-83361785D01*
X192243947Y-83596104D01*
X192336773Y-83820205D01*
X192336776Y-83820212D01*
X192458064Y-84030289D01*
X192458066Y-84030292D01*
X192458067Y-84030293D01*
X192605733Y-84222736D01*
X192605739Y-84222743D01*
X192777256Y-84394260D01*
X192777263Y-84394266D01*
X192823697Y-84429896D01*
X192969711Y-84541936D01*
X193179788Y-84663224D01*
X193403900Y-84756054D01*
X193638211Y-84818838D01*
X193818586Y-84842584D01*
X193878711Y-84850500D01*
X193878712Y-84850500D01*
X194121289Y-84850500D01*
X194169388Y-84844167D01*
X194361789Y-84818838D01*
X194596100Y-84756054D01*
X194820212Y-84663224D01*
X195030289Y-84541936D01*
X195222738Y-84394265D01*
X195394265Y-84222738D01*
X195541936Y-84030289D01*
X195663224Y-83820212D01*
X195756054Y-83596100D01*
X195818838Y-83361789D01*
X195850500Y-83121288D01*
X195850500Y-82878712D01*
X195818838Y-82638211D01*
X195756054Y-82403900D01*
X195663224Y-82179788D01*
X195541936Y-81969711D01*
X195394265Y-81777262D01*
X195394260Y-81777256D01*
X195222743Y-81605739D01*
X195222736Y-81605733D01*
X195030293Y-81458067D01*
X195030292Y-81458066D01*
X195030289Y-81458064D01*
X194820212Y-81336776D01*
X194820205Y-81336773D01*
X194596104Y-81243947D01*
X194361785Y-81181161D01*
X194121289Y-81149500D01*
X194121288Y-81149500D01*
X193878712Y-81149500D01*
X193878711Y-81149500D01*
X193638214Y-81181161D01*
X193403895Y-81243947D01*
X193179794Y-81336773D01*
X193179785Y-81336777D01*
X192969706Y-81458067D01*
X192777263Y-81605733D01*
X192777256Y-81605739D01*
X192605739Y-81777256D01*
X192605733Y-81777263D01*
X192458067Y-81969706D01*
X192336777Y-82179785D01*
X192336773Y-82179794D01*
X192243947Y-82403895D01*
X192181161Y-82638214D01*
X192149500Y-82878711D01*
X165116855Y-82878711D01*
X164558102Y-82319957D01*
X164558098Y-82319954D01*
X164414711Y-82224145D01*
X164414698Y-82224138D01*
X164255378Y-82158146D01*
X164255366Y-82158143D01*
X164086232Y-82124500D01*
X164086229Y-82124500D01*
X157913771Y-82124500D01*
X157913768Y-82124500D01*
X157744633Y-82158143D01*
X157744621Y-82158146D01*
X157585301Y-82224138D01*
X157585288Y-82224145D01*
X157441901Y-82319954D01*
X157441897Y-82319957D01*
X156441903Y-83319952D01*
X156441902Y-83319954D01*
X156441901Y-83319955D01*
X156344955Y-83416901D01*
X156283631Y-83450385D01*
X156269876Y-83452577D01*
X156197202Y-83460001D01*
X156197200Y-83460001D01*
X156030668Y-83515185D01*
X156030663Y-83515187D01*
X155881342Y-83607289D01*
X155757289Y-83731342D01*
X155665187Y-83880663D01*
X155665185Y-83880668D01*
X155656240Y-83907664D01*
X155612551Y-84039506D01*
X155572781Y-84096949D01*
X155508265Y-84123772D01*
X155494847Y-84124500D01*
X154657921Y-84124500D01*
X154590882Y-84104815D01*
X154545127Y-84052011D01*
X154543360Y-84047952D01*
X154500328Y-83944063D01*
X154500327Y-83944062D01*
X154500327Y-83944061D01*
X154405074Y-83819926D01*
X154280939Y-83724673D01*
X154280938Y-83724672D01*
X154280936Y-83724671D01*
X154136383Y-83664796D01*
X154136378Y-83664794D01*
X154020211Y-83649501D01*
X154020208Y-83649500D01*
X154020202Y-83649500D01*
X153754798Y-83649500D01*
X153754792Y-83649500D01*
X153754788Y-83649501D01*
X153638621Y-83664794D01*
X153638616Y-83664796D01*
X153494063Y-83724671D01*
X153369926Y-83819926D01*
X153274671Y-83944063D01*
X153214796Y-84088616D01*
X153214794Y-84088621D01*
X153199501Y-84204788D01*
X153199500Y-84204804D01*
X153199500Y-84495195D01*
X153199501Y-84495211D01*
X153214794Y-84611378D01*
X153214795Y-84611379D01*
X153221493Y-84627551D01*
X153224999Y-84660179D01*
X153229668Y-84692647D01*
X153228820Y-84695735D01*
X153228959Y-84697021D01*
X153227873Y-84699189D01*
X153221493Y-84722449D01*
X153214795Y-84738620D01*
X153214794Y-84738621D01*
X153199501Y-84854788D01*
X153199500Y-84854804D01*
X153199500Y-85145195D01*
X153199501Y-85145211D01*
X153214794Y-85261378D01*
X153214795Y-85261379D01*
X153221493Y-85277551D01*
X153224999Y-85310179D01*
X153229668Y-85342647D01*
X153228820Y-85345735D01*
X153228959Y-85347021D01*
X153227873Y-85349189D01*
X153221493Y-85372449D01*
X153214795Y-85388620D01*
X153214794Y-85388621D01*
X153199501Y-85504788D01*
X153199500Y-85504804D01*
X153199500Y-85795195D01*
X153199501Y-85795211D01*
X153214794Y-85911378D01*
X153214796Y-85911383D01*
X153274671Y-86055936D01*
X153274672Y-86055938D01*
X153274673Y-86055939D01*
X153369926Y-86180074D01*
X153494061Y-86275327D01*
X153638620Y-86335205D01*
X153754798Y-86350500D01*
X153754805Y-86350500D01*
X154020195Y-86350500D01*
X154020202Y-86350500D01*
X154136380Y-86335205D01*
X154280939Y-86275327D01*
X154405074Y-86180074D01*
X154500327Y-86055939D01*
X154539216Y-85962052D01*
X154543360Y-85952048D01*
X154587201Y-85897644D01*
X154653495Y-85875579D01*
X154657921Y-85875500D01*
X155494846Y-85875500D01*
X155561885Y-85895185D01*
X155607640Y-85947989D01*
X155612552Y-85960496D01*
X155654761Y-86087873D01*
X155665186Y-86119334D01*
X155757288Y-86268656D01*
X155881344Y-86392712D01*
X156030666Y-86484814D01*
X156197203Y-86539999D01*
X156299991Y-86550500D01*
X157300008Y-86550499D01*
X157300016Y-86550498D01*
X157300019Y-86550498D01*
X157397892Y-86540500D01*
X157402797Y-86539999D01*
X157569334Y-86484814D01*
X157718656Y-86392712D01*
X157842712Y-86268656D01*
X157934814Y-86119334D01*
X157989999Y-85952797D01*
X158000500Y-85850009D01*
X158000499Y-84289005D01*
X158020184Y-84221967D01*
X158036818Y-84201325D01*
X158326325Y-83911819D01*
X158387648Y-83878334D01*
X158414006Y-83875500D01*
X159895178Y-83875500D01*
X159962217Y-83895185D01*
X160007972Y-83947989D01*
X160017916Y-84017147D01*
X160012885Y-84038499D01*
X160011752Y-84041916D01*
X160010000Y-84047204D01*
X159999500Y-84149983D01*
X159999500Y-85850001D01*
X159999501Y-85850018D01*
X160010000Y-85952796D01*
X160010001Y-85952799D01*
X160054761Y-86087873D01*
X160065186Y-86119334D01*
X160146741Y-86251557D01*
X160157289Y-86268657D01*
X160286451Y-86397819D01*
X160284559Y-86399710D01*
X160317774Y-86446583D01*
X160324500Y-86486867D01*
X160324500Y-87513132D01*
X160304815Y-87580171D01*
X160285616Y-87601346D01*
X160286451Y-87602181D01*
X160157289Y-87731342D01*
X160065187Y-87880663D01*
X160065186Y-87880666D01*
X160010001Y-88047203D01*
X160010001Y-88047204D01*
X160010000Y-88047204D01*
X159999500Y-88149983D01*
X159999500Y-89850001D01*
X159999501Y-89850018D01*
X160010000Y-89952796D01*
X160010001Y-89952799D01*
X160065185Y-90119331D01*
X160065187Y-90119336D01*
X160157289Y-90268657D01*
X160286451Y-90397819D01*
X160284559Y-90399710D01*
X160317774Y-90446583D01*
X160324500Y-90486867D01*
X160324500Y-101097269D01*
X160304815Y-101164308D01*
X160252011Y-101210063D01*
X160182853Y-101220007D01*
X160176310Y-101218887D01*
X160078842Y-101199500D01*
X159921158Y-101199500D01*
X159921155Y-101199500D01*
X159766510Y-101230261D01*
X159766498Y-101230264D01*
X159620827Y-101290602D01*
X159620814Y-101290609D01*
X159489711Y-101378210D01*
X159489707Y-101378213D01*
X159378213Y-101489707D01*
X159378210Y-101489711D01*
X159290609Y-101620814D01*
X159290602Y-101620827D01*
X159230264Y-101766498D01*
X159230261Y-101766508D01*
X159199361Y-101921850D01*
X159166976Y-101983761D01*
X159165425Y-101985339D01*
X154787584Y-106363181D01*
X154726261Y-106396666D01*
X154699903Y-106399500D01*
X121079057Y-106399500D01*
X120920942Y-106399500D01*
X120768215Y-106440423D01*
X120768214Y-106440423D01*
X120768212Y-106440424D01*
X120768209Y-106440425D01*
X120718096Y-106469359D01*
X120718095Y-106469360D01*
X120674689Y-106494420D01*
X120631285Y-106519479D01*
X120631282Y-106519481D01*
X114679479Y-112471284D01*
X114661213Y-112502923D01*
X114653492Y-112516297D01*
X114600423Y-112608215D01*
X114559499Y-112760943D01*
X114559499Y-112760945D01*
X114559499Y-112929046D01*
X114559500Y-112929059D01*
X114559500Y-112954281D01*
X114539815Y-113021320D01*
X114491795Y-113064765D01*
X114452185Y-113084947D01*
X114452184Y-113084948D01*
X114280213Y-113209890D01*
X114129890Y-113360213D01*
X114004949Y-113532182D01*
X114000484Y-113540946D01*
X113952509Y-113591742D01*
X113884688Y-113608536D01*
X113818553Y-113585998D01*
X113779516Y-113540946D01*
X113775050Y-113532182D01*
X113650109Y-113360213D01*
X113499786Y-113209890D01*
X113327820Y-113084951D01*
X113138414Y-112988444D01*
X113138413Y-112988443D01*
X113138412Y-112988443D01*
X112936243Y-112922754D01*
X112936241Y-112922753D01*
X112936240Y-112922753D01*
X112774957Y-112897208D01*
X112726287Y-112889500D01*
X112513713Y-112889500D01*
X112465042Y-112897208D01*
X112303760Y-112922753D01*
X112101585Y-112988444D01*
X111912179Y-113084951D01*
X111740213Y-113209890D01*
X111589890Y-113360213D01*
X111464949Y-113532182D01*
X111460484Y-113540946D01*
X111412509Y-113591742D01*
X111344688Y-113608536D01*
X111278553Y-113585998D01*
X111239516Y-113540946D01*
X111235050Y-113532182D01*
X111110109Y-113360213D01*
X110959786Y-113209890D01*
X110787820Y-113084951D01*
X110598414Y-112988444D01*
X110598413Y-112988443D01*
X110598412Y-112988443D01*
X110396243Y-112922754D01*
X110396241Y-112922753D01*
X110396240Y-112922753D01*
X110234957Y-112897208D01*
X110186287Y-112889500D01*
X109973713Y-112889500D01*
X109925042Y-112897208D01*
X109763760Y-112922753D01*
X109561585Y-112988444D01*
X109372179Y-113084951D01*
X109200213Y-113209890D01*
X109049890Y-113360213D01*
X108924949Y-113532182D01*
X108920484Y-113540946D01*
X108872509Y-113591742D01*
X108804688Y-113608536D01*
X108738553Y-113585998D01*
X108699516Y-113540946D01*
X108695050Y-113532182D01*
X108570109Y-113360213D01*
X108419786Y-113209890D01*
X108247820Y-113084951D01*
X108058414Y-112988444D01*
X108058413Y-112988443D01*
X108058412Y-112988443D01*
X107856243Y-112922754D01*
X107856241Y-112922753D01*
X107856240Y-112922753D01*
X107694957Y-112897208D01*
X107646287Y-112889500D01*
X107433713Y-112889500D01*
X107385042Y-112897208D01*
X107223760Y-112922753D01*
X107021585Y-112988444D01*
X106832179Y-113084951D01*
X106660213Y-113209890D01*
X106509890Y-113360213D01*
X106384949Y-113532182D01*
X106380484Y-113540946D01*
X106332509Y-113591742D01*
X106264688Y-113608536D01*
X106198553Y-113585998D01*
X106159516Y-113540946D01*
X106155050Y-113532182D01*
X106030109Y-113360213D01*
X105879786Y-113209890D01*
X105707820Y-113084951D01*
X105518414Y-112988444D01*
X105518413Y-112988443D01*
X105518412Y-112988443D01*
X105316243Y-112922754D01*
X105316241Y-112922753D01*
X105316240Y-112922753D01*
X105154957Y-112897208D01*
X105106287Y-112889500D01*
X104893713Y-112889500D01*
X104845042Y-112897208D01*
X104683760Y-112922753D01*
X104481585Y-112988444D01*
X104292179Y-113084951D01*
X104120213Y-113209890D01*
X103969890Y-113360213D01*
X103844951Y-113532179D01*
X103748444Y-113721585D01*
X103748443Y-113721587D01*
X103748443Y-113721588D01*
X103742461Y-113740000D01*
X103682753Y-113923760D01*
X103681291Y-113932993D01*
X103649500Y-114133713D01*
X99715521Y-114133713D01*
X112988713Y-100860521D01*
X112988716Y-100860520D01*
X113100520Y-100748716D01*
X113150639Y-100661904D01*
X113179577Y-100611785D01*
X113220501Y-100459057D01*
X113220501Y-100300943D01*
X113220501Y-100293348D01*
X113220500Y-100293330D01*
X113220500Y-100285718D01*
X113240185Y-100218679D01*
X113288207Y-100175233D01*
X113327815Y-100155052D01*
X113327815Y-100155051D01*
X113327816Y-100155051D01*
X113425321Y-100084210D01*
X113499786Y-100030109D01*
X113499788Y-100030106D01*
X113499792Y-100030104D01*
X113650104Y-99879792D01*
X113650106Y-99879788D01*
X113650109Y-99879786D01*
X113775048Y-99707820D01*
X113775047Y-99707820D01*
X113775051Y-99707816D01*
X113779514Y-99699054D01*
X113827488Y-99648259D01*
X113895308Y-99631463D01*
X113961444Y-99653999D01*
X114000486Y-99699056D01*
X114004951Y-99707820D01*
X114129890Y-99879786D01*
X114280213Y-100030109D01*
X114452179Y-100155048D01*
X114452181Y-100155049D01*
X114452184Y-100155051D01*
X114641588Y-100251557D01*
X114843757Y-100317246D01*
X115053713Y-100350500D01*
X115053714Y-100350500D01*
X115266286Y-100350500D01*
X115266287Y-100350500D01*
X115476243Y-100317246D01*
X115678412Y-100251557D01*
X115867816Y-100155051D01*
X115954478Y-100092088D01*
X116039786Y-100030109D01*
X116039788Y-100030106D01*
X116039792Y-100030104D01*
X116190104Y-99879792D01*
X116190106Y-99879788D01*
X116190109Y-99879786D01*
X116315048Y-99707820D01*
X116315047Y-99707820D01*
X116315051Y-99707816D01*
X116319514Y-99699054D01*
X116367488Y-99648259D01*
X116435308Y-99631463D01*
X116501444Y-99653999D01*
X116540486Y-99699056D01*
X116544951Y-99707820D01*
X116669890Y-99879786D01*
X116820213Y-100030109D01*
X116992179Y-100155048D01*
X116992181Y-100155049D01*
X116992184Y-100155051D01*
X117181588Y-100251557D01*
X117383757Y-100317246D01*
X117593713Y-100350500D01*
X117593714Y-100350500D01*
X117806286Y-100350500D01*
X117806287Y-100350500D01*
X118016243Y-100317246D01*
X118218412Y-100251557D01*
X118407816Y-100155051D01*
X118494478Y-100092088D01*
X118579786Y-100030109D01*
X118579788Y-100030106D01*
X118579792Y-100030104D01*
X118730104Y-99879792D01*
X118730106Y-99879788D01*
X118730109Y-99879786D01*
X118855048Y-99707820D01*
X118855047Y-99707820D01*
X118855051Y-99707816D01*
X118859514Y-99699054D01*
X118907488Y-99648259D01*
X118975308Y-99631463D01*
X119041444Y-99653999D01*
X119080486Y-99699056D01*
X119084951Y-99707820D01*
X119209890Y-99879786D01*
X119360213Y-100030109D01*
X119532179Y-100155048D01*
X119532181Y-100155049D01*
X119532184Y-100155051D01*
X119721588Y-100251557D01*
X119923757Y-100317246D01*
X120133713Y-100350500D01*
X120133714Y-100350500D01*
X120346286Y-100350500D01*
X120346287Y-100350500D01*
X120556243Y-100317246D01*
X120758412Y-100251557D01*
X120947816Y-100155051D01*
X121034478Y-100092088D01*
X121119786Y-100030109D01*
X121119788Y-100030106D01*
X121119792Y-100030104D01*
X121270104Y-99879792D01*
X121270106Y-99879788D01*
X121270109Y-99879786D01*
X121395048Y-99707820D01*
X121395047Y-99707820D01*
X121395051Y-99707816D01*
X121399514Y-99699054D01*
X121447488Y-99648259D01*
X121515308Y-99631463D01*
X121581444Y-99653999D01*
X121620486Y-99699056D01*
X121624951Y-99707820D01*
X121749890Y-99879786D01*
X121900213Y-100030109D01*
X122072179Y-100155048D01*
X122072181Y-100155049D01*
X122072184Y-100155051D01*
X122261588Y-100251557D01*
X122463757Y-100317246D01*
X122673713Y-100350500D01*
X122673714Y-100350500D01*
X122886286Y-100350500D01*
X122886287Y-100350500D01*
X123096243Y-100317246D01*
X123298412Y-100251557D01*
X123487816Y-100155051D01*
X123574478Y-100092088D01*
X123659786Y-100030109D01*
X123659788Y-100030106D01*
X123659792Y-100030104D01*
X123810104Y-99879792D01*
X123810106Y-99879788D01*
X123810109Y-99879786D01*
X123935048Y-99707820D01*
X123935047Y-99707820D01*
X123935051Y-99707816D01*
X123939514Y-99699054D01*
X123987488Y-99648259D01*
X124055308Y-99631463D01*
X124121444Y-99653999D01*
X124160486Y-99699056D01*
X124164951Y-99707820D01*
X124289890Y-99879786D01*
X124440213Y-100030109D01*
X124612179Y-100155048D01*
X124612181Y-100155049D01*
X124612184Y-100155051D01*
X124801588Y-100251557D01*
X125003757Y-100317246D01*
X125213713Y-100350500D01*
X125213714Y-100350500D01*
X125426286Y-100350500D01*
X125426287Y-100350500D01*
X125636243Y-100317246D01*
X125838412Y-100251557D01*
X126027816Y-100155051D01*
X126114478Y-100092088D01*
X126199786Y-100030109D01*
X126199788Y-100030106D01*
X126199792Y-100030104D01*
X126350104Y-99879792D01*
X126350106Y-99879788D01*
X126350109Y-99879786D01*
X126475048Y-99707820D01*
X126475047Y-99707820D01*
X126475051Y-99707816D01*
X126479514Y-99699054D01*
X126527488Y-99648259D01*
X126595308Y-99631463D01*
X126661444Y-99653999D01*
X126700486Y-99699056D01*
X126704951Y-99707820D01*
X126829890Y-99879786D01*
X126980213Y-100030109D01*
X127152179Y-100155048D01*
X127152181Y-100155049D01*
X127152184Y-100155051D01*
X127341588Y-100251557D01*
X127543757Y-100317246D01*
X127753713Y-100350500D01*
X127753714Y-100350500D01*
X127966286Y-100350500D01*
X127966287Y-100350500D01*
X128176243Y-100317246D01*
X128378412Y-100251557D01*
X128567816Y-100155051D01*
X128654478Y-100092088D01*
X128739786Y-100030109D01*
X128739788Y-100030106D01*
X128739792Y-100030104D01*
X128890104Y-99879792D01*
X128890106Y-99879788D01*
X128890109Y-99879786D01*
X129015048Y-99707820D01*
X129015047Y-99707820D01*
X129015051Y-99707816D01*
X129019514Y-99699054D01*
X129067488Y-99648259D01*
X129135308Y-99631463D01*
X129201444Y-99653999D01*
X129240486Y-99699056D01*
X129244951Y-99707820D01*
X129369890Y-99879786D01*
X129520213Y-100030109D01*
X129692179Y-100155048D01*
X129692181Y-100155049D01*
X129692184Y-100155051D01*
X129881588Y-100251557D01*
X130083757Y-100317246D01*
X130293713Y-100350500D01*
X130293714Y-100350500D01*
X130506286Y-100350500D01*
X130506287Y-100350500D01*
X130716243Y-100317246D01*
X130918412Y-100251557D01*
X131107816Y-100155051D01*
X131194478Y-100092088D01*
X131279786Y-100030109D01*
X131279788Y-100030106D01*
X131279792Y-100030104D01*
X131430104Y-99879792D01*
X131430106Y-99879788D01*
X131430109Y-99879786D01*
X131555048Y-99707820D01*
X131555047Y-99707820D01*
X131555051Y-99707816D01*
X131559514Y-99699054D01*
X131607488Y-99648259D01*
X131675308Y-99631463D01*
X131741444Y-99653999D01*
X131780486Y-99699056D01*
X131784951Y-99707820D01*
X131909890Y-99879786D01*
X132060213Y-100030109D01*
X132232179Y-100155048D01*
X132232181Y-100155049D01*
X132232184Y-100155051D01*
X132421588Y-100251557D01*
X132623757Y-100317246D01*
X132833713Y-100350500D01*
X132833714Y-100350500D01*
X133046286Y-100350500D01*
X133046287Y-100350500D01*
X133256243Y-100317246D01*
X133458412Y-100251557D01*
X133647816Y-100155051D01*
X133734478Y-100092088D01*
X133819786Y-100030109D01*
X133819788Y-100030106D01*
X133819792Y-100030104D01*
X133970104Y-99879792D01*
X133970106Y-99879788D01*
X133970109Y-99879786D01*
X134095048Y-99707820D01*
X134095047Y-99707820D01*
X134095051Y-99707816D01*
X134099514Y-99699054D01*
X134147488Y-99648259D01*
X134215308Y-99631463D01*
X134281444Y-99653999D01*
X134320486Y-99699056D01*
X134324951Y-99707820D01*
X134449890Y-99879786D01*
X134600213Y-100030109D01*
X134772179Y-100155048D01*
X134772181Y-100155049D01*
X134772184Y-100155051D01*
X134961588Y-100251557D01*
X135163757Y-100317246D01*
X135373713Y-100350500D01*
X135373714Y-100350500D01*
X135586286Y-100350500D01*
X135586287Y-100350500D01*
X135796243Y-100317246D01*
X135998412Y-100251557D01*
X136187816Y-100155051D01*
X136274478Y-100092088D01*
X136359784Y-100030110D01*
X136359784Y-100030109D01*
X136359792Y-100030104D01*
X136473717Y-99916178D01*
X136535036Y-99882696D01*
X136604728Y-99887680D01*
X136660662Y-99929551D01*
X136677577Y-99960528D01*
X136726646Y-100092088D01*
X136726649Y-100092093D01*
X136812809Y-100207187D01*
X136812812Y-100207190D01*
X136927906Y-100293350D01*
X136927913Y-100293354D01*
X137062620Y-100343596D01*
X137062627Y-100343598D01*
X137122155Y-100349999D01*
X137122172Y-100350000D01*
X137770000Y-100350000D01*
X137770000Y-99433012D01*
X137827007Y-99465925D01*
X137954174Y-99500000D01*
X138085826Y-99500000D01*
X138212993Y-99465925D01*
X138270000Y-99433012D01*
X138270000Y-100350000D01*
X138917828Y-100350000D01*
X138917844Y-100349999D01*
X138977372Y-100343598D01*
X138977379Y-100343596D01*
X139112086Y-100293354D01*
X139112093Y-100293350D01*
X139227187Y-100207190D01*
X139227190Y-100207187D01*
X139313350Y-100092093D01*
X139313354Y-100092086D01*
X139363596Y-99957379D01*
X139363598Y-99957372D01*
X139369999Y-99897844D01*
X139370000Y-99897827D01*
X139370000Y-99250000D01*
X138453012Y-99250000D01*
X138485925Y-99192993D01*
X138520000Y-99065826D01*
X138520000Y-98934174D01*
X138485925Y-98807007D01*
X138453012Y-98750000D01*
X139370000Y-98750000D01*
X139370000Y-98102172D01*
X139369999Y-98102155D01*
X139363598Y-98042627D01*
X139363596Y-98042620D01*
X139313354Y-97907913D01*
X139313350Y-97907906D01*
X139227190Y-97792812D01*
X139227187Y-97792809D01*
X139112093Y-97706649D01*
X139112086Y-97706645D01*
X138977379Y-97656403D01*
X138977372Y-97656401D01*
X138917844Y-97650000D01*
X138270000Y-97650000D01*
X138270000Y-98566988D01*
X138212993Y-98534075D01*
X138085826Y-98500000D01*
X137954174Y-98500000D01*
X137827007Y-98534075D01*
X137770000Y-98566988D01*
X137770000Y-97650000D01*
X137122155Y-97650000D01*
X137062627Y-97656401D01*
X137062620Y-97656403D01*
X136927913Y-97706645D01*
X136927906Y-97706649D01*
X136812812Y-97792809D01*
X136812809Y-97792812D01*
X136726649Y-97907906D01*
X136726646Y-97907912D01*
X136677577Y-98039471D01*
X136635705Y-98095404D01*
X136570241Y-98119821D01*
X136501968Y-98104969D01*
X136473714Y-98083818D01*
X136359786Y-97969890D01*
X136187820Y-97844951D01*
X135998414Y-97748444D01*
X135998413Y-97748443D01*
X135998412Y-97748443D01*
X135796243Y-97682754D01*
X135796241Y-97682753D01*
X135796240Y-97682753D01*
X135634957Y-97657208D01*
X135586287Y-97649500D01*
X135373713Y-97649500D01*
X135325042Y-97657208D01*
X135163760Y-97682753D01*
X134961585Y-97748444D01*
X134772179Y-97844951D01*
X134600213Y-97969890D01*
X134449890Y-98120213D01*
X134324949Y-98292182D01*
X134320484Y-98300946D01*
X134272509Y-98351742D01*
X134204688Y-98368536D01*
X134138553Y-98345998D01*
X134099516Y-98300946D01*
X134095050Y-98292182D01*
X133970109Y-98120213D01*
X133819786Y-97969890D01*
X133647820Y-97844951D01*
X133458414Y-97748444D01*
X133458413Y-97748443D01*
X133458412Y-97748443D01*
X133256243Y-97682754D01*
X133256241Y-97682753D01*
X133256240Y-97682753D01*
X133094957Y-97657208D01*
X133046287Y-97649500D01*
X132833713Y-97649500D01*
X132785042Y-97657208D01*
X132623760Y-97682753D01*
X132421585Y-97748444D01*
X132232179Y-97844951D01*
X132060213Y-97969890D01*
X131909890Y-98120213D01*
X131784949Y-98292182D01*
X131780484Y-98300946D01*
X131732509Y-98351742D01*
X131664688Y-98368536D01*
X131598553Y-98345998D01*
X131559516Y-98300946D01*
X131555050Y-98292182D01*
X131430109Y-98120213D01*
X131279786Y-97969890D01*
X131107820Y-97844951D01*
X130918414Y-97748444D01*
X130918413Y-97748443D01*
X130918412Y-97748443D01*
X130716243Y-97682754D01*
X130716241Y-97682753D01*
X130716240Y-97682753D01*
X130554957Y-97657208D01*
X130506287Y-97649500D01*
X130293713Y-97649500D01*
X130245042Y-97657208D01*
X130083760Y-97682753D01*
X129881585Y-97748444D01*
X129692179Y-97844951D01*
X129520213Y-97969890D01*
X129369890Y-98120213D01*
X129244949Y-98292182D01*
X129240484Y-98300946D01*
X129192509Y-98351742D01*
X129124688Y-98368536D01*
X129058553Y-98345998D01*
X129019516Y-98300946D01*
X129015050Y-98292182D01*
X128890109Y-98120213D01*
X128739786Y-97969890D01*
X128567820Y-97844951D01*
X128378414Y-97748444D01*
X128378413Y-97748443D01*
X128378412Y-97748443D01*
X128176243Y-97682754D01*
X128176241Y-97682753D01*
X128176240Y-97682753D01*
X128014957Y-97657208D01*
X127966287Y-97649500D01*
X127753713Y-97649500D01*
X127705042Y-97657208D01*
X127543760Y-97682753D01*
X127341585Y-97748444D01*
X127152179Y-97844951D01*
X126980213Y-97969890D01*
X126829890Y-98120213D01*
X126704949Y-98292182D01*
X126700484Y-98300946D01*
X126652509Y-98351742D01*
X126584688Y-98368536D01*
X126518553Y-98345998D01*
X126479516Y-98300946D01*
X126475050Y-98292182D01*
X126350109Y-98120213D01*
X126199786Y-97969890D01*
X126027820Y-97844951D01*
X125838414Y-97748444D01*
X125838413Y-97748443D01*
X125838412Y-97748443D01*
X125636243Y-97682754D01*
X125636241Y-97682753D01*
X125636240Y-97682753D01*
X125474957Y-97657208D01*
X125426287Y-97649500D01*
X125213713Y-97649500D01*
X125165042Y-97657208D01*
X125003760Y-97682753D01*
X124801585Y-97748444D01*
X124612179Y-97844951D01*
X124440213Y-97969890D01*
X124289890Y-98120213D01*
X124164949Y-98292182D01*
X124160484Y-98300946D01*
X124112509Y-98351742D01*
X124044688Y-98368536D01*
X123978553Y-98345998D01*
X123939516Y-98300946D01*
X123935050Y-98292182D01*
X123810109Y-98120213D01*
X123659786Y-97969890D01*
X123487820Y-97844951D01*
X123298414Y-97748444D01*
X123298413Y-97748443D01*
X123298412Y-97748443D01*
X123096243Y-97682754D01*
X123096241Y-97682753D01*
X123096240Y-97682753D01*
X122934957Y-97657208D01*
X122886287Y-97649500D01*
X122673713Y-97649500D01*
X122625042Y-97657208D01*
X122463760Y-97682753D01*
X122261585Y-97748444D01*
X122072179Y-97844951D01*
X121900213Y-97969890D01*
X121749890Y-98120213D01*
X121624949Y-98292182D01*
X121620484Y-98300946D01*
X121572509Y-98351742D01*
X121504688Y-98368536D01*
X121438553Y-98345998D01*
X121399516Y-98300946D01*
X121395050Y-98292182D01*
X121270109Y-98120213D01*
X121119786Y-97969890D01*
X120947820Y-97844951D01*
X120758414Y-97748444D01*
X120758413Y-97748443D01*
X120758412Y-97748443D01*
X120556243Y-97682754D01*
X120556241Y-97682753D01*
X120556240Y-97682753D01*
X120394957Y-97657208D01*
X120346287Y-97649500D01*
X120133713Y-97649500D01*
X120085042Y-97657208D01*
X119923760Y-97682753D01*
X119721585Y-97748444D01*
X119532179Y-97844951D01*
X119360213Y-97969890D01*
X119209890Y-98120213D01*
X119084949Y-98292182D01*
X119080484Y-98300946D01*
X119032509Y-98351742D01*
X118964688Y-98368536D01*
X118898553Y-98345998D01*
X118859516Y-98300946D01*
X118855050Y-98292182D01*
X118730109Y-98120213D01*
X118579786Y-97969890D01*
X118407820Y-97844951D01*
X118218414Y-97748444D01*
X118218413Y-97748443D01*
X118218412Y-97748443D01*
X118016243Y-97682754D01*
X118016241Y-97682753D01*
X118016240Y-97682753D01*
X117854957Y-97657208D01*
X117806287Y-97649500D01*
X117593713Y-97649500D01*
X117545042Y-97657208D01*
X117383760Y-97682753D01*
X117181585Y-97748444D01*
X116992179Y-97844951D01*
X116820213Y-97969890D01*
X116669890Y-98120213D01*
X116544949Y-98292182D01*
X116540484Y-98300946D01*
X116492509Y-98351742D01*
X116424688Y-98368536D01*
X116358553Y-98345998D01*
X116319516Y-98300946D01*
X116315050Y-98292182D01*
X116190109Y-98120213D01*
X116039786Y-97969890D01*
X115867820Y-97844951D01*
X115678414Y-97748444D01*
X115678413Y-97748443D01*
X115678412Y-97748443D01*
X115476243Y-97682754D01*
X115476241Y-97682753D01*
X115476240Y-97682753D01*
X115314957Y-97657208D01*
X115266287Y-97649500D01*
X115053713Y-97649500D01*
X115005042Y-97657208D01*
X114843760Y-97682753D01*
X114641585Y-97748444D01*
X114452179Y-97844951D01*
X114280213Y-97969890D01*
X114129890Y-98120213D01*
X114004949Y-98292182D01*
X114000484Y-98300946D01*
X113952509Y-98351742D01*
X113884688Y-98368536D01*
X113818553Y-98345998D01*
X113779516Y-98300946D01*
X113775050Y-98292182D01*
X113650109Y-98120213D01*
X113499786Y-97969890D01*
X113327820Y-97844951D01*
X113138414Y-97748444D01*
X113138413Y-97748443D01*
X113138412Y-97748443D01*
X112936243Y-97682754D01*
X112936241Y-97682753D01*
X112936240Y-97682753D01*
X112774957Y-97657208D01*
X112726287Y-97649500D01*
X112513713Y-97649500D01*
X112465042Y-97657208D01*
X112303760Y-97682753D01*
X112101585Y-97748444D01*
X111912179Y-97844951D01*
X111740213Y-97969890D01*
X111589890Y-98120213D01*
X111464949Y-98292182D01*
X111460484Y-98300946D01*
X111412509Y-98351742D01*
X111344688Y-98368536D01*
X111278553Y-98345998D01*
X111239516Y-98300946D01*
X111235050Y-98292182D01*
X111110109Y-98120213D01*
X110959786Y-97969890D01*
X110787820Y-97844951D01*
X110598414Y-97748444D01*
X110598413Y-97748443D01*
X110598412Y-97748443D01*
X110396243Y-97682754D01*
X110396241Y-97682753D01*
X110396240Y-97682753D01*
X110234957Y-97657208D01*
X110186287Y-97649500D01*
X109973713Y-97649500D01*
X109925042Y-97657208D01*
X109763760Y-97682753D01*
X109561585Y-97748444D01*
X109372179Y-97844951D01*
X109200213Y-97969890D01*
X109049890Y-98120213D01*
X108924949Y-98292182D01*
X108920484Y-98300946D01*
X108872509Y-98351742D01*
X108804688Y-98368536D01*
X108738553Y-98345998D01*
X108699516Y-98300946D01*
X108695050Y-98292182D01*
X108570109Y-98120213D01*
X108419786Y-97969890D01*
X108247820Y-97844951D01*
X108058414Y-97748444D01*
X108058413Y-97748443D01*
X108058412Y-97748443D01*
X107856243Y-97682754D01*
X107856241Y-97682753D01*
X107856240Y-97682753D01*
X107694957Y-97657208D01*
X107646287Y-97649500D01*
X107433713Y-97649500D01*
X107385042Y-97657208D01*
X107223760Y-97682753D01*
X107021585Y-97748444D01*
X106832179Y-97844951D01*
X106660213Y-97969890D01*
X106509890Y-98120213D01*
X106384949Y-98292182D01*
X106380484Y-98300946D01*
X106332509Y-98351742D01*
X106264688Y-98368536D01*
X106198553Y-98345998D01*
X106159516Y-98300946D01*
X106155050Y-98292182D01*
X106030109Y-98120213D01*
X105879786Y-97969890D01*
X105707820Y-97844951D01*
X105518414Y-97748444D01*
X105518413Y-97748443D01*
X105518412Y-97748443D01*
X105316243Y-97682754D01*
X105316241Y-97682753D01*
X105316240Y-97682753D01*
X105154957Y-97657208D01*
X105106287Y-97649500D01*
X104893713Y-97649500D01*
X104845042Y-97657208D01*
X104683760Y-97682753D01*
X104481585Y-97748444D01*
X104292179Y-97844951D01*
X104120213Y-97969890D01*
X103969890Y-98120213D01*
X103844951Y-98292179D01*
X103748444Y-98481585D01*
X103682753Y-98683760D01*
X103672262Y-98750000D01*
X103649500Y-98893713D01*
X103649500Y-99106287D01*
X103659045Y-99166552D01*
X103682754Y-99316244D01*
X103682754Y-99316247D01*
X103696491Y-99358523D01*
X103698486Y-99428364D01*
X103666241Y-99484522D01*
X101787584Y-101363181D01*
X101726261Y-101396666D01*
X101699903Y-101399500D01*
X93480098Y-101399500D01*
X93413059Y-101379815D01*
X93392417Y-101363181D01*
X92889756Y-100860520D01*
X92302653Y-100273418D01*
X92269169Y-100212096D01*
X92274153Y-100142404D01*
X92316025Y-100086471D01*
X92381489Y-100062054D01*
X92419288Y-100066659D01*
X92419621Y-100065275D01*
X92424360Y-100066412D01*
X92424361Y-100066412D01*
X92424364Y-100066413D01*
X92620639Y-100097500D01*
X92620640Y-100097500D01*
X92819360Y-100097500D01*
X92819361Y-100097500D01*
X93015636Y-100066413D01*
X93204632Y-100005005D01*
X93381694Y-99914787D01*
X93542464Y-99797981D01*
X93682981Y-99657464D01*
X93740762Y-99577933D01*
X93746039Y-99571175D01*
X93749537Y-99567000D01*
X93849592Y-99466947D01*
X93888439Y-99401259D01*
X93894962Y-99393477D01*
X93915927Y-99379509D01*
X93934337Y-99362321D01*
X93944505Y-99360471D01*
X93953110Y-99354739D01*
X93978299Y-99354324D01*
X94003079Y-99349817D01*
X94012634Y-99353759D01*
X94022970Y-99353589D01*
X94044379Y-99366854D01*
X94067668Y-99376462D01*
X94076691Y-99386875D01*
X94082363Y-99390390D01*
X94085575Y-99397128D01*
X94096732Y-99410004D01*
X94130405Y-99466943D01*
X94130408Y-99466947D01*
X94226608Y-99563147D01*
X94239240Y-99577938D01*
X94294501Y-99653999D01*
X94297019Y-99657464D01*
X94437536Y-99797981D01*
X94598306Y-99914787D01*
X94627282Y-99929551D01*
X94775367Y-100005005D01*
X94775370Y-100005006D01*
X94852612Y-100030103D01*
X94964364Y-100066413D01*
X95160639Y-100097500D01*
X95160640Y-100097500D01*
X95359360Y-100097500D01*
X95359361Y-100097500D01*
X95555636Y-100066413D01*
X95744632Y-100005005D01*
X95921694Y-99914787D01*
X96082464Y-99797981D01*
X96222981Y-99657464D01*
X96280760Y-99577936D01*
X96293389Y-99563148D01*
X96389592Y-99466947D01*
X96473564Y-99324959D01*
X96519587Y-99166548D01*
X96522500Y-99129534D01*
X96522500Y-96870466D01*
X96519587Y-96833452D01*
X96510013Y-96800500D01*
X96473565Y-96675045D01*
X96473564Y-96675042D01*
X96473564Y-96675041D01*
X96389592Y-96533053D01*
X96389590Y-96533051D01*
X96389587Y-96533047D01*
X96272952Y-96416412D01*
X96272943Y-96416405D01*
X96162718Y-96351218D01*
X96130959Y-96332436D01*
X96130958Y-96332435D01*
X96130957Y-96332435D01*
X96130954Y-96332434D01*
X95972552Y-96286413D01*
X95972546Y-96286412D01*
X95935541Y-96283500D01*
X95935534Y-96283500D01*
X94584466Y-96283500D01*
X94584458Y-96283500D01*
X94547453Y-96286412D01*
X94547447Y-96286413D01*
X94389045Y-96332434D01*
X94389042Y-96332435D01*
X94247056Y-96416405D01*
X94247047Y-96416412D01*
X94130412Y-96533047D01*
X94130408Y-96533053D01*
X94105012Y-96575996D01*
X94096732Y-96589996D01*
X94045662Y-96637679D01*
X93976921Y-96650182D01*
X93912331Y-96623536D01*
X93883268Y-96589996D01*
X93849592Y-96533053D01*
X93849589Y-96533050D01*
X93849587Y-96533047D01*
X93732952Y-96416412D01*
X93732943Y-96416405D01*
X93622718Y-96351218D01*
X93590959Y-96332436D01*
X93590958Y-96332435D01*
X93590957Y-96332435D01*
X93590954Y-96332434D01*
X93432552Y-96286413D01*
X93432546Y-96286412D01*
X93395541Y-96283500D01*
X93395534Y-96283500D01*
X92044466Y-96283500D01*
X92044458Y-96283500D01*
X92007453Y-96286412D01*
X92007447Y-96286413D01*
X91849045Y-96332434D01*
X91849042Y-96332435D01*
X91707056Y-96416405D01*
X91707047Y-96416412D01*
X91590412Y-96533047D01*
X91590408Y-96533053D01*
X91565012Y-96575996D01*
X91556732Y-96589996D01*
X91505662Y-96637679D01*
X91436921Y-96650182D01*
X91372331Y-96623536D01*
X91343268Y-96589996D01*
X91309592Y-96533053D01*
X91309589Y-96533050D01*
X91309587Y-96533047D01*
X91192952Y-96416412D01*
X91192943Y-96416405D01*
X91082718Y-96351218D01*
X91050959Y-96332436D01*
X91050958Y-96332435D01*
X91050957Y-96332435D01*
X91050954Y-96332434D01*
X90892552Y-96286413D01*
X90892546Y-96286412D01*
X90855541Y-96283500D01*
X90855534Y-96283500D01*
X89504466Y-96283500D01*
X89504458Y-96283500D01*
X89467453Y-96286412D01*
X89467447Y-96286413D01*
X89309045Y-96332434D01*
X89309042Y-96332435D01*
X89167056Y-96416405D01*
X89167047Y-96416412D01*
X89050412Y-96533047D01*
X89050408Y-96533053D01*
X89025012Y-96575996D01*
X89016732Y-96589996D01*
X88965662Y-96637679D01*
X88896921Y-96650182D01*
X88832331Y-96623536D01*
X88803268Y-96589996D01*
X88769592Y-96533053D01*
X88769589Y-96533050D01*
X88769587Y-96533047D01*
X88652952Y-96416412D01*
X88652943Y-96416405D01*
X88542718Y-96351218D01*
X88510959Y-96332436D01*
X88510958Y-96332435D01*
X88510957Y-96332435D01*
X88510954Y-96332434D01*
X88352552Y-96286413D01*
X88352546Y-96286412D01*
X88315541Y-96283500D01*
X88315534Y-96283500D01*
X86964466Y-96283500D01*
X86964458Y-96283500D01*
X86927453Y-96286412D01*
X86927447Y-96286413D01*
X86769045Y-96332434D01*
X86769042Y-96332435D01*
X86627056Y-96416405D01*
X86627047Y-96416412D01*
X86510412Y-96533047D01*
X86510408Y-96533053D01*
X86485012Y-96575996D01*
X86476732Y-96589996D01*
X86425662Y-96637679D01*
X86356921Y-96650182D01*
X86292331Y-96623536D01*
X86263268Y-96589996D01*
X86229592Y-96533053D01*
X86229589Y-96533050D01*
X86229587Y-96533047D01*
X86112952Y-96416412D01*
X86112943Y-96416405D01*
X86002718Y-96351218D01*
X85970959Y-96332436D01*
X85970958Y-96332435D01*
X85970957Y-96332435D01*
X85970954Y-96332434D01*
X85812552Y-96286413D01*
X85806312Y-96285274D01*
X85806637Y-96283492D01*
X85749461Y-96261686D01*
X85708003Y-96205445D01*
X85700501Y-96162969D01*
X85700501Y-96020945D01*
X85700501Y-96020943D01*
X85659577Y-95868215D01*
X85659576Y-95868214D01*
X85659576Y-95868212D01*
X85659574Y-95868209D01*
X85626115Y-95810257D01*
X85626114Y-95810256D01*
X85580520Y-95731284D01*
X85468716Y-95619480D01*
X85468715Y-95619479D01*
X85464385Y-95615149D01*
X85464374Y-95615139D01*
X82487590Y-92638355D01*
X82487588Y-92638352D01*
X82368717Y-92519481D01*
X82368716Y-92519480D01*
X82261948Y-92457838D01*
X82261947Y-92457837D01*
X82231783Y-92440422D01*
X82175881Y-92425443D01*
X82079057Y-92399499D01*
X81920943Y-92399499D01*
X81913347Y-92399499D01*
X81913331Y-92399500D01*
X81172596Y-92399500D01*
X81105557Y-92379815D01*
X81072278Y-92348386D01*
X81069523Y-92344594D01*
X80953828Y-92185354D01*
X80814646Y-92046172D01*
X80655405Y-91930476D01*
X80636699Y-91920945D01*
X80480029Y-91841117D01*
X80292826Y-91780290D01*
X80098422Y-91749500D01*
X80098417Y-91749500D01*
X79901583Y-91749500D01*
X79901578Y-91749500D01*
X79707173Y-91780290D01*
X79519970Y-91841117D01*
X79344594Y-91930476D01*
X79253741Y-91996485D01*
X79185354Y-92046172D01*
X79185352Y-92046174D01*
X79185351Y-92046174D01*
X79046174Y-92185351D01*
X79046174Y-92185352D01*
X79046172Y-92185354D01*
X79011513Y-92233058D01*
X78930476Y-92344594D01*
X78841117Y-92519970D01*
X78780290Y-92707173D01*
X78749500Y-92901577D01*
X74500500Y-92901577D01*
X74500500Y-90074553D01*
X85769500Y-90074553D01*
X85769500Y-90310748D01*
X85806446Y-90544019D01*
X85879433Y-90768647D01*
X85912398Y-90833343D01*
X85986657Y-90979084D01*
X86014047Y-91016783D01*
X86031433Y-91050661D01*
X86035184Y-91061982D01*
X86035186Y-91061985D01*
X86127288Y-91211307D01*
X86251344Y-91335363D01*
X86396752Y-91425051D01*
X86400668Y-91427466D01*
X86400672Y-91427467D01*
X86411984Y-91431216D01*
X86445867Y-91448604D01*
X86479808Y-91473263D01*
X86483567Y-91475994D01*
X86609186Y-91540000D01*
X86694003Y-91583217D01*
X86694005Y-91583217D01*
X86694008Y-91583219D01*
X86780885Y-91611447D01*
X86918631Y-91656204D01*
X87151903Y-91693151D01*
X87151908Y-91693151D01*
X94239665Y-91693151D01*
X94306704Y-91712836D01*
X94338929Y-91742837D01*
X94342454Y-91747546D01*
X94370056Y-91768209D01*
X94457664Y-91833793D01*
X94457671Y-91833797D01*
X94502618Y-91850561D01*
X94592517Y-91884091D01*
X94652127Y-91890500D01*
X94865598Y-91890499D01*
X94921893Y-91904014D01*
X94974008Y-91930568D01*
X95155059Y-91989395D01*
X95198631Y-92003553D01*
X95431903Y-92040500D01*
X95431908Y-92040500D01*
X95668092Y-92040500D01*
X99521908Y-92040500D01*
X103611908Y-92040500D01*
X107701908Y-92040500D01*
X111791908Y-92040500D01*
X115881908Y-92040500D01*
X119971908Y-92040500D01*
X124061908Y-92040500D01*
X128151908Y-92040500D01*
X132241908Y-92040500D01*
X136331908Y-92040500D01*
X140421908Y-92040500D01*
X144375500Y-92040500D01*
X144442539Y-92060185D01*
X144488294Y-92112989D01*
X144499500Y-92164500D01*
X144499500Y-96118097D01*
X144536446Y-96351368D01*
X144609433Y-96575996D01*
X144677405Y-96709397D01*
X144716657Y-96786433D01*
X144855483Y-96977510D01*
X145022490Y-97144517D01*
X145213567Y-97283343D01*
X145312991Y-97334002D01*
X145424003Y-97390566D01*
X145424005Y-97390566D01*
X145424008Y-97390568D01*
X145544412Y-97429689D01*
X145648631Y-97463553D01*
X145881903Y-97500500D01*
X145881908Y-97500500D01*
X146118097Y-97500500D01*
X146351368Y-97463553D01*
X146575992Y-97390568D01*
X146786433Y-97283343D01*
X146977510Y-97144517D01*
X147144517Y-96977510D01*
X147283343Y-96786433D01*
X147390568Y-96575992D01*
X147463553Y-96351368D01*
X147500500Y-96118097D01*
X147500500Y-91164500D01*
X147520185Y-91097461D01*
X147572989Y-91051706D01*
X147624500Y-91040500D01*
X150809012Y-91040500D01*
X150828411Y-91042027D01*
X150881904Y-91050500D01*
X150881908Y-91050500D01*
X156368097Y-91050500D01*
X156601368Y-91013553D01*
X156825992Y-90940568D01*
X157036434Y-90833343D01*
X157227510Y-90694517D01*
X157350953Y-90571072D01*
X157399631Y-90541048D01*
X157402797Y-90539999D01*
X157569334Y-90484814D01*
X157718656Y-90392712D01*
X157842712Y-90268656D01*
X157934814Y-90119334D01*
X157989999Y-89952797D01*
X157991105Y-89941960D01*
X158014143Y-89881676D01*
X158083343Y-89786434D01*
X158190568Y-89575993D01*
X158263552Y-89351369D01*
X158291645Y-89173995D01*
X158300499Y-89118097D01*
X158300499Y-88881903D01*
X158276296Y-88729097D01*
X158263552Y-88648632D01*
X158212568Y-88491717D01*
X158190569Y-88424010D01*
X158190568Y-88424007D01*
X158091716Y-88230000D01*
X158083343Y-88213567D01*
X158083341Y-88213564D01*
X158083340Y-88213562D01*
X158022700Y-88130099D01*
X158014145Y-88118325D01*
X157991105Y-88058038D01*
X157989999Y-88047203D01*
X157934814Y-87880666D01*
X157842712Y-87731344D01*
X157718656Y-87607288D01*
X157569334Y-87515186D01*
X157402797Y-87460001D01*
X157402795Y-87460000D01*
X157300010Y-87449500D01*
X156299998Y-87449500D01*
X156299980Y-87449501D01*
X156197203Y-87460000D01*
X156197200Y-87460001D01*
X156030668Y-87515185D01*
X156030663Y-87515187D01*
X155881342Y-87607289D01*
X155757289Y-87731342D01*
X155665187Y-87880663D01*
X155665185Y-87880668D01*
X155637405Y-87964504D01*
X155623534Y-87984536D01*
X155613412Y-88006703D01*
X155603999Y-88012751D01*
X155597632Y-88021949D01*
X155575133Y-88031302D01*
X155554634Y-88044477D01*
X155537532Y-88046935D01*
X155533116Y-88048772D01*
X155519699Y-88049500D01*
X155349000Y-88049500D01*
X155281961Y-88029815D01*
X155236206Y-87977011D01*
X155225000Y-87925500D01*
X155225000Y-87900000D01*
X152775001Y-87900000D01*
X152775001Y-87925500D01*
X152755316Y-87992539D01*
X152702512Y-88038294D01*
X152651001Y-88049500D01*
X152349000Y-88049500D01*
X152281961Y-88029815D01*
X152236206Y-87977011D01*
X152225000Y-87925500D01*
X152225000Y-87900000D01*
X149775001Y-87900000D01*
X149775001Y-87915500D01*
X149755316Y-87982539D01*
X149702512Y-88028294D01*
X149651001Y-88039500D01*
X147645276Y-88039500D01*
X147578237Y-88019815D01*
X147532482Y-87967011D01*
X147522538Y-87897853D01*
X147527345Y-87877183D01*
X147537988Y-87844425D01*
X147537989Y-87844418D01*
X147570000Y-87642317D01*
X147570000Y-87437682D01*
X147558688Y-87366262D01*
X147556114Y-87350013D01*
X149775000Y-87350013D01*
X149775000Y-87400000D01*
X150750000Y-87400000D01*
X151250000Y-87400000D01*
X152224999Y-87400000D01*
X152224999Y-87350029D01*
X152224998Y-87350013D01*
X152775000Y-87350013D01*
X152775000Y-87400000D01*
X153750000Y-87400000D01*
X154250000Y-87400000D01*
X155224999Y-87400000D01*
X155224999Y-87350028D01*
X155224998Y-87350013D01*
X155214505Y-87247302D01*
X155159358Y-87080880D01*
X155159356Y-87080875D01*
X155067315Y-86931654D01*
X154943345Y-86807684D01*
X154794124Y-86715643D01*
X154794119Y-86715641D01*
X154627697Y-86660494D01*
X154627690Y-86660493D01*
X154524986Y-86650000D01*
X154250000Y-86650000D01*
X154250000Y-87400000D01*
X153750000Y-87400000D01*
X153750000Y-86650000D01*
X153475029Y-86650000D01*
X153475012Y-86650001D01*
X153372302Y-86660494D01*
X153205880Y-86715641D01*
X153205875Y-86715643D01*
X153056654Y-86807684D01*
X152932684Y-86931654D01*
X152840643Y-87080875D01*
X152840641Y-87080880D01*
X152785494Y-87247302D01*
X152785493Y-87247309D01*
X152775000Y-87350013D01*
X152224998Y-87350013D01*
X152224998Y-87350012D01*
X152214505Y-87247302D01*
X152159358Y-87080880D01*
X152159356Y-87080875D01*
X152067315Y-86931654D01*
X151943345Y-86807684D01*
X151794124Y-86715643D01*
X151794119Y-86715641D01*
X151627697Y-86660494D01*
X151627690Y-86660493D01*
X151524986Y-86650000D01*
X151250000Y-86650000D01*
X151250000Y-87400000D01*
X150750000Y-87400000D01*
X150750000Y-86650000D01*
X150475029Y-86650000D01*
X150475012Y-86650001D01*
X150372302Y-86660494D01*
X150205880Y-86715641D01*
X150205875Y-86715643D01*
X150056654Y-86807684D01*
X149932684Y-86931654D01*
X149840643Y-87080875D01*
X149840641Y-87080880D01*
X149785494Y-87247302D01*
X149785493Y-87247309D01*
X149775000Y-87350013D01*
X147556114Y-87350013D01*
X147537990Y-87235582D01*
X147474755Y-87040968D01*
X147381859Y-86858650D01*
X147349474Y-86814077D01*
X147349474Y-86814076D01*
X146670000Y-87493551D01*
X146670000Y-87487339D01*
X146642741Y-87385606D01*
X146590080Y-87294394D01*
X146515606Y-87219920D01*
X146424394Y-87167259D01*
X146322661Y-87140000D01*
X146316446Y-87140000D01*
X146995922Y-86460524D01*
X146995921Y-86460523D01*
X146951359Y-86428147D01*
X146951350Y-86428141D01*
X146769031Y-86335244D01*
X146574417Y-86272009D01*
X146372317Y-86240000D01*
X146167683Y-86240000D01*
X145965582Y-86272009D01*
X145770968Y-86335244D01*
X145588644Y-86428143D01*
X145544077Y-86460523D01*
X145544077Y-86460524D01*
X146223554Y-87140000D01*
X146217339Y-87140000D01*
X146115606Y-87167259D01*
X146024394Y-87219920D01*
X145949920Y-87294394D01*
X145897259Y-87385606D01*
X145870000Y-87487339D01*
X145870000Y-87493553D01*
X145190524Y-86814077D01*
X145190523Y-86814077D01*
X145158143Y-86858644D01*
X145065244Y-87040968D01*
X145002009Y-87235582D01*
X144970000Y-87437682D01*
X144970000Y-87642317D01*
X145002009Y-87844417D01*
X145065244Y-88039031D01*
X145158142Y-88221352D01*
X145209147Y-88291555D01*
X145218188Y-88316895D01*
X145230553Y-88340792D01*
X145229752Y-88349305D01*
X145232627Y-88357361D01*
X145226532Y-88383570D01*
X145224015Y-88410355D01*
X145218278Y-88419066D01*
X145216802Y-88425415D01*
X145206413Y-88440947D01*
X145201795Y-88446836D01*
X145127288Y-88521344D01*
X145067919Y-88617594D01*
X145063619Y-88623080D01*
X145061167Y-88624831D01*
X145053716Y-88634254D01*
X144684790Y-89003182D01*
X144623470Y-89036666D01*
X144597111Y-89039500D01*
X141696815Y-89039500D01*
X141629776Y-89019815D01*
X141584021Y-88967011D01*
X141574077Y-88897853D01*
X141596497Y-88842615D01*
X141694620Y-88707557D01*
X141791095Y-88518217D01*
X141856757Y-88316130D01*
X141856757Y-88316127D01*
X141890000Y-88106246D01*
X141890000Y-87893753D01*
X141856757Y-87683872D01*
X141856757Y-87683869D01*
X141791095Y-87481782D01*
X141694624Y-87292449D01*
X141655270Y-87238282D01*
X141655269Y-87238282D01*
X141022962Y-87870589D01*
X141005925Y-87807007D01*
X140940099Y-87692993D01*
X140847007Y-87599901D01*
X140732993Y-87534075D01*
X140669409Y-87517037D01*
X141301716Y-86884728D01*
X141247547Y-86845373D01*
X141247547Y-86845372D01*
X141238500Y-86840763D01*
X141187706Y-86792788D01*
X141170912Y-86724966D01*
X141193451Y-86658832D01*
X141238508Y-86619793D01*
X141247816Y-86615051D01*
X141327007Y-86557515D01*
X141419786Y-86490109D01*
X141419788Y-86490106D01*
X141419792Y-86490104D01*
X141570104Y-86339792D01*
X141570106Y-86339788D01*
X141570109Y-86339786D01*
X141695048Y-86167820D01*
X141695047Y-86167820D01*
X141695051Y-86167816D01*
X141791557Y-85978412D01*
X141837342Y-85837500D01*
X151430574Y-85837500D01*
X151440283Y-85911248D01*
X151440284Y-85911253D01*
X151500108Y-86055682D01*
X151500108Y-86055683D01*
X151595283Y-86179716D01*
X151719317Y-86274891D01*
X151863746Y-86334715D01*
X151863758Y-86334719D01*
X151924998Y-86342780D01*
X151925000Y-86342779D01*
X152300000Y-86342779D01*
X152300001Y-86342780D01*
X152361241Y-86334719D01*
X152361253Y-86334715D01*
X152505682Y-86274891D01*
X152505683Y-86274891D01*
X152629716Y-86179716D01*
X152724891Y-86055683D01*
X152724891Y-86055682D01*
X152784715Y-85911253D01*
X152784716Y-85911248D01*
X152794426Y-85837500D01*
X152300000Y-85837500D01*
X152300000Y-86342779D01*
X151925000Y-86342779D01*
X151925000Y-85837500D01*
X151430574Y-85837500D01*
X141837342Y-85837500D01*
X141857246Y-85776243D01*
X141890500Y-85566287D01*
X141890500Y-85462499D01*
X151430574Y-85462499D01*
X151430575Y-85462500D01*
X151925000Y-85462500D01*
X152300000Y-85462500D01*
X152794425Y-85462500D01*
X152794425Y-85462499D01*
X152784716Y-85388749D01*
X152777967Y-85372455D01*
X152774459Y-85339832D01*
X152769789Y-85307353D01*
X152770742Y-85305265D01*
X152770497Y-85302986D01*
X152777967Y-85277545D01*
X152784716Y-85261250D01*
X152794426Y-85187500D01*
X152300000Y-85187500D01*
X152300000Y-85462500D01*
X151925000Y-85462500D01*
X151925000Y-85187500D01*
X151433515Y-85187500D01*
X151454474Y-85302828D01*
X151452126Y-85324927D01*
X151454501Y-85347020D01*
X151447102Y-85372216D01*
X151447093Y-85372307D01*
X151447066Y-85372340D01*
X151447034Y-85372450D01*
X151440284Y-85388746D01*
X151440283Y-85388751D01*
X151430574Y-85462499D01*
X141890500Y-85462499D01*
X141890500Y-85353713D01*
X141883157Y-85307353D01*
X141860988Y-85167380D01*
X141857475Y-85145202D01*
X141857246Y-85143757D01*
X141791557Y-84941588D01*
X141725783Y-84812499D01*
X151430574Y-84812499D01*
X151430575Y-84812500D01*
X151925000Y-84812500D01*
X152300000Y-84812500D01*
X152794425Y-84812500D01*
X152794425Y-84812499D01*
X152784716Y-84738749D01*
X152777967Y-84722455D01*
X152774459Y-84689832D01*
X152769789Y-84657353D01*
X152770742Y-84655265D01*
X152770497Y-84652986D01*
X152777967Y-84627545D01*
X152784716Y-84611250D01*
X152794426Y-84537500D01*
X152300000Y-84537500D01*
X152300000Y-84812500D01*
X151925000Y-84812500D01*
X151925000Y-84537500D01*
X151433515Y-84537500D01*
X151454474Y-84652828D01*
X151452126Y-84674927D01*
X151454501Y-84697020D01*
X151447102Y-84722216D01*
X151447093Y-84722307D01*
X151447066Y-84722340D01*
X151447034Y-84722450D01*
X151440284Y-84738746D01*
X151440283Y-84738751D01*
X151430574Y-84812499D01*
X141725783Y-84812499D01*
X141695051Y-84752184D01*
X141695049Y-84752181D01*
X141695048Y-84752179D01*
X141570109Y-84580214D01*
X141570105Y-84580209D01*
X141419792Y-84429896D01*
X141370751Y-84394266D01*
X141247816Y-84304949D01*
X141058412Y-84208443D01*
X140917012Y-84162499D01*
X151430574Y-84162499D01*
X151430575Y-84162500D01*
X151925000Y-84162500D01*
X152300000Y-84162500D01*
X152794425Y-84162500D01*
X152794425Y-84162499D01*
X152784716Y-84088751D01*
X152784715Y-84088746D01*
X152724891Y-83944317D01*
X152724891Y-83944316D01*
X152629716Y-83820283D01*
X152505682Y-83725108D01*
X152361250Y-83665283D01*
X152300000Y-83657218D01*
X152300000Y-84162500D01*
X151925000Y-84162500D01*
X151925000Y-83657218D01*
X151924999Y-83657218D01*
X151863749Y-83665283D01*
X151719317Y-83725108D01*
X151719316Y-83725108D01*
X151595283Y-83820283D01*
X151500108Y-83944316D01*
X151500108Y-83944317D01*
X151440284Y-84088746D01*
X151440283Y-84088751D01*
X151430574Y-84162499D01*
X140917012Y-84162499D01*
X140856243Y-84142754D01*
X140856241Y-84142753D01*
X140856240Y-84142753D01*
X140670708Y-84113368D01*
X140646287Y-84109500D01*
X140433713Y-84109500D01*
X140409292Y-84113368D01*
X140223760Y-84142753D01*
X140021585Y-84208444D01*
X139832179Y-84304951D01*
X139660213Y-84429890D01*
X139509890Y-84580213D01*
X139384951Y-84752179D01*
X139288444Y-84941585D01*
X139222753Y-85143760D01*
X139196843Y-85307353D01*
X139189500Y-85353713D01*
X139189500Y-85566287D01*
X139191798Y-85580794D01*
X139221039Y-85765420D01*
X139222754Y-85776243D01*
X139285324Y-85968814D01*
X139288444Y-85978414D01*
X139384951Y-86167820D01*
X139509890Y-86339786D01*
X139660213Y-86490109D01*
X139832179Y-86615048D01*
X139832181Y-86615049D01*
X139832184Y-86615051D01*
X139841493Y-86619794D01*
X139892290Y-86667766D01*
X139909087Y-86735587D01*
X139886552Y-86801722D01*
X139841505Y-86840760D01*
X139832446Y-86845376D01*
X139832440Y-86845380D01*
X139778282Y-86884727D01*
X139778282Y-86884728D01*
X140410591Y-87517037D01*
X140347007Y-87534075D01*
X140232993Y-87599901D01*
X140139901Y-87692993D01*
X140074075Y-87807007D01*
X140057037Y-87870591D01*
X139424728Y-87238282D01*
X139424727Y-87238282D01*
X139385380Y-87292439D01*
X139288904Y-87481782D01*
X139223242Y-87683869D01*
X139223242Y-87683872D01*
X139190000Y-87893753D01*
X139190000Y-88106246D01*
X139223242Y-88316127D01*
X139223242Y-88316130D01*
X139288904Y-88518217D01*
X139385379Y-88707557D01*
X139483503Y-88842615D01*
X139506983Y-88908421D01*
X139491157Y-88976475D01*
X139441051Y-89025170D01*
X139383185Y-89039500D01*
X137606815Y-89039500D01*
X137539776Y-89019815D01*
X137494021Y-88967011D01*
X137484077Y-88897853D01*
X137506497Y-88842615D01*
X137604620Y-88707557D01*
X137701095Y-88518217D01*
X137766757Y-88316130D01*
X137766757Y-88316127D01*
X137800000Y-88106246D01*
X137800000Y-87893753D01*
X137766757Y-87683872D01*
X137766757Y-87683869D01*
X137701095Y-87481782D01*
X137604624Y-87292449D01*
X137565270Y-87238282D01*
X137565269Y-87238282D01*
X136932962Y-87870589D01*
X136915925Y-87807007D01*
X136850099Y-87692993D01*
X136757007Y-87599901D01*
X136642993Y-87534075D01*
X136579409Y-87517037D01*
X137211716Y-86884728D01*
X137157547Y-86845373D01*
X137157547Y-86845372D01*
X137148500Y-86840763D01*
X137097706Y-86792788D01*
X137080912Y-86724966D01*
X137103451Y-86658832D01*
X137148508Y-86619793D01*
X137157816Y-86615051D01*
X137237007Y-86557515D01*
X137329786Y-86490109D01*
X137329788Y-86490106D01*
X137329792Y-86490104D01*
X137480104Y-86339792D01*
X137480106Y-86339788D01*
X137480109Y-86339786D01*
X137605048Y-86167820D01*
X137605047Y-86167820D01*
X137605051Y-86167816D01*
X137701557Y-85978412D01*
X137767246Y-85776243D01*
X137800500Y-85566287D01*
X137800500Y-85353713D01*
X137767246Y-85143757D01*
X137701557Y-84941588D01*
X137605051Y-84752184D01*
X137605049Y-84752181D01*
X137605048Y-84752179D01*
X137480109Y-84580213D01*
X137329786Y-84429890D01*
X137157820Y-84304951D01*
X136968414Y-84208444D01*
X136968413Y-84208443D01*
X136968412Y-84208443D01*
X136766243Y-84142754D01*
X136766241Y-84142753D01*
X136766240Y-84142753D01*
X136580708Y-84113368D01*
X136556287Y-84109500D01*
X136343713Y-84109500D01*
X136319292Y-84113368D01*
X136133760Y-84142753D01*
X135931585Y-84208444D01*
X135742179Y-84304951D01*
X135570213Y-84429890D01*
X135419890Y-84580213D01*
X135294951Y-84752179D01*
X135198444Y-84941585D01*
X135132753Y-85143760D01*
X135106843Y-85307353D01*
X135099500Y-85353713D01*
X135099500Y-85566287D01*
X135101798Y-85580794D01*
X135131039Y-85765420D01*
X135132754Y-85776243D01*
X135195324Y-85968814D01*
X135198444Y-85978414D01*
X135294951Y-86167820D01*
X135419890Y-86339786D01*
X135570213Y-86490109D01*
X135742179Y-86615048D01*
X135742181Y-86615049D01*
X135742184Y-86615051D01*
X135751493Y-86619794D01*
X135802290Y-86667766D01*
X135819087Y-86735587D01*
X135796552Y-86801722D01*
X135751505Y-86840760D01*
X135742446Y-86845376D01*
X135742440Y-86845380D01*
X135688282Y-86884727D01*
X135688282Y-86884728D01*
X136320591Y-87517037D01*
X136257007Y-87534075D01*
X136142993Y-87599901D01*
X136049901Y-87692993D01*
X135984075Y-87807007D01*
X135967037Y-87870591D01*
X135334728Y-87238282D01*
X135334727Y-87238282D01*
X135295380Y-87292439D01*
X135198904Y-87481782D01*
X135133242Y-87683869D01*
X135133242Y-87683872D01*
X135100000Y-87893753D01*
X135100000Y-88106246D01*
X135133242Y-88316127D01*
X135133242Y-88316130D01*
X135198904Y-88518217D01*
X135295379Y-88707557D01*
X135393503Y-88842615D01*
X135416983Y-88908421D01*
X135401157Y-88976475D01*
X135351051Y-89025170D01*
X135293185Y-89039500D01*
X133516815Y-89039500D01*
X133449776Y-89019815D01*
X133404021Y-88967011D01*
X133394077Y-88897853D01*
X133416497Y-88842615D01*
X133514620Y-88707557D01*
X133611095Y-88518217D01*
X133676757Y-88316130D01*
X133676757Y-88316127D01*
X133710000Y-88106246D01*
X133710000Y-87893753D01*
X133676757Y-87683872D01*
X133676757Y-87683869D01*
X133611095Y-87481782D01*
X133514624Y-87292449D01*
X133475270Y-87238282D01*
X133475269Y-87238282D01*
X132842962Y-87870589D01*
X132825925Y-87807007D01*
X132760099Y-87692993D01*
X132667007Y-87599901D01*
X132552993Y-87534075D01*
X132489409Y-87517037D01*
X133121716Y-86884728D01*
X133067547Y-86845373D01*
X133067547Y-86845372D01*
X133058500Y-86840763D01*
X133007706Y-86792788D01*
X132990912Y-86724966D01*
X133013451Y-86658832D01*
X133058508Y-86619793D01*
X133067816Y-86615051D01*
X133147007Y-86557515D01*
X133239786Y-86490109D01*
X133239788Y-86490106D01*
X133239792Y-86490104D01*
X133390104Y-86339792D01*
X133390106Y-86339788D01*
X133390109Y-86339786D01*
X133515048Y-86167820D01*
X133515047Y-86167820D01*
X133515051Y-86167816D01*
X133611557Y-85978412D01*
X133677246Y-85776243D01*
X133710500Y-85566287D01*
X133710500Y-85353713D01*
X133677246Y-85143757D01*
X133611557Y-84941588D01*
X133515051Y-84752184D01*
X133515049Y-84752181D01*
X133515048Y-84752179D01*
X133390109Y-84580213D01*
X133239786Y-84429890D01*
X133067820Y-84304951D01*
X132878414Y-84208444D01*
X132878413Y-84208443D01*
X132878412Y-84208443D01*
X132676243Y-84142754D01*
X132676241Y-84142753D01*
X132676240Y-84142753D01*
X132490708Y-84113368D01*
X132466287Y-84109500D01*
X132253713Y-84109500D01*
X132229292Y-84113368D01*
X132043760Y-84142753D01*
X131841585Y-84208444D01*
X131652179Y-84304951D01*
X131480213Y-84429890D01*
X131329890Y-84580213D01*
X131204951Y-84752179D01*
X131108444Y-84941585D01*
X131042753Y-85143760D01*
X131016843Y-85307353D01*
X131009500Y-85353713D01*
X131009500Y-85566287D01*
X131011798Y-85580794D01*
X131041039Y-85765420D01*
X131042754Y-85776243D01*
X131105324Y-85968814D01*
X131108444Y-85978414D01*
X131204951Y-86167820D01*
X131329890Y-86339786D01*
X131480213Y-86490109D01*
X131652179Y-86615048D01*
X131652181Y-86615049D01*
X131652184Y-86615051D01*
X131661493Y-86619794D01*
X131712290Y-86667766D01*
X131729087Y-86735587D01*
X131706552Y-86801722D01*
X131661505Y-86840760D01*
X131652446Y-86845376D01*
X131652440Y-86845380D01*
X131598282Y-86884727D01*
X131598282Y-86884728D01*
X132230591Y-87517037D01*
X132167007Y-87534075D01*
X132052993Y-87599901D01*
X131959901Y-87692993D01*
X131894075Y-87807007D01*
X131877037Y-87870591D01*
X131244728Y-87238282D01*
X131244727Y-87238282D01*
X131205380Y-87292439D01*
X131108904Y-87481782D01*
X131043242Y-87683869D01*
X131043242Y-87683872D01*
X131010000Y-87893753D01*
X131010000Y-88106246D01*
X131043242Y-88316127D01*
X131043242Y-88316130D01*
X131108904Y-88518217D01*
X131205379Y-88707557D01*
X131303503Y-88842615D01*
X131326983Y-88908421D01*
X131311157Y-88976475D01*
X131261051Y-89025170D01*
X131203185Y-89039500D01*
X129426815Y-89039500D01*
X129359776Y-89019815D01*
X129314021Y-88967011D01*
X129304077Y-88897853D01*
X129326497Y-88842615D01*
X129424620Y-88707557D01*
X129521095Y-88518217D01*
X129586757Y-88316130D01*
X129586757Y-88316127D01*
X129620000Y-88106246D01*
X129620000Y-87893753D01*
X129586757Y-87683872D01*
X129586757Y-87683869D01*
X129521095Y-87481782D01*
X129424624Y-87292449D01*
X129385270Y-87238282D01*
X129385269Y-87238282D01*
X128752962Y-87870589D01*
X128735925Y-87807007D01*
X128670099Y-87692993D01*
X128577007Y-87599901D01*
X128462993Y-87534075D01*
X128399409Y-87517037D01*
X129031716Y-86884728D01*
X128977547Y-86845373D01*
X128977547Y-86845372D01*
X128968500Y-86840763D01*
X128917706Y-86792788D01*
X128900912Y-86724966D01*
X128923451Y-86658832D01*
X128968508Y-86619793D01*
X128977816Y-86615051D01*
X129057007Y-86557515D01*
X129149786Y-86490109D01*
X129149788Y-86490106D01*
X129149792Y-86490104D01*
X129300104Y-86339792D01*
X129300106Y-86339788D01*
X129300109Y-86339786D01*
X129425048Y-86167820D01*
X129425047Y-86167820D01*
X129425051Y-86167816D01*
X129521557Y-85978412D01*
X129587246Y-85776243D01*
X129620500Y-85566287D01*
X129620500Y-85353713D01*
X129587246Y-85143757D01*
X129521557Y-84941588D01*
X129425051Y-84752184D01*
X129425049Y-84752181D01*
X129425048Y-84752179D01*
X129300109Y-84580213D01*
X129149786Y-84429890D01*
X128977820Y-84304951D01*
X128788414Y-84208444D01*
X128788413Y-84208443D01*
X128788412Y-84208443D01*
X128586243Y-84142754D01*
X128586241Y-84142753D01*
X128586240Y-84142753D01*
X128400708Y-84113368D01*
X128376287Y-84109500D01*
X128163713Y-84109500D01*
X128139292Y-84113368D01*
X127953760Y-84142753D01*
X127751585Y-84208444D01*
X127562179Y-84304951D01*
X127390213Y-84429890D01*
X127239890Y-84580213D01*
X127114951Y-84752179D01*
X127018444Y-84941585D01*
X126952753Y-85143760D01*
X126926843Y-85307353D01*
X126919500Y-85353713D01*
X126919500Y-85566287D01*
X126921798Y-85580794D01*
X126951039Y-85765420D01*
X126952754Y-85776243D01*
X127015324Y-85968814D01*
X127018444Y-85978414D01*
X127114951Y-86167820D01*
X127239890Y-86339786D01*
X127390213Y-86490109D01*
X127562179Y-86615048D01*
X127562181Y-86615049D01*
X127562184Y-86615051D01*
X127571493Y-86619794D01*
X127622290Y-86667766D01*
X127639087Y-86735587D01*
X127616552Y-86801722D01*
X127571505Y-86840760D01*
X127562446Y-86845376D01*
X127562440Y-86845380D01*
X127508282Y-86884727D01*
X127508282Y-86884728D01*
X128140591Y-87517037D01*
X128077007Y-87534075D01*
X127962993Y-87599901D01*
X127869901Y-87692993D01*
X127804075Y-87807007D01*
X127787037Y-87870591D01*
X127154728Y-87238282D01*
X127154727Y-87238282D01*
X127115380Y-87292439D01*
X127018904Y-87481782D01*
X126953242Y-87683869D01*
X126953242Y-87683872D01*
X126920000Y-87893753D01*
X126920000Y-88106246D01*
X126953242Y-88316127D01*
X126953242Y-88316130D01*
X127018904Y-88518217D01*
X127115379Y-88707557D01*
X127213503Y-88842615D01*
X127236983Y-88908421D01*
X127221157Y-88976475D01*
X127171051Y-89025170D01*
X127113185Y-89039500D01*
X125336815Y-89039500D01*
X125269776Y-89019815D01*
X125224021Y-88967011D01*
X125214077Y-88897853D01*
X125236497Y-88842615D01*
X125334620Y-88707557D01*
X125431095Y-88518217D01*
X125496757Y-88316130D01*
X125496757Y-88316127D01*
X125530000Y-88106246D01*
X125530000Y-87893753D01*
X125496757Y-87683872D01*
X125496757Y-87683869D01*
X125431095Y-87481782D01*
X125334624Y-87292449D01*
X125295270Y-87238282D01*
X125295269Y-87238282D01*
X124662962Y-87870589D01*
X124645925Y-87807007D01*
X124580099Y-87692993D01*
X124487007Y-87599901D01*
X124372993Y-87534075D01*
X124309409Y-87517037D01*
X124941716Y-86884728D01*
X124887547Y-86845373D01*
X124887547Y-86845372D01*
X124878500Y-86840763D01*
X124827706Y-86792788D01*
X124810912Y-86724966D01*
X124833451Y-86658832D01*
X124878508Y-86619793D01*
X124887816Y-86615051D01*
X124967007Y-86557515D01*
X125059786Y-86490109D01*
X125059788Y-86490106D01*
X125059792Y-86490104D01*
X125210104Y-86339792D01*
X125210106Y-86339788D01*
X125210109Y-86339786D01*
X125335048Y-86167820D01*
X125335047Y-86167820D01*
X125335051Y-86167816D01*
X125431557Y-85978412D01*
X125497246Y-85776243D01*
X125530500Y-85566287D01*
X125530500Y-85353713D01*
X125497246Y-85143757D01*
X125431557Y-84941588D01*
X125335051Y-84752184D01*
X125335049Y-84752181D01*
X125335048Y-84752179D01*
X125210109Y-84580213D01*
X125059786Y-84429890D01*
X124887820Y-84304951D01*
X124698414Y-84208444D01*
X124698413Y-84208443D01*
X124698412Y-84208443D01*
X124496243Y-84142754D01*
X124496241Y-84142753D01*
X124496240Y-84142753D01*
X124310708Y-84113368D01*
X124286287Y-84109500D01*
X124073713Y-84109500D01*
X124049292Y-84113368D01*
X123863760Y-84142753D01*
X123661585Y-84208444D01*
X123472179Y-84304951D01*
X123300213Y-84429890D01*
X123149890Y-84580213D01*
X123024951Y-84752179D01*
X122928444Y-84941585D01*
X122862753Y-85143760D01*
X122836843Y-85307353D01*
X122829500Y-85353713D01*
X122829500Y-85566287D01*
X122831798Y-85580794D01*
X122861039Y-85765420D01*
X122862754Y-85776243D01*
X122925324Y-85968814D01*
X122928444Y-85978414D01*
X123024951Y-86167820D01*
X123149890Y-86339786D01*
X123300213Y-86490109D01*
X123472179Y-86615048D01*
X123472181Y-86615049D01*
X123472184Y-86615051D01*
X123481493Y-86619794D01*
X123532290Y-86667766D01*
X123549087Y-86735587D01*
X123526552Y-86801722D01*
X123481505Y-86840760D01*
X123472446Y-86845376D01*
X123472440Y-86845380D01*
X123418282Y-86884727D01*
X123418282Y-86884728D01*
X124050591Y-87517037D01*
X123987007Y-87534075D01*
X123872993Y-87599901D01*
X123779901Y-87692993D01*
X123714075Y-87807007D01*
X123697037Y-87870591D01*
X123064728Y-87238282D01*
X123064727Y-87238282D01*
X123025380Y-87292439D01*
X122928904Y-87481782D01*
X122863242Y-87683869D01*
X122863242Y-87683872D01*
X122830000Y-87893753D01*
X122830000Y-88106246D01*
X122863242Y-88316127D01*
X122863242Y-88316130D01*
X122928904Y-88518217D01*
X123025379Y-88707557D01*
X123123503Y-88842615D01*
X123146983Y-88908421D01*
X123131157Y-88976475D01*
X123081051Y-89025170D01*
X123023185Y-89039500D01*
X121246815Y-89039500D01*
X121179776Y-89019815D01*
X121134021Y-88967011D01*
X121124077Y-88897853D01*
X121146497Y-88842615D01*
X121244620Y-88707557D01*
X121341095Y-88518217D01*
X121406757Y-88316130D01*
X121406757Y-88316127D01*
X121440000Y-88106246D01*
X121440000Y-87893753D01*
X121406757Y-87683872D01*
X121406757Y-87683869D01*
X121341095Y-87481782D01*
X121244624Y-87292449D01*
X121205270Y-87238282D01*
X121205269Y-87238282D01*
X120572962Y-87870589D01*
X120555925Y-87807007D01*
X120490099Y-87692993D01*
X120397007Y-87599901D01*
X120282993Y-87534075D01*
X120219409Y-87517037D01*
X120851716Y-86884728D01*
X120797547Y-86845373D01*
X120797547Y-86845372D01*
X120788500Y-86840763D01*
X120737706Y-86792788D01*
X120720912Y-86724966D01*
X120743451Y-86658832D01*
X120788508Y-86619793D01*
X120797816Y-86615051D01*
X120877007Y-86557515D01*
X120969786Y-86490109D01*
X120969788Y-86490106D01*
X120969792Y-86490104D01*
X121120104Y-86339792D01*
X121120106Y-86339788D01*
X121120109Y-86339786D01*
X121245048Y-86167820D01*
X121245047Y-86167820D01*
X121245051Y-86167816D01*
X121341557Y-85978412D01*
X121407246Y-85776243D01*
X121440500Y-85566287D01*
X121440500Y-85353713D01*
X121407246Y-85143757D01*
X121341557Y-84941588D01*
X121245051Y-84752184D01*
X121245049Y-84752181D01*
X121245048Y-84752179D01*
X121120109Y-84580213D01*
X120969786Y-84429890D01*
X120797820Y-84304951D01*
X120608414Y-84208444D01*
X120608413Y-84208443D01*
X120608412Y-84208443D01*
X120406243Y-84142754D01*
X120406241Y-84142753D01*
X120406240Y-84142753D01*
X120220708Y-84113368D01*
X120196287Y-84109500D01*
X119983713Y-84109500D01*
X119959292Y-84113368D01*
X119773760Y-84142753D01*
X119571585Y-84208444D01*
X119382179Y-84304951D01*
X119210213Y-84429890D01*
X119059890Y-84580213D01*
X118934951Y-84752179D01*
X118838444Y-84941585D01*
X118772753Y-85143760D01*
X118746843Y-85307353D01*
X118739500Y-85353713D01*
X118739500Y-85566287D01*
X118741798Y-85580794D01*
X118771039Y-85765420D01*
X118772754Y-85776243D01*
X118835324Y-85968814D01*
X118838444Y-85978414D01*
X118934951Y-86167820D01*
X119059890Y-86339786D01*
X119210213Y-86490109D01*
X119382179Y-86615048D01*
X119382181Y-86615049D01*
X119382184Y-86615051D01*
X119391493Y-86619794D01*
X119442290Y-86667766D01*
X119459087Y-86735587D01*
X119436552Y-86801722D01*
X119391505Y-86840760D01*
X119382446Y-86845376D01*
X119382440Y-86845380D01*
X119328282Y-86884727D01*
X119328282Y-86884728D01*
X119960591Y-87517037D01*
X119897007Y-87534075D01*
X119782993Y-87599901D01*
X119689901Y-87692993D01*
X119624075Y-87807007D01*
X119607037Y-87870591D01*
X118974728Y-87238282D01*
X118974727Y-87238282D01*
X118935380Y-87292439D01*
X118838904Y-87481782D01*
X118773242Y-87683869D01*
X118773242Y-87683872D01*
X118740000Y-87893753D01*
X118740000Y-88106246D01*
X118773242Y-88316127D01*
X118773242Y-88316130D01*
X118838904Y-88518217D01*
X118935379Y-88707557D01*
X119033503Y-88842615D01*
X119056983Y-88908421D01*
X119041157Y-88976475D01*
X118991051Y-89025170D01*
X118933185Y-89039500D01*
X117156815Y-89039500D01*
X117089776Y-89019815D01*
X117044021Y-88967011D01*
X117034077Y-88897853D01*
X117056497Y-88842615D01*
X117154620Y-88707557D01*
X117251095Y-88518217D01*
X117316757Y-88316130D01*
X117316757Y-88316127D01*
X117350000Y-88106246D01*
X117350000Y-87893753D01*
X117316757Y-87683872D01*
X117316757Y-87683869D01*
X117251095Y-87481782D01*
X117154624Y-87292449D01*
X117115270Y-87238282D01*
X117115269Y-87238282D01*
X116482962Y-87870589D01*
X116465925Y-87807007D01*
X116400099Y-87692993D01*
X116307007Y-87599901D01*
X116192993Y-87534075D01*
X116129409Y-87517037D01*
X116761716Y-86884728D01*
X116707547Y-86845373D01*
X116707547Y-86845372D01*
X116698500Y-86840763D01*
X116647706Y-86792788D01*
X116630912Y-86724966D01*
X116653451Y-86658832D01*
X116698508Y-86619793D01*
X116707816Y-86615051D01*
X116787007Y-86557515D01*
X116879786Y-86490109D01*
X116879788Y-86490106D01*
X116879792Y-86490104D01*
X117030104Y-86339792D01*
X117030106Y-86339788D01*
X117030109Y-86339786D01*
X117155048Y-86167820D01*
X117155047Y-86167820D01*
X117155051Y-86167816D01*
X117251557Y-85978412D01*
X117317246Y-85776243D01*
X117350500Y-85566287D01*
X117350500Y-85353713D01*
X117317246Y-85143757D01*
X117251557Y-84941588D01*
X117155051Y-84752184D01*
X117155049Y-84752181D01*
X117155048Y-84752179D01*
X117030109Y-84580213D01*
X116879786Y-84429890D01*
X116707820Y-84304951D01*
X116518414Y-84208444D01*
X116518413Y-84208443D01*
X116518412Y-84208443D01*
X116316243Y-84142754D01*
X116316241Y-84142753D01*
X116316240Y-84142753D01*
X116130708Y-84113368D01*
X116106287Y-84109500D01*
X115893713Y-84109500D01*
X115869292Y-84113368D01*
X115683760Y-84142753D01*
X115481585Y-84208444D01*
X115292179Y-84304951D01*
X115120213Y-84429890D01*
X114969890Y-84580213D01*
X114844951Y-84752179D01*
X114748444Y-84941585D01*
X114682753Y-85143760D01*
X114656843Y-85307353D01*
X114649500Y-85353713D01*
X114649500Y-85566287D01*
X114651798Y-85580794D01*
X114681039Y-85765420D01*
X114682754Y-85776243D01*
X114745324Y-85968814D01*
X114748444Y-85978414D01*
X114844951Y-86167820D01*
X114969890Y-86339786D01*
X115120213Y-86490109D01*
X115292179Y-86615048D01*
X115292181Y-86615049D01*
X115292184Y-86615051D01*
X115301493Y-86619794D01*
X115352290Y-86667766D01*
X115369087Y-86735587D01*
X115346552Y-86801722D01*
X115301505Y-86840760D01*
X115292446Y-86845376D01*
X115292440Y-86845380D01*
X115238282Y-86884727D01*
X115238282Y-86884728D01*
X115870591Y-87517037D01*
X115807007Y-87534075D01*
X115692993Y-87599901D01*
X115599901Y-87692993D01*
X115534075Y-87807007D01*
X115517037Y-87870591D01*
X114884728Y-87238282D01*
X114884727Y-87238282D01*
X114845380Y-87292439D01*
X114748904Y-87481782D01*
X114683242Y-87683869D01*
X114683242Y-87683872D01*
X114650000Y-87893753D01*
X114650000Y-88106246D01*
X114683242Y-88316127D01*
X114683242Y-88316130D01*
X114748904Y-88518217D01*
X114845379Y-88707557D01*
X114943503Y-88842615D01*
X114966983Y-88908421D01*
X114951157Y-88976475D01*
X114901051Y-89025170D01*
X114843185Y-89039500D01*
X113066815Y-89039500D01*
X112999776Y-89019815D01*
X112954021Y-88967011D01*
X112944077Y-88897853D01*
X112966497Y-88842615D01*
X113064620Y-88707557D01*
X113161095Y-88518217D01*
X113226757Y-88316130D01*
X113226757Y-88316127D01*
X113260000Y-88106246D01*
X113260000Y-87893753D01*
X113226757Y-87683872D01*
X113226757Y-87683869D01*
X113161095Y-87481782D01*
X113064624Y-87292449D01*
X113025270Y-87238282D01*
X113025269Y-87238282D01*
X112392962Y-87870589D01*
X112375925Y-87807007D01*
X112310099Y-87692993D01*
X112217007Y-87599901D01*
X112102993Y-87534075D01*
X112039409Y-87517037D01*
X112671716Y-86884728D01*
X112617547Y-86845373D01*
X112617547Y-86845372D01*
X112608500Y-86840763D01*
X112557706Y-86792788D01*
X112540912Y-86724966D01*
X112563451Y-86658832D01*
X112608508Y-86619793D01*
X112617816Y-86615051D01*
X112697007Y-86557515D01*
X112789786Y-86490109D01*
X112789788Y-86490106D01*
X112789792Y-86490104D01*
X112940104Y-86339792D01*
X112940106Y-86339788D01*
X112940109Y-86339786D01*
X113065048Y-86167820D01*
X113065047Y-86167820D01*
X113065051Y-86167816D01*
X113161557Y-85978412D01*
X113227246Y-85776243D01*
X113260500Y-85566287D01*
X113260500Y-85353713D01*
X113227246Y-85143757D01*
X113161557Y-84941588D01*
X113065051Y-84752184D01*
X113065049Y-84752181D01*
X113065048Y-84752179D01*
X112940109Y-84580213D01*
X112789786Y-84429890D01*
X112617820Y-84304951D01*
X112428414Y-84208444D01*
X112428413Y-84208443D01*
X112428412Y-84208443D01*
X112226243Y-84142754D01*
X112226241Y-84142753D01*
X112226240Y-84142753D01*
X112040708Y-84113368D01*
X112016287Y-84109500D01*
X111803713Y-84109500D01*
X111779292Y-84113368D01*
X111593760Y-84142753D01*
X111391585Y-84208444D01*
X111202179Y-84304951D01*
X111030213Y-84429890D01*
X110879890Y-84580213D01*
X110754951Y-84752179D01*
X110658444Y-84941585D01*
X110592753Y-85143760D01*
X110566843Y-85307353D01*
X110559500Y-85353713D01*
X110559500Y-85566287D01*
X110561798Y-85580794D01*
X110591039Y-85765420D01*
X110592754Y-85776243D01*
X110655324Y-85968814D01*
X110658444Y-85978414D01*
X110754951Y-86167820D01*
X110879890Y-86339786D01*
X111030213Y-86490109D01*
X111202179Y-86615048D01*
X111202181Y-86615049D01*
X111202184Y-86615051D01*
X111211493Y-86619794D01*
X111262290Y-86667766D01*
X111279087Y-86735587D01*
X111256552Y-86801722D01*
X111211505Y-86840760D01*
X111202446Y-86845376D01*
X111202440Y-86845380D01*
X111148282Y-86884727D01*
X111148282Y-86884728D01*
X111780591Y-87517037D01*
X111717007Y-87534075D01*
X111602993Y-87599901D01*
X111509901Y-87692993D01*
X111444075Y-87807007D01*
X111427037Y-87870591D01*
X110794728Y-87238282D01*
X110794727Y-87238282D01*
X110755380Y-87292439D01*
X110658904Y-87481782D01*
X110593242Y-87683869D01*
X110593242Y-87683872D01*
X110560000Y-87893753D01*
X110560000Y-88106246D01*
X110593242Y-88316127D01*
X110593242Y-88316130D01*
X110658904Y-88518217D01*
X110755379Y-88707557D01*
X110853503Y-88842615D01*
X110876983Y-88908421D01*
X110861157Y-88976475D01*
X110811051Y-89025170D01*
X110753185Y-89039500D01*
X108976815Y-89039500D01*
X108909776Y-89019815D01*
X108864021Y-88967011D01*
X108854077Y-88897853D01*
X108876497Y-88842615D01*
X108974620Y-88707557D01*
X109071095Y-88518217D01*
X109136757Y-88316130D01*
X109136757Y-88316127D01*
X109170000Y-88106246D01*
X109170000Y-87893753D01*
X109136757Y-87683872D01*
X109136757Y-87683869D01*
X109071095Y-87481782D01*
X108974624Y-87292449D01*
X108935270Y-87238282D01*
X108935269Y-87238282D01*
X108302962Y-87870589D01*
X108285925Y-87807007D01*
X108220099Y-87692993D01*
X108127007Y-87599901D01*
X108012993Y-87534075D01*
X107949409Y-87517037D01*
X108581716Y-86884728D01*
X108527547Y-86845373D01*
X108527547Y-86845372D01*
X108518500Y-86840763D01*
X108467706Y-86792788D01*
X108450912Y-86724966D01*
X108473451Y-86658832D01*
X108518508Y-86619793D01*
X108527816Y-86615051D01*
X108607007Y-86557515D01*
X108699786Y-86490109D01*
X108699788Y-86490106D01*
X108699792Y-86490104D01*
X108850104Y-86339792D01*
X108850106Y-86339788D01*
X108850109Y-86339786D01*
X108975048Y-86167820D01*
X108975047Y-86167820D01*
X108975051Y-86167816D01*
X109071557Y-85978412D01*
X109137246Y-85776243D01*
X109170500Y-85566287D01*
X109170500Y-85353713D01*
X109137246Y-85143757D01*
X109071557Y-84941588D01*
X108975051Y-84752184D01*
X108975049Y-84752181D01*
X108975048Y-84752179D01*
X108850109Y-84580213D01*
X108699786Y-84429890D01*
X108527820Y-84304951D01*
X108338414Y-84208444D01*
X108338413Y-84208443D01*
X108338412Y-84208443D01*
X108136243Y-84142754D01*
X108136241Y-84142753D01*
X108136240Y-84142753D01*
X107950708Y-84113368D01*
X107926287Y-84109500D01*
X107713713Y-84109500D01*
X107689292Y-84113368D01*
X107503760Y-84142753D01*
X107301585Y-84208444D01*
X107112179Y-84304951D01*
X106940213Y-84429890D01*
X106789890Y-84580213D01*
X106664951Y-84752179D01*
X106568444Y-84941585D01*
X106502753Y-85143760D01*
X106476843Y-85307353D01*
X106469500Y-85353713D01*
X106469500Y-85566287D01*
X106471798Y-85580794D01*
X106501039Y-85765420D01*
X106502754Y-85776243D01*
X106565324Y-85968814D01*
X106568444Y-85978414D01*
X106664951Y-86167820D01*
X106789890Y-86339786D01*
X106940213Y-86490109D01*
X107112179Y-86615048D01*
X107112181Y-86615049D01*
X107112184Y-86615051D01*
X107121493Y-86619794D01*
X107172290Y-86667766D01*
X107189087Y-86735587D01*
X107166552Y-86801722D01*
X107121505Y-86840760D01*
X107112446Y-86845376D01*
X107112440Y-86845380D01*
X107058282Y-86884727D01*
X107058282Y-86884728D01*
X107690591Y-87517037D01*
X107627007Y-87534075D01*
X107512993Y-87599901D01*
X107419901Y-87692993D01*
X107354075Y-87807007D01*
X107337037Y-87870591D01*
X106704728Y-87238282D01*
X106704727Y-87238282D01*
X106665380Y-87292439D01*
X106568904Y-87481782D01*
X106503242Y-87683869D01*
X106503242Y-87683872D01*
X106470000Y-87893753D01*
X106470000Y-88106246D01*
X106503242Y-88316127D01*
X106503242Y-88316130D01*
X106568904Y-88518217D01*
X106665379Y-88707557D01*
X106763503Y-88842615D01*
X106786983Y-88908421D01*
X106771157Y-88976475D01*
X106721051Y-89025170D01*
X106663185Y-89039500D01*
X104886815Y-89039500D01*
X104819776Y-89019815D01*
X104774021Y-88967011D01*
X104764077Y-88897853D01*
X104786497Y-88842615D01*
X104884620Y-88707557D01*
X104981095Y-88518217D01*
X105046757Y-88316130D01*
X105046757Y-88316127D01*
X105080000Y-88106246D01*
X105080000Y-87893753D01*
X105046757Y-87683872D01*
X105046757Y-87683869D01*
X104981095Y-87481782D01*
X104884624Y-87292449D01*
X104845270Y-87238282D01*
X104845269Y-87238282D01*
X104212962Y-87870589D01*
X104195925Y-87807007D01*
X104130099Y-87692993D01*
X104037007Y-87599901D01*
X103922993Y-87534075D01*
X103859409Y-87517037D01*
X104491716Y-86884728D01*
X104437547Y-86845373D01*
X104437547Y-86845372D01*
X104428500Y-86840763D01*
X104377706Y-86792788D01*
X104360912Y-86724966D01*
X104383451Y-86658832D01*
X104428508Y-86619793D01*
X104437816Y-86615051D01*
X104517007Y-86557515D01*
X104609786Y-86490109D01*
X104609788Y-86490106D01*
X104609792Y-86490104D01*
X104760104Y-86339792D01*
X104760106Y-86339788D01*
X104760109Y-86339786D01*
X104885048Y-86167820D01*
X104885047Y-86167820D01*
X104885051Y-86167816D01*
X104981557Y-85978412D01*
X105047246Y-85776243D01*
X105080500Y-85566287D01*
X105080500Y-85353713D01*
X105047246Y-85143757D01*
X104981557Y-84941588D01*
X104885051Y-84752184D01*
X104885049Y-84752181D01*
X104885048Y-84752179D01*
X104760109Y-84580213D01*
X104609786Y-84429890D01*
X104437820Y-84304951D01*
X104248414Y-84208444D01*
X104248413Y-84208443D01*
X104248412Y-84208443D01*
X104046243Y-84142754D01*
X104046241Y-84142753D01*
X104046240Y-84142753D01*
X103860708Y-84113368D01*
X103836287Y-84109500D01*
X103623713Y-84109500D01*
X103599292Y-84113368D01*
X103413760Y-84142753D01*
X103211585Y-84208444D01*
X103022179Y-84304951D01*
X102850213Y-84429890D01*
X102699890Y-84580213D01*
X102574951Y-84752179D01*
X102478444Y-84941585D01*
X102412753Y-85143760D01*
X102386843Y-85307353D01*
X102379500Y-85353713D01*
X102379500Y-85566287D01*
X102381798Y-85580794D01*
X102411039Y-85765420D01*
X102412754Y-85776243D01*
X102475324Y-85968814D01*
X102478444Y-85978414D01*
X102574951Y-86167820D01*
X102699890Y-86339786D01*
X102850213Y-86490109D01*
X103022179Y-86615048D01*
X103022181Y-86615049D01*
X103022184Y-86615051D01*
X103031493Y-86619794D01*
X103082290Y-86667766D01*
X103099087Y-86735587D01*
X103076552Y-86801722D01*
X103031505Y-86840760D01*
X103022446Y-86845376D01*
X103022440Y-86845380D01*
X102968282Y-86884727D01*
X102968282Y-86884728D01*
X103600591Y-87517037D01*
X103537007Y-87534075D01*
X103422993Y-87599901D01*
X103329901Y-87692993D01*
X103264075Y-87807007D01*
X103247037Y-87870591D01*
X102614728Y-87238282D01*
X102614727Y-87238282D01*
X102575380Y-87292439D01*
X102478904Y-87481782D01*
X102413242Y-87683869D01*
X102413242Y-87683872D01*
X102380000Y-87893753D01*
X102380000Y-88106246D01*
X102413242Y-88316127D01*
X102413242Y-88316130D01*
X102478904Y-88518217D01*
X102575379Y-88707557D01*
X102673503Y-88842615D01*
X102696983Y-88908421D01*
X102681157Y-88976475D01*
X102631051Y-89025170D01*
X102573185Y-89039500D01*
X100796815Y-89039500D01*
X100729776Y-89019815D01*
X100684021Y-88967011D01*
X100674077Y-88897853D01*
X100696497Y-88842615D01*
X100794620Y-88707557D01*
X100891095Y-88518217D01*
X100956757Y-88316130D01*
X100956757Y-88316127D01*
X100990000Y-88106246D01*
X100990000Y-87893753D01*
X100956757Y-87683872D01*
X100956757Y-87683869D01*
X100891095Y-87481782D01*
X100794624Y-87292449D01*
X100755270Y-87238282D01*
X100755269Y-87238282D01*
X100122962Y-87870589D01*
X100105925Y-87807007D01*
X100040099Y-87692993D01*
X99947007Y-87599901D01*
X99832993Y-87534075D01*
X99769409Y-87517037D01*
X100401716Y-86884728D01*
X100347547Y-86845373D01*
X100347547Y-86845372D01*
X100338500Y-86840763D01*
X100287706Y-86792788D01*
X100270912Y-86724966D01*
X100293451Y-86658832D01*
X100338508Y-86619793D01*
X100347816Y-86615051D01*
X100427007Y-86557515D01*
X100519786Y-86490109D01*
X100519788Y-86490106D01*
X100519792Y-86490104D01*
X100670104Y-86339792D01*
X100670106Y-86339788D01*
X100670109Y-86339786D01*
X100795048Y-86167820D01*
X100795047Y-86167820D01*
X100795051Y-86167816D01*
X100891557Y-85978412D01*
X100957246Y-85776243D01*
X100990500Y-85566287D01*
X100990500Y-85353713D01*
X100957246Y-85143757D01*
X100891557Y-84941588D01*
X100795051Y-84752184D01*
X100795049Y-84752181D01*
X100795048Y-84752179D01*
X100670109Y-84580213D01*
X100519786Y-84429890D01*
X100347820Y-84304951D01*
X100158414Y-84208444D01*
X100158413Y-84208443D01*
X100158412Y-84208443D01*
X99956243Y-84142754D01*
X99956241Y-84142753D01*
X99956240Y-84142753D01*
X99770708Y-84113368D01*
X99746287Y-84109500D01*
X99533713Y-84109500D01*
X99509292Y-84113368D01*
X99323760Y-84142753D01*
X99121585Y-84208444D01*
X98932179Y-84304951D01*
X98760213Y-84429890D01*
X98609890Y-84580213D01*
X98484951Y-84752179D01*
X98388444Y-84941585D01*
X98322753Y-85143760D01*
X98296843Y-85307353D01*
X98289500Y-85353713D01*
X98289500Y-85566287D01*
X98291798Y-85580794D01*
X98321039Y-85765420D01*
X98322754Y-85776243D01*
X98385324Y-85968814D01*
X98388444Y-85978414D01*
X98484951Y-86167820D01*
X98609890Y-86339786D01*
X98760213Y-86490109D01*
X98932179Y-86615048D01*
X98932181Y-86615049D01*
X98932184Y-86615051D01*
X98941493Y-86619794D01*
X98992290Y-86667766D01*
X99009087Y-86735587D01*
X98986552Y-86801722D01*
X98941505Y-86840760D01*
X98932446Y-86845376D01*
X98932440Y-86845380D01*
X98878282Y-86884727D01*
X98878282Y-86884728D01*
X99510591Y-87517037D01*
X99447007Y-87534075D01*
X99332993Y-87599901D01*
X99239901Y-87692993D01*
X99174075Y-87807007D01*
X99157037Y-87870591D01*
X98524728Y-87238282D01*
X98524727Y-87238282D01*
X98485380Y-87292439D01*
X98388904Y-87481782D01*
X98323242Y-87683869D01*
X98323242Y-87683872D01*
X98290000Y-87893753D01*
X98290000Y-88106246D01*
X98323242Y-88316127D01*
X98323242Y-88316130D01*
X98388904Y-88518217D01*
X98485379Y-88707557D01*
X98583503Y-88842615D01*
X98606983Y-88908421D01*
X98591157Y-88976475D01*
X98541051Y-89025170D01*
X98483185Y-89039500D01*
X96706815Y-89039500D01*
X96639776Y-89019815D01*
X96594021Y-88967011D01*
X96584077Y-88897853D01*
X96606497Y-88842615D01*
X96704620Y-88707557D01*
X96801095Y-88518217D01*
X96866757Y-88316130D01*
X96866757Y-88316127D01*
X96900000Y-88106246D01*
X96900000Y-87893753D01*
X96866757Y-87683872D01*
X96866757Y-87683869D01*
X96801095Y-87481782D01*
X96704624Y-87292449D01*
X96665270Y-87238282D01*
X96665269Y-87238282D01*
X96032962Y-87870589D01*
X96015925Y-87807007D01*
X95950099Y-87692993D01*
X95857007Y-87599901D01*
X95742993Y-87534075D01*
X95679409Y-87517037D01*
X96311716Y-86884728D01*
X96257547Y-86845373D01*
X96257547Y-86845372D01*
X96248500Y-86840763D01*
X96197706Y-86792788D01*
X96180912Y-86724966D01*
X96203451Y-86658832D01*
X96248508Y-86619793D01*
X96257816Y-86615051D01*
X96337007Y-86557515D01*
X96429786Y-86490109D01*
X96429788Y-86490106D01*
X96429792Y-86490104D01*
X96580104Y-86339792D01*
X96580106Y-86339788D01*
X96580109Y-86339786D01*
X96705048Y-86167820D01*
X96705047Y-86167820D01*
X96705051Y-86167816D01*
X96801557Y-85978412D01*
X96867246Y-85776243D01*
X96900500Y-85566287D01*
X96900500Y-85353713D01*
X96867246Y-85143757D01*
X96801557Y-84941588D01*
X96705051Y-84752184D01*
X96705049Y-84752181D01*
X96705048Y-84752179D01*
X96580109Y-84580213D01*
X96429786Y-84429890D01*
X96257820Y-84304951D01*
X96068414Y-84208444D01*
X96068413Y-84208443D01*
X96068412Y-84208443D01*
X95866243Y-84142754D01*
X95866241Y-84142753D01*
X95866240Y-84142753D01*
X95680708Y-84113368D01*
X95656287Y-84109500D01*
X95443713Y-84109500D01*
X95419292Y-84113368D01*
X95233760Y-84142753D01*
X95031585Y-84208444D01*
X94842179Y-84304951D01*
X94670213Y-84429890D01*
X94519890Y-84580213D01*
X94394951Y-84752179D01*
X94298444Y-84941585D01*
X94232753Y-85143760D01*
X94206843Y-85307353D01*
X94199500Y-85353713D01*
X94199500Y-85566287D01*
X94201798Y-85580794D01*
X94231039Y-85765420D01*
X94232754Y-85776243D01*
X94295324Y-85968814D01*
X94298444Y-85978414D01*
X94394951Y-86167820D01*
X94519890Y-86339786D01*
X94670213Y-86490109D01*
X94842179Y-86615048D01*
X94842181Y-86615049D01*
X94842184Y-86615051D01*
X94851493Y-86619794D01*
X94902290Y-86667766D01*
X94919087Y-86735587D01*
X94896552Y-86801722D01*
X94851505Y-86840760D01*
X94842446Y-86845376D01*
X94842440Y-86845380D01*
X94788282Y-86884727D01*
X94788282Y-86884728D01*
X95420591Y-87517037D01*
X95357007Y-87534075D01*
X95242993Y-87599901D01*
X95149901Y-87692993D01*
X95084075Y-87807007D01*
X95067037Y-87870591D01*
X94434728Y-87238282D01*
X94434727Y-87238282D01*
X94395380Y-87292439D01*
X94298904Y-87481782D01*
X94233242Y-87683869D01*
X94233242Y-87683872D01*
X94200000Y-87893753D01*
X94200000Y-88106246D01*
X94233242Y-88316127D01*
X94233242Y-88316130D01*
X94298903Y-88518215D01*
X94299931Y-88520695D01*
X94300040Y-88521713D01*
X94300411Y-88522854D01*
X94300171Y-88522931D01*
X94307401Y-88590165D01*
X94276128Y-88652645D01*
X94216040Y-88688298D01*
X94185371Y-88692151D01*
X87151903Y-88692151D01*
X86918631Y-88729097D01*
X86694003Y-88802084D01*
X86483568Y-88909307D01*
X86445865Y-88936699D01*
X86411990Y-88954084D01*
X86400668Y-88957836D01*
X86400666Y-88957836D01*
X86400666Y-88957837D01*
X86370449Y-88976475D01*
X86251342Y-89049940D01*
X86127289Y-89173993D01*
X86035185Y-89323319D01*
X86031433Y-89334641D01*
X86014048Y-89368516D01*
X85986656Y-89406219D01*
X85879433Y-89616654D01*
X85806446Y-89841282D01*
X85769500Y-90074553D01*
X74500500Y-90074553D01*
X74500500Y-86590333D01*
X85970000Y-86590333D01*
X85970000Y-86794968D01*
X86002009Y-86997068D01*
X86065244Y-87191682D01*
X86158141Y-87374001D01*
X86158147Y-87374010D01*
X86190523Y-87418572D01*
X86190524Y-87418573D01*
X86870000Y-86739097D01*
X86870000Y-86745312D01*
X86897259Y-86847045D01*
X86949920Y-86938257D01*
X87024394Y-87012731D01*
X87115606Y-87065392D01*
X87217339Y-87092651D01*
X87223553Y-87092651D01*
X86544076Y-87772125D01*
X86588650Y-87804510D01*
X86770968Y-87897406D01*
X86965582Y-87960641D01*
X87167683Y-87992651D01*
X87372317Y-87992651D01*
X87574417Y-87960641D01*
X87769031Y-87897406D01*
X87951349Y-87804510D01*
X87995921Y-87772125D01*
X87316447Y-87092651D01*
X87322661Y-87092651D01*
X87424394Y-87065392D01*
X87515606Y-87012731D01*
X87590080Y-86938257D01*
X87642741Y-86847045D01*
X87670000Y-86745312D01*
X87670000Y-86739099D01*
X88349474Y-87418573D01*
X88349474Y-87418572D01*
X88381859Y-87374000D01*
X88474755Y-87191682D01*
X88537990Y-86997068D01*
X88570000Y-86794968D01*
X88570000Y-86590333D01*
X88537990Y-86388233D01*
X88474755Y-86193619D01*
X88381859Y-86011301D01*
X88349474Y-85966728D01*
X88349474Y-85966727D01*
X87670000Y-86646202D01*
X87670000Y-86639990D01*
X87642741Y-86538257D01*
X87590080Y-86447045D01*
X87515606Y-86372571D01*
X87424394Y-86319910D01*
X87322661Y-86292651D01*
X87316446Y-86292651D01*
X87995922Y-85613175D01*
X87995921Y-85613174D01*
X87951359Y-85580798D01*
X87951350Y-85580792D01*
X87769031Y-85487895D01*
X87704020Y-85466772D01*
X87574417Y-85424660D01*
X87372317Y-85392651D01*
X87167683Y-85392651D01*
X86965582Y-85424660D01*
X86770968Y-85487895D01*
X86588644Y-85580794D01*
X86544077Y-85613174D01*
X86544077Y-85613175D01*
X87223554Y-86292651D01*
X87217339Y-86292651D01*
X87115606Y-86319910D01*
X87024394Y-86372571D01*
X86949920Y-86447045D01*
X86897259Y-86538257D01*
X86870000Y-86639990D01*
X86870000Y-86646204D01*
X86190524Y-85966728D01*
X86190523Y-85966728D01*
X86158143Y-86011295D01*
X86065244Y-86193619D01*
X86002009Y-86388233D01*
X85970000Y-86590333D01*
X74500500Y-86590333D01*
X74500500Y-82878711D01*
X77149500Y-82878711D01*
X77149500Y-83121288D01*
X77181161Y-83361785D01*
X77243947Y-83596104D01*
X77336773Y-83820205D01*
X77336776Y-83820212D01*
X77458064Y-84030289D01*
X77458066Y-84030292D01*
X77458067Y-84030293D01*
X77605733Y-84222736D01*
X77605739Y-84222743D01*
X77777256Y-84394260D01*
X77777263Y-84394266D01*
X77823697Y-84429896D01*
X77969711Y-84541936D01*
X78179788Y-84663224D01*
X78403900Y-84756054D01*
X78638211Y-84818838D01*
X78818586Y-84842584D01*
X78878711Y-84850500D01*
X78878712Y-84850500D01*
X79121289Y-84850500D01*
X79169388Y-84844167D01*
X79361789Y-84818838D01*
X79596100Y-84756054D01*
X79820212Y-84663224D01*
X80030289Y-84541936D01*
X80222738Y-84394265D01*
X80394265Y-84222738D01*
X80541936Y-84030289D01*
X80663224Y-83820212D01*
X80756054Y-83596100D01*
X80818838Y-83361789D01*
X80850500Y-83121288D01*
X80850500Y-82878712D01*
X80818838Y-82638211D01*
X80756054Y-82403900D01*
X80663224Y-82179788D01*
X80541936Y-81969711D01*
X80394265Y-81777262D01*
X80394260Y-81777256D01*
X80222743Y-81605739D01*
X80222736Y-81605733D01*
X80030293Y-81458067D01*
X80030292Y-81458066D01*
X80030289Y-81458064D01*
X79820212Y-81336776D01*
X79820205Y-81336773D01*
X79596104Y-81243947D01*
X79361785Y-81181161D01*
X79121289Y-81149500D01*
X79121288Y-81149500D01*
X78878712Y-81149500D01*
X78878711Y-81149500D01*
X78638214Y-81181161D01*
X78403895Y-81243947D01*
X78179794Y-81336773D01*
X78179785Y-81336777D01*
X77969706Y-81458067D01*
X77777263Y-81605733D01*
X77777256Y-81605739D01*
X77605739Y-81777256D01*
X77605733Y-81777263D01*
X77458067Y-81969706D01*
X77336777Y-82179785D01*
X77336773Y-82179794D01*
X77243947Y-82403895D01*
X77181161Y-82638214D01*
X77149500Y-82878711D01*
X74500500Y-82878711D01*
X74500500Y-78624500D01*
X74520185Y-78557461D01*
X74572989Y-78511706D01*
X74624500Y-78500500D01*
X198375500Y-78500500D01*
X198442539Y-78520185D01*
G37*
%TD.AperFunction*%
%TD*%
M02*
