%TF.GenerationSoftware,KiCad,Pcbnew,10.0.3*%
%TF.CreationDate,2026-06-20T14:55:08-07:00*%
%TF.ProjectId,FLIGHT CONTROLLER,464c4947-4854-4204-934f-4e54524f4c4c,rev?*%
%TF.SameCoordinates,Original*%
%TF.FileFunction,Copper,L2,Bot*%
%TF.FilePolarity,Positive*%
%FSLAX46Y46*%
G04 Gerber Fmt 4.6, Leading zero omitted, Abs format (unit mm)*
G04 Created by KiCad (PCBNEW 10.0.3) date 2026-06-20 14:55:08*
%MOMM*%
%LPD*%
G01*
G04 APERTURE LIST*
G04 Aperture macros list*
%AMRoundRect*
0 Rectangle with rounded corners*
0 $1 Rounding radius*
0 $2 $3 $4 $5 $6 $7 $8 $9 X,Y pos of 4 corners*
0 Add a 4 corners polygon primitive as box body*
4,1,4,$2,$3,$4,$5,$6,$7,$8,$9,$2,$3,0*
0 Add four circle primitives for the rounded corners*
1,1,$1+$1,$2,$3*
1,1,$1+$1,$4,$5*
1,1,$1+$1,$6,$7*
1,1,$1+$1,$8,$9*
0 Add four rect primitives between the rounded corners*
20,1,$1+$1,$2,$3,$4,$5,0*
20,1,$1+$1,$4,$5,$6,$7,0*
20,1,$1+$1,$6,$7,$8,$9,0*
20,1,$1+$1,$8,$9,$2,$3,0*%
G04 Aperture macros list end*
%TA.AperFunction,ComponentPad*%
%ADD10R,1.700000X1.700000*%
%TD*%
%TA.AperFunction,ComponentPad*%
%ADD11C,1.700000*%
%TD*%
%TA.AperFunction,ComponentPad*%
%ADD12C,1.500000*%
%TD*%
%TA.AperFunction,ComponentPad*%
%ADD13C,1.524000*%
%TD*%
%TA.AperFunction,ComponentPad*%
%ADD14RoundRect,0.250000X-0.550000X0.550000X-0.550000X-0.550000X0.550000X-0.550000X0.550000X0.550000X0*%
%TD*%
%TA.AperFunction,ComponentPad*%
%ADD15C,1.600000*%
%TD*%
%TA.AperFunction,ComponentPad*%
%ADD16RoundRect,0.250000X0.550000X-0.550000X0.550000X0.550000X-0.550000X0.550000X-0.550000X-0.550000X0*%
%TD*%
%TA.AperFunction,ViaPad*%
%ADD17C,0.600000*%
%TD*%
%TA.AperFunction,ViaPad*%
%ADD18C,1.000000*%
%TD*%
%TA.AperFunction,Conductor*%
%ADD19C,0.200000*%
%TD*%
%TA.AperFunction,Conductor*%
%ADD20C,0.750000*%
%TD*%
G04 APERTURE END LIST*
D10*
%TO.P,J5,1,1_1*%
%TO.N,/+5V_LOGIC*%
X132650000Y-123000000D03*
D11*
%TO.P,J5,2,2_2*%
%TO.N,/GND*%
X135190000Y-123000000D03*
%TO.P,J5,3,3_3*%
%TO.N,/OUTBOARD_TX_TO_TEENSY_RX*%
X137730000Y-123000000D03*
%TO.P,J5,4,4_4*%
%TO.N,/OUTBOARD_RX_FROM_TEENSY_TX*%
X140270000Y-123000000D03*
%TO.P,J5,5,5_5*%
%TO.N,/OUTBOARD_SPARE1*%
X142810000Y-123000000D03*
%TO.P,J5,6,6_6*%
%TO.N,/OUTBOARD_SPARE2*%
X145350000Y-123000000D03*
%TD*%
D10*
%TO.P,J2,1,CS_1*%
%TO.N,/ESP_SD_CS*%
X85650000Y-123000000D03*
D11*
%TO.P,J2,2,SCK_2*%
%TO.N,/ESP_SD_SCK*%
X88190000Y-123000000D03*
%TO.P,J2,3,MOSI_3*%
%TO.N,/ESP_SD_MOSI*%
X90730000Y-123000000D03*
%TO.P,J2,4,MISO_4*%
%TO.N,/ESP_SD_MISO*%
X93270000Y-123000000D03*
%TO.P,J2,5,VCC_5*%
%TO.N,/+5V_LOGIC*%
X95810000Y-123000000D03*
%TO.P,J2,6,GND_6*%
%TO.N,/GND*%
X98350000Y-123000000D03*
%TD*%
D12*
%TO.P,GND,1,1_1*%
%TO.N,/GND*%
X150000000Y-119000000D03*
%TD*%
D10*
%TO.P,J3,1,1_1*%
%TO.N,/+5V_LOGIC*%
X187350000Y-85000000D03*
D11*
%TO.P,J3,2,2_2*%
%TO.N,/GND*%
X184810000Y-85000000D03*
%TO.P,J3,3,3_3*%
%TO.N,/IMU_SCL*%
X182270000Y-85000000D03*
%TO.P,J3,4,4_4*%
%TO.N,/IMU_SDA*%
X179730000Y-85000000D03*
%TO.P,J3,5,5_5*%
%TO.N,/IMU_INT*%
X177190000Y-85000000D03*
%TO.P,J3,6,6_6*%
%TO.N,/IMU_CS_OR_AUX*%
X174650000Y-85000000D03*
%TD*%
D10*
%TO.P,EleA,1,1_1*%
%TO.N,/+5V_ESC_BEC*%
X132360000Y-90540000D03*
D11*
%TO.P,EleA,2,2_2*%
%TO.N,/GND*%
X132360000Y-88000000D03*
%TO.P,EleA,3,3_3*%
%TO.N,/SERVO_CH2_PWM*%
X132360000Y-85460000D03*
%TD*%
D12*
%TO.P,TEENSY_3V3,1,1_1*%
%TO.N,/TEENSY_3V3*%
X154000000Y-119000000D03*
%TD*%
D10*
%TO.P,Cha7,1,1_1*%
%TO.N,/+5V_ESC_BEC*%
X95550000Y-90540000D03*
D11*
%TO.P,Cha7,2,2_2*%
%TO.N,/GND*%
X95550000Y-88000000D03*
%TO.P,Cha7,3,3_3*%
%TO.N,/SERVO_CH7_PWM*%
X95550000Y-85460000D03*
%TD*%
%TO.P,U1,3V3,3V3_3V3*%
%TO.N,/TEENSY_3V3*%
X132940000Y-114240000D03*
%TO.P,U1,D0,D0_/_RX1_D0*%
%TO.N,unconnected-(U1-D0_{slash}_RX1-PadD0)*%
X135480000Y-99000000D03*
%TO.P,U1,D1,D1_/_TX1_D1*%
%TO.N,unconnected-(U1-D1_{slash}_TX1-PadD1)*%
X132940000Y-99000000D03*
%TO.P,U1,D2,D2_D2*%
%TO.N,/SERVO_CH1_PWM*%
X130400000Y-99000000D03*
%TO.P,U1,D3,D3_D3*%
%TO.N,/SERVO_CH2_PWM*%
X127860000Y-99000000D03*
%TO.P,U1,D4,D4_D4*%
%TO.N,/SERVO_CH3_PWM*%
X125320000Y-99000000D03*
%TO.P,U1,D5,D5_D5*%
%TO.N,/SERVO_CH4_PWM*%
X122780000Y-99000000D03*
%TO.P,U1,D6,D6_D6*%
%TO.N,/SERVO_CH5_PWM*%
X120240000Y-99000000D03*
%TO.P,U1,D7,D7_D7*%
%TO.N,/SERVO_CH6_PWM*%
X117700000Y-99000000D03*
%TO.P,U1,D8,D8_D8*%
%TO.N,/SERVO_CH7_PWM*%
X115160000Y-99000000D03*
%TO.P,U1,D9,D9_/_DATA_READY_D9*%
%TO.N,/FAST_DATA_READY*%
X112620000Y-99000000D03*
%TO.P,U1,D10,D10_/_CS_D10*%
%TO.N,/FAST_SPI_CS*%
X110080000Y-99000000D03*
%TO.P,U1,D11,D11_/_SPI_SDO_D11*%
%TO.N,/FAST_SPI_MISO_TEENSY_SDO_TO_ESP*%
X107540000Y-99000000D03*
%TO.P,U1,D12,D12_/_SPI_SDI_D12*%
%TO.N,/FAST_SPI_MOSI_ESP_TO_TEENSY_SDI*%
X105000000Y-99000000D03*
%TO.P,U1,D13,D13_/_SCK_/_LED_D13*%
%TO.N,/FAST_SPI_SCK*%
X105000000Y-114240000D03*
%TO.P,U1,D14,D14_/_A0_D14*%
%TO.N,/CRSF_TX_FROM_TEENSY*%
X107540000Y-114240000D03*
%TO.P,U1,D15,D15_/_A1_D15*%
%TO.N,/CRSF_RX_TO_TEENSY*%
X110080000Y-114240000D03*
%TO.P,U1,D16,D16_/_A2_D16*%
%TO.N,/IMU_SCL*%
X112620000Y-114240000D03*
%TO.P,U1,D17,D17_/_A3_D17*%
%TO.N,/IMU_SDA*%
X115160000Y-114240000D03*
%TO.P,U1,D18,D18_/_A4_/_SDA_D18*%
%TO.N,unconnected-(U1-D18_{slash}_A4_{slash}_SDA-PadD18)*%
X117700000Y-114240000D03*
%TO.P,U1,D19,D19_/_A5_/_SCL_D19*%
%TO.N,unconnected-(U1-D19_{slash}_A5_{slash}_SCL-PadD19)*%
X120240000Y-114240000D03*
%TO.P,U1,D20,D20_/_A6_D20*%
%TO.N,/OUTBOARD_RX_FROM_TEENSY_TX*%
X122780000Y-114240000D03*
%TO.P,U1,D21,D21_/_A7_D21*%
%TO.N,/OUTBOARD_TX_TO_TEENSY_RX*%
X125320000Y-114240000D03*
%TO.P,U1,D22,D22_/_A8_D22*%
%TO.N,/BATTERY_VOLTAGE_SENSE*%
X127860000Y-114240000D03*
%TO.P,U1,D23,D23_/_A9_D23*%
%TO.N,/BATTERY_CURRENT_SENSE*%
X130400000Y-114240000D03*
D10*
%TO.P,U1,GND1,GND_GND1*%
%TO.N,/GND*%
X138020000Y-99000000D03*
D11*
%TO.P,U1,GND2,GND_GND2*%
X135480000Y-114240000D03*
%TO.P,U1,VIN,VIN_/_5V_VIN*%
%TO.N,/+5V_LOGIC*%
X138020000Y-114240000D03*
%TD*%
D10*
%TO.P,FlaA,1,1_1*%
%TO.N,/+5V_ESC_BEC*%
X107820000Y-90540000D03*
D11*
%TO.P,FlaA,2,2_2*%
%TO.N,/GND*%
X107820000Y-88000000D03*
%TO.P,FlaA,3,3_3*%
%TO.N,/SERVO_CH5_PWM*%
X107820000Y-85460000D03*
%TD*%
D10*
%TO.P,ThrB,1,1_1*%
%TO.N,/+5V_ESC_BEC*%
X120090000Y-90540000D03*
D11*
%TO.P,ThrB,2,2_2*%
%TO.N,/GND*%
X120090000Y-88000000D03*
%TO.P,ThrB,3,3_3*%
%TO.N,/SERVO_CH3_PWM*%
X120090000Y-85460000D03*
%TD*%
D13*
%TO.P,U2,1,GPIO1_A0_D0_1*%
%TO.N,/ESP_SD_MISO*%
X80020000Y-114075000D03*
%TO.P,U2,2,GPIO2_A1_D1_2*%
%TO.N,/ESP_SD_CS*%
X82560000Y-114075000D03*
%TO.P,U2,3,GPIO3_A2_D2_3*%
%TO.N,unconnected-(U2-GPIO3_A2_D2-Pad3)*%
X85100000Y-114075000D03*
%TO.P,U2,4,GPIO4_A3_D3_4*%
%TO.N,unconnected-(U2-GPIO4_A3_D3-Pad4)*%
X87640000Y-114075000D03*
%TO.P,U2,5,GPIO5_A4_D4_SDA_5*%
%TO.N,/ESP_SD_SCK*%
X90180000Y-114075000D03*
%TO.P,U2,6,GPIO6_A5_D5_SCL_6*%
%TO.N,/ESP_SD_MOSI*%
X92720000Y-114075000D03*
%TO.P,U2,7,GPIO43_D6_TX_7*%
%TO.N,/FAST_DATA_READY*%
X95260000Y-114075000D03*
%TO.P,U2,8,GPIO44_D7_RX_8*%
%TO.N,/FAST_SPI_CS*%
X95260000Y-98835000D03*
%TO.P,U2,9,GPIO7_A8_D8_SCK_9*%
%TO.N,/FAST_SPI_SCK*%
X92720000Y-98835000D03*
%TO.P,U2,10,GPIO8_A9_D9_MISO_10*%
%TO.N,/FAST_SPI_MOSI_ESP_TO_TEENSY_SDI*%
X90180000Y-98835000D03*
%TO.P,U2,11,GPIO9_A10_D10_MOSI_11*%
%TO.N,/FAST_SPI_MISO_TEENSY_SDO_TO_ESP*%
X87640000Y-98835000D03*
%TO.P,U2,12,3V3_12*%
%TO.N,/ESP_3V3*%
X85100000Y-98835000D03*
%TO.P,U2,13,GND_13*%
%TO.N,/GND*%
X82560000Y-98835000D03*
%TO.P,U2,14,VBUS_14*%
%TO.N,/+5V_LOGIC*%
X80020000Y-98835000D03*
%TD*%
D10*
%TO.P,Cha6,1,1_1*%
%TO.N,/+5V_ESC_BEC*%
X99640000Y-90540000D03*
D11*
%TO.P,Cha6,2,2_2*%
%TO.N,/GND*%
X99640000Y-88000000D03*
%TO.P,Cha6,3,3_3*%
%TO.N,/SERVO_CH6_PWM*%
X99640000Y-85460000D03*
%TD*%
D12*
%TO.P,5V_BEC_ESC,1,1_1*%
%TO.N,/+5V_ESC_BEC*%
X146000000Y-96000000D03*
%TD*%
D14*
%TO.P,C4,1,1_1*%
%TO.N,/+5V_LOGIC*%
X104730000Y-122000000D03*
D15*
%TO.P,C4,2,2_2*%
%TO.N,/GND*%
X104730000Y-124000000D03*
%TD*%
D10*
%TO.P,EleB,1,1_1*%
%TO.N,/+5V_ESC_BEC*%
X128270000Y-90540000D03*
D11*
%TO.P,EleB,2,2_2*%
%TO.N,/GND*%
X128270000Y-88000000D03*
%TO.P,EleB,3,3_3*%
%TO.N,/SERVO_CH2_PWM*%
X128270000Y-85460000D03*
%TD*%
D10*
%TO.P,AilB,1,1_1*%
%TO.N,/+5V_ESC_BEC*%
X136450000Y-90540000D03*
D11*
%TO.P,AilB,2,2_2*%
%TO.N,/GND*%
X136450000Y-88000000D03*
%TO.P,AilB,3,3_3*%
%TO.N,/SERVO_CH1_PWM*%
X136450000Y-85460000D03*
%TD*%
D10*
%TO.P,FlaB,1,1_1*%
%TO.N,/+5V_ESC_BEC*%
X103730000Y-90540000D03*
D11*
%TO.P,FlaB,2,2_2*%
%TO.N,/GND*%
X103730000Y-88000000D03*
%TO.P,FlaB,3,3_3*%
%TO.N,/SERVO_CH5_PWM*%
X103730000Y-85460000D03*
%TD*%
D12*
%TO.P,5V_LOGIC,1,1_1*%
%TO.N,/+5V_LOGIC*%
X159730000Y-113270000D03*
%TD*%
D10*
%TO.P,ThrA,1,1_1*%
%TO.N,/+5V_ESC_BEC*%
X124180000Y-90540000D03*
D11*
%TO.P,ThrA,2,2_2*%
%TO.N,/GND*%
X124180000Y-88000000D03*
%TO.P,ThrA,3,3_3*%
%TO.N,/SERVO_CH3_PWM*%
X124180000Y-85460000D03*
%TD*%
D10*
%TO.P,AilA,1,1_1*%
%TO.N,/+5V_ESC_BEC*%
X140540000Y-90540000D03*
D11*
%TO.P,AilA,2,2_2*%
%TO.N,/GND*%
X140540000Y-88000000D03*
%TO.P,AilA,3,3_3*%
%TO.N,/SERVO_CH1_PWM*%
X140540000Y-85460000D03*
%TD*%
D10*
%TO.P,RudA,1,1_1*%
%TO.N,/+5V_ESC_BEC*%
X116000000Y-90540000D03*
D11*
%TO.P,RudA,2,2_2*%
%TO.N,/GND*%
X116000000Y-88000000D03*
%TO.P,RudA,3,3_3*%
%TO.N,/SERVO_CH4_PWM*%
X116000000Y-85460000D03*
%TD*%
D16*
%TO.P,C1,1,1_1*%
%TO.N,/+5V_ESC_BEC*%
X146270000Y-89540000D03*
D15*
%TO.P,C1,2,2_2*%
%TO.N,/GND*%
X146270000Y-87540000D03*
%TD*%
D10*
%TO.P,RudB,1,1_1*%
%TO.N,/+5V_ESC_BEC*%
X111910000Y-90540000D03*
D11*
%TO.P,RudB,2,2_2*%
%TO.N,/GND*%
X111910000Y-88000000D03*
%TO.P,RudB,3,3_3*%
%TO.N,/SERVO_CH4_PWM*%
X111910000Y-85460000D03*
%TD*%
D16*
%TO.P,C8,1*%
%TO.N,/+5V_ESC_BEC*%
X87270000Y-90192651D03*
D15*
%TO.P,C8,2*%
%TO.N,/GND*%
X87270000Y-86692651D03*
%TD*%
D10*
%TO.P,J1,1,1_1*%
%TO.N,/+5V_PM_BEC*%
X165000000Y-85190000D03*
D11*
%TO.P,J1,2,2_2*%
%TO.N,/GND*%
X165000000Y-87730000D03*
%TO.P,J1,3,3_3*%
%TO.N,/BATTERY_VOLTAGE_SENSE*%
X165000000Y-90270000D03*
%TO.P,J1,4,4_4*%
%TO.N,/BATTERY_CURRENT_SENSE*%
X165000000Y-92810000D03*
%TD*%
D12*
%TO.P,ESP_3V3,1,1_1*%
%TO.N,/ESP_3V3*%
X80000000Y-93000000D03*
%TD*%
D10*
%TO.P,J4,1,1_1*%
%TO.N,/+5V_LOGIC*%
X118190000Y-123000000D03*
D11*
%TO.P,J4,2,2_2*%
%TO.N,/GND*%
X120730000Y-123000000D03*
%TO.P,J4,3,3_3*%
%TO.N,/CRSF_RX_TO_TEENSY*%
X123270000Y-123000000D03*
%TO.P,J4,4,4_4*%
%TO.N,/CRSF_TX_FROM_TEENSY*%
X125810000Y-123000000D03*
%TD*%
D17*
%TO.N,/GND*%
X131000000Y-93000000D03*
X113000000Y-107000000D03*
X122000000Y-93000000D03*
X143000000Y-93000000D03*
X140000000Y-96000000D03*
X91000000Y-85000000D03*
X154000000Y-83000000D03*
X150000000Y-86000000D03*
X106000000Y-93000000D03*
X152000000Y-95000000D03*
X94000000Y-93000000D03*
X98000000Y-125000000D03*
X107000000Y-126000000D03*
X83000000Y-102000000D03*
X84000000Y-126000000D03*
X135000000Y-112000000D03*
X144000000Y-85000000D03*
X120000000Y-121000000D03*
X185000000Y-88000000D03*
X168000000Y-88000000D03*
X135000000Y-121000000D03*
D18*
%TO.N,/+5V_LOGIC*%
X163000000Y-85000000D03*
X108000000Y-124000000D03*
D17*
%TO.N,/IMU_SDA*%
X160000000Y-102000000D03*
%TO.N,/IMU_SCL*%
X144000000Y-108000000D03*
X152000000Y-108000000D03*
X168000000Y-96000000D03*
%TD*%
%TO.N,/TEENSY_3V3*%
D19*
X155000000Y-118000000D02*
X193000000Y-118000000D01*
X154000000Y-119000000D02*
X155000000Y-118000000D01*
X153730000Y-119000000D02*
X154000000Y-119000000D01*
X151730000Y-117000000D02*
X153730000Y-119000000D01*
X133000000Y-117000000D02*
X151730000Y-117000000D01*
X132940000Y-114240000D02*
X133000000Y-114300000D01*
X133000000Y-114300000D02*
X133000000Y-117000000D01*
%TO.N,/+5V_LOGIC*%
D20*
X80020000Y-99000000D02*
X80020000Y-102020000D01*
X80020000Y-102020000D02*
X82000000Y-104000000D01*
X104730000Y-122000000D02*
X103730000Y-121000000D01*
X95000000Y-104000000D02*
X100000000Y-109000000D01*
X164000000Y-82000000D02*
X163000000Y-83000000D01*
X163000000Y-83000000D02*
X163000000Y-85000000D01*
X95810000Y-123000000D02*
X95810000Y-122190000D01*
X82000000Y-104000000D02*
X95000000Y-104000000D01*
X117190000Y-122000000D02*
X118190000Y-123000000D01*
X104730000Y-122000000D02*
X108000000Y-122000000D01*
X108000000Y-122000000D02*
X117190000Y-122000000D01*
X100000000Y-117270000D02*
X104730000Y-122000000D01*
X100000000Y-109000000D02*
X100000000Y-117270000D01*
X187350000Y-83350000D02*
X186000000Y-82000000D01*
X186000000Y-82000000D02*
X164000000Y-82000000D01*
X103730000Y-121000000D02*
X97000000Y-121000000D01*
X95810000Y-122190000D02*
X97000000Y-121000000D01*
X187350000Y-85000000D02*
X187350000Y-83350000D01*
X108000000Y-122000000D02*
X108000000Y-124000000D01*
%TO.N,/BATTERY_VOLTAGE_SENSE*%
D19*
X129000000Y-110000000D02*
X127860000Y-111140000D01*
X127860000Y-111140000D02*
X127860000Y-114240000D01*
X165000000Y-90270000D02*
X145270000Y-110000000D01*
X145270000Y-110000000D02*
X129000000Y-110000000D01*
%TO.N,/BATTERY_CURRENT_SENSE*%
X165000000Y-93000000D02*
X147000000Y-111000000D01*
X165000000Y-92810000D02*
X165000000Y-93000000D01*
X132000000Y-111000000D02*
X130400000Y-112600000D01*
X130400000Y-112600000D02*
X130400000Y-114240000D01*
X147000000Y-111000000D02*
X132000000Y-111000000D01*
%TO.N,/ESP_SD_MISO*%
X80020000Y-118980000D02*
X80000000Y-119000000D01*
X80020000Y-114240000D02*
X80020000Y-118980000D01*
X89270000Y-119000000D02*
X93270000Y-123000000D01*
X80000000Y-119000000D02*
X89270000Y-119000000D01*
%TO.N,/IMU_SDA*%
X172000000Y-90000000D02*
X178000000Y-90000000D01*
X178000000Y-90000000D02*
X179730000Y-88270000D01*
X160000000Y-102000000D02*
X172000000Y-90000000D01*
%TO.N,/IMU_SCL*%
X156000000Y-108000000D02*
X168000000Y-96000000D01*
X112620000Y-114240000D02*
X118860000Y-108000000D01*
X152000000Y-108000000D02*
X156000000Y-108000000D01*
X118860000Y-108000000D02*
X144000000Y-108000000D01*
%TO.N,/CRSF_TX_FROM_TEENSY*%
X123000000Y-119000000D02*
X125810000Y-121810000D01*
X125810000Y-121810000D02*
X125810000Y-123000000D01*
X107540000Y-114240000D02*
X107540000Y-115540000D01*
X111000000Y-119000000D02*
X123000000Y-119000000D01*
X107540000Y-115540000D02*
X111000000Y-119000000D01*
%TO.N,/OUTBOARD_TX_TO_TEENSY_RX*%
X125320000Y-114240000D02*
X125320000Y-115320000D01*
X136000000Y-118000000D02*
X137730000Y-119730000D01*
X125320000Y-115320000D02*
X128000000Y-118000000D01*
X137730000Y-119730000D02*
X137730000Y-123000000D01*
X128000000Y-118000000D02*
X136000000Y-118000000D01*
%TO.N,/SERVO_CH1_PWM*%
X130400000Y-99000000D02*
X130400000Y-95600000D01*
X130400000Y-95600000D02*
X134000000Y-92000000D01*
X140540000Y-85460000D02*
X136450000Y-85460000D01*
X134000000Y-92000000D02*
X134000000Y-88000000D01*
X136450000Y-85550000D02*
X136450000Y-85460000D01*
X134000000Y-88000000D02*
X136450000Y-85550000D01*
%TO.N,/SERVO_CH2_PWM*%
X130000000Y-92000000D02*
X130000000Y-87190000D01*
X127860000Y-94140000D02*
X130000000Y-92000000D01*
X127860000Y-99000000D02*
X127860000Y-94140000D01*
X128270000Y-85460000D02*
X132360000Y-85460000D01*
X130000000Y-87190000D02*
X128270000Y-85460000D01*
%TO.N,/SERVO_CH3_PWM*%
X124180000Y-85460000D02*
X124460000Y-85460000D01*
X120090000Y-85460000D02*
X124180000Y-85460000D01*
X124460000Y-85460000D02*
X126000000Y-87000000D01*
X126000000Y-87000000D02*
X126000000Y-98320000D01*
X126000000Y-98320000D02*
X125320000Y-99000000D01*
%TO.N,/SERVO_CH4_PWM*%
X111910000Y-85460000D02*
X116000000Y-85460000D01*
X118000000Y-87000000D02*
X118000000Y-94220000D01*
X116460000Y-85460000D02*
X118000000Y-87000000D01*
X118000000Y-94220000D02*
X122780000Y-99000000D01*
X116000000Y-85460000D02*
X116460000Y-85460000D01*
%TO.N,/SERVO_CH5_PWM*%
X107820000Y-85460000D02*
X110000000Y-87640000D01*
X110000000Y-93000000D02*
X111000000Y-94000000D01*
X115000000Y-94000000D02*
X120000000Y-99000000D01*
X120000000Y-99000000D02*
X120240000Y-99000000D01*
X111000000Y-94000000D02*
X115000000Y-94000000D01*
X103730000Y-85460000D02*
X107820000Y-85460000D01*
X110000000Y-87640000D02*
X110000000Y-93000000D01*
%TO.N,/SERVO_CH6_PWM*%
X103000000Y-95000000D02*
X113700000Y-95000000D01*
X113700000Y-95000000D02*
X117700000Y-99000000D01*
X99640000Y-85460000D02*
X101000000Y-86820000D01*
X101000000Y-86820000D02*
X101000000Y-93000000D01*
X101000000Y-93000000D02*
X103000000Y-95000000D01*
%TO.N,/SERVO_CH7_PWM*%
X95550000Y-85460000D02*
X97000000Y-86910000D01*
X112000000Y-96000000D02*
X115000000Y-99000000D01*
X97000000Y-94000000D02*
X99000000Y-96000000D01*
X115000000Y-99000000D02*
X115160000Y-99000000D01*
X99000000Y-96000000D02*
X112000000Y-96000000D01*
X97000000Y-86910000D02*
X97000000Y-94000000D01*
%TO.N,/FAST_SPI_SCK*%
X105000000Y-112000000D02*
X105000000Y-114240000D01*
X92720000Y-99720000D02*
X105000000Y-112000000D01*
X92720000Y-99000000D02*
X92720000Y-99720000D01*
%TO.N,/FAST_SPI_CS*%
X95260000Y-99000000D02*
X95260000Y-99260000D01*
X108080000Y-101000000D02*
X110080000Y-99000000D01*
X95260000Y-99260000D02*
X97000000Y-101000000D01*
X97000000Y-101000000D02*
X108080000Y-101000000D01*
%TO.N,/IMU_SDA*%
X179730000Y-88270000D02*
X179730000Y-85000000D01*
%TD*%
%TA.AperFunction,Conductor*%
%TO.N,/GND*%
G36*
X101080703Y-108930384D02*
G01*
X101087167Y-108936403D01*
X102751265Y-110600500D01*
X104363181Y-112212416D01*
X104396666Y-112273739D01*
X104399500Y-112300097D01*
X104399500Y-112954281D01*
X104379815Y-113021320D01*
X104331795Y-113064765D01*
X104292185Y-113084947D01*
X104292184Y-113084948D01*
X104120213Y-113209890D01*
X103969890Y-113360213D01*
X103844951Y-113532179D01*
X103748444Y-113721585D01*
X103682753Y-113923760D01*
X103649500Y-114133713D01*
X103649500Y-114346286D01*
X103679415Y-114535165D01*
X103682754Y-114556243D01*
X103741386Y-114736694D01*
X103748444Y-114758414D01*
X103844951Y-114947820D01*
X103969890Y-115119786D01*
X104120213Y-115270109D01*
X104292179Y-115395048D01*
X104292181Y-115395049D01*
X104292184Y-115395051D01*
X104481588Y-115491557D01*
X104683757Y-115557246D01*
X104893713Y-115590500D01*
X104893714Y-115590500D01*
X105106286Y-115590500D01*
X105106287Y-115590500D01*
X105316243Y-115557246D01*
X105518412Y-115491557D01*
X105707816Y-115395051D01*
X105787029Y-115337500D01*
X105879786Y-115270109D01*
X105879788Y-115270106D01*
X105879792Y-115270104D01*
X106030104Y-115119792D01*
X106030106Y-115119788D01*
X106030109Y-115119786D01*
X106155048Y-114947820D01*
X106155047Y-114947820D01*
X106155051Y-114947816D01*
X106159514Y-114939054D01*
X106207488Y-114888259D01*
X106275308Y-114871463D01*
X106341444Y-114893999D01*
X106380486Y-114939056D01*
X106384951Y-114947820D01*
X106509890Y-115119786D01*
X106660213Y-115270109D01*
X106832179Y-115395048D01*
X106832181Y-115395049D01*
X106832184Y-115395051D01*
X106871794Y-115415233D01*
X106922590Y-115463207D01*
X106939499Y-115525718D01*
X106939499Y-115619054D01*
X106939498Y-115619054D01*
X106980423Y-115771785D01*
X107009358Y-115821900D01*
X107009359Y-115821904D01*
X107009360Y-115821904D01*
X107059479Y-115908714D01*
X107059481Y-115908717D01*
X107178349Y-116027585D01*
X107178355Y-116027590D01*
X110515139Y-119364374D01*
X110515149Y-119364385D01*
X110519479Y-119368715D01*
X110519480Y-119368716D01*
X110631284Y-119480520D01*
X110718095Y-119530639D01*
X110718097Y-119530641D01*
X110756151Y-119552611D01*
X110768215Y-119559577D01*
X110920943Y-119600501D01*
X110920946Y-119600501D01*
X111086653Y-119600501D01*
X111086669Y-119600500D01*
X122699903Y-119600500D01*
X122766942Y-119620185D01*
X122787584Y-119636819D01*
X124938076Y-121787311D01*
X124971561Y-121848634D01*
X124966577Y-121918326D01*
X124933215Y-121966013D01*
X124933653Y-121966451D01*
X124931178Y-121968925D01*
X124930932Y-121969278D01*
X124930205Y-121969898D01*
X124779890Y-122120213D01*
X124654949Y-122292182D01*
X124650484Y-122300946D01*
X124602509Y-122351742D01*
X124534688Y-122368536D01*
X124468553Y-122345998D01*
X124429516Y-122300946D01*
X124425050Y-122292182D01*
X124300109Y-122120213D01*
X124149786Y-121969890D01*
X123977820Y-121844951D01*
X123788414Y-121748444D01*
X123788413Y-121748443D01*
X123788412Y-121748443D01*
X123586243Y-121682754D01*
X123586241Y-121682753D01*
X123586240Y-121682753D01*
X123424957Y-121657208D01*
X123376287Y-121649500D01*
X123163713Y-121649500D01*
X123115042Y-121657208D01*
X122953760Y-121682753D01*
X122751585Y-121748444D01*
X122562179Y-121844951D01*
X122390213Y-121969890D01*
X122239890Y-122120213D01*
X122114949Y-122292182D01*
X122110202Y-122301499D01*
X122062227Y-122352293D01*
X121994405Y-122369087D01*
X121928271Y-122346548D01*
X121889234Y-122301495D01*
X121884626Y-122292452D01*
X121845270Y-122238282D01*
X121845269Y-122238282D01*
X121212962Y-122870590D01*
X121195925Y-122807007D01*
X121130099Y-122692993D01*
X121037007Y-122599901D01*
X120922993Y-122534075D01*
X120859409Y-122517037D01*
X121491716Y-121884728D01*
X121437550Y-121845375D01*
X121248217Y-121748904D01*
X121046129Y-121683242D01*
X120836246Y-121650000D01*
X120623754Y-121650000D01*
X120413872Y-121683242D01*
X120413869Y-121683242D01*
X120211782Y-121748904D01*
X120022439Y-121845380D01*
X119968282Y-121884727D01*
X119968282Y-121884728D01*
X120600591Y-122517037D01*
X120537007Y-122534075D01*
X120422993Y-122599901D01*
X120329901Y-122692993D01*
X120264075Y-122807007D01*
X120247037Y-122870591D01*
X119576818Y-122200372D01*
X119543333Y-122139049D01*
X119543330Y-122139036D01*
X119540499Y-122126015D01*
X119540499Y-122102128D01*
X119534091Y-122042517D01*
X119505557Y-121966013D01*
X119483798Y-121907673D01*
X119483793Y-121907664D01*
X119397547Y-121792455D01*
X119397544Y-121792452D01*
X119282335Y-121706206D01*
X119282328Y-121706202D01*
X119147482Y-121655908D01*
X119147483Y-121655908D01*
X119087883Y-121649501D01*
X119087881Y-121649500D01*
X119087873Y-121649500D01*
X119087865Y-121649500D01*
X118129006Y-121649500D01*
X118061967Y-121629815D01*
X118041325Y-121613181D01*
X117748102Y-121319957D01*
X117748098Y-121319954D01*
X117604711Y-121224145D01*
X117604698Y-121224138D01*
X117445378Y-121158146D01*
X117445366Y-121158143D01*
X117276232Y-121124500D01*
X117276229Y-121124500D01*
X108086229Y-121124500D01*
X106030218Y-121124500D01*
X105963179Y-121104815D01*
X105924679Y-121065597D01*
X105872712Y-120981344D01*
X105748656Y-120857288D01*
X105599334Y-120765186D01*
X105432797Y-120710001D01*
X105432795Y-120710000D01*
X105330016Y-120699500D01*
X105330009Y-120699500D01*
X104719006Y-120699500D01*
X104651967Y-120679815D01*
X104631325Y-120663181D01*
X100911819Y-116943675D01*
X100878334Y-116882352D01*
X100875500Y-116855994D01*
X100875500Y-109024097D01*
X100895185Y-108957058D01*
X100947989Y-108911303D01*
X101017147Y-108901359D01*
X101080703Y-108930384D01*
G37*
%TD.AperFunction*%
%TA.AperFunction,Conductor*%
G36*
X185653033Y-82895185D02*
G01*
X185673675Y-82911819D01*
X186276799Y-83514943D01*
X186310284Y-83576266D01*
X186305300Y-83645958D01*
X186263430Y-83701890D01*
X186142452Y-83792455D01*
X186056206Y-83907664D01*
X186056202Y-83907671D01*
X186005908Y-84042517D01*
X185999980Y-84097664D01*
X185999501Y-84102123D01*
X185999500Y-84102135D01*
X185999500Y-84112690D01*
X185979815Y-84179729D01*
X185963181Y-84200371D01*
X185292962Y-84870590D01*
X185275925Y-84807007D01*
X185210099Y-84692993D01*
X185117007Y-84599901D01*
X185002993Y-84534075D01*
X184939409Y-84517037D01*
X185571716Y-83884728D01*
X185517550Y-83845375D01*
X185328217Y-83748904D01*
X185126129Y-83683242D01*
X184916246Y-83650000D01*
X184703754Y-83650000D01*
X184493872Y-83683242D01*
X184493869Y-83683242D01*
X184291782Y-83748904D01*
X184102439Y-83845380D01*
X184048282Y-83884727D01*
X184048282Y-83884728D01*
X184680591Y-84517037D01*
X184617007Y-84534075D01*
X184502993Y-84599901D01*
X184409901Y-84692993D01*
X184344075Y-84807007D01*
X184327037Y-84870591D01*
X183694728Y-84238282D01*
X183694727Y-84238282D01*
X183655380Y-84292440D01*
X183655376Y-84292446D01*
X183650760Y-84301505D01*
X183602781Y-84352297D01*
X183534959Y-84369087D01*
X183468826Y-84346543D01*
X183429794Y-84301493D01*
X183425051Y-84292184D01*
X183425049Y-84292181D01*
X183425048Y-84292179D01*
X183300109Y-84120213D01*
X183149786Y-83969890D01*
X182977820Y-83844951D01*
X182788414Y-83748444D01*
X182788413Y-83748443D01*
X182788412Y-83748443D01*
X182586243Y-83682754D01*
X182586241Y-83682753D01*
X182586240Y-83682753D01*
X182424957Y-83657208D01*
X182376287Y-83649500D01*
X182163713Y-83649500D01*
X182115042Y-83657208D01*
X181953760Y-83682753D01*
X181751585Y-83748444D01*
X181562179Y-83844951D01*
X181390213Y-83969890D01*
X181239890Y-84120213D01*
X181114949Y-84292182D01*
X181110484Y-84300946D01*
X181062509Y-84351742D01*
X180994688Y-84368536D01*
X180928553Y-84345998D01*
X180889516Y-84300946D01*
X180885050Y-84292182D01*
X180760109Y-84120213D01*
X180609786Y-83969890D01*
X180437820Y-83844951D01*
X180248414Y-83748444D01*
X180248413Y-83748443D01*
X180248412Y-83748443D01*
X180046243Y-83682754D01*
X180046241Y-83682753D01*
X180046240Y-83682753D01*
X179884957Y-83657208D01*
X179836287Y-83649500D01*
X179623713Y-83649500D01*
X179575042Y-83657208D01*
X179413760Y-83682753D01*
X179211585Y-83748444D01*
X179022179Y-83844951D01*
X178850213Y-83969890D01*
X178699890Y-84120213D01*
X178574949Y-84292182D01*
X178570484Y-84300946D01*
X178522509Y-84351742D01*
X178454688Y-84368536D01*
X178388553Y-84345998D01*
X178349516Y-84300946D01*
X178345050Y-84292182D01*
X178220109Y-84120213D01*
X178069786Y-83969890D01*
X177897820Y-83844951D01*
X177708414Y-83748444D01*
X177708413Y-83748443D01*
X177708412Y-83748443D01*
X177506243Y-83682754D01*
X177506241Y-83682753D01*
X177506240Y-83682753D01*
X177344957Y-83657208D01*
X177296287Y-83649500D01*
X177083713Y-83649500D01*
X177035042Y-83657208D01*
X176873760Y-83682753D01*
X176671585Y-83748444D01*
X176482179Y-83844951D01*
X176310213Y-83969890D01*
X176159890Y-84120213D01*
X176034949Y-84292182D01*
X176030484Y-84300946D01*
X175982509Y-84351742D01*
X175914688Y-84368536D01*
X175848553Y-84345998D01*
X175809516Y-84300946D01*
X175805050Y-84292182D01*
X175680109Y-84120213D01*
X175529786Y-83969890D01*
X175357820Y-83844951D01*
X175168414Y-83748444D01*
X175168413Y-83748443D01*
X175168412Y-83748443D01*
X174966243Y-83682754D01*
X174966241Y-83682753D01*
X174966240Y-83682753D01*
X174804957Y-83657208D01*
X174756287Y-83649500D01*
X174543713Y-83649500D01*
X174495042Y-83657208D01*
X174333760Y-83682753D01*
X174131585Y-83748444D01*
X173942179Y-83844951D01*
X173770213Y-83969890D01*
X173619890Y-84120213D01*
X173494951Y-84292179D01*
X173398444Y-84481585D01*
X173332753Y-84683760D01*
X173299500Y-84893713D01*
X173299500Y-85106286D01*
X173328888Y-85291839D01*
X173332754Y-85316243D01*
X173388527Y-85487895D01*
X173398444Y-85518414D01*
X173494951Y-85707820D01*
X173619890Y-85879786D01*
X173770213Y-86030109D01*
X173942179Y-86155048D01*
X173942181Y-86155049D01*
X173942184Y-86155051D01*
X174131588Y-86251557D01*
X174333757Y-86317246D01*
X174543713Y-86350500D01*
X174543714Y-86350500D01*
X174756286Y-86350500D01*
X174756287Y-86350500D01*
X174966243Y-86317246D01*
X175168412Y-86251557D01*
X175357816Y-86155051D01*
X175444138Y-86092335D01*
X175529786Y-86030109D01*
X175529788Y-86030106D01*
X175529792Y-86030104D01*
X175680104Y-85879792D01*
X175680106Y-85879788D01*
X175680109Y-85879786D01*
X175805048Y-85707820D01*
X175805047Y-85707820D01*
X175805051Y-85707816D01*
X175809514Y-85699054D01*
X175857488Y-85648259D01*
X175925308Y-85631463D01*
X175991444Y-85653999D01*
X176030486Y-85699056D01*
X176034951Y-85707820D01*
X176159890Y-85879786D01*
X176310213Y-86030109D01*
X176482179Y-86155048D01*
X176482181Y-86155049D01*
X176482184Y-86155051D01*
X176671588Y-86251557D01*
X176873757Y-86317246D01*
X177083713Y-86350500D01*
X177083714Y-86350500D01*
X177296286Y-86350500D01*
X177296287Y-86350500D01*
X177506243Y-86317246D01*
X177708412Y-86251557D01*
X177897816Y-86155051D01*
X177984138Y-86092335D01*
X178069786Y-86030109D01*
X178069788Y-86030106D01*
X178069792Y-86030104D01*
X178220104Y-85879792D01*
X178220106Y-85879788D01*
X178220109Y-85879786D01*
X178345048Y-85707820D01*
X178345047Y-85707820D01*
X178345051Y-85707816D01*
X178349514Y-85699054D01*
X178397488Y-85648259D01*
X178465308Y-85631463D01*
X178531444Y-85653999D01*
X178570486Y-85699056D01*
X178574951Y-85707820D01*
X178699890Y-85879786D01*
X178850213Y-86030109D01*
X179022184Y-86155051D01*
X179022184Y-86155052D01*
X179061793Y-86175233D01*
X179112590Y-86223206D01*
X179129500Y-86285718D01*
X179129500Y-87969903D01*
X179109815Y-88036942D01*
X179093181Y-88057584D01*
X177787584Y-89363181D01*
X177726261Y-89396666D01*
X177699903Y-89399500D01*
X172086670Y-89399500D01*
X172086654Y-89399499D01*
X172079058Y-89399499D01*
X171920943Y-89399499D01*
X171844579Y-89419961D01*
X171768214Y-89440423D01*
X171768209Y-89440426D01*
X171631290Y-89519475D01*
X171631282Y-89519481D01*
X159985339Y-101165425D01*
X159924016Y-101198910D01*
X159921850Y-101199361D01*
X159766508Y-101230261D01*
X159766498Y-101230264D01*
X159620827Y-101290602D01*
X159620814Y-101290609D01*
X159489711Y-101378210D01*
X159489707Y-101378213D01*
X159378213Y-101489707D01*
X159378210Y-101489711D01*
X159290609Y-101620814D01*
X159290602Y-101620827D01*
X159230264Y-101766498D01*
X159230261Y-101766510D01*
X159199500Y-101921153D01*
X159199500Y-102078846D01*
X159230261Y-102233489D01*
X159230264Y-102233501D01*
X159290602Y-102379172D01*
X159290609Y-102379185D01*
X159378210Y-102510288D01*
X159378213Y-102510292D01*
X159489707Y-102621786D01*
X159489711Y-102621789D01*
X159620814Y-102709390D01*
X159620827Y-102709397D01*
X159766498Y-102769735D01*
X159766503Y-102769737D01*
X159921153Y-102800499D01*
X159921156Y-102800500D01*
X160050903Y-102800500D01*
X160117942Y-102820185D01*
X160163697Y-102872989D01*
X160173641Y-102942147D01*
X160144616Y-103005703D01*
X160138584Y-103012181D01*
X155787584Y-107363181D01*
X155726261Y-107396666D01*
X155699903Y-107399500D01*
X152579766Y-107399500D01*
X152512727Y-107379815D01*
X152510875Y-107378602D01*
X152379185Y-107290609D01*
X152379172Y-107290602D01*
X152233501Y-107230264D01*
X152233489Y-107230261D01*
X152078845Y-107199500D01*
X152078842Y-107199500D01*
X151949096Y-107199500D01*
X151882057Y-107179815D01*
X151836302Y-107127011D01*
X151826358Y-107057853D01*
X151855383Y-106994297D01*
X151861415Y-106987819D01*
X157683809Y-101165425D01*
X164672087Y-94177146D01*
X164733408Y-94143663D01*
X164779159Y-94142356D01*
X164893713Y-94160500D01*
X164893715Y-94160500D01*
X165106286Y-94160500D01*
X165106287Y-94160500D01*
X165316243Y-94127246D01*
X165518412Y-94061557D01*
X165707816Y-93965051D01*
X165768526Y-93920943D01*
X165879786Y-93840109D01*
X165879788Y-93840106D01*
X165879792Y-93840104D01*
X166030104Y-93689792D01*
X166030106Y-93689788D01*
X166030109Y-93689786D01*
X166155048Y-93517820D01*
X166155047Y-93517820D01*
X166155051Y-93517816D01*
X166251557Y-93328412D01*
X166317246Y-93126243D01*
X166350500Y-92916287D01*
X166350500Y-92703713D01*
X166317246Y-92493757D01*
X166251557Y-92291588D01*
X166155051Y-92102184D01*
X166155049Y-92102181D01*
X166155048Y-92102179D01*
X166030109Y-91930213D01*
X165879786Y-91779890D01*
X165707820Y-91654951D01*
X165707115Y-91654591D01*
X165699054Y-91650485D01*
X165648259Y-91602512D01*
X165631463Y-91534692D01*
X165653999Y-91468556D01*
X165699054Y-91429515D01*
X165707816Y-91425051D01*
X165831265Y-91335361D01*
X165879786Y-91300109D01*
X165879788Y-91300106D01*
X165879792Y-91300104D01*
X166030104Y-91149792D01*
X166030106Y-91149788D01*
X166030109Y-91149786D01*
X166155048Y-90977820D01*
X166155047Y-90977820D01*
X166155051Y-90977816D01*
X166251557Y-90788412D01*
X166317246Y-90586243D01*
X166350500Y-90376287D01*
X166350500Y-90163713D01*
X166317246Y-89953757D01*
X166251557Y-89751588D01*
X166155051Y-89562184D01*
X166155049Y-89562181D01*
X166155048Y-89562179D01*
X166030109Y-89390213D01*
X165879786Y-89239890D01*
X165707817Y-89114949D01*
X165698504Y-89110204D01*
X165647707Y-89062230D01*
X165630912Y-88994409D01*
X165653449Y-88928274D01*
X165698507Y-88889232D01*
X165707555Y-88884622D01*
X165761716Y-88845270D01*
X165761717Y-88845270D01*
X165129408Y-88212962D01*
X165192993Y-88195925D01*
X165307007Y-88130099D01*
X165400099Y-88037007D01*
X165465925Y-87922993D01*
X165482962Y-87859408D01*
X166115270Y-88491717D01*
X166115270Y-88491716D01*
X166154622Y-88437554D01*
X166251095Y-88248217D01*
X166316757Y-88046130D01*
X166316757Y-88046127D01*
X166350000Y-87836246D01*
X166350000Y-87623753D01*
X166316757Y-87413872D01*
X166316757Y-87413869D01*
X166251095Y-87211782D01*
X166154624Y-87022449D01*
X166115270Y-86968282D01*
X166115269Y-86968282D01*
X165482962Y-87600590D01*
X165465925Y-87537007D01*
X165400099Y-87422993D01*
X165307007Y-87329901D01*
X165192993Y-87264075D01*
X165129409Y-87247037D01*
X165799627Y-86576818D01*
X165860950Y-86543333D01*
X165887307Y-86540499D01*
X165897872Y-86540499D01*
X165957483Y-86534091D01*
X166092331Y-86483796D01*
X166207546Y-86397546D01*
X166293796Y-86282331D01*
X166344091Y-86147483D01*
X166350500Y-86087873D01*
X166350499Y-84292128D01*
X166344091Y-84232517D01*
X166335112Y-84208444D01*
X166293797Y-84097671D01*
X166293793Y-84097664D01*
X166207547Y-83982455D01*
X166207544Y-83982452D01*
X166092335Y-83896206D01*
X166092328Y-83896202D01*
X165957482Y-83845908D01*
X165957483Y-83845908D01*
X165897883Y-83839501D01*
X165897881Y-83839500D01*
X165897873Y-83839500D01*
X165897864Y-83839500D01*
X164102129Y-83839500D01*
X164102123Y-83839501D01*
X164042512Y-83845909D01*
X164034969Y-83847692D01*
X164034658Y-83846377D01*
X163973127Y-83850771D01*
X163911808Y-83817279D01*
X163878331Y-83755951D01*
X163875500Y-83729608D01*
X163875500Y-83414006D01*
X163895185Y-83346967D01*
X163911819Y-83326325D01*
X164326325Y-82911819D01*
X164387648Y-82878334D01*
X164414006Y-82875500D01*
X185585994Y-82875500D01*
X185653033Y-82895185D01*
G37*
%TD.AperFunction*%
%TA.AperFunction,Conductor*%
G36*
X83612268Y-99533715D02*
G01*
X83639364Y-99496422D01*
X83719234Y-99339669D01*
X83767208Y-99288872D01*
X83835029Y-99272077D01*
X83901164Y-99294614D01*
X83940203Y-99339667D01*
X84020213Y-99496694D01*
X84137019Y-99657464D01*
X84277536Y-99797981D01*
X84438306Y-99914787D01*
X84467282Y-99929551D01*
X84615367Y-100005005D01*
X84615370Y-100005006D01*
X84692615Y-100030104D01*
X84804364Y-100066413D01*
X85000639Y-100097500D01*
X85000640Y-100097500D01*
X85199360Y-100097500D01*
X85199361Y-100097500D01*
X85395636Y-100066413D01*
X85584632Y-100005005D01*
X85761694Y-99914787D01*
X85922464Y-99797981D01*
X86062981Y-99657464D01*
X86179787Y-99496694D01*
X86259515Y-99340218D01*
X86307490Y-99289423D01*
X86375311Y-99272628D01*
X86441446Y-99295165D01*
X86480484Y-99340218D01*
X86560213Y-99496694D01*
X86677019Y-99657464D01*
X86817536Y-99797981D01*
X86978306Y-99914787D01*
X87007282Y-99929551D01*
X87155367Y-100005005D01*
X87155370Y-100005006D01*
X87232615Y-100030104D01*
X87344364Y-100066413D01*
X87540639Y-100097500D01*
X87540640Y-100097500D01*
X87739360Y-100097500D01*
X87739361Y-100097500D01*
X87935636Y-100066413D01*
X88124632Y-100005005D01*
X88301694Y-99914787D01*
X88462464Y-99797981D01*
X88602981Y-99657464D01*
X88719787Y-99496694D01*
X88799515Y-99340218D01*
X88847490Y-99289423D01*
X88915311Y-99272628D01*
X88981446Y-99295165D01*
X89020484Y-99340218D01*
X89100213Y-99496694D01*
X89217019Y-99657464D01*
X89357536Y-99797981D01*
X89518306Y-99914787D01*
X89547282Y-99929551D01*
X89695367Y-100005005D01*
X89695370Y-100005006D01*
X89772615Y-100030104D01*
X89884364Y-100066413D01*
X90080639Y-100097500D01*
X90080640Y-100097500D01*
X90279360Y-100097500D01*
X90279361Y-100097500D01*
X90475636Y-100066413D01*
X90664632Y-100005005D01*
X90841694Y-99914787D01*
X91002464Y-99797981D01*
X91142981Y-99657464D01*
X91259787Y-99496694D01*
X91339515Y-99340218D01*
X91387490Y-99289423D01*
X91455311Y-99272628D01*
X91521446Y-99295165D01*
X91560484Y-99340218D01*
X91640213Y-99496694D01*
X91757019Y-99657464D01*
X91897536Y-99797981D01*
X92058306Y-99914787D01*
X92087282Y-99929551D01*
X92139993Y-99956409D01*
X92190789Y-100004384D01*
X92191085Y-100004894D01*
X92239477Y-100088712D01*
X92239481Y-100088717D01*
X92358349Y-100207585D01*
X92358355Y-100207590D01*
X95063584Y-102912819D01*
X95097069Y-102974142D01*
X95092085Y-103043834D01*
X95050213Y-103099767D01*
X94984749Y-103124184D01*
X94975903Y-103124500D01*
X82414006Y-103124500D01*
X82346967Y-103104815D01*
X82326325Y-103088181D01*
X80931819Y-101693675D01*
X80898334Y-101632352D01*
X80895500Y-101605994D01*
X80895500Y-99796307D01*
X80915185Y-99729268D01*
X80931819Y-99708626D01*
X80941389Y-99699056D01*
X80982981Y-99657464D01*
X81099787Y-99496694D01*
X81179796Y-99339667D01*
X81227769Y-99288872D01*
X81295590Y-99272077D01*
X81361725Y-99294614D01*
X81400765Y-99339668D01*
X81480641Y-99496432D01*
X81507730Y-99533715D01*
X81507731Y-99533716D01*
X82122352Y-98919094D01*
X82145792Y-99006571D01*
X82204311Y-99107930D01*
X82287070Y-99190689D01*
X82388429Y-99249208D01*
X82475905Y-99272647D01*
X81861283Y-99887268D01*
X81861283Y-99887269D01*
X81898567Y-99914358D01*
X82075562Y-100004542D01*
X82264477Y-100065924D01*
X82460679Y-100097000D01*
X82659321Y-100097000D01*
X82855520Y-100065924D01*
X82855523Y-100065924D01*
X83044437Y-100004542D01*
X83221425Y-99914362D01*
X83258716Y-99887268D01*
X82644095Y-99272647D01*
X82731571Y-99249208D01*
X82832930Y-99190689D01*
X82915689Y-99107930D01*
X82974208Y-99006571D01*
X82997647Y-98919094D01*
X83612268Y-99533715D01*
G37*
%TD.AperFunction*%
%TA.AperFunction,Conductor*%
G36*
X122961320Y-86080185D02*
G01*
X123004765Y-86128205D01*
X123024947Y-86167814D01*
X123024948Y-86167815D01*
X123149890Y-86339786D01*
X123300213Y-86490109D01*
X123472179Y-86615048D01*
X123472181Y-86615049D01*
X123472184Y-86615051D01*
X123481493Y-86619794D01*
X123532290Y-86667766D01*
X123549087Y-86735587D01*
X123526552Y-86801722D01*
X123481505Y-86840760D01*
X123472446Y-86845376D01*
X123472440Y-86845380D01*
X123418282Y-86884727D01*
X123418282Y-86884728D01*
X124050591Y-87517037D01*
X123987007Y-87534075D01*
X123872993Y-87599901D01*
X123779901Y-87692993D01*
X123714075Y-87807007D01*
X123697037Y-87870591D01*
X123064728Y-87238282D01*
X123064727Y-87238282D01*
X123025380Y-87292439D01*
X122928904Y-87481782D01*
X122863242Y-87683869D01*
X122863242Y-87683872D01*
X122830000Y-87893753D01*
X122830000Y-88106246D01*
X122863242Y-88316127D01*
X122863242Y-88316130D01*
X122928904Y-88518217D01*
X123025375Y-88707550D01*
X123064728Y-88761716D01*
X123697037Y-88129408D01*
X123714075Y-88192993D01*
X123779901Y-88307007D01*
X123872993Y-88400099D01*
X123987007Y-88465925D01*
X124050590Y-88482962D01*
X123380370Y-89153181D01*
X123319047Y-89186666D01*
X123292698Y-89189500D01*
X123282134Y-89189500D01*
X123282123Y-89189501D01*
X123222516Y-89195908D01*
X123087671Y-89246202D01*
X123087664Y-89246206D01*
X122972455Y-89332452D01*
X122972452Y-89332455D01*
X122886206Y-89447664D01*
X122886202Y-89447671D01*
X122835908Y-89582517D01*
X122831868Y-89620099D01*
X122829501Y-89642123D01*
X122829500Y-89642135D01*
X122829500Y-91437870D01*
X122829501Y-91437876D01*
X122835908Y-91497483D01*
X122886202Y-91632328D01*
X122886206Y-91632335D01*
X122972452Y-91747544D01*
X122972455Y-91747547D01*
X123087664Y-91833793D01*
X123087671Y-91833797D01*
X123222517Y-91884091D01*
X123222516Y-91884091D01*
X123229444Y-91884835D01*
X123282127Y-91890500D01*
X125077872Y-91890499D01*
X125137483Y-91884091D01*
X125232167Y-91848775D01*
X125301858Y-91843792D01*
X125363181Y-91877277D01*
X125396666Y-91938600D01*
X125399500Y-91964958D01*
X125399500Y-97525500D01*
X125379815Y-97592539D01*
X125327011Y-97638294D01*
X125275500Y-97649500D01*
X125213713Y-97649500D01*
X125165042Y-97657208D01*
X125003760Y-97682753D01*
X125003757Y-97682754D01*
X124840718Y-97735729D01*
X124801585Y-97748444D01*
X124612179Y-97844951D01*
X124440213Y-97969890D01*
X124289890Y-98120213D01*
X124164949Y-98292182D01*
X124160484Y-98300946D01*
X124112509Y-98351742D01*
X124044688Y-98368536D01*
X123978553Y-98345998D01*
X123939516Y-98300946D01*
X123935050Y-98292182D01*
X123810109Y-98120213D01*
X123659786Y-97969890D01*
X123487820Y-97844951D01*
X123298414Y-97748444D01*
X123298413Y-97748443D01*
X123298412Y-97748443D01*
X123096243Y-97682754D01*
X123096241Y-97682753D01*
X123096240Y-97682753D01*
X122934957Y-97657208D01*
X122886287Y-97649500D01*
X122673713Y-97649500D01*
X122645006Y-97654046D01*
X122463757Y-97682753D01*
X122421473Y-97696492D01*
X122351632Y-97698486D01*
X122295476Y-97666241D01*
X118636819Y-94007584D01*
X118603334Y-93946261D01*
X118600500Y-93919903D01*
X118600500Y-91743461D01*
X118620185Y-91676422D01*
X118672989Y-91630667D01*
X118742147Y-91620723D01*
X118805703Y-91649748D01*
X118823766Y-91669150D01*
X118882452Y-91747544D01*
X118882455Y-91747547D01*
X118997664Y-91833793D01*
X118997671Y-91833797D01*
X119132517Y-91884091D01*
X119132516Y-91884091D01*
X119139444Y-91884835D01*
X119192127Y-91890500D01*
X120987872Y-91890499D01*
X121047483Y-91884091D01*
X121182331Y-91833796D01*
X121297546Y-91747546D01*
X121383796Y-91632331D01*
X121434091Y-91497483D01*
X121440500Y-91437873D01*
X121440499Y-89642128D01*
X121434091Y-89582517D01*
X121426507Y-89562184D01*
X121383797Y-89447671D01*
X121383793Y-89447664D01*
X121297547Y-89332455D01*
X121297544Y-89332452D01*
X121182335Y-89246206D01*
X121182328Y-89246202D01*
X121047482Y-89195908D01*
X121047483Y-89195908D01*
X120987883Y-89189501D01*
X120987881Y-89189500D01*
X120987873Y-89189500D01*
X120987865Y-89189500D01*
X120977309Y-89189500D01*
X120910270Y-89169815D01*
X120889628Y-89153181D01*
X120219408Y-88482962D01*
X120282993Y-88465925D01*
X120397007Y-88400099D01*
X120490099Y-88307007D01*
X120555925Y-88192993D01*
X120572962Y-88129409D01*
X121205270Y-88761717D01*
X121205270Y-88761716D01*
X121244622Y-88707554D01*
X121341095Y-88518217D01*
X121406757Y-88316130D01*
X121406757Y-88316127D01*
X121440000Y-88106246D01*
X121440000Y-87893753D01*
X121406757Y-87683872D01*
X121406757Y-87683869D01*
X121341095Y-87481782D01*
X121244624Y-87292449D01*
X121205270Y-87238282D01*
X121205269Y-87238282D01*
X120572962Y-87870590D01*
X120555925Y-87807007D01*
X120490099Y-87692993D01*
X120397007Y-87599901D01*
X120282993Y-87534075D01*
X120219409Y-87517037D01*
X120851716Y-86884728D01*
X120797547Y-86845373D01*
X120797547Y-86845372D01*
X120788500Y-86840763D01*
X120737706Y-86792788D01*
X120720912Y-86724966D01*
X120743451Y-86658832D01*
X120788508Y-86619793D01*
X120797816Y-86615051D01*
X120899351Y-86541282D01*
X120969786Y-86490109D01*
X120969788Y-86490106D01*
X120969792Y-86490104D01*
X121120104Y-86339792D01*
X121120106Y-86339788D01*
X121120109Y-86339786D01*
X121184546Y-86251095D01*
X121245051Y-86167816D01*
X121251774Y-86154622D01*
X121265235Y-86128205D01*
X121313209Y-86077409D01*
X121375719Y-86060500D01*
X122894281Y-86060500D01*
X122961320Y-86080185D01*
G37*
%TD.AperFunction*%
%TA.AperFunction,Conductor*%
G36*
X131141320Y-86080185D02*
G01*
X131184765Y-86128205D01*
X131204947Y-86167814D01*
X131204948Y-86167815D01*
X131329890Y-86339786D01*
X131480213Y-86490109D01*
X131652179Y-86615048D01*
X131652181Y-86615049D01*
X131652184Y-86615051D01*
X131661493Y-86619794D01*
X131712290Y-86667766D01*
X131729087Y-86735587D01*
X131706552Y-86801722D01*
X131661505Y-86840760D01*
X131652446Y-86845376D01*
X131652440Y-86845380D01*
X131598282Y-86884727D01*
X131598282Y-86884728D01*
X132230591Y-87517037D01*
X132167007Y-87534075D01*
X132052993Y-87599901D01*
X131959901Y-87692993D01*
X131894075Y-87807007D01*
X131877037Y-87870591D01*
X131244728Y-87238282D01*
X131244727Y-87238282D01*
X131205380Y-87292439D01*
X131108904Y-87481782D01*
X131043242Y-87683869D01*
X131043242Y-87683872D01*
X131010000Y-87893753D01*
X131010000Y-88106246D01*
X131043242Y-88316127D01*
X131043242Y-88316130D01*
X131108904Y-88518217D01*
X131205375Y-88707550D01*
X131244728Y-88761716D01*
X131877037Y-88129408D01*
X131894075Y-88192993D01*
X131959901Y-88307007D01*
X132052993Y-88400099D01*
X132167007Y-88465925D01*
X132230590Y-88482962D01*
X131560370Y-89153181D01*
X131499047Y-89186666D01*
X131472698Y-89189500D01*
X131462134Y-89189500D01*
X131462123Y-89189501D01*
X131402516Y-89195908D01*
X131267671Y-89246202D01*
X131267664Y-89246206D01*
X131152455Y-89332452D01*
X131152452Y-89332455D01*
X131066206Y-89447664D01*
X131066202Y-89447671D01*
X131015908Y-89582517D01*
X131011868Y-89620099D01*
X131009501Y-89642123D01*
X131009500Y-89642135D01*
X131009500Y-91437870D01*
X131009501Y-91437876D01*
X131015908Y-91497483D01*
X131066202Y-91632328D01*
X131066206Y-91632335D01*
X131152452Y-91747544D01*
X131152455Y-91747547D01*
X131267664Y-91833793D01*
X131267671Y-91833797D01*
X131402517Y-91884091D01*
X131402516Y-91884091D01*
X131409444Y-91884835D01*
X131462127Y-91890500D01*
X132960902Y-91890499D01*
X133027941Y-91910184D01*
X133073696Y-91962987D01*
X133083640Y-92032146D01*
X133054615Y-92095702D01*
X133048583Y-92102180D01*
X130031286Y-95119478D01*
X129919481Y-95231282D01*
X129919479Y-95231284D01*
X129895406Y-95272981D01*
X129885231Y-95290606D01*
X129840423Y-95368215D01*
X129799499Y-95520943D01*
X129799499Y-95520945D01*
X129799499Y-95689046D01*
X129799500Y-95689059D01*
X129799500Y-97714281D01*
X129779815Y-97781320D01*
X129731795Y-97824765D01*
X129692185Y-97844947D01*
X129692184Y-97844948D01*
X129520213Y-97969890D01*
X129369890Y-98120213D01*
X129244949Y-98292182D01*
X129240484Y-98300946D01*
X129192509Y-98351742D01*
X129124688Y-98368536D01*
X129058553Y-98345998D01*
X129019516Y-98300946D01*
X129015050Y-98292182D01*
X128890109Y-98120213D01*
X128739786Y-97969890D01*
X128567815Y-97844948D01*
X128567814Y-97844947D01*
X128528205Y-97824765D01*
X128477409Y-97776791D01*
X128460500Y-97714281D01*
X128460500Y-94440096D01*
X128480185Y-94373057D01*
X128496814Y-94352420D01*
X130358506Y-92490727D01*
X130358511Y-92490724D01*
X130368714Y-92480520D01*
X130368716Y-92480520D01*
X130480520Y-92368716D01*
X130551198Y-92246297D01*
X130559577Y-92231785D01*
X130600501Y-92079057D01*
X130600501Y-91920943D01*
X130600501Y-91913348D01*
X130600500Y-91913330D01*
X130600500Y-87110945D01*
X130600500Y-87110943D01*
X130559577Y-86958216D01*
X130517149Y-86884728D01*
X130480524Y-86821290D01*
X130480521Y-86821286D01*
X130480520Y-86821284D01*
X130368716Y-86709480D01*
X130368715Y-86709479D01*
X130364385Y-86705149D01*
X130364374Y-86705139D01*
X129931416Y-86272181D01*
X129897931Y-86210858D01*
X129902915Y-86141166D01*
X129944787Y-86085233D01*
X130010251Y-86060816D01*
X130019097Y-86060500D01*
X131074281Y-86060500D01*
X131141320Y-86080185D01*
G37*
%TD.AperFunction*%
%TA.AperFunction,Conductor*%
G36*
X114781320Y-86080185D02*
G01*
X114824765Y-86128205D01*
X114844947Y-86167814D01*
X114844948Y-86167815D01*
X114969890Y-86339786D01*
X115120213Y-86490109D01*
X115292179Y-86615048D01*
X115292181Y-86615049D01*
X115292184Y-86615051D01*
X115301493Y-86619794D01*
X115352290Y-86667766D01*
X115369087Y-86735587D01*
X115346552Y-86801722D01*
X115301505Y-86840760D01*
X115292446Y-86845376D01*
X115292440Y-86845380D01*
X115238282Y-86884727D01*
X115238282Y-86884728D01*
X115870591Y-87517037D01*
X115807007Y-87534075D01*
X115692993Y-87599901D01*
X115599901Y-87692993D01*
X115534075Y-87807007D01*
X115517037Y-87870591D01*
X114884728Y-87238282D01*
X114884727Y-87238282D01*
X114845380Y-87292439D01*
X114748904Y-87481782D01*
X114683242Y-87683869D01*
X114683242Y-87683872D01*
X114650000Y-87893753D01*
X114650000Y-88106246D01*
X114683242Y-88316127D01*
X114683242Y-88316130D01*
X114748904Y-88518217D01*
X114845375Y-88707550D01*
X114884728Y-88761716D01*
X115517037Y-88129408D01*
X115534075Y-88192993D01*
X115599901Y-88307007D01*
X115692993Y-88400099D01*
X115807007Y-88465925D01*
X115870590Y-88482962D01*
X115200370Y-89153181D01*
X115139047Y-89186666D01*
X115112698Y-89189500D01*
X115102134Y-89189500D01*
X115102123Y-89189501D01*
X115042516Y-89195908D01*
X114907671Y-89246202D01*
X114907664Y-89246206D01*
X114792455Y-89332452D01*
X114792452Y-89332455D01*
X114706206Y-89447664D01*
X114706202Y-89447671D01*
X114655908Y-89582517D01*
X114651868Y-89620099D01*
X114649501Y-89642123D01*
X114649500Y-89642135D01*
X114649500Y-91437870D01*
X114649501Y-91437876D01*
X114655908Y-91497483D01*
X114706202Y-91632328D01*
X114706206Y-91632335D01*
X114792452Y-91747544D01*
X114792455Y-91747547D01*
X114907664Y-91833793D01*
X114907671Y-91833797D01*
X115042517Y-91884091D01*
X115042516Y-91884091D01*
X115049444Y-91884835D01*
X115102127Y-91890500D01*
X116897872Y-91890499D01*
X116957483Y-91884091D01*
X117092331Y-91833796D01*
X117147972Y-91792143D01*
X117201189Y-91752305D01*
X117266653Y-91727887D01*
X117334926Y-91742738D01*
X117384332Y-91792143D01*
X117399500Y-91851571D01*
X117399500Y-94133330D01*
X117399499Y-94133348D01*
X117399499Y-94299054D01*
X117399498Y-94299054D01*
X117440423Y-94451785D01*
X117469358Y-94501900D01*
X117469359Y-94501904D01*
X117469360Y-94501904D01*
X117519479Y-94588714D01*
X117519481Y-94588717D01*
X117638349Y-94707585D01*
X117638355Y-94707590D01*
X120368584Y-97437819D01*
X120402069Y-97499142D01*
X120397085Y-97568834D01*
X120355213Y-97624767D01*
X120289749Y-97649184D01*
X120280903Y-97649500D01*
X120133713Y-97649500D01*
X120095244Y-97655593D01*
X119923759Y-97682753D01*
X119721588Y-97748442D01*
X119721583Y-97748444D01*
X119719765Y-97749371D01*
X119719000Y-97749514D01*
X119717090Y-97750306D01*
X119716923Y-97749904D01*
X119651094Y-97762262D01*
X119586356Y-97735980D01*
X119575798Y-97726563D01*
X115487590Y-93638355D01*
X115487588Y-93638352D01*
X115368717Y-93519481D01*
X115368716Y-93519480D01*
X115281904Y-93469360D01*
X115281904Y-93469359D01*
X115281900Y-93469358D01*
X115231785Y-93440423D01*
X115079057Y-93399499D01*
X114920943Y-93399499D01*
X114913347Y-93399499D01*
X114913331Y-93399500D01*
X111300098Y-93399500D01*
X111233059Y-93379815D01*
X111212417Y-93363181D01*
X110636819Y-92787583D01*
X110603334Y-92726260D01*
X110600500Y-92699902D01*
X110600500Y-91918945D01*
X110620185Y-91851906D01*
X110672989Y-91806151D01*
X110742147Y-91796207D01*
X110798811Y-91819679D01*
X110807101Y-91825885D01*
X110817667Y-91833795D01*
X110817671Y-91833797D01*
X110952517Y-91884091D01*
X110952516Y-91884091D01*
X110959444Y-91884835D01*
X111012127Y-91890500D01*
X112807872Y-91890499D01*
X112867483Y-91884091D01*
X113002331Y-91833796D01*
X113117546Y-91747546D01*
X113203796Y-91632331D01*
X113254091Y-91497483D01*
X113260500Y-91437873D01*
X113260499Y-89642128D01*
X113254091Y-89582517D01*
X113246507Y-89562184D01*
X113203797Y-89447671D01*
X113203793Y-89447664D01*
X113117547Y-89332455D01*
X113117544Y-89332452D01*
X113002335Y-89246206D01*
X113002328Y-89246202D01*
X112867482Y-89195908D01*
X112867483Y-89195908D01*
X112807883Y-89189501D01*
X112807881Y-89189500D01*
X112807873Y-89189500D01*
X112807865Y-89189500D01*
X112797309Y-89189500D01*
X112730270Y-89169815D01*
X112709628Y-89153181D01*
X112039408Y-88482962D01*
X112102993Y-88465925D01*
X112217007Y-88400099D01*
X112310099Y-88307007D01*
X112375925Y-88192993D01*
X112392962Y-88129408D01*
X113025270Y-88761717D01*
X113025270Y-88761716D01*
X113064622Y-88707554D01*
X113161095Y-88518217D01*
X113226757Y-88316130D01*
X113226757Y-88316127D01*
X113260000Y-88106246D01*
X113260000Y-87893753D01*
X113226757Y-87683872D01*
X113226757Y-87683869D01*
X113161095Y-87481782D01*
X113064624Y-87292449D01*
X113025270Y-87238282D01*
X113025269Y-87238282D01*
X112392962Y-87870590D01*
X112375925Y-87807007D01*
X112310099Y-87692993D01*
X112217007Y-87599901D01*
X112102993Y-87534075D01*
X112039409Y-87517037D01*
X112671716Y-86884728D01*
X112617547Y-86845373D01*
X112617547Y-86845372D01*
X112608500Y-86840763D01*
X112557706Y-86792788D01*
X112540912Y-86724966D01*
X112563451Y-86658832D01*
X112608508Y-86619793D01*
X112617816Y-86615051D01*
X112719351Y-86541282D01*
X112789786Y-86490109D01*
X112789788Y-86490106D01*
X112789792Y-86490104D01*
X112940104Y-86339792D01*
X112940106Y-86339788D01*
X112940109Y-86339786D01*
X113004546Y-86251095D01*
X113065051Y-86167816D01*
X113071774Y-86154622D01*
X113085235Y-86128205D01*
X113133209Y-86077409D01*
X113195719Y-86060500D01*
X114714281Y-86060500D01*
X114781320Y-86080185D01*
G37*
%TD.AperFunction*%
%TA.AperFunction,Conductor*%
G36*
X109312130Y-88114340D02*
G01*
X109370363Y-88152950D01*
X109398477Y-88216913D01*
X109399500Y-88232806D01*
X109399500Y-89526386D01*
X109379815Y-89593425D01*
X109327011Y-89639180D01*
X109257853Y-89649124D01*
X109194297Y-89620099D01*
X109159318Y-89569719D01*
X109113797Y-89447671D01*
X109113793Y-89447664D01*
X109027547Y-89332455D01*
X109027544Y-89332452D01*
X108912335Y-89246206D01*
X108912328Y-89246202D01*
X108777482Y-89195908D01*
X108777483Y-89195908D01*
X108717883Y-89189501D01*
X108717881Y-89189500D01*
X108717873Y-89189500D01*
X108717865Y-89189500D01*
X108707309Y-89189500D01*
X108640270Y-89169815D01*
X108619628Y-89153181D01*
X107949408Y-88482962D01*
X108012993Y-88465925D01*
X108127007Y-88400099D01*
X108220099Y-88307007D01*
X108285925Y-88192993D01*
X108302962Y-88129408D01*
X108935270Y-88761717D01*
X108935270Y-88761716D01*
X108974622Y-88707554D01*
X109071095Y-88518217D01*
X109136757Y-88316130D01*
X109136757Y-88316127D01*
X109153027Y-88213408D01*
X109182956Y-88150273D01*
X109242268Y-88113342D01*
X109312130Y-88114340D01*
G37*
%TD.AperFunction*%
%TA.AperFunction,Conductor*%
G36*
X119624075Y-88192993D02*
G01*
X119689901Y-88307007D01*
X119782993Y-88400099D01*
X119897007Y-88465925D01*
X119960590Y-88482962D01*
X119290370Y-89153181D01*
X119229047Y-89186666D01*
X119202698Y-89189500D01*
X119192134Y-89189500D01*
X119192123Y-89189501D01*
X119132516Y-89195908D01*
X118997671Y-89246202D01*
X118997664Y-89246206D01*
X118882455Y-89332452D01*
X118823766Y-89410850D01*
X118767832Y-89452720D01*
X118698140Y-89457704D01*
X118636817Y-89424218D01*
X118603333Y-89362894D01*
X118600500Y-89336538D01*
X118600500Y-88566048D01*
X118620185Y-88499009D01*
X118672989Y-88453254D01*
X118742147Y-88443310D01*
X118805703Y-88472335D01*
X118835938Y-88514264D01*
X118836694Y-88513879D01*
X118935375Y-88707550D01*
X118974728Y-88761716D01*
X119607037Y-88129408D01*
X119624075Y-88192993D01*
G37*
%TD.AperFunction*%
%TA.AperFunction,Conductor*%
G36*
X117115270Y-88761717D02*
G01*
X117115270Y-88761716D01*
X117154624Y-88707552D01*
X117165015Y-88687159D01*
X117212989Y-88636362D01*
X117280810Y-88619567D01*
X117346945Y-88642104D01*
X117390397Y-88696819D01*
X117399500Y-88743453D01*
X117399500Y-89228428D01*
X117379815Y-89295467D01*
X117327011Y-89341222D01*
X117257853Y-89351166D01*
X117201189Y-89327695D01*
X117158138Y-89295467D01*
X117092331Y-89246204D01*
X117092329Y-89246203D01*
X117092328Y-89246202D01*
X116957482Y-89195908D01*
X116957483Y-89195908D01*
X116897883Y-89189501D01*
X116897881Y-89189500D01*
X116897873Y-89189500D01*
X116897865Y-89189500D01*
X116887309Y-89189500D01*
X116820270Y-89169815D01*
X116799628Y-89153181D01*
X116129408Y-88482962D01*
X116192993Y-88465925D01*
X116307007Y-88400099D01*
X116400099Y-88307007D01*
X116465925Y-88192993D01*
X116482962Y-88129408D01*
X117115270Y-88761717D01*
G37*
%TD.AperFunction*%
%TA.AperFunction,Conductor*%
G36*
X111444075Y-88192993D02*
G01*
X111509901Y-88307007D01*
X111602993Y-88400099D01*
X111717007Y-88465925D01*
X111780590Y-88482962D01*
X111110370Y-89153181D01*
X111049047Y-89186666D01*
X111022698Y-89189500D01*
X111012134Y-89189500D01*
X111012123Y-89189501D01*
X110952516Y-89195908D01*
X110817671Y-89246202D01*
X110817668Y-89246204D01*
X110798811Y-89260321D01*
X110733346Y-89284738D01*
X110665073Y-89269886D01*
X110615668Y-89220481D01*
X110600500Y-89161054D01*
X110600500Y-88876017D01*
X110620185Y-88808978D01*
X110672989Y-88763223D01*
X110742147Y-88753279D01*
X110753520Y-88758473D01*
X110794728Y-88761716D01*
X111427037Y-88129408D01*
X111444075Y-88192993D01*
G37*
%TD.AperFunction*%
%TA.AperFunction,Conductor*%
G36*
X125302946Y-88769393D02*
G01*
X125312897Y-88773937D01*
X125334146Y-88778401D01*
X125344050Y-88788165D01*
X125356703Y-88793943D01*
X125368441Y-88812208D01*
X125383904Y-88827451D01*
X125387730Y-88842223D01*
X125394477Y-88852721D01*
X125399500Y-88887656D01*
X125399500Y-89115041D01*
X125379815Y-89182080D01*
X125327011Y-89227835D01*
X125257853Y-89237779D01*
X125232168Y-89231223D01*
X125137485Y-89195909D01*
X125137483Y-89195908D01*
X125077883Y-89189501D01*
X125077881Y-89189500D01*
X125077873Y-89189500D01*
X125077865Y-89189500D01*
X125067309Y-89189500D01*
X125000270Y-89169815D01*
X124979628Y-89153181D01*
X124309408Y-88482962D01*
X124372993Y-88465925D01*
X124487007Y-88400099D01*
X124580099Y-88307007D01*
X124645925Y-88192993D01*
X124662962Y-88129408D01*
X125302946Y-88769393D01*
G37*
%TD.AperFunction*%
%TA.AperFunction,Conductor*%
G36*
X129363181Y-88739627D02*
G01*
X129396666Y-88800950D01*
X129399500Y-88827308D01*
X129399500Y-89081473D01*
X129379815Y-89148512D01*
X129327011Y-89194267D01*
X129258893Y-89204356D01*
X129245151Y-89202498D01*
X129227483Y-89195909D01*
X129167873Y-89189500D01*
X129148967Y-89189500D01*
X129140702Y-89188383D01*
X129116108Y-89177402D01*
X129090270Y-89169815D01*
X129079278Y-89160957D01*
X129076903Y-89159897D01*
X129075720Y-89158090D01*
X129069628Y-89153181D01*
X128399408Y-88482962D01*
X128462993Y-88465925D01*
X128577007Y-88400099D01*
X128670099Y-88307007D01*
X128735925Y-88192993D01*
X128752962Y-88129408D01*
X129363181Y-88739627D01*
G37*
%TD.AperFunction*%
%TA.AperFunction,Conductor*%
G36*
X198442539Y-78520185D02*
G01*
X198488294Y-78572989D01*
X198499500Y-78624500D01*
X198499500Y-130375500D01*
X198479815Y-130442539D01*
X198427011Y-130488294D01*
X198375500Y-130499500D01*
X74624500Y-130499500D01*
X74557461Y-130479815D01*
X74511706Y-130427011D01*
X74500500Y-130375500D01*
X74500500Y-125878711D01*
X77149500Y-125878711D01*
X77149500Y-126121288D01*
X77181161Y-126361785D01*
X77243947Y-126596104D01*
X77336773Y-126820205D01*
X77336776Y-126820212D01*
X77458064Y-127030289D01*
X77458066Y-127030292D01*
X77458067Y-127030293D01*
X77605733Y-127222736D01*
X77605739Y-127222743D01*
X77777256Y-127394260D01*
X77777262Y-127394265D01*
X77969711Y-127541936D01*
X78179788Y-127663224D01*
X78403900Y-127756054D01*
X78638211Y-127818838D01*
X78818586Y-127842584D01*
X78878711Y-127850500D01*
X78878712Y-127850500D01*
X79121289Y-127850500D01*
X79169388Y-127844167D01*
X79361789Y-127818838D01*
X79596100Y-127756054D01*
X79820212Y-127663224D01*
X80030289Y-127541936D01*
X80222738Y-127394265D01*
X80394265Y-127222738D01*
X80541936Y-127030289D01*
X80663224Y-126820212D01*
X80756054Y-126596100D01*
X80818838Y-126361789D01*
X80850500Y-126121288D01*
X80850500Y-125878712D01*
X80850500Y-125878711D01*
X192149500Y-125878711D01*
X192149500Y-126121288D01*
X192181161Y-126361785D01*
X192243947Y-126596104D01*
X192336773Y-126820205D01*
X192336776Y-126820212D01*
X192458064Y-127030289D01*
X192458066Y-127030292D01*
X192458067Y-127030293D01*
X192605733Y-127222736D01*
X192605739Y-127222743D01*
X192777256Y-127394260D01*
X192777262Y-127394265D01*
X192969711Y-127541936D01*
X193179788Y-127663224D01*
X193403900Y-127756054D01*
X193638211Y-127818838D01*
X193818586Y-127842584D01*
X193878711Y-127850500D01*
X193878712Y-127850500D01*
X194121289Y-127850500D01*
X194169388Y-127844167D01*
X194361789Y-127818838D01*
X194596100Y-127756054D01*
X194820212Y-127663224D01*
X195030289Y-127541936D01*
X195222738Y-127394265D01*
X195394265Y-127222738D01*
X195541936Y-127030289D01*
X195663224Y-126820212D01*
X195756054Y-126596100D01*
X195818838Y-126361789D01*
X195850500Y-126121288D01*
X195850500Y-125878712D01*
X195818838Y-125638211D01*
X195756054Y-125403900D01*
X195663224Y-125179788D01*
X195541936Y-124969711D01*
X195394265Y-124777262D01*
X195394260Y-124777256D01*
X195222743Y-124605739D01*
X195222736Y-124605733D01*
X195030293Y-124458067D01*
X195030292Y-124458066D01*
X195030289Y-124458064D01*
X194820212Y-124336776D01*
X194820205Y-124336773D01*
X194596104Y-124243947D01*
X194361785Y-124181161D01*
X194121289Y-124149500D01*
X194121288Y-124149500D01*
X193878712Y-124149500D01*
X193878711Y-124149500D01*
X193638214Y-124181161D01*
X193403895Y-124243947D01*
X193179794Y-124336773D01*
X193179785Y-124336777D01*
X192969706Y-124458067D01*
X192777263Y-124605733D01*
X192777256Y-124605739D01*
X192605739Y-124777256D01*
X192605733Y-124777263D01*
X192458067Y-124969706D01*
X192336777Y-125179785D01*
X192336773Y-125179794D01*
X192243947Y-125403895D01*
X192181161Y-125638214D01*
X192149500Y-125878711D01*
X80850500Y-125878711D01*
X80818838Y-125638211D01*
X80756054Y-125403900D01*
X80663224Y-125179788D01*
X80541936Y-124969711D01*
X80394265Y-124777262D01*
X80394260Y-124777256D01*
X80222743Y-124605739D01*
X80222736Y-124605733D01*
X80030293Y-124458067D01*
X80030292Y-124458066D01*
X80030289Y-124458064D01*
X79820212Y-124336776D01*
X79820205Y-124336773D01*
X79596104Y-124243947D01*
X79361785Y-124181161D01*
X79121289Y-124149500D01*
X79121288Y-124149500D01*
X78878712Y-124149500D01*
X78878711Y-124149500D01*
X78638214Y-124181161D01*
X78403895Y-124243947D01*
X78179794Y-124336773D01*
X78179785Y-124336777D01*
X77969706Y-124458067D01*
X77777263Y-124605733D01*
X77777256Y-124605739D01*
X77605739Y-124777256D01*
X77605733Y-124777263D01*
X77458067Y-124969706D01*
X77336777Y-125179785D01*
X77336773Y-125179794D01*
X77243947Y-125403895D01*
X77181161Y-125638214D01*
X77149500Y-125878711D01*
X74500500Y-125878711D01*
X74500500Y-98735639D01*
X78757500Y-98735639D01*
X78757500Y-98934360D01*
X78788587Y-99130637D01*
X78849993Y-99319629D01*
X78849994Y-99319632D01*
X78903842Y-99425313D01*
X78940213Y-99496694D01*
X79057019Y-99657464D01*
X79057021Y-99657466D01*
X79108181Y-99708626D01*
X79141666Y-99769949D01*
X79144500Y-99796307D01*
X79144500Y-102106233D01*
X79178143Y-102275366D01*
X79178146Y-102275378D01*
X79244138Y-102434698D01*
X79244145Y-102434711D01*
X79339954Y-102578098D01*
X79339957Y-102578102D01*
X81319955Y-104558099D01*
X81441901Y-104680045D01*
X81441902Y-104680046D01*
X81585288Y-104775854D01*
X81585301Y-104775861D01*
X81744621Y-104841853D01*
X81744626Y-104841855D01*
X81913766Y-104875499D01*
X81913769Y-104875500D01*
X81913771Y-104875500D01*
X94585994Y-104875500D01*
X94653033Y-104895185D01*
X94673675Y-104911819D01*
X99088181Y-109326325D01*
X99121666Y-109387648D01*
X99124500Y-109414006D01*
X99124500Y-117356233D01*
X99158143Y-117525366D01*
X99158146Y-117525378D01*
X99224138Y-117684698D01*
X99224145Y-117684711D01*
X99319954Y-117828098D01*
X99319957Y-117828102D01*
X101404675Y-119912819D01*
X101438160Y-119974142D01*
X101433176Y-120043834D01*
X101391304Y-120099767D01*
X101325840Y-120124184D01*
X101316994Y-120124500D01*
X96913768Y-120124500D01*
X96744633Y-120158143D01*
X96744621Y-120158146D01*
X96585301Y-120224138D01*
X96585288Y-120224145D01*
X96441901Y-120319954D01*
X96441897Y-120319957D01*
X95537718Y-121224138D01*
X95251901Y-121509955D01*
X95193022Y-121568834D01*
X95129953Y-121631902D01*
X95034145Y-121775288D01*
X95034140Y-121775298D01*
X94976961Y-121913341D01*
X94935290Y-121966203D01*
X94930209Y-121969894D01*
X94779889Y-122120215D01*
X94654949Y-122292182D01*
X94650484Y-122300946D01*
X94602509Y-122351742D01*
X94534688Y-122368536D01*
X94468553Y-122345998D01*
X94429516Y-122300946D01*
X94425050Y-122292182D01*
X94300109Y-122120213D01*
X94149786Y-121969890D01*
X93977820Y-121844951D01*
X93788414Y-121748444D01*
X93788413Y-121748443D01*
X93788412Y-121748443D01*
X93586243Y-121682754D01*
X93586241Y-121682753D01*
X93586240Y-121682753D01*
X93424957Y-121657208D01*
X93376287Y-121649500D01*
X93163713Y-121649500D01*
X93135006Y-121654046D01*
X92953757Y-121682753D01*
X92911473Y-121696492D01*
X92841632Y-121698486D01*
X92785476Y-121666241D01*
X89757590Y-118638355D01*
X89757588Y-118638352D01*
X89638717Y-118519481D01*
X89638716Y-118519480D01*
X89531948Y-118457838D01*
X89531947Y-118457837D01*
X89501783Y-118440422D01*
X89445881Y-118425443D01*
X89349057Y-118399499D01*
X89190943Y-118399499D01*
X89183347Y-118399499D01*
X89183331Y-118399500D01*
X80744500Y-118399500D01*
X80677461Y-118379815D01*
X80631706Y-118327011D01*
X80620500Y-118275500D01*
X80620500Y-115261730D01*
X80640185Y-115194691D01*
X80677866Y-115157808D01*
X80677752Y-115157651D01*
X80678823Y-115156872D01*
X80679715Y-115156000D01*
X80681690Y-115154789D01*
X80681689Y-115154789D01*
X80681694Y-115154787D01*
X80842464Y-115037981D01*
X80982981Y-114897464D01*
X81099787Y-114736694D01*
X81179515Y-114580218D01*
X81227490Y-114529423D01*
X81295311Y-114512628D01*
X81361446Y-114535165D01*
X81400484Y-114580218D01*
X81480213Y-114736694D01*
X81597019Y-114897464D01*
X81737536Y-115037981D01*
X81898306Y-115154787D01*
X81959500Y-115185967D01*
X82075367Y-115245005D01*
X82075370Y-115245006D01*
X82152631Y-115270109D01*
X82264364Y-115306413D01*
X82460639Y-115337500D01*
X82460640Y-115337500D01*
X82659360Y-115337500D01*
X82659361Y-115337500D01*
X82855636Y-115306413D01*
X83044632Y-115245005D01*
X83221694Y-115154787D01*
X83382464Y-115037981D01*
X83522981Y-114897464D01*
X83639787Y-114736694D01*
X83719515Y-114580218D01*
X83767490Y-114529423D01*
X83835311Y-114512628D01*
X83901446Y-114535165D01*
X83940484Y-114580218D01*
X84020213Y-114736694D01*
X84137019Y-114897464D01*
X84277536Y-115037981D01*
X84438306Y-115154787D01*
X84499500Y-115185967D01*
X84615367Y-115245005D01*
X84615370Y-115245006D01*
X84692631Y-115270109D01*
X84804364Y-115306413D01*
X85000639Y-115337500D01*
X85000640Y-115337500D01*
X85199360Y-115337500D01*
X85199361Y-115337500D01*
X85395636Y-115306413D01*
X85584632Y-115245005D01*
X85761694Y-115154787D01*
X85922464Y-115037981D01*
X86062981Y-114897464D01*
X86179787Y-114736694D01*
X86259515Y-114580218D01*
X86307490Y-114529423D01*
X86375311Y-114512628D01*
X86441446Y-114535165D01*
X86480484Y-114580218D01*
X86560213Y-114736694D01*
X86677019Y-114897464D01*
X86817536Y-115037981D01*
X86978306Y-115154787D01*
X87039500Y-115185967D01*
X87155367Y-115245005D01*
X87155370Y-115245006D01*
X87232631Y-115270109D01*
X87344364Y-115306413D01*
X87540639Y-115337500D01*
X87540640Y-115337500D01*
X87739360Y-115337500D01*
X87739361Y-115337500D01*
X87935636Y-115306413D01*
X88124632Y-115245005D01*
X88301694Y-115154787D01*
X88462464Y-115037981D01*
X88602981Y-114897464D01*
X88719787Y-114736694D01*
X88799515Y-114580218D01*
X88847490Y-114529423D01*
X88915311Y-114512628D01*
X88981446Y-114535165D01*
X89020484Y-114580218D01*
X89100213Y-114736694D01*
X89217019Y-114897464D01*
X89357536Y-115037981D01*
X89518306Y-115154787D01*
X89579500Y-115185967D01*
X89695367Y-115245005D01*
X89695370Y-115245006D01*
X89772631Y-115270109D01*
X89884364Y-115306413D01*
X90080639Y-115337500D01*
X90080640Y-115337500D01*
X90279360Y-115337500D01*
X90279361Y-115337500D01*
X90475636Y-115306413D01*
X90664632Y-115245005D01*
X90841694Y-115154787D01*
X91002464Y-115037981D01*
X91142981Y-114897464D01*
X91259787Y-114736694D01*
X91339515Y-114580218D01*
X91387490Y-114529423D01*
X91455311Y-114512628D01*
X91521446Y-114535165D01*
X91560484Y-114580218D01*
X91640213Y-114736694D01*
X91757019Y-114897464D01*
X91897536Y-115037981D01*
X92058306Y-115154787D01*
X92119500Y-115185967D01*
X92235367Y-115245005D01*
X92235370Y-115245006D01*
X92312631Y-115270109D01*
X92424364Y-115306413D01*
X92620639Y-115337500D01*
X92620640Y-115337500D01*
X92819360Y-115337500D01*
X92819361Y-115337500D01*
X93015636Y-115306413D01*
X93204632Y-115245005D01*
X93381694Y-115154787D01*
X93542464Y-115037981D01*
X93682981Y-114897464D01*
X93799787Y-114736694D01*
X93879515Y-114580218D01*
X93927490Y-114529423D01*
X93995311Y-114512628D01*
X94061446Y-114535165D01*
X94100484Y-114580218D01*
X94180213Y-114736694D01*
X94297019Y-114897464D01*
X94437536Y-115037981D01*
X94598306Y-115154787D01*
X94659500Y-115185967D01*
X94775367Y-115245005D01*
X94775370Y-115245006D01*
X94852631Y-115270109D01*
X94964364Y-115306413D01*
X95160639Y-115337500D01*
X95160640Y-115337500D01*
X95359360Y-115337500D01*
X95359361Y-115337500D01*
X95555636Y-115306413D01*
X95744632Y-115245005D01*
X95921694Y-115154787D01*
X96082464Y-115037981D01*
X96222981Y-114897464D01*
X96339787Y-114736694D01*
X96430005Y-114559632D01*
X96491413Y-114370636D01*
X96522500Y-114174361D01*
X96522500Y-113975639D01*
X96491413Y-113779364D01*
X96430632Y-113592297D01*
X96430006Y-113590370D01*
X96430005Y-113590367D01*
X96339786Y-113413305D01*
X96307173Y-113368417D01*
X96222981Y-113252536D01*
X96082464Y-113112019D01*
X95921694Y-112995213D01*
X95886289Y-112977173D01*
X95744632Y-112904994D01*
X95744629Y-112904993D01*
X95555637Y-112843587D01*
X95387842Y-112817011D01*
X95359361Y-112812500D01*
X95160639Y-112812500D01*
X95132158Y-112817011D01*
X94964362Y-112843587D01*
X94775370Y-112904993D01*
X94775367Y-112904994D01*
X94598305Y-112995213D01*
X94437533Y-113112021D01*
X94297021Y-113252533D01*
X94180213Y-113413305D01*
X94100485Y-113569780D01*
X94052510Y-113620576D01*
X93984689Y-113637371D01*
X93918554Y-113614833D01*
X93879515Y-113569780D01*
X93799786Y-113413305D01*
X93767173Y-113368417D01*
X93682981Y-113252536D01*
X93542464Y-113112019D01*
X93381694Y-112995213D01*
X93346289Y-112977173D01*
X93204632Y-112904994D01*
X93204629Y-112904993D01*
X93015637Y-112843587D01*
X92847842Y-112817011D01*
X92819361Y-112812500D01*
X92620639Y-112812500D01*
X92592158Y-112817011D01*
X92424362Y-112843587D01*
X92235370Y-112904993D01*
X92235367Y-112904994D01*
X92058305Y-112995213D01*
X91897533Y-113112021D01*
X91757021Y-113252533D01*
X91640213Y-113413305D01*
X91560485Y-113569780D01*
X91512510Y-113620576D01*
X91444689Y-113637371D01*
X91378554Y-113614833D01*
X91339515Y-113569780D01*
X91259786Y-113413305D01*
X91227173Y-113368417D01*
X91142981Y-113252536D01*
X91002464Y-113112019D01*
X90841694Y-112995213D01*
X90806289Y-112977173D01*
X90664632Y-112904994D01*
X90664629Y-112904993D01*
X90475637Y-112843587D01*
X90307842Y-112817011D01*
X90279361Y-112812500D01*
X90080639Y-112812500D01*
X90052158Y-112817011D01*
X89884362Y-112843587D01*
X89695370Y-112904993D01*
X89695367Y-112904994D01*
X89518305Y-112995213D01*
X89357533Y-113112021D01*
X89217021Y-113252533D01*
X89100213Y-113413305D01*
X89020485Y-113569780D01*
X88972510Y-113620576D01*
X88904689Y-113637371D01*
X88838554Y-113614833D01*
X88799515Y-113569780D01*
X88719786Y-113413305D01*
X88687173Y-113368417D01*
X88602981Y-113252536D01*
X88462464Y-113112019D01*
X88301694Y-112995213D01*
X88266289Y-112977173D01*
X88124632Y-112904994D01*
X88124629Y-112904993D01*
X87935637Y-112843587D01*
X87767842Y-112817011D01*
X87739361Y-112812500D01*
X87540639Y-112812500D01*
X87512158Y-112817011D01*
X87344362Y-112843587D01*
X87155370Y-112904993D01*
X87155367Y-112904994D01*
X86978305Y-112995213D01*
X86817533Y-113112021D01*
X86677021Y-113252533D01*
X86560213Y-113413305D01*
X86480485Y-113569780D01*
X86432510Y-113620576D01*
X86364689Y-113637371D01*
X86298554Y-113614833D01*
X86259515Y-113569780D01*
X86179786Y-113413305D01*
X86147173Y-113368417D01*
X86062981Y-113252536D01*
X85922464Y-113112019D01*
X85761694Y-112995213D01*
X85726289Y-112977173D01*
X85584632Y-112904994D01*
X85584629Y-112904993D01*
X85395637Y-112843587D01*
X85227842Y-112817011D01*
X85199361Y-112812500D01*
X85000639Y-112812500D01*
X84972158Y-112817011D01*
X84804362Y-112843587D01*
X84615370Y-112904993D01*
X84615367Y-112904994D01*
X84438305Y-112995213D01*
X84277533Y-113112021D01*
X84137021Y-113252533D01*
X84020213Y-113413305D01*
X83940485Y-113569780D01*
X83892510Y-113620576D01*
X83824689Y-113637371D01*
X83758554Y-113614833D01*
X83719515Y-113569780D01*
X83639786Y-113413305D01*
X83607173Y-113368417D01*
X83522981Y-113252536D01*
X83382464Y-113112019D01*
X83221694Y-112995213D01*
X83186289Y-112977173D01*
X83044632Y-112904994D01*
X83044629Y-112904993D01*
X82855637Y-112843587D01*
X82687842Y-112817011D01*
X82659361Y-112812500D01*
X82460639Y-112812500D01*
X82432158Y-112817011D01*
X82264362Y-112843587D01*
X82075370Y-112904993D01*
X82075367Y-112904994D01*
X81898305Y-112995213D01*
X81737533Y-113112021D01*
X81597021Y-113252533D01*
X81480213Y-113413305D01*
X81400485Y-113569780D01*
X81352510Y-113620576D01*
X81284689Y-113637371D01*
X81218554Y-113614833D01*
X81179515Y-113569780D01*
X81099786Y-113413305D01*
X81067173Y-113368417D01*
X80982981Y-113252536D01*
X80842464Y-113112019D01*
X80681694Y-112995213D01*
X80646289Y-112977173D01*
X80504632Y-112904994D01*
X80504629Y-112904993D01*
X80315637Y-112843587D01*
X80147842Y-112817011D01*
X80119361Y-112812500D01*
X79920639Y-112812500D01*
X79892158Y-112817011D01*
X79724362Y-112843587D01*
X79535370Y-112904993D01*
X79535367Y-112904994D01*
X79358305Y-112995213D01*
X79197533Y-113112021D01*
X79057021Y-113252533D01*
X78940213Y-113413305D01*
X78849994Y-113590367D01*
X78849993Y-113590370D01*
X78788587Y-113779362D01*
X78757500Y-113975639D01*
X78757500Y-114174360D01*
X78788587Y-114370637D01*
X78849993Y-114559629D01*
X78849994Y-114559632D01*
X78890995Y-114640099D01*
X78940213Y-114736694D01*
X79057019Y-114897464D01*
X79197536Y-115037981D01*
X79358305Y-115154786D01*
X79358309Y-115154789D01*
X79360285Y-115156000D01*
X79360878Y-115156656D01*
X79362248Y-115157651D01*
X79362039Y-115157938D01*
X79407163Y-115207810D01*
X79419500Y-115261730D01*
X79419500Y-118829973D01*
X79415275Y-118862066D01*
X79399499Y-118920943D01*
X79399499Y-119079054D01*
X79399498Y-119079054D01*
X79435900Y-119214905D01*
X79440423Y-119231785D01*
X79450639Y-119249480D01*
X79469358Y-119281900D01*
X79469359Y-119281904D01*
X79469360Y-119281904D01*
X79515190Y-119361286D01*
X79519479Y-119368714D01*
X79519481Y-119368717D01*
X79631284Y-119480520D01*
X79718095Y-119530639D01*
X79718097Y-119530641D01*
X79756151Y-119552611D01*
X79768215Y-119559577D01*
X79920943Y-119600501D01*
X79920946Y-119600501D01*
X80086653Y-119600501D01*
X80086669Y-119600500D01*
X88969903Y-119600500D01*
X89036942Y-119620185D01*
X89057584Y-119636819D01*
X90858584Y-121437819D01*
X90892069Y-121499142D01*
X90887085Y-121568834D01*
X90845213Y-121624767D01*
X90779749Y-121649184D01*
X90770903Y-121649500D01*
X90623713Y-121649500D01*
X90575042Y-121657208D01*
X90413760Y-121682753D01*
X90211585Y-121748444D01*
X90022179Y-121844951D01*
X89850213Y-121969890D01*
X89699890Y-122120213D01*
X89574949Y-122292182D01*
X89570484Y-122300946D01*
X89522509Y-122351742D01*
X89454688Y-122368536D01*
X89388553Y-122345998D01*
X89349516Y-122300946D01*
X89345050Y-122292182D01*
X89220109Y-122120213D01*
X89069786Y-121969890D01*
X88897820Y-121844951D01*
X88708414Y-121748444D01*
X88708413Y-121748443D01*
X88708412Y-121748443D01*
X88506243Y-121682754D01*
X88506241Y-121682753D01*
X88506240Y-121682753D01*
X88344957Y-121657208D01*
X88296287Y-121649500D01*
X88083713Y-121649500D01*
X88035042Y-121657208D01*
X87873760Y-121682753D01*
X87671585Y-121748444D01*
X87482179Y-121844951D01*
X87310215Y-121969889D01*
X87196673Y-122083431D01*
X87135350Y-122116915D01*
X87065658Y-122111931D01*
X87009725Y-122070059D01*
X86992810Y-122039082D01*
X86943797Y-121907671D01*
X86943793Y-121907664D01*
X86857547Y-121792455D01*
X86857544Y-121792452D01*
X86742335Y-121706206D01*
X86742328Y-121706202D01*
X86607482Y-121655908D01*
X86607483Y-121655908D01*
X86547883Y-121649501D01*
X86547881Y-121649500D01*
X86547873Y-121649500D01*
X86547864Y-121649500D01*
X84752129Y-121649500D01*
X84752123Y-121649501D01*
X84692516Y-121655908D01*
X84557671Y-121706202D01*
X84557664Y-121706206D01*
X84442455Y-121792452D01*
X84442452Y-121792455D01*
X84356206Y-121907664D01*
X84356202Y-121907671D01*
X84305908Y-122042517D01*
X84299501Y-122102116D01*
X84299500Y-122102135D01*
X84299500Y-123897870D01*
X84299501Y-123897876D01*
X84305908Y-123957483D01*
X84356202Y-124092328D01*
X84356206Y-124092335D01*
X84442452Y-124207544D01*
X84442455Y-124207547D01*
X84557664Y-124293793D01*
X84557671Y-124293797D01*
X84692517Y-124344091D01*
X84692516Y-124344091D01*
X84699444Y-124344835D01*
X84752127Y-124350500D01*
X86547872Y-124350499D01*
X86607483Y-124344091D01*
X86742331Y-124293796D01*
X86857546Y-124207546D01*
X86943796Y-124092331D01*
X86992810Y-123960916D01*
X87034681Y-123904984D01*
X87100145Y-123880566D01*
X87168418Y-123895417D01*
X87196673Y-123916569D01*
X87310213Y-124030109D01*
X87482179Y-124155048D01*
X87482181Y-124155049D01*
X87482184Y-124155051D01*
X87671588Y-124251557D01*
X87873757Y-124317246D01*
X88083713Y-124350500D01*
X88083714Y-124350500D01*
X88296286Y-124350500D01*
X88296287Y-124350500D01*
X88506243Y-124317246D01*
X88708412Y-124251557D01*
X88897816Y-124155051D01*
X88984138Y-124092335D01*
X89069786Y-124030109D01*
X89069788Y-124030106D01*
X89069792Y-124030104D01*
X89220104Y-123879792D01*
X89220106Y-123879788D01*
X89220109Y-123879786D01*
X89345048Y-123707820D01*
X89345047Y-123707820D01*
X89345051Y-123707816D01*
X89349514Y-123699054D01*
X89397488Y-123648259D01*
X89465308Y-123631463D01*
X89531444Y-123653999D01*
X89570486Y-123699056D01*
X89574951Y-123707820D01*
X89699890Y-123879786D01*
X89850213Y-124030109D01*
X90022179Y-124155048D01*
X90022181Y-124155049D01*
X90022184Y-124155051D01*
X90211588Y-124251557D01*
X90413757Y-124317246D01*
X90623713Y-124350500D01*
X90623714Y-124350500D01*
X90836286Y-124350500D01*
X90836287Y-124350500D01*
X91046243Y-124317246D01*
X91248412Y-124251557D01*
X91437816Y-124155051D01*
X91524138Y-124092335D01*
X91609786Y-124030109D01*
X91609788Y-124030106D01*
X91609792Y-124030104D01*
X91760104Y-123879792D01*
X91760106Y-123879788D01*
X91760109Y-123879786D01*
X91885048Y-123707820D01*
X91885047Y-123707820D01*
X91885051Y-123707816D01*
X91889514Y-123699054D01*
X91937488Y-123648259D01*
X92005308Y-123631463D01*
X92071444Y-123653999D01*
X92110486Y-123699056D01*
X92114951Y-123707820D01*
X92239890Y-123879786D01*
X92390213Y-124030109D01*
X92562179Y-124155048D01*
X92562181Y-124155049D01*
X92562184Y-124155051D01*
X92751588Y-124251557D01*
X92953757Y-124317246D01*
X93163713Y-124350500D01*
X93163714Y-124350500D01*
X93376286Y-124350500D01*
X93376287Y-124350500D01*
X93586243Y-124317246D01*
X93788412Y-124251557D01*
X93977816Y-124155051D01*
X94064138Y-124092335D01*
X94149786Y-124030109D01*
X94149788Y-124030106D01*
X94149792Y-124030104D01*
X94300104Y-123879792D01*
X94300106Y-123879788D01*
X94300109Y-123879786D01*
X94425048Y-123707820D01*
X94425047Y-123707820D01*
X94425051Y-123707816D01*
X94429514Y-123699054D01*
X94477488Y-123648259D01*
X94545308Y-123631463D01*
X94611444Y-123653999D01*
X94650486Y-123699056D01*
X94654951Y-123707820D01*
X94779890Y-123879786D01*
X94930213Y-124030109D01*
X95102179Y-124155048D01*
X95102181Y-124155049D01*
X95102184Y-124155051D01*
X95291588Y-124251557D01*
X95493757Y-124317246D01*
X95703713Y-124350500D01*
X95703714Y-124350500D01*
X95916286Y-124350500D01*
X95916287Y-124350500D01*
X96126243Y-124317246D01*
X96328412Y-124251557D01*
X96517816Y-124155051D01*
X96604138Y-124092335D01*
X96689786Y-124030109D01*
X96689788Y-124030106D01*
X96689792Y-124030104D01*
X96840104Y-123879792D01*
X96840106Y-123879788D01*
X96840109Y-123879786D01*
X96925890Y-123761717D01*
X96965051Y-123707816D01*
X96969793Y-123698508D01*
X97017763Y-123647711D01*
X97085583Y-123630911D01*
X97151719Y-123653445D01*
X97190763Y-123698500D01*
X97195373Y-123707547D01*
X97234728Y-123761716D01*
X97867037Y-123129408D01*
X97884075Y-123192993D01*
X97949901Y-123307007D01*
X98042993Y-123400099D01*
X98157007Y-123465925D01*
X98220590Y-123482962D01*
X97588282Y-124115269D01*
X97588282Y-124115270D01*
X97642449Y-124154624D01*
X97831782Y-124251095D01*
X98033870Y-124316757D01*
X98243754Y-124350000D01*
X98456246Y-124350000D01*
X98666127Y-124316757D01*
X98666130Y-124316757D01*
X98868217Y-124251095D01*
X99057554Y-124154622D01*
X99111716Y-124115270D01*
X99111717Y-124115270D01*
X98479408Y-123482962D01*
X98542993Y-123465925D01*
X98657007Y-123400099D01*
X98750099Y-123307007D01*
X98815925Y-123192993D01*
X98832962Y-123129408D01*
X99465270Y-123761717D01*
X99465270Y-123761716D01*
X99504622Y-123707554D01*
X99601095Y-123518217D01*
X99666757Y-123316130D01*
X99666757Y-123316127D01*
X99700000Y-123106246D01*
X99700000Y-122893753D01*
X99666757Y-122683872D01*
X99666757Y-122683869D01*
X99601095Y-122481782D01*
X99504624Y-122292449D01*
X99465270Y-122238282D01*
X99465269Y-122238282D01*
X98832962Y-122870590D01*
X98815925Y-122807007D01*
X98750099Y-122692993D01*
X98657007Y-122599901D01*
X98542993Y-122534075D01*
X98479408Y-122517037D01*
X99084627Y-121911819D01*
X99145950Y-121878334D01*
X99172308Y-121875500D01*
X103305500Y-121875500D01*
X103372539Y-121895185D01*
X103418294Y-121947989D01*
X103429500Y-121999500D01*
X103429500Y-122600001D01*
X103429501Y-122600019D01*
X103440000Y-122702796D01*
X103440001Y-122702799D01*
X103495185Y-122869331D01*
X103495187Y-122869336D01*
X103506501Y-122887679D01*
X103575780Y-122999999D01*
X103587289Y-123018657D01*
X103656510Y-123087878D01*
X103689995Y-123149201D01*
X103685011Y-123218893D01*
X103669148Y-123248444D01*
X103618139Y-123318651D01*
X103525244Y-123500968D01*
X103462009Y-123695582D01*
X103430000Y-123897682D01*
X103430000Y-124102317D01*
X103462009Y-124304417D01*
X103525244Y-124499031D01*
X103618141Y-124681350D01*
X103618147Y-124681359D01*
X103650523Y-124725921D01*
X103650524Y-124725922D01*
X104330000Y-124046446D01*
X104330000Y-124052661D01*
X104357259Y-124154394D01*
X104409920Y-124245606D01*
X104484394Y-124320080D01*
X104575606Y-124372741D01*
X104677339Y-124400000D01*
X104683553Y-124400000D01*
X104004076Y-125079474D01*
X104048650Y-125111859D01*
X104230968Y-125204755D01*
X104425582Y-125267990D01*
X104627683Y-125300000D01*
X104832317Y-125300000D01*
X105034417Y-125267990D01*
X105229031Y-125204755D01*
X105411349Y-125111859D01*
X105455921Y-125079474D01*
X104776447Y-124400000D01*
X104782661Y-124400000D01*
X104884394Y-124372741D01*
X104975606Y-124320080D01*
X105050080Y-124245606D01*
X105102741Y-124154394D01*
X105130000Y-124052661D01*
X105130000Y-124046447D01*
X105809474Y-124725921D01*
X105841859Y-124681349D01*
X105934755Y-124499031D01*
X105997990Y-124304417D01*
X106030000Y-124102317D01*
X106030000Y-123897682D01*
X105997990Y-123695582D01*
X105934755Y-123500968D01*
X105841857Y-123318646D01*
X105790853Y-123248446D01*
X105781740Y-123222907D01*
X105769362Y-123198774D01*
X105770170Y-123190484D01*
X105767372Y-123182640D01*
X105773513Y-123156227D01*
X105776148Y-123129235D01*
X105781766Y-123120735D01*
X105783197Y-123114586D01*
X105793859Y-123098706D01*
X105798355Y-123093012D01*
X105872712Y-123018656D01*
X105928451Y-122928287D01*
X105932907Y-122922646D01*
X105955779Y-122906430D01*
X105976627Y-122887679D01*
X105984869Y-122885805D01*
X105989905Y-122882236D01*
X106003253Y-122881627D01*
X106030218Y-122875500D01*
X107000500Y-122875500D01*
X107067539Y-122895185D01*
X107113294Y-122947989D01*
X107124500Y-122999500D01*
X107124500Y-123474546D01*
X107115061Y-123521998D01*
X107037950Y-123708160D01*
X107037947Y-123708170D01*
X106999500Y-123901456D01*
X106999500Y-123901459D01*
X106999500Y-124098541D01*
X106999500Y-124098543D01*
X106999499Y-124098543D01*
X107037947Y-124291829D01*
X107037950Y-124291839D01*
X107113364Y-124473907D01*
X107113371Y-124473920D01*
X107222860Y-124637781D01*
X107222863Y-124637785D01*
X107362214Y-124777136D01*
X107362218Y-124777139D01*
X107526079Y-124886628D01*
X107526092Y-124886635D01*
X107708160Y-124962049D01*
X107708165Y-124962051D01*
X107708169Y-124962051D01*
X107708170Y-124962052D01*
X107901456Y-125000500D01*
X107901459Y-125000500D01*
X108098543Y-125000500D01*
X108253351Y-124969706D01*
X108291835Y-124962051D01*
X108473914Y-124886632D01*
X108637782Y-124777139D01*
X108777139Y-124637782D01*
X108886632Y-124473914D01*
X108962051Y-124291835D01*
X108978818Y-124207544D01*
X109000500Y-124098543D01*
X109000500Y-123901456D01*
X108962052Y-123708170D01*
X108962051Y-123708169D01*
X108962051Y-123708165D01*
X108961907Y-123707817D01*
X108884939Y-123521998D01*
X108875500Y-123474546D01*
X108875500Y-122999500D01*
X108895185Y-122932461D01*
X108947989Y-122886706D01*
X108999500Y-122875500D01*
X116715500Y-122875500D01*
X116782539Y-122895185D01*
X116828294Y-122947989D01*
X116839500Y-122999500D01*
X116839500Y-123897870D01*
X116839501Y-123897876D01*
X116845908Y-123957483D01*
X116896202Y-124092328D01*
X116896206Y-124092335D01*
X116982452Y-124207544D01*
X116982455Y-124207547D01*
X117097664Y-124293793D01*
X117097671Y-124293797D01*
X117232517Y-124344091D01*
X117232516Y-124344091D01*
X117239444Y-124344835D01*
X117292127Y-124350500D01*
X119087872Y-124350499D01*
X119147483Y-124344091D01*
X119282331Y-124293796D01*
X119397546Y-124207546D01*
X119483796Y-124092331D01*
X119534091Y-123957483D01*
X119540500Y-123897873D01*
X119540499Y-123873979D01*
X119543330Y-123860963D01*
X119553940Y-123841525D01*
X119560179Y-123820275D01*
X119576803Y-123799643D01*
X119576808Y-123799636D01*
X119576811Y-123799634D01*
X119576818Y-123799626D01*
X120247037Y-123129408D01*
X120264075Y-123192993D01*
X120329901Y-123307007D01*
X120422993Y-123400099D01*
X120537007Y-123465925D01*
X120600590Y-123482962D01*
X119968282Y-124115269D01*
X119968282Y-124115270D01*
X120022449Y-124154624D01*
X120211782Y-124251095D01*
X120413870Y-124316757D01*
X120623754Y-124350000D01*
X120836246Y-124350000D01*
X121046127Y-124316757D01*
X121046130Y-124316757D01*
X121248217Y-124251095D01*
X121437554Y-124154622D01*
X121491716Y-124115270D01*
X121491717Y-124115270D01*
X120859408Y-123482962D01*
X120922993Y-123465925D01*
X121037007Y-123400099D01*
X121130099Y-123307007D01*
X121195925Y-123192993D01*
X121212962Y-123129408D01*
X121845270Y-123761717D01*
X121845270Y-123761716D01*
X121884622Y-123707555D01*
X121889232Y-123698507D01*
X121937205Y-123647709D01*
X122005025Y-123630912D01*
X122071161Y-123653447D01*
X122110204Y-123698504D01*
X122114949Y-123707817D01*
X122239890Y-123879786D01*
X122390213Y-124030109D01*
X122562179Y-124155048D01*
X122562181Y-124155049D01*
X122562184Y-124155051D01*
X122751588Y-124251557D01*
X122953757Y-124317246D01*
X123163713Y-124350500D01*
X123163714Y-124350500D01*
X123376286Y-124350500D01*
X123376287Y-124350500D01*
X123586243Y-124317246D01*
X123788412Y-124251557D01*
X123977816Y-124155051D01*
X124064138Y-124092335D01*
X124149786Y-124030109D01*
X124149788Y-124030106D01*
X124149792Y-124030104D01*
X124300104Y-123879792D01*
X124300106Y-123879788D01*
X124300109Y-123879786D01*
X124425048Y-123707820D01*
X124425047Y-123707820D01*
X124425051Y-123707816D01*
X124429514Y-123699054D01*
X124477488Y-123648259D01*
X124545308Y-123631463D01*
X124611444Y-123653999D01*
X124650486Y-123699056D01*
X124654951Y-123707820D01*
X124779890Y-123879786D01*
X124930213Y-124030109D01*
X125102179Y-124155048D01*
X125102181Y-124155049D01*
X125102184Y-124155051D01*
X125291588Y-124251557D01*
X125493757Y-124317246D01*
X125703713Y-124350500D01*
X125703714Y-124350500D01*
X125916286Y-124350500D01*
X125916287Y-124350500D01*
X126126243Y-124317246D01*
X126328412Y-124251557D01*
X126517816Y-124155051D01*
X126604138Y-124092335D01*
X126689786Y-124030109D01*
X126689788Y-124030106D01*
X126689792Y-124030104D01*
X126840104Y-123879792D01*
X126840106Y-123879788D01*
X126840109Y-123879786D01*
X126965048Y-123707820D01*
X126965047Y-123707820D01*
X126965051Y-123707816D01*
X127061557Y-123518412D01*
X127127246Y-123316243D01*
X127160500Y-123106287D01*
X127160500Y-122893713D01*
X127127246Y-122683757D01*
X127061557Y-122481588D01*
X126965051Y-122292184D01*
X126925889Y-122238282D01*
X126877511Y-122171694D01*
X126877508Y-122171691D01*
X126853792Y-122139049D01*
X126840104Y-122120208D01*
X126689792Y-121969896D01*
X126689786Y-121969890D01*
X126517817Y-121844949D01*
X126476999Y-121824151D01*
X126426204Y-121776177D01*
X126413346Y-121738593D01*
X126412603Y-121738793D01*
X126407560Y-121719973D01*
X126388678Y-121649501D01*
X126369577Y-121578215D01*
X126330167Y-121509955D01*
X126290520Y-121441284D01*
X126178716Y-121329480D01*
X126178715Y-121329479D01*
X126174385Y-121325149D01*
X126174374Y-121325139D01*
X123487590Y-118638355D01*
X123487588Y-118638352D01*
X123368717Y-118519481D01*
X123368716Y-118519480D01*
X123261948Y-118457838D01*
X123261947Y-118457837D01*
X123231783Y-118440422D01*
X123175881Y-118425443D01*
X123079057Y-118399499D01*
X122920943Y-118399499D01*
X122913347Y-118399499D01*
X122913331Y-118399500D01*
X111300097Y-118399500D01*
X111233058Y-118379815D01*
X111212416Y-118363181D01*
X108348433Y-115499198D01*
X108314948Y-115437875D01*
X108319932Y-115368183D01*
X108361804Y-115312250D01*
X108363193Y-115311225D01*
X108419792Y-115270104D01*
X108570104Y-115119792D01*
X108570106Y-115119788D01*
X108570109Y-115119786D01*
X108695048Y-114947820D01*
X108695047Y-114947820D01*
X108695051Y-114947816D01*
X108699514Y-114939054D01*
X108747488Y-114888259D01*
X108815308Y-114871463D01*
X108881444Y-114893999D01*
X108920486Y-114939056D01*
X108924951Y-114947820D01*
X109049890Y-115119786D01*
X109200213Y-115270109D01*
X109372179Y-115395048D01*
X109372181Y-115395049D01*
X109372184Y-115395051D01*
X109561588Y-115491557D01*
X109763757Y-115557246D01*
X109973713Y-115590500D01*
X109973714Y-115590500D01*
X110186286Y-115590500D01*
X110186287Y-115590500D01*
X110396243Y-115557246D01*
X110598412Y-115491557D01*
X110787816Y-115395051D01*
X110867029Y-115337500D01*
X110959786Y-115270109D01*
X110959788Y-115270106D01*
X110959792Y-115270104D01*
X111110104Y-115119792D01*
X111110106Y-115119788D01*
X111110109Y-115119786D01*
X111235048Y-114947820D01*
X111235047Y-114947820D01*
X111235051Y-114947816D01*
X111239514Y-114939054D01*
X111287488Y-114888259D01*
X111355308Y-114871463D01*
X111421444Y-114893999D01*
X111460486Y-114939056D01*
X111464951Y-114947820D01*
X111589890Y-115119786D01*
X111740213Y-115270109D01*
X111912179Y-115395048D01*
X111912181Y-115395049D01*
X111912184Y-115395051D01*
X112101588Y-115491557D01*
X112303757Y-115557246D01*
X112513713Y-115590500D01*
X112513714Y-115590500D01*
X112726286Y-115590500D01*
X112726287Y-115590500D01*
X112936243Y-115557246D01*
X113138412Y-115491557D01*
X113327816Y-115395051D01*
X113407029Y-115337500D01*
X113499786Y-115270109D01*
X113499788Y-115270106D01*
X113499792Y-115270104D01*
X113650104Y-115119792D01*
X113650106Y-115119788D01*
X113650109Y-115119786D01*
X113775048Y-114947820D01*
X113775047Y-114947820D01*
X113775051Y-114947816D01*
X113779514Y-114939054D01*
X113827488Y-114888259D01*
X113895308Y-114871463D01*
X113961444Y-114893999D01*
X114000486Y-114939056D01*
X114004951Y-114947820D01*
X114129890Y-115119786D01*
X114280213Y-115270109D01*
X114452179Y-115395048D01*
X114452181Y-115395049D01*
X114452184Y-115395051D01*
X114641588Y-115491557D01*
X114843757Y-115557246D01*
X115053713Y-115590500D01*
X115053714Y-115590500D01*
X115266286Y-115590500D01*
X115266287Y-115590500D01*
X115476243Y-115557246D01*
X115678412Y-115491557D01*
X115867816Y-115395051D01*
X115947029Y-115337500D01*
X116039786Y-115270109D01*
X116039788Y-115270106D01*
X116039792Y-115270104D01*
X116190104Y-115119792D01*
X116190106Y-115119788D01*
X116190109Y-115119786D01*
X116315048Y-114947820D01*
X116315047Y-114947820D01*
X116315051Y-114947816D01*
X116319514Y-114939054D01*
X116367488Y-114888259D01*
X116435308Y-114871463D01*
X116501444Y-114893999D01*
X116540486Y-114939056D01*
X116544951Y-114947820D01*
X116669890Y-115119786D01*
X116820213Y-115270109D01*
X116992179Y-115395048D01*
X116992181Y-115395049D01*
X116992184Y-115395051D01*
X117181588Y-115491557D01*
X117383757Y-115557246D01*
X117593713Y-115590500D01*
X117593714Y-115590500D01*
X117806286Y-115590500D01*
X117806287Y-115590500D01*
X118016243Y-115557246D01*
X118218412Y-115491557D01*
X118407816Y-115395051D01*
X118487029Y-115337500D01*
X118579786Y-115270109D01*
X118579788Y-115270106D01*
X118579792Y-115270104D01*
X118730104Y-115119792D01*
X118730106Y-115119788D01*
X118730109Y-115119786D01*
X118855048Y-114947820D01*
X118855047Y-114947820D01*
X118855051Y-114947816D01*
X118859514Y-114939054D01*
X118907488Y-114888259D01*
X118975308Y-114871463D01*
X119041444Y-114893999D01*
X119080486Y-114939056D01*
X119084951Y-114947820D01*
X119209890Y-115119786D01*
X119360213Y-115270109D01*
X119532179Y-115395048D01*
X119532181Y-115395049D01*
X119532184Y-115395051D01*
X119721588Y-115491557D01*
X119923757Y-115557246D01*
X120133713Y-115590500D01*
X120133714Y-115590500D01*
X120346286Y-115590500D01*
X120346287Y-115590500D01*
X120556243Y-115557246D01*
X120758412Y-115491557D01*
X120947816Y-115395051D01*
X121027029Y-115337500D01*
X121119786Y-115270109D01*
X121119788Y-115270106D01*
X121119792Y-115270104D01*
X121270104Y-115119792D01*
X121270106Y-115119788D01*
X121270109Y-115119786D01*
X121395048Y-114947820D01*
X121395047Y-114947820D01*
X121395051Y-114947816D01*
X121399514Y-114939054D01*
X121447488Y-114888259D01*
X121515308Y-114871463D01*
X121581444Y-114893999D01*
X121620486Y-114939056D01*
X121624951Y-114947820D01*
X121749890Y-115119786D01*
X121900213Y-115270109D01*
X122072179Y-115395048D01*
X122072181Y-115395049D01*
X122072184Y-115395051D01*
X122261588Y-115491557D01*
X122463757Y-115557246D01*
X122673713Y-115590500D01*
X122673714Y-115590500D01*
X122886286Y-115590500D01*
X122886287Y-115590500D01*
X123096243Y-115557246D01*
X123298412Y-115491557D01*
X123487816Y-115395051D01*
X123567029Y-115337500D01*
X123659786Y-115270109D01*
X123659788Y-115270106D01*
X123659792Y-115270104D01*
X123810104Y-115119792D01*
X123810106Y-115119788D01*
X123810109Y-115119786D01*
X123935048Y-114947820D01*
X123935047Y-114947820D01*
X123935051Y-114947816D01*
X123939514Y-114939054D01*
X123987488Y-114888259D01*
X124055308Y-114871463D01*
X124121444Y-114893999D01*
X124160486Y-114939056D01*
X124164951Y-114947820D01*
X124289890Y-115119786D01*
X124289896Y-115119792D01*
X124440208Y-115270104D01*
X124612184Y-115395051D01*
X124686034Y-115432678D01*
X124707458Y-115452912D01*
X124730645Y-115471095D01*
X124733809Y-115477799D01*
X124736828Y-115480650D01*
X124746862Y-115502443D01*
X124748343Y-115506705D01*
X124760423Y-115551785D01*
X124763576Y-115557246D01*
X124769453Y-115567425D01*
X124769454Y-115567428D01*
X124839477Y-115688712D01*
X124839481Y-115688717D01*
X124958349Y-115807585D01*
X124958355Y-115807590D01*
X127515139Y-118364374D01*
X127515149Y-118364385D01*
X127519479Y-118368715D01*
X127519480Y-118368716D01*
X127631284Y-118480520D01*
X127631286Y-118480521D01*
X127631290Y-118480524D01*
X127699950Y-118520164D01*
X127768216Y-118559577D01*
X127880019Y-118589534D01*
X127920942Y-118600500D01*
X127920943Y-118600500D01*
X135699903Y-118600500D01*
X135766942Y-118620185D01*
X135787584Y-118636819D01*
X137093181Y-119942416D01*
X137126666Y-120003739D01*
X137129500Y-120030097D01*
X137129500Y-121714281D01*
X137109815Y-121781320D01*
X137061795Y-121824765D01*
X137022185Y-121844947D01*
X137022184Y-121844948D01*
X136850213Y-121969890D01*
X136699890Y-122120213D01*
X136574949Y-122292182D01*
X136570202Y-122301499D01*
X136522227Y-122352293D01*
X136454405Y-122369087D01*
X136388271Y-122346548D01*
X136349234Y-122301495D01*
X136344626Y-122292452D01*
X136305270Y-122238282D01*
X136305269Y-122238282D01*
X135672962Y-122870590D01*
X135655925Y-122807007D01*
X135590099Y-122692993D01*
X135497007Y-122599901D01*
X135382993Y-122534075D01*
X135319409Y-122517037D01*
X135951716Y-121884728D01*
X135897550Y-121845375D01*
X135708217Y-121748904D01*
X135506129Y-121683242D01*
X135296246Y-121650000D01*
X135083754Y-121650000D01*
X134873872Y-121683242D01*
X134873869Y-121683242D01*
X134671782Y-121748904D01*
X134482439Y-121845380D01*
X134428282Y-121884727D01*
X134428282Y-121884728D01*
X135060591Y-122517037D01*
X134997007Y-122534075D01*
X134882993Y-122599901D01*
X134789901Y-122692993D01*
X134724075Y-122807007D01*
X134707037Y-122870590D01*
X134036818Y-122200371D01*
X134003333Y-122139048D01*
X134003330Y-122139035D01*
X134000499Y-122126014D01*
X134000499Y-122102128D01*
X133994091Y-122042517D01*
X133965557Y-121966013D01*
X133943798Y-121907673D01*
X133943793Y-121907664D01*
X133857547Y-121792455D01*
X133857544Y-121792452D01*
X133742335Y-121706206D01*
X133742328Y-121706202D01*
X133607482Y-121655908D01*
X133607483Y-121655908D01*
X133547883Y-121649501D01*
X133547881Y-121649500D01*
X133547873Y-121649500D01*
X133547864Y-121649500D01*
X131752129Y-121649500D01*
X131752123Y-121649501D01*
X131692516Y-121655908D01*
X131557671Y-121706202D01*
X131557664Y-121706206D01*
X131442455Y-121792452D01*
X131442452Y-121792455D01*
X131356206Y-121907664D01*
X131356202Y-121907671D01*
X131305908Y-122042517D01*
X131299501Y-122102116D01*
X131299500Y-122102135D01*
X131299500Y-123897870D01*
X131299501Y-123897876D01*
X131305908Y-123957483D01*
X131356202Y-124092328D01*
X131356206Y-124092335D01*
X131442452Y-124207544D01*
X131442455Y-124207547D01*
X131557664Y-124293793D01*
X131557671Y-124293797D01*
X131692517Y-124344091D01*
X131692516Y-124344091D01*
X131699444Y-124344835D01*
X131752127Y-124350500D01*
X133547872Y-124350499D01*
X133607483Y-124344091D01*
X133742331Y-124293796D01*
X133857546Y-124207546D01*
X133943796Y-124092331D01*
X133994091Y-123957483D01*
X134000500Y-123897873D01*
X134000499Y-123873979D01*
X134003330Y-123860963D01*
X134013940Y-123841525D01*
X134020179Y-123820275D01*
X134036803Y-123799643D01*
X134036808Y-123799636D01*
X134036811Y-123799634D01*
X134036818Y-123799626D01*
X134707037Y-123129408D01*
X134724075Y-123192993D01*
X134789901Y-123307007D01*
X134882993Y-123400099D01*
X134997007Y-123465925D01*
X135060590Y-123482962D01*
X134428282Y-124115269D01*
X134428282Y-124115270D01*
X134482449Y-124154624D01*
X134671782Y-124251095D01*
X134873870Y-124316757D01*
X135083754Y-124350000D01*
X135296246Y-124350000D01*
X135506127Y-124316757D01*
X135506130Y-124316757D01*
X135708217Y-124251095D01*
X135897554Y-124154622D01*
X135951716Y-124115270D01*
X135951717Y-124115270D01*
X135319408Y-123482962D01*
X135382993Y-123465925D01*
X135497007Y-123400099D01*
X135590099Y-123307007D01*
X135655925Y-123192993D01*
X135672962Y-123129408D01*
X136305270Y-123761717D01*
X136305270Y-123761716D01*
X136344622Y-123707555D01*
X136349232Y-123698507D01*
X136397205Y-123647709D01*
X136465025Y-123630912D01*
X136531161Y-123653447D01*
X136570204Y-123698504D01*
X136574949Y-123707817D01*
X136699890Y-123879786D01*
X136850213Y-124030109D01*
X137022179Y-124155048D01*
X137022181Y-124155049D01*
X137022184Y-124155051D01*
X137211588Y-124251557D01*
X137413757Y-124317246D01*
X137623713Y-124350500D01*
X137623714Y-124350500D01*
X137836286Y-124350500D01*
X137836287Y-124350500D01*
X138046243Y-124317246D01*
X138248412Y-124251557D01*
X138437816Y-124155051D01*
X138524138Y-124092335D01*
X138609786Y-124030109D01*
X138609788Y-124030106D01*
X138609792Y-124030104D01*
X138760104Y-123879792D01*
X138760106Y-123879788D01*
X138760109Y-123879786D01*
X138885048Y-123707820D01*
X138885047Y-123707820D01*
X138885051Y-123707816D01*
X138889514Y-123699054D01*
X138937488Y-123648259D01*
X139005308Y-123631463D01*
X139071444Y-123653999D01*
X139110486Y-123699056D01*
X139114951Y-123707820D01*
X139239890Y-123879786D01*
X139390213Y-124030109D01*
X139562179Y-124155048D01*
X139562181Y-124155049D01*
X139562184Y-124155051D01*
X139751588Y-124251557D01*
X139953757Y-124317246D01*
X140163713Y-124350500D01*
X140163714Y-124350500D01*
X140376286Y-124350500D01*
X140376287Y-124350500D01*
X140586243Y-124317246D01*
X140788412Y-124251557D01*
X140977816Y-124155051D01*
X141064138Y-124092335D01*
X141149786Y-124030109D01*
X141149788Y-124030106D01*
X141149792Y-124030104D01*
X141300104Y-123879792D01*
X141300106Y-123879788D01*
X141300109Y-123879786D01*
X141425048Y-123707820D01*
X141425047Y-123707820D01*
X141425051Y-123707816D01*
X141429514Y-123699054D01*
X141477488Y-123648259D01*
X141545308Y-123631463D01*
X141611444Y-123653999D01*
X141650486Y-123699056D01*
X141654951Y-123707820D01*
X141779890Y-123879786D01*
X141930213Y-124030109D01*
X142102179Y-124155048D01*
X142102181Y-124155049D01*
X142102184Y-124155051D01*
X142291588Y-124251557D01*
X142493757Y-124317246D01*
X142703713Y-124350500D01*
X142703714Y-124350500D01*
X142916286Y-124350500D01*
X142916287Y-124350500D01*
X143126243Y-124317246D01*
X143328412Y-124251557D01*
X143517816Y-124155051D01*
X143604138Y-124092335D01*
X143689786Y-124030109D01*
X143689788Y-124030106D01*
X143689792Y-124030104D01*
X143840104Y-123879792D01*
X143840106Y-123879788D01*
X143840109Y-123879786D01*
X143965048Y-123707820D01*
X143965047Y-123707820D01*
X143965051Y-123707816D01*
X143969514Y-123699054D01*
X144017488Y-123648259D01*
X144085308Y-123631463D01*
X144151444Y-123653999D01*
X144190486Y-123699056D01*
X144194951Y-123707820D01*
X144319890Y-123879786D01*
X144470213Y-124030109D01*
X144642179Y-124155048D01*
X144642181Y-124155049D01*
X144642184Y-124155051D01*
X144831588Y-124251557D01*
X145033757Y-124317246D01*
X145243713Y-124350500D01*
X145243714Y-124350500D01*
X145456286Y-124350500D01*
X145456287Y-124350500D01*
X145666243Y-124317246D01*
X145868412Y-124251557D01*
X146057816Y-124155051D01*
X146144138Y-124092335D01*
X146229786Y-124030109D01*
X146229788Y-124030106D01*
X146229792Y-124030104D01*
X146380104Y-123879792D01*
X146380106Y-123879788D01*
X146380109Y-123879786D01*
X146505048Y-123707820D01*
X146505047Y-123707820D01*
X146505051Y-123707816D01*
X146601557Y-123518412D01*
X146667246Y-123316243D01*
X146700500Y-123106287D01*
X146700500Y-122893713D01*
X146667246Y-122683757D01*
X146601557Y-122481588D01*
X146505051Y-122292184D01*
X146505049Y-122292181D01*
X146505048Y-122292179D01*
X146380109Y-122120213D01*
X146229786Y-121969890D01*
X146057820Y-121844951D01*
X145868414Y-121748444D01*
X145868413Y-121748443D01*
X145868412Y-121748443D01*
X145666243Y-121682754D01*
X145666241Y-121682753D01*
X145666240Y-121682753D01*
X145504957Y-121657208D01*
X145456287Y-121649500D01*
X145243713Y-121649500D01*
X145195042Y-121657208D01*
X145033760Y-121682753D01*
X144831585Y-121748444D01*
X144642179Y-121844951D01*
X144470213Y-121969890D01*
X144319890Y-122120213D01*
X144194949Y-122292182D01*
X144190484Y-122300946D01*
X144142509Y-122351742D01*
X144074688Y-122368536D01*
X144008553Y-122345998D01*
X143969516Y-122300946D01*
X143965050Y-122292182D01*
X143840109Y-122120213D01*
X143689786Y-121969890D01*
X143517820Y-121844951D01*
X143328414Y-121748444D01*
X143328413Y-121748443D01*
X143328412Y-121748443D01*
X143126243Y-121682754D01*
X143126241Y-121682753D01*
X143126240Y-121682753D01*
X142964957Y-121657208D01*
X142916287Y-121649500D01*
X142703713Y-121649500D01*
X142655042Y-121657208D01*
X142493760Y-121682753D01*
X142291585Y-121748444D01*
X142102179Y-121844951D01*
X141930213Y-121969890D01*
X141779890Y-122120213D01*
X141654949Y-122292182D01*
X141650484Y-122300946D01*
X141602509Y-122351742D01*
X141534688Y-122368536D01*
X141468553Y-122345998D01*
X141429516Y-122300946D01*
X141425050Y-122292182D01*
X141300109Y-122120213D01*
X141149786Y-121969890D01*
X140977820Y-121844951D01*
X140788414Y-121748444D01*
X140788413Y-121748443D01*
X140788412Y-121748443D01*
X140586243Y-121682754D01*
X140586241Y-121682753D01*
X140586240Y-121682753D01*
X140424957Y-121657208D01*
X140376287Y-121649500D01*
X140163713Y-121649500D01*
X140115042Y-121657208D01*
X139953760Y-121682753D01*
X139751585Y-121748444D01*
X139562179Y-121844951D01*
X139390213Y-121969890D01*
X139239890Y-122120213D01*
X139114949Y-122292182D01*
X139110484Y-122300946D01*
X139062509Y-122351742D01*
X138994688Y-122368536D01*
X138928553Y-122345998D01*
X138889516Y-122300946D01*
X138885050Y-122292182D01*
X138760109Y-122120213D01*
X138609786Y-121969890D01*
X138437815Y-121844948D01*
X138437814Y-121844947D01*
X138398205Y-121824765D01*
X138347409Y-121776791D01*
X138330500Y-121714281D01*
X138330500Y-120043677D01*
X149309873Y-120043677D01*
X149309873Y-120043678D01*
X149344858Y-120069096D01*
X149520164Y-120158418D01*
X149707294Y-120219221D01*
X149901618Y-120250000D01*
X150098382Y-120250000D01*
X150292705Y-120219221D01*
X150479835Y-120158418D01*
X150655143Y-120069095D01*
X150690125Y-120043678D01*
X150690126Y-120043678D01*
X150000001Y-119353553D01*
X150000000Y-119353553D01*
X149309873Y-120043677D01*
X138330500Y-120043677D01*
X138330500Y-119650945D01*
X138330500Y-119650943D01*
X138289577Y-119498216D01*
X138278965Y-119479835D01*
X138210524Y-119361290D01*
X138210521Y-119361286D01*
X138210520Y-119361284D01*
X138098716Y-119249480D01*
X138098715Y-119249479D01*
X138094385Y-119245149D01*
X138094374Y-119245139D01*
X137750852Y-118901617D01*
X148750000Y-118901617D01*
X148750000Y-119098382D01*
X148780778Y-119292705D01*
X148841581Y-119479835D01*
X148930905Y-119655145D01*
X148956319Y-119690125D01*
X148956320Y-119690125D01*
X149646446Y-119000000D01*
X149646446Y-118999999D01*
X149600369Y-118953922D01*
X149650000Y-118953922D01*
X149650000Y-119046078D01*
X149673852Y-119135095D01*
X149719930Y-119214905D01*
X149785095Y-119280070D01*
X149864905Y-119326148D01*
X149953922Y-119350000D01*
X150046078Y-119350000D01*
X150135095Y-119326148D01*
X150214905Y-119280070D01*
X150280070Y-119214905D01*
X150326148Y-119135095D01*
X150350000Y-119046078D01*
X150350000Y-118999999D01*
X150353553Y-118999999D01*
X150353553Y-119000001D01*
X151043678Y-119690126D01*
X151043678Y-119690125D01*
X151069095Y-119655143D01*
X151158418Y-119479835D01*
X151219221Y-119292705D01*
X151250000Y-119098382D01*
X151250000Y-118901617D01*
X151219221Y-118707294D01*
X151158418Y-118520164D01*
X151069096Y-118344858D01*
X151043678Y-118309873D01*
X151043677Y-118309873D01*
X150353553Y-118999999D01*
X150350000Y-118999999D01*
X150350000Y-118953922D01*
X150326148Y-118864905D01*
X150280070Y-118785095D01*
X150214905Y-118719930D01*
X150135095Y-118673852D01*
X150046078Y-118650000D01*
X149953922Y-118650000D01*
X149864905Y-118673852D01*
X149785095Y-118719930D01*
X149719930Y-118785095D01*
X149673852Y-118864905D01*
X149650000Y-118953922D01*
X149600369Y-118953922D01*
X148956320Y-118309872D01*
X148956320Y-118309873D01*
X148930902Y-118344859D01*
X148930899Y-118344863D01*
X148841582Y-118520161D01*
X148780778Y-118707294D01*
X148750000Y-118901617D01*
X137750852Y-118901617D01*
X136661416Y-117812181D01*
X136627931Y-117750858D01*
X136632915Y-117681166D01*
X136674787Y-117625233D01*
X136740251Y-117600816D01*
X136749097Y-117600500D01*
X149479231Y-117600500D01*
X149546270Y-117620185D01*
X149592025Y-117672989D01*
X149601969Y-117742147D01*
X149572944Y-117805703D01*
X149524009Y-117838147D01*
X149524660Y-117839719D01*
X149520163Y-117841581D01*
X149344863Y-117930899D01*
X149344859Y-117930902D01*
X149309873Y-117956320D01*
X149309872Y-117956320D01*
X150000000Y-118646446D01*
X150000001Y-118646446D01*
X150690125Y-117956320D01*
X150690125Y-117956319D01*
X150655145Y-117930905D01*
X150479831Y-117841578D01*
X150475340Y-117839719D01*
X150476034Y-117838042D01*
X150424777Y-117802995D01*
X150397578Y-117738637D01*
X150409491Y-117669790D01*
X150456734Y-117618314D01*
X150520769Y-117600500D01*
X151429903Y-117600500D01*
X151496942Y-117620185D01*
X151517584Y-117636819D01*
X152713181Y-118832416D01*
X152746666Y-118893739D01*
X152749500Y-118920097D01*
X152749500Y-119098422D01*
X152780290Y-119292826D01*
X152841117Y-119480029D01*
X152928204Y-119650945D01*
X152930476Y-119655405D01*
X153046172Y-119814646D01*
X153185354Y-119953828D01*
X153344595Y-120069524D01*
X153403951Y-120099767D01*
X153519970Y-120158882D01*
X153519972Y-120158882D01*
X153519975Y-120158884D01*
X153620317Y-120191487D01*
X153707173Y-120219709D01*
X153901578Y-120250500D01*
X153901583Y-120250500D01*
X154098422Y-120250500D01*
X154292826Y-120219709D01*
X154294328Y-120219221D01*
X154480025Y-120158884D01*
X154655405Y-120069524D01*
X154814646Y-119953828D01*
X154953828Y-119814646D01*
X155069524Y-119655405D01*
X155158884Y-119480025D01*
X155219709Y-119292826D01*
X155221439Y-119281904D01*
X155250500Y-119098422D01*
X155250500Y-118901577D01*
X155225526Y-118743898D01*
X155234481Y-118674604D01*
X155279477Y-118621152D01*
X155346228Y-118600513D01*
X155347999Y-118600500D01*
X193079055Y-118600500D01*
X193079057Y-118600500D01*
X193231784Y-118559577D01*
X193368716Y-118480520D01*
X193480520Y-118368716D01*
X193559577Y-118231784D01*
X193600500Y-118079057D01*
X193600500Y-117920943D01*
X193559577Y-117768216D01*
X193559573Y-117768209D01*
X193480524Y-117631290D01*
X193480518Y-117631282D01*
X193368717Y-117519481D01*
X193368709Y-117519475D01*
X193231790Y-117440426D01*
X193231786Y-117440424D01*
X193231784Y-117440423D01*
X193079057Y-117399500D01*
X193079056Y-117399500D01*
X155086670Y-117399500D01*
X155086654Y-117399499D01*
X155079058Y-117399499D01*
X154920943Y-117399499D01*
X154844579Y-117419961D01*
X154768214Y-117440423D01*
X154768209Y-117440426D01*
X154631290Y-117519475D01*
X154631282Y-117519481D01*
X154404532Y-117746231D01*
X154343209Y-117779716D01*
X154297453Y-117781023D01*
X154098422Y-117749500D01*
X154098417Y-117749500D01*
X153901583Y-117749500D01*
X153901578Y-117749500D01*
X153707172Y-117780291D01*
X153707169Y-117780291D01*
X153517050Y-117842066D01*
X153447209Y-117844061D01*
X153391051Y-117811816D01*
X152217590Y-116638355D01*
X152217588Y-116638352D01*
X152098717Y-116519481D01*
X152098716Y-116519480D01*
X152011904Y-116469360D01*
X152011904Y-116469359D01*
X152011900Y-116469358D01*
X151961785Y-116440423D01*
X151809057Y-116399499D01*
X151650943Y-116399499D01*
X151643347Y-116399499D01*
X151643331Y-116399500D01*
X133724500Y-116399500D01*
X133657461Y-116379815D01*
X133611706Y-116327011D01*
X133600500Y-116275500D01*
X133600500Y-115492608D01*
X133620185Y-115425569D01*
X133651612Y-115392292D01*
X133819792Y-115270104D01*
X133970104Y-115119792D01*
X133970106Y-115119788D01*
X133970109Y-115119786D01*
X134055890Y-115001717D01*
X134095051Y-114947816D01*
X134099793Y-114938508D01*
X134147763Y-114887711D01*
X134215583Y-114870911D01*
X134281719Y-114893445D01*
X134320763Y-114938500D01*
X134325373Y-114947547D01*
X134364728Y-115001716D01*
X134997037Y-114369408D01*
X135014075Y-114432993D01*
X135079901Y-114547007D01*
X135172993Y-114640099D01*
X135287007Y-114705925D01*
X135350590Y-114722962D01*
X134718282Y-115355269D01*
X134718282Y-115355270D01*
X134772449Y-115394624D01*
X134961782Y-115491095D01*
X135163870Y-115556757D01*
X135373754Y-115590000D01*
X135586246Y-115590000D01*
X135796127Y-115556757D01*
X135796130Y-115556757D01*
X135998217Y-115491095D01*
X136187554Y-115394622D01*
X136241716Y-115355270D01*
X136241717Y-115355270D01*
X135609408Y-114722962D01*
X135672993Y-114705925D01*
X135787007Y-114640099D01*
X135880099Y-114547007D01*
X135945925Y-114432993D01*
X135962962Y-114369408D01*
X136595270Y-115001717D01*
X136595270Y-115001716D01*
X136634622Y-114947555D01*
X136639232Y-114938507D01*
X136687205Y-114887709D01*
X136755025Y-114870912D01*
X136821161Y-114893447D01*
X136860204Y-114938504D01*
X136864949Y-114947817D01*
X136989890Y-115119786D01*
X137140213Y-115270109D01*
X137312179Y-115395048D01*
X137312181Y-115395049D01*
X137312184Y-115395051D01*
X137501588Y-115491557D01*
X137703757Y-115557246D01*
X137913713Y-115590500D01*
X137913714Y-115590500D01*
X138126286Y-115590500D01*
X138126287Y-115590500D01*
X138336243Y-115557246D01*
X138538412Y-115491557D01*
X138727816Y-115395051D01*
X138807029Y-115337500D01*
X138899786Y-115270109D01*
X138899788Y-115270106D01*
X138899792Y-115270104D01*
X139050104Y-115119792D01*
X139050106Y-115119788D01*
X139050109Y-115119786D01*
X139175048Y-114947820D01*
X139175047Y-114947820D01*
X139175051Y-114947816D01*
X139271557Y-114758412D01*
X139337246Y-114556243D01*
X139370500Y-114346287D01*
X139370500Y-114133713D01*
X139337246Y-113923757D01*
X139271557Y-113721588D01*
X139175051Y-113532184D01*
X139175049Y-113532181D01*
X139175048Y-113532179D01*
X139050109Y-113360213D01*
X138899786Y-113209890D01*
X138847052Y-113171577D01*
X158479500Y-113171577D01*
X158479500Y-113368422D01*
X158510290Y-113562826D01*
X158571117Y-113750029D01*
X158659636Y-113923757D01*
X158660476Y-113925405D01*
X158776172Y-114084646D01*
X158915354Y-114223828D01*
X159074595Y-114339524D01*
X159135656Y-114370636D01*
X159249970Y-114428882D01*
X159249972Y-114428882D01*
X159249975Y-114428884D01*
X159350317Y-114461487D01*
X159437173Y-114489709D01*
X159631578Y-114520500D01*
X159631583Y-114520500D01*
X159828422Y-114520500D01*
X160022826Y-114489709D01*
X160210025Y-114428884D01*
X160385405Y-114339524D01*
X160544646Y-114223828D01*
X160683828Y-114084646D01*
X160799524Y-113925405D01*
X160888884Y-113750025D01*
X160949709Y-113562826D01*
X160953087Y-113541499D01*
X160980500Y-113368422D01*
X160980500Y-113171577D01*
X160949709Y-112977173D01*
X160906304Y-112843587D01*
X160888884Y-112789975D01*
X160888882Y-112789972D01*
X160888882Y-112789970D01*
X160799523Y-112614594D01*
X160683828Y-112455354D01*
X160544646Y-112316172D01*
X160385405Y-112200476D01*
X160210029Y-112111117D01*
X160022826Y-112050290D01*
X159828422Y-112019500D01*
X159828417Y-112019500D01*
X159631583Y-112019500D01*
X159631578Y-112019500D01*
X159437173Y-112050290D01*
X159249970Y-112111117D01*
X159074594Y-112200476D01*
X158915351Y-112316174D01*
X158776174Y-112455351D01*
X158776174Y-112455352D01*
X158776172Y-112455354D01*
X158728519Y-112520943D01*
X158660476Y-112614594D01*
X158571117Y-112789970D01*
X158510290Y-112977173D01*
X158479500Y-113171577D01*
X138847052Y-113171577D01*
X138727820Y-113084951D01*
X138538414Y-112988444D01*
X138538413Y-112988443D01*
X138538412Y-112988443D01*
X138336243Y-112922754D01*
X138336241Y-112922753D01*
X138336240Y-112922753D01*
X138174957Y-112897208D01*
X138126287Y-112889500D01*
X137913713Y-112889500D01*
X137865042Y-112897208D01*
X137703760Y-112922753D01*
X137501585Y-112988444D01*
X137312179Y-113084951D01*
X137140213Y-113209890D01*
X136989890Y-113360213D01*
X136864949Y-113532182D01*
X136860202Y-113541499D01*
X136812227Y-113592293D01*
X136744405Y-113609087D01*
X136678271Y-113586548D01*
X136639234Y-113541495D01*
X136634626Y-113532452D01*
X136595270Y-113478282D01*
X136595269Y-113478282D01*
X135962962Y-114110590D01*
X135945925Y-114047007D01*
X135880099Y-113932993D01*
X135787007Y-113839901D01*
X135672993Y-113774075D01*
X135609409Y-113757037D01*
X136241716Y-113124728D01*
X136187550Y-113085375D01*
X135998217Y-112988904D01*
X135796129Y-112923242D01*
X135586246Y-112890000D01*
X135373754Y-112890000D01*
X135163872Y-112923242D01*
X135163869Y-112923242D01*
X134961782Y-112988904D01*
X134772439Y-113085380D01*
X134718282Y-113124727D01*
X134718282Y-113124728D01*
X135350591Y-113757037D01*
X135287007Y-113774075D01*
X135172993Y-113839901D01*
X135079901Y-113932993D01*
X135014075Y-114047007D01*
X134997037Y-114110591D01*
X134364728Y-113478282D01*
X134364727Y-113478282D01*
X134325380Y-113532440D01*
X134325376Y-113532446D01*
X134320760Y-113541505D01*
X134272781Y-113592297D01*
X134204959Y-113609087D01*
X134138826Y-113586543D01*
X134099794Y-113541493D01*
X134095051Y-113532184D01*
X134095049Y-113532181D01*
X134095048Y-113532179D01*
X133970109Y-113360213D01*
X133819786Y-113209890D01*
X133647820Y-113084951D01*
X133458414Y-112988444D01*
X133458413Y-112988443D01*
X133458412Y-112988443D01*
X133256243Y-112922754D01*
X133256241Y-112922753D01*
X133256240Y-112922753D01*
X133094957Y-112897208D01*
X133046287Y-112889500D01*
X132833713Y-112889500D01*
X132785042Y-112897208D01*
X132623760Y-112922753D01*
X132421585Y-112988444D01*
X132232179Y-113084951D01*
X132060213Y-113209890D01*
X131909890Y-113360213D01*
X131784949Y-113532182D01*
X131780484Y-113540946D01*
X131732509Y-113591742D01*
X131664688Y-113608536D01*
X131598553Y-113585998D01*
X131559516Y-113540946D01*
X131555050Y-113532182D01*
X131430109Y-113360213D01*
X131279786Y-113209890D01*
X131107815Y-113084948D01*
X131107814Y-113084947D01*
X131068205Y-113064765D01*
X131057142Y-113054316D01*
X131043297Y-113047994D01*
X131032255Y-113030812D01*
X131017409Y-113016791D01*
X131013167Y-113001111D01*
X131005523Y-112989216D01*
X131000500Y-112954281D01*
X131000500Y-112900097D01*
X131020185Y-112833058D01*
X131036819Y-112812416D01*
X132212417Y-111636819D01*
X132273740Y-111603334D01*
X132300098Y-111600500D01*
X146913331Y-111600500D01*
X146913347Y-111600501D01*
X146920943Y-111600501D01*
X147079054Y-111600501D01*
X147079057Y-111600501D01*
X147231785Y-111559577D01*
X147281904Y-111530639D01*
X147368716Y-111480520D01*
X147480520Y-111368716D01*
X147480520Y-111368714D01*
X147490728Y-111358507D01*
X147490730Y-111358504D01*
X150987819Y-107861415D01*
X151049142Y-107827930D01*
X151118834Y-107832914D01*
X151174767Y-107874786D01*
X151199184Y-107940250D01*
X151199500Y-107949096D01*
X151199500Y-108078846D01*
X151230261Y-108233489D01*
X151230264Y-108233501D01*
X151290602Y-108379172D01*
X151290609Y-108379185D01*
X151378210Y-108510288D01*
X151378213Y-108510292D01*
X151489707Y-108621786D01*
X151489711Y-108621789D01*
X151620814Y-108709390D01*
X151620827Y-108709397D01*
X151705879Y-108744626D01*
X151766503Y-108769737D01*
X151921153Y-108800499D01*
X151921156Y-108800500D01*
X151921158Y-108800500D01*
X152078844Y-108800500D01*
X152078845Y-108800499D01*
X152233497Y-108769737D01*
X152379179Y-108709394D01*
X152463227Y-108653235D01*
X152510875Y-108621398D01*
X152577553Y-108600520D01*
X152579766Y-108600500D01*
X155913331Y-108600500D01*
X155913347Y-108600501D01*
X155920943Y-108600501D01*
X156079054Y-108600501D01*
X156079057Y-108600501D01*
X156231785Y-108559577D01*
X156281904Y-108530639D01*
X156368716Y-108480520D01*
X156480520Y-108368716D01*
X156480520Y-108368714D01*
X156490728Y-108358507D01*
X156490729Y-108358504D01*
X168014664Y-96834571D01*
X168075985Y-96801088D01*
X168078152Y-96800637D01*
X168078841Y-96800500D01*
X168078842Y-96800500D01*
X168233497Y-96769737D01*
X168379179Y-96709394D01*
X168510289Y-96621789D01*
X168621789Y-96510289D01*
X168709394Y-96379179D01*
X168769737Y-96233497D01*
X168800500Y-96078842D01*
X168800500Y-95921158D01*
X168800500Y-95921155D01*
X168800499Y-95921153D01*
X168786094Y-95848735D01*
X168769737Y-95766503D01*
X168763257Y-95750858D01*
X168709397Y-95620827D01*
X168709390Y-95620814D01*
X168621789Y-95489711D01*
X168621786Y-95489707D01*
X168510292Y-95378213D01*
X168510288Y-95378210D01*
X168379181Y-95290607D01*
X168379172Y-95290602D01*
X168233501Y-95230264D01*
X168233489Y-95230261D01*
X168078845Y-95199500D01*
X168078842Y-95199500D01*
X167949098Y-95199500D01*
X167882059Y-95179815D01*
X167836304Y-95127011D01*
X167826360Y-95057853D01*
X167855385Y-94994297D01*
X167861417Y-94987819D01*
X172212417Y-90636819D01*
X172273740Y-90603334D01*
X172300098Y-90600500D01*
X177913331Y-90600500D01*
X177913347Y-90600501D01*
X177920943Y-90600501D01*
X178079054Y-90600501D01*
X178079057Y-90600501D01*
X178231785Y-90559577D01*
X178281904Y-90530639D01*
X178368716Y-90480520D01*
X178480520Y-90368716D01*
X178480520Y-90368714D01*
X178490728Y-90358507D01*
X178490730Y-90358504D01*
X180088506Y-88760728D01*
X180088511Y-88760724D01*
X180098714Y-88750520D01*
X180098716Y-88750520D01*
X180210520Y-88638716D01*
X180289577Y-88501784D01*
X180319534Y-88389981D01*
X180330500Y-88349058D01*
X180330500Y-88190943D01*
X180330500Y-86285718D01*
X180350185Y-86218679D01*
X180398207Y-86175233D01*
X180437815Y-86155052D01*
X180437815Y-86155051D01*
X180437816Y-86155051D01*
X180544682Y-86077409D01*
X180609786Y-86030109D01*
X180609788Y-86030106D01*
X180609792Y-86030104D01*
X180760104Y-85879792D01*
X180760106Y-85879788D01*
X180760109Y-85879786D01*
X180885048Y-85707820D01*
X180885047Y-85707820D01*
X180885051Y-85707816D01*
X180889514Y-85699054D01*
X180937488Y-85648259D01*
X181005308Y-85631463D01*
X181071444Y-85653999D01*
X181110486Y-85699056D01*
X181114951Y-85707820D01*
X181239890Y-85879786D01*
X181390213Y-86030109D01*
X181562179Y-86155048D01*
X181562181Y-86155049D01*
X181562184Y-86155051D01*
X181751588Y-86251557D01*
X181953757Y-86317246D01*
X182163713Y-86350500D01*
X182163714Y-86350500D01*
X182376286Y-86350500D01*
X182376287Y-86350500D01*
X182586243Y-86317246D01*
X182788412Y-86251557D01*
X182977816Y-86155051D01*
X183064138Y-86092335D01*
X183149786Y-86030109D01*
X183149788Y-86030106D01*
X183149792Y-86030104D01*
X183300104Y-85879792D01*
X183300106Y-85879788D01*
X183300109Y-85879786D01*
X183375339Y-85776239D01*
X183425051Y-85707816D01*
X183429793Y-85698508D01*
X183477763Y-85647711D01*
X183545583Y-85630911D01*
X183611719Y-85653445D01*
X183650763Y-85698500D01*
X183655373Y-85707547D01*
X183694728Y-85761716D01*
X184327037Y-85129408D01*
X184344075Y-85192993D01*
X184409901Y-85307007D01*
X184502993Y-85400099D01*
X184617007Y-85465925D01*
X184680590Y-85482962D01*
X184048282Y-86115269D01*
X184048282Y-86115270D01*
X184102449Y-86154624D01*
X184291782Y-86251095D01*
X184493870Y-86316757D01*
X184703754Y-86350000D01*
X184916246Y-86350000D01*
X185126127Y-86316757D01*
X185126130Y-86316757D01*
X185328217Y-86251095D01*
X185517554Y-86154622D01*
X185571716Y-86115270D01*
X185571717Y-86115270D01*
X184939408Y-85482962D01*
X185002993Y-85465925D01*
X185117007Y-85400099D01*
X185210099Y-85307007D01*
X185275925Y-85192993D01*
X185292962Y-85129408D01*
X185963181Y-85799628D01*
X185996666Y-85860951D01*
X185999500Y-85887300D01*
X185999500Y-85897865D01*
X185999501Y-85897876D01*
X186005908Y-85957483D01*
X186056202Y-86092328D01*
X186056206Y-86092335D01*
X186142452Y-86207544D01*
X186142455Y-86207547D01*
X186257664Y-86293793D01*
X186257671Y-86293797D01*
X186392517Y-86344091D01*
X186392516Y-86344091D01*
X186399444Y-86344835D01*
X186452127Y-86350500D01*
X188247872Y-86350499D01*
X188307483Y-86344091D01*
X188442331Y-86293796D01*
X188557546Y-86207546D01*
X188643796Y-86092331D01*
X188694091Y-85957483D01*
X188700500Y-85897873D01*
X188700499Y-84102128D01*
X188694091Y-84042517D01*
X188689530Y-84030289D01*
X188643797Y-83907671D01*
X188643793Y-83907664D01*
X188557547Y-83792455D01*
X188557544Y-83792452D01*
X188442335Y-83706206D01*
X188442330Y-83706203D01*
X188306166Y-83655417D01*
X188250233Y-83613545D01*
X188225816Y-83548081D01*
X188225500Y-83539235D01*
X188225500Y-83263768D01*
X188225499Y-83263766D01*
X188191856Y-83094633D01*
X188191855Y-83094626D01*
X188125858Y-82935295D01*
X188125858Y-82935294D01*
X188088050Y-82878711D01*
X192149500Y-82878711D01*
X192149500Y-83121288D01*
X192181161Y-83361785D01*
X192243947Y-83596104D01*
X192336773Y-83820205D01*
X192336777Y-83820214D01*
X192351058Y-83844949D01*
X192458064Y-84030289D01*
X192458066Y-84030292D01*
X192458067Y-84030293D01*
X192605733Y-84222736D01*
X192605739Y-84222743D01*
X192777256Y-84394260D01*
X192777263Y-84394266D01*
X192823697Y-84429896D01*
X192969711Y-84541936D01*
X193179788Y-84663224D01*
X193403900Y-84756054D01*
X193638211Y-84818838D01*
X193797550Y-84839815D01*
X193878711Y-84850500D01*
X193878712Y-84850500D01*
X194121289Y-84850500D01*
X194181364Y-84842591D01*
X194361789Y-84818838D01*
X194596100Y-84756054D01*
X194820212Y-84663224D01*
X195030289Y-84541936D01*
X195222738Y-84394265D01*
X195394265Y-84222738D01*
X195541936Y-84030289D01*
X195663224Y-83820212D01*
X195756054Y-83596100D01*
X195818838Y-83361789D01*
X195850500Y-83121288D01*
X195850500Y-82878712D01*
X195818838Y-82638211D01*
X195756054Y-82403900D01*
X195663224Y-82179788D01*
X195541936Y-81969711D01*
X195394265Y-81777262D01*
X195394260Y-81777256D01*
X195222743Y-81605739D01*
X195222736Y-81605733D01*
X195030293Y-81458067D01*
X195030292Y-81458066D01*
X195030289Y-81458064D01*
X194820212Y-81336776D01*
X194820205Y-81336773D01*
X194596104Y-81243947D01*
X194361785Y-81181161D01*
X194121289Y-81149500D01*
X194121288Y-81149500D01*
X193878712Y-81149500D01*
X193878711Y-81149500D01*
X193638214Y-81181161D01*
X193403895Y-81243947D01*
X193179794Y-81336773D01*
X193179785Y-81336777D01*
X192969706Y-81458067D01*
X192777263Y-81605733D01*
X192777256Y-81605739D01*
X192605739Y-81777256D01*
X192605733Y-81777263D01*
X192458067Y-81969706D01*
X192336777Y-82179785D01*
X192336773Y-82179794D01*
X192243947Y-82403895D01*
X192181161Y-82638214D01*
X192149500Y-82878711D01*
X188088050Y-82878711D01*
X188030046Y-82791902D01*
X187982765Y-82744621D01*
X187908099Y-82669955D01*
X187417929Y-82179785D01*
X186558102Y-81319957D01*
X186558098Y-81319954D01*
X186414711Y-81224145D01*
X186414698Y-81224138D01*
X186255378Y-81158146D01*
X186255366Y-81158143D01*
X186086232Y-81124500D01*
X186086229Y-81124500D01*
X163913771Y-81124500D01*
X163913768Y-81124500D01*
X163744633Y-81158143D01*
X163744621Y-81158146D01*
X163585301Y-81224138D01*
X163585288Y-81224145D01*
X163441901Y-81319954D01*
X163441897Y-81319957D01*
X162582071Y-82179785D01*
X162441901Y-82319955D01*
X162380927Y-82380929D01*
X162319953Y-82441902D01*
X162224145Y-82585288D01*
X162224138Y-82585301D01*
X162158146Y-82744621D01*
X162158143Y-82744633D01*
X162124500Y-82913766D01*
X162124500Y-84474546D01*
X162115061Y-84521998D01*
X162037950Y-84708160D01*
X162037947Y-84708170D01*
X161999500Y-84901456D01*
X161999500Y-84901459D01*
X161999500Y-85098541D01*
X161999500Y-85098543D01*
X161999499Y-85098543D01*
X162037947Y-85291829D01*
X162037950Y-85291839D01*
X162113364Y-85473907D01*
X162113371Y-85473920D01*
X162222860Y-85637781D01*
X162222863Y-85637785D01*
X162362214Y-85777136D01*
X162362218Y-85777139D01*
X162526079Y-85886628D01*
X162526092Y-85886635D01*
X162694266Y-85956294D01*
X162708165Y-85962051D01*
X162708169Y-85962051D01*
X162708170Y-85962052D01*
X162901456Y-86000500D01*
X162901459Y-86000500D01*
X163098543Y-86000500D01*
X163268327Y-85966727D01*
X163291835Y-85962051D01*
X163473914Y-85886632D01*
X163473918Y-85886629D01*
X163478047Y-85884919D01*
X163547516Y-85877450D01*
X163609996Y-85908725D01*
X163645648Y-85968814D01*
X163649500Y-85999479D01*
X163649500Y-86087869D01*
X163649501Y-86087876D01*
X163655908Y-86147483D01*
X163706202Y-86282328D01*
X163706206Y-86282335D01*
X163792452Y-86397544D01*
X163792455Y-86397547D01*
X163907664Y-86483793D01*
X163907671Y-86483797D01*
X163924584Y-86490105D01*
X164042517Y-86534091D01*
X164102127Y-86540500D01*
X164112685Y-86540499D01*
X164179723Y-86560179D01*
X164200372Y-86576818D01*
X164870591Y-87247037D01*
X164807007Y-87264075D01*
X164692993Y-87329901D01*
X164599901Y-87422993D01*
X164534075Y-87537007D01*
X164517037Y-87600591D01*
X163884728Y-86968282D01*
X163884727Y-86968282D01*
X163845380Y-87022439D01*
X163748904Y-87211782D01*
X163683242Y-87413869D01*
X163683242Y-87413872D01*
X163650000Y-87623753D01*
X163650000Y-87836246D01*
X163683242Y-88046127D01*
X163683242Y-88046130D01*
X163748904Y-88248217D01*
X163845375Y-88437550D01*
X163884728Y-88491716D01*
X164517037Y-87859408D01*
X164534075Y-87922993D01*
X164599901Y-88037007D01*
X164692993Y-88130099D01*
X164807007Y-88195925D01*
X164870590Y-88212962D01*
X164238282Y-88845269D01*
X164238282Y-88845270D01*
X164292452Y-88884626D01*
X164292451Y-88884626D01*
X164301495Y-88889234D01*
X164352292Y-88937208D01*
X164369087Y-89005029D01*
X164346550Y-89071164D01*
X164301499Y-89110202D01*
X164292182Y-89114949D01*
X164120213Y-89239890D01*
X163969890Y-89390213D01*
X163844951Y-89562179D01*
X163748444Y-89751585D01*
X163682753Y-89953760D01*
X163653254Y-90140009D01*
X163649500Y-90163713D01*
X163649500Y-90376287D01*
X163657208Y-90424957D01*
X163682753Y-90586240D01*
X163682754Y-90586244D01*
X163696491Y-90628523D01*
X163698486Y-90698365D01*
X163666241Y-90754521D01*
X145057584Y-109363181D01*
X144996261Y-109396666D01*
X144969903Y-109399500D01*
X128920940Y-109399500D01*
X128880019Y-109410464D01*
X128880019Y-109410465D01*
X128842751Y-109420451D01*
X128768214Y-109440423D01*
X128768209Y-109440426D01*
X128631290Y-109519475D01*
X128631282Y-109519481D01*
X127379481Y-110771282D01*
X127379479Y-110771285D01*
X127329361Y-110858094D01*
X127329359Y-110858096D01*
X127300425Y-110908209D01*
X127300424Y-110908210D01*
X127300423Y-110908215D01*
X127259499Y-111060943D01*
X127259499Y-111060945D01*
X127259499Y-111229046D01*
X127259500Y-111229059D01*
X127259500Y-112954281D01*
X127239815Y-113021320D01*
X127191795Y-113064765D01*
X127152185Y-113084947D01*
X127152184Y-113084948D01*
X126980213Y-113209890D01*
X126829890Y-113360213D01*
X126704949Y-113532182D01*
X126700484Y-113540946D01*
X126652509Y-113591742D01*
X126584688Y-113608536D01*
X126518553Y-113585998D01*
X126479516Y-113540946D01*
X126475050Y-113532182D01*
X126350109Y-113360213D01*
X126199786Y-113209890D01*
X126027820Y-113084951D01*
X125838414Y-112988444D01*
X125838413Y-112988443D01*
X125838412Y-112988443D01*
X125636243Y-112922754D01*
X125636241Y-112922753D01*
X125636240Y-112922753D01*
X125474957Y-112897208D01*
X125426287Y-112889500D01*
X125213713Y-112889500D01*
X125165042Y-112897208D01*
X125003760Y-112922753D01*
X124801585Y-112988444D01*
X124612179Y-113084951D01*
X124440213Y-113209890D01*
X124289890Y-113360213D01*
X124164949Y-113532182D01*
X124160484Y-113540946D01*
X124112509Y-113591742D01*
X124044688Y-113608536D01*
X123978553Y-113585998D01*
X123939516Y-113540946D01*
X123935050Y-113532182D01*
X123810109Y-113360213D01*
X123659786Y-113209890D01*
X123487820Y-113084951D01*
X123298414Y-112988444D01*
X123298413Y-112988443D01*
X123298412Y-112988443D01*
X123096243Y-112922754D01*
X123096241Y-112922753D01*
X123096240Y-112922753D01*
X122934957Y-112897208D01*
X122886287Y-112889500D01*
X122673713Y-112889500D01*
X122625042Y-112897208D01*
X122463760Y-112922753D01*
X122261585Y-112988444D01*
X122072179Y-113084951D01*
X121900213Y-113209890D01*
X121749890Y-113360213D01*
X121624949Y-113532182D01*
X121620484Y-113540946D01*
X121572509Y-113591742D01*
X121504688Y-113608536D01*
X121438553Y-113585998D01*
X121399516Y-113540946D01*
X121395050Y-113532182D01*
X121270109Y-113360213D01*
X121119786Y-113209890D01*
X120947820Y-113084951D01*
X120758414Y-112988444D01*
X120758413Y-112988443D01*
X120758412Y-112988443D01*
X120556243Y-112922754D01*
X120556241Y-112922753D01*
X120556240Y-112922753D01*
X120394957Y-112897208D01*
X120346287Y-112889500D01*
X120133713Y-112889500D01*
X120085042Y-112897208D01*
X119923760Y-112922753D01*
X119721585Y-112988444D01*
X119532179Y-113084951D01*
X119360213Y-113209890D01*
X119209890Y-113360213D01*
X119084949Y-113532182D01*
X119080484Y-113540946D01*
X119032509Y-113591742D01*
X118964688Y-113608536D01*
X118898553Y-113585998D01*
X118859516Y-113540946D01*
X118855050Y-113532182D01*
X118730109Y-113360213D01*
X118579786Y-113209890D01*
X118407820Y-113084951D01*
X118218414Y-112988444D01*
X118218413Y-112988443D01*
X118218412Y-112988443D01*
X118016243Y-112922754D01*
X118016241Y-112922753D01*
X118016240Y-112922753D01*
X117854957Y-112897208D01*
X117806287Y-112889500D01*
X117593713Y-112889500D01*
X117545042Y-112897208D01*
X117383760Y-112922753D01*
X117181585Y-112988444D01*
X116992179Y-113084951D01*
X116820213Y-113209890D01*
X116669890Y-113360213D01*
X116544949Y-113532182D01*
X116540484Y-113540946D01*
X116492509Y-113591742D01*
X116424688Y-113608536D01*
X116358553Y-113585998D01*
X116319516Y-113540946D01*
X116315050Y-113532182D01*
X116190109Y-113360213D01*
X116039786Y-113209890D01*
X115867820Y-113084951D01*
X115678414Y-112988444D01*
X115678413Y-112988443D01*
X115678412Y-112988443D01*
X115476243Y-112922754D01*
X115476241Y-112922753D01*
X115476240Y-112922753D01*
X115314957Y-112897208D01*
X115266287Y-112889500D01*
X115119096Y-112889500D01*
X115052057Y-112869815D01*
X115006302Y-112817011D01*
X114996358Y-112747853D01*
X115025383Y-112684297D01*
X115031415Y-112677819D01*
X115941019Y-111768216D01*
X119072417Y-108636819D01*
X119133740Y-108603334D01*
X119160098Y-108600500D01*
X143420234Y-108600500D01*
X143487273Y-108620185D01*
X143489125Y-108621398D01*
X143620814Y-108709390D01*
X143620827Y-108709397D01*
X143705879Y-108744626D01*
X143766503Y-108769737D01*
X143921153Y-108800499D01*
X143921156Y-108800500D01*
X143921158Y-108800500D01*
X144078844Y-108800500D01*
X144078845Y-108800499D01*
X144233497Y-108769737D01*
X144379179Y-108709394D01*
X144510289Y-108621789D01*
X144621789Y-108510289D01*
X144709394Y-108379179D01*
X144769737Y-108233497D01*
X144800500Y-108078842D01*
X144800500Y-107921158D01*
X144800500Y-107921155D01*
X144800499Y-107921153D01*
X144782947Y-107832914D01*
X144769737Y-107766503D01*
X144769735Y-107766498D01*
X144709397Y-107620827D01*
X144709390Y-107620814D01*
X144621789Y-107489711D01*
X144621786Y-107489707D01*
X144510292Y-107378213D01*
X144510288Y-107378210D01*
X144379185Y-107290609D01*
X144379172Y-107290602D01*
X144233501Y-107230264D01*
X144233489Y-107230261D01*
X144078845Y-107199500D01*
X144078842Y-107199500D01*
X143921158Y-107199500D01*
X143921155Y-107199500D01*
X143766510Y-107230261D01*
X143766498Y-107230264D01*
X143620827Y-107290602D01*
X143620814Y-107290609D01*
X143489125Y-107378602D01*
X143422447Y-107399480D01*
X143420234Y-107399500D01*
X118946670Y-107399500D01*
X118946654Y-107399499D01*
X118939058Y-107399499D01*
X118780943Y-107399499D01*
X118704579Y-107419961D01*
X118628214Y-107440423D01*
X118628209Y-107440426D01*
X118491290Y-107519475D01*
X118491282Y-107519481D01*
X113104522Y-112906241D01*
X113043199Y-112939726D01*
X112978523Y-112936491D01*
X112936245Y-112922754D01*
X112793193Y-112900097D01*
X112726287Y-112889500D01*
X112513713Y-112889500D01*
X112465042Y-112897208D01*
X112303760Y-112922753D01*
X112101585Y-112988444D01*
X111912179Y-113084951D01*
X111740213Y-113209890D01*
X111589890Y-113360213D01*
X111464949Y-113532182D01*
X111460484Y-113540946D01*
X111412509Y-113591742D01*
X111344688Y-113608536D01*
X111278553Y-113585998D01*
X111239516Y-113540946D01*
X111235050Y-113532182D01*
X111110109Y-113360213D01*
X110959786Y-113209890D01*
X110787820Y-113084951D01*
X110598414Y-112988444D01*
X110598413Y-112988443D01*
X110598412Y-112988443D01*
X110396243Y-112922754D01*
X110396241Y-112922753D01*
X110396240Y-112922753D01*
X110234957Y-112897208D01*
X110186287Y-112889500D01*
X109973713Y-112889500D01*
X109925042Y-112897208D01*
X109763760Y-112922753D01*
X109561585Y-112988444D01*
X109372179Y-113084951D01*
X109200213Y-113209890D01*
X109049890Y-113360213D01*
X108924949Y-113532182D01*
X108920484Y-113540946D01*
X108872509Y-113591742D01*
X108804688Y-113608536D01*
X108738553Y-113585998D01*
X108699516Y-113540946D01*
X108695050Y-113532182D01*
X108570109Y-113360213D01*
X108419786Y-113209890D01*
X108247820Y-113084951D01*
X108058414Y-112988444D01*
X108058413Y-112988443D01*
X108058412Y-112988443D01*
X107856243Y-112922754D01*
X107856241Y-112922753D01*
X107856240Y-112922753D01*
X107694957Y-112897208D01*
X107646287Y-112889500D01*
X107433713Y-112889500D01*
X107385042Y-112897208D01*
X107223760Y-112922753D01*
X107021585Y-112988444D01*
X106832179Y-113084951D01*
X106660213Y-113209890D01*
X106509890Y-113360213D01*
X106384949Y-113532182D01*
X106380484Y-113540946D01*
X106332509Y-113591742D01*
X106264688Y-113608536D01*
X106198553Y-113585998D01*
X106159516Y-113540946D01*
X106155050Y-113532182D01*
X106030109Y-113360213D01*
X105879786Y-113209890D01*
X105707815Y-113084948D01*
X105707814Y-113084947D01*
X105668205Y-113064765D01*
X105617409Y-113016791D01*
X105600500Y-112954281D01*
X105600500Y-112089060D01*
X105600501Y-112089047D01*
X105600501Y-111920944D01*
X105559576Y-111768214D01*
X105559573Y-111768209D01*
X105480524Y-111631290D01*
X105480518Y-111631282D01*
X93682521Y-99833285D01*
X93649036Y-99771962D01*
X93654020Y-99702270D01*
X93680215Y-99661519D01*
X93679812Y-99661175D01*
X93682342Y-99658211D01*
X93682539Y-99657905D01*
X93682981Y-99657464D01*
X93799787Y-99496694D01*
X93879515Y-99340218D01*
X93927490Y-99289423D01*
X93995311Y-99272628D01*
X94061446Y-99295165D01*
X94100484Y-99340218D01*
X94180213Y-99496694D01*
X94297019Y-99657464D01*
X94437536Y-99797981D01*
X94598306Y-99914787D01*
X94627282Y-99929551D01*
X94775367Y-100005005D01*
X94775370Y-100005006D01*
X94852615Y-100030104D01*
X94964364Y-100066413D01*
X95160639Y-100097500D01*
X95196903Y-100097500D01*
X95263942Y-100117185D01*
X95284583Y-100133818D01*
X96631284Y-101480520D01*
X96631286Y-101480521D01*
X96631290Y-101480524D01*
X96768209Y-101559573D01*
X96768216Y-101559577D01*
X96920943Y-101600501D01*
X96920945Y-101600501D01*
X97086654Y-101600501D01*
X97086670Y-101600500D01*
X107993331Y-101600500D01*
X107993347Y-101600501D01*
X108000943Y-101600501D01*
X108159054Y-101600501D01*
X108159057Y-101600501D01*
X108311785Y-101559577D01*
X108361904Y-101530639D01*
X108448716Y-101480520D01*
X108560520Y-101368716D01*
X108560520Y-101368714D01*
X108570728Y-101358507D01*
X108570730Y-101358504D01*
X109595478Y-100333755D01*
X109656799Y-100300272D01*
X109721473Y-100303506D01*
X109763757Y-100317246D01*
X109973713Y-100350500D01*
X109973714Y-100350500D01*
X110186286Y-100350500D01*
X110186287Y-100350500D01*
X110396243Y-100317246D01*
X110598412Y-100251557D01*
X110787816Y-100155051D01*
X110817040Y-100133819D01*
X110959786Y-100030109D01*
X110959788Y-100030106D01*
X110959792Y-100030104D01*
X111110104Y-99879792D01*
X111110106Y-99879788D01*
X111110109Y-99879786D01*
X111219465Y-99729268D01*
X111235051Y-99707816D01*
X111239514Y-99699054D01*
X111287488Y-99648259D01*
X111355308Y-99631463D01*
X111421444Y-99653999D01*
X111460486Y-99699056D01*
X111464951Y-99707820D01*
X111589890Y-99879786D01*
X111740213Y-100030109D01*
X111912179Y-100155048D01*
X111912181Y-100155049D01*
X111912184Y-100155051D01*
X112101588Y-100251557D01*
X112303757Y-100317246D01*
X112513713Y-100350500D01*
X112513714Y-100350500D01*
X112726286Y-100350500D01*
X112726287Y-100350500D01*
X112936243Y-100317246D01*
X113138412Y-100251557D01*
X113327816Y-100155051D01*
X113357040Y-100133819D01*
X113499786Y-100030109D01*
X113499788Y-100030106D01*
X113499792Y-100030104D01*
X113650104Y-99879792D01*
X113650106Y-99879788D01*
X113650109Y-99879786D01*
X113759465Y-99729268D01*
X113775051Y-99707816D01*
X113779514Y-99699054D01*
X113827488Y-99648259D01*
X113895308Y-99631463D01*
X113961444Y-99653999D01*
X114000486Y-99699056D01*
X114004951Y-99707820D01*
X114129890Y-99879786D01*
X114280213Y-100030109D01*
X114452179Y-100155048D01*
X114452181Y-100155049D01*
X114452184Y-100155051D01*
X114641588Y-100251557D01*
X114843757Y-100317246D01*
X115053713Y-100350500D01*
X115053714Y-100350500D01*
X115266286Y-100350500D01*
X115266287Y-100350500D01*
X115476243Y-100317246D01*
X115678412Y-100251557D01*
X115867816Y-100155051D01*
X115897040Y-100133819D01*
X116039786Y-100030109D01*
X116039788Y-100030106D01*
X116039792Y-100030104D01*
X116190104Y-99879792D01*
X116190106Y-99879788D01*
X116190109Y-99879786D01*
X116299465Y-99729268D01*
X116315051Y-99707816D01*
X116319514Y-99699054D01*
X116367488Y-99648259D01*
X116435308Y-99631463D01*
X116501444Y-99653999D01*
X116540486Y-99699056D01*
X116544951Y-99707820D01*
X116669890Y-99879786D01*
X116820213Y-100030109D01*
X116992179Y-100155048D01*
X116992181Y-100155049D01*
X116992184Y-100155051D01*
X117181588Y-100251557D01*
X117383757Y-100317246D01*
X117593713Y-100350500D01*
X117593714Y-100350500D01*
X117806286Y-100350500D01*
X117806287Y-100350500D01*
X118016243Y-100317246D01*
X118218412Y-100251557D01*
X118407816Y-100155051D01*
X118437040Y-100133819D01*
X118579786Y-100030109D01*
X118579788Y-100030106D01*
X118579792Y-100030104D01*
X118730104Y-99879792D01*
X118730106Y-99879788D01*
X118730109Y-99879786D01*
X118839465Y-99729268D01*
X118855051Y-99707816D01*
X118859514Y-99699054D01*
X118907488Y-99648259D01*
X118975308Y-99631463D01*
X119041444Y-99653999D01*
X119080486Y-99699056D01*
X119084951Y-99707820D01*
X119209890Y-99879786D01*
X119360213Y-100030109D01*
X119532179Y-100155048D01*
X119532181Y-100155049D01*
X119532184Y-100155051D01*
X119721588Y-100251557D01*
X119923757Y-100317246D01*
X120133713Y-100350500D01*
X120133714Y-100350500D01*
X120346286Y-100350500D01*
X120346287Y-100350500D01*
X120556243Y-100317246D01*
X120758412Y-100251557D01*
X120947816Y-100155051D01*
X120977040Y-100133819D01*
X121119786Y-100030109D01*
X121119788Y-100030106D01*
X121119792Y-100030104D01*
X121270104Y-99879792D01*
X121270106Y-99879788D01*
X121270109Y-99879786D01*
X121379465Y-99729268D01*
X121395051Y-99707816D01*
X121399514Y-99699054D01*
X121447488Y-99648259D01*
X121515308Y-99631463D01*
X121581444Y-99653999D01*
X121620486Y-99699056D01*
X121624951Y-99707820D01*
X121749890Y-99879786D01*
X121900213Y-100030109D01*
X122072179Y-100155048D01*
X122072181Y-100155049D01*
X122072184Y-100155051D01*
X122261588Y-100251557D01*
X122463757Y-100317246D01*
X122673713Y-100350500D01*
X122673714Y-100350500D01*
X122886286Y-100350500D01*
X122886287Y-100350500D01*
X123096243Y-100317246D01*
X123298412Y-100251557D01*
X123487816Y-100155051D01*
X123517040Y-100133819D01*
X123659786Y-100030109D01*
X123659788Y-100030106D01*
X123659792Y-100030104D01*
X123810104Y-99879792D01*
X123810106Y-99879788D01*
X123810109Y-99879786D01*
X123919465Y-99729268D01*
X123935051Y-99707816D01*
X123939514Y-99699054D01*
X123987488Y-99648259D01*
X124055308Y-99631463D01*
X124121444Y-99653999D01*
X124160486Y-99699056D01*
X124164951Y-99707820D01*
X124289890Y-99879786D01*
X124440213Y-100030109D01*
X124612179Y-100155048D01*
X124612181Y-100155049D01*
X124612184Y-100155051D01*
X124801588Y-100251557D01*
X125003757Y-100317246D01*
X125213713Y-100350500D01*
X125213714Y-100350500D01*
X125426286Y-100350500D01*
X125426287Y-100350500D01*
X125636243Y-100317246D01*
X125838412Y-100251557D01*
X126027816Y-100155051D01*
X126057040Y-100133819D01*
X126199786Y-100030109D01*
X126199788Y-100030106D01*
X126199792Y-100030104D01*
X126350104Y-99879792D01*
X126350106Y-99879788D01*
X126350109Y-99879786D01*
X126459465Y-99729268D01*
X126475051Y-99707816D01*
X126479514Y-99699054D01*
X126527488Y-99648259D01*
X126595308Y-99631463D01*
X126661444Y-99653999D01*
X126700486Y-99699056D01*
X126704951Y-99707820D01*
X126829890Y-99879786D01*
X126980213Y-100030109D01*
X127152179Y-100155048D01*
X127152181Y-100155049D01*
X127152184Y-100155051D01*
X127341588Y-100251557D01*
X127543757Y-100317246D01*
X127753713Y-100350500D01*
X127753714Y-100350500D01*
X127966286Y-100350500D01*
X127966287Y-100350500D01*
X128176243Y-100317246D01*
X128378412Y-100251557D01*
X128567816Y-100155051D01*
X128597040Y-100133819D01*
X128739786Y-100030109D01*
X128739788Y-100030106D01*
X128739792Y-100030104D01*
X128890104Y-99879792D01*
X128890106Y-99879788D01*
X128890109Y-99879786D01*
X128999465Y-99729268D01*
X129015051Y-99707816D01*
X129019514Y-99699054D01*
X129067488Y-99648259D01*
X129135308Y-99631463D01*
X129201444Y-99653999D01*
X129240486Y-99699056D01*
X129244951Y-99707820D01*
X129369890Y-99879786D01*
X129520213Y-100030109D01*
X129692179Y-100155048D01*
X129692181Y-100155049D01*
X129692184Y-100155051D01*
X129881588Y-100251557D01*
X130083757Y-100317246D01*
X130293713Y-100350500D01*
X130293714Y-100350500D01*
X130506286Y-100350500D01*
X130506287Y-100350500D01*
X130716243Y-100317246D01*
X130918412Y-100251557D01*
X131107816Y-100155051D01*
X131137040Y-100133819D01*
X131279786Y-100030109D01*
X131279788Y-100030106D01*
X131279792Y-100030104D01*
X131430104Y-99879792D01*
X131430106Y-99879788D01*
X131430109Y-99879786D01*
X131539465Y-99729268D01*
X131555051Y-99707816D01*
X131559514Y-99699054D01*
X131607488Y-99648259D01*
X131675308Y-99631463D01*
X131741444Y-99653999D01*
X131780486Y-99699056D01*
X131784951Y-99707820D01*
X131909890Y-99879786D01*
X132060213Y-100030109D01*
X132232179Y-100155048D01*
X132232181Y-100155049D01*
X132232184Y-100155051D01*
X132421588Y-100251557D01*
X132623757Y-100317246D01*
X132833713Y-100350500D01*
X132833714Y-100350500D01*
X133046286Y-100350500D01*
X133046287Y-100350500D01*
X133256243Y-100317246D01*
X133458412Y-100251557D01*
X133647816Y-100155051D01*
X133677040Y-100133819D01*
X133819786Y-100030109D01*
X133819788Y-100030106D01*
X133819792Y-100030104D01*
X133970104Y-99879792D01*
X133970106Y-99879788D01*
X133970109Y-99879786D01*
X134079465Y-99729268D01*
X134095051Y-99707816D01*
X134099514Y-99699054D01*
X134147488Y-99648259D01*
X134215308Y-99631463D01*
X134281444Y-99653999D01*
X134320486Y-99699056D01*
X134324951Y-99707820D01*
X134449890Y-99879786D01*
X134600213Y-100030109D01*
X134772179Y-100155048D01*
X134772181Y-100155049D01*
X134772184Y-100155051D01*
X134961588Y-100251557D01*
X135163757Y-100317246D01*
X135373713Y-100350500D01*
X135373714Y-100350500D01*
X135586286Y-100350500D01*
X135586287Y-100350500D01*
X135796243Y-100317246D01*
X135998412Y-100251557D01*
X136187816Y-100155051D01*
X136274478Y-100092088D01*
X136359784Y-100030110D01*
X136359784Y-100030109D01*
X136359792Y-100030104D01*
X136473717Y-99916178D01*
X136535036Y-99882696D01*
X136604728Y-99887680D01*
X136660662Y-99929551D01*
X136677577Y-99960528D01*
X136726646Y-100092088D01*
X136726649Y-100092093D01*
X136812809Y-100207187D01*
X136812812Y-100207190D01*
X136927906Y-100293350D01*
X136927913Y-100293354D01*
X137062620Y-100343596D01*
X137062627Y-100343598D01*
X137122155Y-100349999D01*
X137122172Y-100350000D01*
X137770000Y-100350000D01*
X137770000Y-99433012D01*
X137827007Y-99465925D01*
X137954174Y-99500000D01*
X138085826Y-99500000D01*
X138212993Y-99465925D01*
X138270000Y-99433012D01*
X138270000Y-100350000D01*
X138917828Y-100350000D01*
X138917844Y-100349999D01*
X138977372Y-100343598D01*
X138977379Y-100343596D01*
X139112086Y-100293354D01*
X139112093Y-100293350D01*
X139227187Y-100207190D01*
X139227190Y-100207187D01*
X139313350Y-100092093D01*
X139313354Y-100092086D01*
X139363596Y-99957379D01*
X139363598Y-99957372D01*
X139369999Y-99897844D01*
X139370000Y-99897827D01*
X139370000Y-99250000D01*
X138453012Y-99250000D01*
X138485925Y-99192993D01*
X138520000Y-99065826D01*
X138520000Y-98934174D01*
X138485925Y-98807007D01*
X138453012Y-98750000D01*
X139370000Y-98750000D01*
X139370000Y-98102172D01*
X139369999Y-98102155D01*
X139363598Y-98042627D01*
X139363596Y-98042620D01*
X139313354Y-97907913D01*
X139313350Y-97907906D01*
X139227190Y-97792812D01*
X139227187Y-97792809D01*
X139112093Y-97706649D01*
X139112086Y-97706645D01*
X138977379Y-97656403D01*
X138977372Y-97656401D01*
X138917844Y-97650000D01*
X138270000Y-97650000D01*
X138270000Y-98566988D01*
X138212993Y-98534075D01*
X138085826Y-98500000D01*
X137954174Y-98500000D01*
X137827007Y-98534075D01*
X137770000Y-98566988D01*
X137770000Y-97650000D01*
X137122155Y-97650000D01*
X137062627Y-97656401D01*
X137062620Y-97656403D01*
X136927913Y-97706645D01*
X136927906Y-97706649D01*
X136812812Y-97792809D01*
X136812809Y-97792812D01*
X136726649Y-97907906D01*
X136726646Y-97907912D01*
X136677577Y-98039471D01*
X136635705Y-98095404D01*
X136570241Y-98119821D01*
X136501968Y-98104969D01*
X136473714Y-98083818D01*
X136359786Y-97969890D01*
X136187820Y-97844951D01*
X135998414Y-97748444D01*
X135998413Y-97748443D01*
X135998412Y-97748443D01*
X135796243Y-97682754D01*
X135796241Y-97682753D01*
X135796240Y-97682753D01*
X135634957Y-97657208D01*
X135586287Y-97649500D01*
X135373713Y-97649500D01*
X135325042Y-97657208D01*
X135163760Y-97682753D01*
X135163757Y-97682754D01*
X135000718Y-97735729D01*
X134961585Y-97748444D01*
X134772179Y-97844951D01*
X134600213Y-97969890D01*
X134449890Y-98120213D01*
X134324949Y-98292182D01*
X134320484Y-98300946D01*
X134272509Y-98351742D01*
X134204688Y-98368536D01*
X134138553Y-98345998D01*
X134099516Y-98300946D01*
X134095050Y-98292182D01*
X133970109Y-98120213D01*
X133819786Y-97969890D01*
X133647820Y-97844951D01*
X133458414Y-97748444D01*
X133458413Y-97748443D01*
X133458412Y-97748443D01*
X133256243Y-97682754D01*
X133256241Y-97682753D01*
X133256240Y-97682753D01*
X133094957Y-97657208D01*
X133046287Y-97649500D01*
X132833713Y-97649500D01*
X132785042Y-97657208D01*
X132623760Y-97682753D01*
X132623757Y-97682754D01*
X132460718Y-97735729D01*
X132421585Y-97748444D01*
X132232179Y-97844951D01*
X132060213Y-97969890D01*
X131909890Y-98120213D01*
X131784949Y-98292182D01*
X131780484Y-98300946D01*
X131732509Y-98351742D01*
X131664688Y-98368536D01*
X131598553Y-98345998D01*
X131559516Y-98300946D01*
X131555050Y-98292182D01*
X131430109Y-98120213D01*
X131279786Y-97969890D01*
X131107815Y-97844948D01*
X131107814Y-97844947D01*
X131068205Y-97824765D01*
X131017409Y-97776791D01*
X131000500Y-97714281D01*
X131000500Y-95901577D01*
X144749500Y-95901577D01*
X144749500Y-96098422D01*
X144780290Y-96292826D01*
X144841117Y-96480029D01*
X144913346Y-96621786D01*
X144930476Y-96655405D01*
X145046172Y-96814646D01*
X145185354Y-96953828D01*
X145344595Y-97069524D01*
X145427455Y-97111743D01*
X145519970Y-97158882D01*
X145519972Y-97158882D01*
X145519975Y-97158884D01*
X145620317Y-97191487D01*
X145707173Y-97219709D01*
X145901578Y-97250500D01*
X145901583Y-97250500D01*
X146098422Y-97250500D01*
X146292826Y-97219709D01*
X146480025Y-97158884D01*
X146655405Y-97069524D01*
X146814646Y-96953828D01*
X146953828Y-96814646D01*
X147069524Y-96655405D01*
X147158884Y-96480025D01*
X147219709Y-96292826D01*
X147229107Y-96233489D01*
X147250500Y-96098422D01*
X147250500Y-95901577D01*
X147219709Y-95707173D01*
X147159199Y-95520945D01*
X147158884Y-95519975D01*
X147158882Y-95519972D01*
X147158882Y-95519970D01*
X147086652Y-95378211D01*
X147069524Y-95344595D01*
X146953828Y-95185354D01*
X146814646Y-95046172D01*
X146655405Y-94930476D01*
X146480029Y-94841117D01*
X146292826Y-94780290D01*
X146098422Y-94749500D01*
X146098417Y-94749500D01*
X145901583Y-94749500D01*
X145901578Y-94749500D01*
X145707173Y-94780290D01*
X145519970Y-94841117D01*
X145344594Y-94930476D01*
X145256753Y-94994297D01*
X145185354Y-95046172D01*
X145185352Y-95046174D01*
X145185351Y-95046174D01*
X145046174Y-95185351D01*
X145046174Y-95185352D01*
X145046172Y-95185354D01*
X145013545Y-95230261D01*
X144930476Y-95344594D01*
X144841117Y-95519970D01*
X144780290Y-95707173D01*
X144749500Y-95901577D01*
X131000500Y-95901577D01*
X131000500Y-95900096D01*
X131005649Y-95882558D01*
X131005147Y-95879064D01*
X131009288Y-95869995D01*
X131015668Y-95840669D01*
X131019422Y-95835653D01*
X131020185Y-95833057D01*
X131033969Y-95815950D01*
X131034172Y-95815508D01*
X131035320Y-95814274D01*
X131036814Y-95812420D01*
X134358506Y-92490727D01*
X134358511Y-92490724D01*
X134368714Y-92480520D01*
X134368716Y-92480520D01*
X134480520Y-92368716D01*
X134551198Y-92246297D01*
X134559577Y-92231785D01*
X134600501Y-92079057D01*
X134600501Y-91920943D01*
X134600501Y-91913348D01*
X134600500Y-91913330D01*
X134600500Y-88300096D01*
X134620185Y-88233057D01*
X134636814Y-88212420D01*
X134888320Y-87960914D01*
X134949642Y-87927430D01*
X135019334Y-87932414D01*
X135075267Y-87974286D01*
X135099684Y-88039750D01*
X135100000Y-88048596D01*
X135100000Y-88106246D01*
X135133242Y-88316127D01*
X135133242Y-88316130D01*
X135198904Y-88518217D01*
X135295375Y-88707550D01*
X135334728Y-88761716D01*
X135967037Y-88129408D01*
X135984075Y-88192993D01*
X136049901Y-88307007D01*
X136142993Y-88400099D01*
X136257007Y-88465925D01*
X136320590Y-88482962D01*
X135650370Y-89153181D01*
X135589047Y-89186666D01*
X135562698Y-89189500D01*
X135552134Y-89189500D01*
X135552123Y-89189501D01*
X135492516Y-89195908D01*
X135357671Y-89246202D01*
X135357664Y-89246206D01*
X135242455Y-89332452D01*
X135242452Y-89332455D01*
X135156206Y-89447664D01*
X135156202Y-89447671D01*
X135105908Y-89582517D01*
X135101868Y-89620099D01*
X135099501Y-89642123D01*
X135099500Y-89642135D01*
X135099500Y-91437870D01*
X135099501Y-91437876D01*
X135105908Y-91497483D01*
X135156202Y-91632328D01*
X135156206Y-91632335D01*
X135242452Y-91747544D01*
X135242455Y-91747547D01*
X135357664Y-91833793D01*
X135357671Y-91833797D01*
X135492517Y-91884091D01*
X135492516Y-91884091D01*
X135499444Y-91884835D01*
X135552127Y-91890500D01*
X137347872Y-91890499D01*
X137407483Y-91884091D01*
X137542331Y-91833796D01*
X137657546Y-91747546D01*
X137743796Y-91632331D01*
X137794091Y-91497483D01*
X137800500Y-91437873D01*
X137800499Y-89642128D01*
X137794091Y-89582517D01*
X137786507Y-89562184D01*
X137743797Y-89447671D01*
X137743793Y-89447664D01*
X137657547Y-89332455D01*
X137657544Y-89332452D01*
X137542335Y-89246206D01*
X137542328Y-89246202D01*
X137407482Y-89195908D01*
X137407483Y-89195908D01*
X137347883Y-89189501D01*
X137347881Y-89189500D01*
X137347873Y-89189500D01*
X137347865Y-89189500D01*
X137337309Y-89189500D01*
X137270270Y-89169815D01*
X137249628Y-89153181D01*
X136579408Y-88482962D01*
X136642993Y-88465925D01*
X136757007Y-88400099D01*
X136850099Y-88307007D01*
X136915925Y-88192993D01*
X136932962Y-88129408D01*
X137565270Y-88761717D01*
X137565270Y-88761716D01*
X137604622Y-88707554D01*
X137701095Y-88518217D01*
X137766757Y-88316130D01*
X137766757Y-88316127D01*
X137800000Y-88106246D01*
X137800000Y-87893753D01*
X137766757Y-87683872D01*
X137766757Y-87683869D01*
X137701095Y-87481782D01*
X137604624Y-87292449D01*
X137565270Y-87238282D01*
X137565269Y-87238282D01*
X136932962Y-87870590D01*
X136915925Y-87807007D01*
X136850099Y-87692993D01*
X136757007Y-87599901D01*
X136642993Y-87534075D01*
X136579408Y-87517037D01*
X137211716Y-86884728D01*
X137157547Y-86845373D01*
X137157547Y-86845372D01*
X137148500Y-86840763D01*
X137097706Y-86792788D01*
X137080912Y-86724966D01*
X137103451Y-86658832D01*
X137148508Y-86619793D01*
X137157816Y-86615051D01*
X137259351Y-86541282D01*
X137329786Y-86490109D01*
X137329788Y-86490106D01*
X137329792Y-86490104D01*
X137480104Y-86339792D01*
X137480106Y-86339788D01*
X137480109Y-86339786D01*
X137544546Y-86251095D01*
X137605051Y-86167816D01*
X137611774Y-86154622D01*
X137625235Y-86128205D01*
X137673209Y-86077409D01*
X137735719Y-86060500D01*
X139254281Y-86060500D01*
X139321320Y-86080185D01*
X139364765Y-86128205D01*
X139384947Y-86167814D01*
X139384948Y-86167815D01*
X139509890Y-86339786D01*
X139660213Y-86490109D01*
X139832179Y-86615048D01*
X139832181Y-86615049D01*
X139832184Y-86615051D01*
X139841493Y-86619794D01*
X139892290Y-86667766D01*
X139909087Y-86735587D01*
X139886552Y-86801722D01*
X139841505Y-86840760D01*
X139832446Y-86845376D01*
X139832440Y-86845380D01*
X139778282Y-86884727D01*
X139778282Y-86884728D01*
X140410591Y-87517037D01*
X140347007Y-87534075D01*
X140232993Y-87599901D01*
X140139901Y-87692993D01*
X140074075Y-87807007D01*
X140057037Y-87870591D01*
X139424728Y-87238282D01*
X139424727Y-87238282D01*
X139385380Y-87292439D01*
X139288904Y-87481782D01*
X139223242Y-87683869D01*
X139223242Y-87683872D01*
X139190000Y-87893753D01*
X139190000Y-88106246D01*
X139223242Y-88316127D01*
X139223242Y-88316130D01*
X139288904Y-88518217D01*
X139385375Y-88707550D01*
X139424728Y-88761716D01*
X140057037Y-88129408D01*
X140074075Y-88192993D01*
X140139901Y-88307007D01*
X140232993Y-88400099D01*
X140347007Y-88465925D01*
X140410590Y-88482962D01*
X139740370Y-89153181D01*
X139679047Y-89186666D01*
X139652698Y-89189500D01*
X139642134Y-89189500D01*
X139642123Y-89189501D01*
X139582516Y-89195908D01*
X139447671Y-89246202D01*
X139447664Y-89246206D01*
X139332455Y-89332452D01*
X139332452Y-89332455D01*
X139246206Y-89447664D01*
X139246202Y-89447671D01*
X139195908Y-89582517D01*
X139191868Y-89620099D01*
X139189501Y-89642123D01*
X139189500Y-89642135D01*
X139189500Y-91437870D01*
X139189501Y-91437876D01*
X139195908Y-91497483D01*
X139246202Y-91632328D01*
X139246206Y-91632335D01*
X139332452Y-91747544D01*
X139332455Y-91747547D01*
X139447664Y-91833793D01*
X139447671Y-91833797D01*
X139582517Y-91884091D01*
X139582516Y-91884091D01*
X139589444Y-91884835D01*
X139642127Y-91890500D01*
X141437872Y-91890499D01*
X141497483Y-91884091D01*
X141632331Y-91833796D01*
X141747546Y-91747546D01*
X141833796Y-91632331D01*
X141884091Y-91497483D01*
X141890500Y-91437873D01*
X141890499Y-89642128D01*
X141884091Y-89582517D01*
X141876507Y-89562184D01*
X141833797Y-89447671D01*
X141833793Y-89447664D01*
X141747547Y-89332455D01*
X141747544Y-89332452D01*
X141632335Y-89246206D01*
X141632328Y-89246202D01*
X141497482Y-89195908D01*
X141497483Y-89195908D01*
X141437883Y-89189501D01*
X141437881Y-89189500D01*
X141437873Y-89189500D01*
X141437865Y-89189500D01*
X141427309Y-89189500D01*
X141397868Y-89180855D01*
X141367882Y-89174332D01*
X141362866Y-89170577D01*
X141360270Y-89169815D01*
X141339628Y-89153181D01*
X141210962Y-89024515D01*
X141126430Y-88939983D01*
X144969500Y-88939983D01*
X144969500Y-90140001D01*
X144969501Y-90140018D01*
X144980000Y-90242796D01*
X144980001Y-90242799D01*
X145024235Y-90376286D01*
X145035186Y-90409334D01*
X145127288Y-90558656D01*
X145251344Y-90682712D01*
X145400666Y-90774814D01*
X145567203Y-90829999D01*
X145669991Y-90840500D01*
X146870008Y-90840499D01*
X146972797Y-90829999D01*
X147139334Y-90774814D01*
X147288656Y-90682712D01*
X147412712Y-90558656D01*
X147504814Y-90409334D01*
X147559999Y-90242797D01*
X147570500Y-90140009D01*
X147570499Y-88939992D01*
X147559999Y-88837203D01*
X147504814Y-88670666D01*
X147412712Y-88521344D01*
X147343488Y-88452120D01*
X147310003Y-88390797D01*
X147314987Y-88321105D01*
X147330852Y-88291552D01*
X147381858Y-88221349D01*
X147381863Y-88221341D01*
X147474755Y-88039031D01*
X147537990Y-87844417D01*
X147570000Y-87642317D01*
X147570000Y-87437682D01*
X147537990Y-87235582D01*
X147474755Y-87040968D01*
X147381859Y-86858650D01*
X147349474Y-86814077D01*
X147349474Y-86814076D01*
X146670000Y-87493551D01*
X146670000Y-87487339D01*
X146642741Y-87385606D01*
X146590080Y-87294394D01*
X146515606Y-87219920D01*
X146424394Y-87167259D01*
X146322661Y-87140000D01*
X146316446Y-87140000D01*
X146995922Y-86460524D01*
X146995921Y-86460523D01*
X146951359Y-86428147D01*
X146951350Y-86428141D01*
X146769031Y-86335244D01*
X146574417Y-86272009D01*
X146372317Y-86240000D01*
X146167683Y-86240000D01*
X145965582Y-86272009D01*
X145770968Y-86335244D01*
X145588644Y-86428143D01*
X145544077Y-86460523D01*
X145544077Y-86460524D01*
X146223554Y-87140000D01*
X146217339Y-87140000D01*
X146115606Y-87167259D01*
X146024394Y-87219920D01*
X145949920Y-87294394D01*
X145897259Y-87385606D01*
X145870000Y-87487339D01*
X145870000Y-87493553D01*
X145190524Y-86814077D01*
X145190523Y-86814077D01*
X145158143Y-86858644D01*
X145065244Y-87040968D01*
X145002009Y-87235582D01*
X144970000Y-87437682D01*
X144970000Y-87642317D01*
X145002009Y-87844417D01*
X145065244Y-88039031D01*
X145158142Y-88221352D01*
X145209147Y-88291555D01*
X145232627Y-88357361D01*
X145216802Y-88425415D01*
X145196511Y-88452121D01*
X145127287Y-88521345D01*
X145035187Y-88670663D01*
X145035185Y-88670668D01*
X145011067Y-88743453D01*
X144980001Y-88837203D01*
X144980001Y-88837204D01*
X144980000Y-88837204D01*
X144969500Y-88939983D01*
X141126430Y-88939983D01*
X140669408Y-88482962D01*
X140732993Y-88465925D01*
X140847007Y-88400099D01*
X140940099Y-88307007D01*
X141005925Y-88192993D01*
X141022962Y-88129409D01*
X141655270Y-88761717D01*
X141655270Y-88761716D01*
X141694622Y-88707554D01*
X141791095Y-88518217D01*
X141856757Y-88316130D01*
X141856757Y-88316127D01*
X141890000Y-88106246D01*
X141890000Y-87893753D01*
X141856757Y-87683872D01*
X141856757Y-87683869D01*
X141791095Y-87481782D01*
X141694624Y-87292449D01*
X141655270Y-87238282D01*
X141655269Y-87238282D01*
X141022962Y-87870590D01*
X141005925Y-87807007D01*
X140940099Y-87692993D01*
X140847007Y-87599901D01*
X140732993Y-87534075D01*
X140669409Y-87517037D01*
X141301716Y-86884728D01*
X141247547Y-86845373D01*
X141247547Y-86845372D01*
X141238500Y-86840763D01*
X141187706Y-86792788D01*
X141170912Y-86724966D01*
X141193451Y-86658832D01*
X141238508Y-86619793D01*
X141247816Y-86615051D01*
X141349351Y-86541282D01*
X141419786Y-86490109D01*
X141419788Y-86490106D01*
X141419792Y-86490104D01*
X141570104Y-86339792D01*
X141570106Y-86339788D01*
X141570109Y-86339786D01*
X141695048Y-86167820D01*
X141695047Y-86167820D01*
X141695051Y-86167816D01*
X141791557Y-85978412D01*
X141857246Y-85776243D01*
X141890500Y-85566287D01*
X141890500Y-85353713D01*
X141857246Y-85143757D01*
X141791557Y-84941588D01*
X141791556Y-84941586D01*
X141791555Y-84941584D01*
X141771109Y-84901456D01*
X141695051Y-84752184D01*
X141695049Y-84752181D01*
X141695048Y-84752179D01*
X141570109Y-84580213D01*
X141419786Y-84429890D01*
X141247820Y-84304951D01*
X141058414Y-84208444D01*
X141058413Y-84208443D01*
X141058412Y-84208443D01*
X140856243Y-84142754D01*
X140856241Y-84142753D01*
X140856240Y-84142753D01*
X140694957Y-84117208D01*
X140646287Y-84109500D01*
X140433713Y-84109500D01*
X140385042Y-84117208D01*
X140223760Y-84142753D01*
X140021585Y-84208444D01*
X139832179Y-84304951D01*
X139660213Y-84429890D01*
X139509890Y-84580213D01*
X139384948Y-84752184D01*
X139384947Y-84752185D01*
X139364765Y-84791795D01*
X139316791Y-84842591D01*
X139254281Y-84859500D01*
X137735719Y-84859500D01*
X137668680Y-84839815D01*
X137625235Y-84791795D01*
X137605052Y-84752185D01*
X137605051Y-84752184D01*
X137480109Y-84580213D01*
X137329786Y-84429890D01*
X137157820Y-84304951D01*
X136968414Y-84208444D01*
X136968413Y-84208443D01*
X136968412Y-84208443D01*
X136766243Y-84142754D01*
X136766241Y-84142753D01*
X136766240Y-84142753D01*
X136604957Y-84117208D01*
X136556287Y-84109500D01*
X136343713Y-84109500D01*
X136295042Y-84117208D01*
X136133760Y-84142753D01*
X135931585Y-84208444D01*
X135742179Y-84304951D01*
X135570213Y-84429890D01*
X135419890Y-84580213D01*
X135294951Y-84752179D01*
X135198444Y-84941585D01*
X135132753Y-85143760D01*
X135099500Y-85353713D01*
X135099500Y-85566286D01*
X135132754Y-85776246D01*
X135168562Y-85886453D01*
X135170557Y-85956294D01*
X135138312Y-86012451D01*
X133751316Y-87399447D01*
X133689993Y-87432932D01*
X133620301Y-87427948D01*
X133564368Y-87386076D01*
X133553150Y-87368060D01*
X133514626Y-87292452D01*
X133475270Y-87238282D01*
X133475269Y-87238282D01*
X132842962Y-87870590D01*
X132825925Y-87807007D01*
X132760099Y-87692993D01*
X132667007Y-87599901D01*
X132552993Y-87534075D01*
X132489409Y-87517037D01*
X133121716Y-86884728D01*
X133067547Y-86845373D01*
X133067547Y-86845372D01*
X133058500Y-86840763D01*
X133007706Y-86792788D01*
X132990912Y-86724966D01*
X133013451Y-86658832D01*
X133058508Y-86619793D01*
X133067816Y-86615051D01*
X133169351Y-86541282D01*
X133239786Y-86490109D01*
X133239788Y-86490106D01*
X133239792Y-86490104D01*
X133390104Y-86339792D01*
X133390106Y-86339788D01*
X133390109Y-86339786D01*
X133515048Y-86167820D01*
X133515047Y-86167820D01*
X133515051Y-86167816D01*
X133611557Y-85978412D01*
X133677246Y-85776243D01*
X133710500Y-85566287D01*
X133710500Y-85353713D01*
X133677246Y-85143757D01*
X133611557Y-84941588D01*
X133515051Y-84752184D01*
X133515049Y-84752181D01*
X133515048Y-84752179D01*
X133390109Y-84580213D01*
X133239786Y-84429890D01*
X133067820Y-84304951D01*
X132878414Y-84208444D01*
X132878413Y-84208443D01*
X132878412Y-84208443D01*
X132676243Y-84142754D01*
X132676241Y-84142753D01*
X132676240Y-84142753D01*
X132514957Y-84117208D01*
X132466287Y-84109500D01*
X132253713Y-84109500D01*
X132205042Y-84117208D01*
X132043760Y-84142753D01*
X131841585Y-84208444D01*
X131652179Y-84304951D01*
X131480213Y-84429890D01*
X131329890Y-84580213D01*
X131204948Y-84752184D01*
X131204947Y-84752185D01*
X131184765Y-84791795D01*
X131136791Y-84842591D01*
X131074281Y-84859500D01*
X129555719Y-84859500D01*
X129488680Y-84839815D01*
X129445235Y-84791795D01*
X129425052Y-84752185D01*
X129425051Y-84752184D01*
X129300109Y-84580213D01*
X129149786Y-84429890D01*
X128977820Y-84304951D01*
X128788414Y-84208444D01*
X128788413Y-84208443D01*
X128788412Y-84208443D01*
X128586243Y-84142754D01*
X128586241Y-84142753D01*
X128586240Y-84142753D01*
X128424957Y-84117208D01*
X128376287Y-84109500D01*
X128163713Y-84109500D01*
X128115042Y-84117208D01*
X127953760Y-84142753D01*
X127751585Y-84208444D01*
X127562179Y-84304951D01*
X127390213Y-84429890D01*
X127239890Y-84580213D01*
X127114951Y-84752179D01*
X127018444Y-84941585D01*
X126952753Y-85143760D01*
X126925435Y-85316239D01*
X126919500Y-85353713D01*
X126919500Y-85566287D01*
X126921798Y-85580794D01*
X126952753Y-85776239D01*
X126952753Y-85776241D01*
X126952754Y-85776243D01*
X127015324Y-85968814D01*
X127018444Y-85978414D01*
X127114951Y-86167820D01*
X127239890Y-86339786D01*
X127390213Y-86490109D01*
X127562179Y-86615048D01*
X127562181Y-86615049D01*
X127562184Y-86615051D01*
X127571493Y-86619794D01*
X127622290Y-86667766D01*
X127639087Y-86735587D01*
X127616552Y-86801722D01*
X127571505Y-86840760D01*
X127562446Y-86845376D01*
X127562440Y-86845380D01*
X127508282Y-86884727D01*
X127508282Y-86884728D01*
X128140591Y-87517037D01*
X128077007Y-87534075D01*
X127962993Y-87599901D01*
X127869901Y-87692993D01*
X127804075Y-87807007D01*
X127787037Y-87870591D01*
X127154728Y-87238282D01*
X127154727Y-87238282D01*
X127115380Y-87292439D01*
X127018904Y-87481782D01*
X126953242Y-87683869D01*
X126953242Y-87683872D01*
X126920000Y-87893753D01*
X126920000Y-88106246D01*
X126953242Y-88316127D01*
X126953242Y-88316130D01*
X127018904Y-88518217D01*
X127115375Y-88707550D01*
X127154728Y-88761716D01*
X127787037Y-88129408D01*
X127804075Y-88192993D01*
X127869901Y-88307007D01*
X127962993Y-88400099D01*
X128077007Y-88465925D01*
X128140590Y-88482962D01*
X127470370Y-89153181D01*
X127409047Y-89186666D01*
X127382698Y-89189500D01*
X127372134Y-89189500D01*
X127372123Y-89189501D01*
X127312516Y-89195908D01*
X127177671Y-89246202D01*
X127177664Y-89246206D01*
X127062455Y-89332452D01*
X127062452Y-89332455D01*
X126976206Y-89447664D01*
X126976202Y-89447671D01*
X126925908Y-89582517D01*
X126921868Y-89620099D01*
X126919501Y-89642123D01*
X126919500Y-89642135D01*
X126919500Y-91437870D01*
X126919501Y-91437876D01*
X126925908Y-91497483D01*
X126976202Y-91632328D01*
X126976206Y-91632335D01*
X127062452Y-91747544D01*
X127062455Y-91747547D01*
X127177664Y-91833793D01*
X127177671Y-91833797D01*
X127312517Y-91884091D01*
X127312516Y-91884091D01*
X127319444Y-91884835D01*
X127372127Y-91890500D01*
X128960902Y-91890499D01*
X129027941Y-91910184D01*
X129073696Y-91962987D01*
X129083640Y-92032146D01*
X129054615Y-92095702D01*
X129048583Y-92102180D01*
X127494562Y-93656201D01*
X127494555Y-93656208D01*
X127491286Y-93659478D01*
X127491284Y-93659480D01*
X127379480Y-93771284D01*
X127352615Y-93817816D01*
X127300423Y-93908215D01*
X127259499Y-94060943D01*
X127259499Y-94060945D01*
X127259499Y-94229046D01*
X127259500Y-94229059D01*
X127259500Y-97714281D01*
X127239815Y-97781320D01*
X127191795Y-97824765D01*
X127152185Y-97844947D01*
X127152184Y-97844948D01*
X126980213Y-97969890D01*
X126829894Y-98120209D01*
X126829888Y-98120216D01*
X126824815Y-98127199D01*
X126769484Y-98169863D01*
X126699870Y-98175839D01*
X126638076Y-98143231D01*
X126603721Y-98082391D01*
X126600500Y-98054310D01*
X126600500Y-87089059D01*
X126600501Y-87089046D01*
X126600501Y-86920945D01*
X126600501Y-86920943D01*
X126559577Y-86768215D01*
X126559575Y-86768212D01*
X126559575Y-86768210D01*
X126559574Y-86768209D01*
X126525667Y-86709481D01*
X126525665Y-86709479D01*
X126525664Y-86709478D01*
X126480520Y-86631284D01*
X126368716Y-86519480D01*
X126368715Y-86519479D01*
X126364385Y-86515149D01*
X126364374Y-86515139D01*
X125559454Y-85710219D01*
X125525969Y-85648896D01*
X125524662Y-85603144D01*
X125530500Y-85566287D01*
X125530500Y-85353713D01*
X125497246Y-85143757D01*
X125431557Y-84941588D01*
X125335051Y-84752184D01*
X125335049Y-84752181D01*
X125335048Y-84752179D01*
X125210109Y-84580213D01*
X125059786Y-84429890D01*
X124887820Y-84304951D01*
X124698414Y-84208444D01*
X124698413Y-84208443D01*
X124698412Y-84208443D01*
X124496243Y-84142754D01*
X124496241Y-84142753D01*
X124496240Y-84142753D01*
X124334957Y-84117208D01*
X124286287Y-84109500D01*
X124073713Y-84109500D01*
X124025042Y-84117208D01*
X123863760Y-84142753D01*
X123661585Y-84208444D01*
X123472179Y-84304951D01*
X123300213Y-84429890D01*
X123149890Y-84580213D01*
X123024948Y-84752184D01*
X123024947Y-84752185D01*
X123004765Y-84791795D01*
X122956791Y-84842591D01*
X122894281Y-84859500D01*
X121375719Y-84859500D01*
X121308680Y-84839815D01*
X121265235Y-84791795D01*
X121245052Y-84752185D01*
X121245051Y-84752184D01*
X121120109Y-84580213D01*
X120969786Y-84429890D01*
X120797820Y-84304951D01*
X120608414Y-84208444D01*
X120608413Y-84208443D01*
X120608412Y-84208443D01*
X120406243Y-84142754D01*
X120406241Y-84142753D01*
X120406240Y-84142753D01*
X120244957Y-84117208D01*
X120196287Y-84109500D01*
X119983713Y-84109500D01*
X119935042Y-84117208D01*
X119773760Y-84142753D01*
X119571585Y-84208444D01*
X119382179Y-84304951D01*
X119210213Y-84429890D01*
X119059890Y-84580213D01*
X118934951Y-84752179D01*
X118838444Y-84941585D01*
X118772753Y-85143760D01*
X118745435Y-85316239D01*
X118739500Y-85353713D01*
X118739500Y-85566287D01*
X118741798Y-85580794D01*
X118772753Y-85776239D01*
X118772753Y-85776241D01*
X118772754Y-85776243D01*
X118835324Y-85968814D01*
X118838444Y-85978414D01*
X118934951Y-86167820D01*
X119059890Y-86339786D01*
X119210213Y-86490109D01*
X119382179Y-86615048D01*
X119382181Y-86615049D01*
X119382184Y-86615051D01*
X119391493Y-86619794D01*
X119442290Y-86667766D01*
X119459087Y-86735587D01*
X119436552Y-86801722D01*
X119391505Y-86840760D01*
X119382446Y-86845376D01*
X119382440Y-86845380D01*
X119328282Y-86884727D01*
X119328282Y-86884728D01*
X119960591Y-87517037D01*
X119897007Y-87534075D01*
X119782993Y-87599901D01*
X119689901Y-87692993D01*
X119624075Y-87807007D01*
X119607037Y-87870591D01*
X118974728Y-87238282D01*
X118974727Y-87238282D01*
X118935380Y-87292439D01*
X118836694Y-87486121D01*
X118835678Y-87485603D01*
X118795212Y-87535813D01*
X118728916Y-87557872D01*
X118661218Y-87540588D01*
X118613612Y-87489447D01*
X118600500Y-87433951D01*
X118600500Y-87089059D01*
X118600501Y-87089046D01*
X118600501Y-86920945D01*
X118600501Y-86920943D01*
X118559577Y-86768215D01*
X118559575Y-86768212D01*
X118559575Y-86768210D01*
X118559574Y-86768209D01*
X118525667Y-86709481D01*
X118525665Y-86709479D01*
X118525664Y-86709478D01*
X118480520Y-86631284D01*
X118368716Y-86519480D01*
X118368715Y-86519479D01*
X118364385Y-86515149D01*
X118364374Y-86515139D01*
X117386819Y-85537584D01*
X117353334Y-85476261D01*
X117350500Y-85449903D01*
X117350500Y-85353713D01*
X117317246Y-85143760D01*
X117317246Y-85143757D01*
X117251557Y-84941588D01*
X117155051Y-84752184D01*
X117155049Y-84752181D01*
X117155048Y-84752179D01*
X117030109Y-84580213D01*
X116879786Y-84429890D01*
X116707820Y-84304951D01*
X116518414Y-84208444D01*
X116518413Y-84208443D01*
X116518412Y-84208443D01*
X116316243Y-84142754D01*
X116316241Y-84142753D01*
X116316240Y-84142753D01*
X116154957Y-84117208D01*
X116106287Y-84109500D01*
X115893713Y-84109500D01*
X115845042Y-84117208D01*
X115683760Y-84142753D01*
X115481585Y-84208444D01*
X115292179Y-84304951D01*
X115120213Y-84429890D01*
X114969890Y-84580213D01*
X114844948Y-84752184D01*
X114844947Y-84752185D01*
X114824765Y-84791795D01*
X114776791Y-84842591D01*
X114714281Y-84859500D01*
X113195719Y-84859500D01*
X113128680Y-84839815D01*
X113085235Y-84791795D01*
X113065052Y-84752185D01*
X113065051Y-84752184D01*
X112940109Y-84580213D01*
X112789786Y-84429890D01*
X112617820Y-84304951D01*
X112428414Y-84208444D01*
X112428413Y-84208443D01*
X112428412Y-84208443D01*
X112226243Y-84142754D01*
X112226241Y-84142753D01*
X112226240Y-84142753D01*
X112064957Y-84117208D01*
X112016287Y-84109500D01*
X111803713Y-84109500D01*
X111755042Y-84117208D01*
X111593760Y-84142753D01*
X111391585Y-84208444D01*
X111202179Y-84304951D01*
X111030213Y-84429890D01*
X110879890Y-84580213D01*
X110754951Y-84752179D01*
X110658444Y-84941585D01*
X110592753Y-85143760D01*
X110565435Y-85316239D01*
X110559500Y-85353713D01*
X110559500Y-85566287D01*
X110561798Y-85580794D01*
X110592753Y-85776239D01*
X110592753Y-85776241D01*
X110592754Y-85776243D01*
X110655324Y-85968814D01*
X110658444Y-85978414D01*
X110754951Y-86167820D01*
X110879890Y-86339786D01*
X111030213Y-86490109D01*
X111202179Y-86615048D01*
X111202181Y-86615049D01*
X111202184Y-86615051D01*
X111211493Y-86619794D01*
X111262290Y-86667766D01*
X111279087Y-86735587D01*
X111256552Y-86801722D01*
X111211505Y-86840760D01*
X111202446Y-86845376D01*
X111202440Y-86845380D01*
X111148282Y-86884727D01*
X111148282Y-86884728D01*
X111780591Y-87517037D01*
X111717007Y-87534075D01*
X111602993Y-87599901D01*
X111509901Y-87692993D01*
X111444075Y-87807007D01*
X111427037Y-87870591D01*
X110794728Y-87238282D01*
X110794727Y-87238282D01*
X110755380Y-87292439D01*
X110735933Y-87330606D01*
X110687957Y-87381401D01*
X110620136Y-87398195D01*
X110554001Y-87375656D01*
X110518061Y-87336308D01*
X110492741Y-87292452D01*
X110480520Y-87271284D01*
X109153756Y-85944521D01*
X109120272Y-85883199D01*
X109123507Y-85818523D01*
X109137246Y-85776243D01*
X109170500Y-85566287D01*
X109170500Y-85353713D01*
X109137246Y-85143757D01*
X109071557Y-84941588D01*
X108975051Y-84752184D01*
X108975049Y-84752181D01*
X108975048Y-84752179D01*
X108850109Y-84580213D01*
X108699786Y-84429890D01*
X108527820Y-84304951D01*
X108338414Y-84208444D01*
X108338413Y-84208443D01*
X108338412Y-84208443D01*
X108136243Y-84142754D01*
X108136241Y-84142753D01*
X108136240Y-84142753D01*
X107974957Y-84117208D01*
X107926287Y-84109500D01*
X107713713Y-84109500D01*
X107665042Y-84117208D01*
X107503760Y-84142753D01*
X107301585Y-84208444D01*
X107112179Y-84304951D01*
X106940213Y-84429890D01*
X106789890Y-84580213D01*
X106664948Y-84752184D01*
X106664947Y-84752185D01*
X106644765Y-84791795D01*
X106596791Y-84842591D01*
X106534281Y-84859500D01*
X105015719Y-84859500D01*
X104948680Y-84839815D01*
X104905235Y-84791795D01*
X104885052Y-84752185D01*
X104885051Y-84752184D01*
X104760109Y-84580213D01*
X104609786Y-84429890D01*
X104437820Y-84304951D01*
X104248414Y-84208444D01*
X104248413Y-84208443D01*
X104248412Y-84208443D01*
X104046243Y-84142754D01*
X104046241Y-84142753D01*
X104046240Y-84142753D01*
X103884957Y-84117208D01*
X103836287Y-84109500D01*
X103623713Y-84109500D01*
X103575042Y-84117208D01*
X103413760Y-84142753D01*
X103211585Y-84208444D01*
X103022179Y-84304951D01*
X102850213Y-84429890D01*
X102699890Y-84580213D01*
X102574951Y-84752179D01*
X102478444Y-84941585D01*
X102412753Y-85143760D01*
X102385435Y-85316239D01*
X102379500Y-85353713D01*
X102379500Y-85566287D01*
X102381798Y-85580794D01*
X102412753Y-85776239D01*
X102412753Y-85776241D01*
X102412754Y-85776243D01*
X102475324Y-85968814D01*
X102478444Y-85978414D01*
X102574951Y-86167820D01*
X102699890Y-86339786D01*
X102850213Y-86490109D01*
X103022179Y-86615048D01*
X103022181Y-86615049D01*
X103022184Y-86615051D01*
X103031493Y-86619794D01*
X103082290Y-86667766D01*
X103099087Y-86735587D01*
X103076552Y-86801722D01*
X103031505Y-86840760D01*
X103022446Y-86845376D01*
X103022440Y-86845380D01*
X102968282Y-86884727D01*
X102968282Y-86884728D01*
X103600591Y-87517037D01*
X103537007Y-87534075D01*
X103422993Y-87599901D01*
X103329901Y-87692993D01*
X103264075Y-87807007D01*
X103247037Y-87870591D01*
X102614728Y-87238282D01*
X102614727Y-87238282D01*
X102575380Y-87292439D01*
X102478904Y-87481782D01*
X102413242Y-87683869D01*
X102413242Y-87683872D01*
X102380000Y-87893753D01*
X102380000Y-88106246D01*
X102413242Y-88316127D01*
X102413242Y-88316130D01*
X102478904Y-88518217D01*
X102575375Y-88707550D01*
X102614728Y-88761716D01*
X103247037Y-88129408D01*
X103264075Y-88192993D01*
X103329901Y-88307007D01*
X103422993Y-88400099D01*
X103537007Y-88465925D01*
X103600590Y-88482962D01*
X102930370Y-89153181D01*
X102869047Y-89186666D01*
X102842698Y-89189500D01*
X102832134Y-89189500D01*
X102832123Y-89189501D01*
X102772516Y-89195908D01*
X102637671Y-89246202D01*
X102637664Y-89246206D01*
X102522455Y-89332452D01*
X102522452Y-89332455D01*
X102436206Y-89447664D01*
X102436202Y-89447671D01*
X102385908Y-89582517D01*
X102381868Y-89620099D01*
X102379501Y-89642123D01*
X102379500Y-89642135D01*
X102379500Y-91437870D01*
X102379501Y-91437876D01*
X102385908Y-91497483D01*
X102436202Y-91632328D01*
X102436206Y-91632335D01*
X102522452Y-91747544D01*
X102522455Y-91747547D01*
X102637664Y-91833793D01*
X102637671Y-91833797D01*
X102772517Y-91884091D01*
X102772516Y-91884091D01*
X102779444Y-91884835D01*
X102832127Y-91890500D01*
X104627872Y-91890499D01*
X104687483Y-91884091D01*
X104822331Y-91833796D01*
X104937546Y-91747546D01*
X105023796Y-91632331D01*
X105074091Y-91497483D01*
X105080500Y-91437873D01*
X105080499Y-89642128D01*
X105074091Y-89582517D01*
X105066507Y-89562184D01*
X105023797Y-89447671D01*
X105023793Y-89447664D01*
X104937547Y-89332455D01*
X104937544Y-89332452D01*
X104822335Y-89246206D01*
X104822328Y-89246202D01*
X104687482Y-89195908D01*
X104687483Y-89195908D01*
X104627883Y-89189501D01*
X104627881Y-89189500D01*
X104627873Y-89189500D01*
X104627865Y-89189500D01*
X104617309Y-89189500D01*
X104550270Y-89169815D01*
X104529628Y-89153181D01*
X103859408Y-88482962D01*
X103922993Y-88465925D01*
X104037007Y-88400099D01*
X104130099Y-88307007D01*
X104195925Y-88192993D01*
X104212962Y-88129408D01*
X104845270Y-88761717D01*
X104845270Y-88761716D01*
X104884622Y-88707554D01*
X104981095Y-88518217D01*
X105046757Y-88316130D01*
X105046757Y-88316127D01*
X105080000Y-88106246D01*
X105080000Y-87893753D01*
X105046757Y-87683872D01*
X105046757Y-87683869D01*
X104981095Y-87481782D01*
X104884624Y-87292449D01*
X104845270Y-87238282D01*
X104845269Y-87238282D01*
X104212962Y-87870590D01*
X104195925Y-87807007D01*
X104130099Y-87692993D01*
X104037007Y-87599901D01*
X103922993Y-87534075D01*
X103859409Y-87517037D01*
X104491716Y-86884728D01*
X104437547Y-86845373D01*
X104437547Y-86845372D01*
X104428500Y-86840763D01*
X104377706Y-86792788D01*
X104360912Y-86724966D01*
X104383451Y-86658832D01*
X104428508Y-86619793D01*
X104437816Y-86615051D01*
X104539351Y-86541282D01*
X104609786Y-86490109D01*
X104609788Y-86490106D01*
X104609792Y-86490104D01*
X104760104Y-86339792D01*
X104760106Y-86339788D01*
X104760109Y-86339786D01*
X104824546Y-86251095D01*
X104885051Y-86167816D01*
X104891774Y-86154622D01*
X104905235Y-86128205D01*
X104953209Y-86077409D01*
X105015719Y-86060500D01*
X106534281Y-86060500D01*
X106601320Y-86080185D01*
X106644765Y-86128205D01*
X106664947Y-86167814D01*
X106664948Y-86167815D01*
X106789890Y-86339786D01*
X106940213Y-86490109D01*
X107112179Y-86615048D01*
X107112181Y-86615049D01*
X107112184Y-86615051D01*
X107121493Y-86619794D01*
X107172290Y-86667766D01*
X107189087Y-86735587D01*
X107166552Y-86801722D01*
X107121505Y-86840760D01*
X107112446Y-86845376D01*
X107112440Y-86845380D01*
X107058282Y-86884727D01*
X107058282Y-86884728D01*
X107690591Y-87517037D01*
X107627007Y-87534075D01*
X107512993Y-87599901D01*
X107419901Y-87692993D01*
X107354075Y-87807007D01*
X107337037Y-87870591D01*
X106704728Y-87238282D01*
X106704727Y-87238282D01*
X106665380Y-87292439D01*
X106568904Y-87481782D01*
X106503242Y-87683869D01*
X106503242Y-87683872D01*
X106470000Y-87893753D01*
X106470000Y-88106246D01*
X106503242Y-88316127D01*
X106503242Y-88316130D01*
X106568904Y-88518217D01*
X106665375Y-88707550D01*
X106704728Y-88761716D01*
X107337037Y-88129408D01*
X107354075Y-88192993D01*
X107419901Y-88307007D01*
X107512993Y-88400099D01*
X107627007Y-88465925D01*
X107690590Y-88482962D01*
X107020370Y-89153181D01*
X106959047Y-89186666D01*
X106932698Y-89189500D01*
X106922134Y-89189500D01*
X106922123Y-89189501D01*
X106862516Y-89195908D01*
X106727671Y-89246202D01*
X106727664Y-89246206D01*
X106612455Y-89332452D01*
X106612452Y-89332455D01*
X106526206Y-89447664D01*
X106526202Y-89447671D01*
X106475908Y-89582517D01*
X106471868Y-89620099D01*
X106469501Y-89642123D01*
X106469500Y-89642135D01*
X106469500Y-91437870D01*
X106469501Y-91437876D01*
X106475908Y-91497483D01*
X106526202Y-91632328D01*
X106526206Y-91632335D01*
X106612452Y-91747544D01*
X106612455Y-91747547D01*
X106727664Y-91833793D01*
X106727671Y-91833797D01*
X106862517Y-91884091D01*
X106862516Y-91884091D01*
X106869444Y-91884835D01*
X106922127Y-91890500D01*
X108717872Y-91890499D01*
X108777483Y-91884091D01*
X108912331Y-91833796D01*
X109027546Y-91747546D01*
X109113796Y-91632331D01*
X109159318Y-91510279D01*
X109201189Y-91454346D01*
X109266653Y-91429929D01*
X109334926Y-91444780D01*
X109384332Y-91494185D01*
X109399500Y-91553613D01*
X109399500Y-92913330D01*
X109399499Y-92913348D01*
X109399499Y-93079054D01*
X109399498Y-93079054D01*
X109440423Y-93231785D01*
X109469358Y-93281900D01*
X109469359Y-93281904D01*
X109469360Y-93281904D01*
X109516284Y-93363181D01*
X109519479Y-93368714D01*
X109519481Y-93368717D01*
X109638349Y-93487585D01*
X109638355Y-93487590D01*
X110338583Y-94187819D01*
X110372068Y-94249142D01*
X110367084Y-94318834D01*
X110325212Y-94374767D01*
X110259748Y-94399184D01*
X110250902Y-94399500D01*
X103300097Y-94399500D01*
X103233058Y-94379815D01*
X103212416Y-94363181D01*
X101636819Y-92787584D01*
X101603334Y-92726261D01*
X101600500Y-92699903D01*
X101600500Y-86740945D01*
X101600500Y-86740943D01*
X101559577Y-86588216D01*
X101559573Y-86588209D01*
X101480524Y-86451290D01*
X101480521Y-86451286D01*
X101480520Y-86451284D01*
X101368716Y-86339480D01*
X101368715Y-86339479D01*
X101364385Y-86335149D01*
X101364374Y-86335139D01*
X100973757Y-85944522D01*
X100940272Y-85883199D01*
X100943507Y-85818523D01*
X100957246Y-85776243D01*
X100990500Y-85566287D01*
X100990500Y-85353713D01*
X100957246Y-85143757D01*
X100891557Y-84941588D01*
X100795051Y-84752184D01*
X100795049Y-84752181D01*
X100795048Y-84752179D01*
X100670109Y-84580213D01*
X100519786Y-84429890D01*
X100347820Y-84304951D01*
X100158414Y-84208444D01*
X100158413Y-84208443D01*
X100158412Y-84208443D01*
X99956243Y-84142754D01*
X99956241Y-84142753D01*
X99956240Y-84142753D01*
X99794957Y-84117208D01*
X99746287Y-84109500D01*
X99533713Y-84109500D01*
X99485042Y-84117208D01*
X99323760Y-84142753D01*
X99121585Y-84208444D01*
X98932179Y-84304951D01*
X98760213Y-84429890D01*
X98609890Y-84580213D01*
X98484951Y-84752179D01*
X98388444Y-84941585D01*
X98322753Y-85143760D01*
X98295435Y-85316239D01*
X98289500Y-85353713D01*
X98289500Y-85566287D01*
X98291798Y-85580794D01*
X98322753Y-85776239D01*
X98322753Y-85776241D01*
X98322754Y-85776243D01*
X98385324Y-85968814D01*
X98388444Y-85978414D01*
X98484951Y-86167820D01*
X98609890Y-86339786D01*
X98760213Y-86490109D01*
X98932179Y-86615048D01*
X98932181Y-86615049D01*
X98932184Y-86615051D01*
X98941493Y-86619794D01*
X98992290Y-86667766D01*
X99009087Y-86735587D01*
X98986552Y-86801722D01*
X98941505Y-86840760D01*
X98932446Y-86845376D01*
X98932440Y-86845380D01*
X98878282Y-86884727D01*
X98878282Y-86884728D01*
X99510591Y-87517037D01*
X99447007Y-87534075D01*
X99332993Y-87599901D01*
X99239901Y-87692993D01*
X99174075Y-87807007D01*
X99157037Y-87870591D01*
X98524728Y-87238282D01*
X98524727Y-87238282D01*
X98485380Y-87292439D01*
X98388904Y-87481782D01*
X98323242Y-87683869D01*
X98323242Y-87683872D01*
X98290000Y-87893753D01*
X98290000Y-88106246D01*
X98323242Y-88316127D01*
X98323242Y-88316130D01*
X98388904Y-88518217D01*
X98485375Y-88707550D01*
X98524728Y-88761716D01*
X99157037Y-88129408D01*
X99174075Y-88192993D01*
X99239901Y-88307007D01*
X99332993Y-88400099D01*
X99447007Y-88465925D01*
X99510589Y-88482962D01*
X98840370Y-89153181D01*
X98779047Y-89186666D01*
X98752698Y-89189500D01*
X98742134Y-89189500D01*
X98742123Y-89189501D01*
X98682516Y-89195908D01*
X98547671Y-89246202D01*
X98547664Y-89246206D01*
X98432455Y-89332452D01*
X98432452Y-89332455D01*
X98346206Y-89447664D01*
X98346202Y-89447671D01*
X98295908Y-89582517D01*
X98291868Y-89620099D01*
X98289501Y-89642123D01*
X98289500Y-89642135D01*
X98289500Y-91437870D01*
X98289501Y-91437876D01*
X98295908Y-91497483D01*
X98346202Y-91632328D01*
X98346206Y-91632335D01*
X98432452Y-91747544D01*
X98432455Y-91747547D01*
X98547664Y-91833793D01*
X98547671Y-91833797D01*
X98682517Y-91884091D01*
X98682516Y-91884091D01*
X98689444Y-91884835D01*
X98742127Y-91890500D01*
X100275500Y-91890499D01*
X100342539Y-91910184D01*
X100388294Y-91962987D01*
X100399500Y-92014499D01*
X100399500Y-92913330D01*
X100399499Y-92913348D01*
X100399499Y-93079054D01*
X100399498Y-93079054D01*
X100440423Y-93231785D01*
X100469358Y-93281900D01*
X100469359Y-93281904D01*
X100469360Y-93281904D01*
X100516284Y-93363181D01*
X100519479Y-93368714D01*
X100519481Y-93368717D01*
X100638349Y-93487585D01*
X100638355Y-93487590D01*
X102338584Y-95187819D01*
X102372069Y-95249142D01*
X102367085Y-95318834D01*
X102325213Y-95374767D01*
X102259749Y-95399184D01*
X102250903Y-95399500D01*
X99300097Y-95399500D01*
X99233058Y-95379815D01*
X99212416Y-95363181D01*
X97636819Y-93787584D01*
X97603334Y-93726261D01*
X97600500Y-93699903D01*
X97600500Y-86999060D01*
X97600501Y-86999047D01*
X97600501Y-86830944D01*
X97597913Y-86821284D01*
X97559577Y-86678216D01*
X97548386Y-86658832D01*
X97480524Y-86541290D01*
X97480518Y-86541282D01*
X97190331Y-86251095D01*
X96883756Y-85944521D01*
X96850272Y-85883199D01*
X96853507Y-85818523D01*
X96867246Y-85776243D01*
X96900500Y-85566287D01*
X96900500Y-85353713D01*
X96867246Y-85143757D01*
X96801557Y-84941588D01*
X96705051Y-84752184D01*
X96705049Y-84752181D01*
X96705048Y-84752179D01*
X96580109Y-84580213D01*
X96429786Y-84429890D01*
X96257820Y-84304951D01*
X96068414Y-84208444D01*
X96068413Y-84208443D01*
X96068412Y-84208443D01*
X95866243Y-84142754D01*
X95866241Y-84142753D01*
X95866240Y-84142753D01*
X95704957Y-84117208D01*
X95656287Y-84109500D01*
X95443713Y-84109500D01*
X95395042Y-84117208D01*
X95233760Y-84142753D01*
X95031585Y-84208444D01*
X94842179Y-84304951D01*
X94670213Y-84429890D01*
X94519890Y-84580213D01*
X94394951Y-84752179D01*
X94298444Y-84941585D01*
X94232753Y-85143760D01*
X94205435Y-85316239D01*
X94199500Y-85353713D01*
X94199500Y-85566287D01*
X94201798Y-85580794D01*
X94232753Y-85776239D01*
X94232753Y-85776241D01*
X94232754Y-85776243D01*
X94295324Y-85968814D01*
X94298444Y-85978414D01*
X94394951Y-86167820D01*
X94519890Y-86339786D01*
X94670213Y-86490109D01*
X94842179Y-86615048D01*
X94842181Y-86615049D01*
X94842184Y-86615051D01*
X94851493Y-86619794D01*
X94902290Y-86667766D01*
X94919087Y-86735587D01*
X94896552Y-86801722D01*
X94851505Y-86840760D01*
X94842446Y-86845376D01*
X94842440Y-86845380D01*
X94788282Y-86884727D01*
X94788282Y-86884728D01*
X95420591Y-87517037D01*
X95357007Y-87534075D01*
X95242993Y-87599901D01*
X95149901Y-87692993D01*
X95084075Y-87807007D01*
X95067037Y-87870591D01*
X94434728Y-87238282D01*
X94434727Y-87238282D01*
X94395380Y-87292439D01*
X94298904Y-87481782D01*
X94233242Y-87683869D01*
X94233242Y-87683872D01*
X94200000Y-87893753D01*
X94200000Y-88106246D01*
X94233242Y-88316127D01*
X94233242Y-88316130D01*
X94298904Y-88518217D01*
X94395375Y-88707550D01*
X94434728Y-88761716D01*
X95067037Y-88129408D01*
X95084075Y-88192993D01*
X95149901Y-88307007D01*
X95242993Y-88400099D01*
X95357007Y-88465925D01*
X95420589Y-88482962D01*
X94750370Y-89153181D01*
X94689047Y-89186666D01*
X94662698Y-89189500D01*
X94652134Y-89189500D01*
X94652123Y-89189501D01*
X94592516Y-89195908D01*
X94457671Y-89246202D01*
X94457664Y-89246206D01*
X94342455Y-89332452D01*
X94342452Y-89332455D01*
X94256206Y-89447664D01*
X94256202Y-89447671D01*
X94205908Y-89582517D01*
X94201868Y-89620099D01*
X94199501Y-89642123D01*
X94199500Y-89642135D01*
X94199500Y-91437870D01*
X94199501Y-91437876D01*
X94205908Y-91497483D01*
X94256202Y-91632328D01*
X94256206Y-91632335D01*
X94342452Y-91747544D01*
X94342455Y-91747547D01*
X94457664Y-91833793D01*
X94457671Y-91833797D01*
X94592517Y-91884091D01*
X94592516Y-91884091D01*
X94599444Y-91884835D01*
X94652127Y-91890500D01*
X96275500Y-91890499D01*
X96342539Y-91910184D01*
X96388294Y-91962987D01*
X96399500Y-92014499D01*
X96399500Y-93913330D01*
X96399499Y-93913348D01*
X96399499Y-94079054D01*
X96399498Y-94079054D01*
X96416460Y-94142356D01*
X96440423Y-94231785D01*
X96451228Y-94250500D01*
X96469358Y-94281900D01*
X96469359Y-94281904D01*
X96469360Y-94281904D01*
X96516284Y-94363181D01*
X96519479Y-94368714D01*
X96519481Y-94368717D01*
X96638349Y-94487585D01*
X96638355Y-94487590D01*
X98515139Y-96364374D01*
X98515149Y-96364385D01*
X98519479Y-96368715D01*
X98519480Y-96368716D01*
X98631284Y-96480520D01*
X98682845Y-96510288D01*
X98718095Y-96530639D01*
X98718097Y-96530641D01*
X98756151Y-96552611D01*
X98768215Y-96559577D01*
X98920943Y-96600500D01*
X111699903Y-96600500D01*
X111766942Y-96620185D01*
X111787584Y-96636819D01*
X112589162Y-97438398D01*
X112622647Y-97499721D01*
X112617663Y-97569413D01*
X112575791Y-97625346D01*
X112518257Y-97647049D01*
X112518525Y-97648738D01*
X112513714Y-97649500D01*
X112513713Y-97649500D01*
X112475244Y-97655593D01*
X112303760Y-97682753D01*
X112303757Y-97682754D01*
X112140718Y-97735729D01*
X112101585Y-97748444D01*
X111912179Y-97844951D01*
X111740213Y-97969890D01*
X111589890Y-98120213D01*
X111464949Y-98292182D01*
X111460484Y-98300946D01*
X111412509Y-98351742D01*
X111344688Y-98368536D01*
X111278553Y-98345998D01*
X111239516Y-98300946D01*
X111235050Y-98292182D01*
X111110109Y-98120213D01*
X110959786Y-97969890D01*
X110787820Y-97844951D01*
X110598414Y-97748444D01*
X110598413Y-97748443D01*
X110598412Y-97748443D01*
X110396243Y-97682754D01*
X110396241Y-97682753D01*
X110396240Y-97682753D01*
X110234957Y-97657208D01*
X110186287Y-97649500D01*
X109973713Y-97649500D01*
X109925042Y-97657208D01*
X109763760Y-97682753D01*
X109763757Y-97682754D01*
X109600718Y-97735729D01*
X109561585Y-97748444D01*
X109372179Y-97844951D01*
X109200213Y-97969890D01*
X109049890Y-98120213D01*
X108924949Y-98292182D01*
X108920484Y-98300946D01*
X108872509Y-98351742D01*
X108804688Y-98368536D01*
X108738553Y-98345998D01*
X108699516Y-98300946D01*
X108695050Y-98292182D01*
X108570109Y-98120213D01*
X108419786Y-97969890D01*
X108247820Y-97844951D01*
X108058414Y-97748444D01*
X108058413Y-97748443D01*
X108058412Y-97748443D01*
X107856243Y-97682754D01*
X107856241Y-97682753D01*
X107856240Y-97682753D01*
X107694957Y-97657208D01*
X107646287Y-97649500D01*
X107433713Y-97649500D01*
X107385042Y-97657208D01*
X107223760Y-97682753D01*
X107223757Y-97682754D01*
X107060718Y-97735729D01*
X107021585Y-97748444D01*
X106832179Y-97844951D01*
X106660213Y-97969890D01*
X106509890Y-98120213D01*
X106384949Y-98292182D01*
X106380484Y-98300946D01*
X106332509Y-98351742D01*
X106264688Y-98368536D01*
X106198553Y-98345998D01*
X106159516Y-98300946D01*
X106155050Y-98292182D01*
X106030109Y-98120213D01*
X105879786Y-97969890D01*
X105707820Y-97844951D01*
X105518414Y-97748444D01*
X105518413Y-97748443D01*
X105518412Y-97748443D01*
X105316243Y-97682754D01*
X105316241Y-97682753D01*
X105316240Y-97682753D01*
X105154957Y-97657208D01*
X105106287Y-97649500D01*
X104893713Y-97649500D01*
X104845042Y-97657208D01*
X104683760Y-97682753D01*
X104683757Y-97682754D01*
X104520718Y-97735729D01*
X104481585Y-97748444D01*
X104292179Y-97844951D01*
X104120213Y-97969890D01*
X103969890Y-98120213D01*
X103844951Y-98292179D01*
X103748444Y-98481585D01*
X103682753Y-98683760D01*
X103649500Y-98893713D01*
X103649500Y-99106286D01*
X103679415Y-99295165D01*
X103682754Y-99316243D01*
X103741386Y-99496694D01*
X103748444Y-99518414D01*
X103844951Y-99707820D01*
X103969890Y-99879786D01*
X104120213Y-100030109D01*
X104292182Y-100155050D01*
X104311739Y-100165015D01*
X104362536Y-100212989D01*
X104379331Y-100280810D01*
X104356794Y-100346945D01*
X104302079Y-100390397D01*
X104255445Y-100399500D01*
X97300098Y-100399500D01*
X97233059Y-100379815D01*
X97212417Y-100363181D01*
X96405564Y-99556328D01*
X96372079Y-99495005D01*
X96377063Y-99425313D01*
X96382756Y-99412360D01*
X96430005Y-99319632D01*
X96491413Y-99130636D01*
X96522500Y-98934361D01*
X96522500Y-98735639D01*
X96491413Y-98539364D01*
X96435908Y-98368536D01*
X96430006Y-98350370D01*
X96430005Y-98350367D01*
X96374250Y-98240943D01*
X96339787Y-98173306D01*
X96222981Y-98012536D01*
X96082464Y-97872019D01*
X95921694Y-97755213D01*
X95910509Y-97749514D01*
X95744632Y-97664994D01*
X95744629Y-97664993D01*
X95555637Y-97603587D01*
X95407907Y-97580189D01*
X95359361Y-97572500D01*
X95160639Y-97572500D01*
X95112093Y-97580189D01*
X94964362Y-97603587D01*
X94775370Y-97664993D01*
X94775367Y-97664994D01*
X94598305Y-97755213D01*
X94437533Y-97872021D01*
X94297021Y-98012533D01*
X94180213Y-98173305D01*
X94100485Y-98329780D01*
X94052510Y-98380576D01*
X93984689Y-98397371D01*
X93918554Y-98374833D01*
X93879515Y-98329780D01*
X93834250Y-98240943D01*
X93799787Y-98173306D01*
X93682981Y-98012536D01*
X93542464Y-97872019D01*
X93381694Y-97755213D01*
X93370509Y-97749514D01*
X93204632Y-97664994D01*
X93204629Y-97664993D01*
X93015637Y-97603587D01*
X92867907Y-97580189D01*
X92819361Y-97572500D01*
X92620639Y-97572500D01*
X92572093Y-97580189D01*
X92424362Y-97603587D01*
X92235370Y-97664993D01*
X92235367Y-97664994D01*
X92058305Y-97755213D01*
X91897533Y-97872021D01*
X91757021Y-98012533D01*
X91640213Y-98173305D01*
X91560485Y-98329780D01*
X91512510Y-98380576D01*
X91444689Y-98397371D01*
X91378554Y-98374833D01*
X91339515Y-98329780D01*
X91294250Y-98240943D01*
X91259787Y-98173306D01*
X91142981Y-98012536D01*
X91002464Y-97872019D01*
X90841694Y-97755213D01*
X90830509Y-97749514D01*
X90664632Y-97664994D01*
X90664629Y-97664993D01*
X90475637Y-97603587D01*
X90327907Y-97580189D01*
X90279361Y-97572500D01*
X90080639Y-97572500D01*
X90032093Y-97580189D01*
X89884362Y-97603587D01*
X89695370Y-97664993D01*
X89695367Y-97664994D01*
X89518305Y-97755213D01*
X89357533Y-97872021D01*
X89217021Y-98012533D01*
X89100213Y-98173305D01*
X89020485Y-98329780D01*
X88972510Y-98380576D01*
X88904689Y-98397371D01*
X88838554Y-98374833D01*
X88799515Y-98329780D01*
X88754250Y-98240943D01*
X88719787Y-98173306D01*
X88602981Y-98012536D01*
X88462464Y-97872019D01*
X88301694Y-97755213D01*
X88290509Y-97749514D01*
X88124632Y-97664994D01*
X88124629Y-97664993D01*
X87935637Y-97603587D01*
X87787907Y-97580189D01*
X87739361Y-97572500D01*
X87540639Y-97572500D01*
X87492093Y-97580189D01*
X87344362Y-97603587D01*
X87155370Y-97664993D01*
X87155367Y-97664994D01*
X86978305Y-97755213D01*
X86817533Y-97872021D01*
X86677021Y-98012533D01*
X86560213Y-98173305D01*
X86480485Y-98329780D01*
X86432510Y-98380576D01*
X86364689Y-98397371D01*
X86298554Y-98374833D01*
X86259515Y-98329780D01*
X86214250Y-98240943D01*
X86179787Y-98173306D01*
X86062981Y-98012536D01*
X85922464Y-97872019D01*
X85761694Y-97755213D01*
X85750509Y-97749514D01*
X85584632Y-97664994D01*
X85584629Y-97664993D01*
X85395637Y-97603587D01*
X85247907Y-97580189D01*
X85199361Y-97572500D01*
X85000639Y-97572500D01*
X84952093Y-97580189D01*
X84804362Y-97603587D01*
X84615370Y-97664993D01*
X84615367Y-97664994D01*
X84438305Y-97755213D01*
X84277533Y-97872021D01*
X84137021Y-98012533D01*
X84020213Y-98173305D01*
X83940204Y-98330331D01*
X83892229Y-98381127D01*
X83824408Y-98397922D01*
X83758273Y-98375384D01*
X83719234Y-98330331D01*
X83639358Y-98173567D01*
X83612268Y-98136283D01*
X82997647Y-98750904D01*
X82974208Y-98663429D01*
X82915689Y-98562070D01*
X82832930Y-98479311D01*
X82731571Y-98420792D01*
X82644094Y-98397352D01*
X83258716Y-97782731D01*
X83258715Y-97782730D01*
X83221432Y-97755641D01*
X83044437Y-97665457D01*
X82855522Y-97604075D01*
X82659321Y-97573000D01*
X82460679Y-97573000D01*
X82264479Y-97604075D01*
X82264476Y-97604075D01*
X82075562Y-97665457D01*
X81898564Y-97755643D01*
X81861283Y-97782729D01*
X81861282Y-97782730D01*
X82475906Y-98397352D01*
X82388429Y-98420792D01*
X82287070Y-98479311D01*
X82204311Y-98562070D01*
X82145792Y-98663429D01*
X82122352Y-98750905D01*
X81507730Y-98136282D01*
X81507729Y-98136283D01*
X81480641Y-98173566D01*
X81400764Y-98330332D01*
X81352790Y-98381127D01*
X81284969Y-98397922D01*
X81218834Y-98375384D01*
X81179796Y-98330332D01*
X81099787Y-98173306D01*
X80982981Y-98012536D01*
X80842464Y-97872019D01*
X80681694Y-97755213D01*
X80670509Y-97749514D01*
X80504632Y-97664994D01*
X80504629Y-97664993D01*
X80315637Y-97603587D01*
X80167907Y-97580189D01*
X80119361Y-97572500D01*
X79920639Y-97572500D01*
X79872093Y-97580189D01*
X79724362Y-97603587D01*
X79535370Y-97664993D01*
X79535367Y-97664994D01*
X79358305Y-97755213D01*
X79197533Y-97872021D01*
X79057021Y-98012533D01*
X78940213Y-98173305D01*
X78849994Y-98350367D01*
X78849993Y-98350370D01*
X78788587Y-98539362D01*
X78757500Y-98735639D01*
X74500500Y-98735639D01*
X74500500Y-92901577D01*
X78749500Y-92901577D01*
X78749500Y-93098422D01*
X78780290Y-93292826D01*
X78841117Y-93480029D01*
X78918186Y-93631284D01*
X78930476Y-93655405D01*
X79046172Y-93814646D01*
X79185354Y-93953828D01*
X79344595Y-94069524D01*
X79363305Y-94079057D01*
X79519970Y-94158882D01*
X79519972Y-94158882D01*
X79519975Y-94158884D01*
X79609027Y-94187819D01*
X79707173Y-94219709D01*
X79901578Y-94250500D01*
X79901583Y-94250500D01*
X80098422Y-94250500D01*
X80292826Y-94219709D01*
X80294833Y-94219057D01*
X80480025Y-94158884D01*
X80655405Y-94069524D01*
X80814646Y-93953828D01*
X80953828Y-93814646D01*
X81069524Y-93655405D01*
X81158884Y-93480025D01*
X81219709Y-93292826D01*
X81221439Y-93281904D01*
X81250500Y-93098422D01*
X81250500Y-92901577D01*
X81219709Y-92707173D01*
X81158882Y-92519970D01*
X81081814Y-92368716D01*
X81069524Y-92344595D01*
X80953828Y-92185354D01*
X80814646Y-92046172D01*
X80655405Y-91930476D01*
X80654879Y-91930208D01*
X80480029Y-91841117D01*
X80292826Y-91780290D01*
X80098422Y-91749500D01*
X80098417Y-91749500D01*
X79901583Y-91749500D01*
X79901578Y-91749500D01*
X79707173Y-91780290D01*
X79519970Y-91841117D01*
X79344594Y-91930476D01*
X79253741Y-91996485D01*
X79185354Y-92046172D01*
X79185352Y-92046174D01*
X79185351Y-92046174D01*
X79046174Y-92185351D01*
X79046174Y-92185352D01*
X79046172Y-92185354D01*
X79012438Y-92231785D01*
X78930476Y-92344594D01*
X78841117Y-92519970D01*
X78780290Y-92707173D01*
X78749500Y-92901577D01*
X74500500Y-92901577D01*
X74500500Y-89592634D01*
X85969500Y-89592634D01*
X85969500Y-90792652D01*
X85969501Y-90792669D01*
X85980000Y-90895447D01*
X85980001Y-90895450D01*
X86007295Y-90977816D01*
X86035186Y-91061985D01*
X86127288Y-91211307D01*
X86251344Y-91335363D01*
X86400666Y-91427465D01*
X86567203Y-91482650D01*
X86669991Y-91493151D01*
X87870008Y-91493150D01*
X87972797Y-91482650D01*
X88139334Y-91427465D01*
X88288656Y-91335363D01*
X88412712Y-91211307D01*
X88504814Y-91061985D01*
X88559999Y-90895448D01*
X88570500Y-90792660D01*
X88570499Y-89592643D01*
X88559999Y-89489854D01*
X88504814Y-89323317D01*
X88412712Y-89173995D01*
X88288656Y-89049939D01*
X88139334Y-88957837D01*
X87972797Y-88902652D01*
X87972795Y-88902651D01*
X87870010Y-88892151D01*
X86669998Y-88892151D01*
X86669981Y-88892152D01*
X86567203Y-88902651D01*
X86567200Y-88902652D01*
X86400668Y-88957836D01*
X86400663Y-88957838D01*
X86251342Y-89049940D01*
X86127289Y-89173993D01*
X86035187Y-89323314D01*
X86035185Y-89323319D01*
X86009942Y-89399499D01*
X85980001Y-89489854D01*
X85980001Y-89489855D01*
X85980000Y-89489855D01*
X85969500Y-89592634D01*
X74500500Y-89592634D01*
X74500500Y-86590333D01*
X85970000Y-86590333D01*
X85970000Y-86794968D01*
X86002009Y-86997068D01*
X86065244Y-87191682D01*
X86158141Y-87374001D01*
X86158147Y-87374010D01*
X86190523Y-87418572D01*
X86190524Y-87418573D01*
X86870000Y-86739097D01*
X86870000Y-86745312D01*
X86897259Y-86847045D01*
X86949920Y-86938257D01*
X87024394Y-87012731D01*
X87115606Y-87065392D01*
X87217339Y-87092651D01*
X87223553Y-87092651D01*
X86544076Y-87772125D01*
X86588650Y-87804510D01*
X86770968Y-87897406D01*
X86965582Y-87960641D01*
X87167683Y-87992651D01*
X87372317Y-87992651D01*
X87574417Y-87960641D01*
X87769031Y-87897406D01*
X87951349Y-87804510D01*
X87973297Y-87788564D01*
X87995921Y-87772125D01*
X87316447Y-87092651D01*
X87322661Y-87092651D01*
X87424394Y-87065392D01*
X87515606Y-87012731D01*
X87590080Y-86938257D01*
X87642741Y-86847045D01*
X87670000Y-86745312D01*
X87670000Y-86739099D01*
X88349474Y-87418573D01*
X88349474Y-87418572D01*
X88381859Y-87374000D01*
X88474755Y-87191682D01*
X88537990Y-86997068D01*
X88570000Y-86794968D01*
X88570000Y-86590333D01*
X88537990Y-86388233D01*
X88474755Y-86193619D01*
X88381859Y-86011301D01*
X88349474Y-85966728D01*
X88349474Y-85966727D01*
X87670000Y-86646202D01*
X87670000Y-86639990D01*
X87642741Y-86538257D01*
X87590080Y-86447045D01*
X87515606Y-86372571D01*
X87424394Y-86319910D01*
X87322661Y-86292651D01*
X87316446Y-86292651D01*
X87995922Y-85613175D01*
X87995921Y-85613174D01*
X87951359Y-85580798D01*
X87951350Y-85580792D01*
X87769031Y-85487895D01*
X87574417Y-85424660D01*
X87372317Y-85392651D01*
X87167683Y-85392651D01*
X86965582Y-85424660D01*
X86770968Y-85487895D01*
X86588644Y-85580794D01*
X86544077Y-85613174D01*
X86544077Y-85613175D01*
X87223554Y-86292651D01*
X87217339Y-86292651D01*
X87115606Y-86319910D01*
X87024394Y-86372571D01*
X86949920Y-86447045D01*
X86897259Y-86538257D01*
X86870000Y-86639990D01*
X86870000Y-86646204D01*
X86190524Y-85966728D01*
X86190523Y-85966728D01*
X86158143Y-86011295D01*
X86065244Y-86193619D01*
X86002009Y-86388233D01*
X85970000Y-86590333D01*
X74500500Y-86590333D01*
X74500500Y-82878711D01*
X77149500Y-82878711D01*
X77149500Y-83121288D01*
X77181161Y-83361785D01*
X77243947Y-83596104D01*
X77336773Y-83820205D01*
X77336777Y-83820214D01*
X77351058Y-83844949D01*
X77458064Y-84030289D01*
X77458066Y-84030292D01*
X77458067Y-84030293D01*
X77605733Y-84222736D01*
X77605739Y-84222743D01*
X77777256Y-84394260D01*
X77777263Y-84394266D01*
X77823697Y-84429896D01*
X77969711Y-84541936D01*
X78179788Y-84663224D01*
X78403900Y-84756054D01*
X78638211Y-84818838D01*
X78797550Y-84839815D01*
X78878711Y-84850500D01*
X78878712Y-84850500D01*
X79121289Y-84850500D01*
X79181364Y-84842591D01*
X79361789Y-84818838D01*
X79596100Y-84756054D01*
X79820212Y-84663224D01*
X80030289Y-84541936D01*
X80222738Y-84394265D01*
X80394265Y-84222738D01*
X80541936Y-84030289D01*
X80663224Y-83820212D01*
X80756054Y-83596100D01*
X80818838Y-83361789D01*
X80850500Y-83121288D01*
X80850500Y-82878712D01*
X80818838Y-82638211D01*
X80756054Y-82403900D01*
X80663224Y-82179788D01*
X80541936Y-81969711D01*
X80394265Y-81777262D01*
X80394260Y-81777256D01*
X80222743Y-81605739D01*
X80222736Y-81605733D01*
X80030293Y-81458067D01*
X80030292Y-81458066D01*
X80030289Y-81458064D01*
X79820212Y-81336776D01*
X79820205Y-81336773D01*
X79596104Y-81243947D01*
X79361785Y-81181161D01*
X79121289Y-81149500D01*
X79121288Y-81149500D01*
X78878712Y-81149500D01*
X78878711Y-81149500D01*
X78638214Y-81181161D01*
X78403895Y-81243947D01*
X78179794Y-81336773D01*
X78179785Y-81336777D01*
X77969706Y-81458067D01*
X77777263Y-81605733D01*
X77777256Y-81605739D01*
X77605739Y-81777256D01*
X77605733Y-81777263D01*
X77458067Y-81969706D01*
X77336777Y-82179785D01*
X77336773Y-82179794D01*
X77243947Y-82403895D01*
X77181161Y-82638214D01*
X77149500Y-82878711D01*
X74500500Y-82878711D01*
X74500500Y-78624500D01*
X74520185Y-78557461D01*
X74572989Y-78511706D01*
X74624500Y-78500500D01*
X198375500Y-78500500D01*
X198442539Y-78520185D01*
G37*
%TD.AperFunction*%
%TD*%
M02*
