%TF.GenerationSoftware,KiCad,Pcbnew,10.0.3*%
%TF.CreationDate,2026-06-20T14:55:08-07:00*%
%TF.ProjectId,FLIGHT CONTROLLER,464c4947-4854-4204-934f-4e54524f4c4c,rev?*%
%TF.SameCoordinates,Original*%
%TF.FileFunction,Soldermask,Bot*%
%TF.FilePolarity,Negative*%
%FSLAX46Y46*%
G04 Gerber Fmt 4.6, Leading zero omitted, Abs format (unit mm)*
G04 Created by KiCad (PCBNEW 10.0.3) date 2026-06-20 14:55:08*
%MOMM*%
%LPD*%
G01*
G04 APERTURE LIST*
G04 Aperture macros list*
%AMRoundRect*
0 Rectangle with rounded corners*
0 $1 Rounding radius*
0 $2 $3 $4 $5 $6 $7 $8 $9 X,Y pos of 4 corners*
0 Add a 4 corners polygon primitive as box body*
4,1,4,$2,$3,$4,$5,$6,$7,$8,$9,$2,$3,0*
0 Add four circle primitives for the rounded corners*
1,1,$1+$1,$2,$3*
1,1,$1+$1,$4,$5*
1,1,$1+$1,$6,$7*
1,1,$1+$1,$8,$9*
0 Add four rect primitives between the rounded corners*
20,1,$1+$1,$2,$3,$4,$5,0*
20,1,$1+$1,$4,$5,$6,$7,0*
20,1,$1+$1,$6,$7,$8,$9,0*
20,1,$1+$1,$8,$9,$2,$3,0*%
G04 Aperture macros list end*
%ADD10R,1.700000X1.700000*%
%ADD11C,1.700000*%
%ADD12C,1.500000*%
%ADD13C,3.200000*%
%ADD14C,1.524000*%
%ADD15RoundRect,0.250000X-0.550000X0.550000X-0.550000X-0.550000X0.550000X-0.550000X0.550000X0.550000X0*%
%ADD16C,1.600000*%
%ADD17RoundRect,0.250000X0.550000X-0.550000X0.550000X0.550000X-0.550000X0.550000X-0.550000X-0.550000X0*%
G04 APERTURE END LIST*
D10*
%TO.C,J5*%
X132650000Y-123000000D03*
D11*
X135190000Y-123000000D03*
X137730000Y-123000000D03*
X140270000Y-123000000D03*
X142810000Y-123000000D03*
X145350000Y-123000000D03*
%TD*%
D10*
%TO.C,J2*%
X85650000Y-123000000D03*
D11*
X88190000Y-123000000D03*
X90730000Y-123000000D03*
X93270000Y-123000000D03*
X95810000Y-123000000D03*
X98350000Y-123000000D03*
%TD*%
D12*
%TO.C,GND*%
X150000000Y-119000000D03*
%TD*%
D10*
%TO.C,J3*%
X187350000Y-85000000D03*
D11*
X184810000Y-85000000D03*
X182270000Y-85000000D03*
X179730000Y-85000000D03*
X177190000Y-85000000D03*
X174650000Y-85000000D03*
%TD*%
D10*
%TO.C,EleA*%
X132360000Y-90540000D03*
D11*
X132360000Y-88000000D03*
X132360000Y-85460000D03*
%TD*%
D12*
%TO.C,TEENSY_3V3*%
X154000000Y-119000000D03*
%TD*%
D10*
%TO.C,Cha7*%
X95550000Y-90540000D03*
D11*
X95550000Y-88000000D03*
X95550000Y-85460000D03*
%TD*%
%TO.C,U1*%
X132940000Y-114240000D03*
X135480000Y-99000000D03*
X132940000Y-99000000D03*
X130400000Y-99000000D03*
X127860000Y-99000000D03*
X125320000Y-99000000D03*
X122780000Y-99000000D03*
X120240000Y-99000000D03*
X117700000Y-99000000D03*
X115160000Y-99000000D03*
X112620000Y-99000000D03*
X110080000Y-99000000D03*
X107540000Y-99000000D03*
X105000000Y-99000000D03*
X105000000Y-114240000D03*
X107540000Y-114240000D03*
X110080000Y-114240000D03*
X112620000Y-114240000D03*
X115160000Y-114240000D03*
X117700000Y-114240000D03*
X120240000Y-114240000D03*
X122780000Y-114240000D03*
X125320000Y-114240000D03*
X127860000Y-114240000D03*
X130400000Y-114240000D03*
D10*
X138020000Y-99000000D03*
D11*
X135480000Y-114240000D03*
X138020000Y-114240000D03*
%TD*%
D10*
%TO.C,FlaA*%
X107820000Y-90540000D03*
D11*
X107820000Y-88000000D03*
X107820000Y-85460000D03*
%TD*%
D10*
%TO.C,ThrB*%
X120090000Y-90540000D03*
D11*
X120090000Y-88000000D03*
X120090000Y-85460000D03*
%TD*%
D13*
%TO.C,M3*%
X194000000Y-83000000D03*
%TD*%
D14*
%TO.C,U2*%
X80020000Y-114075000D03*
X82560000Y-114075000D03*
X85100000Y-114075000D03*
X87640000Y-114075000D03*
X90180000Y-114075000D03*
X92720000Y-114075000D03*
X95260000Y-114075000D03*
X95260000Y-98835000D03*
X92720000Y-98835000D03*
X90180000Y-98835000D03*
X87640000Y-98835000D03*
X85100000Y-98835000D03*
X82560000Y-98835000D03*
X80020000Y-98835000D03*
%TD*%
D13*
%TO.C,M3*%
X79000000Y-83000000D03*
%TD*%
%TO.C,M3*%
X194000000Y-126000000D03*
%TD*%
D10*
%TO.C,Cha6*%
X99640000Y-90540000D03*
D11*
X99640000Y-88000000D03*
X99640000Y-85460000D03*
%TD*%
D12*
%TO.C,5V_BEC_ESC*%
X146000000Y-96000000D03*
%TD*%
D15*
%TO.C,C4*%
X104730000Y-122000000D03*
D16*
X104730000Y-124000000D03*
%TD*%
D10*
%TO.C,EleB*%
X128270000Y-90540000D03*
D11*
X128270000Y-88000000D03*
X128270000Y-85460000D03*
%TD*%
D13*
%TO.C,M3*%
X79000000Y-126000000D03*
%TD*%
D10*
%TO.C,AilB*%
X136450000Y-90540000D03*
D11*
X136450000Y-88000000D03*
X136450000Y-85460000D03*
%TD*%
D10*
%TO.C,FlaB*%
X103730000Y-90540000D03*
D11*
X103730000Y-88000000D03*
X103730000Y-85460000D03*
%TD*%
D12*
%TO.C,5V_LOGIC*%
X159730000Y-113270000D03*
%TD*%
D10*
%TO.C,ThrA*%
X124180000Y-90540000D03*
D11*
X124180000Y-88000000D03*
X124180000Y-85460000D03*
%TD*%
D10*
%TO.C,AilA*%
X140540000Y-90540000D03*
D11*
X140540000Y-88000000D03*
X140540000Y-85460000D03*
%TD*%
D10*
%TO.C,RudA*%
X116000000Y-90540000D03*
D11*
X116000000Y-88000000D03*
X116000000Y-85460000D03*
%TD*%
D17*
%TO.C,C1*%
X146270000Y-89540000D03*
D16*
X146270000Y-87540000D03*
%TD*%
D10*
%TO.C,RudB*%
X111910000Y-90540000D03*
D11*
X111910000Y-88000000D03*
X111910000Y-85460000D03*
%TD*%
D17*
%TO.C,C8*%
X87270000Y-90192651D03*
D16*
X87270000Y-86692651D03*
%TD*%
D10*
%TO.C,J1*%
X165000000Y-85190000D03*
D11*
X165000000Y-87730000D03*
X165000000Y-90270000D03*
X165000000Y-92810000D03*
%TD*%
D12*
%TO.C,ESP_3V3*%
X80000000Y-93000000D03*
%TD*%
D10*
%TO.C,J4*%
X118190000Y-123000000D03*
D11*
X120730000Y-123000000D03*
X123270000Y-123000000D03*
X125810000Y-123000000D03*
%TD*%
M02*
