%TF.GenerationSoftware,KiCad,Pcbnew,10.0.3*%
%TF.CreationDate,2026-09-17T15:46:21-07:00*%
%TF.ProjectId,FAST Controller,46415354-2043-46f6-9e74-726f6c6c6572,rev?*%
%TF.SameCoordinates,Original*%
%TF.FileFunction,Legend,Bot*%
%TF.FilePolarity,Positive*%
%FSLAX46Y46*%
G04 Gerber Fmt 4.6, Leading zero omitted, Abs format (unit mm)*
G04 Created by KiCad (PCBNEW 10.0.3) date 2026-09-17 15:46:21*
%MOMM*%
%LPD*%
G01*
G04 APERTURE LIST*
%ADD10C,0.120000*%
%ADD11C,0.150000*%
G04 APERTURE END LIST*
D10*
X93942857Y-68744807D02*
X94209523Y-68744807D01*
X94209523Y-69163855D02*
X94209523Y-68363855D01*
X94209523Y-68363855D02*
X93828571Y-68363855D01*
X93523809Y-69163855D02*
X93523809Y-68363855D01*
X93257143Y-68363855D02*
X92800000Y-68363855D01*
X93028572Y-69163855D02*
X93028572Y-68363855D01*
X91923809Y-69163855D02*
X91923809Y-68363855D01*
X91542857Y-69163855D02*
X91542857Y-68363855D01*
X91542857Y-68363855D02*
X91085714Y-69163855D01*
X91085714Y-69163855D02*
X91085714Y-68363855D01*
X90742858Y-69125760D02*
X90628572Y-69163855D01*
X90628572Y-69163855D02*
X90438096Y-69163855D01*
X90438096Y-69163855D02*
X90361905Y-69125760D01*
X90361905Y-69125760D02*
X90323810Y-69087664D01*
X90323810Y-69087664D02*
X90285715Y-69011474D01*
X90285715Y-69011474D02*
X90285715Y-68935283D01*
X90285715Y-68935283D02*
X90323810Y-68859093D01*
X90323810Y-68859093D02*
X90361905Y-68820998D01*
X90361905Y-68820998D02*
X90438096Y-68782902D01*
X90438096Y-68782902D02*
X90590477Y-68744807D01*
X90590477Y-68744807D02*
X90666667Y-68706712D01*
X90666667Y-68706712D02*
X90704762Y-68668617D01*
X90704762Y-68668617D02*
X90742858Y-68592426D01*
X90742858Y-68592426D02*
X90742858Y-68516236D01*
X90742858Y-68516236D02*
X90704762Y-68440045D01*
X90704762Y-68440045D02*
X90666667Y-68401950D01*
X90666667Y-68401950D02*
X90590477Y-68363855D01*
X90590477Y-68363855D02*
X90400000Y-68363855D01*
X90400000Y-68363855D02*
X90285715Y-68401950D01*
X89942857Y-68363855D02*
X89942857Y-69011474D01*
X89942857Y-69011474D02*
X89904762Y-69087664D01*
X89904762Y-69087664D02*
X89866667Y-69125760D01*
X89866667Y-69125760D02*
X89790476Y-69163855D01*
X89790476Y-69163855D02*
X89638095Y-69163855D01*
X89638095Y-69163855D02*
X89561905Y-69125760D01*
X89561905Y-69125760D02*
X89523810Y-69087664D01*
X89523810Y-69087664D02*
X89485714Y-69011474D01*
X89485714Y-69011474D02*
X89485714Y-68363855D01*
X88723810Y-69163855D02*
X89104762Y-69163855D01*
X89104762Y-69163855D02*
X89104762Y-68363855D01*
X88495239Y-68935283D02*
X88114286Y-68935283D01*
X88571429Y-69163855D02*
X88304762Y-68363855D01*
X88304762Y-68363855D02*
X88038096Y-69163855D01*
X87885715Y-68363855D02*
X87428572Y-68363855D01*
X87657144Y-69163855D02*
X87657144Y-68363855D01*
X87161905Y-68744807D02*
X86895239Y-68744807D01*
X86780953Y-69163855D02*
X87161905Y-69163855D01*
X87161905Y-69163855D02*
X87161905Y-68363855D01*
X87161905Y-68363855D02*
X86780953Y-68363855D01*
X86438095Y-69163855D02*
X86438095Y-68363855D01*
X86438095Y-68363855D02*
X86247619Y-68363855D01*
X86247619Y-68363855D02*
X86133333Y-68401950D01*
X86133333Y-68401950D02*
X86057143Y-68478140D01*
X86057143Y-68478140D02*
X86019048Y-68554331D01*
X86019048Y-68554331D02*
X85980952Y-68706712D01*
X85980952Y-68706712D02*
X85980952Y-68820998D01*
X85980952Y-68820998D02*
X86019048Y-68973379D01*
X86019048Y-68973379D02*
X86057143Y-69049569D01*
X86057143Y-69049569D02*
X86133333Y-69125760D01*
X86133333Y-69125760D02*
X86247619Y-69163855D01*
X86247619Y-69163855D02*
X86438095Y-69163855D01*
X84647619Y-69163855D02*
X85028571Y-69163855D01*
X85028571Y-69163855D02*
X85028571Y-68363855D01*
X84380952Y-69163855D02*
X84380952Y-68363855D01*
X84000000Y-69163855D02*
X84000000Y-68363855D01*
X84000000Y-68363855D02*
X83542857Y-69163855D01*
X83542857Y-69163855D02*
X83542857Y-68363855D01*
X83161905Y-69163855D02*
X83161905Y-68363855D01*
X82704762Y-69163855D02*
X83047620Y-68706712D01*
X82704762Y-68363855D02*
X83161905Y-68820998D01*
X82361905Y-69087664D02*
X82323810Y-69125760D01*
X82323810Y-69125760D02*
X82361905Y-69163855D01*
X82361905Y-69163855D02*
X82400001Y-69125760D01*
X82400001Y-69125760D02*
X82361905Y-69087664D01*
X82361905Y-69087664D02*
X82361905Y-69163855D01*
X82361905Y-68668617D02*
X82323810Y-68706712D01*
X82323810Y-68706712D02*
X82361905Y-68744807D01*
X82361905Y-68744807D02*
X82400001Y-68706712D01*
X82400001Y-68706712D02*
X82361905Y-68668617D01*
X82361905Y-68668617D02*
X82361905Y-68744807D01*
X81142858Y-68363855D02*
X81142858Y-68935283D01*
X81142858Y-68935283D02*
X81180953Y-69049569D01*
X81180953Y-69049569D02*
X81257144Y-69125760D01*
X81257144Y-69125760D02*
X81371429Y-69163855D01*
X81371429Y-69163855D02*
X81447620Y-69163855D01*
X80419048Y-68630521D02*
X80419048Y-69163855D01*
X80609524Y-68325760D02*
X80800001Y-68897188D01*
X80800001Y-68897188D02*
X80304762Y-68897188D01*
X80000000Y-68859093D02*
X79390477Y-68859093D01*
X79047620Y-68440045D02*
X79009524Y-68401950D01*
X79009524Y-68401950D02*
X78933334Y-68363855D01*
X78933334Y-68363855D02*
X78742858Y-68363855D01*
X78742858Y-68363855D02*
X78666667Y-68401950D01*
X78666667Y-68401950D02*
X78628572Y-68440045D01*
X78628572Y-68440045D02*
X78590477Y-68516236D01*
X78590477Y-68516236D02*
X78590477Y-68592426D01*
X78590477Y-68592426D02*
X78628572Y-68706712D01*
X78628572Y-68706712D02*
X79085715Y-69163855D01*
X79085715Y-69163855D02*
X78590477Y-69163855D01*
X77752381Y-68363855D02*
X77295238Y-68363855D01*
X77523810Y-69163855D02*
X77523810Y-68363855D01*
X76876190Y-68363855D02*
X76723809Y-68363855D01*
X76723809Y-68363855D02*
X76647619Y-68401950D01*
X76647619Y-68401950D02*
X76571428Y-68478140D01*
X76571428Y-68478140D02*
X76533333Y-68630521D01*
X76533333Y-68630521D02*
X76533333Y-68897188D01*
X76533333Y-68897188D02*
X76571428Y-69049569D01*
X76571428Y-69049569D02*
X76647619Y-69125760D01*
X76647619Y-69125760D02*
X76723809Y-69163855D01*
X76723809Y-69163855D02*
X76876190Y-69163855D01*
X76876190Y-69163855D02*
X76952381Y-69125760D01*
X76952381Y-69125760D02*
X77028571Y-69049569D01*
X77028571Y-69049569D02*
X77066667Y-68897188D01*
X77066667Y-68897188D02*
X77066667Y-68630521D01*
X77066667Y-68630521D02*
X77028571Y-68478140D01*
X77028571Y-68478140D02*
X76952381Y-68401950D01*
X76952381Y-68401950D02*
X76876190Y-68363855D01*
X75695238Y-68363855D02*
X75238095Y-68363855D01*
X75466667Y-69163855D02*
X75466667Y-68363855D01*
X74971428Y-69163855D02*
X74971428Y-68363855D01*
X74971428Y-68363855D02*
X74666666Y-68363855D01*
X74666666Y-68363855D02*
X74590476Y-68401950D01*
X74590476Y-68401950D02*
X74552381Y-68440045D01*
X74552381Y-68440045D02*
X74514285Y-68516236D01*
X74514285Y-68516236D02*
X74514285Y-68630521D01*
X74514285Y-68630521D02*
X74552381Y-68706712D01*
X74552381Y-68706712D02*
X74590476Y-68744807D01*
X74590476Y-68744807D02*
X74666666Y-68782902D01*
X74666666Y-68782902D02*
X74971428Y-68782902D01*
X74247619Y-68363855D02*
X73752381Y-68363855D01*
X73752381Y-68363855D02*
X74019047Y-68668617D01*
X74019047Y-68668617D02*
X73904762Y-68668617D01*
X73904762Y-68668617D02*
X73828571Y-68706712D01*
X73828571Y-68706712D02*
X73790476Y-68744807D01*
X73790476Y-68744807D02*
X73752381Y-68820998D01*
X73752381Y-68820998D02*
X73752381Y-69011474D01*
X73752381Y-69011474D02*
X73790476Y-69087664D01*
X73790476Y-69087664D02*
X73828571Y-69125760D01*
X73828571Y-69125760D02*
X73904762Y-69163855D01*
X73904762Y-69163855D02*
X74133333Y-69163855D01*
X74133333Y-69163855D02*
X74209524Y-69125760D01*
X74209524Y-69125760D02*
X74247619Y-69087664D01*
D11*
X66590476Y-34943247D02*
X66857142Y-34943247D01*
X66857142Y-35362295D02*
X66857142Y-34562295D01*
X66857142Y-34562295D02*
X66476190Y-34562295D01*
X66209524Y-35133723D02*
X65828571Y-35133723D01*
X66285714Y-35362295D02*
X66019047Y-34562295D01*
X66019047Y-34562295D02*
X65752381Y-35362295D01*
X65523810Y-35324200D02*
X65409524Y-35362295D01*
X65409524Y-35362295D02*
X65219048Y-35362295D01*
X65219048Y-35362295D02*
X65142857Y-35324200D01*
X65142857Y-35324200D02*
X65104762Y-35286104D01*
X65104762Y-35286104D02*
X65066667Y-35209914D01*
X65066667Y-35209914D02*
X65066667Y-35133723D01*
X65066667Y-35133723D02*
X65104762Y-35057533D01*
X65104762Y-35057533D02*
X65142857Y-35019438D01*
X65142857Y-35019438D02*
X65219048Y-34981342D01*
X65219048Y-34981342D02*
X65371429Y-34943247D01*
X65371429Y-34943247D02*
X65447619Y-34905152D01*
X65447619Y-34905152D02*
X65485714Y-34867057D01*
X65485714Y-34867057D02*
X65523810Y-34790866D01*
X65523810Y-34790866D02*
X65523810Y-34714676D01*
X65523810Y-34714676D02*
X65485714Y-34638485D01*
X65485714Y-34638485D02*
X65447619Y-34600390D01*
X65447619Y-34600390D02*
X65371429Y-34562295D01*
X65371429Y-34562295D02*
X65180952Y-34562295D01*
X65180952Y-34562295D02*
X65066667Y-34600390D01*
X64838095Y-34562295D02*
X64380952Y-34562295D01*
X64609524Y-35362295D02*
X64609524Y-34562295D01*
X63047618Y-35286104D02*
X63085714Y-35324200D01*
X63085714Y-35324200D02*
X63199999Y-35362295D01*
X63199999Y-35362295D02*
X63276190Y-35362295D01*
X63276190Y-35362295D02*
X63390476Y-35324200D01*
X63390476Y-35324200D02*
X63466666Y-35248009D01*
X63466666Y-35248009D02*
X63504761Y-35171819D01*
X63504761Y-35171819D02*
X63542857Y-35019438D01*
X63542857Y-35019438D02*
X63542857Y-34905152D01*
X63542857Y-34905152D02*
X63504761Y-34752771D01*
X63504761Y-34752771D02*
X63466666Y-34676580D01*
X63466666Y-34676580D02*
X63390476Y-34600390D01*
X63390476Y-34600390D02*
X63276190Y-34562295D01*
X63276190Y-34562295D02*
X63199999Y-34562295D01*
X63199999Y-34562295D02*
X63085714Y-34600390D01*
X63085714Y-34600390D02*
X63047618Y-34638485D01*
X62552380Y-34562295D02*
X62399999Y-34562295D01*
X62399999Y-34562295D02*
X62323809Y-34600390D01*
X62323809Y-34600390D02*
X62247618Y-34676580D01*
X62247618Y-34676580D02*
X62209523Y-34828961D01*
X62209523Y-34828961D02*
X62209523Y-35095628D01*
X62209523Y-35095628D02*
X62247618Y-35248009D01*
X62247618Y-35248009D02*
X62323809Y-35324200D01*
X62323809Y-35324200D02*
X62399999Y-35362295D01*
X62399999Y-35362295D02*
X62552380Y-35362295D01*
X62552380Y-35362295D02*
X62628571Y-35324200D01*
X62628571Y-35324200D02*
X62704761Y-35248009D01*
X62704761Y-35248009D02*
X62742857Y-35095628D01*
X62742857Y-35095628D02*
X62742857Y-34828961D01*
X62742857Y-34828961D02*
X62704761Y-34676580D01*
X62704761Y-34676580D02*
X62628571Y-34600390D01*
X62628571Y-34600390D02*
X62552380Y-34562295D01*
X61866666Y-35362295D02*
X61866666Y-34562295D01*
X61866666Y-34562295D02*
X61409523Y-35362295D01*
X61409523Y-35362295D02*
X61409523Y-34562295D01*
X61142857Y-34562295D02*
X60685714Y-34562295D01*
X60914286Y-35362295D02*
X60914286Y-34562295D01*
X59961904Y-35362295D02*
X60228571Y-34981342D01*
X60419047Y-35362295D02*
X60419047Y-34562295D01*
X60419047Y-34562295D02*
X60114285Y-34562295D01*
X60114285Y-34562295D02*
X60038095Y-34600390D01*
X60038095Y-34600390D02*
X60000000Y-34638485D01*
X60000000Y-34638485D02*
X59961904Y-34714676D01*
X59961904Y-34714676D02*
X59961904Y-34828961D01*
X59961904Y-34828961D02*
X60000000Y-34905152D01*
X60000000Y-34905152D02*
X60038095Y-34943247D01*
X60038095Y-34943247D02*
X60114285Y-34981342D01*
X60114285Y-34981342D02*
X60419047Y-34981342D01*
X59466666Y-34562295D02*
X59314285Y-34562295D01*
X59314285Y-34562295D02*
X59238095Y-34600390D01*
X59238095Y-34600390D02*
X59161904Y-34676580D01*
X59161904Y-34676580D02*
X59123809Y-34828961D01*
X59123809Y-34828961D02*
X59123809Y-35095628D01*
X59123809Y-35095628D02*
X59161904Y-35248009D01*
X59161904Y-35248009D02*
X59238095Y-35324200D01*
X59238095Y-35324200D02*
X59314285Y-35362295D01*
X59314285Y-35362295D02*
X59466666Y-35362295D01*
X59466666Y-35362295D02*
X59542857Y-35324200D01*
X59542857Y-35324200D02*
X59619047Y-35248009D01*
X59619047Y-35248009D02*
X59657143Y-35095628D01*
X59657143Y-35095628D02*
X59657143Y-34828961D01*
X59657143Y-34828961D02*
X59619047Y-34676580D01*
X59619047Y-34676580D02*
X59542857Y-34600390D01*
X59542857Y-34600390D02*
X59466666Y-34562295D01*
X58400000Y-35362295D02*
X58780952Y-35362295D01*
X58780952Y-35362295D02*
X58780952Y-34562295D01*
X57752381Y-35362295D02*
X58133333Y-35362295D01*
X58133333Y-35362295D02*
X58133333Y-34562295D01*
X57485714Y-34943247D02*
X57219048Y-34943247D01*
X57104762Y-35362295D02*
X57485714Y-35362295D01*
X57485714Y-35362295D02*
X57485714Y-34562295D01*
X57485714Y-34562295D02*
X57104762Y-34562295D01*
X56304761Y-35362295D02*
X56571428Y-34981342D01*
X56761904Y-35362295D02*
X56761904Y-34562295D01*
X56761904Y-34562295D02*
X56457142Y-34562295D01*
X56457142Y-34562295D02*
X56380952Y-34600390D01*
X56380952Y-34600390D02*
X56342857Y-34638485D01*
X56342857Y-34638485D02*
X56304761Y-34714676D01*
X56304761Y-34714676D02*
X56304761Y-34828961D01*
X56304761Y-34828961D02*
X56342857Y-34905152D01*
X56342857Y-34905152D02*
X56380952Y-34943247D01*
X56380952Y-34943247D02*
X56457142Y-34981342D01*
X56457142Y-34981342D02*
X56761904Y-34981342D01*
X55466666Y-34562295D02*
X55199999Y-35362295D01*
X55199999Y-35362295D02*
X54933333Y-34562295D01*
X54704762Y-34638485D02*
X54666666Y-34600390D01*
X54666666Y-34600390D02*
X54590476Y-34562295D01*
X54590476Y-34562295D02*
X54400000Y-34562295D01*
X54400000Y-34562295D02*
X54323809Y-34600390D01*
X54323809Y-34600390D02*
X54285714Y-34638485D01*
X54285714Y-34638485D02*
X54247619Y-34714676D01*
X54247619Y-34714676D02*
X54247619Y-34790866D01*
X54247619Y-34790866D02*
X54285714Y-34905152D01*
X54285714Y-34905152D02*
X54742857Y-35362295D01*
X54742857Y-35362295D02*
X54247619Y-35362295D01*
X53904761Y-35286104D02*
X53866666Y-35324200D01*
X53866666Y-35324200D02*
X53904761Y-35362295D01*
X53904761Y-35362295D02*
X53942857Y-35324200D01*
X53942857Y-35324200D02*
X53904761Y-35286104D01*
X53904761Y-35286104D02*
X53904761Y-35362295D01*
X53104762Y-35362295D02*
X53561905Y-35362295D01*
X53333333Y-35362295D02*
X53333333Y-34562295D01*
X53333333Y-34562295D02*
X53409524Y-34676580D01*
X53409524Y-34676580D02*
X53485714Y-34752771D01*
X53485714Y-34752771D02*
X53561905Y-34790866D01*
M02*
