%TF.GenerationSoftware,KiCad,Pcbnew,10.0.3*%
%TF.CreationDate,2026-09-17T15:46:21-07:00*%
%TF.ProjectId,FAST Controller,46415354-2043-46f6-9e74-726f6c6c6572,rev?*%
%TF.SameCoordinates,Original*%
%TF.FileFunction,Soldermask,Bot*%
%TF.FilePolarity,Negative*%
%FSLAX46Y46*%
G04 Gerber Fmt 4.6, Leading zero omitted, Abs format (unit mm)*
G04 Created by KiCad (PCBNEW 10.0.3) date 2026-09-17 15:46:21*
%MOMM*%
%LPD*%
G01*
G04 APERTURE LIST*
G04 Aperture macros list*
%AMRoundRect*
0 Rectangle with rounded corners*
0 $1 Rounding radius*
0 $2 $3 $4 $5 $6 $7 $8 $9 X,Y pos of 4 corners*
0 Add a 4 corners polygon primitive as box body*
4,1,4,$2,$3,$4,$5,$6,$7,$8,$9,$2,$3,0*
0 Add four circle primitives for the rounded corners*
1,1,$1+$1,$2,$3*
1,1,$1+$1,$4,$5*
1,1,$1+$1,$6,$7*
1,1,$1+$1,$8,$9*
0 Add four rect primitives between the rounded corners*
20,1,$1+$1,$2,$3,$4,$5,0*
20,1,$1+$1,$4,$5,$6,$7,0*
20,1,$1+$1,$6,$7,$8,$9,0*
20,1,$1+$1,$8,$9,$2,$3,0*%
G04 Aperture macros list end*
%ADD10C,3.200000*%
%ADD11C,1.500000*%
%ADD12RoundRect,0.250000X-0.550000X-0.550000X0.550000X-0.550000X0.550000X0.550000X-0.550000X0.550000X0*%
%ADD13C,1.600000*%
%ADD14RoundRect,0.250000X-0.950000X-0.550000X0.950000X-0.550000X0.950000X0.550000X-0.950000X0.550000X0*%
%ADD15O,2.400000X1.600000*%
%ADD16R,1.700000X1.700000*%
%ADD17C,1.700000*%
%ADD18RoundRect,0.250000X-0.600000X-0.725000X0.600000X-0.725000X0.600000X0.725000X-0.600000X0.725000X0*%
%ADD19O,1.700000X1.950000*%
%ADD20RoundRect,0.250000X-0.550000X0.550000X-0.550000X-0.550000X0.550000X-0.550000X0.550000X0.550000X0*%
%ADD21RoundRect,0.250000X0.725000X-0.600000X0.725000X0.600000X-0.725000X0.600000X-0.725000X-0.600000X0*%
%ADD22O,1.950000X1.700000*%
%ADD23C,1.524000*%
%ADD24RoundRect,0.213236X-0.511764X-0.511764X0.511764X-0.511764X0.511764X0.511764X-0.511764X0.511764X0*%
%ADD25O,1.450000X1.450000*%
G04 APERTURE END LIST*
D10*
%TO.C,H4*%
X142000000Y-67750000D03*
%TD*%
D11*
%TO.C,TP1*%
X99000000Y-24500000D03*
%TD*%
D12*
%TO.C,C4*%
X77000000Y-37000000D03*
D13*
X80500000Y-37000000D03*
%TD*%
D14*
%TO.C,U4*%
X118380000Y-48000000D03*
D15*
X118380000Y-50540000D03*
X118380000Y-53080000D03*
X118380000Y-55620000D03*
X118380000Y-58160000D03*
X118380000Y-60700000D03*
X118380000Y-63240000D03*
X118380000Y-65780000D03*
X126000000Y-65780000D03*
X126000000Y-63240000D03*
X126000000Y-60700000D03*
X126000000Y-58160000D03*
X126000000Y-55620000D03*
X126000000Y-53080000D03*
X126000000Y-50540000D03*
X126000000Y-48000000D03*
%TD*%
D10*
%TO.C,H1*%
X23000000Y-23000000D03*
%TD*%
D16*
%TO.C,J15*%
X139080000Y-62000000D03*
D17*
X136540000Y-62000000D03*
X134000000Y-62000000D03*
%TD*%
D11*
%TO.C,TP2*%
X102000000Y-24500000D03*
%TD*%
D10*
%TO.C,H2*%
X142000000Y-23000000D03*
%TD*%
D16*
%TO.C,J14*%
X139080000Y-58000000D03*
D17*
X136540000Y-58000000D03*
X134000000Y-58000000D03*
%TD*%
D11*
%TO.C,TP3*%
X99000000Y-68500000D03*
%TD*%
D18*
%TO.C,J4*%
X70000000Y-64000000D03*
D19*
X72500000Y-64000000D03*
X75000000Y-64000000D03*
X77500000Y-64000000D03*
%TD*%
D16*
%TO.C,J9*%
X139080000Y-33000000D03*
D17*
X136540000Y-33000000D03*
X134000000Y-33000000D03*
%TD*%
D14*
%TO.C,U3*%
X118380000Y-24000000D03*
D15*
X118380000Y-26540000D03*
X118380000Y-29080000D03*
X118380000Y-31620000D03*
X118380000Y-34160000D03*
X118380000Y-36700000D03*
X118380000Y-39240000D03*
X118380000Y-41780000D03*
X126000000Y-41780000D03*
X126000000Y-39240000D03*
X126000000Y-36700000D03*
X126000000Y-34160000D03*
X126000000Y-31620000D03*
X126000000Y-29080000D03*
X126000000Y-26540000D03*
X126000000Y-24000000D03*
%TD*%
D20*
%TO.C,C3*%
X73000000Y-44000000D03*
D13*
X73000000Y-46000000D03*
%TD*%
D21*
%TO.C,J5*%
X92000000Y-43000000D03*
D22*
X92000000Y-40500000D03*
X92000000Y-38000000D03*
X92000000Y-35500000D03*
X92000000Y-33000000D03*
X92000000Y-30500000D03*
%TD*%
D10*
%TO.C,H3*%
X23000000Y-67750000D03*
%TD*%
D11*
%TO.C,TP4*%
X102000000Y-68500000D03*
%TD*%
D21*
%TO.C,J1*%
X91000000Y-59500000D03*
D22*
X91000000Y-57000000D03*
X91000000Y-54500000D03*
X91000000Y-52000000D03*
%TD*%
D16*
%TO.C,J8*%
X139080000Y-29000000D03*
D17*
X136540000Y-29000000D03*
X134000000Y-29000000D03*
%TD*%
D18*
%TO.C,J3*%
X72250000Y-25000000D03*
D19*
X74750000Y-25000000D03*
X77250000Y-25000000D03*
X79750000Y-25000000D03*
%TD*%
D17*
%TO.C,U1*%
X34840000Y-49000000D03*
X32300000Y-64240000D03*
X34840000Y-64240000D03*
X37380000Y-64240000D03*
X39920000Y-64240000D03*
X42460000Y-64240000D03*
X45000000Y-64240000D03*
X47540000Y-64240000D03*
X50080000Y-64240000D03*
X52620000Y-64240000D03*
X55160000Y-64240000D03*
X57700000Y-64240000D03*
X60240000Y-64240000D03*
X62780000Y-64240000D03*
X62780000Y-49000000D03*
X60240000Y-49000000D03*
X57700000Y-49000000D03*
X55160000Y-49000000D03*
X52620000Y-49000000D03*
X50080000Y-49000000D03*
X47540000Y-49000000D03*
X45000000Y-49000000D03*
X42460000Y-49000000D03*
X39920000Y-49000000D03*
X37380000Y-49000000D03*
D16*
X29760000Y-64240000D03*
D17*
X32300000Y-49000000D03*
X29760000Y-49000000D03*
%TD*%
D16*
%TO.C,J13*%
X139080000Y-54000000D03*
D17*
X136540000Y-54000000D03*
X134000000Y-54000000D03*
%TD*%
D23*
%TO.C,U2*%
X31000000Y-40240000D03*
X33540000Y-40240000D03*
X36080000Y-40240000D03*
X38620000Y-40240000D03*
X41160000Y-40240000D03*
X43700000Y-40240000D03*
X46240000Y-40240000D03*
X46240000Y-25000000D03*
X43700000Y-25000000D03*
X41160000Y-25000000D03*
X38620000Y-25000000D03*
X36080000Y-25000000D03*
X33540000Y-25000000D03*
X31000000Y-25000000D03*
%TD*%
D21*
%TO.C,J7*%
X100000000Y-61500000D03*
D22*
X100000000Y-59000000D03*
X100000000Y-56500000D03*
X100000000Y-54000000D03*
X100000000Y-51500000D03*
X100000000Y-49000000D03*
%TD*%
D16*
%TO.C,J12*%
X139080000Y-50000000D03*
D17*
X136540000Y-50000000D03*
X134000000Y-50000000D03*
%TD*%
D21*
%TO.C,J6*%
X100000000Y-42500000D03*
D22*
X100000000Y-40000000D03*
X100000000Y-37500000D03*
X100000000Y-35000000D03*
X100000000Y-32500000D03*
X100000000Y-30000000D03*
%TD*%
D16*
%TO.C,J10*%
X139080000Y-37000000D03*
D17*
X136540000Y-37000000D03*
X134000000Y-37000000D03*
%TD*%
D16*
%TO.C,J11*%
X139080000Y-41000000D03*
D17*
X136540000Y-41000000D03*
X134000000Y-41000000D03*
%TD*%
D24*
%TO.C,J2*%
X52840000Y-26000000D03*
D25*
X55340000Y-26000000D03*
X57840000Y-26000000D03*
X60340000Y-26000000D03*
X62840000Y-26000000D03*
X65340000Y-26000000D03*
%TD*%
M02*
