M48
; DRILL file KiCad 10.0.3 date 2026-09-17T15:46:22
; FORMAT={-:-/ absolute / metric / decimal}
; #@! TF.CreationDate,2026-09-17T15:46:22-07:00
; #@! TF.GenerationSoftware,Kicad,Pcbnew,10.0.3
; #@! TF.FileFunction,Plated,1,2,PTH
FMAT,2
METRIC
; #@! TA.AperFunction,Plated,PTH,ViaDrill
T1C0.300
; #@! TA.AperFunction,Plated,PTH,ViaDrill
T2C0.400
; #@! TA.AperFunction,Plated,PTH,ViaDrill
T3C0.600
; #@! TA.AperFunction,Plated,PTH,ComponentDrill
T4C0.700
; #@! TA.AperFunction,Plated,PTH,ComponentDrill
T5C0.800
; #@! TA.AperFunction,Plated,PTH,ComponentDrill
T6C0.889
; #@! TA.AperFunction,Plated,PTH,ComponentDrill
T7C0.950
; #@! TA.AperFunction,Plated,PTH,ComponentDrill
T8C1.000
%
G90
G05
T1
X57.97Y-42.589
X58.498Y-39.835
X58.614Y-40.835
X62.5Y-34.0
X63.344Y-51.151
X79.101Y-63.471
X86.972Y-63.649
X88.62Y-25.624
X89.827Y-67.425
X90.522Y-66.354
X90.848Y-39.152
X92.021Y-24.395
X101.278Y-66.565
X110.18Y-33.706
X111.127Y-39.687
X111.427Y-66.1
X111.756Y-28.269
X116.234Y-61.415
X122.744Y-33.386
T2
X25.0Y-35.0
X25.0Y-55.0
X75.0Y-22.5
X95.0Y-68.0
X130.0Y-22.5
X130.0Y-68.0
T3
X102.0Y-21.562
X114.62Y-48.0
T4
X99.0Y-24.5
X99.0Y-68.5
X102.0Y-24.5
X102.0Y-68.5
T5
X73.0Y-44.0
X73.0Y-46.0
X77.0Y-37.0
X80.5Y-37.0
X118.38Y-24.0
X118.38Y-26.54
X118.38Y-29.08
X118.38Y-31.62
X118.38Y-34.16
X118.38Y-36.7
X118.38Y-39.24
X118.38Y-41.78
X118.38Y-48.0
X118.38Y-50.54
X118.38Y-53.08
X118.38Y-55.62
X118.38Y-58.16
X118.38Y-60.7
X118.38Y-63.24
X118.38Y-65.78
X126.0Y-24.0
X126.0Y-26.54
X126.0Y-29.08
X126.0Y-31.62
X126.0Y-34.16
X126.0Y-36.7
X126.0Y-39.24
X126.0Y-41.78
X126.0Y-48.0
X126.0Y-50.54
X126.0Y-53.08
X126.0Y-55.62
X126.0Y-58.16
X126.0Y-60.7
X126.0Y-63.24
X126.0Y-65.78
T6
X31.0Y-25.0
X31.0Y-40.24
X33.54Y-25.0
X33.54Y-40.24
X36.08Y-25.0
X36.08Y-40.24
X38.62Y-25.0
X38.62Y-40.24
X41.16Y-25.0
X41.16Y-40.24
X43.7Y-25.0
X43.7Y-40.24
X46.24Y-25.0
X46.24Y-40.24
T7
X52.84Y-26.0
X55.34Y-26.0
X57.84Y-26.0
X60.34Y-26.0
X62.84Y-26.0
X65.34Y-26.0
X70.0Y-64.0
X72.25Y-25.0
X72.5Y-64.0
X74.75Y-25.0
X75.0Y-64.0
X77.25Y-25.0
X77.5Y-64.0
X79.75Y-25.0
X91.0Y-52.0
X91.0Y-54.5
X91.0Y-57.0
X91.0Y-59.5
X92.0Y-30.5
X92.0Y-33.0
X92.0Y-35.5
X92.0Y-38.0
X92.0Y-40.5
X92.0Y-43.0
X100.0Y-30.0
X100.0Y-32.5
X100.0Y-35.0
X100.0Y-37.5
X100.0Y-40.0
X100.0Y-42.5
X100.0Y-49.0
X100.0Y-51.5
X100.0Y-54.0
X100.0Y-56.5
X100.0Y-59.0
X100.0Y-61.5
T8
X29.76Y-49.0
X29.76Y-64.24
X32.3Y-49.0
X32.3Y-64.24
X34.84Y-49.0
X34.84Y-64.24
X37.38Y-49.0
X37.38Y-64.24
X39.92Y-49.0
X39.92Y-64.24
X42.46Y-49.0
X42.46Y-64.24
X45.0Y-49.0
X45.0Y-64.24
X47.54Y-49.0
X47.54Y-64.24
X50.08Y-49.0
X50.08Y-64.24
X52.62Y-49.0
X52.62Y-64.24
X55.16Y-49.0
X55.16Y-64.24
X57.7Y-49.0
X57.7Y-64.24
X60.24Y-49.0
X60.24Y-64.24
X62.78Y-49.0
X62.78Y-64.24
X134.0Y-29.0
X134.0Y-33.0
X134.0Y-37.0
X134.0Y-41.0
X134.0Y-50.0
X134.0Y-54.0
X134.0Y-58.0
X134.0Y-62.0
X136.54Y-29.0
X136.54Y-33.0
X136.54Y-37.0
X136.54Y-41.0
X136.54Y-50.0
X136.54Y-54.0
X136.54Y-58.0
X136.54Y-62.0
X139.08Y-29.0
X139.08Y-33.0
X139.08Y-37.0
X139.08Y-41.0
X139.08Y-50.0
X139.08Y-54.0
X139.08Y-58.0
X139.08Y-62.0
M30
