%TF.GenerationSoftware,KiCad,Pcbnew,10.0.3*%
%TF.CreationDate,2026-09-04T09:14:23-07:00*%
%TF.ProjectId,FAST Controller,46415354-2043-46f6-9e74-726f6c6c6572,rev?*%
%TF.SameCoordinates,Original*%
%TF.FileFunction,Soldermask,Top*%
%TF.FilePolarity,Negative*%
%FSLAX46Y46*%
G04 Gerber Fmt 4.6, Leading zero omitted, Abs format (unit mm)*
G04 Created by KiCad (PCBNEW 10.0.3) date 2026-09-04 09:14:23*
%MOMM*%
%LPD*%
G01*
G04 APERTURE LIST*
G04 Aperture macros list*
%AMRoundRect*
0 Rectangle with rounded corners*
0 $1 Rounding radius*
0 $2 $3 $4 $5 $6 $7 $8 $9 X,Y pos of 4 corners*
0 Add a 4 corners polygon primitive as box body*
4,1,4,$2,$3,$4,$5,$6,$7,$8,$9,$2,$3,0*
0 Add four circle primitives for the rounded corners*
1,1,$1+$1,$2,$3*
1,1,$1+$1,$4,$5*
1,1,$1+$1,$6,$7*
1,1,$1+$1,$8,$9*
0 Add four rect primitives between the rounded corners*
20,1,$1+$1,$2,$3,$4,$5,0*
20,1,$1+$1,$4,$5,$6,$7,0*
20,1,$1+$1,$6,$7,$8,$9,0*
20,1,$1+$1,$8,$9,$2,$3,0*%
G04 Aperture macros list end*
%ADD10C,3.200000*%
%ADD11C,1.500000*%
%ADD12RoundRect,0.250000X-0.550000X-0.550000X0.550000X-0.550000X0.550000X0.550000X-0.550000X0.550000X0*%
%ADD13C,1.600000*%
%ADD14RoundRect,0.250000X-0.350000X-0.450000X0.350000X-0.450000X0.350000X0.450000X-0.350000X0.450000X0*%
%ADD15RoundRect,0.250000X-0.950000X-0.550000X0.950000X-0.550000X0.950000X0.550000X-0.950000X0.550000X0*%
%ADD16O,2.400000X1.600000*%
%ADD17R,1.700000X1.700000*%
%ADD18C,1.700000*%
%ADD19RoundRect,0.250000X-0.450000X-0.800000X0.450000X-0.800000X0.450000X0.800000X-0.450000X0.800000X0*%
%ADD20RoundRect,0.250000X-0.600000X-0.725000X0.600000X-0.725000X0.600000X0.725000X-0.600000X0.725000X0*%
%ADD21O,1.700000X1.950000*%
%ADD22RoundRect,0.250000X-0.337500X-0.475000X0.337500X-0.475000X0.337500X0.475000X-0.337500X0.475000X0*%
%ADD23RoundRect,0.250000X-0.550000X0.550000X-0.550000X-0.550000X0.550000X-0.550000X0.550000X0.550000X0*%
%ADD24RoundRect,0.250000X0.725000X-0.600000X0.725000X0.600000X-0.725000X0.600000X-0.725000X-0.600000X0*%
%ADD25O,1.950000X1.700000*%
%ADD26RoundRect,0.150000X-0.825000X-0.150000X0.825000X-0.150000X0.825000X0.150000X-0.825000X0.150000X0*%
%ADD27RoundRect,0.152400X-0.609600X1.063600X-0.609600X-1.063600X0.609600X-1.063600X0.609600X1.063600X0*%
%ADD28C,1.524000*%
%ADD29RoundRect,0.152400X0.609600X-1.063600X0.609600X1.063600X-0.609600X1.063600X-0.609600X-1.063600X0*%
%ADD30RoundRect,0.213236X-0.511764X-0.511764X0.511764X-0.511764X0.511764X0.511764X-0.511764X0.511764X0*%
%ADD31O,1.450000X1.450000*%
G04 APERTURE END LIST*
D10*
%TO.C,H4*%
X142000000Y-67750000D03*
%TD*%
D11*
%TO.C,TP1*%
X99000000Y-24500000D03*
%TD*%
D12*
%TO.C,C4*%
X77000000Y-37000000D03*
D13*
X80500000Y-37000000D03*
%TD*%
D14*
%TO.C,R13*%
X112620000Y-53000000D03*
X114620000Y-53000000D03*
%TD*%
%TO.C,R27*%
X73000000Y-54000000D03*
X75000000Y-54000000D03*
%TD*%
%TO.C,R7*%
X108000000Y-63000000D03*
X110000000Y-63000000D03*
%TD*%
%TO.C,R14*%
X113000000Y-58000000D03*
X115000000Y-58000000D03*
%TD*%
%TO.C,R12*%
X112380000Y-42000000D03*
X114380000Y-42000000D03*
%TD*%
%TO.C,R1*%
X108000000Y-27000000D03*
X110000000Y-27000000D03*
%TD*%
%TO.C,R16*%
X113000000Y-68000000D03*
X115000000Y-68000000D03*
%TD*%
%TO.C,R2*%
X108000000Y-32000000D03*
X110000000Y-32000000D03*
%TD*%
%TO.C,R5*%
X108000000Y-53000000D03*
X110000000Y-53000000D03*
%TD*%
%TO.C,R20*%
X129000000Y-40000000D03*
X131000000Y-40000000D03*
%TD*%
%TO.C,R15*%
X113000000Y-63000000D03*
X115000000Y-63000000D03*
%TD*%
D15*
%TO.C,U4*%
X118380000Y-48000000D03*
D16*
X118380000Y-50540000D03*
X118380000Y-53080000D03*
X118380000Y-55620000D03*
X118380000Y-58160000D03*
X118380000Y-60700000D03*
X118380000Y-63240000D03*
X118380000Y-65780000D03*
X126000000Y-65780000D03*
X126000000Y-63240000D03*
X126000000Y-60700000D03*
X126000000Y-58160000D03*
X126000000Y-55620000D03*
X126000000Y-53080000D03*
X126000000Y-50540000D03*
X126000000Y-48000000D03*
%TD*%
D14*
%TO.C,R23*%
X129000000Y-59000000D03*
X131000000Y-59000000D03*
%TD*%
D10*
%TO.C,H1*%
X23000000Y-23000000D03*
%TD*%
D17*
%TO.C,J15*%
X139080000Y-62000000D03*
D18*
X136540000Y-62000000D03*
X134000000Y-62000000D03*
%TD*%
D11*
%TO.C,TP2*%
X102000000Y-24500000D03*
%TD*%
D10*
%TO.C,H2*%
X142000000Y-23000000D03*
%TD*%
D17*
%TO.C,J14*%
X139080000Y-58000000D03*
D18*
X136540000Y-58000000D03*
X134000000Y-58000000D03*
%TD*%
D19*
%TO.C,D2*%
X89000000Y-24000000D03*
X93400000Y-24000000D03*
%TD*%
D11*
%TO.C,TP3*%
X99000000Y-68500000D03*
%TD*%
D20*
%TO.C,J4*%
X70000000Y-64000000D03*
D21*
X72500000Y-64000000D03*
X75000000Y-64000000D03*
X77500000Y-64000000D03*
%TD*%
D14*
%TO.C,R3*%
X108000000Y-37000000D03*
X110000000Y-37000000D03*
%TD*%
D17*
%TO.C,J9*%
X139080000Y-33000000D03*
D18*
X136540000Y-33000000D03*
X134000000Y-33000000D03*
%TD*%
D14*
%TO.C,R21*%
X129000000Y-49000000D03*
X131000000Y-49000000D03*
%TD*%
%TO.C,R29*%
X53962500Y-43000000D03*
X55962500Y-43000000D03*
%TD*%
%TO.C,R26*%
X22000000Y-45000000D03*
X24000000Y-45000000D03*
%TD*%
D22*
%TO.C,C8*%
X63962500Y-34000000D03*
X66037500Y-34000000D03*
%TD*%
D15*
%TO.C,U3*%
X118380000Y-24000000D03*
D16*
X118380000Y-26540000D03*
X118380000Y-29080000D03*
X118380000Y-31620000D03*
X118380000Y-34160000D03*
X118380000Y-36700000D03*
X118380000Y-39240000D03*
X118380000Y-41780000D03*
X126000000Y-41780000D03*
X126000000Y-39240000D03*
X126000000Y-36700000D03*
X126000000Y-34160000D03*
X126000000Y-31620000D03*
X126000000Y-29080000D03*
X126000000Y-26540000D03*
X126000000Y-24000000D03*
%TD*%
D14*
%TO.C,R10*%
X112380000Y-32000000D03*
X114380000Y-32000000D03*
%TD*%
D23*
%TO.C,C3*%
X73000000Y-44000000D03*
D13*
X73000000Y-46000000D03*
%TD*%
D24*
%TO.C,J5*%
X92000000Y-43000000D03*
D25*
X92000000Y-40500000D03*
X92000000Y-38000000D03*
X92000000Y-35500000D03*
X92000000Y-33000000D03*
X92000000Y-30500000D03*
%TD*%
D22*
%TO.C,C6*%
X107962500Y-23000000D03*
X110037500Y-23000000D03*
%TD*%
D14*
%TO.C,R28*%
X68000000Y-59000000D03*
X70000000Y-59000000D03*
%TD*%
D10*
%TO.C,H3*%
X23000000Y-67750000D03*
%TD*%
D22*
%TO.C,C7*%
X112545000Y-48000000D03*
X114620000Y-48000000D03*
%TD*%
%TO.C,C1*%
X22000000Y-51000000D03*
X24075000Y-51000000D03*
%TD*%
D19*
%TO.C,D1*%
X88800000Y-66000000D03*
X93200000Y-66000000D03*
%TD*%
D14*
%TO.C,R19*%
X129000000Y-35000000D03*
X131000000Y-35000000D03*
%TD*%
D11*
%TO.C,TP4*%
X102000000Y-68500000D03*
%TD*%
D24*
%TO.C,J1*%
X91000000Y-59500000D03*
D25*
X91000000Y-57000000D03*
X91000000Y-54500000D03*
X91000000Y-52000000D03*
%TD*%
D14*
%TO.C,R6*%
X108000000Y-58000000D03*
X110000000Y-58000000D03*
%TD*%
D26*
%TO.C,U5*%
X52012500Y-35190000D03*
X52012500Y-36460000D03*
X52012500Y-37730000D03*
X52012500Y-39000000D03*
X56962500Y-39000000D03*
X56962500Y-37730000D03*
X56962500Y-36460000D03*
X56962500Y-35190000D03*
%TD*%
D22*
%TO.C,C2*%
X67925000Y-54000000D03*
X70000000Y-54000000D03*
%TD*%
D14*
%TO.C,R9*%
X112380000Y-27000000D03*
X114380000Y-27000000D03*
%TD*%
D17*
%TO.C,J8*%
X139080000Y-29000000D03*
D18*
X136540000Y-29000000D03*
X134000000Y-29000000D03*
%TD*%
D20*
%TO.C,J3*%
X72250000Y-25000000D03*
D21*
X74750000Y-25000000D03*
X77250000Y-25000000D03*
X79750000Y-25000000D03*
%TD*%
D18*
%TO.C,U1*%
X34840000Y-49000000D03*
X32300000Y-64240000D03*
X34840000Y-64240000D03*
X37380000Y-64240000D03*
X39920000Y-64240000D03*
X42460000Y-64240000D03*
X45000000Y-64240000D03*
X47540000Y-64240000D03*
X50080000Y-64240000D03*
X52620000Y-64240000D03*
X55160000Y-64240000D03*
X57700000Y-64240000D03*
X60240000Y-64240000D03*
X62780000Y-64240000D03*
X62780000Y-49000000D03*
X60240000Y-49000000D03*
X57700000Y-49000000D03*
X55160000Y-49000000D03*
X52620000Y-49000000D03*
X50080000Y-49000000D03*
X47540000Y-49000000D03*
X45000000Y-49000000D03*
X42460000Y-49000000D03*
X39920000Y-49000000D03*
X37380000Y-49000000D03*
D17*
X29760000Y-64240000D03*
D18*
X32300000Y-49000000D03*
X29760000Y-49000000D03*
%TD*%
D17*
%TO.C,J13*%
X139080000Y-54000000D03*
D18*
X136540000Y-54000000D03*
X134000000Y-54000000D03*
%TD*%
D22*
%TO.C,C5*%
X67850000Y-49000000D03*
X69925000Y-49000000D03*
%TD*%
D27*
%TO.C,U2*%
X31000000Y-41075000D03*
D28*
X31000000Y-40240000D03*
D27*
X33540000Y-41075000D03*
D28*
X33540000Y-40240000D03*
D27*
X36080000Y-41075000D03*
D28*
X36080000Y-40240000D03*
D27*
X38620000Y-41075000D03*
D28*
X38620000Y-40240000D03*
D27*
X41160000Y-41075000D03*
D28*
X41160000Y-40240000D03*
D27*
X43700000Y-41075000D03*
D28*
X43700000Y-40240000D03*
D27*
X46240000Y-41075000D03*
D28*
X46240000Y-40240000D03*
X46240000Y-25000000D03*
D29*
X46240000Y-24165000D03*
D28*
X43700000Y-25000000D03*
D29*
X43700000Y-24165000D03*
D28*
X41160000Y-25000000D03*
D29*
X41160000Y-24165000D03*
D28*
X38620000Y-25000000D03*
D29*
X38620000Y-24165000D03*
D28*
X36080000Y-25000000D03*
D29*
X36080000Y-24165000D03*
D28*
X33540000Y-25000000D03*
D29*
X33540000Y-24165000D03*
D28*
X31000000Y-25000000D03*
D29*
X31000000Y-24165000D03*
%TD*%
D24*
%TO.C,J7*%
X100000000Y-61500000D03*
D25*
X100000000Y-59000000D03*
X100000000Y-56500000D03*
X100000000Y-54000000D03*
X100000000Y-51500000D03*
X100000000Y-49000000D03*
%TD*%
D14*
%TO.C,R18*%
X129000000Y-30000000D03*
X131000000Y-30000000D03*
%TD*%
D17*
%TO.C,J12*%
X139080000Y-50000000D03*
D18*
X136540000Y-50000000D03*
X134000000Y-50000000D03*
%TD*%
D14*
%TO.C,R25*%
X73000000Y-49000000D03*
X75000000Y-49000000D03*
%TD*%
D24*
%TO.C,J6*%
X100000000Y-42500000D03*
D25*
X100000000Y-40000000D03*
X100000000Y-37500000D03*
X100000000Y-35000000D03*
X100000000Y-32500000D03*
X100000000Y-30000000D03*
%TD*%
D14*
%TO.C,R24*%
X129000000Y-64000000D03*
X131000000Y-64000000D03*
%TD*%
%TO.C,R4*%
X108000000Y-42000000D03*
X110000000Y-42000000D03*
%TD*%
%TO.C,R17*%
X129000000Y-25000000D03*
X131000000Y-25000000D03*
%TD*%
D17*
%TO.C,J10*%
X139080000Y-37000000D03*
D18*
X136540000Y-37000000D03*
X134000000Y-37000000D03*
%TD*%
D17*
%TO.C,J11*%
X139080000Y-41000000D03*
D18*
X136540000Y-41000000D03*
X134000000Y-41000000D03*
%TD*%
D14*
%TO.C,R22*%
X129000000Y-54000000D03*
X131000000Y-54000000D03*
%TD*%
%TO.C,R11*%
X112380000Y-37000000D03*
X114380000Y-37000000D03*
%TD*%
%TO.C,R8*%
X108000000Y-68000000D03*
X110000000Y-68000000D03*
%TD*%
D30*
%TO.C,J2*%
X52840000Y-26000000D03*
D31*
X55340000Y-26000000D03*
X57840000Y-26000000D03*
X60340000Y-26000000D03*
X62840000Y-26000000D03*
X65340000Y-26000000D03*
%TD*%
M02*
