%TF.GenerationSoftware,KiCad,Pcbnew,10.0.3*%
%TF.CreationDate,2026-06-13T12:40:48-07:00*%
%TF.ProjectId,AS_GPS_XIAO_OUTBOARD,41535f47-5053-45f5-9849-414f5f4f5554,rev?*%
%TF.SameCoordinates,Original*%
%TF.FileFunction,Legend,Top*%
%TF.FilePolarity,Positive*%
%FSLAX46Y46*%
G04 Gerber Fmt 4.6, Leading zero omitted, Abs format (unit mm)*
G04 Created by KiCad (PCBNEW 10.0.3) date 2026-06-13 12:40:48*
%MOMM*%
%LPD*%
G01*
G04 APERTURE LIST*
%ADD10C,0.150000*%
%ADD11C,0.100000*%
%ADD12C,0.200000*%
%ADD13C,0.120000*%
%ADD14C,0.127000*%
%ADD15C,0.504000*%
G04 APERTURE END LIST*
D10*
X61860588Y-2917438D02*
X61765350Y-2869819D01*
X61765350Y-2869819D02*
X61622493Y-2869819D01*
X61622493Y-2869819D02*
X61479636Y-2917438D01*
X61479636Y-2917438D02*
X61384398Y-3012676D01*
X61384398Y-3012676D02*
X61336779Y-3107914D01*
X61336779Y-3107914D02*
X61289160Y-3298390D01*
X61289160Y-3298390D02*
X61289160Y-3441247D01*
X61289160Y-3441247D02*
X61336779Y-3631723D01*
X61336779Y-3631723D02*
X61384398Y-3726961D01*
X61384398Y-3726961D02*
X61479636Y-3822200D01*
X61479636Y-3822200D02*
X61622493Y-3869819D01*
X61622493Y-3869819D02*
X61717731Y-3869819D01*
X61717731Y-3869819D02*
X61860588Y-3822200D01*
X61860588Y-3822200D02*
X61908207Y-3774580D01*
X61908207Y-3774580D02*
X61908207Y-3441247D01*
X61908207Y-3441247D02*
X61717731Y-3441247D01*
X62336779Y-3869819D02*
X62336779Y-2869819D01*
X62336779Y-2869819D02*
X62717731Y-2869819D01*
X62717731Y-2869819D02*
X62812969Y-2917438D01*
X62812969Y-2917438D02*
X62860588Y-2965057D01*
X62860588Y-2965057D02*
X62908207Y-3060295D01*
X62908207Y-3060295D02*
X62908207Y-3203152D01*
X62908207Y-3203152D02*
X62860588Y-3298390D01*
X62860588Y-3298390D02*
X62812969Y-3346009D01*
X62812969Y-3346009D02*
X62717731Y-3393628D01*
X62717731Y-3393628D02*
X62336779Y-3393628D01*
X63289160Y-3822200D02*
X63432017Y-3869819D01*
X63432017Y-3869819D02*
X63670112Y-3869819D01*
X63670112Y-3869819D02*
X63765350Y-3822200D01*
X63765350Y-3822200D02*
X63812969Y-3774580D01*
X63812969Y-3774580D02*
X63860588Y-3679342D01*
X63860588Y-3679342D02*
X63860588Y-3584104D01*
X63860588Y-3584104D02*
X63812969Y-3488866D01*
X63812969Y-3488866D02*
X63765350Y-3441247D01*
X63765350Y-3441247D02*
X63670112Y-3393628D01*
X63670112Y-3393628D02*
X63479636Y-3346009D01*
X63479636Y-3346009D02*
X63384398Y-3298390D01*
X63384398Y-3298390D02*
X63336779Y-3250771D01*
X63336779Y-3250771D02*
X63289160Y-3155533D01*
X63289160Y-3155533D02*
X63289160Y-3060295D01*
X63289160Y-3060295D02*
X63336779Y-2965057D01*
X63336779Y-2965057D02*
X63384398Y-2917438D01*
X63384398Y-2917438D02*
X63479636Y-2869819D01*
X63479636Y-2869819D02*
X63717731Y-2869819D01*
X63717731Y-2869819D02*
X63860588Y-2917438D01*
X65574874Y-2917438D02*
X65479636Y-2869819D01*
X65479636Y-2869819D02*
X65336779Y-2869819D01*
X65336779Y-2869819D02*
X65193922Y-2917438D01*
X65193922Y-2917438D02*
X65098684Y-3012676D01*
X65098684Y-3012676D02*
X65051065Y-3107914D01*
X65051065Y-3107914D02*
X65003446Y-3298390D01*
X65003446Y-3298390D02*
X65003446Y-3441247D01*
X65003446Y-3441247D02*
X65051065Y-3631723D01*
X65051065Y-3631723D02*
X65098684Y-3726961D01*
X65098684Y-3726961D02*
X65193922Y-3822200D01*
X65193922Y-3822200D02*
X65336779Y-3869819D01*
X65336779Y-3869819D02*
X65432017Y-3869819D01*
X65432017Y-3869819D02*
X65574874Y-3822200D01*
X65574874Y-3822200D02*
X65622493Y-3774580D01*
X65622493Y-3774580D02*
X65622493Y-3441247D01*
X65622493Y-3441247D02*
X65432017Y-3441247D01*
X66527255Y-3869819D02*
X66051065Y-3869819D01*
X66051065Y-3869819D02*
X66051065Y-2869819D01*
X66860589Y-2869819D02*
X66860589Y-3679342D01*
X66860589Y-3679342D02*
X66908208Y-3774580D01*
X66908208Y-3774580D02*
X66955827Y-3822200D01*
X66955827Y-3822200D02*
X67051065Y-3869819D01*
X67051065Y-3869819D02*
X67241541Y-3869819D01*
X67241541Y-3869819D02*
X67336779Y-3822200D01*
X67336779Y-3822200D02*
X67384398Y-3774580D01*
X67384398Y-3774580D02*
X67432017Y-3679342D01*
X67432017Y-3679342D02*
X67432017Y-2869819D01*
X67908208Y-3346009D02*
X68241541Y-3346009D01*
X68384398Y-3869819D02*
X67908208Y-3869819D01*
X67908208Y-3869819D02*
X67908208Y-2869819D01*
X67908208Y-2869819D02*
X68384398Y-2869819D01*
X69527256Y-3584104D02*
X70003446Y-3584104D01*
X69432018Y-3869819D02*
X69765351Y-2869819D01*
X69765351Y-2869819D02*
X70098684Y-3869819D01*
X71003446Y-3869819D02*
X70670113Y-3393628D01*
X70432018Y-3869819D02*
X70432018Y-2869819D01*
X70432018Y-2869819D02*
X70812970Y-2869819D01*
X70812970Y-2869819D02*
X70908208Y-2917438D01*
X70908208Y-2917438D02*
X70955827Y-2965057D01*
X70955827Y-2965057D02*
X71003446Y-3060295D01*
X71003446Y-3060295D02*
X71003446Y-3203152D01*
X71003446Y-3203152D02*
X70955827Y-3298390D01*
X70955827Y-3298390D02*
X70908208Y-3346009D01*
X70908208Y-3346009D02*
X70812970Y-3393628D01*
X70812970Y-3393628D02*
X70432018Y-3393628D01*
X71432018Y-3346009D02*
X71765351Y-3346009D01*
X71908208Y-3869819D02*
X71432018Y-3869819D01*
X71432018Y-3869819D02*
X71432018Y-2869819D01*
X71432018Y-2869819D02*
X71908208Y-2869819D01*
X72289161Y-3584104D02*
X72765351Y-3584104D01*
X72193923Y-3869819D02*
X72527256Y-2869819D01*
X72527256Y-2869819D02*
X72860589Y-3869819D01*
X73908209Y-2965057D02*
X73955828Y-2917438D01*
X73955828Y-2917438D02*
X74051066Y-2869819D01*
X74051066Y-2869819D02*
X74289161Y-2869819D01*
X74289161Y-2869819D02*
X74384399Y-2917438D01*
X74384399Y-2917438D02*
X74432018Y-2965057D01*
X74432018Y-2965057D02*
X74479637Y-3060295D01*
X74479637Y-3060295D02*
X74479637Y-3155533D01*
X74479637Y-3155533D02*
X74432018Y-3298390D01*
X74432018Y-3298390D02*
X73860590Y-3869819D01*
X73860590Y-3869819D02*
X74479637Y-3869819D01*
X75384399Y-2869819D02*
X74908209Y-2869819D01*
X74908209Y-2869819D02*
X74860590Y-3346009D01*
X74860590Y-3346009D02*
X74908209Y-3298390D01*
X74908209Y-3298390D02*
X75003447Y-3250771D01*
X75003447Y-3250771D02*
X75241542Y-3250771D01*
X75241542Y-3250771D02*
X75336780Y-3298390D01*
X75336780Y-3298390D02*
X75384399Y-3346009D01*
X75384399Y-3346009D02*
X75432018Y-3441247D01*
X75432018Y-3441247D02*
X75432018Y-3679342D01*
X75432018Y-3679342D02*
X75384399Y-3774580D01*
X75384399Y-3774580D02*
X75336780Y-3822200D01*
X75336780Y-3822200D02*
X75241542Y-3869819D01*
X75241542Y-3869819D02*
X75003447Y-3869819D01*
X75003447Y-3869819D02*
X74908209Y-3822200D01*
X74908209Y-3822200D02*
X74860590Y-3774580D01*
X76527257Y-3869819D02*
X77051066Y-3203152D01*
X76527257Y-3203152D02*
X77051066Y-3869819D01*
X78146305Y-2965057D02*
X78193924Y-2917438D01*
X78193924Y-2917438D02*
X78289162Y-2869819D01*
X78289162Y-2869819D02*
X78527257Y-2869819D01*
X78527257Y-2869819D02*
X78622495Y-2917438D01*
X78622495Y-2917438D02*
X78670114Y-2965057D01*
X78670114Y-2965057D02*
X78717733Y-3060295D01*
X78717733Y-3060295D02*
X78717733Y-3155533D01*
X78717733Y-3155533D02*
X78670114Y-3298390D01*
X78670114Y-3298390D02*
X78098686Y-3869819D01*
X78098686Y-3869819D02*
X78717733Y-3869819D01*
X79622495Y-2869819D02*
X79146305Y-2869819D01*
X79146305Y-2869819D02*
X79098686Y-3346009D01*
X79098686Y-3346009D02*
X79146305Y-3298390D01*
X79146305Y-3298390D02*
X79241543Y-3250771D01*
X79241543Y-3250771D02*
X79479638Y-3250771D01*
X79479638Y-3250771D02*
X79574876Y-3298390D01*
X79574876Y-3298390D02*
X79622495Y-3346009D01*
X79622495Y-3346009D02*
X79670114Y-3441247D01*
X79670114Y-3441247D02*
X79670114Y-3679342D01*
X79670114Y-3679342D02*
X79622495Y-3774580D01*
X79622495Y-3774580D02*
X79574876Y-3822200D01*
X79574876Y-3822200D02*
X79479638Y-3869819D01*
X79479638Y-3869819D02*
X79241543Y-3869819D01*
X79241543Y-3869819D02*
X79146305Y-3822200D01*
X79146305Y-3822200D02*
X79098686Y-3774580D01*
X80860591Y-3869819D02*
X80860591Y-3203152D01*
X80860591Y-3298390D02*
X80908210Y-3250771D01*
X80908210Y-3250771D02*
X81003448Y-3203152D01*
X81003448Y-3203152D02*
X81146305Y-3203152D01*
X81146305Y-3203152D02*
X81241543Y-3250771D01*
X81241543Y-3250771D02*
X81289162Y-3346009D01*
X81289162Y-3346009D02*
X81289162Y-3869819D01*
X81289162Y-3346009D02*
X81336781Y-3250771D01*
X81336781Y-3250771D02*
X81432019Y-3203152D01*
X81432019Y-3203152D02*
X81574876Y-3203152D01*
X81574876Y-3203152D02*
X81670115Y-3250771D01*
X81670115Y-3250771D02*
X81717734Y-3346009D01*
X81717734Y-3346009D02*
X81717734Y-3869819D01*
X82193924Y-3869819D02*
X82193924Y-3203152D01*
X82193924Y-3298390D02*
X82241543Y-3250771D01*
X82241543Y-3250771D02*
X82336781Y-3203152D01*
X82336781Y-3203152D02*
X82479638Y-3203152D01*
X82479638Y-3203152D02*
X82574876Y-3250771D01*
X82574876Y-3250771D02*
X82622495Y-3346009D01*
X82622495Y-3346009D02*
X82622495Y-3869819D01*
X82622495Y-3346009D02*
X82670114Y-3250771D01*
X82670114Y-3250771D02*
X82765352Y-3203152D01*
X82765352Y-3203152D02*
X82908209Y-3203152D01*
X82908209Y-3203152D02*
X83003448Y-3250771D01*
X83003448Y-3250771D02*
X83051067Y-3346009D01*
X83051067Y-3346009D02*
X83051067Y-3869819D01*
X44193922Y-19869819D02*
X44765350Y-19869819D01*
X44479636Y-20869819D02*
X44479636Y-19869819D01*
X45003446Y-19869819D02*
X45670112Y-20869819D01*
X45670112Y-19869819D02*
X45003446Y-20869819D01*
X44908207Y-18369819D02*
X44574874Y-17893628D01*
X44336779Y-18369819D02*
X44336779Y-17369819D01*
X44336779Y-17369819D02*
X44717731Y-17369819D01*
X44717731Y-17369819D02*
X44812969Y-17417438D01*
X44812969Y-17417438D02*
X44860588Y-17465057D01*
X44860588Y-17465057D02*
X44908207Y-17560295D01*
X44908207Y-17560295D02*
X44908207Y-17703152D01*
X44908207Y-17703152D02*
X44860588Y-17798390D01*
X44860588Y-17798390D02*
X44812969Y-17846009D01*
X44812969Y-17846009D02*
X44717731Y-17893628D01*
X44717731Y-17893628D02*
X44336779Y-17893628D01*
X45241541Y-17369819D02*
X45908207Y-18369819D01*
X45908207Y-17369819D02*
X45241541Y-18369819D01*
D11*
X59145952Y-854048D02*
X84145952Y-854048D01*
X84145952Y-25854048D01*
X59145952Y-25854048D01*
X59145952Y-854048D01*
D10*
X24360588Y-19917438D02*
X24265350Y-19869819D01*
X24265350Y-19869819D02*
X24122493Y-19869819D01*
X24122493Y-19869819D02*
X23979636Y-19917438D01*
X23979636Y-19917438D02*
X23884398Y-20012676D01*
X23884398Y-20012676D02*
X23836779Y-20107914D01*
X23836779Y-20107914D02*
X23789160Y-20298390D01*
X23789160Y-20298390D02*
X23789160Y-20441247D01*
X23789160Y-20441247D02*
X23836779Y-20631723D01*
X23836779Y-20631723D02*
X23884398Y-20726961D01*
X23884398Y-20726961D02*
X23979636Y-20822200D01*
X23979636Y-20822200D02*
X24122493Y-20869819D01*
X24122493Y-20869819D02*
X24217731Y-20869819D01*
X24217731Y-20869819D02*
X24360588Y-20822200D01*
X24360588Y-20822200D02*
X24408207Y-20774580D01*
X24408207Y-20774580D02*
X24408207Y-20441247D01*
X24408207Y-20441247D02*
X24217731Y-20441247D01*
X24836779Y-20869819D02*
X24836779Y-19869819D01*
X24836779Y-19869819D02*
X25408207Y-20869819D01*
X25408207Y-20869819D02*
X25408207Y-19869819D01*
X25884398Y-20869819D02*
X25884398Y-19869819D01*
X25884398Y-19869819D02*
X26122493Y-19869819D01*
X26122493Y-19869819D02*
X26265350Y-19917438D01*
X26265350Y-19917438D02*
X26360588Y-20012676D01*
X26360588Y-20012676D02*
X26408207Y-20107914D01*
X26408207Y-20107914D02*
X26455826Y-20298390D01*
X26455826Y-20298390D02*
X26455826Y-20441247D01*
X26455826Y-20441247D02*
X26408207Y-20631723D01*
X26408207Y-20631723D02*
X26360588Y-20726961D01*
X26360588Y-20726961D02*
X26265350Y-20822200D01*
X26265350Y-20822200D02*
X26122493Y-20869819D01*
X26122493Y-20869819D02*
X25884398Y-20869819D01*
X24336779Y-8369819D02*
X24336779Y-7369819D01*
X24336779Y-7369819D02*
X24908207Y-8369819D01*
X24908207Y-8369819D02*
X24908207Y-7369819D01*
X25955826Y-8274580D02*
X25908207Y-8322200D01*
X25908207Y-8322200D02*
X25765350Y-8369819D01*
X25765350Y-8369819D02*
X25670112Y-8369819D01*
X25670112Y-8369819D02*
X25527255Y-8322200D01*
X25527255Y-8322200D02*
X25432017Y-8226961D01*
X25432017Y-8226961D02*
X25384398Y-8131723D01*
X25384398Y-8131723D02*
X25336779Y-7941247D01*
X25336779Y-7941247D02*
X25336779Y-7798390D01*
X25336779Y-7798390D02*
X25384398Y-7607914D01*
X25384398Y-7607914D02*
X25432017Y-7512676D01*
X25432017Y-7512676D02*
X25527255Y-7417438D01*
X25527255Y-7417438D02*
X25670112Y-7369819D01*
X25670112Y-7369819D02*
X25765350Y-7369819D01*
X25765350Y-7369819D02*
X25908207Y-7417438D01*
X25908207Y-7417438D02*
X25955826Y-7465057D01*
X24336779Y-10869819D02*
X24336779Y-9869819D01*
X24336779Y-9869819D02*
X24908207Y-10869819D01*
X24908207Y-10869819D02*
X24908207Y-9869819D01*
X25955826Y-10774580D02*
X25908207Y-10822200D01*
X25908207Y-10822200D02*
X25765350Y-10869819D01*
X25765350Y-10869819D02*
X25670112Y-10869819D01*
X25670112Y-10869819D02*
X25527255Y-10822200D01*
X25527255Y-10822200D02*
X25432017Y-10726961D01*
X25432017Y-10726961D02*
X25384398Y-10631723D01*
X25384398Y-10631723D02*
X25336779Y-10441247D01*
X25336779Y-10441247D02*
X25336779Y-10298390D01*
X25336779Y-10298390D02*
X25384398Y-10107914D01*
X25384398Y-10107914D02*
X25432017Y-10012676D01*
X25432017Y-10012676D02*
X25527255Y-9917438D01*
X25527255Y-9917438D02*
X25670112Y-9869819D01*
X25670112Y-9869819D02*
X25765350Y-9869819D01*
X25765350Y-9869819D02*
X25908207Y-9917438D01*
X25908207Y-9917438D02*
X25955826Y-9965057D01*
X24812969Y-17369819D02*
X24336779Y-17369819D01*
X24336779Y-17369819D02*
X24289160Y-17846009D01*
X24289160Y-17846009D02*
X24336779Y-17798390D01*
X24336779Y-17798390D02*
X24432017Y-17750771D01*
X24432017Y-17750771D02*
X24670112Y-17750771D01*
X24670112Y-17750771D02*
X24765350Y-17798390D01*
X24765350Y-17798390D02*
X24812969Y-17846009D01*
X24812969Y-17846009D02*
X24860588Y-17941247D01*
X24860588Y-17941247D02*
X24860588Y-18179342D01*
X24860588Y-18179342D02*
X24812969Y-18274580D01*
X24812969Y-18274580D02*
X24765350Y-18322200D01*
X24765350Y-18322200D02*
X24670112Y-18369819D01*
X24670112Y-18369819D02*
X24432017Y-18369819D01*
X24432017Y-18369819D02*
X24336779Y-18322200D01*
X24336779Y-18322200D02*
X24289160Y-18274580D01*
X25193922Y-17703152D02*
X25432017Y-18369819D01*
X25432017Y-18369819D02*
X25670112Y-17703152D01*
X44289160Y-8322200D02*
X44432017Y-8369819D01*
X44432017Y-8369819D02*
X44670112Y-8369819D01*
X44670112Y-8369819D02*
X44765350Y-8322200D01*
X44765350Y-8322200D02*
X44812969Y-8274580D01*
X44812969Y-8274580D02*
X44860588Y-8179342D01*
X44860588Y-8179342D02*
X44860588Y-8084104D01*
X44860588Y-8084104D02*
X44812969Y-7988866D01*
X44812969Y-7988866D02*
X44765350Y-7941247D01*
X44765350Y-7941247D02*
X44670112Y-7893628D01*
X44670112Y-7893628D02*
X44479636Y-7846009D01*
X44479636Y-7846009D02*
X44384398Y-7798390D01*
X44384398Y-7798390D02*
X44336779Y-7750771D01*
X44336779Y-7750771D02*
X44289160Y-7655533D01*
X44289160Y-7655533D02*
X44289160Y-7560295D01*
X44289160Y-7560295D02*
X44336779Y-7465057D01*
X44336779Y-7465057D02*
X44384398Y-7417438D01*
X44384398Y-7417438D02*
X44479636Y-7369819D01*
X44479636Y-7369819D02*
X44717731Y-7369819D01*
X44717731Y-7369819D02*
X44860588Y-7417438D01*
X45289160Y-8369819D02*
X45289160Y-7369819D01*
X45289160Y-7369819D02*
X45527255Y-7369819D01*
X45527255Y-7369819D02*
X45670112Y-7417438D01*
X45670112Y-7417438D02*
X45765350Y-7512676D01*
X45765350Y-7512676D02*
X45812969Y-7607914D01*
X45812969Y-7607914D02*
X45860588Y-7798390D01*
X45860588Y-7798390D02*
X45860588Y-7941247D01*
X45860588Y-7941247D02*
X45812969Y-8131723D01*
X45812969Y-8131723D02*
X45765350Y-8226961D01*
X45765350Y-8226961D02*
X45670112Y-8322200D01*
X45670112Y-8322200D02*
X45527255Y-8369819D01*
X45527255Y-8369819D02*
X45289160Y-8369819D01*
X46241541Y-8084104D02*
X46717731Y-8084104D01*
X46146303Y-8369819D02*
X46479636Y-7369819D01*
X46479636Y-7369819D02*
X46812969Y-8369819D01*
X44289160Y-10822200D02*
X44432017Y-10869819D01*
X44432017Y-10869819D02*
X44670112Y-10869819D01*
X44670112Y-10869819D02*
X44765350Y-10822200D01*
X44765350Y-10822200D02*
X44812969Y-10774580D01*
X44812969Y-10774580D02*
X44860588Y-10679342D01*
X44860588Y-10679342D02*
X44860588Y-10584104D01*
X44860588Y-10584104D02*
X44812969Y-10488866D01*
X44812969Y-10488866D02*
X44765350Y-10441247D01*
X44765350Y-10441247D02*
X44670112Y-10393628D01*
X44670112Y-10393628D02*
X44479636Y-10346009D01*
X44479636Y-10346009D02*
X44384398Y-10298390D01*
X44384398Y-10298390D02*
X44336779Y-10250771D01*
X44336779Y-10250771D02*
X44289160Y-10155533D01*
X44289160Y-10155533D02*
X44289160Y-10060295D01*
X44289160Y-10060295D02*
X44336779Y-9965057D01*
X44336779Y-9965057D02*
X44384398Y-9917438D01*
X44384398Y-9917438D02*
X44479636Y-9869819D01*
X44479636Y-9869819D02*
X44717731Y-9869819D01*
X44717731Y-9869819D02*
X44860588Y-9917438D01*
X45860588Y-10774580D02*
X45812969Y-10822200D01*
X45812969Y-10822200D02*
X45670112Y-10869819D01*
X45670112Y-10869819D02*
X45574874Y-10869819D01*
X45574874Y-10869819D02*
X45432017Y-10822200D01*
X45432017Y-10822200D02*
X45336779Y-10726961D01*
X45336779Y-10726961D02*
X45289160Y-10631723D01*
X45289160Y-10631723D02*
X45241541Y-10441247D01*
X45241541Y-10441247D02*
X45241541Y-10298390D01*
X45241541Y-10298390D02*
X45289160Y-10107914D01*
X45289160Y-10107914D02*
X45336779Y-10012676D01*
X45336779Y-10012676D02*
X45432017Y-9917438D01*
X45432017Y-9917438D02*
X45574874Y-9869819D01*
X45574874Y-9869819D02*
X45670112Y-9869819D01*
X45670112Y-9869819D02*
X45812969Y-9917438D01*
X45812969Y-9917438D02*
X45860588Y-9965057D01*
X46765350Y-10869819D02*
X46289160Y-10869819D01*
X46289160Y-10869819D02*
X46289160Y-9869819D01*
X44812969Y-12369819D02*
X44336779Y-12369819D01*
X44336779Y-12369819D02*
X44289160Y-12846009D01*
X44289160Y-12846009D02*
X44336779Y-12798390D01*
X44336779Y-12798390D02*
X44432017Y-12750771D01*
X44432017Y-12750771D02*
X44670112Y-12750771D01*
X44670112Y-12750771D02*
X44765350Y-12798390D01*
X44765350Y-12798390D02*
X44812969Y-12846009D01*
X44812969Y-12846009D02*
X44860588Y-12941247D01*
X44860588Y-12941247D02*
X44860588Y-13179342D01*
X44860588Y-13179342D02*
X44812969Y-13274580D01*
X44812969Y-13274580D02*
X44765350Y-13322200D01*
X44765350Y-13322200D02*
X44670112Y-13369819D01*
X44670112Y-13369819D02*
X44432017Y-13369819D01*
X44432017Y-13369819D02*
X44336779Y-13322200D01*
X44336779Y-13322200D02*
X44289160Y-13274580D01*
X45193922Y-12703152D02*
X45432017Y-13369819D01*
X45432017Y-13369819D02*
X45670112Y-12703152D01*
X44860588Y-14917438D02*
X44765350Y-14869819D01*
X44765350Y-14869819D02*
X44622493Y-14869819D01*
X44622493Y-14869819D02*
X44479636Y-14917438D01*
X44479636Y-14917438D02*
X44384398Y-15012676D01*
X44384398Y-15012676D02*
X44336779Y-15107914D01*
X44336779Y-15107914D02*
X44289160Y-15298390D01*
X44289160Y-15298390D02*
X44289160Y-15441247D01*
X44289160Y-15441247D02*
X44336779Y-15631723D01*
X44336779Y-15631723D02*
X44384398Y-15726961D01*
X44384398Y-15726961D02*
X44479636Y-15822200D01*
X44479636Y-15822200D02*
X44622493Y-15869819D01*
X44622493Y-15869819D02*
X44717731Y-15869819D01*
X44717731Y-15869819D02*
X44860588Y-15822200D01*
X44860588Y-15822200D02*
X44908207Y-15774580D01*
X44908207Y-15774580D02*
X44908207Y-15441247D01*
X44908207Y-15441247D02*
X44717731Y-15441247D01*
X45336779Y-15869819D02*
X45336779Y-14869819D01*
X45336779Y-14869819D02*
X45908207Y-15869819D01*
X45908207Y-15869819D02*
X45908207Y-14869819D01*
X46384398Y-15869819D02*
X46384398Y-14869819D01*
X46384398Y-14869819D02*
X46622493Y-14869819D01*
X46622493Y-14869819D02*
X46765350Y-14917438D01*
X46765350Y-14917438D02*
X46860588Y-15012676D01*
X46860588Y-15012676D02*
X46908207Y-15107914D01*
X46908207Y-15107914D02*
X46955826Y-15298390D01*
X46955826Y-15298390D02*
X46955826Y-15441247D01*
X46955826Y-15441247D02*
X46908207Y-15631723D01*
X46908207Y-15631723D02*
X46860588Y-15726961D01*
X46860588Y-15726961D02*
X46765350Y-15822200D01*
X46765350Y-15822200D02*
X46622493Y-15869819D01*
X46622493Y-15869819D02*
X46384398Y-15869819D01*
X96454819Y-13761904D02*
X97264342Y-13761904D01*
X97264342Y-13761904D02*
X97359580Y-13714285D01*
X97359580Y-13714285D02*
X97407200Y-13666666D01*
X97407200Y-13666666D02*
X97454819Y-13571428D01*
X97454819Y-13571428D02*
X97454819Y-13380952D01*
X97454819Y-13380952D02*
X97407200Y-13285714D01*
X97407200Y-13285714D02*
X97359580Y-13238095D01*
X97359580Y-13238095D02*
X97264342Y-13190476D01*
X97264342Y-13190476D02*
X96454819Y-13190476D01*
X96550057Y-12761904D02*
X96502438Y-12714285D01*
X96502438Y-12714285D02*
X96454819Y-12619047D01*
X96454819Y-12619047D02*
X96454819Y-12380952D01*
X96454819Y-12380952D02*
X96502438Y-12285714D01*
X96502438Y-12285714D02*
X96550057Y-12238095D01*
X96550057Y-12238095D02*
X96645295Y-12190476D01*
X96645295Y-12190476D02*
X96740533Y-12190476D01*
X96740533Y-12190476D02*
X96883390Y-12238095D01*
X96883390Y-12238095D02*
X97454819Y-12809523D01*
X97454819Y-12809523D02*
X97454819Y-12190476D01*
X93238095Y-12459819D02*
X93238095Y-13269342D01*
X93238095Y-13269342D02*
X93285714Y-13364580D01*
X93285714Y-13364580D02*
X93333333Y-13412200D01*
X93333333Y-13412200D02*
X93428571Y-13459819D01*
X93428571Y-13459819D02*
X93619047Y-13459819D01*
X93619047Y-13459819D02*
X93714285Y-13412200D01*
X93714285Y-13412200D02*
X93761904Y-13364580D01*
X93761904Y-13364580D02*
X93809523Y-13269342D01*
X93809523Y-13269342D02*
X93809523Y-12459819D01*
X94238095Y-12555057D02*
X94285714Y-12507438D01*
X94285714Y-12507438D02*
X94380952Y-12459819D01*
X94380952Y-12459819D02*
X94619047Y-12459819D01*
X94619047Y-12459819D02*
X94714285Y-12507438D01*
X94714285Y-12507438D02*
X94761904Y-12555057D01*
X94761904Y-12555057D02*
X94809523Y-12650295D01*
X94809523Y-12650295D02*
X94809523Y-12745533D01*
X94809523Y-12745533D02*
X94761904Y-12888390D01*
X94761904Y-12888390D02*
X94190476Y-13459819D01*
X94190476Y-13459819D02*
X94809523Y-13459819D01*
X96833333Y-3679580D02*
X96785714Y-3727200D01*
X96785714Y-3727200D02*
X96642857Y-3774819D01*
X96642857Y-3774819D02*
X96547619Y-3774819D01*
X96547619Y-3774819D02*
X96404762Y-3727200D01*
X96404762Y-3727200D02*
X96309524Y-3631961D01*
X96309524Y-3631961D02*
X96261905Y-3536723D01*
X96261905Y-3536723D02*
X96214286Y-3346247D01*
X96214286Y-3346247D02*
X96214286Y-3203390D01*
X96214286Y-3203390D02*
X96261905Y-3012914D01*
X96261905Y-3012914D02*
X96309524Y-2917676D01*
X96309524Y-2917676D02*
X96404762Y-2822438D01*
X96404762Y-2822438D02*
X96547619Y-2774819D01*
X96547619Y-2774819D02*
X96642857Y-2774819D01*
X96642857Y-2774819D02*
X96785714Y-2822438D01*
X96785714Y-2822438D02*
X96833333Y-2870057D01*
X97785714Y-3774819D02*
X97214286Y-3774819D01*
X97500000Y-3774819D02*
X97500000Y-2774819D01*
X97500000Y-2774819D02*
X97404762Y-2917676D01*
X97404762Y-2917676D02*
X97309524Y-3012914D01*
X97309524Y-3012914D02*
X97214286Y-3060533D01*
X94999999Y-7039580D02*
X94952380Y-7087200D01*
X94952380Y-7087200D02*
X94809523Y-7134819D01*
X94809523Y-7134819D02*
X94714285Y-7134819D01*
X94714285Y-7134819D02*
X94571428Y-7087200D01*
X94571428Y-7087200D02*
X94476190Y-6991961D01*
X94476190Y-6991961D02*
X94428571Y-6896723D01*
X94428571Y-6896723D02*
X94380952Y-6706247D01*
X94380952Y-6706247D02*
X94380952Y-6563390D01*
X94380952Y-6563390D02*
X94428571Y-6372914D01*
X94428571Y-6372914D02*
X94476190Y-6277676D01*
X94476190Y-6277676D02*
X94571428Y-6182438D01*
X94571428Y-6182438D02*
X94714285Y-6134819D01*
X94714285Y-6134819D02*
X94809523Y-6134819D01*
X94809523Y-6134819D02*
X94952380Y-6182438D01*
X94952380Y-6182438D02*
X94999999Y-6230057D01*
X95952380Y-7134819D02*
X95380952Y-7134819D01*
X95666666Y-7134819D02*
X95666666Y-6134819D01*
X95666666Y-6134819D02*
X95571428Y-6277676D01*
X95571428Y-6277676D02*
X95476190Y-6372914D01*
X95476190Y-6372914D02*
X95380952Y-6420533D01*
X96571428Y-6134819D02*
X96666666Y-6134819D01*
X96666666Y-6134819D02*
X96761904Y-6182438D01*
X96761904Y-6182438D02*
X96809523Y-6230057D01*
X96809523Y-6230057D02*
X96857142Y-6325295D01*
X96857142Y-6325295D02*
X96904761Y-6515771D01*
X96904761Y-6515771D02*
X96904761Y-6753866D01*
X96904761Y-6753866D02*
X96857142Y-6944342D01*
X96857142Y-6944342D02*
X96809523Y-7039580D01*
X96809523Y-7039580D02*
X96761904Y-7087200D01*
X96761904Y-7087200D02*
X96666666Y-7134819D01*
X96666666Y-7134819D02*
X96571428Y-7134819D01*
X96571428Y-7134819D02*
X96476190Y-7087200D01*
X96476190Y-7087200D02*
X96428571Y-7039580D01*
X96428571Y-7039580D02*
X96380952Y-6944342D01*
X96380952Y-6944342D02*
X96333333Y-6753866D01*
X96333333Y-6753866D02*
X96333333Y-6515771D01*
X96333333Y-6515771D02*
X96380952Y-6325295D01*
X96380952Y-6325295D02*
X96428571Y-6230057D01*
X96428571Y-6230057D02*
X96476190Y-6182438D01*
X96476190Y-6182438D02*
X96571428Y-6134819D01*
X97523809Y-6134819D02*
X97619047Y-6134819D01*
X97619047Y-6134819D02*
X97714285Y-6182438D01*
X97714285Y-6182438D02*
X97761904Y-6230057D01*
X97761904Y-6230057D02*
X97809523Y-6325295D01*
X97809523Y-6325295D02*
X97857142Y-6515771D01*
X97857142Y-6515771D02*
X97857142Y-6753866D01*
X97857142Y-6753866D02*
X97809523Y-6944342D01*
X97809523Y-6944342D02*
X97761904Y-7039580D01*
X97761904Y-7039580D02*
X97714285Y-7087200D01*
X97714285Y-7087200D02*
X97619047Y-7134819D01*
X97619047Y-7134819D02*
X97523809Y-7134819D01*
X97523809Y-7134819D02*
X97428571Y-7087200D01*
X97428571Y-7087200D02*
X97380952Y-7039580D01*
X97380952Y-7039580D02*
X97333333Y-6944342D01*
X97333333Y-6944342D02*
X97285714Y-6753866D01*
X97285714Y-6753866D02*
X97285714Y-6515771D01*
X97285714Y-6515771D02*
X97333333Y-6325295D01*
X97333333Y-6325295D02*
X97380952Y-6230057D01*
X97380952Y-6230057D02*
X97428571Y-6182438D01*
X97428571Y-6182438D02*
X97523809Y-6134819D01*
X98285714Y-6468152D02*
X98285714Y-7134819D01*
X98285714Y-6563390D02*
X98333333Y-6515771D01*
X98333333Y-6515771D02*
X98428571Y-6468152D01*
X98428571Y-6468152D02*
X98571428Y-6468152D01*
X98571428Y-6468152D02*
X98666666Y-6515771D01*
X98666666Y-6515771D02*
X98714285Y-6611009D01*
X98714285Y-6611009D02*
X98714285Y-7134819D01*
X99523809Y-6611009D02*
X99190476Y-6611009D01*
X99190476Y-7134819D02*
X99190476Y-6134819D01*
X99190476Y-6134819D02*
X99666666Y-6134819D01*
X53238095Y-20454819D02*
X53238095Y-19454819D01*
X53238095Y-19931009D02*
X53809523Y-19931009D01*
X53809523Y-20454819D02*
X53809523Y-19454819D01*
X54714285Y-19788152D02*
X54714285Y-20454819D01*
X54476190Y-19407200D02*
X54238095Y-20121485D01*
X54238095Y-20121485D02*
X54857142Y-20121485D01*
X53238095Y-7454819D02*
X53238095Y-6454819D01*
X53238095Y-6931009D02*
X53809523Y-6931009D01*
X53809523Y-7454819D02*
X53809523Y-6454819D01*
X54238095Y-6550057D02*
X54285714Y-6502438D01*
X54285714Y-6502438D02*
X54380952Y-6454819D01*
X54380952Y-6454819D02*
X54619047Y-6454819D01*
X54619047Y-6454819D02*
X54714285Y-6502438D01*
X54714285Y-6502438D02*
X54761904Y-6550057D01*
X54761904Y-6550057D02*
X54809523Y-6645295D01*
X54809523Y-6645295D02*
X54809523Y-6740533D01*
X54809523Y-6740533D02*
X54761904Y-6883390D01*
X54761904Y-6883390D02*
X54190476Y-7454819D01*
X54190476Y-7454819D02*
X54809523Y-7454819D01*
X38454819Y-3333333D02*
X39169104Y-3333333D01*
X39169104Y-3333333D02*
X39311961Y-3380952D01*
X39311961Y-3380952D02*
X39407200Y-3476190D01*
X39407200Y-3476190D02*
X39454819Y-3619047D01*
X39454819Y-3619047D02*
X39454819Y-3714285D01*
X38550057Y-2904761D02*
X38502438Y-2857142D01*
X38502438Y-2857142D02*
X38454819Y-2761904D01*
X38454819Y-2761904D02*
X38454819Y-2523809D01*
X38454819Y-2523809D02*
X38502438Y-2428571D01*
X38502438Y-2428571D02*
X38550057Y-2380952D01*
X38550057Y-2380952D02*
X38645295Y-2333333D01*
X38645295Y-2333333D02*
X38740533Y-2333333D01*
X38740533Y-2333333D02*
X38883390Y-2380952D01*
X38883390Y-2380952D02*
X39454819Y-2952380D01*
X39454819Y-2952380D02*
X39454819Y-2333333D01*
X40454819Y-12333333D02*
X41169104Y-12333333D01*
X41169104Y-12333333D02*
X41311961Y-12380952D01*
X41311961Y-12380952D02*
X41407200Y-12476190D01*
X41407200Y-12476190D02*
X41454819Y-12619047D01*
X41454819Y-12619047D02*
X41454819Y-12714285D01*
X40550057Y-11904761D02*
X40502438Y-11857142D01*
X40502438Y-11857142D02*
X40454819Y-11761904D01*
X40454819Y-11761904D02*
X40454819Y-11523809D01*
X40454819Y-11523809D02*
X40502438Y-11428571D01*
X40502438Y-11428571D02*
X40550057Y-11380952D01*
X40550057Y-11380952D02*
X40645295Y-11333333D01*
X40645295Y-11333333D02*
X40740533Y-11333333D01*
X40740533Y-11333333D02*
X40883390Y-11380952D01*
X40883390Y-11380952D02*
X41454819Y-11952380D01*
X41454819Y-11952380D02*
X41454819Y-11333333D01*
X91833333Y-3804819D02*
X91500000Y-3328628D01*
X91261905Y-3804819D02*
X91261905Y-2804819D01*
X91261905Y-2804819D02*
X91642857Y-2804819D01*
X91642857Y-2804819D02*
X91738095Y-2852438D01*
X91738095Y-2852438D02*
X91785714Y-2900057D01*
X91785714Y-2900057D02*
X91833333Y-2995295D01*
X91833333Y-2995295D02*
X91833333Y-3138152D01*
X91833333Y-3138152D02*
X91785714Y-3233390D01*
X91785714Y-3233390D02*
X91738095Y-3281009D01*
X91738095Y-3281009D02*
X91642857Y-3328628D01*
X91642857Y-3328628D02*
X91261905Y-3328628D01*
X92785714Y-3804819D02*
X92214286Y-3804819D01*
X92500000Y-3804819D02*
X92500000Y-2804819D01*
X92500000Y-2804819D02*
X92404762Y-2947676D01*
X92404762Y-2947676D02*
X92309524Y-3042914D01*
X92309524Y-3042914D02*
X92214286Y-3090533D01*
X91071428Y-6438152D02*
X91071428Y-7104819D01*
X90833333Y-6057200D02*
X90595238Y-6771485D01*
X90595238Y-6771485D02*
X91214285Y-6771485D01*
X91595238Y-7009580D02*
X91642857Y-7057200D01*
X91642857Y-7057200D02*
X91595238Y-7104819D01*
X91595238Y-7104819D02*
X91547619Y-7057200D01*
X91547619Y-7057200D02*
X91595238Y-7009580D01*
X91595238Y-7009580D02*
X91595238Y-7104819D01*
X91976190Y-6104819D02*
X92642856Y-6104819D01*
X92642856Y-6104819D02*
X92214285Y-7104819D01*
X93023809Y-7104819D02*
X93023809Y-6104819D01*
X93119047Y-6723866D02*
X93404761Y-7104819D01*
X93404761Y-6438152D02*
X93023809Y-6819104D01*
D12*
X11753095Y-14452219D02*
X11753095Y-15261742D01*
X11753095Y-15261742D02*
X11800714Y-15356980D01*
X11800714Y-15356980D02*
X11848333Y-15404600D01*
X11848333Y-15404600D02*
X11943571Y-15452219D01*
X11943571Y-15452219D02*
X12134047Y-15452219D01*
X12134047Y-15452219D02*
X12229285Y-15404600D01*
X12229285Y-15404600D02*
X12276904Y-15356980D01*
X12276904Y-15356980D02*
X12324523Y-15261742D01*
X12324523Y-15261742D02*
X12324523Y-14452219D01*
X13324523Y-15452219D02*
X12753095Y-15452219D01*
X13038809Y-15452219D02*
X13038809Y-14452219D01*
X13038809Y-14452219D02*
X12943571Y-14595076D01*
X12943571Y-14595076D02*
X12848333Y-14690314D01*
X12848333Y-14690314D02*
X12753095Y-14737933D01*
D10*
X87833333Y-3804819D02*
X87500000Y-3328628D01*
X87261905Y-3804819D02*
X87261905Y-2804819D01*
X87261905Y-2804819D02*
X87642857Y-2804819D01*
X87642857Y-2804819D02*
X87738095Y-2852438D01*
X87738095Y-2852438D02*
X87785714Y-2900057D01*
X87785714Y-2900057D02*
X87833333Y-2995295D01*
X87833333Y-2995295D02*
X87833333Y-3138152D01*
X87833333Y-3138152D02*
X87785714Y-3233390D01*
X87785714Y-3233390D02*
X87738095Y-3281009D01*
X87738095Y-3281009D02*
X87642857Y-3328628D01*
X87642857Y-3328628D02*
X87261905Y-3328628D01*
X88214286Y-2900057D02*
X88261905Y-2852438D01*
X88261905Y-2852438D02*
X88357143Y-2804819D01*
X88357143Y-2804819D02*
X88595238Y-2804819D01*
X88595238Y-2804819D02*
X88690476Y-2852438D01*
X88690476Y-2852438D02*
X88738095Y-2900057D01*
X88738095Y-2900057D02*
X88785714Y-2995295D01*
X88785714Y-2995295D02*
X88785714Y-3090533D01*
X88785714Y-3090533D02*
X88738095Y-3233390D01*
X88738095Y-3233390D02*
X88166667Y-3804819D01*
X88166667Y-3804819D02*
X88785714Y-3804819D01*
X87071428Y-6438152D02*
X87071428Y-7104819D01*
X86833333Y-6057200D02*
X86595238Y-6771485D01*
X86595238Y-6771485D02*
X87214285Y-6771485D01*
X87595238Y-7009580D02*
X87642857Y-7057200D01*
X87642857Y-7057200D02*
X87595238Y-7104819D01*
X87595238Y-7104819D02*
X87547619Y-7057200D01*
X87547619Y-7057200D02*
X87595238Y-7009580D01*
X87595238Y-7009580D02*
X87595238Y-7104819D01*
X87976190Y-6104819D02*
X88642856Y-6104819D01*
X88642856Y-6104819D02*
X88214285Y-7104819D01*
X89023809Y-7104819D02*
X89023809Y-6104819D01*
X89119047Y-6723866D02*
X89404761Y-7104819D01*
X89404761Y-6438152D02*
X89023809Y-6819104D01*
X29454819Y-3333333D02*
X30169104Y-3333333D01*
X30169104Y-3333333D02*
X30311961Y-3380952D01*
X30311961Y-3380952D02*
X30407200Y-3476190D01*
X30407200Y-3476190D02*
X30454819Y-3619047D01*
X30454819Y-3619047D02*
X30454819Y-3714285D01*
X29454819Y-2952380D02*
X29454819Y-2333333D01*
X29454819Y-2333333D02*
X29835771Y-2666666D01*
X29835771Y-2666666D02*
X29835771Y-2523809D01*
X29835771Y-2523809D02*
X29883390Y-2428571D01*
X29883390Y-2428571D02*
X29931009Y-2380952D01*
X29931009Y-2380952D02*
X30026247Y-2333333D01*
X30026247Y-2333333D02*
X30264342Y-2333333D01*
X30264342Y-2333333D02*
X30359580Y-2380952D01*
X30359580Y-2380952D02*
X30407200Y-2428571D01*
X30407200Y-2428571D02*
X30454819Y-2523809D01*
X30454819Y-2523809D02*
X30454819Y-2809523D01*
X30454819Y-2809523D02*
X30407200Y-2904761D01*
X30407200Y-2904761D02*
X30359580Y-2952380D01*
X34006009Y-20428571D02*
X34006009Y-20761904D01*
X34529819Y-20761904D02*
X33529819Y-20761904D01*
X33529819Y-20761904D02*
X33529819Y-20285714D01*
X34244104Y-19952380D02*
X34244104Y-19476190D01*
X34529819Y-20047618D02*
X33529819Y-19714285D01*
X33529819Y-19714285D02*
X34529819Y-19380952D01*
X34482200Y-19095237D02*
X34529819Y-18952380D01*
X34529819Y-18952380D02*
X34529819Y-18714285D01*
X34529819Y-18714285D02*
X34482200Y-18619047D01*
X34482200Y-18619047D02*
X34434580Y-18571428D01*
X34434580Y-18571428D02*
X34339342Y-18523809D01*
X34339342Y-18523809D02*
X34244104Y-18523809D01*
X34244104Y-18523809D02*
X34148866Y-18571428D01*
X34148866Y-18571428D02*
X34101247Y-18619047D01*
X34101247Y-18619047D02*
X34053628Y-18714285D01*
X34053628Y-18714285D02*
X34006009Y-18904761D01*
X34006009Y-18904761D02*
X33958390Y-18999999D01*
X33958390Y-18999999D02*
X33910771Y-19047618D01*
X33910771Y-19047618D02*
X33815533Y-19095237D01*
X33815533Y-19095237D02*
X33720295Y-19095237D01*
X33720295Y-19095237D02*
X33625057Y-19047618D01*
X33625057Y-19047618D02*
X33577438Y-18999999D01*
X33577438Y-18999999D02*
X33529819Y-18904761D01*
X33529819Y-18904761D02*
X33529819Y-18666666D01*
X33529819Y-18666666D02*
X33577438Y-18523809D01*
X33529819Y-18238094D02*
X33529819Y-17666666D01*
X34529819Y-17952380D02*
X33529819Y-17952380D01*
X34244104Y-16619046D02*
X34244104Y-16142856D01*
X34529819Y-16714284D02*
X33529819Y-16380951D01*
X33529819Y-16380951D02*
X34529819Y-16047618D01*
X33863152Y-15809522D02*
X34529819Y-15571427D01*
X34529819Y-15571427D02*
X33863152Y-15333332D01*
X34529819Y-14952379D02*
X33863152Y-14952379D01*
X33529819Y-14952379D02*
X33577438Y-14999998D01*
X33577438Y-14999998D02*
X33625057Y-14952379D01*
X33625057Y-14952379D02*
X33577438Y-14904760D01*
X33577438Y-14904760D02*
X33529819Y-14952379D01*
X33529819Y-14952379D02*
X33625057Y-14952379D01*
X34529819Y-14333332D02*
X34482200Y-14428570D01*
X34482200Y-14428570D02*
X34434580Y-14476189D01*
X34434580Y-14476189D02*
X34339342Y-14523808D01*
X34339342Y-14523808D02*
X34053628Y-14523808D01*
X34053628Y-14523808D02*
X33958390Y-14476189D01*
X33958390Y-14476189D02*
X33910771Y-14428570D01*
X33910771Y-14428570D02*
X33863152Y-14333332D01*
X33863152Y-14333332D02*
X33863152Y-14190475D01*
X33863152Y-14190475D02*
X33910771Y-14095237D01*
X33910771Y-14095237D02*
X33958390Y-14047618D01*
X33958390Y-14047618D02*
X34053628Y-13999999D01*
X34053628Y-13999999D02*
X34339342Y-13999999D01*
X34339342Y-13999999D02*
X34434580Y-14047618D01*
X34434580Y-14047618D02*
X34482200Y-14095237D01*
X34482200Y-14095237D02*
X34529819Y-14190475D01*
X34529819Y-14190475D02*
X34529819Y-14333332D01*
X33863152Y-13571427D02*
X34529819Y-13571427D01*
X33958390Y-13571427D02*
X33910771Y-13523808D01*
X33910771Y-13523808D02*
X33863152Y-13428570D01*
X33863152Y-13428570D02*
X33863152Y-13285713D01*
X33863152Y-13285713D02*
X33910771Y-13190475D01*
X33910771Y-13190475D02*
X34006009Y-13142856D01*
X34006009Y-13142856D02*
X34529819Y-13142856D01*
X34529819Y-12666665D02*
X33863152Y-12666665D01*
X33529819Y-12666665D02*
X33577438Y-12714284D01*
X33577438Y-12714284D02*
X33625057Y-12666665D01*
X33625057Y-12666665D02*
X33577438Y-12619046D01*
X33577438Y-12619046D02*
X33529819Y-12666665D01*
X33529819Y-12666665D02*
X33625057Y-12666665D01*
X34482200Y-11761904D02*
X34529819Y-11857142D01*
X34529819Y-11857142D02*
X34529819Y-12047618D01*
X34529819Y-12047618D02*
X34482200Y-12142856D01*
X34482200Y-12142856D02*
X34434580Y-12190475D01*
X34434580Y-12190475D02*
X34339342Y-12238094D01*
X34339342Y-12238094D02*
X34053628Y-12238094D01*
X34053628Y-12238094D02*
X33958390Y-12190475D01*
X33958390Y-12190475D02*
X33910771Y-12142856D01*
X33910771Y-12142856D02*
X33863152Y-12047618D01*
X33863152Y-12047618D02*
X33863152Y-11857142D01*
X33863152Y-11857142D02*
X33910771Y-11761904D01*
X34482200Y-11380951D02*
X34529819Y-11285713D01*
X34529819Y-11285713D02*
X34529819Y-11095237D01*
X34529819Y-11095237D02*
X34482200Y-10999999D01*
X34482200Y-10999999D02*
X34386961Y-10952380D01*
X34386961Y-10952380D02*
X34339342Y-10952380D01*
X34339342Y-10952380D02*
X34244104Y-10999999D01*
X34244104Y-10999999D02*
X34196485Y-11095237D01*
X34196485Y-11095237D02*
X34196485Y-11238094D01*
X34196485Y-11238094D02*
X34148866Y-11333332D01*
X34148866Y-11333332D02*
X34053628Y-11380951D01*
X34053628Y-11380951D02*
X34006009Y-11380951D01*
X34006009Y-11380951D02*
X33910771Y-11333332D01*
X33910771Y-11333332D02*
X33863152Y-11238094D01*
X33863152Y-11238094D02*
X33863152Y-11095237D01*
X33863152Y-11095237D02*
X33910771Y-10999999D01*
X34529819Y-9285713D02*
X34529819Y-9761903D01*
X34529819Y-9761903D02*
X33529819Y-9761903D01*
X34529819Y-8952379D02*
X33863152Y-8952379D01*
X33529819Y-8952379D02*
X33577438Y-8999998D01*
X33577438Y-8999998D02*
X33625057Y-8952379D01*
X33625057Y-8952379D02*
X33577438Y-8904760D01*
X33577438Y-8904760D02*
X33529819Y-8952379D01*
X33529819Y-8952379D02*
X33625057Y-8952379D01*
X33863152Y-8476189D02*
X34529819Y-8476189D01*
X33958390Y-8476189D02*
X33910771Y-8428570D01*
X33910771Y-8428570D02*
X33863152Y-8333332D01*
X33863152Y-8333332D02*
X33863152Y-8190475D01*
X33863152Y-8190475D02*
X33910771Y-8095237D01*
X33910771Y-8095237D02*
X34006009Y-8047618D01*
X34006009Y-8047618D02*
X34529819Y-8047618D01*
X34529819Y-7571427D02*
X33529819Y-7571427D01*
X34148866Y-7476189D02*
X34529819Y-7190475D01*
X33863152Y-7190475D02*
X34244104Y-7571427D01*
X30454819Y-12333333D02*
X31169104Y-12333333D01*
X31169104Y-12333333D02*
X31311961Y-12380952D01*
X31311961Y-12380952D02*
X31407200Y-12476190D01*
X31407200Y-12476190D02*
X31454819Y-12619047D01*
X31454819Y-12619047D02*
X31454819Y-12714285D01*
X30454819Y-11952380D02*
X30454819Y-11333333D01*
X30454819Y-11333333D02*
X30835771Y-11666666D01*
X30835771Y-11666666D02*
X30835771Y-11523809D01*
X30835771Y-11523809D02*
X30883390Y-11428571D01*
X30883390Y-11428571D02*
X30931009Y-11380952D01*
X30931009Y-11380952D02*
X31026247Y-11333333D01*
X31026247Y-11333333D02*
X31264342Y-11333333D01*
X31264342Y-11333333D02*
X31359580Y-11380952D01*
X31359580Y-11380952D02*
X31407200Y-11428571D01*
X31407200Y-11428571D02*
X31454819Y-11523809D01*
X31454819Y-11523809D02*
X31454819Y-11809523D01*
X31454819Y-11809523D02*
X31407200Y-11904761D01*
X31407200Y-11904761D02*
X31359580Y-11952380D01*
%TO.C,U2*%
D13*
X88860000Y-10355000D02*
X88860000Y-15655000D01*
X88860000Y-15655000D02*
X99140000Y-15655000D01*
X99140000Y-10355000D02*
X88860000Y-10355000D01*
X99140000Y-12005000D02*
X99140000Y-10355000D01*
X99140000Y-15655000D02*
X99140000Y-14005000D01*
X99140000Y-14005000D02*
G75*
G02*
X99140000Y-12005000I0J1000000D01*
G01*
%TO.C,C1*%
X96738748Y-4265000D02*
X97261252Y-4265000D01*
X96738748Y-5735000D02*
X97261252Y-5735000D01*
%TO.C,J2*%
X36725000Y-21850000D02*
X36725000Y-23100000D01*
X36725000Y-23100000D02*
X37975000Y-23100000D01*
X39275000Y-5200000D02*
X39275000Y-5950000D01*
X39275000Y-5950000D02*
X42225000Y-5950000D01*
X39275000Y-22050000D02*
X42225000Y-22050000D01*
X39275000Y-22800000D02*
X39275000Y-22050000D01*
X42225000Y-5950000D02*
X42225000Y-14000000D01*
X42225000Y-22050000D02*
X42225000Y-14000000D01*
X37015000Y-5190000D02*
X42985000Y-5190000D01*
X42985000Y-22810000D01*
X37015000Y-22810000D01*
X37015000Y-5190000D01*
X37025000Y-5200000D02*
X37775000Y-5200000D01*
X37775000Y-7000000D01*
X37025000Y-7000000D01*
X37025000Y-5200000D01*
X37025000Y-8500000D02*
X37775000Y-8500000D01*
X37775000Y-19500000D01*
X37025000Y-19500000D01*
X37025000Y-8500000D01*
X37025000Y-21000000D02*
X37775000Y-21000000D01*
X37775000Y-22800000D01*
X37025000Y-22800000D01*
X37025000Y-21000000D01*
%TO.C,R1*%
X91772936Y-4265000D02*
X92227064Y-4265000D01*
X91772936Y-5735000D02*
X92227064Y-5735000D01*
%TO.C,U1*%
D14*
X489000Y-17611272D02*
X489000Y-9616000D01*
X989000Y-9116000D02*
X1999000Y-9116000D01*
D11*
X1999000Y-6635000D02*
X1999000Y-20605000D01*
D14*
X1999000Y-6635000D02*
X1999000Y-20605000D01*
X1999000Y-18115000D02*
X988728Y-18111272D01*
X21049000Y-4730000D02*
X3904000Y-4730000D01*
X21049000Y-22510000D02*
X3904000Y-22510000D01*
X22954000Y-20605000D02*
X22954000Y-6635000D01*
X489000Y-9616000D02*
G75*
G02*
X989000Y-9116000I500000J0D01*
G01*
X988728Y-18111272D02*
G75*
G02*
X489028Y-17611272I272J499972D01*
G01*
X1999000Y-6635000D02*
G75*
G02*
X3904000Y-4730000I1905000J0D01*
G01*
X3904000Y-22510000D02*
G75*
G02*
X1999000Y-20605000I0J1905000D01*
G01*
X21049000Y-4730000D02*
G75*
G02*
X22954000Y-6635000I-1J-1905001D01*
G01*
X22954000Y-20605000D02*
G75*
G02*
X21049000Y-22510000I-1905001J1D01*
G01*
D15*
X2392000Y-22524000D02*
G75*
G02*
X1888000Y-22524000I-252000J0D01*
G01*
X1888000Y-22524000D02*
G75*
G02*
X2392000Y-22524000I252000J0D01*
G01*
X3272000Y-21381000D02*
G75*
G02*
X2768000Y-21381000I-252000J0D01*
G01*
X2768000Y-21381000D02*
G75*
G02*
X3272000Y-21381000I252000J0D01*
G01*
%TO.C,R2*%
D13*
X87772936Y-4265000D02*
X88227064Y-4265000D01*
X87772936Y-5735000D02*
X88227064Y-5735000D01*
%TO.C,J3*%
X26725000Y-21850000D02*
X26725000Y-23100000D01*
X26725000Y-23100000D02*
X27975000Y-23100000D01*
X29275000Y-5200000D02*
X29275000Y-5950000D01*
X29275000Y-5950000D02*
X32225000Y-5950000D01*
X29275000Y-22050000D02*
X32225000Y-22050000D01*
X29275000Y-22800000D02*
X29275000Y-22050000D01*
X32225000Y-5950000D02*
X32225000Y-14000000D01*
X32225000Y-22050000D02*
X32225000Y-14000000D01*
X27015000Y-5190000D02*
X32985000Y-5190000D01*
X32985000Y-22810000D01*
X27015000Y-22810000D01*
X27015000Y-5190000D01*
X27025000Y-5200000D02*
X27775000Y-5200000D01*
X27775000Y-7000000D01*
X27025000Y-7000000D01*
X27025000Y-5200000D01*
X27025000Y-8500000D02*
X27775000Y-8500000D01*
X27775000Y-19500000D01*
X27025000Y-19500000D01*
X27025000Y-8500000D01*
X27025000Y-21000000D02*
X27775000Y-21000000D01*
X27775000Y-22800000D01*
X27025000Y-22800000D01*
X27025000Y-21000000D01*
%TD*%
M02*
