%TF.GenerationSoftware,KiCad,Pcbnew,10.0.3*%
%TF.CreationDate,2026-06-13T12:40:48-07:00*%
%TF.ProjectId,AS_GPS_XIAO_OUTBOARD,41535f47-5053-45f5-9849-414f5f4f5554,rev?*%
%TF.SameCoordinates,Original*%
%TF.FileFunction,Soldermask,Top*%
%TF.FilePolarity,Negative*%
%FSLAX46Y46*%
G04 Gerber Fmt 4.6, Leading zero omitted, Abs format (unit mm)*
G04 Created by KiCad (PCBNEW 10.0.3) date 2026-06-13 12:40:48*
%MOMM*%
%LPD*%
G01*
G04 APERTURE LIST*
G04 Aperture macros list*
%AMRoundRect*
0 Rectangle with rounded corners*
0 $1 Rounding radius*
0 $2 $3 $4 $5 $6 $7 $8 $9 X,Y pos of 4 corners*
0 Add a 4 corners polygon primitive as box body*
4,1,4,$2,$3,$4,$5,$6,$7,$8,$9,$2,$3,0*
0 Add four circle primitives for the rounded corners*
1,1,$1+$1,$2,$3*
1,1,$1+$1,$4,$5*
1,1,$1+$1,$6,$7*
1,1,$1+$1,$8,$9*
0 Add four rect primitives between the rounded corners*
20,1,$1+$1,$2,$3,$4,$5,0*
20,1,$1+$1,$4,$5,$6,$7,0*
20,1,$1+$1,$6,$7,$8,$9,0*
20,1,$1+$1,$8,$9,$2,$3,0*%
G04 Aperture macros list end*
%ADD10RoundRect,0.250000X-0.550000X0.550000X-0.550000X-0.550000X0.550000X-0.550000X0.550000X0.550000X0*%
%ADD11C,1.600000*%
%ADD12RoundRect,0.250000X-0.250000X-0.475000X0.250000X-0.475000X0.250000X0.475000X-0.250000X0.475000X0*%
%ADD13C,3.200000*%
%ADD14RoundRect,0.250000X0.725000X-0.600000X0.725000X0.600000X-0.725000X0.600000X-0.725000X-0.600000X0*%
%ADD15O,1.950000X1.700000*%
%ADD16RoundRect,0.250000X-0.262500X-0.450000X0.262500X-0.450000X0.262500X0.450000X-0.262500X0.450000X0*%
%ADD17RoundRect,0.152400X-0.609600X1.063600X-0.609600X-1.063600X0.609600X-1.063600X0.609600X1.063600X0*%
%ADD18C,1.524000*%
%ADD19RoundRect,0.152400X0.609600X-1.063600X0.609600X1.063600X-0.609600X1.063600X-0.609600X-1.063600X0*%
G04 APERTURE END LIST*
D10*
%TO.C,U2*%
X97810000Y-9195000D03*
D11*
X95270000Y-9195000D03*
X92730000Y-9195000D03*
X90190000Y-9195000D03*
X90190000Y-16815000D03*
X92730000Y-16815000D03*
X95270000Y-16815000D03*
X97810000Y-16815000D03*
%TD*%
D12*
%TO.C,C1*%
X96050000Y-5000000D03*
X97950000Y-5000000D03*
%TD*%
D13*
%TO.C,H4*%
X54000000Y-23000000D03*
%TD*%
%TO.C,H2*%
X54000000Y-4000000D03*
%TD*%
D14*
%TO.C,J2*%
X39475000Y-20250000D03*
D15*
X39475000Y-17750000D03*
X39475000Y-15250000D03*
X39475000Y-12750000D03*
X39475000Y-10250000D03*
X39475000Y-7750000D03*
%TD*%
D16*
%TO.C,R1*%
X91087500Y-5000000D03*
X92912500Y-5000000D03*
%TD*%
D17*
%TO.C,U1*%
X4920000Y-22075000D03*
D18*
X4920000Y-21240000D03*
D17*
X7460000Y-22075000D03*
D18*
X7460000Y-21240000D03*
D17*
X10000000Y-22075000D03*
D18*
X10000000Y-21240000D03*
D17*
X12540000Y-22075000D03*
D18*
X12540000Y-21240000D03*
D17*
X15080000Y-22075000D03*
D18*
X15080000Y-21240000D03*
D17*
X17620000Y-22075000D03*
D18*
X17620000Y-21240000D03*
D17*
X20160000Y-22075000D03*
D18*
X20160000Y-21240000D03*
X20160000Y-6000000D03*
D19*
X20160000Y-5165000D03*
D18*
X17620000Y-6000000D03*
D19*
X17620000Y-5165000D03*
D18*
X15080000Y-6000000D03*
D19*
X15080000Y-5165000D03*
D18*
X12540000Y-6000000D03*
D19*
X12540000Y-5165000D03*
D18*
X10000000Y-6000000D03*
D19*
X10000000Y-5165000D03*
D18*
X7460000Y-6000000D03*
D19*
X7460000Y-5165000D03*
D18*
X4920000Y-6000000D03*
D19*
X4920000Y-5165000D03*
%TD*%
D16*
%TO.C,R2*%
X87087500Y-5000000D03*
X88912500Y-5000000D03*
%TD*%
D14*
%TO.C,J3*%
X29475000Y-20250000D03*
D15*
X29475000Y-17750000D03*
X29475000Y-15250000D03*
X29475000Y-12750000D03*
X29475000Y-10250000D03*
X29475000Y-7750000D03*
%TD*%
M02*
